<svg xmlns="http://www.w3.org/2000/svg" xmlns:xlink="http://www.w3.org/1999/xlink" contentStyleType="text/css" height="404px" preserveAspectRatio="none" style="width:371px;height:404px;background:#FFFFFF;" version="1.1" viewBox="0 0 371 404" width="371px" zoomAndPan="magnify"><defs/><g><text fill="#000000" font-family="sans-serif" font-size="14" font-weight="bold" lengthAdjust="spacing" textLength="329.3623" x="13.9568" y="22.9951">Compiler implementation without visitors</text><!--class Node--><g id="elem_Node"><rect codeLine="6" fill="#F1F1F1" height="96.8906" id="Node" rx="2.5" ry="2.5" style="stroke:#181818;stroke-width:0.5;" width="124.1504" x="123.71" y="143.5669"/><ellipse cx="163.7355" cy="159.5669" fill="#ADD1B2" rx="11" ry="11" style="stroke:#181818;stroke-width:1.0;"/><path d="M166.7043,165.2075 Q166.1262,165.5044 165.4855,165.645 Q164.8449,165.8013 164.1418,165.8013 Q161.6418,165.8013 160.3137,164.1606 Q159.0012,162.5044 159.0012,159.3794 Q159.0012,156.2544 160.3137,154.5981 Q161.6418,152.9419 164.1418,152.9419 Q164.8449,152.9419 165.4855,153.0981 Q166.1418,153.2544 166.7043,153.5513 L166.7043,156.27 Q166.0793,155.6919 165.4855,155.4263 Q164.8918,155.145 164.2668,155.145 Q162.923,155.145 162.2355,156.2231 Q161.548,157.2856 161.548,159.3794 Q161.548,161.4731 162.2355,162.5513 Q162.923,163.6138 164.2668,163.6138 Q164.8918,163.6138 165.4855,163.3481 Q166.0793,163.0669 166.7043,162.4888 L166.7043,165.2075 Z " fill="#000000"/><text fill="#000000" font-family="sans-serif" font-size="14" lengthAdjust="spacing" textLength="36.5381" x="183.2968" y="164.4136">Node</text><line style="stroke:#181818;stroke-width:0.5;" x1="124.71" x2="246.8604" y1="175.5669" y2="175.5669"/><line style="stroke:#181818;stroke-width:0.5;" x1="124.71" x2="246.8604" y1="183.5669" y2="183.5669"/><text fill="#000000" font-family="sans-serif" font-size="14" lengthAdjust="spacing" textLength="88.3271" x="129.71" y="200.562">TypeCheck()</text><text fill="#000000" font-family="sans-serif" font-size="14" lengthAdjust="spacing" textLength="112.1504" x="129.71" y="216.8589">GenerateCode()</text><text fill="#000000" font-family="sans-serif" font-size="14" lengthAdjust="spacing" textLength="85.4492" x="129.71" y="233.1557">PrettyPrint()</text></g><!--class VariableRefNode--><g id="elem_VariableRefNode"><rect codeLine="7" fill="#F1F1F1" height="96.8906" id="VariableRefNode" rx="2.5" ry="2.5" style="stroke:#181818;stroke-width:0.5;" width="149.5781" x="7" y="300.4569"/><ellipse cx="22" cy="316.4569" fill="#ADD1B2" rx="11" ry="11" style="stroke:#181818;stroke-width:1.0;"/><path d="M24.9688,322.0975 Q24.3906,322.3944 23.75,322.535 Q23.1094,322.6913 22.4063,322.6913 Q19.9063,322.6913 18.5781,321.0506 Q17.2656,319.3944 17.2656,316.2694 Q17.2656,313.1444 18.5781,311.4881 Q19.9063,309.8319 22.4063,309.8319 Q23.1094,309.8319 23.75,309.9881 Q24.4063,310.1444 24.9688,310.4413 L24.9688,313.16 Q24.3438,312.5819 23.75,312.3163 Q23.1563,312.035 22.5313,312.035 Q21.1875,312.035 20.5,313.1131 Q19.8125,314.1756 19.8125,316.2694 Q19.8125,318.3631 20.5,319.4413 Q21.1875,320.5038 22.5313,320.5038 Q23.1563,320.5038 23.75,320.2381 Q24.3438,319.9569 24.9688,319.3788 L24.9688,322.0975 Z " fill="#000000"/><text fill="#000000" font-family="sans-serif" font-size="14" lengthAdjust="spacing" textLength="117.5781" x="36" y="321.3036">VariableRefNode</text><line style="stroke:#181818;stroke-width:0.5;" x1="8" x2="155.5781" y1="332.4569" y2="332.4569"/><line style="stroke:#181818;stroke-width:0.5;" x1="8" x2="155.5781" y1="340.4569" y2="340.4569"/><text fill="#000000" font-family="sans-serif" font-size="14" lengthAdjust="spacing" textLength="88.3271" x="13" y="357.452">TypeCheck()</text><text fill="#000000" font-family="sans-serif" font-size="14" lengthAdjust="spacing" textLength="112.1504" x="13" y="373.7489">GenerateCode()</text><text fill="#000000" font-family="sans-serif" font-size="14" lengthAdjust="spacing" textLength="85.4492" x="13" y="390.0457">PrettyPrint()</text></g><!--class AssignmentNode--><g id="elem_AssignmentNode"><rect codeLine="8" fill="#F1F1F1" height="96.8906" id="AssignmentNode" rx="2.5" ry="2.5" style="stroke:#181818;stroke-width:0.5;" width="150.9658" x="213.31" y="300.4569"/><ellipse cx="228.31" cy="316.4569" fill="#ADD1B2" rx="11" ry="11" style="stroke:#181818;stroke-width:1.0;"/><path d="M231.2788,322.0975 Q230.7006,322.3944 230.06,322.535 Q229.4194,322.6913 228.7163,322.6913 Q226.2163,322.6913 224.8881,321.0506 Q223.5756,319.3944 223.5756,316.2694 Q223.5756,313.1444 224.8881,311.4881 Q226.2163,309.8319 228.7163,309.8319 Q229.4194,309.8319 230.06,309.9881 Q230.7163,310.1444 231.2788,310.4413 L231.2788,313.16 Q230.6538,312.5819 230.06,312.3163 Q229.4663,312.035 228.8413,312.035 Q227.4975,312.035 226.81,313.1131 Q226.1225,314.1756 226.1225,316.2694 Q226.1225,318.3631 226.81,319.4413 Q227.4975,320.5038 228.8413,320.5038 Q229.4663,320.5038 230.06,320.2381 Q230.6538,319.9569 231.2788,319.3788 L231.2788,322.0975 Z " fill="#000000"/><text fill="#000000" font-family="sans-serif" font-size="14" lengthAdjust="spacing" textLength="118.9658" x="242.31" y="321.3036">AssignmentNode</text><line style="stroke:#181818;stroke-width:0.5;" x1="214.31" x2="363.2758" y1="332.4569" y2="332.4569"/><line style="stroke:#181818;stroke-width:0.5;" x1="214.31" x2="363.2758" y1="340.4569" y2="340.4569"/><text fill="#000000" font-family="sans-serif" font-size="14" lengthAdjust="spacing" textLength="88.3271" x="219.31" y="357.452">TypeCheck()</text><text fill="#000000" font-family="sans-serif" font-size="14" lengthAdjust="spacing" textLength="112.1504" x="219.31" y="373.7489">GenerateCode()</text><text fill="#000000" font-family="sans-serif" font-size="14" lengthAdjust="spacing" textLength="85.4492" x="219.31" y="390.0457">PrettyPrint()</text></g><g id="elem_nOperations"><path d="M53.78,43.2969 L53.78,83.5625 L317.8064,83.5625 L317.8064,53.2969 L307.8064,43.2969 L53.78,43.2969 " fill="#FEFFDD" style="stroke:#181818;stroke-width:0.5;"/><path d="M307.8064,43.2969 L307.8064,53.2969 L317.8064,53.2969 L307.8064,43.2969 " fill="#FEFFDD" style="stroke:#181818;stroke-width:1.0;"/><text fill="#000000" font-family="sans-serif" font-size="13" lengthAdjust="spacing" textLength="238.894" x="59.78" y="60.3638">Operations are implemented in each</text><text fill="#000000" font-family="sans-serif" font-size="13" lengthAdjust="spacing" textLength="180.6543" x="59.78" y="75.4966">class of the class heirarchy.</text></g><!--reverse link Node to VariableRefNode--><g id="link_Node_VariableRefNode"><path codeLine="10" d="M140.15,258.7969 C140.15,277.6869 140.15,281.2669 140.15,300.1469 " fill="none" id="Node-backto-VariableRefNode" style="stroke:#181818;stroke-width:1.0;"/><polygon fill="none" points="140.15,240.7969,134.15,258.7969,146.15,258.7969,140.15,240.7969" style="stroke:#181818;stroke-width:1.0;"/></g><!--reverse link Node to AssignmentNode--><g id="link_Node_AssignmentNode"><path codeLine="11" d="M230.59,258.7969 C230.59,277.6869 230.59,281.2669 230.59,300.1469 " fill="none" id="Node-backto-AssignmentNode" style="stroke:#181818;stroke-width:1.0;"/><polygon fill="none" points="230.59,240.7969,224.59,258.7969,236.59,258.7969,230.59,240.7969" style="stroke:#181818;stroke-width:1.0;"/></g><!--link nOperations to Node--><g id="link_nOperations_Node"><path codeLine="29" d="M185.79,83.8069 C185.79,99.7369 185.79,122.5669 185.79,143.1469 " fill="none" id="nOperations-Node" style="stroke:#181818;stroke-width:1.0;stroke-dasharray:7.0,7.0;"/></g><!--link nOperations to AssignmentNode--><g id="link_nOperations_AssignmentNode"><path codeLine="30" d="M282.83,83.9669 C282.83,128.8369 282.83,236.6969 282.83,300.0969 " fill="none" id="nOperations-AssignmentNode" style="stroke:#181818;stroke-width:1.0;stroke-dasharray:7.0,7.0;"/></g><!--link nOperations to VariableRefNode--><g id="link_nOperations_VariableRefNode"><path codeLine="31" d="M88.74,83.9669 C88.74,128.8369 88.74,236.6969 88.74,300.0969 " fill="none" id="nOperations-VariableRefNode" style="stroke:#181818;stroke-width:1.0;stroke-dasharray:7.0,7.0;"/></g><!--SRC=[RP71JiCm38RlUGeVuR0-0EA2Uk064vguUwr7hALEvHYcIZmywJRKuP935F-__JdINuui8oeEa5Z8ff4WgyKSWh4bWZOF8oTIu65CD90O6cU14zUcJuClBcnPImXTmbBW9VTqVRwZCkuJlT7XHdqgXJza1ft5CD_m-BtPhFeNvz-P1zZLtxQHkkFT_Q_qJ4AAHcqj5tMhP3PjbSMg6DmYHrgx3hfkSFo_ttNubUdeAz_19Hi15f3NSHwhMPG0zImbeD8I5_N00eHTX7FV9OLy08jqBIAnedPnQW993_E6S8E7fhd4wZINYdDzcZy0]--></g></svg>