<svg xmlns="http://www.w3.org/2000/svg" xmlns:xlink="http://www.w3.org/1999/xlink" contentStyleType="text/css" height="556px" preserveAspectRatio="none" style="width:1224px;height:556px;background:#FFFFFF;" version="1.1" viewBox="0 0 1224 556" width="1224px" zoomAndPan="magnify"><defs/><g><text fill="#000000" font-family="sans-serif" font-size="14" font-weight="bold" lengthAdjust="spacing" textLength="302.7705" x="454.0541" y="22.9951">Visitor Pattern Compiler Example with</text><!--class NodeVisitor--><g id="elem_NodeVisitor"><rect codeLine="8" fill="#F1F1F1" height="88.8594" id="NodeVisitor" rx="2.5" ry="2.5" style="stroke:#181818;stroke-width:0.5;" width="288.2539" x="7" y="270.8669"/><ellipse cx="106.3774" cy="290.9997" fill="#ADD1B2" rx="11" ry="11" style="stroke:#181818;stroke-width:1.0;"/><path d="M109.3462,296.6403 Q108.7681,296.9372 108.1274,297.0778 Q107.4868,297.2341 106.7837,297.2341 Q104.2837,297.2341 102.9556,295.5934 Q101.6431,293.9372 101.6431,290.8122 Q101.6431,287.6872 102.9556,286.0309 Q104.2837,284.3747 106.7837,284.3747 Q107.4868,284.3747 108.1274,284.5309 Q108.7837,284.6872 109.3462,284.9841 L109.3462,287.7028 Q108.7212,287.1247 108.1274,286.8591 Q107.5337,286.5778 106.9087,286.5778 Q105.5649,286.5778 104.8774,287.6559 Q104.1899,288.7184 104.1899,290.8122 Q104.1899,292.9059 104.8774,293.9841 Q105.5649,295.0466 106.9087,295.0466 Q107.5337,295.0466 108.1274,294.7809 Q108.7212,294.4997 109.3462,293.9216 L109.3462,296.6403 Z " fill="#000000"/><text fill="#000000" font-family="sans-serif" font-size="12" font-style="italic" lengthAdjust="spacing" textLength="52.9219" x="140.916" y="287.0055">&#171;Visitor&#187;</text><text fill="#000000" font-family="sans-serif" font-size="14" lengthAdjust="spacing" textLength="80.999" x="126.8774" y="302.8307">NodeVisitor</text><line style="stroke:#181818;stroke-width:0.5;" x1="8" x2="294.2539" y1="311.1325" y2="311.1325"/><line style="stroke:#181818;stroke-width:0.5;" x1="8" x2="294.2539" y1="319.1325" y2="319.1325"/><text fill="#000000" font-family="sans-serif" font-size="14" lengthAdjust="spacing" textLength="242.457" x="13" y="336.1276">VisitAssignment(AssignmentNode)</text><text fill="#000000" font-family="sans-serif" font-size="14" lengthAdjust="spacing" textLength="276.2539" x="13" y="352.4245">VisitVariableRefNode(VeriableRefNode)</text></g><!--class TypeCheckingVisitor--><g id="elem_TypeCheckingVisitor"><rect codeLine="9" fill="#F1F1F1" height="88.8594" id="TypeCheckingVisitor" rx="2.5" ry="2.5" style="stroke:#181818;stroke-width:0.5;" width="288.2539" x="363.25" y="460.2969"/><ellipse cx="431.3701" cy="480.4297" fill="#ADD1B2" rx="11" ry="11" style="stroke:#181818;stroke-width:1.0;"/><path d="M434.3389,486.0703 Q433.7607,486.3672 433.1201,486.5078 Q432.4795,486.6641 431.7764,486.6641 Q429.2764,486.6641 427.9482,485.0234 Q426.6357,483.3672 426.6357,480.2422 Q426.6357,477.1172 427.9482,475.4609 Q429.2764,473.8047 431.7764,473.8047 Q432.4795,473.8047 433.1201,473.9609 Q433.7764,474.1172 434.3389,474.4141 L434.3389,477.1328 Q433.7139,476.5547 433.1201,476.2891 Q432.5264,476.0078 431.9014,476.0078 Q430.5576,476.0078 429.8701,477.0859 Q429.1826,478.1484 429.1826,480.2422 Q429.1826,482.3359 429.8701,483.4141 Q430.5576,484.4766 431.9014,484.4766 Q432.5264,484.4766 433.1201,484.2109 Q433.7139,483.9297 434.3389,483.3516 L434.3389,486.0703 Z " fill="#000000"/><text fill="#000000" font-family="sans-serif" font-size="12" font-style="italic" lengthAdjust="spacing" textLength="107.25" x="470.002" y="476.4355">&#171;ConcreteVisitor&#187;</text><text fill="#000000" font-family="sans-serif" font-size="14" lengthAdjust="spacing" textLength="143.5137" x="451.8701" y="492.2607">TypeCheckingVisitor</text><line style="stroke:#181818;stroke-width:0.5;" x1="364.25" x2="650.5039" y1="500.5625" y2="500.5625"/><line style="stroke:#181818;stroke-width:0.5;" x1="364.25" x2="650.5039" y1="508.5625" y2="508.5625"/><text fill="#000000" font-family="sans-serif" font-size="14" lengthAdjust="spacing" textLength="242.457" x="369.25" y="525.5576">VisitAssignment(AssignmentNode)</text><text fill="#000000" font-family="sans-serif" font-size="14" lengthAdjust="spacing" textLength="276.2539" x="369.25" y="541.8545">VisitVariableRefNode(VeriableRefNode)</text></g><!--class CodeGeneratingVisitor--><g id="elem_CodeGeneratingVisitor"><rect codeLine="10" fill="#F1F1F1" height="88.8594" id="CodeGeneratingVisitor" rx="2.5" ry="2.5" style="stroke:#181818;stroke-width:0.5;" width="288.2539" x="363.13" y="332.8669"/><ellipse cx="423.6451" cy="352.9997" fill="#ADD1B2" rx="11" ry="11" style="stroke:#181818;stroke-width:1.0;"/><path d="M426.6139,358.6403 Q426.0358,358.9372 425.3951,359.0778 Q424.7545,359.2341 424.0514,359.2341 Q421.5514,359.2341 420.2233,357.5934 Q418.9108,355.9372 418.9108,352.8122 Q418.9108,349.6872 420.2233,348.0309 Q421.5514,346.3747 424.0514,346.3747 Q424.7545,346.3747 425.3951,346.5309 Q426.0514,346.6872 426.6139,346.9841 L426.6139,349.7028 Q425.9889,349.1247 425.3951,348.8591 Q424.8014,348.5778 424.1764,348.5778 Q422.8326,348.5778 422.1451,349.6559 Q421.4576,350.7184 421.4576,352.8122 Q421.4576,354.9059 422.1451,355.9841 Q422.8326,357.0466 424.1764,357.0466 Q424.8014,357.0466 425.3951,356.7809 Q425.9889,356.4997 426.6139,355.9216 L426.6139,358.6403 Z " fill="#000000"/><text fill="#000000" font-family="sans-serif" font-size="12" font-style="italic" lengthAdjust="spacing" textLength="107.25" x="469.882" y="349.0055">&#171;ConcreteVisitor&#187;</text><text fill="#000000" font-family="sans-serif" font-size="14" lengthAdjust="spacing" textLength="158.7236" x="444.1451" y="364.8307">CodeGeneratingVisitor</text><line style="stroke:#181818;stroke-width:0.5;" x1="364.13" x2="650.3839" y1="373.1325" y2="373.1325"/><line style="stroke:#181818;stroke-width:0.5;" x1="364.13" x2="650.3839" y1="381.1325" y2="381.1325"/><text fill="#000000" font-family="sans-serif" font-size="14" lengthAdjust="spacing" textLength="242.457" x="369.13" y="398.1276">VisitAssignment(AssignmentNode)</text><text fill="#000000" font-family="sans-serif" font-size="14" lengthAdjust="spacing" textLength="276.2539" x="369.13" y="414.4245">VisitVariableRefNode(VeriableRefNode)</text></g><!--class PrettyPrintingVisitor--><g id="elem_PrettyPrintingVisitor"><rect codeLine="11" fill="#F1F1F1" height="88.8594" id="PrettyPrintingVisitor" rx="2.5" ry="2.5" style="stroke:#181818;stroke-width:0.5;" width="288.2539" x="363.13" y="208.8669"/><ellipse cx="432.6891" cy="228.9997" fill="#ADD1B2" rx="11" ry="11" style="stroke:#181818;stroke-width:1.0;"/><path d="M435.6578,234.6403 Q435.0797,234.9372 434.4391,235.0778 Q433.7985,235.2341 433.0953,235.2341 Q430.5953,235.2341 429.2672,233.5934 Q427.9547,231.9372 427.9547,228.8122 Q427.9547,225.6872 429.2672,224.0309 Q430.5953,222.3747 433.0953,222.3747 Q433.7985,222.3747 434.4391,222.5309 Q435.0953,222.6872 435.6578,222.9841 L435.6578,225.7028 Q435.0328,225.1247 434.4391,224.8591 Q433.8453,224.5778 433.2203,224.5778 Q431.8766,224.5778 431.1891,225.6559 Q430.5016,226.7184 430.5016,228.8122 Q430.5016,230.9059 431.1891,231.9841 Q431.8766,233.0466 433.2203,233.0466 Q433.8453,233.0466 434.4391,232.7809 Q435.0328,232.4997 435.6578,231.9216 L435.6578,234.6403 Z " fill="#000000"/><text fill="#000000" font-family="sans-serif" font-size="12" font-style="italic" lengthAdjust="spacing" textLength="107.25" x="469.882" y="225.0055">&#171;ConcreteVisitor&#187;</text><text fill="#000000" font-family="sans-serif" font-size="14" lengthAdjust="spacing" textLength="140.6357" x="453.1891" y="240.8307">PrettyPrintingVisitor</text><line style="stroke:#181818;stroke-width:0.5;" x1="364.13" x2="650.3839" y1="249.1325" y2="249.1325"/><line style="stroke:#181818;stroke-width:0.5;" x1="364.13" x2="650.3839" y1="257.1325" y2="257.1325"/><text fill="#000000" font-family="sans-serif" font-size="14" lengthAdjust="spacing" textLength="242.457" x="369.13" y="274.1276">VisitAssignment(AssignmentNode)</text><text fill="#000000" font-family="sans-serif" font-size="14" lengthAdjust="spacing" textLength="276.2539" x="369.13" y="290.4245">VisitVariableRefNode(VeriableRefNode)</text></g><!--class Node--><g id="elem_Node"><rect codeLine="13" fill="#F1F1F1" height="72.5625" id="Node" rx="2.5" ry="2.5" style="stroke:#181818;stroke-width:0.5;" width="151.8838" x="431.31" y="101.0169"/><ellipse cx="473.0353" cy="121.1497" fill="#ADD1B2" rx="11" ry="11" style="stroke:#181818;stroke-width:1.0;"/><path d="M476.0041,126.7903 Q475.426,127.0872 474.7853,127.2278 Q474.1447,127.3841 473.4416,127.3841 Q470.9416,127.3841 469.6135,125.7434 Q468.301,124.0872 468.301,120.9622 Q468.301,117.8372 469.6135,116.1809 Q470.9416,114.5247 473.4416,114.5247 Q474.1447,114.5247 474.7853,114.6809 Q475.4416,114.8372 476.0041,115.1341 L476.0041,117.8528 Q475.3791,117.2747 474.7853,117.0091 Q474.1916,116.7278 473.5666,116.7278 Q472.2228,116.7278 471.5353,117.8059 Q470.8478,118.8684 470.8478,120.9622 Q470.8478,123.0559 471.5353,124.1341 Q472.2228,125.1966 473.5666,125.1966 Q474.1916,125.1966 474.7853,124.9309 Q475.3791,124.6497 476.0041,124.0716 L476.0041,126.7903 Z " fill="#000000"/><text fill="#000000" font-family="sans-serif" font-size="12" font-style="italic" lengthAdjust="spacing" textLength="64.4941" x="490.9743" y="117.1555">&#171;Element&#187;</text><text fill="#000000" font-family="sans-serif" font-size="14" lengthAdjust="spacing" textLength="36.5381" x="504.9523" y="132.9807">Node</text><line style="stroke:#181818;stroke-width:0.5;" x1="432.31" x2="582.1938" y1="141.2825" y2="141.2825"/><line style="stroke:#181818;stroke-width:0.5;" x1="432.31" x2="582.1938" y1="149.2825" y2="149.2825"/><text fill="#000000" font-family="sans-serif" font-size="14" lengthAdjust="spacing" textLength="139.8838" x="437.31" y="166.2776">Accept(NodeVisitor)</text></g><!--class AssignmentNode--><g id="elem_AssignmentNode"><rect codeLine="14" fill="#F1F1F1" height="72.5625" id="AssignmentNode" rx="2.5" ry="2.5" style="stroke:#181818;stroke-width:0.5;" width="151.8838" x="770.14" y="159.2969"/><ellipse cx="785.5531" cy="179.4297" fill="#ADD1B2" rx="11" ry="11" style="stroke:#181818;stroke-width:1.0;"/><path d="M788.5218,185.0703 Q787.9437,185.3672 787.3031,185.5078 Q786.6625,185.6641 785.9593,185.6641 Q783.4593,185.6641 782.1312,184.0234 Q780.8187,182.3672 780.8187,179.2422 Q780.8187,176.1172 782.1312,174.4609 Q783.4593,172.8047 785.9593,172.8047 Q786.6625,172.8047 787.3031,172.9609 Q787.9593,173.1172 788.5218,173.4141 L788.5218,176.1328 Q787.8968,175.5547 787.3031,175.2891 Q786.7093,175.0078 786.0843,175.0078 Q784.7406,175.0078 784.0531,176.0859 Q783.3656,177.1484 783.3656,179.2422 Q783.3656,181.3359 784.0531,182.4141 Q784.7406,183.4766 786.0843,183.4766 Q786.7093,183.4766 787.3031,183.2109 Q787.8968,182.9297 788.5218,182.3516 L788.5218,185.0703 Z " fill="#000000"/><text fill="#000000" font-family="sans-serif" font-size="12" font-style="italic" lengthAdjust="spacing" textLength="118.8223" x="799.7167" y="175.4355">&#171;ConcreteElement&#187;</text><text fill="#000000" font-family="sans-serif" font-size="14" lengthAdjust="spacing" textLength="118.9658" x="799.6449" y="191.2607">AssignmentNode</text><line style="stroke:#181818;stroke-width:0.5;" x1="771.14" x2="921.0238" y1="199.5625" y2="199.5625"/><line style="stroke:#181818;stroke-width:0.5;" x1="771.14" x2="921.0238" y1="207.5625" y2="207.5625"/><text fill="#000000" font-family="sans-serif" font-size="14" lengthAdjust="spacing" textLength="139.8838" x="776.14" y="224.5576">Accept(NodeVisitor)</text></g><!--class VariableRefNode--><g id="elem_VariableRefNode"><rect codeLine="15" fill="#F1F1F1" height="72.5625" id="VariableRefNode" rx="2.5" ry="2.5" style="stroke:#181818;stroke-width:0.5;" width="151.8838" x="770.14" y="44.2969"/><ellipse cx="786.1775" cy="64.4297" fill="#ADD1B2" rx="11" ry="11" style="stroke:#181818;stroke-width:1.0;"/><path d="M789.1463,70.0703 Q788.5682,70.3672 787.9275,70.5078 Q787.2869,70.6641 786.5838,70.6641 Q784.0838,70.6641 782.7557,69.0234 Q781.4432,67.3672 781.4432,64.2422 Q781.4432,61.1172 782.7557,59.4609 Q784.0838,57.8047 786.5838,57.8047 Q787.2869,57.8047 787.9275,57.9609 Q788.5838,58.1172 789.1463,58.4141 L789.1463,61.1328 Q788.5213,60.5547 787.9275,60.2891 Q787.3338,60.0078 786.7088,60.0078 Q785.365,60.0078 784.6775,61.0859 Q783.99,62.1484 783.99,64.2422 Q783.99,66.3359 784.6775,67.4141 Q785.365,68.4766 786.7088,68.4766 Q787.3338,68.4766 787.9275,68.2109 Q788.5213,67.9297 789.1463,67.3516 L789.1463,70.0703 Z " fill="#000000"/><text fill="#000000" font-family="sans-serif" font-size="12" font-style="italic" lengthAdjust="spacing" textLength="118.8223" x="799.786" y="60.4355">&#171;ConcreteElement&#187;</text><text fill="#000000" font-family="sans-serif" font-size="14" lengthAdjust="spacing" textLength="117.5781" x="800.4081" y="76.2607">VariableRefNode</text><line style="stroke:#181818;stroke-width:0.5;" x1="771.14" x2="921.0238" y1="84.5625" y2="84.5625"/><line style="stroke:#181818;stroke-width:0.5;" x1="771.14" x2="921.0238" y1="92.5625" y2="92.5625"/><text fill="#000000" font-family="sans-serif" font-size="14" lengthAdjust="spacing" textLength="139.8838" x="776.14" y="109.5576">Accept(NodeVisitor)</text></g><!--entity Program--><g id="elem_Program"><rect fill="#F1F1F1" height="36.2969" rx="2.5" ry="2.5" style="stroke:#181818;stroke-width:0.5;" width="79.623" x="111.32" y="159.1469"/><text fill="#000000" font-family="sans-serif" font-size="14" lengthAdjust="spacing" textLength="59.623" x="121.32" y="182.142">Program</text></g><g id="elem_nProgram"><path d="M13.39,68.5969 L13.39,123.9953 A0,0 0 0 0 13.39,123.9953 L147.13,123.9953 L151.13,159.0369 L155.13,123.9953 L288.8612,123.9953 A0,0 0 0 0 288.8612,123.9953 L288.8612,78.5969 L278.8612,68.5969 L13.39,68.5969 A0,0 0 0 0 13.39,68.5969 " fill="#FEFFDD" style="stroke:#181818;stroke-width:0.5;"/><path d="M278.8612,68.5969 L278.8612,78.5969 L288.8612,78.5969 L278.8612,68.5969 " fill="#FEFFDD" style="stroke:#181818;stroke-width:0.5;"/><text fill="#000000" font-family="sans-serif" font-size="13" font-weight="bold" lengthAdjust="spacing" textLength="20.9282" x="19.39" y="85.6638">(1)</text><text fill="#000000" font-family="sans-serif" font-size="13" lengthAdjust="spacing" textLength="240.3477" x="19.39" y="100.7966">node-&gt;Accept(TypeCheckingVisitor);</text><text fill="#000000" font-family="sans-serif" font-size="13" lengthAdjust="spacing" textLength="254.4712" x="19.39" y="115.9294">node-&gt;Accept(CodeGeneratingVisitor);</text></g><g id="elem_nAssignmentNodeAccept"><path d="M1032.03,199.1669 L1032.03,213.2269 L920.86,217.2269 L1032.03,221.2269 L1032.03,239.4325 A0,0 0 0 0 1032.03,239.4325 L1217.8786,239.4325 A0,0 0 0 0 1217.8786,239.4325 L1217.8786,209.1669 L1207.8786,199.1669 L1032.03,199.1669 A0,0 0 0 0 1032.03,199.1669 " fill="#FEFFDD" style="stroke:#181818;stroke-width:0.5;"/><path d="M1207.8786,199.1669 L1207.8786,209.1669 L1217.8786,209.1669 L1207.8786,199.1669 " fill="#FEFFDD" style="stroke:#181818;stroke-width:0.5;"/><text fill="#000000" font-family="sans-serif" font-size="13" font-weight="bold" lengthAdjust="spacing" textLength="20.9282" x="1038.03" y="216.2338">(2)</text><text fill="#000000" font-family="sans-serif" font-size="13" lengthAdjust="spacing" textLength="164.8486" x="1038.03" y="231.3666">v-&gt;visitAssignment(this);</text></g><g id="elem_nVariableRefNodeAccept"><path d="M1032.67,84.1669 L1032.67,98.2269 L920.86,102.2269 L1032.67,106.2269 L1032.67,124.4325 A0,0 0 0 0 1032.67,124.4325 L1217.2301,124.4325 A0,0 0 0 0 1217.2301,124.4325 L1217.2301,94.1669 L1207.2301,84.1669 L1032.67,84.1669 A0,0 0 0 0 1032.67,84.1669 " fill="#FEFFDD" style="stroke:#181818;stroke-width:0.5;"/><path d="M1207.2301,84.1669 L1207.2301,94.1669 L1217.2301,94.1669 L1207.2301,84.1669 " fill="#FEFFDD" style="stroke:#181818;stroke-width:0.5;"/><text fill="#000000" font-family="sans-serif" font-size="13" font-weight="bold" lengthAdjust="spacing" textLength="20.9282" x="1038.67" y="101.2338">(2)</text><text fill="#000000" font-family="sans-serif" font-size="13" lengthAdjust="spacing" textLength="163.5601" x="1038.67" y="116.3666">v-&gt;visitVariableRef(this);</text></g><g id="elem_nConcreteVisitor"><path d="M719.25,334.4669 L719.25,420.1309 L972.022,420.1309 L972.022,344.4669 L962.022,334.4669 L719.25,334.4669 " fill="#FEFFDD" style="stroke:#181818;stroke-width:0.5;"/><path d="M962.022,334.4669 L962.022,344.4669 L972.022,344.4669 L962.022,334.4669 " fill="#FEFFDD" style="stroke:#181818;stroke-width:1.0;"/><text fill="#000000" font-family="sans-serif" font-size="13" lengthAdjust="spacing" textLength="8.8931" x="725.25" y="351.5338">A</text><text fill="#000000" font-family="sans-serif" font-size="13" font-weight="bold" lengthAdjust="spacing" textLength="113.9595" x="738.2754" y="351.5338">ConcreteVisitor</text><text fill="#000000" font-family="sans-serif" font-size="13" lengthAdjust="spacing" textLength="32.2715" x="856.3672" y="351.5338">class</text><text fill="#000000" font-family="sans-serif" font-size="13" lengthAdjust="spacing" textLength="219.6479" x="725.25" y="366.6666">replaces each inherited operation</text><text fill="#000000" font-family="sans-serif" font-size="13" lengthAdjust="spacing" textLength="118.1045" x="725.25" y="381.7994">in class heirarchy.</text><text fill="#000000" font-family="sans-serif" font-size="13" lengthAdjust="spacing" textLength="129.4985" x="725.25" y="396.9322">Which is sent to the</text><text fill="#000000" font-family="sans-serif" font-size="13" font-weight="bold" lengthAdjust="spacing" textLength="98.1411" x="858.8809" y="396.9322">Node::Accept</text><text fill="#000000" font-family="sans-serif" font-size="13" lengthAdjust="spacing" textLength="173.6909" x="725.25" y="412.065">operation as an argument.</text></g><g id="elem_nTypeCheckingVisitorAccept"><path d="M736.66,500.1669 L736.66,516.2969 L651.25,520.2969 L736.66,524.2969 L736.66,540.4325 A0,0 0 0 0 736.66,540.4325 L954.6151,540.4325 A0,0 0 0 0 954.6151,540.4325 L954.6151,510.1669 L944.6151,500.1669 L736.66,500.1669 A0,0 0 0 0 736.66,500.1669 " fill="#FEFFDD" style="stroke:#181818;stroke-width:0.5;"/><path d="M944.6151,500.1669 L944.6151,510.1669 L954.6151,510.1669 L944.6151,500.1669 " fill="#FEFFDD" style="stroke:#181818;stroke-width:0.5;"/><text fill="#000000" font-family="sans-serif" font-size="13" font-weight="bold" lengthAdjust="spacing" textLength="20.9282" x="742.66" y="517.2338">(3)</text><text fill="#000000" font-family="sans-serif" font-size="13" lengthAdjust="spacing" textLength="196.9551" x="742.66" y="532.3666">TypeCheck(node-&gt;getData());</text></g><!--reverse link NodeVisitor to TypeCheckingVisitor--><g id="link_NodeVisitor_TypeCheckingVisitor"><path codeLine="35" d="M313.63,350.7769 C349.14,350.7769 359.19,350.7769 359.19,350.7769 C359.19,350.7769 359.19,411.4969 359.19,456.5669 " fill="none" id="NodeVisitor-backto-TypeCheckingVisitor" style="stroke:#181818;stroke-width:1.0;"/><polygon fill="none" points="295.63,350.7769,313.63,356.7769,313.63,344.7769,295.63,350.7769" style="stroke:#181818;stroke-width:1.0;"/></g><!--reverse link NodeVisitor to CodeGeneratingVisitor--><g id="link_NodeVisitor_CodeGeneratingVisitor"><path codeLine="36" d="M313.72,341.8169 C335.88,341.8169 340.76,341.8169 362.91,341.8169 " fill="none" id="NodeVisitor-backto-CodeGeneratingVisitor" style="stroke:#181818;stroke-width:1.0;"/><polygon fill="none" points="295.72,341.8169,313.72,347.8169,313.72,335.8169,295.72,341.8169" style="stroke:#181818;stroke-width:1.0;"/></g><!--reverse link NodeVisitor to PrettyPrintingVisitor--><g id="link_NodeVisitor_PrettyPrintingVisitor"><path codeLine="37" d="M313.72,284.2969 C335.88,284.2969 340.76,284.2969 362.91,284.2969 " fill="none" id="NodeVisitor-backto-PrettyPrintingVisitor" style="stroke:#181818;stroke-width:1.0;"/><polygon fill="none" points="295.72,284.2969,313.72,290.2969,313.72,278.2969,295.72,284.2969" style="stroke:#181818;stroke-width:1.0;"/></g><!--reverse link Node to AssignmentNode--><g id="link_Node_AssignmentNode"><path codeLine="39" d="M601.62,164.4369 C654.73,164.4369 707.53,164.4369 762.15,164.4369 " fill="none" id="Node-backto-AssignmentNode" style="stroke:#181818;stroke-width:1.0;"/><polygon fill="none" points="583.62,164.4369,601.62,170.4369,601.62,158.4369,583.62,164.4369" style="stroke:#181818;stroke-width:1.0;"/></g><!--reverse link Node to VariableRefNode--><g id="link_Node_VariableRefNode"><path codeLine="40" d="M601.62,110.6569 C654.73,110.6569 707.53,110.6569 762.15,110.6569 " fill="none" id="Node-backto-VariableRefNode" style="stroke:#181818;stroke-width:1.0;"/><polygon fill="none" points="583.62,110.6569,601.62,116.6569,601.62,104.6569,583.62,110.6569" style="stroke:#181818;stroke-width:1.0;"/></g><!--link Program to Node--><g id="link_Program_Node"><path codeLine="42" d="M203.29,166.3669 C261.32,166.3669 351.69,166.3669 425.15,166.3669 " fill="none" id="Program-Node" style="stroke:#181818;stroke-width:1.0;"/><polygon fill="none" points="191.29,166.3669,197.29,170.3669,203.29,166.3669,197.29,162.3669,191.29,166.3669" style="stroke:#181818;stroke-width:1.0;"/><polygon fill="#181818" points="431.15,166.3669,422.15,162.3669,426.15,166.3669,422.15,170.3669,431.15,166.3669" style="stroke:#181818;stroke-width:1.0;"/></g><!--link Program to NodeVisitor--><g id="link_Program_NodeVisitor"><path codeLine="43" d="M151.13,195.9069 C151.13,214.9669 151.13,239.2869 151.13,264.6069 " fill="none" id="Program-to-NodeVisitor" style="stroke:#181818;stroke-width:1.0;"/><polygon fill="#181818" points="151.13,270.6069,155.13,261.6069,151.13,265.6069,147.13,261.6069,151.13,270.6069" style="stroke:#181818;stroke-width:1.0;"/></g><!--link TypeCheckingVisitor to nConcreteVisitor--><g id="link_TypeCheckingVisitor_nConcreteVisitor"><path codeLine="71" d="M659.03,478.2269 C697.4,478.2269 727.96,478.2269 727.96,478.2269 C727.96,478.2269 727.96,447.8269 727.96,420.3969 " fill="none" id="TypeCheckingVisitor-nConcreteVisitor" style="stroke:#181818;stroke-width:1.0;stroke-dasharray:7.0,7.0;"/></g><!--link CodeGeneratingVisitor to nConcreteVisitor--><g id="link_CodeGeneratingVisitor_nConcreteVisitor"><path codeLine="72" d="M651.74,377.2969 C674.11,377.2969 697.06,377.2969 718.99,377.2969 " fill="none" id="CodeGeneratingVisitor-nConcreteVisitor" style="stroke:#181818;stroke-width:1.0;stroke-dasharray:7.0,7.0;"/></g><!--link PrettyPrintingVisitor to nConcreteVisitor--><g id="link_PrettyPrintingVisitor_nConcreteVisitor"><path codeLine="73" d="M651.78,268.5769 C699.53,268.5769 740.7,268.5769 740.7,268.5769 C740.7,268.5769 740.7,303.6969 740.7,334.0169 " fill="none" id="PrettyPrintingVisitor-nConcreteVisitor" style="stroke:#181818;stroke-width:1.0;stroke-dasharray:7.0,7.0;"/></g><!--SRC=[ZLLDhvim4BpxL-mH3b2rlT48AKgVUgkYgahF3jc7hOADx7qVaVhZQmmXu3ZXvH21FRipE-irl6dqMolVfQgP_IjLnmrleP4AwTmXQ4D2imQV2KY3aRKWE4c35Kcj62D93S91MadQm9uJeL6mqsqd6pJmzCxRpW7U90bWh6gujV1Jd_0IiTcCJsKvxlvsh3k1bPDINr4xhIg3X25wvtBzG8M6quVmUxT8vxsHQWq_4-lsdnfiKT6KPskjh5M_D08k2KBWWHl9Zmt-mkUxIDRRoLNjZDeRNJl_6PkRL0m6NpcJ9NqQGmV4oG4NxobZCQVNgHv4hLF6sxLE-Z1kdJRUzNNQXt7hjBxX1Moh2ZjAPZrAMN1-ug3mxCHHY-Pl_cLPR8HkGL5BRs5H2yRIF61PoMmZKDztmPzjq5bM-hcQLiRtARlIXC0jgCiuWFjjZcNoEGN_h1mwAqSt8kMctsvXqO8T4DK9Ua9sOOFSNtFvTHWdFSjYXyIJk2-fVtpDojVWN96GTi4KomFvIvS7TXR5o76L4DZwMCCCV2iYccbG4Mn5P0GNfcVTzXA2ZSsdOmd3LUWn1hk6LsW1UIL0Ak6cXl04klEDqMg0IJK62PI6cqgSSx_-HyW-p89r3lLV91BOiovKzi1hFgUMktzJl_IkvZC30gb3wR7XYIFZ4nJ7tXcZoSu8Qz3PhqDd9s0o7EuQwJiddgIBrjvDTxV6eWWkG_OV]--></g></svg>