<svg xmlns="http://www.w3.org/2000/svg" xmlns:xlink="http://www.w3.org/1999/xlink" contentStyleType="text/css" height="1137px" preserveAspectRatio="none" style="width:1236px;height:1137px;background:#FFFFFF;" version="1.1" viewBox="0 0 1236 1137" width="1236px" zoomAndPan="magnify"><defs/><g><text fill="#000000" font-family="sans-serif" font-size="14" font-weight="bold" lengthAdjust="spacing" textLength="313.8926" x="454.1087" y="22.9951">Visitor Pattern Equipment Sample Code</text><!--class Equipment--><g id="elem_Equipment"><rect codeLine="9" fill="#F1F1F1" height="170.3438" id="Equipment" rx="2.5" ry="2.5" style="stroke:#181818;stroke-width:0.5;" width="247.5869" x="156.4" y="636.2569"/><ellipse cx="237.9459" cy="656.3897" fill="#A9DCDF" rx="11" ry="11" style="stroke:#181818;stroke-width:1.0;"/><path d="M238.0553,651.7334 L236.899,656.8116 L239.2271,656.8116 L238.0553,651.7334 Z M236.5709,649.4991 L239.5553,649.4991 L242.9146,661.8897 L240.4615,661.8897 L239.6959,658.8272 L236.4146,658.8272 L235.6646,661.8897 L233.2271,661.8897 L236.5709,649.4991 Z " fill="#000000"/><text fill="#000000" font-family="sans-serif" font-size="12" font-style="italic" lengthAdjust="spacing" textLength="64.4941" x="264.1964" y="652.3955">&#171;Element&#187;</text><text fill="#000000" font-family="sans-serif" font-size="14" font-style="italic" lengthAdjust="spacing" textLength="75.9951" x="258.4459" y="668.2207">Equipment</text><line style="stroke:#181818;stroke-width:0.5;" x1="157.4" x2="402.9869" y1="676.5225" y2="676.5225"/><rect fill="none" height="6" style="stroke:#C82930;stroke-width:1.0;" width="6" x="164.4" y="687.1709"/><text fill="#000000" font-family="sans-serif" font-size="14" lengthAdjust="spacing" textLength="95.1016" x="176.4" y="693.5176">name : String</text><rect fill="none" height="6" style="stroke:#C82930;stroke-width:1.0;" width="6" x="164.4" y="703.4678"/><text fill="#000000" font-family="sans-serif" font-size="14" lengthAdjust="spacing" textLength="90.2891" x="176.4" y="709.8145">power : Watt</text><rect fill="none" height="6" style="stroke:#C82930;stroke-width:1.0;" width="6" x="164.4" y="719.7647"/><text fill="#000000" font-family="sans-serif" font-size="14" lengthAdjust="spacing" textLength="112.0889" x="176.4" y="726.1114">price : Currency</text><line style="stroke:#181818;stroke-width:0.5;" x1="157.4" x2="402.9869" y1="733.4131" y2="733.4131"/><ellipse cx="167.4" cy="747.0616" fill="#84BE84" rx="3" ry="3" style="stroke:#038048;stroke-width:1.0;"/><text fill="#000000" font-family="sans-serif" font-size="14" lengthAdjust="spacing" textLength="101.2129" x="176.4" y="750.4082">power() : Watt</text><ellipse cx="167.4" cy="763.3584" fill="#84BE84" rx="3" ry="3" style="stroke:#038048;stroke-width:1.0;"/><text fill="#000000" font-family="sans-serif" font-size="14" lengthAdjust="spacing" textLength="123.0127" x="176.4" y="766.7051">price() : Currency</text><ellipse cx="167.4" cy="779.6553" fill="#84BE84" rx="3" ry="3" style="stroke:#038048;stroke-width:1.0;"/><text fill="#000000" font-family="sans-serif" font-size="14" lengthAdjust="spacing" textLength="145.5439" x="176.4" y="783.002">netPrice() : Currency</text><ellipse cx="167.4" cy="795.9522" fill="#84BE84" rx="3" ry="3" style="stroke:#038048;stroke-width:1.0;"/><text fill="#000000" font-family="sans-serif" font-size="14" lengthAdjust="spacing" textLength="221.5869" x="176.4" y="799.2989">accept(EquipmentVisitor) : void</text></g><!--class EquipmentComposite--><g id="elem_EquipmentComposite"><rect codeLine="10" fill="#F1F1F1" height="88.8594" id="EquipmentComposite" rx="2.5" ry="2.5" style="stroke:#181818;stroke-width:0.5;" width="247.5869" x="486.64" y="830.9969"/><ellipse cx="530.8338" cy="851.1297" fill="#A9DCDF" rx="11" ry="11" style="stroke:#181818;stroke-width:1.0;"/><path d="M530.9431,846.4734 L529.7869,851.5516 L532.115,851.5516 L530.9431,846.4734 Z M529.4588,844.2391 L532.4431,844.2391 L535.8025,856.6297 L533.3494,856.6297 L532.5838,853.5672 L529.3025,853.5672 L528.5525,856.6297 L526.115,856.6297 L529.4588,844.2391 Z " fill="#000000"/><text fill="#000000" font-family="sans-serif" font-size="12" font-style="italic" lengthAdjust="spacing" textLength="64.4941" x="594.4301" y="847.1355">&#171;Element&#187;</text><text fill="#000000" font-family="sans-serif" font-size="14" font-style="italic" lengthAdjust="spacing" textLength="150.7119" x="551.3213" y="862.9607">EquipmentComposite</text><line style="stroke:#181818;stroke-width:0.5;" x1="487.64" x2="733.2269" y1="871.2625" y2="871.2625"/><rect fill="none" height="6" style="stroke:#C82930;stroke-width:1.0;" width="6" x="494.64" y="881.9109"/><text fill="#000000" font-family="sans-serif" font-size="14" lengthAdjust="spacing" textLength="56.4785" x="506.64" y="888.2576">children</text><line style="stroke:#181818;stroke-width:0.5;" x1="487.64" x2="733.2269" y1="895.5594" y2="895.5594"/><ellipse cx="497.64" cy="909.2078" fill="#84BE84" rx="3" ry="3" style="stroke:#038048;stroke-width:1.0;"/><text fill="#000000" font-family="sans-serif" font-size="14" lengthAdjust="spacing" textLength="221.5869" x="506.64" y="912.5545">accept(EquipmentVisitor) : void</text></g><!--class EquipmentLeaf--><g id="elem_EquipmentLeaf"><rect codeLine="11" fill="#F1F1F1" height="72.5625" id="EquipmentLeaf" rx="2.5" ry="2.5" style="stroke:#181818;stroke-width:0.5;" width="247.5869" x="486.64" y="651.1469"/><ellipse cx="553.2254" cy="671.2797" fill="#A9DCDF" rx="11" ry="11" style="stroke:#181818;stroke-width:1.0;"/><path d="M553.3348,666.6234 L552.1786,671.7016 L554.5067,671.7016 L553.3348,666.6234 Z M551.8504,664.3891 L554.8348,664.3891 L558.1942,676.7797 L555.7411,676.7797 L554.9754,673.7172 L551.6942,673.7172 L550.9442,676.7797 L548.5067,676.7797 L551.8504,664.3891 Z " fill="#000000"/><text fill="#000000" font-family="sans-serif" font-size="12" font-style="italic" lengthAdjust="spacing" textLength="64.4941" x="594.4364" y="667.2855">&#171;Element&#187;</text><text fill="#000000" font-family="sans-serif" font-size="14" font-style="italic" lengthAdjust="spacing" textLength="105.916" x="573.7254" y="683.1107">EquipmentLeaf</text><line style="stroke:#181818;stroke-width:0.5;" x1="487.64" x2="733.2269" y1="691.4125" y2="691.4125"/><line style="stroke:#181818;stroke-width:0.5;" x1="487.64" x2="733.2269" y1="699.4125" y2="699.4125"/><ellipse cx="497.64" cy="713.0609" fill="#84BE84" rx="3" ry="3" style="stroke:#038048;stroke-width:1.0;"/><text fill="#000000" font-family="sans-serif" font-size="14" lengthAdjust="spacing" textLength="221.5869" x="506.64" y="716.4076">accept(EquipmentVisitor) : void</text></g><!--class Cabinet--><g id="elem_Cabinet"><rect codeLine="12" fill="#F1F1F1" height="72.5625" id="Cabinet" rx="2.5" ry="2.5" style="stroke:#181818;stroke-width:0.5;" width="247.5869" x="881.93" y="1058.4269"/><ellipse cx="944.0623" cy="1078.5597" fill="#ADD1B2" rx="11" ry="11" style="stroke:#181818;stroke-width:1.0;"/><path d="M947.0311,1084.2003 Q946.4529,1084.4972 945.8123,1084.6378 Q945.1717,1084.7941 944.4686,1084.7941 Q941.9686,1084.7941 940.6404,1083.1534 Q939.3279,1081.4972 939.3279,1078.3722 Q939.3279,1075.2472 940.6404,1073.5909 Q941.9686,1071.9347 944.4686,1071.9347 Q945.1717,1071.9347 945.8123,1072.0909 Q946.4686,1072.2472 947.0311,1072.5441 L947.0311,1075.2628 Q946.4061,1074.6847 945.8123,1074.4191 Q945.2186,1074.1378 944.5936,1074.1378 Q943.2498,1074.1378 942.5623,1075.2159 Q941.8748,1076.2784 941.8748,1078.3722 Q941.8748,1080.4659 942.5623,1081.5441 Q943.2498,1082.6066 944.5936,1082.6066 Q945.2186,1082.6066 945.8123,1082.3409 Q946.4061,1082.0597 947.0311,1081.4816 L947.0311,1084.2003 Z " fill="#000000"/><text fill="#000000" font-family="sans-serif" font-size="12" font-style="italic" lengthAdjust="spacing" textLength="118.8223" x="962.5623" y="1074.5655">&#171;ConcreteElement&#187;</text><text fill="#000000" font-family="sans-serif" font-size="14" lengthAdjust="spacing" textLength="54.1064" x="994.9202" y="1090.3907">Cabinet</text><line style="stroke:#181818;stroke-width:0.5;" x1="882.93" x2="1128.5169" y1="1098.6925" y2="1098.6925"/><line style="stroke:#181818;stroke-width:0.5;" x1="882.93" x2="1128.5169" y1="1106.6925" y2="1106.6925"/><ellipse cx="892.93" cy="1120.3409" fill="#84BE84" rx="3" ry="3" style="stroke:#038048;stroke-width:1.0;"/><text fill="#000000" font-family="sans-serif" font-size="14" lengthAdjust="spacing" textLength="221.5869" x="901.93" y="1123.6876">accept(EquipmentVisitor) : void</text></g><!--class Chassis--><g id="elem_Chassis"><rect codeLine="13" fill="#F1F1F1" height="72.5625" id="Chassis" rx="2.5" ry="2.5" style="stroke:#181818;stroke-width:0.5;" width="247.5869" x="881.64" y="947.1469"/><ellipse cx="943.7723" cy="967.2797" fill="#ADD1B2" rx="11" ry="11" style="stroke:#181818;stroke-width:1.0;"/><path d="M946.7411,972.9203 Q946.1629,973.2172 945.5223,973.3578 Q944.8817,973.5141 944.1786,973.5141 Q941.6786,973.5141 940.3504,971.8734 Q939.0379,970.2172 939.0379,967.0922 Q939.0379,963.9672 940.3504,962.3109 Q941.6786,960.6547 944.1786,960.6547 Q944.8817,960.6547 945.5223,960.8109 Q946.1786,960.9672 946.7411,961.2641 L946.7411,963.9828 Q946.1161,963.4047 945.5223,963.1391 Q944.9286,962.8578 944.3036,962.8578 Q942.9598,962.8578 942.2723,963.9359 Q941.5848,964.9984 941.5848,967.0922 Q941.5848,969.1859 942.2723,970.2641 Q942.9598,971.3266 944.3036,971.3266 Q944.9286,971.3266 945.5223,971.0609 Q946.1161,970.7797 946.7411,970.2016 L946.7411,972.9203 Z " fill="#000000"/><text fill="#000000" font-family="sans-serif" font-size="12" font-style="italic" lengthAdjust="spacing" textLength="118.8223" x="962.2723" y="963.2855">&#171;ConcreteElement&#187;</text><text fill="#000000" font-family="sans-serif" font-size="14" lengthAdjust="spacing" textLength="52.999" x="995.1839" y="979.1107">Chassis</text><line style="stroke:#181818;stroke-width:0.5;" x1="882.64" x2="1128.2269" y1="987.4125" y2="987.4125"/><line style="stroke:#181818;stroke-width:0.5;" x1="882.64" x2="1128.2269" y1="995.4125" y2="995.4125"/><ellipse cx="892.64" cy="1009.0609" fill="#84BE84" rx="3" ry="3" style="stroke:#038048;stroke-width:1.0;"/><text fill="#000000" font-family="sans-serif" font-size="14" lengthAdjust="spacing" textLength="221.5869" x="901.64" y="1012.4076">accept(EquipmentVisitor) : void</text></g><!--class Bus--><g id="elem_Bus"><rect codeLine="14" fill="#F1F1F1" height="72.5625" id="Bus" rx="2.5" ry="2.5" style="stroke:#181818;stroke-width:0.5;" width="247.5869" x="881.64" y="839.1469"/><ellipse cx="943.7723" cy="859.2797" fill="#ADD1B2" rx="11" ry="11" style="stroke:#181818;stroke-width:1.0;"/><path d="M946.7411,864.9203 Q946.1629,865.2172 945.5223,865.3578 Q944.8817,865.5141 944.1786,865.5141 Q941.6786,865.5141 940.3504,863.8734 Q939.0379,862.2172 939.0379,859.0922 Q939.0379,855.9672 940.3504,854.3109 Q941.6786,852.6547 944.1786,852.6547 Q944.8817,852.6547 945.5223,852.8109 Q946.1786,852.9672 946.7411,853.2641 L946.7411,855.9828 Q946.1161,855.4047 945.5223,855.1391 Q944.9286,854.8578 944.3036,854.8578 Q942.9598,854.8578 942.2723,855.9359 Q941.5848,856.9984 941.5848,859.0922 Q941.5848,861.1859 942.2723,862.2641 Q942.9598,863.3266 944.3036,863.3266 Q944.9286,863.3266 945.5223,863.0609 Q946.1161,862.7797 946.7411,862.2016 L946.7411,864.9203 Z " fill="#000000"/><text fill="#000000" font-family="sans-serif" font-size="12" font-style="italic" lengthAdjust="spacing" textLength="118.8223" x="962.2723" y="855.2855">&#171;ConcreteElement&#187;</text><text fill="#000000" font-family="sans-serif" font-size="14" lengthAdjust="spacing" textLength="25.7715" x="1008.7977" y="871.1107">Bus</text><line style="stroke:#181818;stroke-width:0.5;" x1="882.64" x2="1128.2269" y1="879.4125" y2="879.4125"/><line style="stroke:#181818;stroke-width:0.5;" x1="882.64" x2="1128.2269" y1="887.4125" y2="887.4125"/><ellipse cx="892.64" cy="901.0609" fill="#84BE84" rx="3" ry="3" style="stroke:#038048;stroke-width:1.0;"/><text fill="#000000" font-family="sans-serif" font-size="14" lengthAdjust="spacing" textLength="221.5869" x="901.64" y="904.4076">accept(EquipmentVisitor) : void</text></g><!--class Card--><g id="elem_Card"><rect codeLine="15" fill="#F1F1F1" height="72.5625" id="Card" rx="2.5" ry="2.5" style="stroke:#181818;stroke-width:0.5;" width="247.5869" x="881.93" y="728.4269"/><ellipse cx="944.0623" cy="748.5597" fill="#ADD1B2" rx="11" ry="11" style="stroke:#181818;stroke-width:1.0;"/><path d="M947.0311,754.2003 Q946.4529,754.4972 945.8123,754.6378 Q945.1717,754.7941 944.4686,754.7941 Q941.9686,754.7941 940.6404,753.1534 Q939.3279,751.4972 939.3279,748.3722 Q939.3279,745.2472 940.6404,743.5909 Q941.9686,741.9347 944.4686,741.9347 Q945.1717,741.9347 945.8123,742.0909 Q946.4686,742.2472 947.0311,742.5441 L947.0311,745.2628 Q946.4061,744.6847 945.8123,744.4191 Q945.2186,744.1378 944.5936,744.1378 Q943.2498,744.1378 942.5623,745.2159 Q941.8748,746.2784 941.8748,748.3722 Q941.8748,750.4659 942.5623,751.5441 Q943.2498,752.6066 944.5936,752.6066 Q945.2186,752.6066 945.8123,752.3409 Q946.4061,752.0597 947.0311,751.4816 L947.0311,754.2003 Z " fill="#000000"/><text fill="#000000" font-family="sans-serif" font-size="12" font-style="italic" lengthAdjust="spacing" textLength="118.8223" x="962.5623" y="744.5655">&#171;ConcreteElement&#187;</text><text fill="#000000" font-family="sans-serif" font-size="14" lengthAdjust="spacing" textLength="32.9971" x="1005.4749" y="760.3907">Card</text><line style="stroke:#181818;stroke-width:0.5;" x1="882.93" x2="1128.5169" y1="768.6925" y2="768.6925"/><line style="stroke:#181818;stroke-width:0.5;" x1="882.93" x2="1128.5169" y1="776.6925" y2="776.6925"/><ellipse cx="892.93" cy="790.3409" fill="#84BE84" rx="3" ry="3" style="stroke:#038048;stroke-width:1.0;"/><text fill="#000000" font-family="sans-serif" font-size="14" lengthAdjust="spacing" textLength="221.5869" x="901.93" y="793.6876">accept(EquipmentVisitor) : void</text></g><!--class FloppyDisk--><g id="elem_FloppyDisk"><rect codeLine="16" fill="#F1F1F1" height="72.5625" id="FloppyDisk" rx="2.5" ry="2.5" style="stroke:#181818;stroke-width:0.5;" width="247.5869" x="881.64" y="617.1469"/><ellipse cx="943.7723" cy="637.2797" fill="#ADD1B2" rx="11" ry="11" style="stroke:#181818;stroke-width:1.0;"/><path d="M946.7411,642.9203 Q946.1629,643.2172 945.5223,643.3578 Q944.8817,643.5141 944.1786,643.5141 Q941.6786,643.5141 940.3504,641.8734 Q939.0379,640.2172 939.0379,637.0922 Q939.0379,633.9672 940.3504,632.3109 Q941.6786,630.6547 944.1786,630.6547 Q944.8817,630.6547 945.5223,630.8109 Q946.1786,630.9672 946.7411,631.2641 L946.7411,633.9828 Q946.1161,633.4047 945.5223,633.1391 Q944.9286,632.8578 944.3036,632.8578 Q942.9598,632.8578 942.2723,633.9359 Q941.5848,634.9984 941.5848,637.0922 Q941.5848,639.1859 942.2723,640.2641 Q942.9598,641.3266 944.3036,641.3266 Q944.9286,641.3266 945.5223,641.0609 Q946.1161,640.7797 946.7411,640.2016 L946.7411,642.9203 Z " fill="#000000"/><text fill="#000000" font-family="sans-serif" font-size="12" font-style="italic" lengthAdjust="spacing" textLength="118.8223" x="962.2723" y="633.2855">&#171;ConcreteElement&#187;</text><text fill="#000000" font-family="sans-serif" font-size="14" lengthAdjust="spacing" textLength="76.6377" x="983.3646" y="649.1107">FloppyDisk</text><line style="stroke:#181818;stroke-width:0.5;" x1="882.64" x2="1128.2269" y1="657.4125" y2="657.4125"/><line style="stroke:#181818;stroke-width:0.5;" x1="882.64" x2="1128.2269" y1="665.4125" y2="665.4125"/><ellipse cx="892.64" cy="679.0609" fill="#84BE84" rx="3" ry="3" style="stroke:#038048;stroke-width:1.0;"/><text fill="#000000" font-family="sans-serif" font-size="14" lengthAdjust="spacing" textLength="221.5869" x="901.64" y="682.4076">accept(EquipmentVisitor) : void</text></g><!--class EquipmentVisitor--><g id="elem_EquipmentVisitor"><rect codeLine="20" fill="#F1F1F1" height="154.0469" id="EquipmentVisitor" rx="2.5" ry="2.5" style="stroke:#181818;stroke-width:0.5;" width="259.7275" x="150.69" y="229.4269"/><ellipse cx="216.0757" cy="249.5597" fill="#A9DCDF" rx="11" ry="11" style="stroke:#181818;stroke-width:1.0;"/><path d="M216.1851,244.9034 L215.0289,249.9816 L217.357,249.9816 L216.1851,244.9034 Z M214.7007,242.6691 L217.6851,242.6691 L221.0445,255.0597 L218.5914,255.0597 L217.8257,251.9972 L214.5445,251.9972 L213.7945,255.0597 L211.357,255.0597 L214.7007,242.6691 Z " fill="#000000"/><text fill="#000000" font-family="sans-serif" font-size="12" font-style="italic" lengthAdjust="spacing" textLength="52.9219" x="270.3428" y="245.5655">&#171;Visitor&#187;</text><text fill="#000000" font-family="sans-serif" font-size="14" font-style="italic" lengthAdjust="spacing" textLength="120.4561" x="236.5757" y="261.3907">EquipmentVisitor</text><line style="stroke:#181818;stroke-width:0.5;" x1="151.69" x2="409.4175" y1="269.6925" y2="269.6925"/><line style="stroke:#181818;stroke-width:0.5;" x1="151.69" x2="409.4175" y1="277.6925" y2="277.6925"/><ellipse cx="161.69" cy="291.3409" fill="#84BE84" rx="3" ry="3" style="stroke:#038048;stroke-width:1.0;"/><text fill="#000000" font-family="sans-serif" font-size="14" lengthAdjust="spacing" textLength="159.6533" x="170.69" y="294.6876">visit(FloppyDisk) : void</text><ellipse cx="161.69" cy="307.6378" fill="#84BE84" rx="3" ry="3" style="stroke:#038048;stroke-width:1.0;"/><text fill="#000000" font-family="sans-serif" font-size="14" lengthAdjust="spacing" textLength="116.0127" x="170.69" y="310.9845">visit(Card) : void</text><ellipse cx="161.69" cy="323.9347" fill="#84BE84" rx="3" ry="3" style="stroke:#038048;stroke-width:1.0;"/><text fill="#000000" font-family="sans-serif" font-size="14" lengthAdjust="spacing" textLength="136.0146" x="170.69" y="327.2814">visit(Chassis) : void</text><ellipse cx="161.69" cy="340.2316" fill="#84BE84" rx="3" ry="3" style="stroke:#038048;stroke-width:1.0;"/><text fill="#000000" font-family="sans-serif" font-size="14" lengthAdjust="spacing" textLength="137.1221" x="170.69" y="343.5782">visit(Cabinet) : void</text><ellipse cx="161.69" cy="356.5284" fill="#84BE84" rx="3" ry="3" style="stroke:#038048;stroke-width:1.0;"/><text fill="#000000" font-family="sans-serif" font-size="14" lengthAdjust="spacing" textLength="233.7275" x="170.69" y="359.8751">visit(CompositeEquipment) : void</text><ellipse cx="161.69" cy="372.8253" fill="#84BE84" rx="3" ry="3" style="stroke:#038048;stroke-width:1.0;"/><text fill="#000000" font-family="sans-serif" font-size="14" lengthAdjust="spacing" textLength="188.9316" x="170.69" y="376.172">visit(LeafEquipment) : void</text></g><!--class EquipmentInventoryVisitor--><g id="elem_EquipmentInventoryVisitor"><rect codeLine="21" fill="#F1F1F1" height="88.8594" id="EquipmentInventoryVisitor" rx="2.5" ry="2.5" style="stroke:#181818;stroke-width:0.5;" width="219.3252" x="500.77" y="319.9969"/><ellipse cx="515.77" cy="340.1297" fill="#ADD1B2" rx="11" ry="11" style="stroke:#181818;stroke-width:1.0;"/><path d="M518.7388,345.7703 Q518.1606,346.0672 517.52,346.2078 Q516.8794,346.3641 516.1763,346.3641 Q513.6763,346.3641 512.3481,344.7234 Q511.0356,343.0672 511.0356,339.9422 Q511.0356,336.8172 512.3481,335.1609 Q513.6763,333.5047 516.1763,333.5047 Q516.8794,333.5047 517.52,333.6609 Q518.1763,333.8172 518.7388,334.1141 L518.7388,336.8328 Q518.1138,336.2547 517.52,335.9891 Q516.9263,335.7078 516.3013,335.7078 Q514.9575,335.7078 514.27,336.7859 Q513.5825,337.8484 513.5825,339.9422 Q513.5825,342.0359 514.27,343.1141 Q514.9575,344.1766 516.3013,344.1766 Q516.9263,344.1766 517.52,343.9109 Q518.1138,343.6297 518.7388,343.0516 L518.7388,345.7703 Z " fill="#000000"/><text fill="#000000" font-family="sans-serif" font-size="12" font-style="italic" lengthAdjust="spacing" textLength="107.25" x="569.8076" y="336.1355">&#171;ConcreteVisitor&#187;</text><text fill="#000000" font-family="sans-serif" font-size="14" lengthAdjust="spacing" textLength="187.3252" x="529.77" y="351.9607">EquipmentInventoryVisitor</text><line style="stroke:#181818;stroke-width:0.5;" x1="501.77" x2="719.0952" y1="360.2625" y2="360.2625"/><rect fill="none" height="6" style="stroke:#C82930;stroke-width:1.0;" width="6" x="508.77" y="370.9109"/><text fill="#000000" font-family="sans-serif" font-size="14" lengthAdjust="spacing" textLength="147.1162" x="520.77" y="377.2576">inventory : Inventory</text><line style="stroke:#181818;stroke-width:0.5;" x1="501.77" x2="719.0952" y1="384.5594" y2="384.5594"/><ellipse cx="511.77" cy="398.2078" fill="#84BE84" rx="3" ry="3" style="stroke:#038048;stroke-width:1.0;"/><text fill="#000000" font-family="sans-serif" font-size="14" lengthAdjust="spacing" textLength="181.2686" x="520.77" y="401.5545">getInventory() : Inventory</text></g><!--class EquipmentPricingVisitor--><g id="elem_EquipmentPricingVisitor"><rect codeLine="22" fill="#F1F1F1" height="80.5938" id="EquipmentPricingVisitor" rx="2.5" ry="2.5" style="stroke:#181818;stroke-width:0.5;" width="206.6328" x="507.12" y="204.1269"/><ellipse cx="525.154" cy="220.1269" fill="#ADD1B2" rx="11" ry="11" style="stroke:#181818;stroke-width:1.0;"/><path d="M528.1227,225.7675 Q527.5446,226.0644 526.904,226.205 Q526.2634,226.3613 525.5602,226.3613 Q523.0602,226.3613 521.7321,224.7206 Q520.4196,223.0644 520.4196,219.9394 Q520.4196,216.8144 521.7321,215.1581 Q523.0602,213.5019 525.5602,213.5019 Q526.2634,213.5019 526.904,213.6581 Q527.5602,213.8144 528.1227,214.1113 L528.1227,216.83 Q527.4977,216.2519 526.904,215.9863 Q526.3102,215.705 525.6852,215.705 Q524.3415,215.705 523.654,216.7831 Q522.9665,217.8456 522.9665,219.9394 Q522.9665,222.0331 523.654,223.1113 Q524.3415,224.1738 525.6852,224.1738 Q526.3102,224.1738 526.904,223.9081 Q527.4977,223.6269 528.1227,223.0488 L528.1227,225.7675 Z " fill="#000000"/><text fill="#000000" font-family="sans-serif" font-size="14" lengthAdjust="spacing" textLength="167.8906" x="539.8282" y="224.9736">EquipmentPricingVisitor</text><line style="stroke:#181818;stroke-width:0.5;" x1="508.12" x2="712.7528" y1="236.1269" y2="236.1269"/><rect fill="none" height="6" style="stroke:#C82930;stroke-width:1.0;" width="6" x="515.12" y="246.7753"/><text fill="#000000" font-family="sans-serif" font-size="14" lengthAdjust="spacing" textLength="109.2588" x="527.12" y="253.122">total : Currency</text><line style="stroke:#181818;stroke-width:0.5;" x1="508.12" x2="712.7528" y1="260.4238" y2="260.4238"/><ellipse cx="518.12" cy="274.0722" fill="#84BE84" rx="3" ry="3" style="stroke:#038048;stroke-width:1.0;"/><text fill="#000000" font-family="sans-serif" font-size="14" lengthAdjust="spacing" textLength="180.6328" x="527.12" y="277.4189">getTotalPrice() : Currency</text></g><!--class Inventory--><g id="elem_Inventory"><rect codeLine="24" fill="#F1F1F1" height="96.8906" id="Inventory" rx="2.5" ry="2.5" style="stroke:#181818;stroke-width:0.5;" width="330.9443" x="839.96" y="311.9769"/><ellipse cx="967.7476" cy="327.9769" fill="#ADD1B2" rx="11" ry="11" style="stroke:#181818;stroke-width:1.0;"/><path d="M970.7163,333.6175 Q970.1382,333.9144 969.4976,334.055 Q968.857,334.2113 968.1538,334.2113 Q965.6538,334.2113 964.3257,332.5706 Q963.0132,330.9144 963.0132,327.7894 Q963.0132,324.6644 964.3257,323.0081 Q965.6538,321.3519 968.1538,321.3519 Q968.857,321.3519 969.4976,321.5081 Q970.1538,321.6644 970.7163,321.9613 L970.7163,324.68 Q970.0913,324.1019 969.4976,323.8363 Q968.9038,323.555 968.2788,323.555 Q966.9351,323.555 966.2476,324.6331 Q965.5601,325.6956 965.5601,327.7894 Q965.5601,329.8831 966.2476,330.9613 Q966.9351,332.0238 968.2788,332.0238 Q968.9038,332.0238 969.4976,331.7581 Q970.0913,331.4769 970.7163,330.8988 L970.7163,333.6175 Z " fill="#000000"/><text fill="#000000" font-family="sans-serif" font-size="14" lengthAdjust="spacing" textLength="66.8691" x="988.2476" y="332.8236">Inventory</text><line style="stroke:#181818;stroke-width:0.5;" x1="840.96" x2="1169.9043" y1="343.9769" y2="343.9769"/><rect fill="none" height="6" style="stroke:#C82930;stroke-width:1.0;" width="6" x="847.96" y="354.6253"/><text fill="#000000" font-family="sans-serif" font-size="14" lengthAdjust="spacing" textLength="193.1631" x="859.96" y="360.972">inventory&lt;string, int&gt;[0..*]</text><line style="stroke:#181818;stroke-width:0.5;" x1="840.96" x2="1169.9043" y1="368.2738" y2="368.2738"/><ellipse cx="850.96" cy="381.9222" fill="#84BE84" rx="3" ry="3" style="stroke:#038048;stroke-width:1.0;"/><text fill="#000000" font-family="sans-serif" font-size="14" lengthAdjust="spacing" textLength="177.8779" x="859.96" y="385.2689">accumulate(String) : void</text><ellipse cx="850.96" cy="398.2191" fill="#84BE84" rx="3" ry="3" style="stroke:#038048;stroke-width:1.0;"/><text fill="#000000" font-family="sans-serif" font-size="14" lengthAdjust="spacing" textLength="304.9443" x="859.96" y="401.5657">getInventory() : Inventory&lt;String,int&gt;[0..*]</text></g><!--entity Client--><g id="elem_Client"><rect fill="#F1F1F1" height="52.5938" rx="2.5" ry="2.5" style="stroke:#181818;stroke-width:0.5;" width="72.2607" x="7" y="494.1269"/><text fill="#000000" font-family="sans-serif" font-size="14" font-style="italic" lengthAdjust="spacing" textLength="52.2607" x="17" y="517.122">&#171;main&#187;</text><text fill="#000000" font-family="sans-serif" font-size="14" lengthAdjust="spacing" textLength="40.5303" x="22.8652" y="533.4189">Client</text></g><g id="elem_nEquipmentVisitorVisit"><path d="M169.86,132.7269 L169.86,188.1253 A0,0 0 0 0 169.86,188.1253 L276.19,188.1253 L280.19,281.5669 L284.19,188.1253 L390.5128,188.1253 A0,0 0 0 0 390.5128,188.1253 L390.5128,142.7269 L380.5128,132.7269 L169.86,132.7269 A0,0 0 0 0 169.86,132.7269 " fill="#FEFFDD" style="stroke:#181818;stroke-width:0.5;"/><path d="M380.5128,132.7269 L380.5128,142.7269 L390.5128,142.7269 L380.5128,132.7269 " fill="#FEFFDD" style="stroke:#181818;stroke-width:0.5;"/><text fill="#000000" font-family="sans-serif" font-size="13" font-weight="bold" lengthAdjust="spacing" textLength="75.0229" x="175.86" y="149.7938">Note that:</text><text fill="#000000" font-family="sans-serif" font-size="13" lengthAdjust="spacing" textLength="195.5205" x="175.86" y="164.9266">overloading is used instead of</text><text fill="#000000" font-family="sans-serif" font-size="13" lengthAdjust="spacing" textLength="176.3633" x="175.86" y="180.0594">subclass based operations.</text></g><g id="elem_nComposite"><path d="M481.12,98.1569 L481.12,168.6881 L739.7572,168.6881 L739.7572,108.1569 L729.7572,98.1569 L481.12,98.1569 " fill="#FEFFDD" style="stroke:#181818;stroke-width:0.5;"/><path d="M729.7572,98.1569 L729.7572,108.1569 L739.7572,108.1569 L729.7572,98.1569 " fill="#FEFFDD" style="stroke:#181818;stroke-width:1.0;"/><text fill="#000000" font-family="sans-serif" font-size="13" font-weight="bold" lengthAdjust="spacing" textLength="75.0229" x="487.12" y="115.2238">Note that:</text><text fill="#000000" font-family="sans-serif" font-size="13" lengthAdjust="spacing" textLength="233.8794" x="487.12" y="130.3566">EquipmentLeaf class has been used</text><text fill="#000000" font-family="sans-serif" font-size="13" lengthAdjust="spacing" textLength="237.6372" x="487.12" y="145.4894">to identify leaf classes which is used</text><text fill="#000000" font-family="sans-serif" font-size="13" lengthAdjust="spacing" textLength="128.8257" x="487.12" y="160.6222">in some operations.</text></g><g id="elem_nClient"><path d="M139.26,424.5969 L139.26,498.1969 L79.65,502.1969 L139.26,506.1969 L139.26,510.2609 A0,0 0 0 0 139.26,510.2609 L421.1169,510.2609 A0,0 0 0 0 421.1169,510.2609 L421.1169,434.5969 L411.1169,424.5969 L139.26,424.5969 A0,0 0 0 0 139.26,424.5969 " fill="#FEFFDD" style="stroke:#181818;stroke-width:0.5;"/><path d="M411.1169,424.5969 L411.1169,434.5969 L421.1169,434.5969 L411.1169,424.5969 " fill="#FEFFDD" style="stroke:#181818;stroke-width:0.5;"/><text fill="#000000" font-family="sans-serif" font-size="13" font-weight="bold" lengthAdjust="spacing" textLength="20.9282" x="145.26" y="441.6638">(1)</text><text fill="#000000" font-family="sans-serif" font-size="13" lengthAdjust="spacing" textLength="208.8696" x="161.7893" y="456.7966">EquipmentPricingVisitor pricing;</text><text fill="#000000" font-family="sans-serif" font-size="13" lengthAdjust="spacing" textLength="244.3276" x="161.7893" y="471.9294">EquipmentInventoryVisitor inventory;</text><text fill="#000000" font-family="sans-serif" font-size="13" lengthAdjust="spacing" textLength="188.5254" x="161.7893" y="487.0622">equipment-&gt;accept(pricing);</text><text fill="#000000" font-family="sans-serif" font-size="13" lengthAdjust="spacing" textLength="205.937" x="161.7893" y="502.195">equipment-&gt;accept(inventory);</text></g><g id="elem_nCabinetAccept"><path d="M799.75,118.1569 L799.75,188.6881 L1211.1055,188.6881 L1211.1055,128.1569 L1201.1055,118.1569 L799.75,118.1569 " fill="#FEFFDD" style="stroke:#181818;stroke-width:0.5;"/><path d="M1201.1055,118.1569 L1201.1055,128.1569 L1211.1055,128.1569 L1201.1055,118.1569 " fill="#FEFFDD" style="stroke:#181818;stroke-width:1.0;"/><text fill="#000000" font-family="sans-serif" font-size="13" font-weight="bold" lengthAdjust="spacing" textLength="20.9282" x="810.2759" y="135.2238">(2)</text><text fill="#000000" font-family="sans-serif" font-size="13" lengthAdjust="spacing" textLength="369.6938" x="822.2793" y="150.3566">for (Iterator&lt;Equipment&gt; i(children); !i.is_done(); i.next)</text><text fill="#000000" font-family="sans-serif" font-size="13" lengthAdjust="spacing" textLength="197.2407" x="838.8086" y="165.4894">i.currentItem().accept(visitor);</text><text fill="#000000" font-family="sans-serif" font-size="13" lengthAdjust="spacing" textLength="109.2495" x="822.2793" y="180.6222">visitor.visit(this);</text></g><g id="elem_nCardAccept"><path d="M932.04,43.2969 L932.04,83.5625 L1078.8188,83.5625 L1078.8188,53.2969 L1068.8188,43.2969 L932.04,43.2969 " fill="#FEFFDD" style="stroke:#181818;stroke-width:0.5;"/><path d="M1068.8188,43.2969 L1068.8188,53.2969 L1078.8188,53.2969 L1068.8188,43.2969 " fill="#FEFFDD" style="stroke:#181818;stroke-width:1.0;"/><text fill="#000000" font-family="sans-serif" font-size="13" font-weight="bold" lengthAdjust="spacing" textLength="20.9282" x="938.04" y="60.3638">(3)</text><text fill="#000000" font-family="sans-serif" font-size="13" lengthAdjust="spacing" textLength="109.2495" x="954.5693" y="75.4966">visitor.visit(this);</text></g><g id="elem_nClient2"><path d="M179.44,545.7269 L179.44,601.1253 L380.9356,601.1253 L380.9356,555.7269 L370.9356,545.7269 L179.44,545.7269 " fill="#FEFFDD" style="stroke:#181818;stroke-width:0.5;"/><path d="M370.9356,545.7269 L370.9356,555.7269 L380.9356,555.7269 L370.9356,545.7269 " fill="#FEFFDD" style="stroke:#181818;stroke-width:1.0;"/><text fill="#000000" font-family="sans-serif" font-size="13" font-weight="bold" lengthAdjust="spacing" textLength="20.9282" x="185.44" y="562.7938">(4)</text><text fill="#000000" font-family="sans-serif" font-size="13" lengthAdjust="spacing" textLength="148.9731" x="201.9693" y="577.9266">pricing.getTotalPrice();</text><text fill="#000000" font-family="sans-serif" font-size="13" lengthAdjust="spacing" textLength="163.9663" x="201.9693" y="593.0594">inventory.getInventory();</text></g><!--reverse link Equipment to EquipmentComposite--><g id="link_Equipment_EquipmentComposite"><path codeLine="63" d="M422.1,764.4269 C515.81,764.4269 610.44,764.4269 610.44,764.4269 C610.44,764.4269 610.44,799.7969 610.44,830.5969 " fill="none" id="Equipment-backto-EquipmentComposite" style="stroke:#181818;stroke-width:1.0;"/><polygon fill="none" points="404.1,764.4269,422.1,770.4269,422.1,758.4269,404.1,764.4269" style="stroke:#181818;stroke-width:1.0;"/></g><!--reverse link Equipment to EquipmentLeaf--><g id="link_Equipment_EquipmentLeaf"><path codeLine="64" d="M422.1,687.4269 C449.01,687.4269 459.47,687.4269 486.38,687.4269 " fill="none" id="Equipment-backto-EquipmentLeaf" style="stroke:#181818;stroke-width:1.0;"/><polygon fill="none" points="404.1,687.4269,422.1,693.4269,422.1,681.4269,404.1,687.4269" style="stroke:#181818;stroke-width:1.0;"/></g><!--reverse link EquipmentComposite to Cabinet--><g id="link_EquipmentComposite_Cabinet"><path codeLine="66" d="M752.72,917.1369 C822.54,917.1369 877.79,917.1369 877.79,917.1369 C877.79,917.1369 877.79,1002.3669 877.79,1054.6369 " fill="none" id="EquipmentComposite-backto-Cabinet" style="stroke:#181818;stroke-width:1.0;"/><polygon fill="none" points="734.72,917.1369,752.72,923.1369,752.72,911.1369,734.72,917.1369" style="stroke:#181818;stroke-width:1.0;"/></g><!--reverse link EquipmentComposite to Chassis--><g id="link_EquipmentComposite_Chassis"><path codeLine="67" d="M752.6,914.4269 C868.41,914.4269 1005.43,914.4269 1005.43,914.4269 C1005.43,914.4269 1005.43,930.3569 1005.43,946.9069 " fill="none" id="EquipmentComposite-backto-Chassis" style="stroke:#181818;stroke-width:1.0;"/><polygon fill="none" points="734.6,914.4269,752.6,920.4269,752.6,908.4269,734.6,914.4269" style="stroke:#181818;stroke-width:1.0;"/></g><!--reverse link EquipmentComposite to Bus--><g id="link_EquipmentComposite_Bus"><path codeLine="68" d="M752.6,875.4269 C799.42,875.4269 834.66,875.4269 881.46,875.4269 " fill="none" id="EquipmentComposite-backto-Bus" style="stroke:#181818;stroke-width:1.0;"/><polygon fill="none" points="734.6,875.4269,752.6,881.4269,752.6,869.4269,734.6,875.4269" style="stroke:#181818;stroke-width:1.0;"/></g><!--reverse link EquipmentLeaf to Card--><g id="link_EquipmentLeaf_Card"><path codeLine="69" d="M752.72,706.7069 C822.54,706.7069 877.79,706.7069 877.79,706.7069 C877.79,706.7069 877.79,714.6569 877.79,724.6569 " fill="none" id="EquipmentLeaf-backto-Card" style="stroke:#181818;stroke-width:1.0;"/><polygon fill="none" points="734.72,706.7069,752.72,712.7069,752.72,700.7069,734.72,706.7069" style="stroke:#181818;stroke-width:1.0;"/></g><!--reverse link EquipmentLeaf to FloppyDisk--><g id="link_EquipmentLeaf_FloppyDisk"><path codeLine="70" d="M752.6,670.4269 C799.42,670.4269 834.66,670.4269 881.46,670.4269 " fill="none" id="EquipmentLeaf-backto-FloppyDisk" style="stroke:#181818;stroke-width:1.0;"/><polygon fill="none" points="734.6,670.4269,752.6,676.4269,752.6,664.4269,734.6,670.4269" style="stroke:#181818;stroke-width:1.0;"/></g><!--reverse link EquipmentVisitor to EquipmentPricingVisitor--><g id="link_EquipmentVisitor_EquipmentPricingVisitor"><path codeLine="72" d="M435.37,255.0769 C465.24,255.0769 478.35,255.0769 506.66,255.0769 " fill="none" id="EquipmentVisitor-backto-EquipmentPricingVisitor" style="stroke:#181818;stroke-width:1.0;"/><polygon fill="none" points="417.37,255.0769,435.37,261.0769,435.37,249.0769,417.37,255.0769" style="stroke:#181818;stroke-width:1.0;"/></g><!--reverse link EquipmentVisitor to EquipmentInventoryVisitor--><g id="link_EquipmentVisitor_EquipmentInventoryVisitor"><path codeLine="73" d="M435.37,353.7169 C463.02,353.7169 473.74,353.7169 500.32,353.7169 " fill="none" id="EquipmentVisitor-backto-EquipmentInventoryVisitor" style="stroke:#181818;stroke-width:1.0;"/><polygon fill="none" points="417.37,353.7169,435.37,359.7169,435.37,347.7169,417.37,353.7169" style="stroke:#181818;stroke-width:1.0;"/></g><!--link EquipmentInventoryVisitor to Inventory--><g id="link_EquipmentInventoryVisitor_Inventory"><path codeLine="75" d="M732.46,364.4269 C769.33,364.4269 793.29,364.4269 833.47,364.4269 " fill="none" id="EquipmentInventoryVisitor-Inventory" style="stroke:#181818;stroke-width:1.0;"/><polygon fill="none" points="720.46,364.4269,726.46,368.4269,732.46,364.4269,726.46,360.4269,720.46,364.4269" style="stroke:#181818;stroke-width:1.0;"/><polygon fill="#181818" points="839.47,364.4269,830.47,360.4269,834.47,364.4269,830.47,368.4269,839.47,364.4269" style="stroke:#181818;stroke-width:1.0;"/><text fill="#000000" font-family="sans-serif" font-size="13" lengthAdjust="spacing" textLength="61.8706" x="728.1689" y="376.9076">inventory</text></g><!--link Client to Equipment--><g id="link_Client_Equipment"><path codeLine="77" d="M79.56,527.9969 C116.39,527.9969 167.92,527.9969 167.92,527.9969 C167.92,527.9969 167.92,578.2069 167.92,630.0169 " fill="none" id="Client-to-Equipment" style="stroke:#181818;stroke-width:1.0;"/><polygon fill="#181818" points="167.92,636.0169,171.92,627.0169,167.92,631.0169,163.92,627.0169,167.92,636.0169" style="stroke:#181818;stroke-width:1.0;"/></g><!--link Client to EquipmentVisitor--><g id="link_Client_EquipmentVisitor"><path codeLine="78" d="M43.13,493.7569 C43.13,436.3869 43.13,306.4269 43.13,306.4269 C43.13,306.4269 84.55,306.4269 136.98,306.4269 " fill="none" id="Client-to-EquipmentVisitor" style="stroke:#181818;stroke-width:1.0;"/><polygon fill="#181818" points="142.98,306.4269,133.98,302.4269,137.98,306.4269,133.98,310.4269,142.98,306.4269" style="stroke:#181818;stroke-width:1.0;"/></g><!--link nComposite to EquipmentComposite--><g id="link_nComposite_EquipmentComposite"><path codeLine="93" d="M740.16,143.4269 C757.67,143.4269 769.75,143.4269 769.75,143.4269 C769.75,143.4269 769.75,835.0669 769.75,835.0669 C769.75,835.0669 754.96,835.0669 734.4,835.0669 " fill="none" id="nComposite-EquipmentComposite" style="stroke:#181818;stroke-width:1.0;stroke-dasharray:7.0,7.0;"/></g><!--link nComposite to EquipmentLeaf--><g id="link_nComposite_EquipmentLeaf"><path codeLine="94" d="M727.16,168.9269 C727.16,268.5069 727.16,549.8169 727.16,650.7869 " fill="none" id="nComposite-EquipmentLeaf" style="stroke:#181818;stroke-width:1.0;stroke-dasharray:7.0,7.0;"/></g><!--link nCabinetAccept to Cabinet--><g id="link_nCabinetAccept_Cabinet"><path codeLine="111" d="M819.86,189.1669 C819.86,361.0469 819.86,1094.4269 819.86,1094.4269 C819.86,1094.4269 999.68,1094.4269 1005.3,1094.4269 " fill="none" id="nCabinetAccept-Cabinet" style="stroke:#181818;stroke-width:1.0;stroke-dasharray:7.0,7.0;"/></g><!--link nCardAccept to Card--><g id="link_nCardAccept_Card"><path codeLine="117" d="M1079.29,63.4269 C1144.45,63.4269 1229.11,63.4269 1229.11,63.4269 C1229.11,63.4269 1229.11,764.4269 1229.11,764.4269 C1229.11,764.4269 1012.37,764.4269 1005.59,764.4269 " fill="none" id="nCardAccept-Card" style="stroke:#181818;stroke-width:1.0;stroke-dasharray:7.0,7.0;"/></g><!--link Client to nClient2--><g id="link_Client_nClient2"><path codeLine="124" d="M43.13,547.1769 C43.13,560.5469 43.13,573.9269 43.13,573.9269 C43.13,573.9269 114.54,573.9269 178.97,573.9269 " fill="none" id="Client-nClient2" style="stroke:#181818;stroke-width:1.0;stroke-dasharray:7.0,7.0;"/></g><!--SRC=[bLPRRzCm57xFhp1xIjaQmU2fYof16T8aX2ODmGD2o4tSnbfY1yVfLW7_dMF7iNDnsj27DB6_S_zyZd6UywU2FbEs3wf7oaeiS85ooeWybWHn8JCUv6GdaUH8q7qcKKe5IIJbB0WabJb1Nsb59HVe7aj914EtlsfQ5eH9z82B4W0RdX80ypsH6H7eTu3WXxUL53YHACbnLJcXEBxDYNfPhq_YDhmeEHWcSmK-4RmROXl81czLm76yuImHH18lA8CdhKw3tjTd01iiqjE8Zpalo-C7MZrEuVwESdagR5ETE3OlHeapQ95tx01FBevMfBL_LlHUq0GeP73106OL6_VLCr0amcolw95JNVS2KmOc0iUV5LeoN13uVv12KRItLV8doC0AVGFU3NR07IMrgOKWB3dsTY-rNBZmILvgIRtdbmMQt9-1u2GXfGo71L021qxJJdoMmihd9ADv2khyssUrzcW-Hy2GVXQqeVuSA1o0USP5EWVd3iF_PRPjII1qKA-XKpJEs0Yil9i3Qz8oIw7EzHnaMtCBcI6aIZx61nEdKv5DSebpBuD7s4leD5yKtCFxOB9tA2EqNOCFrm9EYIXRTbcRSdB1NKUTqnrNkZDS8GhzyVkhA7hveuTKfAcBEiUIX4qJiGdgmQOjnutOLST0vy37VvPBpr2QHAXQULk0XXcYJEytb9lSX-Ctw0H6hKXzw-vKUCvEt-z1Xp-37jRs55CkR2ql45ykrzsQDwC1gLMhmBjexJ0EkS0LOiCj_QT7JxnTVrOecM6vqYlyG4JESGe18kXpTKLIu5Cb2KuHto6DgUfjCyssM6tpaWYiRa5L512M8cKty1j5qSZFrKgVt8wxZZb-5_lLQpm1Cg0j8Kmxh55mIQCfWEZkY78B91LwocYIjR5fA6MeuZ1R_O4uNaK-Tllt6swxa7ITsdZ2rmjxBPZgDcNpUJC6ZbXZIUF0f0KlrsPI67sBKnYh252T-1kEHNKPcVj9Dx3cbBxJ2jhuK7Zj0jo1X-6TL9c5UvIDOeresCxvnGrwGIDQ_KmvWxPwWsZ4o3EqRwj4LobATBELeAm85v5n-c0cdmlCh4JDH90PpALUF5sNeMRcUxLg5FQ24sa_il3DOhwPLbZR4AdFW4xdjTN-rcatzOe68yT5QOiLzVlrk7JNlThz0m00]--></g></svg>