<svg xmlns="http://www.w3.org/2000/svg" xmlns:xlink="http://www.w3.org/1999/xlink" contentStyleType="text/css" height="874px" preserveAspectRatio="none" style="width:1109px;height:874px;background:#FFFFFF;" version="1.1" viewBox="0 0 1109 874" width="1109px" zoomAndPan="magnify"><defs/><g><text fill="#000000" font-family="sans-serif" font-size="14" font-weight="bold" lengthAdjust="spacing" textLength="255.9854" x="419.7333" y="22.9951">Visitor Pattern Formal Structure</text><!--class Visitor--><g id="elem_Visitor"><rect codeLine="8" fill="#F1F1F1" height="80.5938" id="Visitor" rx="2.5" ry="2.5" style="stroke:#181818;stroke-width:0.5;" width="314.9619" x="383.63" y="289.2269"/><ellipse cx="514.6305" cy="305.2269" fill="#ADD1B2" rx="11" ry="11" style="stroke:#181818;stroke-width:1.0;"/><path d="M517.5992,310.8675 Q517.0211,311.1644 516.3805,311.305 Q515.7399,311.4612 515.0367,311.4612 Q512.5367,311.4612 511.2086,309.8206 Q509.8961,308.1644 509.8961,305.0394 Q509.8961,301.9144 511.2086,300.2581 Q512.5367,298.6019 515.0367,298.6019 Q515.7399,298.6019 516.3805,298.7581 Q517.0367,298.9144 517.5992,299.2112 L517.5992,301.93 Q516.9742,301.3519 516.3805,301.0862 Q515.7867,300.805 515.1617,300.805 Q513.818,300.805 513.1305,301.8831 Q512.443,302.9456 512.443,305.0394 Q512.443,307.1331 513.1305,308.2112 Q513.818,309.2737 515.1617,309.2737 Q515.7867,309.2737 516.3805,309.0081 Q516.9742,308.7269 517.5992,308.1487 L517.5992,310.8675 Z " fill="#000000"/><text fill="#000000" font-family="sans-serif" font-size="14" lengthAdjust="spacing" textLength="44.4609" x="535.1305" y="310.0736">Visitor</text><line style="stroke:#181818;stroke-width:0.5;" x1="384.63" x2="697.5919" y1="321.2269" y2="321.2269"/><line style="stroke:#181818;stroke-width:0.5;" x1="384.63" x2="697.5919" y1="329.2269" y2="329.2269"/><text fill="#000000" font-family="sans-serif" font-size="14" lengthAdjust="spacing" textLength="302.9072" x="389.63" y="346.222">VisitConcreteElementA(ConcreteElementA)</text><text fill="#000000" font-family="sans-serif" font-size="14" lengthAdjust="spacing" textLength="302.9619" x="389.63" y="362.5189">VisitConcreteElementB(ConcreteElementB)</text></g><!--class ConcreteVisitorA--><g id="elem_ConcreteVisitorA"><rect codeLine="9" fill="#F1F1F1" height="80.5938" id="ConcreteVisitorA" rx="2.5" ry="2.5" style="stroke:#181818;stroke-width:0.5;" width="314.9619" x="237.63" y="429.8269"/><ellipse cx="332.1505" cy="445.8269" fill="#ADD1B2" rx="11" ry="11" style="stroke:#181818;stroke-width:1.0;"/><path d="M335.1193,451.4675 Q334.5411,451.7644 333.9005,451.905 Q333.2599,452.0613 332.5568,452.0613 Q330.0568,452.0613 328.7286,450.4206 Q327.4161,448.7644 327.4161,445.6394 Q327.4161,442.5144 328.7286,440.8581 Q330.0568,439.2019 332.5568,439.2019 Q333.2599,439.2019 333.9005,439.3581 Q334.5568,439.5144 335.1193,439.8113 L335.1193,442.53 Q334.4943,441.9519 333.9005,441.6863 Q333.3068,441.405 332.6818,441.405 Q331.338,441.405 330.6505,442.4831 Q329.963,443.5456 329.963,445.6394 Q329.963,447.7331 330.6505,448.8113 Q331.338,449.8738 332.6818,449.8738 Q333.3068,449.8738 333.9005,449.6081 Q334.4943,449.3269 335.1193,448.7488 L335.1193,451.4675 Z " fill="#000000"/><text fill="#000000" font-family="sans-serif" font-size="14" lengthAdjust="spacing" textLength="117.4209" x="352.6505" y="450.6736">ConcreteVisitorA</text><line style="stroke:#181818;stroke-width:0.5;" x1="238.63" x2="551.5919" y1="461.8269" y2="461.8269"/><line style="stroke:#181818;stroke-width:0.5;" x1="238.63" x2="551.5919" y1="469.8269" y2="469.8269"/><text fill="#000000" font-family="sans-serif" font-size="14" lengthAdjust="spacing" textLength="302.9072" x="243.63" y="486.822">VisitConcreteElementA(ConcreteElementA)</text><text fill="#000000" font-family="sans-serif" font-size="14" lengthAdjust="spacing" textLength="302.9619" x="243.63" y="503.1189">VisitConcreteElementB(ConcreteElementB)</text></g><!--class ConcreteVisitorB--><g id="elem_ConcreteVisitorB"><rect codeLine="10" fill="#F1F1F1" height="80.5938" id="ConcreteVisitorB" rx="2.5" ry="2.5" style="stroke:#181818;stroke-width:0.5;" width="314.9619" x="587.63" y="429.8269"/><ellipse cx="682.1368" cy="445.8269" fill="#ADD1B2" rx="11" ry="11" style="stroke:#181818;stroke-width:1.0;"/><path d="M685.1056,451.4675 Q684.5275,451.7644 683.8868,451.905 Q683.2462,452.0613 682.5431,452.0613 Q680.0431,452.0613 678.715,450.4206 Q677.4025,448.7644 677.4025,445.6394 Q677.4025,442.5144 678.715,440.8581 Q680.0431,439.2019 682.5431,439.2019 Q683.2462,439.2019 683.8868,439.3581 Q684.5431,439.5144 685.1056,439.8113 L685.1056,442.53 Q684.4806,441.9519 683.8868,441.6863 Q683.2931,441.405 682.6681,441.405 Q681.3243,441.405 680.6368,442.4831 Q679.9493,443.5456 679.9493,445.6394 Q679.9493,447.7331 680.6368,448.8113 Q681.3243,449.8738 682.6681,449.8738 Q683.2931,449.8738 683.8868,449.6081 Q684.4806,449.3269 685.1056,448.7488 L685.1056,451.4675 Z " fill="#000000"/><text fill="#000000" font-family="sans-serif" font-size="14" lengthAdjust="spacing" textLength="117.4482" x="702.6368" y="450.6736">ConcreteVisitorB</text><line style="stroke:#181818;stroke-width:0.5;" x1="588.63" x2="901.5919" y1="461.8269" y2="461.8269"/><line style="stroke:#181818;stroke-width:0.5;" x1="588.63" x2="901.5919" y1="469.8269" y2="469.8269"/><text fill="#000000" font-family="sans-serif" font-size="14" lengthAdjust="spacing" textLength="302.9072" x="593.63" y="486.822">VisitConcreteElementA(ConcreteElementA)</text><text fill="#000000" font-family="sans-serif" font-size="14" lengthAdjust="spacing" textLength="302.9619" x="593.63" y="503.1189">VisitConcreteElementB(ConcreteElementB)</text></g><!--class Element--><g id="elem_Element"><rect codeLine="12" fill="#F1F1F1" height="64.2969" id="Element" rx="2.5" ry="2.5" style="stroke:#181818;stroke-width:0.5;" width="115.3457" x="488.43" y="570.4169"/><ellipse cx="514.8527" cy="586.4169" fill="#ADD1B2" rx="11" ry="11" style="stroke:#181818;stroke-width:1.0;"/><path d="M517.8215,592.0575 Q517.2433,592.3544 516.6027,592.495 Q515.9621,592.6512 515.259,592.6512 Q512.759,592.6512 511.4308,591.0106 Q510.1183,589.3544 510.1183,586.2294 Q510.1183,583.1044 511.4308,581.4481 Q512.759,579.7919 515.259,579.7919 Q515.9621,579.7919 516.6027,579.9481 Q517.259,580.1044 517.8215,580.4012 L517.8215,583.12 Q517.1965,582.5419 516.6027,582.2762 Q516.009,581.995 515.384,581.995 Q514.0402,581.995 513.3527,583.0731 Q512.6652,584.1356 512.6652,586.2294 Q512.6652,588.3231 513.3527,589.4012 Q514.0402,590.4637 515.384,590.4637 Q516.009,590.4637 516.6027,590.1981 Q517.1965,589.9169 517.8215,589.3387 L517.8215,592.0575 Z " fill="#000000"/><text fill="#000000" font-family="sans-serif" font-size="14" lengthAdjust="spacing" textLength="57.9619" x="531.3911" y="591.2636">Element</text><line style="stroke:#181818;stroke-width:0.5;" x1="489.43" x2="602.7757" y1="602.4169" y2="602.4169"/><line style="stroke:#181818;stroke-width:0.5;" x1="489.43" x2="602.7757" y1="610.4169" y2="610.4169"/><text fill="#000000" font-family="sans-serif" font-size="14" lengthAdjust="spacing" textLength="103.3457" x="494.43" y="627.412">Accept(Visitor)</text></g><!--class ConcreteElementA--><g id="elem_ConcreteElementA"><rect codeLine="13" fill="#F1F1F1" height="80.5938" id="ConcreteElementA" rx="2.5" ry="2.5" style="stroke:#181818;stroke-width:0.5;" width="162.9219" x="572.11" y="698.7169"/><ellipse cx="587.11" cy="714.7169" fill="#ADD1B2" rx="11" ry="11" style="stroke:#181818;stroke-width:1.0;"/><path d="M590.0788,720.3575 Q589.5006,720.6544 588.86,720.795 Q588.2194,720.9513 587.5163,720.9513 Q585.0163,720.9513 583.6881,719.3106 Q582.3756,717.6544 582.3756,714.5294 Q582.3756,711.4044 583.6881,709.7481 Q585.0163,708.0919 587.5163,708.0919 Q588.2194,708.0919 588.86,708.2481 Q589.5163,708.4044 590.0788,708.7013 L590.0788,711.42 Q589.4538,710.8419 588.86,710.5763 Q588.2663,710.295 587.6413,710.295 Q586.2975,710.295 585.61,711.3731 Q584.9225,712.4356 584.9225,714.5294 Q584.9225,716.6231 585.61,717.7013 Q586.2975,718.7638 587.6413,718.7638 Q588.2663,718.7638 588.86,718.4981 Q589.4538,718.2169 590.0788,717.6388 L590.0788,720.3575 Z " fill="#000000"/><text fill="#000000" font-family="sans-serif" font-size="14" lengthAdjust="spacing" textLength="130.9219" x="601.11" y="719.5636">ConcreteElementA</text><line style="stroke:#181818;stroke-width:0.5;" x1="573.11" x2="734.0319" y1="730.7169" y2="730.7169"/><line style="stroke:#181818;stroke-width:0.5;" x1="573.11" x2="734.0319" y1="738.7169" y2="738.7169"/><text fill="#000000" font-family="sans-serif" font-size="14" lengthAdjust="spacing" textLength="116.0811" x="578.11" y="755.712">Accept(Visitor v)</text><text fill="#000000" font-family="sans-serif" font-size="14" lengthAdjust="spacing" textLength="90.1729" x="578.11" y="772.0089">OperationA()</text></g><!--class ConcreteElementB--><g id="elem_ConcreteElementB"><rect codeLine="14" fill="#F1F1F1" height="80.5938" id="ConcreteElementB" rx="2.5" ry="2.5" style="stroke:#181818;stroke-width:0.5;" width="162.9492" x="359.11" y="698.7169"/><ellipse cx="374.11" cy="714.7169" fill="#ADD1B2" rx="11" ry="11" style="stroke:#181818;stroke-width:1.0;"/><path d="M377.0788,720.3575 Q376.5006,720.6544 375.86,720.795 Q375.2194,720.9513 374.5163,720.9513 Q372.0163,720.9513 370.6881,719.3106 Q369.3756,717.6544 369.3756,714.5294 Q369.3756,711.4044 370.6881,709.7481 Q372.0163,708.0919 374.5163,708.0919 Q375.2194,708.0919 375.86,708.2481 Q376.5163,708.4044 377.0788,708.7013 L377.0788,711.42 Q376.4538,710.8419 375.86,710.5763 Q375.2663,710.295 374.6413,710.295 Q373.2975,710.295 372.61,711.3731 Q371.9225,712.4356 371.9225,714.5294 Q371.9225,716.6231 372.61,717.7013 Q373.2975,718.7638 374.6413,718.7638 Q375.2663,718.7638 375.86,718.4981 Q376.4538,718.2169 377.0788,717.6388 L377.0788,720.3575 Z " fill="#000000"/><text fill="#000000" font-family="sans-serif" font-size="14" lengthAdjust="spacing" textLength="130.9492" x="388.11" y="719.5636">ConcreteElementB</text><line style="stroke:#181818;stroke-width:0.5;" x1="360.11" x2="521.0592" y1="730.7169" y2="730.7169"/><line style="stroke:#181818;stroke-width:0.5;" x1="360.11" x2="521.0592" y1="738.7169" y2="738.7169"/><text fill="#000000" font-family="sans-serif" font-size="14" lengthAdjust="spacing" textLength="116.0811" x="365.11" y="755.712">Accept(Visitor v)</text><text fill="#000000" font-family="sans-serif" font-size="14" lengthAdjust="spacing" textLength="90.2002" x="365.11" y="772.0089">OperationB()</text></g><!--entity Client--><g id="elem_Client"><rect fill="#F1F1F1" height="36.2969" rx="2.5" ry="2.5" style="stroke:#181818;stroke-width:0.5;" width="60.5303" x="28.84" y="311.3769"/><text fill="#000000" font-family="sans-serif" font-size="14" lengthAdjust="spacing" textLength="40.5303" x="38.84" y="334.372">Client</text></g><!--entity ObjectStructure--><g id="elem_ObjectStructure"><rect fill="#F1F1F1" height="36.2969" rx="2.5" ry="2.5" style="stroke:#181818;stroke-width:0.5;" width="131.0293" x="71.59" y="451.9669"/><text fill="#000000" font-family="sans-serif" font-size="14" lengthAdjust="spacing" textLength="111.0293" x="81.59" y="474.962">ObjectStructure</text></g><g id="elem_nConcreteElementAAccept"><path d="M564.07,842.7169 L564.07,867.8497 A0,0 0 0 0 564.07,867.8497 L796.1486,867.8497 A0,0 0 0 0 796.1486,867.8497 L796.1486,852.7169 L786.1486,842.7169 L657.11,842.7169 L653.11,758.5769 L649.11,842.7169 L564.07,842.7169 A0,0 0 0 0 564.07,842.7169 " fill="#FEFFDD" style="stroke:#181818;stroke-width:0.5;"/><path d="M786.1486,842.7169 L786.1486,852.7169 L796.1486,852.7169 L786.1486,842.7169 " fill="#FEFFDD" style="stroke:#181818;stroke-width:0.5;"/><text fill="#000000" font-family="sans-serif" font-size="13" lengthAdjust="spacing" textLength="211.0786" x="570.07" y="859.7838">v-&gt;VisitConcreteElementA(this);</text></g><g id="elem_nConcreteElementBAccept"><path d="M297.06,842.7169 L297.06,867.8497 A0,0 0 0 0 297.06,867.8497 L529.164,867.8497 A0,0 0 0 0 529.164,867.8497 L529.164,852.7169 L519.164,842.7169 L444.11,842.7169 L440.11,758.5769 L436.11,842.7169 L297.06,842.7169 A0,0 0 0 0 297.06,842.7169 " fill="#FEFFDD" style="stroke:#181818;stroke-width:0.5;"/><path d="M519.164,842.7169 L519.164,852.7169 L529.164,852.7169 L519.164,842.7169 " fill="#FEFFDD" style="stroke:#181818;stroke-width:0.5;"/><text fill="#000000" font-family="sans-serif" font-size="13" lengthAdjust="spacing" textLength="211.104" x="303.06" y="859.7838">v-&gt;VisitConcreteElementB(this);</text></g><g id="elem_nVisitor"><path d="M407.72,158.6969 L407.72,229.2281 A0,0 0 0 0 407.72,229.2281 L537.11,229.2281 L541.11,288.8769 L545.11,229.2281 L674.4886,229.2281 A0,0 0 0 0 674.4886,229.2281 L674.4886,168.6969 L664.4886,158.6969 L407.72,158.6969 A0,0 0 0 0 407.72,158.6969 " fill="#FEFFDD" style="stroke:#181818;stroke-width:0.5;"/><path d="M664.4886,158.6969 L664.4886,168.6969 L674.4886,168.6969 L664.4886,158.6969 " fill="#FEFFDD" style="stroke:#181818;stroke-width:0.5;"/><text fill="#000000" font-family="sans-serif" font-size="13" font-weight="bold" lengthAdjust="spacing" textLength="48.2676" x="413.72" y="175.7638">Visitor</text><text fill="#000000" font-family="sans-serif" font-size="13" lengthAdjust="spacing" textLength="225.1069" x="430.2493" y="190.8966">Declares a Visit operation for each</text><text fill="#000000" font-family="sans-serif" font-size="13" lengthAdjust="spacing" textLength="48.9341" x="430.2493" y="206.0294">class of</text><text fill="#000000" font-family="sans-serif" font-size="13" font-weight="bold" lengthAdjust="spacing" textLength="125.6772" x="483.3157" y="206.0294">ConcreteElement</text><text fill="#000000" font-family="sans-serif" font-size="13" lengthAdjust="spacing" textLength="11.8511" x="613.1253" y="206.0294">in</text><text fill="#000000" font-family="sans-serif" font-size="13" lengthAdjust="spacing" textLength="129.7588" x="430.2493" y="221.1622">the object strauture</text></g><g id="elem_nConcreteVisitor"><path d="M402.41,43.2969 L402.41,98.6953 L679.8045,98.6953 L679.8045,53.2969 L669.8045,43.2969 L402.41,43.2969 " fill="#FEFFDD" style="stroke:#181818;stroke-width:0.5;"/><path d="M669.8045,43.2969 L669.8045,53.2969 L679.8045,53.2969 L669.8045,43.2969 " fill="#FEFFDD" style="stroke:#181818;stroke-width:1.0;"/><text fill="#000000" font-family="sans-serif" font-size="13" font-weight="bold" lengthAdjust="spacing" textLength="113.9595" x="408.41" y="60.3638">ConcreteVisitor</text><text fill="#000000" font-family="sans-serif" font-size="13" lengthAdjust="spacing" textLength="239.8652" x="424.9393" y="75.4966">Implements each operation declared</text><text fill="#000000" font-family="sans-serif" font-size="13" lengthAdjust="spacing" textLength="15.9453" x="424.9393" y="90.6294">by</text><text fill="#000000" font-family="sans-serif" font-size="13" font-weight="bold" lengthAdjust="spacing" textLength="53.2061" x="445.0169" y="90.6294">Visitor.</text></g><g id="elem_nElement"><path d="M807.76,301.8269 L807.76,357.2253 L1102.4519,357.2253 L1102.4519,311.8269 L1092.4519,301.8269 L807.76,301.8269 " fill="#FEFFDD" style="stroke:#181818;stroke-width:0.5;"/><path d="M1092.4519,301.8269 L1092.4519,311.8269 L1102.4519,311.8269 L1092.4519,301.8269 " fill="#FEFFDD" style="stroke:#181818;stroke-width:1.0;"/><text fill="#000000" font-family="sans-serif" font-size="13" font-weight="bold" lengthAdjust="spacing" textLength="59.9854" x="813.76" y="318.8938">Element</text><text fill="#000000" font-family="sans-serif" font-size="13" lengthAdjust="spacing" textLength="253.0303" x="830.2893" y="334.0266">defines an Accept operation that takes</text><text fill="#000000" font-family="sans-serif" font-size="13" lengthAdjust="spacing" textLength="163.4585" x="830.2893" y="349.1594">a visitor as an argument.</text></g><g id="elem_nConcreteElement"><path d="M27.74,711.0169 L27.74,766.4153 L316.4841,766.4153 L316.4841,721.0169 L306.4841,711.0169 L27.74,711.0169 " fill="#FEFFDD" style="stroke:#181818;stroke-width:0.5;"/><path d="M306.4841,711.0169 L306.4841,721.0169 L316.4841,721.0169 L306.4841,711.0169 " fill="#FEFFDD" style="stroke:#181818;stroke-width:1.0;"/><text fill="#000000" font-family="sans-serif" font-size="13" font-weight="bold" lengthAdjust="spacing" textLength="125.6772" x="33.74" y="728.0838">ConcreteElement</text><text fill="#000000" font-family="sans-serif" font-size="13" lengthAdjust="spacing" textLength="212.6846" x="50.2693" y="743.2166">Implements an Accept operation</text><text fill="#000000" font-family="sans-serif" font-size="13" lengthAdjust="spacing" textLength="234.6855" x="66.7986" y="758.3494">that takes a Visitor as an argument.</text></g><g id="elem_nObjectStructure"><path d="M6,166.2669 L6,221.6653 A0,0 0 0 0 6,221.6653 L142,221.6653 L146,451.5369 L150,221.6653 L278.2148,221.6653 A0,0 0 0 0 278.2148,221.6653 L278.2148,176.2669 L268.2148,166.2669 L6,166.2669 A0,0 0 0 0 6,166.2669 " fill="#FEFFDD" style="stroke:#181818;stroke-width:0.5;"/><path d="M268.2148,166.2669 L268.2148,176.2669 L278.2148,176.2669 L268.2148,166.2669 " fill="#FEFFDD" style="stroke:#181818;stroke-width:0.5;"/><text fill="#000000" font-family="sans-serif" font-size="13" font-weight="bold" lengthAdjust="spacing" textLength="117.1968" x="12" y="183.3338">ObjectStructure</text><text fill="#000000" font-family="sans-serif" font-size="13" lengthAdjust="spacing" textLength="212.6846" x="28.5293" y="198.4666">Implements an Accept operation</text><text fill="#000000" font-family="sans-serif" font-size="13" lengthAdjust="spacing" textLength="234.6855" x="28.5293" y="213.5994">that takes a Visitor as an argument.</text></g><!--reverse link Visitor to ConcreteVisitorA--><g id="link_Visitor_ConcreteVisitorA"><path codeLine="37" d="M468.11,388.1969 C468.11,406.8469 468.11,410.9069 468.11,429.5469 " fill="none" id="Visitor-backto-ConcreteVisitorA" style="stroke:#181818;stroke-width:1.0;"/><polygon fill="none" points="468.11,370.1969,462.11,388.1969,474.11,388.1969,468.11,370.1969" style="stroke:#181818;stroke-width:1.0;"/></g><!--reverse link Visitor to ConcreteVisitorB--><g id="link_Visitor_ConcreteVisitorB"><path codeLine="38" d="M643.11,388.1969 C643.11,406.8469 643.11,410.9069 643.11,429.5469 " fill="none" id="Visitor-backto-ConcreteVisitorB" style="stroke:#181818;stroke-width:1.0;"/><polygon fill="none" points="643.11,370.1969,637.11,388.1969,649.11,388.1969,643.11,370.1969" style="stroke:#181818;stroke-width:1.0;"/></g><!--reverse link Element to ConcreteElementA--><g id="link_Element_ConcreteElementA"><path codeLine="40" d="M590.56,653.1769 C590.56,671.0369 590.56,675.4069 590.56,694.7869 " fill="none" id="Element-backto-ConcreteElementA" style="stroke:#181818;stroke-width:1.0;"/><polygon fill="none" points="590.56,635.1769,584.56,653.1769,596.56,653.1769,590.56,635.1769" style="stroke:#181818;stroke-width:1.0;"/></g><!--reverse link Element to ConcreteElementB--><g id="link_Element_ConcreteElementB"><path codeLine="41" d="M508.77,653.1769 C508.77,671.0369 508.77,675.4069 508.77,694.7869 " fill="none" id="Element-backto-ConcreteElementB" style="stroke:#181818;stroke-width:1.0;"/><polygon fill="none" points="508.77,635.1769,502.77,653.1769,514.77,653.1769,508.77,635.1769" style="stroke:#181818;stroke-width:1.0;"/></g><!--link Client to Visitor--><g id="link_Client_Visitor"><path codeLine="43" d="M89.62,329.5269 C147.67,329.5269 271.62,329.5269 377.27,329.5269 " fill="none" id="Client-to-Visitor" style="stroke:#181818;stroke-width:1.0;stroke-dasharray:7.0,7.0;"/><polygon fill="#181818" points="383.27,329.5269,374.27,325.5269,378.27,329.5269,374.27,333.5269,383.27,329.5269" style="stroke:#181818;stroke-width:1.0;"/></g><!--link Client to ObjectStructure--><g id="link_Client_ObjectStructure"><path codeLine="44" d="M80.48,347.9069 C80.48,374.8469 80.48,418.7869 80.48,445.7369 " fill="none" id="Client-to-ObjectStructure" style="stroke:#181818;stroke-width:1.0;stroke-dasharray:7.0,7.0;"/><polygon fill="#181818" points="80.48,451.7369,84.48,442.7369,80.48,446.7369,76.48,442.7369,80.48,451.7369" style="stroke:#181818;stroke-width:1.0;"/></g><!--link ObjectStructure to Element--><g id="link_ObjectStructure_Element"><path codeLine="46" d="M137.11,488.5369 C137.11,524.9269 137.11,602.5669 137.11,602.5669 C137.11,602.5669 369.02,602.5669 481.94,602.5669 " fill="none" id="ObjectStructure-to-Element" style="stroke:#181818;stroke-width:1.0;"/><polygon fill="#181818" points="487.94,602.5669,478.94,598.5669,482.94,602.5669,478.94,606.5669,487.94,602.5669" style="stroke:#181818;stroke-width:1.0;"/></g><!--link nConcreteVisitor to ConcreteVisitorA--><g id="link_nConcreteVisitor_ConcreteVisitorA"><path codeLine="71" d="M402.08,70.9969 C362.99,70.9969 330.92,70.9969 330.92,70.9969 C330.92,70.9969 330.92,328.1869 330.92,429.6569 " fill="none" id="nConcreteVisitor-ConcreteVisitorA" style="stroke:#181818;stroke-width:1.0;stroke-dasharray:7.0,7.0;"/></g><!--link nConcreteVisitor to ConcreteVisitorB--><g id="link_nConcreteVisitor_ConcreteVisitorB"><path codeLine="72" d="M680.19,70.9969 C720.17,70.9969 753.17,70.9969 753.17,70.9969 C753.17,70.9969 753.17,328.1869 753.17,429.6569 " fill="none" id="nConcreteVisitor-ConcreteVisitorB" style="stroke:#181818;stroke-width:1.0;stroke-dasharray:7.0,7.0;"/></g><!--link nElement to Element--><g id="link_nElement_Element"><path codeLine="79" d="M1002.52,357.7169 C1002.52,427.4769 1002.52,602.5669 1002.52,602.5669 C1002.52,602.5669 726.73,602.5669 603.91,602.5669 " fill="none" id="nElement-Element" style="stroke:#181818;stroke-width:1.0;stroke-dasharray:7.0,7.0;"/></g><!--link nConcreteElement to ConcreteElementA--><g id="link_nConcreteElement_ConcreteElementA"><path codeLine="86" d="M277.05,710.7369 C277.05,689.7869 277.05,664.7169 277.05,664.7169 C277.05,664.7169 577.33,664.7169 577.33,664.7169 C577.33,664.7169 577.33,678.8769 577.33,694.8169 " fill="none" id="nConcreteElement-ConcreteElementA" style="stroke:#181818;stroke-width:1.0;stroke-dasharray:7.0,7.0;"/></g><!--link nConcreteElement to ConcreteElementB--><g id="link_nConcreteElement_ConcreteElementB"><path codeLine="87" d="M316.7,738.7169 C328.44,738.7169 340.07,738.7169 351.24,738.7169 " fill="none" id="nConcreteElement-ConcreteElementB" style="stroke:#181818;stroke-width:1.0;stroke-dasharray:7.0,7.0;"/></g><!--SRC=[dLLDZvim4BtxLyojoG5wJoEaUDkLzhILAlNk42Tu5snaXhGhzSVN3hPn3Kb8ES5uPjvxys5ONQjVZVWjv8bqxqAsJBC6QY4vVhGSbCPAaKyrFoAW0YrE5S91Q5wYK98G55Xp-2awWKh3TuR8jOHdfHjMmm_KVOczveIKDUiwx-U-dfGiDKVkhBjvC_N1tshUS8c9bxFkviqcs59bycHOFjN2ne-6r_sRUOzOUXsRWMcAiKeDwpiHD8sWQq9IsG-WBGnT0al_7vO-0kjUJSYkB7cBAvSaOkI19ZvmNiyvlRPSCpj-kzKq2rsIXSPPgCqI6hdzasNJoRnrIaUH_no7oRnrQeA7iOIy2ElXBSOq6T7405bMXCqWKY47re5CEGmL8M2USrRCznqhqQs_42uFOFEGAqaWxzjy8dApSH1NET3x7EXT3lG61ph3mLVKWcxtHVnfdw_St1gQTy26seFoGm57qstEoWg2yt31gADDb41lF-yB47BqnSfSdPTEGOUQzPVUZQhyEEKvn9IcjKlupvdjyzAq0v5ku3pAE0mA3y5r_n4L8f-fzCWjpwUBiCYDHXtmi-aK-5smQZsb0p-QturfWdIR6_77YfaV3titny6VmTc1iqiGqwVU9etLU1pBxkvwfEMDpKbvvpW6lw7pWJ0B_yNhF1D8c6xM0f-utkc5uQJDcH-Hzg2iz9QoRKWf_0K0]--></g></svg>