<svg xmlns="http://www.w3.org/2000/svg" xmlns:xlink="http://www.w3.org/1999/xlink" contentStyleType="text/css" height="386px" preserveAspectRatio="none" style="width:787px;height:386px;background:#FFFFFF;" version="1.1" viewBox="0 0 787 386" width="787px" zoomAndPan="magnify"><defs/><g><rect fill="#FFFFFF" height="295.7969" style="stroke:#181818;stroke-width:1.0;" width="10" x="71.2407" y="46.2969"/><rect fill="#FFFFFF" height="59.1328" style="stroke:#181818;stroke-width:1.0;" width="10" x="229.2319" y="67.4297"/><rect fill="#FFFFFF" height="30" style="stroke:#181818;stroke-width:1.0;" width="10" x="229.2319" y="155.6953"/><rect fill="#FFFFFF" height="59.1328" style="stroke:#181818;stroke-width:1.0;" width="10" x="392.7466" y="214.8281"/><rect fill="#FFFFFF" height="30" style="stroke:#181818;stroke-width:1.0;" width="10" x="392.7466" y="303.0938"/><rect fill="#FFFFFF" height="89.1328" style="stroke:#181818;stroke-width:1.0;" width="10" x="711.0347" y="96.5625"/><rect fill="#FFFFFF" height="89.1328" style="stroke:#181818;stroke-width:1.0;" width="10" x="711.0347" y="243.9609"/><line style="stroke:#181818;stroke-width:0.5;stroke-dasharray:5.0,5.0;" x1="76" x2="76" y1="36.2969" y2="351.0938"/><line style="stroke:#181818;stroke-width:0.5;stroke-dasharray:5.0,5.0;" x1="233.4814" x2="233.4814" y1="36.2969" y2="351.0938"/><line style="stroke:#181818;stroke-width:0.5;stroke-dasharray:5.0,5.0;" x1="396.9824" x2="396.9824" y1="36.2969" y2="351.0938"/><line style="stroke:#181818;stroke-width:0.5;stroke-dasharray:5.0,5.0;" x1="715.8232" x2="715.8232" y1="36.2969" y2="351.0938"/><rect fill="#E2E2F0" height="30.2969" rx="2.5" ry="2.5" style="stroke:#181818;stroke-width:0.5;" width="142.4814" x="5" y="5"/><text fill="#000000" font-family="sans-serif" font-size="14" lengthAdjust="spacing" textLength="128.4814" x="12" y="24.9951">anObjectStructure</text><rect fill="#E2E2F0" height="30.2969" rx="2.5" ry="2.5" style="stroke:#181818;stroke-width:0.5;" width="142.4814" x="5" y="350.0938"/><text fill="#000000" font-family="sans-serif" font-size="14" lengthAdjust="spacing" textLength="128.4814" x="12" y="370.0889">anObjectStructure</text><rect fill="#E2E2F0" height="30.2969" rx="2.5" ry="2.5" style="stroke:#181818;stroke-width:0.5;" width="153.501" x="157.4814" y="5"/><text fill="#000000" font-family="sans-serif" font-size="14" lengthAdjust="spacing" textLength="139.501" x="164.4814" y="24.9951">aConcreteElementA</text><rect fill="#E2E2F0" height="30.2969" rx="2.5" ry="2.5" style="stroke:#181818;stroke-width:0.5;" width="153.501" x="157.4814" y="350.0938"/><text fill="#000000" font-family="sans-serif" font-size="14" lengthAdjust="spacing" textLength="139.501" x="164.4814" y="370.0889">aConcreteElementA</text><rect fill="#E2E2F0" height="30.2969" rx="2.5" ry="2.5" style="stroke:#181818;stroke-width:0.5;" width="153.5283" x="320.9824" y="5"/><text fill="#000000" font-family="sans-serif" font-size="14" lengthAdjust="spacing" textLength="139.5283" x="327.9824" y="24.9951">aConcreteElementB</text><rect fill="#E2E2F0" height="30.2969" rx="2.5" ry="2.5" style="stroke:#181818;stroke-width:0.5;" width="153.5283" x="320.9824" y="350.0938"/><text fill="#000000" font-family="sans-serif" font-size="14" lengthAdjust="spacing" textLength="139.5283" x="327.9824" y="370.0889">aConcreteElementB</text><rect fill="#E2E2F0" height="30.2969" rx="2.5" ry="2.5" style="stroke:#181818;stroke-width:0.5;" width="130.4229" x="650.8232" y="5"/><text fill="#000000" font-family="sans-serif" font-size="14" lengthAdjust="spacing" textLength="116.4229" x="657.8232" y="24.9951">aConcreteVisitor</text><rect fill="#E2E2F0" height="30.2969" rx="2.5" ry="2.5" style="stroke:#181818;stroke-width:0.5;" width="130.4229" x="650.8232" y="350.0938"/><text fill="#000000" font-family="sans-serif" font-size="14" lengthAdjust="spacing" textLength="116.4229" x="657.8232" y="370.0889">aConcreteVisitor</text><rect fill="#FFFFFF" height="295.7969" style="stroke:#181818;stroke-width:1.0;" width="10" x="71.2407" y="46.2969"/><rect fill="#FFFFFF" height="59.1328" style="stroke:#181818;stroke-width:1.0;" width="10" x="229.2319" y="67.4297"/><rect fill="#FFFFFF" height="30" style="stroke:#181818;stroke-width:1.0;" width="10" x="229.2319" y="155.6953"/><rect fill="#FFFFFF" height="59.1328" style="stroke:#181818;stroke-width:1.0;" width="10" x="392.7466" y="214.8281"/><rect fill="#FFFFFF" height="30" style="stroke:#181818;stroke-width:1.0;" width="10" x="392.7466" y="303.0938"/><rect fill="#FFFFFF" height="89.1328" style="stroke:#181818;stroke-width:1.0;" width="10" x="711.0347" y="96.5625"/><rect fill="#FFFFFF" height="89.1328" style="stroke:#181818;stroke-width:1.0;" width="10" x="711.0347" y="243.9609"/><polygon fill="#181818" points="217.2319,63.4297,227.2319,67.4297,217.2319,71.4297,221.2319,67.4297" style="stroke:#181818;stroke-width:1.0;"/><line style="stroke:#181818;stroke-width:1.0;" x1="81.2407" x2="223.2319" y1="67.4297" y2="67.4297"/><text fill="#000000" font-family="sans-serif" font-size="13" lengthAdjust="spacing" textLength="95.9639" x="88.2407" y="62.3638">Accept(Visitor)</text><polygon fill="#181818" points="699.0347,92.5625,709.0347,96.5625,699.0347,100.5625,703.0347,96.5625" style="stroke:#181818;stroke-width:1.0;"/><line style="stroke:#181818;stroke-width:1.0;" x1="239.2319" x2="705.0347" y1="96.5625" y2="96.5625"/><text fill="#000000" font-family="sans-serif" font-size="13" lengthAdjust="spacing" textLength="294.3091" x="246.2319" y="91.4966">VisitConcreteElementA((aConcreteElementA)</text><polygon fill="#181818" points="250.2319,151.6953,240.2319,155.6953,250.2319,159.6953,246.2319,155.6953" style="stroke:#181818;stroke-width:1.0;"/><line style="stroke:#181818;stroke-width:1.0;" x1="244.2319" x2="710.0347" y1="155.6953" y2="155.6953"/><text fill="#000000" font-family="sans-serif" font-size="13" lengthAdjust="spacing" textLength="74.8389" x="256.2319" y="150.6294">Operation()</text><polygon fill="#181818" points="380.7466,210.8281,390.7466,214.8281,380.7466,218.8281,384.7466,214.8281" style="stroke:#181818;stroke-width:1.0;"/><line style="stroke:#181818;stroke-width:1.0;" x1="81.2407" x2="386.7466" y1="214.8281" y2="214.8281"/><text fill="#000000" font-family="sans-serif" font-size="13" lengthAdjust="spacing" textLength="103.9302" x="88.2407" y="209.7622">Accept(aVisitor)</text><polygon fill="#181818" points="699.0347,239.9609,709.0347,243.9609,699.0347,247.9609,703.0347,243.9609" style="stroke:#181818;stroke-width:1.0;"/><line style="stroke:#181818;stroke-width:1.0;" x1="402.7466" x2="705.0347" y1="243.9609" y2="243.9609"/><text fill="#000000" font-family="sans-serif" font-size="13" lengthAdjust="spacing" textLength="289.2881" x="409.7466" y="238.895">VisitConcreteElementB(aConcreteElementB)</text><polygon fill="#181818" points="413.7466,299.0938,403.7466,303.0938,413.7466,307.0938,409.7466,303.0938" style="stroke:#181818;stroke-width:1.0;"/><line style="stroke:#181818;stroke-width:1.0;" x1="407.7466" x2="710.0347" y1="303.0938" y2="303.0938"/><text fill="#000000" font-family="sans-serif" font-size="13" lengthAdjust="spacing" textLength="74.8389" x="419.7466" y="298.0278">Operation()</text><!--SRC=[XOwn3e8m54NtVaN7El03nfZm23C3IVTdVKEDbgOy_NvRm42erltSSu_7mDPOZuubkkvo8yCzXwVXPo29e-nwAVmMQWPd0Z6rTtgGupf1JLiN8PWX-A7IThGyX0dIGg1X-qAc-2tYVNLEVdcKjJ7aMItqOUNIlKXCGdKa9sGVgbJMldLeSQNSUAfcO-Sf8Dl1gTtlTfGhFlcmvkEtVaXlKEo7B1yA-OlmJpwKygFY3G00]--></g></svg>