<?xml version="1.0" encoding="us-ascii" standalone="no"?><svg xmlns="http://www.w3.org/2000/svg" xmlns:xlink="http://www.w3.org/1999/xlink" contentStyleType="text/css" height="466px" preserveAspectRatio="none" style="width:898px;height:466px;background:#FFFFFF;" version="1.1" viewBox="0 0 898 466" width="898px" zoomAndPan="magnify"><defs/><g><text fill="#000000" font-family="sans-serif" font-size="14" font-weight="bold" lengthAdjust="spacing" textLength="294" x="295.25" y="22.9951">Factory Method Pattern Sample Code</text><!--class MazeGame--><g id="elem_MazeGame"><rect codeLine="5" fill="#F1F1F1" height="129.4844" id="MazeGame" rx="2.5" ry="2.5" style="stroke:#181818;stroke-width:0.5;" width="241" x="286" y="148.5669"/><ellipse cx="363.25" cy="164.5669" fill="#ADD1B2" rx="11" ry="11" style="stroke:#181818;stroke-width:1.0;"/><path d="M366.2188,170.2075 Q365.6406,170.5044 365,170.645 Q364.3594,170.8012 363.6563,170.8012 Q361.1563,170.8012 359.8281,169.1606 Q358.5156,167.5044 358.5156,164.3794 Q358.5156,161.2544 359.8281,159.5981 Q361.1563,157.9419 363.6563,157.9419 Q364.3594,157.9419 365,158.0981 Q365.6563,158.2544 366.2188,158.5512 L366.2188,161.27 Q365.5938,160.6919 365,160.4262 Q364.4063,160.145 363.7813,160.145 Q362.4375,160.145 361.75,161.2231 Q361.0625,162.2856 361.0625,164.3794 Q361.0625,166.4731 361.75,167.5512 Q362.4375,168.6137 363.7813,168.6137 Q364.4063,168.6137 365,168.3481 Q365.5938,168.0669 366.2188,167.4887 L366.2188,170.2075 Z " fill="#000000"/><text fill="#000000" font-family="sans-serif" font-size="14" lengthAdjust="spacing" textLength="78" x="383.75" y="169.4136">MazeGame</text><line style="stroke:#181818;stroke-width:0.5;" x1="287" x2="526" y1="180.5669" y2="180.5669"/><line style="stroke:#181818;stroke-width:0.5;" x1="287" x2="526" y1="188.5669" y2="188.5669"/><ellipse cx="297" cy="202.2153" fill="#84BE84" rx="3" ry="3" style="stroke:#038048;stroke-width:1.0;"/><text fill="#000000" font-family="sans-serif" font-size="14" lengthAdjust="spacing" textLength="141" x="306" y="205.562">createMaze() : Maze</text><ellipse cx="297" cy="218.5122" fill="#84BE84" rx="3" ry="3" style="stroke:#038048;stroke-width:1.0;"/><text fill="#000000" font-family="sans-serif" font-size="14" lengthAdjust="spacing" textLength="135" x="306" y="221.8589">makeMaze() : Maze</text><ellipse cx="297" cy="234.8091" fill="#84BE84" rx="3" ry="3" style="stroke:#038048;stroke-width:1.0;"/><text fill="#000000" font-family="sans-serif" font-size="14" lengthAdjust="spacing" textLength="160" x="306" y="238.1557">makeRoom(int) : Room</text><ellipse cx="297" cy="251.1059" fill="#84BE84" rx="3" ry="3" style="stroke:#038048;stroke-width:1.0;"/><text fill="#000000" font-family="sans-serif" font-size="14" lengthAdjust="spacing" textLength="215" x="306" y="254.4526">makeDoor(Room,Room) : Door</text><ellipse cx="297" cy="267.4028" fill="#84BE84" rx="3" ry="3" style="stroke:#038048;stroke-width:1.0;"/><text fill="#000000" font-family="sans-serif" font-size="14" lengthAdjust="spacing" textLength="115" x="306" y="270.7495">makeWall() : Wall</text></g><!--class BombMazeGame--><g id="elem_BombMazeGame"><rect codeLine="6" fill="#F1F1F1" height="113.1875" id="BombMazeGame" rx="2.5" ry="2.5" style="stroke:#181818;stroke-width:0.5;" width="241" x="286" y="346.5669"/><ellipse cx="342.75" cy="362.5669" fill="#ADD1B2" rx="11" ry="11" style="stroke:#181818;stroke-width:1.0;"/><path d="M345.7188,368.2075 Q345.1406,368.5044 344.5,368.645 Q343.8594,368.8013 343.1563,368.8013 Q340.6563,368.8013 339.3281,367.1606 Q338.0156,365.5044 338.0156,362.3794 Q338.0156,359.2544 339.3281,357.5981 Q340.6563,355.9419 343.1563,355.9419 Q343.8594,355.9419 344.5,356.0981 Q345.1563,356.2544 345.7188,356.5513 L345.7188,359.27 Q345.0938,358.6919 344.5,358.4263 Q343.9063,358.145 343.2813,358.145 Q341.9375,358.145 341.25,359.2231 Q340.5625,360.2856 340.5625,362.3794 Q340.5625,364.4731 341.25,365.5513 Q341.9375,366.6138 343.2813,366.6138 Q343.9063,366.6138 344.5,366.3481 Q345.0938,366.0669 345.7188,365.4888 L345.7188,368.2075 Z " fill="#000000"/><text fill="#000000" font-family="sans-serif" font-size="14" lengthAdjust="spacing" textLength="119" x="363.25" y="367.4136">BombMazeGame</text><line style="stroke:#181818;stroke-width:0.5;" x1="287" x2="526" y1="378.5669" y2="378.5669"/><line style="stroke:#181818;stroke-width:0.5;" x1="287" x2="526" y1="386.5669" y2="386.5669"/><ellipse cx="297" cy="400.2153" fill="#84BE84" rx="3" ry="3" style="stroke:#038048;stroke-width:1.0;"/><text fill="#000000" font-family="sans-serif" font-size="14" lengthAdjust="spacing" textLength="135" x="306" y="403.562">makeMaze() : Maze</text><ellipse cx="297" cy="416.5122" fill="#84BE84" rx="3" ry="3" style="stroke:#038048;stroke-width:1.0;"/><text fill="#000000" font-family="sans-serif" font-size="14" lengthAdjust="spacing" textLength="160" x="306" y="419.8589">makeRoom(int) : Room</text><ellipse cx="297" cy="432.8091" fill="#84BE84" rx="3" ry="3" style="stroke:#038048;stroke-width:1.0;"/><text fill="#000000" font-family="sans-serif" font-size="14" lengthAdjust="spacing" textLength="215" x="306" y="436.1557">makeDoor(Room,Room) : Door</text><ellipse cx="297" cy="449.1059" fill="#84BE84" rx="3" ry="3" style="stroke:#038048;stroke-width:1.0;"/><text fill="#000000" font-family="sans-serif" font-size="14" lengthAdjust="spacing" textLength="115" x="306" y="452.4526">makeWall() : Wall</text></g><!--entity Maze--><g id="elem_Maze"><rect fill="#F1F1F1" height="36.2969" rx="2.5" ry="2.5" style="stroke:#181818;stroke-width:0.5;" width="57" x="143" y="194.9169"/><text fill="#000000" font-family="sans-serif" font-size="14" lengthAdjust="spacing" textLength="37" x="153" y="217.912">Maze</text></g><!--entity Door--><g id="elem_Door"><rect fill="#F1F1F1" height="36.2969" rx="2.5" ry="2.5" style="stroke:#181818;stroke-width:0.5;" width="54" x="612.5" y="194.9169"/><text fill="#000000" font-family="sans-serif" font-size="14" lengthAdjust="spacing" textLength="34" x="622.5" y="217.912">Door</text></g><g id="elem_nMazeGameCreateMaze"><path d="M6,43.2969 L6,83.5625 L255,83.5625 L255,53.2969 L245,43.2969 L6,43.2969 " fill="#FEFFDD" style="stroke:#181818;stroke-width:0.5;"/><path d="M245,43.2969 L245,53.2969 L255,53.2969 L245,43.2969 " fill="#FEFFDD" style="stroke:#181818;stroke-width:1.0;"/><text fill="#000000" font-family="sans-serif" font-size="13" font-style="italic" lengthAdjust="spacing" textLength="85" x="12" y="60.3638">createMaze()</text><text fill="#000000" font-family="sans-serif" font-size="13" lengthAdjust="spacing" textLength="139" x="101" y="60.3638">uses factory methods</text><text fill="#000000" font-family="sans-serif" font-size="13" lengthAdjust="spacing" textLength="118" x="12" y="75.4966">implemented here</text></g><g id="elem_nMazeGameMakeRoom"><path d="M330.5,50.8669 L330.5,75.9997 L482.5,75.9997 L482.5,60.8669 L472.5,50.8669 L330.5,50.8669 " fill="#FEFFDD" style="stroke:#181818;stroke-width:0.5;"/><path d="M472.5,50.8669 L472.5,60.8669 L482.5,60.8669 L472.5,50.8669 " fill="#FEFFDD" style="stroke:#181818;stroke-width:1.0;"/><text fill="#000000" font-family="sans-serif" font-size="13" lengthAdjust="spacing" textLength="131" x="336.5" y="67.9338">return new Room(n);</text></g><g id="elem_nBombMazeGameMakeRoom"><path d="M701.5,200.4969 L701.5,225.6297 A0,0 0 0 0 701.5,225.6297 L784.89,225.6297 L528,414.5669 L792.89,225.6297 L891.5,225.6297 A0,0 0 0 0 891.5,225.6297 L891.5,210.4969 L881.5,200.4969 L701.5,200.4969 A0,0 0 0 0 701.5,200.4969 " fill="#FEFFDD" style="stroke:#181818;stroke-width:0.5;"/><path d="M881.5,200.4969 L881.5,210.4969 L891.5,210.4969 L881.5,200.4969 " fill="#FEFFDD" style="stroke:#181818;stroke-width:0.5;"/><text fill="#000000" font-family="sans-serif" font-size="13" lengthAdjust="spacing" textLength="169" x="707.5" y="217.5638">return new BombRoom(n);</text></g><!--reverse link MazeGame to BombMazeGame--><g id="link_MazeGame_BombMazeGame"><path codeLine="21" d="M406.5,299.4069 C406.5,319.4269 406.5,323.2069 406.5,342.6769 " fill="none" id="MazeGame-backto-BombMazeGame" style="stroke:#181818;stroke-width:1.0;"/><polygon fill="none" points="406.5,281.4069,400.5,299.4069,412.5,299.4069,406.5,281.4069" style="stroke:#181818;stroke-width:1.0;"/></g><!--reverse link Maze to MazeGame--><g id="link_Maze_MazeGame"><path codeLine="23" d="M206.32,213.0669 C226.42,213.0669 248.79,213.0669 278.08,213.0669 " fill="none" id="Maze-backto-MazeGame" style="stroke:#181818;stroke-width:1.0;stroke-dasharray:7.0,7.0;"/><polygon fill="#181818" points="200.32,213.0669,209.32,217.0669,205.32,213.0669,209.32,209.0669,200.32,213.0669" style="stroke:#181818;stroke-width:1.0;"/><text fill="#000000" font-family="sans-serif" font-size="13" lengthAdjust="spacing" textLength="41" x="218.5" y="206.1338">create</text></g><!--link MazeGame to Door--><g id="link_MazeGame_Door"><path codeLine="24" d="M534.93,213.0669 C564.26,213.0669 586.56,213.0669 606.32,213.0669 " fill="none" id="MazeGame-to-Door" style="stroke:#181818;stroke-width:1.0;stroke-dasharray:7.0,7.0;"/><polygon fill="#181818" points="612.32,213.0669,603.32,209.0669,607.32,213.0669,603.32,217.0669,612.32,213.0669" style="stroke:#181818;stroke-width:1.0;"/><text fill="#000000" font-family="sans-serif" font-size="13" lengthAdjust="spacing" textLength="41" x="553.25" y="206.1338">create</text></g><!--link nMazeGameCreateMaze to MazeGame--><g id="link_nMazeGameCreateMaze_MazeGame"><path codeLine="30" d="M151.89,83.9369 C193.28,121.5769 280.64,200.5669 285,200.5669 " fill="none" id="nMazeGameCreateMaze-MazeGame" style="stroke:#181818;stroke-width:1.0;stroke-dasharray:7.0,7.0;"/></g><!--link nMazeGameCreateMaze to BombMazeGame--><g id="link_nMazeGameCreateMaze_BombMazeGame"><path codeLine="31" d="M123.31,83.8369 C109.62,124.3969 84.62,219.5469 125.5,281.5669 C159.68,333.4169 221.31,363.0469 278.17,379.9269 " fill="none" id="nMazeGameCreateMaze-BombMazeGame" style="stroke:#181818;stroke-width:1.0;stroke-dasharray:7.0,7.0;"/></g><!--link nMazeGameMakeRoom to MazeGame--><g id="link_nMazeGameMakeRoom_MazeGame"><path codeLine="36" d="M440.13,76.3869 C468.93,88.6169 508.59,110.6769 527,144.5669 C545.67,178.9369 567.11,232.5669 528,232.5669 " fill="none" id="nMazeGameMakeRoom-MazeGame" style="stroke:#181818;stroke-width:1.0;stroke-dasharray:7.0,7.0;"/></g><!--SRC=[XP8_JyCm4CLtVueRKq73NgeC5C5K2S70R99hOk4_oBcgWFZmv4oJE8qZCaInt-_oddqdjNOdepwLhGKfqWWFiYJdls2FrBWAdYGHUWilqdnqwivLA4IfPTl2NdxZepHuNjuvypPiUIn9shghuAreUU-S5wBdO0DNfKT9o3lPgbi7FjQDVFz7VNREPCeI0_mz0zWqO-MQNuo569VOgzGwkF274F61qa5In2nC2be8b48lGWtozcUzdjxvgEKQ3vGN8MHN-NV3aUnLtR3EfgCkh2C4sOBjoTtG6W7TirL5tApjZIhWs68BX_FCc30pRO0Lpuj1IrX1Wnu5sWhOGIH-3ta-ZDDcCveiiV6v9_py3FjpJq8eZtJiXjdYAVGciwlRHAw-P9ggRsxa4STOyc4cuPKgdPziyFm5]--></g></svg>