<?xml version="1.0" encoding="us-ascii" standalone="no"?><svg xmlns="http://www.w3.org/2000/svg" xmlns:xlink="http://www.w3.org/1999/xlink" contentStyleType="text/css" height="263px" preserveAspectRatio="none" style="width:589px;height:263px;background:#FFFFFF;" version="1.1" viewBox="0 0 589 263" width="589px" zoomAndPan="magnify"><defs/><g><text fill="#000000" font-family="sans-serif" font-size="14" font-weight="bold" lengthAdjust="spacing" textLength="169" x="203" y="22.9951">Factory Method Patte</text><!--class Creator--><g id="elem_Creator"><rect codeLine="6" fill="#F1F1F1" height="80.5938" id="Creator" rx="2.5" ry="2.5" style="stroke:#181818;stroke-width:0.5;" width="121" x="201.5" y="44.2969"/><ellipse cx="233.6" cy="60.2969" fill="#ADD1B2" rx="11" ry="11" style="stroke:#181818;stroke-width:1.0;"/><path d="M236.5688,65.9375 Q235.9906,66.2344 235.35,66.375 Q234.7094,66.5313 234.0063,66.5313 Q231.5063,66.5313 230.1781,64.8906 Q228.8656,63.2344 228.8656,60.1094 Q228.8656,56.9844 230.1781,55.3281 Q231.5063,53.6719 234.0063,53.6719 Q234.7094,53.6719 235.35,53.8281 Q236.0063,53.9844 236.5688,54.2813 L236.5688,57 Q235.9438,56.4219 235.35,56.1563 Q234.7563,55.875 234.1313,55.875 Q232.7875,55.875 232.1,56.9531 Q231.4125,58.0156 231.4125,60.1094 Q231.4125,62.2031 232.1,63.2813 Q232.7875,64.3438 234.1313,64.3438 Q234.7563,64.3438 235.35,64.0781 Q235.9438,63.7969 236.5688,63.2188 L236.5688,65.9375 Z " fill="#000000"/><text fill="#000000" font-family="sans-serif" font-size="14" lengthAdjust="spacing" textLength="51" x="251.4" y="65.1436">Creator</text><line style="stroke:#181818;stroke-width:0.5;" x1="202.5" x2="321.5" y1="76.2969" y2="76.2969"/><line style="stroke:#181818;stroke-width:0.5;" x1="202.5" x2="321.5" y1="84.2969" y2="84.2969"/><text fill="#000000" font-family="sans-serif" font-size="14" lengthAdjust="spacing" textLength="109" x="207.5" y="101.292">factoryMethod()</text><text fill="#000000" font-family="sans-serif" font-size="14" lengthAdjust="spacing" textLength="76" x="207.5" y="117.5889">operation()</text></g><!--class ConcreteCreator--><g id="elem_ConcreteCreator"><rect codeLine="7" fill="#F1F1F1" height="64.2969" id="ConcreteCreator" rx="2.5" ry="2.5" style="stroke:#181818;stroke-width:0.5;" width="147" x="188.5" y="192.2969"/><ellipse cx="203.5" cy="208.2969" fill="#ADD1B2" rx="11" ry="11" style="stroke:#181818;stroke-width:1.0;"/><path d="M206.4688,213.9375 Q205.8906,214.2344 205.25,214.375 Q204.6094,214.5313 203.9063,214.5313 Q201.4063,214.5313 200.0781,212.8906 Q198.7656,211.2344 198.7656,208.1094 Q198.7656,204.9844 200.0781,203.3281 Q201.4063,201.6719 203.9063,201.6719 Q204.6094,201.6719 205.25,201.8281 Q205.9063,201.9844 206.4688,202.2813 L206.4688,205 Q205.8438,204.4219 205.25,204.1563 Q204.6563,203.875 204.0313,203.875 Q202.6875,203.875 202,204.9531 Q201.3125,206.0156 201.3125,208.1094 Q201.3125,210.2031 202,211.2813 Q202.6875,212.3438 204.0313,212.3438 Q204.6563,212.3438 205.25,212.0781 Q205.8438,211.7969 206.4688,211.2188 L206.4688,213.9375 Z " fill="#000000"/><text fill="#000000" font-family="sans-serif" font-size="14" lengthAdjust="spacing" textLength="115" x="217.5" y="213.1436">ConcreteCreator</text><line style="stroke:#181818;stroke-width:0.5;" x1="189.5" x2="334.5" y1="224.2969" y2="224.2969"/><line style="stroke:#181818;stroke-width:0.5;" x1="189.5" x2="334.5" y1="232.2969" y2="232.2969"/><text fill="#000000" font-family="sans-serif" font-size="14" lengthAdjust="spacing" textLength="109" x="194.5" y="249.292">factoryMethod()</text></g><!--entity Product--><g id="elem_Product"><rect fill="#F1F1F1" height="36.2969" rx="2.5" ry="2.5" style="stroke:#181818;stroke-width:0.5;" width="74" x="39" y="66.1469"/><text fill="#000000" font-family="sans-serif" font-size="14" lengthAdjust="spacing" textLength="54" x="49" y="89.142">Product</text></g><!--entity ConcreteProduct--><g id="elem_ConcreteProduct"><rect fill="#F1F1F1" height="36.2969" rx="2.5" ry="2.5" style="stroke:#181818;stroke-width:0.5;" width="138" x="7" y="206.1469"/><text fill="#000000" font-family="sans-serif" font-size="14" lengthAdjust="spacing" textLength="118" x="17" y="229.142">ConcreteProduct</text></g><g id="elem_nCreatorFactoryMethod"><path d="M365.5,56.5969 L365.5,99.7969 L323.5,96.2969 L365.5,107.7969 L365.5,111.9953 A0,0 0 0 0 365.5,111.9953 L560.5,111.9953 A0,0 0 0 0 560.5,111.9953 L560.5,66.5969 L550.5,56.5969 L365.5,56.5969 A0,0 0 0 0 365.5,56.5969 " fill="#FEFFDD" style="stroke:#181818;stroke-width:0.5;"/><path d="M550.5,56.5969 L550.5,66.5969 L560.5,66.5969 L550.5,56.5969 " fill="#FEFFDD" style="stroke:#181818;stroke-width:0.5;"/><text fill="#000000" font-family="sans-serif" font-size="13" lengthAdjust="spacing" textLength="12" x="375.5" y="73.6638">...</text><text fill="#000000" font-family="sans-serif" font-size="13" lengthAdjust="spacing" textLength="174" x="371.5" y="88.7966">product = factoryMethod();</text><text fill="#000000" font-family="sans-serif" font-size="13" lengthAdjust="spacing" textLength="12" x="371.5" y="103.9294">...</text></g><g id="elem_nConcreteCreatorFactoryMethod"><path d="M378,211.7269 L378,236.8597 A0,0 0 0 0 378,236.8597 L461.73,236.8597 L336.5,244.2969 L469.73,236.8597 L582,236.8597 A0,0 0 0 0 582,236.8597 L582,221.7269 L572,211.7269 L378,211.7269 A0,0 0 0 0 378,211.7269 " fill="#FEFFDD" style="stroke:#181818;stroke-width:0.5;"/><path d="M572,211.7269 L572,221.7269 L582,221.7269 L572,211.7269 " fill="#FEFFDD" style="stroke:#181818;stroke-width:0.5;"/><text fill="#000000" font-family="sans-serif" font-size="13" lengthAdjust="spacing" textLength="183" x="384" y="228.7938">return new ConcreteProduct;</text></g><!--reverse link Creator to ConcreteCreator--><g id="link_Creator_ConcreteCreator"><path codeLine="16" d="M262,146.2069 C262,165.6669 262,170.3769 262,188.7269 " fill="none" id="Creator-backto-ConcreteCreator" style="stroke:#181818;stroke-width:1.0;"/><polygon fill="none" points="262,128.2069,256,146.2069,268,146.2069,262,128.2069" style="stroke:#181818;stroke-width:1.0;"/></g><!--reverse link Product to ConcreteProduct--><g id="link_Product_ConcreteProduct"><path codeLine="17" d="M76,120.7769 C76,147.3169 76,179.4969 76,205.9569 " fill="none" id="Product-backto-ConcreteProduct" style="stroke:#181818;stroke-width:1.0;"/><polygon fill="none" points="76,102.7769,70,120.7769,82,120.7769,76,102.7769" style="stroke:#181818;stroke-width:1.0;"/></g><!--reverse link ConcreteProduct to ConcreteCreator--><g id="link_ConcreteProduct_ConcreteCreator"><path codeLine="19" d="M151.39,224.2969 C163.23,224.2969 169.07,224.2969 180.92,224.2969 " fill="none" id="ConcreteProduct-backto-ConcreteCreator" style="stroke:#181818;stroke-width:1.0;"/><polygon fill="#181818" points="145.39,224.2969,154.39,228.2969,150.39,224.2969,154.39,220.2969,145.39,224.2969" style="stroke:#181818;stroke-width:1.0;"/></g><!--SRC=[VP1D3e8m48NtSufPwe8U07ys9knCk49JHYIfKrB6g8c75uGY52AhCk_DUryhbLZ2J1jn_eLdagihCDSY1A2jTOzRzQou131MDmsUFEdM6VuS6qz2OUh9YEQo3SozA-v69fFW3GeCIuWfNlhwldsp7QKKNKrUI-MudK9Kjx8uRkxVIRB06whdueydIayiNIGvBetiX50to8Cpcq80TfzIwdkeXyP3JBg3O2Cki4k4rJXK7OKAxvwcivmfovn-oTIATy_8z8Xlj9io_8aPMUQUcEa3]--></g></svg>