<?xml version="1.0" encoding="us-ascii" standalone="no"?><svg xmlns="http://www.w3.org/2000/svg" xmlns:xlink="http://www.w3.org/1999/xlink" contentStyleType="text/css" height="292px" preserveAspectRatio="none" style="width:613px;height:292px;background:#FFFFFF;" version="1.1" viewBox="0 0 613 292" width="613px" zoomAndPan="magnify"><defs/><g><text fill="#000000" font-family="sans-serif" font-size="14" font-weight="bold" lengthAdjust="spacing" textLength="265" x="167.25" y="22.9951">Factory Method Pattern Examples</text><!--class Document--><g id="elem_Document"><rect codeLine="6" fill="#F1F1F1" height="113.1875" id="Document" rx="2.5" ry="2.5" style="stroke:#181818;stroke-width:0.5;" width="105" x="12.5" y="44.2969"/><ellipse cx="27.5" cy="60.2969" fill="#ADD1B2" rx="11" ry="11" style="stroke:#181818;stroke-width:1.0;"/><path d="M30.4688,65.9375 Q29.8906,66.2344 29.25,66.375 Q28.6094,66.5313 27.9063,66.5313 Q25.4063,66.5313 24.0781,64.8906 Q22.7656,63.2344 22.7656,60.1094 Q22.7656,56.9844 24.0781,55.3281 Q25.4063,53.6719 27.9063,53.6719 Q28.6094,53.6719 29.25,53.8281 Q29.9063,53.9844 30.4688,54.2813 L30.4688,57 Q29.8438,56.4219 29.25,56.1563 Q28.6563,55.875 28.0313,55.875 Q26.6875,55.875 26,56.9531 Q25.3125,58.0156 25.3125,60.1094 Q25.3125,62.2031 26,63.2813 Q26.6875,64.3438 28.0313,64.3438 Q28.6563,64.3438 29.25,64.0781 Q29.8438,63.7969 30.4688,63.2188 L30.4688,65.9375 Z " fill="#000000"/><text fill="#000000" font-family="sans-serif" font-size="14" lengthAdjust="spacing" textLength="73" x="41.5" y="65.1436">Document</text><line style="stroke:#181818;stroke-width:0.5;" x1="13.5" x2="116.5" y1="76.2969" y2="76.2969"/><line style="stroke:#181818;stroke-width:0.5;" x1="13.5" x2="116.5" y1="84.2969" y2="84.2969"/><text fill="#000000" font-family="sans-serif" font-size="14" lengthAdjust="spacing" textLength="46" x="18.5" y="101.292">open()</text><text fill="#000000" font-family="sans-serif" font-size="14" lengthAdjust="spacing" textLength="47" x="18.5" y="117.5889">close()</text><text fill="#000000" font-family="sans-serif" font-size="14" lengthAdjust="spacing" textLength="42" x="18.5" y="133.8857">save()</text><text fill="#000000" font-family="sans-serif" font-size="14" lengthAdjust="spacing" textLength="50" x="18.5" y="150.1826">revert()</text></g><!--entity MyDocument--><g id="elem_MyDocument"><rect fill="#F1F1F1" height="36.2969" rx="2.5" ry="2.5" style="stroke:#181818;stroke-width:0.5;" width="112" x="7" y="235.3369"/><text fill="#000000" font-family="sans-serif" font-size="14" lengthAdjust="spacing" textLength="92" x="17" y="258.332">MyDocument</text></g><!--class Application--><g id="elem_Application"><rect codeLine="8" fill="#F1F1F1" height="96.8906" id="Application" rx="2.5" ry="2.5" style="stroke:#181818;stroke-width:0.5;" width="139" x="161.5" y="52.8969"/><ellipse cx="190.9" cy="68.8969" fill="#ADD1B2" rx="11" ry="11" style="stroke:#181818;stroke-width:1.0;"/><path d="M193.8688,74.5375 Q193.2906,74.8344 192.65,74.975 Q192.0094,75.1313 191.3063,75.1313 Q188.8063,75.1313 187.4781,73.4906 Q186.1656,71.8344 186.1656,68.7094 Q186.1656,65.5844 187.4781,63.9281 Q188.8063,62.2719 191.3063,62.2719 Q192.0094,62.2719 192.65,62.4281 Q193.3063,62.5844 193.8688,62.8812 L193.8688,65.6 Q193.2438,65.0219 192.65,64.7563 Q192.0563,64.475 191.4313,64.475 Q190.0875,64.475 189.4,65.5531 Q188.7125,66.6156 188.7125,68.7094 Q188.7125,70.8031 189.4,71.8813 Q190.0875,72.9438 191.4313,72.9438 Q192.0563,72.9438 192.65,72.6781 Q193.2438,72.3969 193.8688,71.8188 L193.8688,74.5375 Z " fill="#000000"/><text fill="#000000" font-family="sans-serif" font-size="14" lengthAdjust="spacing" textLength="75" x="208.1" y="73.7436">Application</text><line style="stroke:#181818;stroke-width:0.5;" x1="162.5" x2="299.5" y1="84.8969" y2="84.8969"/><line style="stroke:#181818;stroke-width:0.5;" x1="162.5" x2="299.5" y1="92.8969" y2="92.8969"/><text fill="#000000" font-family="sans-serif" font-size="14" lengthAdjust="spacing" textLength="127" x="167.5" y="109.892">createDocument()</text><text fill="#000000" font-family="sans-serif" font-size="14" lengthAdjust="spacing" textLength="112" x="167.5" y="126.1889">newDocument()</text><text fill="#000000" font-family="sans-serif" font-size="14" lengthAdjust="spacing" textLength="119" x="167.5" y="142.4857">openDocument()</text></g><!--class MyApplication--><g id="elem_MyApplication"><rect codeLine="9" fill="#F1F1F1" height="64.2969" id="MyApplication" rx="2.5" ry="2.5" style="stroke:#181818;stroke-width:0.5;" width="139" x="162.5" y="221.4869"/><ellipse cx="183.35" cy="237.4869" fill="#ADD1B2" rx="11" ry="11" style="stroke:#181818;stroke-width:1.0;"/><path d="M186.3188,243.1275 Q185.7406,243.4244 185.1,243.565 Q184.4594,243.7213 183.7563,243.7213 Q181.2563,243.7213 179.9281,242.0806 Q178.6156,240.4244 178.6156,237.2994 Q178.6156,234.1744 179.9281,232.5181 Q181.2563,230.8619 183.7563,230.8619 Q184.4594,230.8619 185.1,231.0181 Q185.7563,231.1744 186.3188,231.4713 L186.3188,234.19 Q185.6938,233.6119 185.1,233.3463 Q184.5063,233.065 183.8813,233.065 Q182.5375,233.065 181.85,234.1431 Q181.1625,235.2056 181.1625,237.2994 Q181.1625,239.3931 181.85,240.4713 Q182.5375,241.5338 183.8813,241.5338 Q184.5063,241.5338 185.1,241.2681 Q185.6938,240.9869 186.3188,240.4088 L186.3188,243.1275 Z " fill="#000000"/><text fill="#000000" font-family="sans-serif" font-size="14" lengthAdjust="spacing" textLength="94" x="198.65" y="242.3336">MyApplication</text><line style="stroke:#181818;stroke-width:0.5;" x1="163.5" x2="300.5" y1="253.4869" y2="253.4869"/><line style="stroke:#181818;stroke-width:0.5;" x1="163.5" x2="300.5" y1="261.4869" y2="261.4869"/><text fill="#000000" font-family="sans-serif" font-size="14" lengthAdjust="spacing" textLength="127" x="168.5" y="278.482">createDocument()</text></g><g id="elem_nApplicationNewDocument"><path d="M343.5,73.1969 L343.5,120.5953 L301.5,120.8969 L343.5,128.5953 L343.5,128.5953 A0,0 0 0 0 343.5,128.5953 L606.5,128.5953 A0,0 0 0 0 606.5,128.5953 L606.5,83.1969 L596.5,73.1969 L343.5,73.1969 A0,0 0 0 0 343.5,73.1969 " fill="#FEFFDD" style="stroke:#181818;stroke-width:0.5;"/><path d="M596.5,73.1969 L596.5,83.1969 L606.5,83.1969 L596.5,73.1969 " fill="#FEFFDD" style="stroke:#181818;stroke-width:0.5;"/><text fill="#000000" font-family="sans-serif" font-size="13" lengthAdjust="spacing" textLength="242" x="349.5" y="90.2638">Document* doc = createDocument();</text><text fill="#000000" font-family="sans-serif" font-size="13" lengthAdjust="spacing" textLength="95" x="349.5" y="105.3966">docs.add(doc);</text><text fill="#000000" font-family="sans-serif" font-size="13" lengthAdjust="spacing" textLength="85" x="349.5" y="120.5294">doc-&gt;open();</text></g><g id="elem_nMyApplicationCreateDocument"><path d="M345,240.9169 L345,266.0497 A0,0 0 0 0 345,266.0497 L418.67,266.0497 L302.5,273.4869 L426.67,266.0497 L527,266.0497 A0,0 0 0 0 527,266.0497 L527,250.9169 L517,240.9169 L345,240.9169 A0,0 0 0 0 345,240.9169 " fill="#FEFFDD" style="stroke:#181818;stroke-width:0.5;"/><path d="M517,240.9169 L517,250.9169 L527,250.9169 L517,240.9169 " fill="#FEFFDD" style="stroke:#181818;stroke-width:0.5;"/><text fill="#000000" font-family="sans-serif" font-size="13" lengthAdjust="spacing" textLength="161" x="351" y="257.9838">return new MyDocument;</text></g><!--reverse link Application to MyApplication--><g id="link_Application_MyApplication"><path codeLine="22" d="M231.4581,170.8765 C231.5981,192.2065 231.64,198.4569 231.77,217.6869 " fill="none" id="Application-backto-MyApplication" style="stroke:#181818;stroke-width:1.0;"/><polygon fill="none" points="231.34,152.8769,225.4583,170.9159,237.458,170.8371,231.34,152.8769" style="stroke:#181818;stroke-width:1.0;"/></g><!--reverse link Document to MyDocument--><g id="link_Document_MyDocument"><path codeLine="23" d="M64.0157,175.9652 C63.6457,203.2252 63.48,216.0969 63.23,234.9169 " fill="none" id="Document-backto-MyDocument" style="stroke:#181818;stroke-width:1.0;"/><polygon fill="none" points="64.26,157.9669,58.0163,175.8838,70.0152,176.0466,64.26,157.9669" style="stroke:#181818;stroke-width:1.0;"/></g><!--link Document to Application--><g id="link_Document_Application"><path codeLine="25" d="M123.85,100.8969 C135.78,100.8969 129.72,100.8969 141.65,100.8969 " fill="none" id="Document-Application" style="stroke:#181818;stroke-width:1.0;"/><polygon fill="#181818" points="117.85,100.8969,126.85,104.8969,122.85,100.8969,126.85,96.8969,117.85,100.8969" style="stroke:#181818;stroke-width:1.0;"/><polygon fill="none" points="153.65,100.8969,147.65,96.8969,141.65,100.8969,147.65,104.8969,153.65,100.8969" style="stroke:#181818;stroke-width:1.0;"/><text fill="#000000" font-family="sans-serif" font-size="13" lengthAdjust="spacing" textLength="30" x="123.4877" y="97.5772">docs</text></g><!--SRC=[VL99RiCm3Bpp5KHEQG7x0KeReEXoSv4l43AR6f0bGs8M0tbyvIIsfRIfJ_BCa1oEHCQuGziS6xi5a4OCumTfSRx7YkNRrRWX4VOMtu_KTeO3W3OK0huvlMlP2dZMGdORAwj-0Y-QbwupZIPfdBqYLPzYCEfHeUlOBXzIH1iNE8S2xMyGptls4Z586W_5dabu54O-foqVxdA3auI4pFDVhRFwfrDHtAmvsRroKqfPuQ9sEYpG5OQ_f5ZF0ODrmaW1RIB_d1S0ZD_uyuYn3Jx_ChawguOH9TNrCXvcg5XVmby1sng7QN1d59Q3kJAzMAMIB1ElMGIlcPlpNC-oYyyg5YU9f0x-QJ3Qo2HAvJl33m00]--></g></svg>