<svg xmlns="http://www.w3.org/2000/svg" xmlns:xlink="http://www.w3.org/1999/xlink" contentStyleType="text/css" height="761px" preserveAspectRatio="none" style="width:445px;height:761px;background:#FFFFFF;" version="1.1" viewBox="0 0 445 761" width="445px" zoomAndPan="magnify"><defs/><g><text fill="#000000" font-family="sans-serif" font-size="14" font-weight="bold" lengthAdjust="spacing" textLength="294.7109" x="68.2776" y="22.9951">Prototype Pattern Music Score Editor</text><!--class Graphic--><g id="elem_Graphic"><rect codeLine="7" fill="#F1F1F1" height="80.5938" id="Graphic" rx="2.5" ry="2.5" style="stroke:#181818;stroke-width:0.5;" width="114.498" x="79" y="300.5969"/><ellipse cx="106.5855" cy="316.5969" fill="#ADD1B2" rx="11" ry="11" style="stroke:#181818;stroke-width:1.0;"/><path d="M109.5542,322.2375 Q108.9761,322.5344 108.3355,322.675 Q107.6949,322.8313 106.9917,322.8313 Q104.4917,322.8313 103.1636,321.1906 Q101.8511,319.5344 101.8511,316.4094 Q101.8511,313.2844 103.1636,311.6281 Q104.4917,309.9719 106.9917,309.9719 Q107.6949,309.9719 108.3355,310.1281 Q108.9917,310.2844 109.5542,310.5813 L109.5542,313.3 Q108.9292,312.7219 108.3355,312.4563 Q107.7417,312.175 107.1167,312.175 Q105.773,312.175 105.0855,313.2531 Q104.398,314.3156 104.398,316.4094 Q104.398,318.5031 105.0855,319.5813 Q105.773,320.6438 107.1167,320.6438 Q107.7417,320.6438 108.3355,320.3781 Q108.9292,320.0969 109.5542,319.5188 L109.5542,322.2375 Z " fill="#000000"/><text fill="#000000" font-family="sans-serif" font-size="14" lengthAdjust="spacing" textLength="54.5303" x="123.3823" y="321.4436">Graphic</text><line style="stroke:#181818;stroke-width:0.5;" x1="80" x2="192.498" y1="332.5969" y2="332.5969"/><line style="stroke:#181818;stroke-width:0.5;" x1="80" x2="192.498" y1="340.5969" y2="340.5969"/><text fill="#000000" font-family="sans-serif" font-size="14" lengthAdjust="spacing" textLength="102.498" x="85" y="357.592">Draw(Position)</text><text fill="#000000" font-family="sans-serif" font-size="14" lengthAdjust="spacing" textLength="50.6406" x="85" y="373.8889">Clone()</text></g><!--class Staff--><g id="elem_Staff"><rect codeLine="8" fill="#F1F1F1" height="80.5938" id="Staff" rx="2.5" ry="2.5" style="stroke:#181818;stroke-width:0.5;" width="114.498" x="7" y="441.1869"/><ellipse cx="44.3585" cy="457.1869" fill="#ADD1B2" rx="11" ry="11" style="stroke:#181818;stroke-width:1.0;"/><path d="M47.3272,462.8275 Q46.7491,463.1244 46.1085,463.265 Q45.4679,463.4213 44.7647,463.4213 Q42.2647,463.4213 40.9366,461.7806 Q39.6241,460.1244 39.6241,456.9994 Q39.6241,453.8744 40.9366,452.2181 Q42.2647,450.5619 44.7647,450.5619 Q45.4679,450.5619 46.1085,450.7181 Q46.7647,450.8744 47.3272,451.1713 L47.3272,453.89 Q46.7022,453.3119 46.1085,453.0463 Q45.5147,452.765 44.8897,452.765 Q43.546,452.765 42.8585,453.8431 Q42.171,454.9056 42.171,456.9994 Q42.171,459.0931 42.8585,460.1713 Q43.546,461.2338 44.8897,461.2338 Q45.5147,461.2338 46.1085,460.9681 Q46.7022,460.6869 47.3272,460.1088 L47.3272,462.8275 Z " fill="#000000"/><text fill="#000000" font-family="sans-serif" font-size="14" lengthAdjust="spacing" textLength="32.8125" x="63.3271" y="462.0336">Staff</text><line style="stroke:#181818;stroke-width:0.5;" x1="8" x2="120.498" y1="473.1869" y2="473.1869"/><line style="stroke:#181818;stroke-width:0.5;" x1="8" x2="120.498" y1="481.1869" y2="481.1869"/><text fill="#000000" font-family="sans-serif" font-size="14" lengthAdjust="spacing" textLength="102.498" x="13" y="498.182">Draw(Position)</text><text fill="#000000" font-family="sans-serif" font-size="14" lengthAdjust="spacing" textLength="50.6406" x="13" y="514.4789">Clone()</text></g><!--entity MusicalNote--><g id="elem_MusicalNote"><rect fill="#F1F1F1" height="36.2969" rx="2.5" ry="2.5" style="stroke:#181818;stroke-width:0.5;" width="105.4424" x="156.53" y="463.3369"/><text fill="#000000" font-family="sans-serif" font-size="14" lengthAdjust="spacing" textLength="85.4424" x="166.53" y="486.332">MusicalNote</text></g><!--class WholeNote--><g id="elem_WholeNote"><rect codeLine="10" fill="#F1F1F1" height="80.5938" id="WholeNote" rx="2.5" ry="2.5" style="stroke:#181818;stroke-width:0.5;" width="114.498" x="234.25" y="585.7869"/><ellipse cx="251.758" cy="601.7869" fill="#ADD1B2" rx="11" ry="11" style="stroke:#181818;stroke-width:1.0;"/><path d="M254.7267,607.4275 Q254.1486,607.7244 253.508,607.865 Q252.8673,608.0213 252.1642,608.0213 Q249.6642,608.0213 248.3361,606.3806 Q247.0236,604.7244 247.0236,601.5994 Q247.0236,598.4744 248.3361,596.8181 Q249.6642,595.1619 252.1642,595.1619 Q252.8673,595.1619 253.508,595.3181 Q254.1642,595.4744 254.7267,595.7713 L254.7267,598.49 Q254.1017,597.9119 253.508,597.6463 Q252.9142,597.365 252.2892,597.365 Q250.9455,597.365 250.258,598.4431 Q249.5705,599.5056 249.5705,601.5994 Q249.5705,603.6931 250.258,604.7713 Q250.9455,605.8338 252.2892,605.8338 Q252.9142,605.8338 253.508,605.5681 Q254.1017,605.2869 254.7267,604.7088 L254.7267,607.4275 Z " fill="#000000"/><text fill="#000000" font-family="sans-serif" font-size="14" lengthAdjust="spacing" textLength="76.9248" x="266.3153" y="606.6336">WholeNote</text><line style="stroke:#181818;stroke-width:0.5;" x1="235.25" x2="347.748" y1="617.7869" y2="617.7869"/><line style="stroke:#181818;stroke-width:0.5;" x1="235.25" x2="347.748" y1="625.7869" y2="625.7869"/><text fill="#000000" font-family="sans-serif" font-size="14" lengthAdjust="spacing" textLength="102.498" x="240.25" y="642.782">Draw(Position)</text><text fill="#000000" font-family="sans-serif" font-size="14" lengthAdjust="spacing" textLength="50.6406" x="240.25" y="659.0789">Clone()</text></g><!--class HalfNote--><g id="elem_HalfNote"><rect codeLine="11" fill="#F1F1F1" height="80.5938" id="HalfNote" rx="2.5" ry="2.5" style="stroke:#181818;stroke-width:0.5;" width="114.498" x="69.25" y="585.7869"/><ellipse cx="93.8947" cy="601.7869" fill="#ADD1B2" rx="11" ry="11" style="stroke:#181818;stroke-width:1.0;"/><path d="M96.8634,607.4275 Q96.2853,607.7244 95.6447,607.865 Q95.0041,608.0213 94.3009,608.0213 Q91.8009,608.0213 90.4728,606.3806 Q89.1603,604.7244 89.1603,601.5994 Q89.1603,598.4744 90.4728,596.8181 Q91.8009,595.1619 94.3009,595.1619 Q95.0041,595.1619 95.6447,595.3181 Q96.3009,595.4744 96.8634,595.7713 L96.8634,598.49 Q96.2384,597.9119 95.6447,597.6463 Q95.0509,597.365 94.4259,597.365 Q93.0822,597.365 92.3947,598.4431 Q91.7072,599.5056 91.7072,601.5994 Q91.7072,603.6931 92.3947,604.7713 Q93.0822,605.8338 94.4259,605.8338 Q95.0509,605.8338 95.6447,605.5681 Q96.2384,605.2869 96.8634,604.7088 L96.8634,607.4275 Z " fill="#000000"/><text fill="#000000" font-family="sans-serif" font-size="14" lengthAdjust="spacing" textLength="61.0654" x="110.0379" y="606.6336">HalfNote</text><line style="stroke:#181818;stroke-width:0.5;" x1="70.25" x2="182.748" y1="617.7869" y2="617.7869"/><line style="stroke:#181818;stroke-width:0.5;" x1="70.25" x2="182.748" y1="625.7869" y2="625.7869"/><text fill="#000000" font-family="sans-serif" font-size="14" lengthAdjust="spacing" textLength="102.498" x="75.25" y="642.782">Draw(Position)</text><text fill="#000000" font-family="sans-serif" font-size="14" lengthAdjust="spacing" textLength="50.6406" x="75.25" y="659.0789">Clone()</text></g><!--class Tool--><g id="elem_Tool"><rect codeLine="13" fill="#F1F1F1" height="64.2969" id="Tool" rx="2.5" ry="2.5" style="stroke:#181818;stroke-width:0.5;" width="100.6758" x="255.91" y="44.2969"/><ellipse cx="288.5066" cy="60.2969" fill="#ADD1B2" rx="11" ry="11" style="stroke:#181818;stroke-width:1.0;"/><path d="M291.4753,65.9375 Q290.8972,66.2344 290.2566,66.375 Q289.616,66.5313 288.9128,66.5313 Q286.4128,66.5313 285.0847,64.8906 Q283.7722,63.2344 283.7722,60.1094 Q283.7722,56.9844 285.0847,55.3281 Q286.4128,53.6719 288.9128,53.6719 Q289.616,53.6719 290.2566,53.8281 Q290.9128,53.9844 291.4753,54.2813 L291.4753,57 Q290.8503,56.4219 290.2566,56.1563 Q289.6628,55.875 289.0378,55.875 Q287.6941,55.875 287.0066,56.9531 Q286.3191,58.0156 286.3191,60.1094 Q286.3191,62.2031 287.0066,63.2813 Q287.6941,64.3438 289.0378,64.3438 Q289.6628,64.3438 290.2566,64.0781 Q290.8503,63.7969 291.4753,63.2188 L291.4753,65.9375 Z " fill="#000000"/><text fill="#000000" font-family="sans-serif" font-size="14" lengthAdjust="spacing" textLength="29.5723" x="306.4169" y="65.1436">Tool</text><line style="stroke:#181818;stroke-width:0.5;" x1="256.91" x2="355.5858" y1="76.2969" y2="76.2969"/><line style="stroke:#181818;stroke-width:0.5;" x1="256.91" x2="355.5858" y1="84.2969" y2="84.2969"/><text fill="#000000" font-family="sans-serif" font-size="14" lengthAdjust="spacing" textLength="88.6758" x="261.91" y="101.292">Manipulate()</text></g><!--class RotateTool--><g id="elem_RotateTool"><rect codeLine="14" fill="#F1F1F1" height="64.2969" id="RotateTool" rx="2.5" ry="2.5" style="stroke:#181818;stroke-width:0.5;" width="108.0361" x="330.23" y="172.4469"/><ellipse cx="345.23" cy="188.4469" fill="#ADD1B2" rx="11" ry="11" style="stroke:#181818;stroke-width:1.0;"/><path d="M348.1988,194.0875 Q347.6206,194.3844 346.98,194.525 Q346.3394,194.6812 345.6363,194.6812 Q343.1363,194.6812 341.8081,193.0406 Q340.4956,191.3844 340.4956,188.2594 Q340.4956,185.1344 341.8081,183.4781 Q343.1363,181.8219 345.6363,181.8219 Q346.3394,181.8219 346.98,181.9781 Q347.6363,182.1344 348.1988,182.4312 L348.1988,185.15 Q347.5738,184.5719 346.98,184.3062 Q346.3863,184.025 345.7613,184.025 Q344.4175,184.025 343.73,185.1031 Q343.0425,186.1656 343.0425,188.2594 Q343.0425,190.3531 343.73,191.4312 Q344.4175,192.4937 345.7613,192.4937 Q346.3863,192.4937 346.98,192.2281 Q347.5738,191.9469 348.1988,191.3687 L348.1988,194.0875 Z " fill="#000000"/><text fill="#000000" font-family="sans-serif" font-size="14" lengthAdjust="spacing" textLength="76.0361" x="359.23" y="193.2936">RotateTool</text><line style="stroke:#181818;stroke-width:0.5;" x1="331.23" x2="437.2661" y1="204.4469" y2="204.4469"/><line style="stroke:#181818;stroke-width:0.5;" x1="331.23" x2="437.2661" y1="212.4469" y2="212.4469"/><text fill="#000000" font-family="sans-serif" font-size="14" lengthAdjust="spacing" textLength="88.6758" x="336.23" y="229.442">Manipulate()</text></g><!--class GraphicTool--><g id="elem_GraphicTool"><rect codeLine="15" fill="#F1F1F1" height="64.2969" id="GraphicTool" rx="2.5" ry="2.5" style="stroke:#181818;stroke-width:0.5;" width="116.1025" x="171.25" y="172.5969"/><ellipse cx="186.25" cy="188.5969" fill="#ADD1B2" rx="11" ry="11" style="stroke:#181818;stroke-width:1.0;"/><path d="M189.2188,194.2375 Q188.6406,194.5344 188,194.675 Q187.3594,194.8312 186.6563,194.8312 Q184.1563,194.8312 182.8281,193.1906 Q181.5156,191.5344 181.5156,188.4094 Q181.5156,185.2844 182.8281,183.6281 Q184.1563,181.9719 186.6563,181.9719 Q187.3594,181.9719 188,182.1281 Q188.6563,182.2844 189.2188,182.5812 L189.2188,185.3 Q188.5938,184.7219 188,184.4562 Q187.4063,184.175 186.7813,184.175 Q185.4375,184.175 184.75,185.2531 Q184.0625,186.3156 184.0625,188.4094 Q184.0625,190.5031 184.75,191.5812 Q185.4375,192.6437 186.7813,192.6437 Q187.4063,192.6437 188,192.3781 Q188.5938,192.0969 189.2188,191.5187 L189.2188,194.2375 Z " fill="#000000"/><text fill="#000000" font-family="sans-serif" font-size="14" lengthAdjust="spacing" textLength="84.1025" x="200.25" y="193.4436">GraphicTool</text><line style="stroke:#181818;stroke-width:0.5;" x1="172.25" x2="286.3525" y1="204.5969" y2="204.5969"/><line style="stroke:#181818;stroke-width:0.5;" x1="172.25" x2="286.3525" y1="212.5969" y2="212.5969"/><text fill="#000000" font-family="sans-serif" font-size="14" lengthAdjust="spacing" textLength="88.6758" x="177.25" y="229.592">Manipulate()</text></g><g id="elem_nWholeNoteClone"><path d="M138.15,729.7869 L138.15,754.9197 L278.3463,754.9197 L278.3463,739.7869 L268.3463,729.7869 L138.15,729.7869 " fill="#FEFFDD" style="stroke:#181818;stroke-width:0.5;"/><path d="M268.3463,729.7869 L268.3463,739.7869 L278.3463,739.7869 L268.3463,729.7869 " fill="#FEFFDD" style="stroke:#181818;stroke-width:1.0;"/><text fill="#000000" font-family="sans-serif" font-size="13" lengthAdjust="spacing" textLength="119.1963" x="144.15" y="746.8538">return copy of self</text></g><g id="elem_nGraphicToolManipulate"><path d="M228.48,305.6269 L228.48,376.1581 A0,0 0 0 0 228.48,376.1581 L416.0235,376.1581 A0,0 0 0 0 416.0235,376.1581 L416.0235,315.6269 L406.0235,305.6269 L265.86,305.6269 L261.86,232.5869 L257.86,305.6269 L228.48,305.6269 A0,0 0 0 0 228.48,305.6269 " fill="#FEFFDD" style="stroke:#181818;stroke-width:0.5;"/><path d="M406.0235,305.6269 L406.0235,315.6269 L416.0235,315.6269 L406.0235,305.6269 " fill="#FEFFDD" style="stroke:#181818;stroke-width:0.5;"/><text fill="#000000" font-family="sans-serif" font-size="13" lengthAdjust="spacing" textLength="153.6577" x="234.48" y="322.6938">p = prototype-&gt;Clone()</text><text fill="#000000" font-family="sans-serif" font-size="13" lengthAdjust="spacing" textLength="161.0718" x="234.48" y="337.8266">while(user drags mouse)</text><text fill="#000000" font-family="sans-serif" font-size="13" lengthAdjust="spacing" textLength="150.0142" x="251.0093" y="352.9594">p-&gt;Draw(new Position)</text><text fill="#000000" font-family="sans-serif" font-size="13" lengthAdjust="spacing" textLength="134.9131" x="234.48" y="368.0922">insert p into drawing</text></g><!--reverse link Graphic to MusicalNote--><g id="link_Graphic_MusicalNote"><path codeLine="33" d="M175.01,399.5569 C175.01,426.4869 175.01,442.5069 175.01,463.1069 " fill="none" id="Graphic-backto-MusicalNote" style="stroke:#181818;stroke-width:1.0;"/><polygon fill="none" points="175.01,381.5569,169.01,399.5569,181.01,399.5569,175.01,381.5569" style="stroke:#181818;stroke-width:1.0;"/></g><!--reverse link Graphic to Staff--><g id="link_Graphic_Staff"><path codeLine="34" d="M100.25,399.5569 C100.25,418.2069 100.25,422.2669 100.25,440.9169 " fill="none" id="Graphic-backto-Staff" style="stroke:#181818;stroke-width:1.0;"/><polygon fill="none" points="100.25,381.5569,94.25,399.5569,106.25,399.5569,100.25,381.5569" style="stroke:#181818;stroke-width:1.0;"/></g><!--reverse link MusicalNote to WholeNote--><g id="link_MusicalNote_WholeNote"><path codeLine="36" d="M244.11,518.0569 C244.11,538.6069 244.11,554.4469 244.11,581.8469 " fill="none" id="MusicalNote-backto-WholeNote" style="stroke:#181818;stroke-width:1.0;"/><polygon fill="none" points="244.11,500.0569,238.11,518.0569,250.11,518.0569,244.11,500.0569" style="stroke:#181818;stroke-width:1.0;"/></g><!--reverse link MusicalNote to HalfNote--><g id="link_MusicalNote_HalfNote"><path codeLine="37" d="M173.89,518.0569 C173.89,538.6069 173.89,554.4469 173.89,581.8469 " fill="none" id="MusicalNote-backto-HalfNote" style="stroke:#181818;stroke-width:1.0;"/><polygon fill="none" points="173.89,500.0569,167.89,518.0569,179.89,518.0569,173.89,500.0569" style="stroke:#181818;stroke-width:1.0;"/></g><!--reverse link Tool to GraphicTool--><g id="link_Tool_GraphicTool"><path codeLine="39" d="M275.58,126.7869 C275.58,145.0269 275.58,149.8569 275.58,168.6569 " fill="none" id="Tool-backto-GraphicTool" style="stroke:#181818;stroke-width:1.0;"/><polygon fill="none" points="275.58,108.7869,269.58,126.7869,281.58,126.7869,275.58,108.7869" style="stroke:#181818;stroke-width:1.0;"/></g><!--reverse link Tool to RotateTool--><g id="link_Tool_RotateTool"><path codeLine="40" d="M343.41,126.7869 C343.41,146.2069 343.41,152.8469 343.41,172.2669 " fill="none" id="Tool-backto-RotateTool" style="stroke:#181818;stroke-width:1.0;"/><polygon fill="none" points="343.41,108.7869,337.41,126.7869,349.41,126.7869,343.41,108.7869" style="stroke:#181818;stroke-width:1.0;"/></g><!--link GraphicTool to Graphic--><g id="link_GraphicTool_Graphic"><path codeLine="42" d="M178.37,252.4069 C178.37,270.8669 178.37,275.4369 178.37,294.5169 " fill="none" id="GraphicTool-Graphic" style="stroke:#181818;stroke-width:1.0;"/><polygon fill="none" points="178.37,240.4069,174.37,246.4069,178.37,252.4069,182.37,246.4069,178.37,240.4069" style="stroke:#181818;stroke-width:1.0;"/><polygon fill="#181818" points="178.37,300.5169,182.37,291.5169,178.37,295.5169,174.37,291.5169,178.37,300.5169" style="stroke:#181818;stroke-width:1.0;"/><text fill="#000000" font-family="sans-serif" font-size="13" lengthAdjust="spacing" textLength="63.6416" x="106.9024" y="256.9317">prototype</text></g><!--link WholeNote to nWholeNoteClone--><g id="link_WholeNote_nWholeNoteClone"><path codeLine="47" d="M252.3,661.6469 C252.3,676.9669 252.3,710.9669 252.3,729.5769 " fill="none" id="WholeNote-nWholeNoteClone" style="stroke:#181818;stroke-width:1.0;stroke-dasharray:7.0,7.0;"/></g><!--link HalfNote to nWholeNoteClone--><g id="link_HalfNote_nWholeNoteClone"><path codeLine="48" d="M164.7,661.6469 C164.7,676.9669 164.7,710.9669 164.7,729.5769 " fill="none" id="HalfNote-nWholeNoteClone" style="stroke:#181818;stroke-width:1.0;stroke-dasharray:7.0,7.0;"/></g><!--SRC=[RLF1JiCm3BtdAwoTkaFvW0fs0GINeOaXSOuwTul8uYXnLIRnyRHfcsJhTghzdkFtR4zgJTrP_Ifp5Fv76IkTF8DM1lbY4SZnYOHWnHfXvuWff7UI6Ps1RUjL3VkQ7CBhGJ4v8MejlOSt9-r9rLEqPzaqmc7DqXpxbqATr1_4E36-JwGnYz-bRa8unLz4Ulhy99QCMMBg5J9Y2g225oUxOaTUiIAppe1dJGQBjH11rf8vfoClYbjoSoZoP_5BUeP4zg2xZxVIADlgtbeHnTw3alrR95fy_2lBgnbV0UCoH8QF-RI21PIs4Vg6N3xrbCsMSsLYPUVZMG6LvIOUY3135-d1nFvXCWBwdqDk-pEhoLw06l2e6u7c04EDk2c0XzO-91DLDJvpbpNxcKb9HAOvpJPeiV04qKIvcTStGDr9QInQZmuEJXuzdAaFHYoKbfjm1mOxIBSm8ChqHTo_hGpJKDmDVyHayQwSqKC6LLMcLVm3]--></g></svg>