<svg xmlns="http://www.w3.org/2000/svg" xmlns:xlink="http://www.w3.org/1999/xlink" contentStyleType="text/css" height="920px" preserveAspectRatio="none" style="width:1066px;height:920px;background:#FFFFFF;" version="1.1" viewBox="0 0 1066 920" width="1066px" zoomAndPan="magnify"><defs/><g><text fill="#000000" font-family="sans-serif" font-size="14" font-weight="bold" lengthAdjust="spacing" textLength="250.3525" x="401.0426" y="22.9951">Prototype Pattern Sample Code</text><!--entity AbstractMazeFactory--><g id="elem_AbstractMazeFactory"><rect fill="#F1F1F1" height="36.2969" rx="2.5" ry="2.5" style="stroke:#181818;stroke-width:0.5;" width="167.8135" x="7" y="421.8869"/><text fill="#000000" font-family="sans-serif" font-size="14" lengthAdjust="spacing" textLength="147.8135" x="17" y="444.882">AbstractMazeFactory</text></g><!--entity MazeFactory--><g id="elem_MazeFactory"><rect fill="#F1F1F1" height="36.2969" rx="2.5" ry="2.5" style="stroke:#181818;stroke-width:0.5;" width="109.0449" x="312.8" y="421.8869"/><text fill="#000000" font-family="sans-serif" font-size="14" lengthAdjust="spacing" textLength="89.0449" x="322.8" y="444.882">MazeFactory</text></g><!--entity BombMazeFactory--><g id="elem_BombMazeFactory"><rect fill="#F1F1F1" height="36.2969" rx="2.5" ry="2.5" style="stroke:#181818;stroke-width:0.5;" width="149.7393" x="292.45" y="492.8869"/><text fill="#000000" font-family="sans-serif" font-size="14" lengthAdjust="spacing" textLength="129.7393" x="302.45" y="515.882">BombMazeFactory</text></g><!--class MazePrototypeFactory--><g id="elem_MazePrototypeFactory"><rect codeLine="11" fill="#F1F1F1" height="178.375" id="MazePrototypeFactory" rx="2.5" ry="2.5" style="stroke:#181818;stroke-width:0.5;" width="189.1465" x="272.82" y="114.0369"/><ellipse cx="287.824" cy="130.0369" fill="#ADD1B2" rx="11" ry="11" style="stroke:#181818;stroke-width:1.0;"/><path d="M290.7927,135.6775 Q290.2146,135.9744 289.574,136.115 Q288.9333,136.2713 288.2302,136.2713 Q285.7302,136.2713 284.4021,134.6306 Q283.0896,132.9744 283.0896,129.8494 Q283.0896,126.7244 284.4021,125.0681 Q285.7302,123.4119 288.2302,123.4119 Q288.9333,123.4119 289.574,123.5681 Q290.2302,123.7244 290.7927,124.0213 L290.7927,126.74 Q290.1677,126.1619 289.574,125.8963 Q288.9802,125.615 288.3552,125.615 Q287.0115,125.615 286.324,126.6931 Q285.6365,127.7556 285.6365,129.8494 Q285.6365,131.9431 286.324,133.0213 Q287.0115,134.0838 288.3552,134.0838 Q288.9802,134.0838 289.574,133.8181 Q290.1677,133.5369 290.7927,132.9588 L290.7927,135.6775 Z " fill="#000000"/><text fill="#000000" font-family="sans-serif" font-size="14" lengthAdjust="spacing" textLength="157.1377" x="301.8248" y="134.8836">MazePrototypeFactory</text><line style="stroke:#181818;stroke-width:0.5;" x1="273.82" x2="460.9665" y1="146.0369" y2="146.0369"/><rect fill="none" height="6" style="stroke:#C82930;stroke-width:1.0;" width="6" x="280.82" y="156.6853"/><text fill="#000000" font-family="sans-serif" font-size="14" lengthAdjust="spacing" textLength="155.3945" x="292.82" y="163.032">prototypeMaze : Maze</text><rect fill="none" height="6" style="stroke:#C82930;stroke-width:1.0;" width="6" x="280.82" y="172.9822"/><text fill="#000000" font-family="sans-serif" font-size="14" lengthAdjust="spacing" textLength="163.1465" x="292.82" y="179.3289">prototypeRoom : Room</text><rect fill="none" height="6" style="stroke:#C82930;stroke-width:1.0;" width="6" x="280.82" y="189.2791"/><text fill="#000000" font-family="sans-serif" font-size="14" lengthAdjust="spacing" textLength="142.5566" x="292.82" y="195.6257">prototypeWall : Wall</text><rect fill="none" height="6" style="stroke:#C82930;stroke-width:1.0;" width="6" x="280.82" y="205.5759"/><text fill="#000000" font-family="sans-serif" font-size="14" lengthAdjust="spacing" textLength="149.4883" x="292.82" y="211.9226">prototypeDoor : Door</text><line style="stroke:#181818;stroke-width:0.5;" x1="273.82" x2="460.9665" y1="219.2244" y2="219.2244"/><ellipse cx="283.82" cy="232.8728" fill="#84BE84" rx="3" ry="3" style="stroke:#038048;stroke-width:1.0;"/><text fill="#000000" font-family="sans-serif" font-size="14" lengthAdjust="spacing" textLength="136.7188" x="292.82" y="236.2195">makeMaze() : Maze</text><ellipse cx="283.82" cy="249.1697" fill="#84BE84" rx="3" ry="3" style="stroke:#038048;stroke-width:1.0;"/><text fill="#000000" font-family="sans-serif" font-size="14" lengthAdjust="spacing" textLength="144.4707" x="292.82" y="252.5164">makeRoom() : Room</text><ellipse cx="283.82" cy="265.4666" fill="#84BE84" rx="3" ry="3" style="stroke:#038048;stroke-width:1.0;"/><text fill="#000000" font-family="sans-serif" font-size="14" lengthAdjust="spacing" textLength="123.8809" x="292.82" y="268.8132">makeWall() : Wall</text><ellipse cx="283.82" cy="281.7634" fill="#84BE84" rx="3" ry="3" style="stroke:#038048;stroke-width:1.0;"/><text fill="#000000" font-family="sans-serif" font-size="14" lengthAdjust="spacing" textLength="130.8125" x="292.82" y="285.1101">makeDoor() : Door</text></g><!--class MapSite--><g id="elem_MapSite"><rect codeLine="13" fill="#F1F1F1" height="64.2969" id="MapSite" rx="2.5" ry="2.5" style="stroke:#181818;stroke-width:0.5;" width="124.7998" x="28.51" y="704.8869"/><ellipse cx="59.8792" cy="720.8869" fill="#ADD1B2" rx="11" ry="11" style="stroke:#181818;stroke-width:1.0;"/><path d="M62.8479,726.5275 Q62.2698,726.8244 61.6292,726.965 Q60.9886,727.1212 60.2854,727.1212 Q57.7854,727.1212 56.4573,725.4806 Q55.1448,723.8244 55.1448,720.6994 Q55.1448,717.5744 56.4573,715.9181 Q57.7854,714.2619 60.2854,714.2619 Q60.9886,714.2619 61.6292,714.4181 Q62.2854,714.5744 62.8479,714.8712 L62.8479,717.59 Q62.2229,717.0119 61.6292,716.7462 Q61.0354,716.465 60.4104,716.465 Q59.0667,716.465 58.3792,717.5431 Q57.6917,718.6056 57.6917,720.6994 Q57.6917,722.7931 58.3792,723.8712 Q59.0667,724.9337 60.4104,724.9337 Q61.0354,724.9337 61.6292,724.6681 Q62.2229,724.3869 62.8479,723.8087 L62.8479,726.5275 Z " fill="#000000"/><text fill="#000000" font-family="sans-serif" font-size="14" lengthAdjust="spacing" textLength="56.4238" x="77.5168" y="725.7336">MapSite</text><line style="stroke:#181818;stroke-width:0.5;" x1="29.51" x2="152.3098" y1="736.8869" y2="736.8869"/><line style="stroke:#181818;stroke-width:0.5;" x1="29.51" x2="152.3098" y1="744.8869" y2="744.8869"/><ellipse cx="39.51" cy="758.5353" fill="#84BE84" rx="3" ry="3" style="stroke:#038048;stroke-width:1.0;"/><text fill="#000000" font-family="sans-serif" font-size="14" lengthAdjust="spacing" textLength="98.7998" x="48.51" y="761.882">clone() : Maze</text></g><!--class Maze--><g id="elem_Maze"><rect codeLine="14" fill="#F1F1F1" height="64.2969" id="Maze" rx="2.5" ry="2.5" style="stroke:#181818;stroke-width:0.5;" width="124.7998" x="304.92" y="662.8869"/><ellipse cx="345.2009" cy="678.8869" fill="#ADD1B2" rx="11" ry="11" style="stroke:#181818;stroke-width:1.0;"/><path d="M348.1696,684.5275 Q347.5915,684.8244 346.9509,684.965 Q346.3102,685.1212 345.6071,685.1212 Q343.1071,685.1212 341.779,683.4806 Q340.4665,681.8244 340.4665,678.6994 Q340.4665,675.5744 341.779,673.9181 Q343.1071,672.2619 345.6071,672.2619 Q346.3102,672.2619 346.9509,672.4181 Q347.6071,672.5744 348.1696,672.8712 L348.1696,675.59 Q347.5446,675.0119 346.9509,674.7462 Q346.3571,674.465 345.7321,674.465 Q344.3884,674.465 343.7009,675.5431 Q343.0134,676.6056 343.0134,678.6994 Q343.0134,680.7931 343.7009,681.8712 Q344.3884,682.9337 345.7321,682.9337 Q346.3571,682.9337 346.9509,682.6681 Q347.5446,682.3869 348.1696,681.8087 L348.1696,684.5275 Z " fill="#000000"/><text fill="#000000" font-family="sans-serif" font-size="14" lengthAdjust="spacing" textLength="36.6201" x="364.8188" y="683.7336">Maze</text><line style="stroke:#181818;stroke-width:0.5;" x1="305.92" x2="428.7198" y1="694.8869" y2="694.8869"/><line style="stroke:#181818;stroke-width:0.5;" x1="305.92" x2="428.7198" y1="702.8869" y2="702.8869"/><ellipse cx="315.92" cy="716.5353" fill="#84BE84" rx="3" ry="3" style="stroke:#038048;stroke-width:1.0;"/><text fill="#000000" font-family="sans-serif" font-size="14" lengthAdjust="spacing" textLength="98.7998" x="324.92" y="719.882">clone() : Maze</text></g><!--class Room--><g id="elem_Room"><rect codeLine="15" fill="#F1F1F1" height="64.2969" id="Room" rx="2.5" ry="2.5" style="stroke:#181818;stroke-width:0.5;" width="124.7998" x="304.92" y="563.8869"/><ellipse cx="343.4567" cy="579.8869" fill="#ADD1B2" rx="11" ry="11" style="stroke:#181818;stroke-width:1.0;"/><path d="M346.4254,585.5275 Q345.8473,585.8244 345.2067,585.965 Q344.566,586.1212 343.8629,586.1212 Q341.3629,586.1212 340.0348,584.4806 Q338.7223,582.8244 338.7223,579.6994 Q338.7223,576.5744 340.0348,574.9181 Q341.3629,573.2619 343.8629,573.2619 Q344.566,573.2619 345.2067,573.4181 Q345.8629,573.5744 346.4254,573.8712 L346.4254,576.59 Q345.8004,576.0119 345.2067,575.7462 Q344.6129,575.465 343.9879,575.465 Q342.6442,575.465 341.9567,576.5431 Q341.2692,577.6056 341.2692,579.6994 Q341.2692,581.7931 341.9567,582.8712 Q342.6442,583.9337 343.9879,583.9337 Q344.6129,583.9337 345.2067,583.6681 Q345.8004,583.3869 346.4254,582.8087 L346.4254,585.5275 Z " fill="#000000"/><text fill="#000000" font-family="sans-serif" font-size="14" lengthAdjust="spacing" textLength="40.4961" x="362.687" y="584.7336">Room</text><line style="stroke:#181818;stroke-width:0.5;" x1="305.92" x2="428.7198" y1="595.8869" y2="595.8869"/><line style="stroke:#181818;stroke-width:0.5;" x1="305.92" x2="428.7198" y1="603.8869" y2="603.8869"/><ellipse cx="315.92" cy="617.5353" fill="#84BE84" rx="3" ry="3" style="stroke:#038048;stroke-width:1.0;"/><text fill="#000000" font-family="sans-serif" font-size="14" lengthAdjust="spacing" textLength="98.7998" x="324.92" y="620.882">clone() : Maze</text></g><!--entity Wall--><g id="elem_Wall"><rect fill="#F1F1F1" height="36.2969" rx="2.5" ry="2.5" style="stroke:#181818;stroke-width:0.5;" width="50.2012" x="342.22" y="761.8869"/><text fill="#000000" font-family="sans-serif" font-size="14" lengthAdjust="spacing" textLength="30.2012" x="352.22" y="784.882">Wall</text></g><!--class Door--><g id="elem_Door"><rect codeLine="17" fill="#F1F1F1" height="80.5938" id="Door" rx="2.5" ry="2.5" style="stroke:#181818;stroke-width:0.5;" width="228.4121" x="253.12" y="832.7469"/><ellipse cx="346.2426" cy="848.7469" fill="#ADD1B2" rx="11" ry="11" style="stroke:#181818;stroke-width:1.0;"/><path d="M349.2113,854.3875 Q348.6332,854.6844 347.9926,854.825 Q347.3519,854.9812 346.6488,854.9812 Q344.1488,854.9812 342.8207,853.3406 Q341.5082,851.6844 341.5082,848.5594 Q341.5082,845.4344 342.8207,843.7781 Q344.1488,842.1219 346.6488,842.1219 Q347.3519,842.1219 347.9926,842.2781 Q348.6488,842.4344 349.2113,842.7312 L349.2113,845.45 Q348.5863,844.8719 347.9926,844.6062 Q347.3988,844.325 346.7738,844.325 Q345.4301,844.325 344.7426,845.4031 Q344.0551,846.4656 344.0551,848.5594 Q344.0551,850.6531 344.7426,851.7312 Q345.4301,852.7937 346.7738,852.7937 Q347.3988,852.7937 347.9926,852.5281 Q348.5863,852.2469 349.2113,851.6687 L349.2113,854.3875 Z " fill="#000000"/><text fill="#000000" font-family="sans-serif" font-size="14" lengthAdjust="spacing" textLength="33.667" x="366.7426" y="853.5936">Door</text><line style="stroke:#181818;stroke-width:0.5;" x1="254.12" x2="480.5321" y1="864.7469" y2="864.7469"/><line style="stroke:#181818;stroke-width:0.5;" x1="254.12" x2="480.5321" y1="872.7469" y2="872.7469"/><ellipse cx="264.12" cy="886.3953" fill="#84BE84" rx="3" ry="3" style="stroke:#038048;stroke-width:1.0;"/><text fill="#000000" font-family="sans-serif" font-size="14" lengthAdjust="spacing" textLength="98.7998" x="273.12" y="889.742">clone() : Maze</text><ellipse cx="264.12" cy="902.6922" fill="#84BE84" rx="3" ry="3" style="stroke:#038048;stroke-width:1.0;"/><text fill="#000000" font-family="sans-serif" font-size="14" lengthAdjust="spacing" textLength="202.4121" x="273.12" y="906.0389">initialize(Room, Room) : void</text></g><!--entity RoomBomb--><g id="elem_RoomBomb"><rect fill="#F1F1F1" height="36.2969" rx="2.5" ry="2.5" style="stroke:#181818;stroke-width:0.5;" width="101.1904" x="620.3" y="577.8869"/><text fill="#000000" font-family="sans-serif" font-size="14" lengthAdjust="spacing" textLength="81.1904" x="630.3" y="600.882">RoomBomb</text></g><!--entity WallBlown--><g id="elem_WallBlown"><rect fill="#F1F1F1" height="36.2969" rx="2.5" ry="2.5" style="stroke:#181818;stroke-width:0.5;" width="92.584" x="624.61" y="761.8869"/><text fill="#000000" font-family="sans-serif" font-size="14" lengthAdjust="spacing" textLength="72.584" x="634.61" y="784.882">WallBlown</text></g><g id="elem_aPrototypeMaze"><rect fill="#F1F1F1" height="93.4844" style="stroke:#181818;stroke-width:0.5;" width="187.1367" x="857.13" y="44.2969"/><text fill="#000000" font-family="sans-serif" font-size="14" lengthAdjust="spacing" textLength="113.292" x="894.0524" y="59.292">aPrototypeMaze</text><line style="stroke:#181818;stroke-width:0.5;" x1="858.13" x2="1043.2667" y1="64.5938" y2="64.5938"/><text fill="#000000" font-family="sans-serif" font-size="14" lengthAdjust="spacing" textLength="175.1367" x="863.13" y="81.5889">rooms = [room1, room2]</text><text fill="#000000" font-family="sans-serif" font-size="14" lengthAdjust="spacing" textLength="98.6699" x="863.13" y="97.8857">start = room1</text><text fill="#000000" font-family="sans-serif" font-size="14" lengthAdjust="spacing" textLength="108.876" x="863.13" y="114.1826">target = room2</text><text fill="#000000" font-family="sans-serif" font-size="14" lengthAdjust="spacing" textLength="117.1201" x="863.13" y="130.4795">current = room1</text></g><g id="elem_aPrototypeRoom"><rect fill="#F1F1F1" height="60.8906" style="stroke:#181818;stroke-width:0.5;" width="217.4678" x="841.97" y="172.5969"/><text fill="#000000" font-family="sans-serif" font-size="14" lengthAdjust="spacing" textLength="117.168" x="892.1199" y="187.592">aPrototypeRoom</text><line style="stroke:#181818;stroke-width:0.5;" x1="842.97" x2="1058.4378" y1="192.8937" y2="192.8937"/><text fill="#000000" font-family="sans-serif" font-size="14" lengthAdjust="spacing" textLength="122.3018" x="847.97" y="209.8889">roomNumber = 1</text><text fill="#000000" font-family="sans-serif" font-size="14" lengthAdjust="spacing" textLength="205.4678" x="847.97" y="226.1857">sides = [wall, wall, wall, wall]</text></g><g id="elem_nMazePrototypeFactoryMakeWall"><path d="M559.83,256.4769 L559.83,265.0369 L461.71,269.0369 L559.83,273.0369 L559.83,281.6097 A0,0 0 0 0 559.83,281.6097 L781.9682,281.6097 A0,0 0 0 0 781.9682,281.6097 L781.9682,266.4769 L771.9682,256.4769 L559.83,256.4769 A0,0 0 0 0 559.83,256.4769 " fill="#FEFFDD" style="stroke:#181818;stroke-width:0.5;"/><path d="M771.9682,256.4769 L771.9682,266.4769 L781.9682,266.4769 L771.9682,256.4769 " fill="#FEFFDD" style="stroke:#181818;stroke-width:0.5;"/><text fill="#000000" font-family="sans-serif" font-size="13" lengthAdjust="spacing" textLength="201.1382" x="565.83" y="273.5438">return prototypeWall-&gt;clone();</text></g><g id="elem_nMazePrototypeFactoryMakeDoor"><path d="M234.81,331.3369 L234.81,386.7353 A0,0 0 0 0 234.81,386.7353 L499.8266,386.7353 A0,0 0 0 0 499.8266,386.7353 L499.8266,341.3369 L489.8266,331.3369 L371.32,331.3369 L367.32,287.9069 L363.32,331.3369 L234.81,331.3369 A0,0 0 0 0 234.81,331.3369 " fill="#FEFFDD" style="stroke:#181818;stroke-width:0.5;"/><path d="M489.8266,331.3369 L489.8266,341.3369 L499.8266,341.3369 L489.8266,331.3369 " fill="#FEFFDD" style="stroke:#181818;stroke-width:0.5;"/><text fill="#000000" font-family="sans-serif" font-size="13" lengthAdjust="spacing" textLength="244.0166" x="240.81" y="348.4038">Door door = prototypeDoor-&gt;clone();</text><text fill="#000000" font-family="sans-serif" font-size="13" lengthAdjust="spacing" textLength="205.6641" x="240.81" y="363.5366">door-&gt;initialize(room1, room2)l</text><text fill="#000000" font-family="sans-serif" font-size="13" lengthAdjust="spacing" textLength="78.2793" x="240.81" y="378.6694">return door;</text></g><!--reverse link AbstractMazeFactory to MazeFactory--><g id="link_AbstractMazeFactory_MazeFactory"><path codeLine="36" d="M192.97,433.9869 C237.6,433.9869 273.18,433.9869 312.44,433.9869 " fill="none" id="AbstractMazeFactory-backto-MazeFactory" style="stroke:#181818;stroke-width:1.0;"/><polygon fill="none" points="174.97,433.9869,192.97,439.9869,192.97,427.9869,174.97,433.9869" style="stroke:#181818;stroke-width:1.0;"/></g><!--reverse link AbstractMazeFactory to BombMazeFactory--><g id="link_AbstractMazeFactory_BombMazeFactory"><path codeLine="37" d="M193.19,446.0869 C252.23,446.0869 302.63,446.0869 302.63,446.0869 C302.63,446.0869 302.63,473.3969 302.63,492.5969 " fill="none" id="AbstractMazeFactory-backto-BombMazeFactory" style="stroke:#181818;stroke-width:1.0;"/><polygon fill="none" points="175.19,446.0869,193.19,452.0869,193.19,440.0869,175.19,446.0869" style="stroke:#181818;stroke-width:1.0;"/></g><!--reverse link AbstractMazeFactory to MazePrototypeFactory--><g id="link_AbstractMazeFactory_MazePrototypeFactory"><path codeLine="38" d="M90.91,403.4469 C90.91,347.5769 90.91,203.0369 90.91,203.0369 C90.91,203.0369 186.44,203.0369 265.18,203.0369 " fill="none" id="AbstractMazeFactory-backto-MazePrototypeFactory" style="stroke:#181818;stroke-width:1.0;"/><polygon fill="none" points="90.91,421.4469,96.91,403.4469,84.91,403.4469,90.91,421.4469" style="stroke:#181818;stroke-width:1.0;"/></g><!--reverse link MapSite to Maze--><g id="link_MapSite_Maze"><path codeLine="40" d="M171.63,716.0369 C216.87,716.0369 259.67,716.0369 304.85,716.0369 " fill="none" id="MapSite-backto-Maze" style="stroke:#181818;stroke-width:1.0;"/><polygon fill="none" points="153.63,716.0369,171.63,722.0369,171.63,710.0369,153.63,716.0369" style="stroke:#181818;stroke-width:1.0;"/></g><!--reverse link MapSite to Room--><g id="link_MapSite_Room"><path codeLine="41" d="M90.91,686.6869 C90.91,645.0669 90.91,596.0369 90.91,596.0369 C90.91,596.0369 223.04,596.0369 304.6,596.0369 " fill="none" id="MapSite-backto-Room" style="stroke:#181818;stroke-width:1.0;"/><polygon fill="none" points="90.91,704.6869,96.91,686.6869,84.91,686.6869,90.91,704.6869" style="stroke:#181818;stroke-width:1.0;"/></g><!--reverse link MapSite to Wall--><g id="link_MapSite_Wall"><path codeLine="42" d="M171.63,764.3269 C231.04,764.3269 299.3,764.3269 341.76,764.3269 " fill="none" id="MapSite-backto-Wall" style="stroke:#181818;stroke-width:1.0;"/><polygon fill="none" points="153.63,764.3269,171.63,770.3269,171.63,758.3269,153.63,764.3269" style="stroke:#181818;stroke-width:1.0;"/></g><!--reverse link MapSite to Door--><g id="link_MapSite_Door"><path codeLine="43" d="M171.75,766.7569 C224.32,766.7569 272.78,766.7569 272.78,766.7569 C272.78,766.7569 272.78,802.2769 272.78,832.2469 " fill="none" id="MapSite-backto-Door" style="stroke:#181818;stroke-width:1.0;"/><polygon fill="none" points="153.75,766.7569,171.75,772.7569,171.75,760.7569,153.75,766.7569" style="stroke:#181818;stroke-width:1.0;"/></g><!--reverse link Room to RoomBomb--><g id="link_Room_RoomBomb"><path codeLine="45" d="M447.86,596.0369 C504.09,596.0369 567.68,596.0369 620.01,596.0369 " fill="none" id="Room-backto-RoomBomb" style="stroke:#181818;stroke-width:1.0;"/><polygon fill="none" points="429.86,596.0369,447.86,602.0369,447.86,590.0369,429.86,596.0369" style="stroke:#181818;stroke-width:1.0;"/></g><!--reverse link Wall to WallBlown--><g id="link_Wall_WallBlown"><path codeLine="46" d="M410.68,786.0869 C461.7,786.0869 559.39,786.0869 624.38,786.0869 " fill="none" id="Wall-backto-WallBlown" style="stroke:#181818;stroke-width:1.0;"/><polygon fill="none" points="392.68,786.0869,410.68,792.0869,410.68,780.0869,392.68,786.0869" style="stroke:#181818;stroke-width:1.0;"/></g><!--link MazePrototypeFactory to Maze--><g id="link_MazePrototypeFactory_Maze"><path codeLine="48" d="M469.53,290.2669 C499.23,290.2669 523.83,290.2669 523.83,290.2669 C523.83,290.2669 523.83,695.0369 523.83,695.0369 C523.83,695.0369 479.62,695.0369 436.08,695.0369 " fill="none" id="MazePrototypeFactory-to-Maze" style="stroke:#181818;stroke-width:1.0;stroke-dasharray:7.0,7.0;"/><polygon fill="#181818" points="430.08,695.0369,439.08,699.0369,435.08,695.0369,439.08,691.0369,430.08,695.0369" style="stroke:#181818;stroke-width:1.0;"/><text fill="#000000" font-family="sans-serif" font-size="13" lengthAdjust="spacing" textLength="34.9502" x="488.83" y="525.4438">clone</text></g><!--link MazePrototypeFactory to Room--><g id="link_MazePrototypeFactory_Room"><path codeLine="49" d="M469.64,293.1569 C493.37,293.1569 511.83,293.1569 511.83,293.1569 C511.83,293.1569 511.83,570.8869 511.83,570.8869 C511.83,570.8869 474.92,570.8869 435.86,570.8869 " fill="none" id="MazePrototypeFactory-to-Room" style="stroke:#181818;stroke-width:1.0;stroke-dasharray:7.0,7.0;"/><polygon fill="#181818" points="429.86,570.8869,438.86,574.8869,434.86,570.8869,438.86,566.8869,429.86,570.8869" style="stroke:#181818;stroke-width:1.0;"/><text fill="#000000" font-family="sans-serif" font-size="13" lengthAdjust="spacing" textLength="34.9502" x="476.83" y="464.9838">clone</text></g><!--link MazePrototypeFactory to Door--><g id="link_MazePrototypeFactory_Door"><path codeLine="50" d="M469.71,284.4969 C510.45,284.4969 547.83,284.4969 547.83,284.4969 C547.83,284.4969 547.83,873.0369 547.83,873.0369 C547.83,873.0369 523.61,873.0369 487.9,873.0369 " fill="none" id="MazePrototypeFactory-to-Door" style="stroke:#181818;stroke-width:1.0;stroke-dasharray:7.0,7.0;"/><polygon fill="#181818" points="481.9,873.0369,490.9,877.0369,486.9,873.0369,490.9,869.0369,481.9,873.0369" style="stroke:#181818;stroke-width:1.0;"/><text fill="#000000" font-family="sans-serif" font-size="13" lengthAdjust="spacing" textLength="34.9502" x="512.83" y="585.7338">clone</text></g><!--link MazePrototypeFactory to Wall--><g id="link_MazePrototypeFactory_Wall"><path codeLine="51" d="M469.71,287.3769 C505,287.3769 535.83,287.3769 535.83,287.3769 C535.83,287.3769 535.83,773.9869 535.83,773.9869 C535.83,773.9869 446.05,773.9869 398.91,773.9869 " fill="none" id="MazePrototypeFactory-to-Wall" style="stroke:#181818;stroke-width:1.0;stroke-dasharray:7.0,7.0;"/><polygon fill="#181818" points="392.91,773.9869,401.91,777.9869,397.91,773.9869,401.91,769.9869,392.91,773.9869" style="stroke:#181818;stroke-width:1.0;"/><text fill="#000000" font-family="sans-serif" font-size="13" lengthAdjust="spacing" textLength="34.9502" x="500.83" y="565.1538">clone</text></g><!--link MazePrototypeFactory to aPrototypeMaze--><g id="link_MazePrototypeFactory_aPrototypeMaze"><path codeLine="64" d="M469.61,123.9069 C578.91,123.9069 744.74,123.9069 850.74,123.9069 " fill="none" id="MazePrototypeFactory-to-aPrototypeMaze" style="stroke:#181818;stroke-width:1.0;stroke-dasharray:7.0,7.0;"/><polygon fill="#181818" points="856.74,123.9069,847.74,119.9069,851.74,123.9069,847.74,127.9069,856.74,123.9069" style="stroke:#181818;stroke-width:1.0;"/></g><!--link MazePrototypeFactory to aPrototypeRoom--><g id="link_MazePrototypeFactory_aPrototypeRoom"><path codeLine="65" d="M469.61,203.0369 C573.85,203.0369 728.95,203.0369 835.59,203.0369 " fill="none" id="MazePrototypeFactory-to-aPrototypeRoom" style="stroke:#181818;stroke-width:1.0;stroke-dasharray:7.0,7.0;"/><polygon fill="#181818" points="841.59,203.0369,832.59,199.0369,836.59,203.0369,832.59,207.0369,841.59,203.0369" style="stroke:#181818;stroke-width:1.0;"/></g><!--SRC=[ZPLDRzim38Rl-XKyjbXYe3scQu5cHMyTWlMmmz23OgkfLbaoP6LjX_tuaOpiofz93evDFgPUlg4KQOnxA_MxjZjHlsfRIIzBCDggy54fS3wyE67KSu3WmElTIu12UvK7xQmGGGUZOEDTS8nlP0ZAMtYKPOM9RwvGGX0jxGwVRxTry38F3_AlkiTlvp-Ix7XqxSfjcicDh6jcssMRL9kh7dLG2HblVpXN9fL_IcDYviuvdsG8f7Lxy1gjmgR7reOLBAicHW06UEMZCAs50TPs52OL663bHs5g2WFSsmJyfPIlBFVi_8XW9aaaatDgcII5JCv9PPBaCSawHVpnA9iRPtl2HiBHltuuDZyLrbO7BOt6pgd0WZiYwe_JXH0ZWmfV_osNdHcTXFeZErjjECMD1ItIZKJlaqZqE8aSl6HhsdTue7c0sfVc1ZgxWUWuMpW9HV_deMZxF1I7-m09j_sDcm_a9jrLmoYx8ReK5l4Ohk4QVj7DnOAVBv-6N1sa3yWnDanZTgUQ_EKmd- -zL_QpWEWAYqA-xykjyWXT3FErBXGBVSFk5z2_FatzEXaQrlFc5F1WbtKuAB86E_RAGzo-0l3ZLTZZUTuvW9OtSLDT2MKBe69YjX9a-oeR7VRLgZaiJX35GqsYU9eAkbn3vxHBb15NS2ZPwkamd7SQ9FIKTdZfZFuFvneYwZy0]--></g></svg>