<svg xmlns="http://www.w3.org/2000/svg" xmlns:xlink="http://www.w3.org/1999/xlink" contentStyleType="text/css" height="424px" preserveAspectRatio="none" style="width:440px;height:424px;background:#FFFFFF;" version="1.1" viewBox="0 0 440 424" width="440px" zoomAndPan="magnify"><defs/><g><text fill="#000000" font-family="sans-serif" font-size="14" font-weight="bold" lengthAdjust="spacing" textLength="282.4336" x="71.8196" y="22.9951">Prototype Pattern Formal Structure</text><!--class Prototype--><g id="elem_Prototype"><rect codeLine="7" fill="#F1F1F1" height="64.2969" id="Prototype" rx="2.5" ry="2.5" style="stroke:#181818;stroke-width:0.5;" width="100.0928" x="184.47" y="132.2869"/><ellipse cx="199.47" cy="148.2869" fill="#ADD1B2" rx="11" ry="11" style="stroke:#181818;stroke-width:1.0;"/><path d="M202.4388,153.9275 Q201.8606,154.2244 201.22,154.365 Q200.5794,154.5213 199.8763,154.5213 Q197.3763,154.5213 196.0481,152.8806 Q194.7356,151.2244 194.7356,148.0994 Q194.7356,144.9744 196.0481,143.3181 Q197.3763,141.6619 199.8763,141.6619 Q200.5794,141.6619 201.22,141.8181 Q201.8763,141.9744 202.4388,142.2713 L202.4388,144.99 Q201.8138,144.4119 201.22,144.1463 Q200.6263,143.865 200.0013,143.865 Q198.6575,143.865 197.97,144.9431 Q197.2825,146.0056 197.2825,148.0994 Q197.2825,150.1931 197.97,151.2713 Q198.6575,152.3338 200.0013,152.3338 Q200.6263,152.3338 201.22,152.0681 Q201.8138,151.7869 202.4388,151.2088 L202.4388,153.9275 Z " fill="#000000"/><text fill="#000000" font-family="sans-serif" font-size="14" lengthAdjust="spacing" textLength="68.0928" x="213.47" y="153.1336">Prototype</text><line style="stroke:#181818;stroke-width:0.5;" x1="185.47" x2="283.5628" y1="164.2869" y2="164.2869"/><line style="stroke:#181818;stroke-width:0.5;" x1="185.47" x2="283.5628" y1="172.2869" y2="172.2869"/><text fill="#000000" font-family="sans-serif" font-size="14" lengthAdjust="spacing" textLength="50.6406" x="190.47" y="189.282">Clone()</text></g><!--class ConcretePrototypeA--><g id="elem_ConcretePrototypeA"><rect codeLine="8" fill="#F1F1F1" height="64.2969" id="ConcretePrototypeA" rx="2.5" ry="2.5" style="stroke:#181818;stroke-width:0.5;" width="173.0527" x="260.02" y="264.4369"/><ellipse cx="275.02" cy="280.4369" fill="#ADD1B2" rx="11" ry="11" style="stroke:#181818;stroke-width:1.0;"/><path d="M277.9888,286.0775 Q277.4106,286.3744 276.77,286.515 Q276.1294,286.6713 275.4263,286.6713 Q272.9263,286.6713 271.5981,285.0306 Q270.2856,283.3744 270.2856,280.2494 Q270.2856,277.1244 271.5981,275.4681 Q272.9263,273.8119 275.4263,273.8119 Q276.1294,273.8119 276.77,273.9681 Q277.4263,274.1244 277.9888,274.4213 L277.9888,277.14 Q277.3638,276.5619 276.77,276.2963 Q276.1763,276.015 275.5513,276.015 Q274.2075,276.015 273.52,277.0931 Q272.8325,278.1556 272.8325,280.2494 Q272.8325,282.3431 273.52,283.4213 Q274.2075,284.4838 275.5513,284.4838 Q276.1763,284.4838 276.77,284.2181 Q277.3638,283.9369 277.9888,283.3588 L277.9888,286.0775 Z " fill="#000000"/><text fill="#000000" font-family="sans-serif" font-size="14" lengthAdjust="spacing" textLength="141.0527" x="289.02" y="285.2836">ConcretePrototypeA</text><line style="stroke:#181818;stroke-width:0.5;" x1="261.02" x2="432.0727" y1="296.4369" y2="296.4369"/><line style="stroke:#181818;stroke-width:0.5;" x1="261.02" x2="432.0727" y1="304.4369" y2="304.4369"/><text fill="#000000" font-family="sans-serif" font-size="14" lengthAdjust="spacing" textLength="50.6406" x="266.02" y="321.432">Clone()</text></g><!--class ConcretePrototypeB--><g id="elem_ConcretePrototypeB"><rect codeLine="9" fill="#F1F1F1" height="64.2969" id="ConcretePrototypeB" rx="2.5" ry="2.5" style="stroke:#181818;stroke-width:0.5;" width="173.0801" x="36.02" y="264.4369"/><ellipse cx="51.02" cy="280.4369" fill="#ADD1B2" rx="11" ry="11" style="stroke:#181818;stroke-width:1.0;"/><path d="M53.9887,286.0775 Q53.4106,286.3744 52.77,286.515 Q52.1294,286.6713 51.4262,286.6713 Q48.9262,286.6713 47.5981,285.0306 Q46.2856,283.3744 46.2856,280.2494 Q46.2856,277.1244 47.5981,275.4681 Q48.9262,273.8119 51.4262,273.8119 Q52.1294,273.8119 52.77,273.9681 Q53.4262,274.1244 53.9887,274.4213 L53.9887,277.14 Q53.3637,276.5619 52.77,276.2963 Q52.1762,276.015 51.5512,276.015 Q50.2075,276.015 49.52,277.0931 Q48.8325,278.1556 48.8325,280.2494 Q48.8325,282.3431 49.52,283.4213 Q50.2075,284.4838 51.5512,284.4838 Q52.1762,284.4838 52.77,284.2181 Q53.3637,283.9369 53.9887,283.3588 L53.9887,286.0775 Z " fill="#000000"/><text fill="#000000" font-family="sans-serif" font-size="14" lengthAdjust="spacing" textLength="141.0801" x="65.02" y="285.2836">ConcretePrototypeB</text><line style="stroke:#181818;stroke-width:0.5;" x1="37.02" x2="208.1001" y1="296.4369" y2="296.4369"/><line style="stroke:#181818;stroke-width:0.5;" x1="37.02" x2="208.1001" y1="304.4369" y2="304.4369"/><text fill="#000000" font-family="sans-serif" font-size="14" lengthAdjust="spacing" textLength="50.6406" x="42.02" y="321.432">Clone()</text></g><!--class Client--><g id="elem_Client"><rect codeLine="10" fill="#F1F1F1" height="64.2969" id="Client" rx="2.5" ry="2.5" style="stroke:#181818;stroke-width:0.5;" width="92.5957" x="49.52" y="132.4369"/><ellipse cx="73.5494" cy="148.4369" fill="#ADD1B2" rx="11" ry="11" style="stroke:#181818;stroke-width:1.0;"/><path d="M76.5182,154.0775 Q75.9401,154.3744 75.2994,154.515 Q74.6588,154.6713 73.9557,154.6713 Q71.4557,154.6713 70.1276,153.0306 Q68.8151,151.3744 68.8151,148.2494 Q68.8151,145.1244 70.1276,143.4681 Q71.4557,141.8119 73.9557,141.8119 Q74.6588,141.8119 75.2994,141.9681 Q75.9557,142.1244 76.5182,142.4213 L76.5182,145.14 Q75.8932,144.5619 75.2994,144.2963 Q74.7057,144.015 74.0807,144.015 Q72.7369,144.015 72.0494,145.0931 Q71.3619,146.1556 71.3619,148.2494 Q71.3619,150.3431 72.0494,151.4213 Q72.7369,152.4838 74.0807,152.4838 Q74.7057,152.4838 75.2994,152.2181 Q75.8932,151.9369 76.5182,151.3588 L76.5182,154.0775 Z " fill="#000000"/><text fill="#000000" font-family="sans-serif" font-size="14" lengthAdjust="spacing" textLength="40.5303" x="89.556" y="153.2836">Client</text><line style="stroke:#181818;stroke-width:0.5;" x1="50.52" x2="141.1157" y1="164.4369" y2="164.4369"/><line style="stroke:#181818;stroke-width:0.5;" x1="50.52" x2="141.1157" y1="172.4369" y2="172.4369"/><text fill="#000000" font-family="sans-serif" font-size="14" lengthAdjust="spacing" textLength="80.5957" x="55.52" y="189.432">Operation()</text></g><g id="elem_nConcretePrototypeAClone"><path d="M164.42,392.4369 L164.42,417.5697 L304.6163,417.5697 L304.6163,402.4369 L294.6163,392.4369 L164.42,392.4369 " fill="#FEFFDD" style="stroke:#181818;stroke-width:0.5;"/><path d="M294.6163,392.4369 L294.6163,402.4369 L304.6163,402.4369 L294.6163,392.4369 " fill="#FEFFDD" style="stroke:#181818;stroke-width:1.0;"/><text fill="#000000" font-family="sans-serif" font-size="13" lengthAdjust="spacing" textLength="119.1963" x="170.42" y="409.5038">return copy of self</text></g><g id="elem_nClientOperation"><path d="M6,43.2969 L6,68.4297 A0,0 0 0 0 6,68.4297 L91.52,68.4297 L95.52,176.5369 L99.52,68.4297 L185.0376,68.4297 A0,0 0 0 0 185.0376,68.4297 L185.0376,53.2969 L175.0376,43.2969 L6,43.2969 A0,0 0 0 0 6,43.2969 " fill="#FEFFDD" style="stroke:#181818;stroke-width:0.5;"/><path d="M175.0376,43.2969 L175.0376,53.2969 L185.0376,53.2969 L175.0376,43.2969 " fill="#FEFFDD" style="stroke:#181818;stroke-width:0.5;"/><text fill="#000000" font-family="sans-serif" font-size="13" lengthAdjust="spacing" textLength="158.0376" x="12" y="60.3638">p = prototype-&gt;Clone();</text></g><!--reverse link Prototype to ConcretePrototypeA--><g id="link_Prototype_ConcretePrototypeA"><path codeLine="18" d="M268.29,215.0669 C268.29,234.3069 268.29,240.6769 268.29,260.4669 " fill="none" id="Prototype-backto-ConcretePrototypeA" style="stroke:#181818;stroke-width:1.0;"/><polygon fill="none" points="268.29,197.0669,262.29,215.0669,274.29,215.0669,268.29,197.0669" style="stroke:#181818;stroke-width:1.0;"/></g><!--reverse link Prototype to ConcretePrototypeB--><g id="link_Prototype_ConcretePrototypeB"><path codeLine="19" d="M200.75,215.0669 C200.75,234.3069 200.75,240.6769 200.75,260.4669 " fill="none" id="Prototype-backto-ConcretePrototypeB" style="stroke:#181818;stroke-width:1.0;"/><polygon fill="none" points="200.75,197.0669,194.75,215.0669,206.75,215.0669,200.75,197.0669" style="stroke:#181818;stroke-width:1.0;"/></g><!--link Client to Prototype--><g id="link_Client_Prototype"><path codeLine="21" d="M149.26,164.4369 C160.72,164.4369 166.78,164.4369 178.11,164.4369 " fill="none" id="Client-to-Prototype" style="stroke:#181818;stroke-width:1.0;"/><polygon fill="#181818" points="184.11,164.4369,175.11,160.4369,179.11,164.4369,175.11,168.4369,184.11,164.4369" style="stroke:#181818;stroke-width:1.0;"/><text fill="#000000" font-family="sans-serif" font-size="13" lengthAdjust="spacing" textLength="63.6416" x="149.5241" y="146.7169">prototype</text></g><!--link ConcretePrototypeA to nConcretePrototypeAClone--><g id="link_ConcretePrototypeA_nConcretePrototypeAClone"><path codeLine="26" d="M278.32,324.2969 C278.32,339.6169 278.32,373.6169 278.32,392.2269 " fill="none" id="ConcretePrototypeA-nConcretePrototypeAClone" style="stroke:#181818;stroke-width:1.0;stroke-dasharray:7.0,7.0;"/></g><!--link ConcretePrototypeB to nConcretePrototypeAClone--><g id="link_ConcretePrototypeB_nConcretePrototypeAClone"><path codeLine="27" d="M190.72,324.2969 C190.72,339.6169 190.72,373.6169 190.72,392.2269 " fill="none" id="ConcretePrototypeB-nConcretePrototypeAClone" style="stroke:#181818;stroke-width:1.0;stroke-dasharray:7.0,7.0;"/></g><!--SRC=[bL7BJWCn3BpxAwoUu93zW02LM2IkLE8BeiLj8x9sb7W5bVXuqks-K5iGkMKcCnvFN0ZoqVfFppl8xvwZIwx5u9dq40abwLu0r6iWt2HHwU6DKwN4-2ofTG5VDNMDTea0ck1odbyEzoVX9f7IX3zU8-gH29vO0UQPjc32T7CBvsw_aVM2X9DjGLuY9QTU-8ZEG-w_ZBcKzgyNzMIzYYEsGfFyRgzclUW3M9JGPUJpANrAm78AtfLw6ua7b2rc2biWViEZ6AufiUfYTI6yjIVZV-hgKRU8tAyuLTT7ZVY0qyfcFJHzjupxKuLLDVokjRCLV0C0]--></g></svg>