<?xml version="1.0" encoding="us-ascii" standalone="no"?><svg xmlns="http://www.w3.org/2000/svg" xmlns:xlink="http://www.w3.org/1999/xlink" contentStyleType="text/css" height="318px" preserveAspectRatio="none" style="width:375px;height:318px;background:#FFFFFF;" version="1.1" viewBox="0 0 375 318" width="375px" zoomAndPan="magnify"><defs/><g><!--class AbstractList--><g id="elem_AbstractList"><rect codeLine="5" fill="#F1F1F1" height="113.1875" id="AbstractList" rx="2.5" ry="2.5" style="stroke:#181818;stroke-width:0.5;" width="117" x="7" y="7"/><ellipse cx="24.25" cy="23" fill="#ADD1B2" rx="11" ry="11" style="stroke:#181818;stroke-width:1.0;"/><path d="M27.2188,28.6406 Q26.6406,28.9375 26,29.0781 Q25.3594,29.2344 24.6563,29.2344 Q22.1563,29.2344 20.8281,27.5938 Q19.5156,25.9375 19.5156,22.8125 Q19.5156,19.6875 20.8281,18.0313 Q22.1563,16.375 24.6563,16.375 Q25.3594,16.375 26,16.5313 Q26.6563,16.6875 27.2188,16.9844 L27.2188,19.7031 Q26.5938,19.125 26,18.8594 Q25.4063,18.5781 24.7813,18.5781 Q23.4375,18.5781 22.75,19.6563 Q22.0625,20.7188 22.0625,22.8125 Q22.0625,24.9063 22.75,25.9844 Q23.4375,27.0469 24.7813,27.0469 Q25.4063,27.0469 26,26.7813 Q26.5938,26.5 27.2188,25.9219 L27.2188,28.6406 Z " fill="#000000"/><text fill="#000000" font-family="sans-serif" font-size="14" lengthAdjust="spacing" textLength="80" x="38.75" y="27.8467">AbstractList</text><line style="stroke:#181818;stroke-width:0.5;" x1="8" x2="123" y1="39" y2="39"/><text fill="#000000" font-family="sans-serif" font-size="14" lengthAdjust="spacing" textLength="105" x="13" y="55.9951">CreateIterator()</text><text fill="#000000" font-family="sans-serif" font-size="14" lengthAdjust="spacing" textLength="52" x="13" y="72.292">Count()</text><text fill="#000000" font-family="sans-serif" font-size="14" lengthAdjust="spacing" textLength="94" x="13" y="88.5889">Append(Item)</text><text fill="#000000" font-family="sans-serif" font-size="14" lengthAdjust="spacing" textLength="97" x="13" y="104.8857">Remove(Item)</text><line style="stroke:#181818;stroke-width:1.0;stroke-dasharray:1.0,2.0;" x1="8" x2="123" y1="112.1875" y2="112.1875"/></g><!--class Iterator--><g id="elem_Iterator"><rect codeLine="6" fill="#F1F1F1" height="113.1875" id="Iterator" rx="2.5" ry="2.5" style="stroke:#181818;stroke-width:0.5;" width="104" x="264.5" y="7"/><ellipse cx="289.85" cy="23" fill="#ADD1B2" rx="11" ry="11" style="stroke:#181818;stroke-width:1.0;"/><path d="M292.8188,28.6406 Q292.2406,28.9375 291.6,29.0781 Q290.9594,29.2344 290.2563,29.2344 Q287.7563,29.2344 286.4281,27.5938 Q285.1156,25.9375 285.1156,22.8125 Q285.1156,19.6875 286.4281,18.0313 Q287.7563,16.375 290.2563,16.375 Q290.9594,16.375 291.6,16.5313 Q292.2563,16.6875 292.8188,16.9844 L292.8188,19.7031 Q292.1938,19.125 291.6,18.8594 Q291.0063,18.5781 290.3813,18.5781 Q289.0375,18.5781 288.35,19.6563 Q287.6625,20.7188 287.6625,22.8125 Q287.6625,24.9063 288.35,25.9844 Q289.0375,27.0469 290.3813,27.0469 Q291.0063,27.0469 291.6,26.7813 Q292.1938,26.5 292.8188,25.9219 L292.8188,28.6406 Z " fill="#000000"/><text fill="#000000" font-family="sans-serif" font-size="14" lengthAdjust="spacing" textLength="49" x="306.15" y="27.8467">Iterator</text><line style="stroke:#181818;stroke-width:0.5;" x1="265.5" x2="367.5" y1="39" y2="39"/><line style="stroke:#181818;stroke-width:0.5;" x1="265.5" x2="367.5" y1="47" y2="47"/><text fill="#000000" font-family="sans-serif" font-size="14" lengthAdjust="spacing" textLength="39" x="270.5" y="63.9951">First()</text><text fill="#000000" font-family="sans-serif" font-size="14" lengthAdjust="spacing" textLength="41" x="270.5" y="80.292">Next()</text><text fill="#000000" font-family="sans-serif" font-size="14" lengthAdjust="spacing" textLength="59" x="270.5" y="96.5889">IsDone()</text><text fill="#000000" font-family="sans-serif" font-size="14" lengthAdjust="spacing" textLength="92" x="270.5" y="112.8857">CurrentItem()</text></g><!--entity List--><g id="elem_List"><rect fill="#F1F1F1" height="36.2969" rx="2.5" ry="2.5" style="stroke:#181818;stroke-width:0.5;" width="43" x="106" y="180.19"/><text fill="#000000" font-family="sans-serif" font-size="14" lengthAdjust="spacing" textLength="23" x="116" y="203.1851">List</text></g><!--entity SkipList--><g id="elem_SkipList"><rect fill="#F1F1F1" height="36.2969" rx="2.5" ry="2.5" style="stroke:#181818;stroke-width:0.5;" width="72" x="89.5" y="276.48"/><text fill="#000000" font-family="sans-serif" font-size="14" lengthAdjust="spacing" textLength="52" x="99.5" y="299.4751">SkipList</text></g><!--entity ListIterator--><g id="elem_ListIterator"><rect fill="#F1F1F1" height="36.2969" rx="2.5" ry="2.5" style="stroke:#181818;stroke-width:0.5;" width="92" x="184.5" y="180.19"/><text fill="#000000" font-family="sans-serif" font-size="14" lengthAdjust="spacing" textLength="72" x="194.5" y="203.1851">ListIterator</text></g><!--entity SkipListIterator--><g id="elem_SkipListIterator"><rect fill="#F1F1F1" height="36.2969" rx="2.5" ry="2.5" style="stroke:#181818;stroke-width:0.5;" width="121" x="197" y="276.48"/><text fill="#000000" font-family="sans-serif" font-size="14" lengthAdjust="spacing" textLength="101" x="207" y="299.4751">SkipListIterator</text></g><!--class Client--><g id="elem_Client"><rect fill="#F1F1F1" height="48" id="Client" rx="2.5" ry="2.5" style="stroke:#181818;stroke-width:0.5;" width="71" x="159" y="39.59"/><ellipse cx="174" cy="55.59" fill="#ADD1B2" rx="11" ry="11" style="stroke:#181818;stroke-width:1.0;"/><path d="M176.9688,61.2306 Q176.3906,61.5275 175.75,61.6681 Q175.1094,61.8244 174.4063,61.8244 Q171.9063,61.8244 170.5781,60.1837 Q169.2656,58.5275 169.2656,55.4025 Q169.2656,52.2775 170.5781,50.6212 Q171.9063,48.965 174.4063,48.965 Q175.1094,48.965 175.75,49.1212 Q176.4063,49.2775 176.9688,49.5744 L176.9688,52.2931 Q176.3438,51.715 175.75,51.4494 Q175.1563,51.1681 174.5313,51.1681 Q173.1875,51.1681 172.5,52.2462 Q171.8125,53.3087 171.8125,55.4025 Q171.8125,57.4962 172.5,58.5744 Q173.1875,59.6369 174.5313,59.6369 Q175.1563,59.6369 175.75,59.3712 Q176.3438,59.09 176.9688,58.5119 L176.9688,61.2306 Z " fill="#000000"/><text fill="#000000" font-family="sans-serif" font-size="14" lengthAdjust="spacing" textLength="39" x="188" y="60.4367">Client</text><line style="stroke:#181818;stroke-width:0.5;" x1="160" x2="229" y1="71.59" y2="71.59"/><line style="stroke:#181818;stroke-width:0.5;" x1="160" x2="229" y1="79.59" y2="79.59"/></g><!--reverse link AbstractList to List--><g id="link_AbstractList_List"><path codeLine="25" d="M115,138.34 C115,159.63 115,164.37 115,179.77 " fill="none" id="AbstractList-backto-List" style="stroke:#181818;stroke-width:1.0;"/><polygon fill="none" points="115,120.34,109,138.34,121,138.34,115,120.34" style="stroke:#181818;stroke-width:1.0;"/></g><!--reverse link AbstractList to SkipList--><g id="link_AbstractList_SkipList"><path codeLine="26" d="M97.75,138.41 C97.75,189.18 97.75,242.56 97.75,275.99 " fill="none" id="AbstractList-backto-SkipList" style="stroke:#181818;stroke-width:1.0;"/><polygon fill="none" points="97.75,120.41,91.75,138.41,103.75,138.41,97.75,120.41" style="stroke:#181818;stroke-width:1.0;"/></g><!--reverse link Iterator to ListIterator--><g id="link_Iterator_ListIterator"><path codeLine="28" d="M270.5,138.34 C270.5,159.63 270.5,164.37 270.5,179.77 " fill="none" id="Iterator-backto-ListIterator" style="stroke:#181818;stroke-width:1.0;"/><polygon fill="none" points="270.5,120.34,264.5,138.34,276.5,138.34,270.5,120.34" style="stroke:#181818;stroke-width:1.0;"/></g><!--reverse link Iterator to SkipListIterator--><g id="link_Iterator_SkipListIterator"><path codeLine="29" d="M297.25,138.41 C297.25,189.18 297.25,242.56 297.25,275.99 " fill="none" id="Iterator-backto-SkipListIterator" style="stroke:#181818;stroke-width:1.0;"/><polygon fill="none" points="297.25,120.41,291.25,138.41,303.25,138.41,297.25,120.41" style="stroke:#181818;stroke-width:1.0;"/></g><!--reverse link AbstractList to Client--><g id="link_AbstractList_Client"><path codeLine="31" d="M130.34,63.59 C142.03,63.59 147.98,63.59 158.62,63.59 " fill="none" id="AbstractList-backto-Client" style="stroke:#181818;stroke-width:1.0;stroke-dasharray:7.0,7.0;"/><polygon fill="#181818" points="124.34,63.59,133.34,67.59,129.34,63.59,133.34,59.59,124.34,63.59" style="stroke:#181818;stroke-width:1.0;"/></g><!--link Client to Iterator--><g id="link_Client_Iterator"><path codeLine="32" d="M230.44,63.59 C240.99,63.59 246.74,63.59 258.09,63.59 " fill="none" id="Client-to-Iterator" style="stroke:#181818;stroke-width:1.0;stroke-dasharray:7.0,7.0;"/><polygon fill="#181818" points="264.09,63.59,255.09,59.59,259.09,63.59,255.09,67.59,264.09,63.59" style="stroke:#181818;stroke-width:1.0;"/></g><!--link List to ListIterator--><g id="link_List_ListIterator"><path codeLine="34" d="M149.34,192.29 C159.5,192.29 165.99,192.29 178.1,192.29 " fill="none" id="List-to-ListIterator" style="stroke:#181818;stroke-width:1.0;stroke-dasharray:7.0,7.0;"/><polygon fill="#181818" points="184.1,192.29,175.1,188.29,179.1,192.29,175.1,196.29,184.1,192.29" style="stroke:#181818;stroke-width:1.0;"/></g><!--reverse link List to ListIterator--><g id="link_List_ListIterator"><path codeLine="35" d="M155.34,204.38 C165.5,204.38 171.99,204.38 184.1,204.38 " fill="none" id="List-backto-ListIterator" style="stroke:#181818;stroke-width:1.0;"/><polygon fill="#181818" points="149.34,204.38,158.34,208.38,154.34,204.38,158.34,200.38,149.34,204.38" style="stroke:#181818;stroke-width:1.0;"/></g><!--link SkipList to SkipListIterator--><g id="link_SkipList_SkipListIterator"><path codeLine="37" d="M161.92,288.58 C172.68,288.58 178.76,288.58 190.62,288.58 " fill="none" id="SkipList-to-SkipListIterator" style="stroke:#181818;stroke-width:1.0;stroke-dasharray:7.0,7.0;"/><polygon fill="#181818" points="196.62,288.58,187.62,284.58,191.62,288.58,187.62,292.58,196.62,288.58" style="stroke:#181818;stroke-width:1.0;"/></g><!--reverse link SkipList to SkipListIterator--><g id="link_SkipList_SkipListIterator"><path codeLine="38" d="M167.92,300.68 C178.68,300.68 184.76,300.68 196.62,300.68 " fill="none" id="SkipList-backto-SkipListIterator" style="stroke:#181818;stroke-width:1.0;"/><polygon fill="#181818" points="161.92,300.68,170.92,304.68,166.92,300.68,170.92,296.68,161.92,300.68" style="stroke:#181818;stroke-width:1.0;"/></g><!--SRC=[RP5BRiCm34JtEeMMwS8-G14425mK251qqPn0THc7Y7wWc4-17hwo4ykMbINd3JaKfRHsLuCtj9q89xHUaJ9IemN-zI0TyT49qMeLWjn-1oRLyWS6VaWx1bBiI0Y2bfNjDCW1J-N-X7wG5fRKMbgdgVD8-IeR0iKmujLBmTtPSYbllGVxiufzfc1VODm5dhEw5c8CY-KxKkYdpwHFk2sKNNXp5dAjEHE1xPzb8iXJrdzLTJzP8LUpswLfoP-EbAFoXet662vh3GUkD_alZeomE_PmwXgsY4eswxxQ8b-CaRszY4zm_MItVm00]--></g></svg>