<?xml version="1.0" encoding="us-ascii" standalone="no"?><svg xmlns="http://www.w3.org/2000/svg" xmlns:xlink="http://www.w3.org/1999/xlink" contentStyleType="text/css" height="825px" preserveAspectRatio="none" style="width:1322px;height:825px;background:#FFFFFF;" version="1.1" viewBox="0 0 1322 825" width="1322px" zoomAndPan="magnify"><defs/><g><text fill="#000000" font-family="sans-serif" font-size="14" font-weight="bold" lengthAdjust="spacing" textLength="230" x="539" y="22.9951">Iterator Pattern Sample Code</text><!--class List--><g id="elem_List"><rect codeLine="8" fill="#F1F1F1" height="357.6406" id="List" rx="2.5" ry="2.5" style="stroke:#181818;stroke-width:0.5;" width="179" x="1132" y="89.0669"/><ellipse cx="1189.75" cy="105.0669" fill="#ADD1B2" rx="11" ry="11" style="stroke:#181818;stroke-width:1.0;"/><path d="M1192.7188,110.7075 Q1192.1406,111.0044 1191.5,111.145 Q1190.8594,111.3012 1190.1563,111.3012 Q1187.6563,111.3012 1186.3281,109.6606 Q1185.0156,108.0044 1185.0156,104.8794 Q1185.0156,101.7544 1186.3281,100.0981 Q1187.6563,98.4419 1190.1563,98.4419 Q1190.8594,98.4419 1191.5,98.5981 Q1192.1563,98.7544 1192.7188,99.0512 L1192.7188,101.77 Q1192.0938,101.1919 1191.5,100.9262 Q1190.9063,100.645 1190.2813,100.645 Q1188.9375,100.645 1188.25,101.7231 Q1187.5625,102.7856 1187.5625,104.8794 Q1187.5625,106.9731 1188.25,108.0512 Q1188.9375,109.1137 1190.2813,109.1137 Q1190.9063,109.1137 1191.5,108.8481 Q1192.0938,108.5669 1192.7188,107.9887 L1192.7188,110.7075 Z " fill="#000000"/><text fill="#000000" font-family="sans-serif" font-size="14" lengthAdjust="spacing" textLength="23" x="1210.25" y="109.9136">List</text><rect fill="#FFFFFF" height="15.9688" style="stroke:#181818;stroke-width:1.0;stroke-dasharray:2.0,2.0;" width="30" x="1284" y="86.0669"/><text fill="#000000" font-family="sans-serif" font-size="12" font-style="italic" lengthAdjust="spacing" textLength="28" x="1285" y="98.2055">Item</text><line style="stroke:#181818;stroke-width:0.5;" x1="1133" x2="1310" y1="121.0669" y2="121.0669"/><rect fill="none" height="6" style="stroke:#C82930;stroke-width:1.0;" width="6" x="1140" y="131.7153"/><text fill="#000000" font-family="sans-serif" font-size="14" lengthAdjust="spacing" textLength="81" x="1152" y="138.062">Items : Item</text><rect fill="none" height="6" style="stroke:#C82930;stroke-width:1.0;" width="6" x="1140" y="148.0122"/><text fill="#000000" font-family="sans-serif" font-size="14" lengthAdjust="spacing" textLength="83" x="1152" y="154.3589">count : long</text><rect fill="none" height="6" style="stroke:#C82930;stroke-width:1.0;" width="6" x="1140" y="164.3091"/><text fill="#000000" font-family="sans-serif" font-size="14" lengthAdjust="spacing" textLength="71" x="1152" y="170.6557">size : long</text><line style="stroke:#181818;stroke-width:0.5;" x1="1133" x2="1310" y1="177.9575" y2="177.9575"/><ellipse cx="1143" cy="191.6059" fill="#84BE84" rx="3" ry="3" style="stroke:#038048;stroke-width:1.0;"/><text fill="#000000" font-family="sans-serif" font-size="14" lengthAdjust="spacing" textLength="106" x="1152" y="194.9526">get(long) : Item</text><ellipse cx="1143" cy="207.9028" fill="#84BE84" rx="3" ry="3" style="stroke:#038048;stroke-width:1.0;"/><text fill="#000000" font-family="sans-serif" font-size="14" lengthAdjust="spacing" textLength="78" x="1152" y="211.2495">first() : Item</text><ellipse cx="1143" cy="224.1997" fill="#84BE84" rx="3" ry="3" style="stroke:#038048;stroke-width:1.0;"/><text fill="#000000" font-family="sans-serif" font-size="14" lengthAdjust="spacing" textLength="77" x="1152" y="227.5464">last() : Item</text><ellipse cx="1143" cy="240.4966" fill="#84BE84" rx="3" ry="3" style="stroke:#038048;stroke-width:1.0;"/><text fill="#000000" font-family="sans-serif" font-size="14" lengthAdjust="spacing" textLength="134" x="1152" y="243.8432">append(Item) : void</text><ellipse cx="1143" cy="256.7934" fill="#84BE84" rx="3" ry="3" style="stroke:#038048;stroke-width:1.0;"/><text fill="#000000" font-family="sans-serif" font-size="14" lengthAdjust="spacing" textLength="140" x="1152" y="260.1401">prepend(Item) : void</text><ellipse cx="1143" cy="273.0903" fill="#84BE84" rx="3" ry="3" style="stroke:#038048;stroke-width:1.0;"/><text fill="#000000" font-family="sans-serif" font-size="14" lengthAdjust="spacing" textLength="145" x="1152" y="276.437">insert(Item, int) : void</text><ellipse cx="1143" cy="289.3872" fill="#84BE84" rx="3" ry="3" style="stroke:#038048;stroke-width:1.0;"/><text fill="#000000" font-family="sans-serif" font-size="14" lengthAdjust="spacing" textLength="153" x="1152" y="292.7339">remove_at(long) : void</text><ellipse cx="1143" cy="305.6841" fill="#84BE84" rx="3" ry="3" style="stroke:#038048;stroke-width:1.0;"/><text fill="#000000" font-family="sans-serif" font-size="14" lengthAdjust="spacing" textLength="142" x="1152" y="309.0307">remove{(Item) : void</text><ellipse cx="1143" cy="321.9809" fill="#84BE84" rx="3" ry="3" style="stroke:#038048;stroke-width:1.0;"/><text fill="#000000" font-family="sans-serif" font-size="14" lengthAdjust="spacing" textLength="135" x="1152" y="325.3276">remove_first() : void</text><ellipse cx="1143" cy="338.2778" fill="#84BE84" rx="3" ry="3" style="stroke:#038048;stroke-width:1.0;"/><text fill="#000000" font-family="sans-serif" font-size="14" lengthAdjust="spacing" textLength="134" x="1152" y="341.6245">remove_last() : void</text><ellipse cx="1143" cy="354.5747" fill="#84BE84" rx="3" ry="3" style="stroke:#038048;stroke-width:1.0;"/><text fill="#000000" font-family="sans-serif" font-size="14" lengthAdjust="spacing" textLength="124" x="1152" y="357.9214">remove_all() : void</text><ellipse cx="1143" cy="370.8716" fill="#84BE84" rx="3" ry="3" style="stroke:#038048;stroke-width:1.0;"/><text fill="#000000" font-family="sans-serif" font-size="14" lengthAdjust="spacing" textLength="141" x="1152" y="374.2182">includes(Item) : bool</text><ellipse cx="1143" cy="387.1684" fill="#84BE84" rx="3" ry="3" style="stroke:#038048;stroke-width:1.0;"/><text fill="#000000" font-family="sans-serif" font-size="14" lengthAdjust="spacing" textLength="108" x="1152" y="390.5151">find(Item) : long</text><ellipse cx="1143" cy="403.4653" fill="#84BE84" rx="3" ry="3" style="stroke:#038048;stroke-width:1.0;"/><text fill="#000000" font-family="sans-serif" font-size="14" lengthAdjust="spacing" textLength="76" x="1152" y="406.812">top() : Item</text><ellipse cx="1143" cy="419.7622" fill="#84BE84" rx="3" ry="3" style="stroke:#038048;stroke-width:1.0;"/><text fill="#000000" font-family="sans-serif" font-size="14" lengthAdjust="spacing" textLength="116" x="1152" y="423.1089">push(Item) : void</text><ellipse cx="1143" cy="436.0591" fill="#84BE84" rx="3" ry="3" style="stroke:#038048;stroke-width:1.0;"/><text fill="#000000" font-family="sans-serif" font-size="14" lengthAdjust="spacing" textLength="80" x="1152" y="439.4057">pop() : Item</text></g><!--class Iterator--><g id="elem_Iterator"><rect codeLine="9" fill="#F1F1F1" height="113.1875" id="Iterator" rx="2.5" ry="2.5" style="stroke:#181818;stroke-width:0.5;" width="159" x="606" y="392.2969"/><ellipse cx="641.25" cy="408.2969" fill="#A9DCDF" rx="11" ry="11" style="stroke:#181818;stroke-width:1.0;"/><path d="M641.3594,403.6406 L640.2031,408.7188 L642.5313,408.7188 L641.3594,403.6406 Z M639.875,401.4063 L642.8594,401.4063 L646.2188,413.7969 L643.7656,413.7969 L643,410.7344 L639.7188,410.7344 L638.9688,413.7969 L636.5313,413.7969 L639.875,401.4063 Z " fill="#000000"/><text fill="#000000" font-family="sans-serif" font-size="14" font-style="italic" lengthAdjust="spacing" textLength="50" x="659.75" y="413.1436">Iterator</text><rect fill="#FFFFFF" height="15.9688" style="stroke:#181818;stroke-width:1.0;stroke-dasharray:2.0,2.0;" width="30" x="738" y="389.2969"/><text fill="#000000" font-family="sans-serif" font-size="12" font-style="italic" lengthAdjust="spacing" textLength="28" x="739" y="401.4355">Item</text><line style="stroke:#181818;stroke-width:0.5;" x1="607" x2="764" y1="424.2969" y2="424.2969"/><line style="stroke:#181818;stroke-width:0.5;" x1="607" x2="764" y1="432.2969" y2="432.2969"/><ellipse cx="617" cy="445.9453" fill="#84BE84" rx="3" ry="3" style="stroke:#038048;stroke-width:1.0;"/><text fill="#000000" font-family="sans-serif" font-size="14" lengthAdjust="spacing" textLength="76" x="626" y="449.292">first() : void</text><ellipse cx="617" cy="462.2422" fill="#84BE84" rx="3" ry="3" style="stroke:#038048;stroke-width:1.0;"/><text fill="#000000" font-family="sans-serif" font-size="14" lengthAdjust="spacing" textLength="81" x="626" y="465.5889">next() : void</text><ellipse cx="617" cy="478.5391" fill="#84BE84" rx="3" ry="3" style="stroke:#038048;stroke-width:1.0;"/><text fill="#000000" font-family="sans-serif" font-size="14" lengthAdjust="spacing" textLength="107" x="626" y="481.8857">is_done() : bool</text><ellipse cx="617" cy="494.8359" fill="#84BE84" rx="3" ry="3" style="stroke:#038048;stroke-width:1.0;"/><text fill="#000000" font-family="sans-serif" font-size="14" lengthAdjust="spacing" textLength="133" x="626" y="498.1826">currentItem() : Item</text></g><!--class NullIterator--><g id="elem_NullIterator"><rect codeLine="10" fill="#F1F1F1" height="113.1875" id="NullIterator" rx="2.5" ry="2.5" style="stroke:#181818;stroke-width:0.5;" width="159" x="869" y="47.2969"/><ellipse cx="893.45" cy="63.2969" fill="#ADD1B2" rx="11" ry="11" style="stroke:#181818;stroke-width:1.0;"/><path d="M896.4188,68.9375 Q895.8406,69.2344 895.2,69.375 Q894.5594,69.5313 893.8563,69.5313 Q891.3563,69.5313 890.0281,67.8906 Q888.7156,66.2344 888.7156,63.1094 Q888.7156,59.9844 890.0281,58.3281 Q891.3563,56.6719 893.8563,56.6719 Q894.5594,56.6719 895.2,56.8281 Q895.8563,56.9844 896.4188,57.2813 L896.4188,60 Q895.7938,59.4219 895.2,59.1563 Q894.6063,58.875 893.9813,58.875 Q892.6375,58.875 891.95,59.9531 Q891.2625,61.0156 891.2625,63.1094 Q891.2625,65.2031 891.95,66.2813 Q892.6375,67.3438 893.9813,67.3438 Q894.6063,67.3438 895.2,67.0781 Q895.7938,66.7969 896.4188,66.2188 L896.4188,68.9375 Z " fill="#000000"/><text fill="#000000" font-family="sans-serif" font-size="14" lengthAdjust="spacing" textLength="74" x="909.55" y="68.1436">NullIterator</text><rect fill="#FFFFFF" height="15.9688" style="stroke:#181818;stroke-width:1.0;stroke-dasharray:2.0,2.0;" width="30" x="1001" y="44.2969"/><text fill="#000000" font-family="sans-serif" font-size="12" font-style="italic" lengthAdjust="spacing" textLength="28" x="1002" y="56.4355">Item</text><line style="stroke:#181818;stroke-width:0.5;" x1="870" x2="1027" y1="79.2969" y2="79.2969"/><line style="stroke:#181818;stroke-width:0.5;" x1="870" x2="1027" y1="87.2969" y2="87.2969"/><ellipse cx="880" cy="100.9453" fill="#84BE84" rx="3" ry="3" style="stroke:#038048;stroke-width:1.0;"/><text fill="#000000" font-family="sans-serif" font-size="14" lengthAdjust="spacing" textLength="76" x="889" y="104.292">first() : void</text><ellipse cx="880" cy="117.2422" fill="#84BE84" rx="3" ry="3" style="stroke:#038048;stroke-width:1.0;"/><text fill="#000000" font-family="sans-serif" font-size="14" lengthAdjust="spacing" textLength="81" x="889" y="120.5889">next() : void</text><ellipse cx="880" cy="133.5391" fill="#84BE84" rx="3" ry="3" style="stroke:#038048;stroke-width:1.0;"/><text fill="#000000" font-family="sans-serif" font-size="14" lengthAdjust="spacing" textLength="107" x="889" y="136.8857">is_done() : bool</text><ellipse cx="880" cy="149.8359" fill="#84BE84" rx="3" ry="3" style="stroke:#038048;stroke-width:1.0;"/><text fill="#000000" font-family="sans-serif" font-size="14" lengthAdjust="spacing" textLength="133" x="889" y="153.1826">currentItem() : Item</text></g><!--class ListIterator--><g id="elem_ListIterator"><rect codeLine="11" fill="#F1F1F1" height="145.7813" id="ListIterator" rx="2.5" ry="2.5" style="stroke:#181818;stroke-width:0.5;" width="159" x="869" y="194.9969"/><ellipse cx="894.35" cy="210.9969" fill="#ADD1B2" rx="11" ry="11" style="stroke:#181818;stroke-width:1.0;"/><path d="M897.3188,216.6375 Q896.7406,216.9344 896.1,217.075 Q895.4594,217.2312 894.7563,217.2312 Q892.2563,217.2312 890.9281,215.5906 Q889.6156,213.9344 889.6156,210.8094 Q889.6156,207.6844 890.9281,206.0281 Q892.2563,204.3719 894.7563,204.3719 Q895.4594,204.3719 896.1,204.5281 Q896.7563,204.6844 897.3188,204.9812 L897.3188,207.7 Q896.6938,207.1219 896.1,206.8562 Q895.5063,206.575 894.8813,206.575 Q893.5375,206.575 892.85,207.6531 Q892.1625,208.7156 892.1625,210.8094 Q892.1625,212.9031 892.85,213.9812 Q893.5375,215.0437 894.8813,215.0437 Q895.5063,215.0437 896.1,214.7781 Q896.6938,214.4969 897.3188,213.9187 L897.3188,216.6375 Z " fill="#000000"/><text fill="#000000" font-family="sans-serif" font-size="14" lengthAdjust="spacing" textLength="72" x="910.65" y="215.8436">ListIterator</text><rect fill="#FFFFFF" height="15.9688" style="stroke:#181818;stroke-width:1.0;stroke-dasharray:2.0,2.0;" width="30" x="1001" y="191.9969"/><text fill="#000000" font-family="sans-serif" font-size="12" font-style="italic" lengthAdjust="spacing" textLength="28" x="1002" y="204.1355">Item</text><line style="stroke:#181818;stroke-width:0.5;" x1="870" x2="1027" y1="226.9969" y2="226.9969"/><rect fill="none" height="6" style="stroke:#C82930;stroke-width:1.0;" width="6" x="877" y="237.6453"/><text fill="#000000" font-family="sans-serif" font-size="14" lengthAdjust="spacing" textLength="109" x="889" y="243.992">list : List&lt;Item&gt;</text><rect fill="none" height="6" style="stroke:#C82930;stroke-width:1.0;" width="6" x="877" y="253.9422"/><text fill="#000000" font-family="sans-serif" font-size="14" lengthAdjust="spacing" textLength="93" x="889" y="260.2889">current : long</text><line style="stroke:#181818;stroke-width:0.5;" x1="870" x2="1027" y1="267.5906" y2="267.5906"/><ellipse cx="880" cy="281.2391" fill="#84BE84" rx="3" ry="3" style="stroke:#038048;stroke-width:1.0;"/><text fill="#000000" font-family="sans-serif" font-size="14" lengthAdjust="spacing" textLength="76" x="889" y="284.5857">first() : void</text><ellipse cx="880" cy="297.5359" fill="#84BE84" rx="3" ry="3" style="stroke:#038048;stroke-width:1.0;"/><text fill="#000000" font-family="sans-serif" font-size="14" lengthAdjust="spacing" textLength="81" x="889" y="300.8826">next() : void</text><ellipse cx="880" cy="313.8328" fill="#84BE84" rx="3" ry="3" style="stroke:#038048;stroke-width:1.0;"/><text fill="#000000" font-family="sans-serif" font-size="14" lengthAdjust="spacing" textLength="107" x="889" y="317.1795">is_done() : bool</text><ellipse cx="880" cy="330.1297" fill="#84BE84" rx="3" ry="3" style="stroke:#038048;stroke-width:1.0;"/><text fill="#000000" font-family="sans-serif" font-size="14" lengthAdjust="spacing" textLength="133" x="889" y="333.4764">currentItem() : Item</text></g><!--class ReverseListIterator--><g id="elem_ReverseListIterator"><rect codeLine="12" fill="#F1F1F1" height="145.7813" id="ReverseListIterator" rx="2.5" ry="2.5" style="stroke:#181818;stroke-width:0.5;" width="193" x="852" y="375.9969"/><ellipse cx="867" cy="391.9969" fill="#ADD1B2" rx="11" ry="11" style="stroke:#181818;stroke-width:1.0;"/><path d="M869.9688,397.6375 Q869.3906,397.9344 868.75,398.075 Q868.1094,398.2313 867.4063,398.2313 Q864.9063,398.2313 863.5781,396.5906 Q862.2656,394.9344 862.2656,391.8094 Q862.2656,388.6844 863.5781,387.0281 Q864.9063,385.3719 867.4063,385.3719 Q868.1094,385.3719 868.75,385.5281 Q869.4063,385.6844 869.9688,385.9813 L869.9688,388.7 Q869.3438,388.1219 868.75,387.8563 Q868.1563,387.575 867.5313,387.575 Q866.1875,387.575 865.5,388.6531 Q864.8125,389.7156 864.8125,391.8094 Q864.8125,393.9031 865.5,394.9813 Q866.1875,396.0438 867.5313,396.0438 Q868.1563,396.0438 868.75,395.7781 Q869.3438,395.4969 869.9688,394.9188 L869.9688,397.6375 Z " fill="#000000"/><text fill="#000000" font-family="sans-serif" font-size="14" lengthAdjust="spacing" textLength="129" x="881" y="396.8436">ReverseListIterator</text><rect fill="#FFFFFF" height="15.9688" style="stroke:#181818;stroke-width:1.0;stroke-dasharray:2.0,2.0;" width="30" x="1018" y="372.9969"/><text fill="#000000" font-family="sans-serif" font-size="12" font-style="italic" lengthAdjust="spacing" textLength="28" x="1019" y="385.1355">Item</text><line style="stroke:#181818;stroke-width:0.5;" x1="853" x2="1044" y1="407.9969" y2="407.9969"/><rect fill="none" height="6" style="stroke:#C82930;stroke-width:1.0;" width="6" x="860" y="418.6453"/><text fill="#000000" font-family="sans-serif" font-size="14" lengthAdjust="spacing" textLength="109" x="872" y="424.992">list : List&lt;Item&gt;</text><rect fill="none" height="6" style="stroke:#C82930;stroke-width:1.0;" width="6" x="860" y="434.9422"/><text fill="#000000" font-family="sans-serif" font-size="14" lengthAdjust="spacing" textLength="93" x="872" y="441.2889">current : long</text><line style="stroke:#181818;stroke-width:0.5;" x1="853" x2="1044" y1="448.5906" y2="448.5906"/><ellipse cx="863" cy="462.2391" fill="#84BE84" rx="3" ry="3" style="stroke:#038048;stroke-width:1.0;"/><text fill="#000000" font-family="sans-serif" font-size="14" lengthAdjust="spacing" textLength="76" x="872" y="465.5857">first() : void</text><ellipse cx="863" cy="478.5359" fill="#84BE84" rx="3" ry="3" style="stroke:#038048;stroke-width:1.0;"/><text fill="#000000" font-family="sans-serif" font-size="14" lengthAdjust="spacing" textLength="81" x="872" y="481.8826">next() : void</text><ellipse cx="863" cy="494.8328" fill="#84BE84" rx="3" ry="3" style="stroke:#038048;stroke-width:1.0;"/><text fill="#000000" font-family="sans-serif" font-size="14" lengthAdjust="spacing" textLength="107" x="872" y="498.1795">is_done() : bool</text><ellipse cx="863" cy="511.1297" fill="#84BE84" rx="3" ry="3" style="stroke:#038048;stroke-width:1.0;"/><text fill="#000000" font-family="sans-serif" font-size="14" lengthAdjust="spacing" textLength="133" x="872" y="514.4764">currentItem() : Item</text></g><!--class Employee--><g id="elem_Employee"><rect codeLine="14" fill="#F1F1F1" height="80.5938" id="Employee" rx="2.5" ry="2.5" style="stroke:#181818;stroke-width:0.5;" width="118" x="346.5" y="737.5969"/><ellipse cx="369.6" cy="753.5969" fill="#ADD1B2" rx="11" ry="11" style="stroke:#181818;stroke-width:1.0;"/><path d="M372.5688,759.2375 Q371.9906,759.5344 371.35,759.675 Q370.7094,759.8313 370.0063,759.8313 Q367.5063,759.8313 366.1781,758.1906 Q364.8656,756.5344 364.8656,753.4094 Q364.8656,750.2844 366.1781,748.6281 Q367.5063,746.9719 370.0063,746.9719 Q370.7094,746.9719 371.35,747.1281 Q372.0063,747.2844 372.5688,747.5813 L372.5688,750.3 Q371.9438,749.7219 371.35,749.4563 Q370.7563,749.175 370.1313,749.175 Q368.7875,749.175 368.1,750.2531 Q367.4125,751.3156 367.4125,753.4094 Q367.4125,755.5031 368.1,756.5813 Q368.7875,757.6438 370.1313,757.6438 Q370.7563,757.6438 371.35,757.3781 Q371.9438,757.0969 372.5688,756.5188 L372.5688,759.2375 Z " fill="#000000"/><text fill="#000000" font-family="sans-serif" font-size="14" lengthAdjust="spacing" textLength="68" x="385.4" y="758.4436">Employee</text><line style="stroke:#181818;stroke-width:0.5;" x1="347.5" x2="463.5" y1="769.5969" y2="769.5969"/><rect fill="none" height="6" style="stroke:#C82930;stroke-width:1.0;" width="6" x="354.5" y="780.2453"/><text fill="#000000" font-family="sans-serif" font-size="14" lengthAdjust="spacing" textLength="92" x="366.5" y="786.592">name : String</text><rect fill="none" height="6" style="stroke:#C82930;stroke-width:1.0;" width="6" x="354.5" y="796.5422"/><text fill="#000000" font-family="sans-serif" font-size="14" lengthAdjust="spacing" textLength="56" x="366.5" y="802.8889">age : int</text><line style="stroke:#181818;stroke-width:0.5;" x1="347.5" x2="463.5" y1="810.1906" y2="810.1906"/></g><!--class EmployeePrint--><g id="elem_EmployeePrint"><rect codeLine="15" fill="#F1F1F1" height="96.8906" id="EmployeePrint" rx="2.5" ry="2.5" style="stroke:#181818;stroke-width:0.5;" width="190" x="310.5" y="419.4469"/><ellipse cx="352.05" cy="435.4469" fill="#ADD1B2" rx="11" ry="11" style="stroke:#181818;stroke-width:1.0;"/><path d="M355.0188,441.0875 Q354.4406,441.3844 353.8,441.525 Q353.1594,441.6813 352.4563,441.6813 Q349.9563,441.6813 348.6281,440.0406 Q347.3156,438.3844 347.3156,435.2594 Q347.3156,432.1344 348.6281,430.4781 Q349.9563,428.8219 352.4563,428.8219 Q353.1594,428.8219 353.8,428.9781 Q354.4563,429.1344 355.0188,429.4313 L355.0188,432.15 Q354.3938,431.5719 353.8,431.3063 Q353.2063,431.025 352.5813,431.025 Q351.2375,431.025 350.55,432.1031 Q349.8625,433.1656 349.8625,435.2594 Q349.8625,437.3531 350.55,438.4313 Q351.2375,439.4938 352.5813,439.4938 Q353.2063,439.4938 353.8,439.2281 Q354.3938,438.9469 355.0188,438.3688 L355.0188,441.0875 Z " fill="#000000"/><text fill="#000000" font-family="sans-serif" font-size="14" lengthAdjust="spacing" textLength="99" x="371.95" y="440.2936">EmployeePrint</text><line style="stroke:#181818;stroke-width:0.5;" x1="311.5" x2="499.5" y1="451.4469" y2="451.4469"/><rect fill="none" height="6" style="stroke:#C82930;stroke-width:1.0;" width="6" x="318.5" y="462.0953"/><text fill="#000000" font-family="sans-serif" font-size="14" lengthAdjust="spacing" textLength="60" x="330.5" y="468.442">total : int</text><rect fill="none" height="6" style="stroke:#C82930;stroke-width:1.0;" width="6" x="318.5" y="478.3922"/><text fill="#000000" font-family="sans-serif" font-size="14" lengthAdjust="spacing" textLength="70" x="330.5" y="484.7389">count : int</text><line style="stroke:#181818;stroke-width:0.5;" x1="311.5" x2="499.5" y1="492.0406" y2="492.0406"/><ellipse cx="321.5" cy="505.6891" fill="#84BE84" rx="3" ry="3" style="stroke:#038048;stroke-width:1.0;"/><text fill="#000000" font-family="sans-serif" font-size="14" lengthAdjust="spacing" textLength="164" x="330.5" y="509.0357">processItem(Employee)</text></g><!--class IteratorPtr--><g id="elem_IteratorPtr"><rect codeLine="16" fill="#F1F1F1" height="162.0781" id="IteratorPtr" rx="2.5" ry="2.5" style="stroke:#181818;stroke-width:0.5;" width="247" x="825" y="556.8469"/><ellipse cx="894.25" cy="572.8469" fill="#ADD1B2" rx="11" ry="11" style="stroke:#181818;stroke-width:1.0;"/><path d="M897.2188,578.4875 Q896.6406,578.7844 896,578.925 Q895.3594,579.0813 894.6563,579.0813 Q892.1563,579.0813 890.8281,577.4406 Q889.5156,575.7844 889.5156,572.6594 Q889.5156,569.5344 890.8281,567.8781 Q892.1563,566.2219 894.6563,566.2219 Q895.3594,566.2219 896,566.3781 Q896.6563,566.5344 897.2188,566.8313 L897.2188,569.55 Q896.5938,568.9719 896,568.7063 Q895.4063,568.425 894.7813,568.425 Q893.4375,568.425 892.75,569.5031 Q892.0625,570.5656 892.0625,572.6594 Q892.0625,574.7531 892.75,575.8313 Q893.4375,576.8938 894.7813,576.8938 Q895.4063,576.8938 896,576.6281 Q896.5938,576.3469 897.2188,575.7688 L897.2188,578.4875 Z " fill="#000000"/><text fill="#000000" font-family="sans-serif" font-size="14" lengthAdjust="spacing" textLength="68" x="914.75" y="577.6936">IteratorPtr</text><rect fill="#FFFFFF" height="15.9688" style="stroke:#181818;stroke-width:1.0;stroke-dasharray:2.0,2.0;" width="30" x="1045" y="553.8469"/><text fill="#000000" font-family="sans-serif" font-size="12" font-style="italic" lengthAdjust="spacing" textLength="28" x="1046" y="565.9855">Item</text><line style="stroke:#181818;stroke-width:0.5;" x1="826" x2="1071" y1="588.8469" y2="588.8469"/><rect fill="none" height="6" style="stroke:#C82930;stroke-width:1.0;" width="6" x="833" y="599.4953"/><text fill="#000000" font-family="sans-serif" font-size="14" lengthAdjust="spacing" textLength="165" x="845" y="605.842">iterator : Iterator&lt;Item&gt;</text><line style="stroke:#181818;stroke-width:0.5;" x1="826" x2="1071" y1="613.1438" y2="613.1438"/><ellipse cx="836" cy="626.7922" fill="#84BE84" rx="3" ry="3" style="stroke:#038048;stroke-width:1.0;"/><text fill="#000000" font-family="sans-serif" font-size="14" lengthAdjust="spacing" textLength="76" x="845" y="630.1389">first() : void</text><ellipse cx="836" cy="643.0891" fill="#84BE84" rx="3" ry="3" style="stroke:#038048;stroke-width:1.0;"/><text fill="#000000" font-family="sans-serif" font-size="14" lengthAdjust="spacing" textLength="81" x="845" y="646.4357">next() : void</text><ellipse cx="836" cy="659.3859" fill="#84BE84" rx="3" ry="3" style="stroke:#038048;stroke-width:1.0;"/><text fill="#000000" font-family="sans-serif" font-size="14" lengthAdjust="spacing" textLength="107" x="845" y="662.7326">is_done() : bool</text><ellipse cx="836" cy="675.6828" fill="#84BE84" rx="3" ry="3" style="stroke:#038048;stroke-width:1.0;"/><text fill="#000000" font-family="sans-serif" font-size="14" lengthAdjust="spacing" textLength="133" x="845" y="679.0295">currentItem() : Item</text><ellipse cx="836" cy="691.9797" fill="#84BE84" rx="3" ry="3" style="stroke:#038048;stroke-width:1.0;"/><text fill="#000000" font-family="sans-serif" font-size="14" lengthAdjust="spacing" textLength="221" x="845" y="695.3264">operator-&gt;() : IteratorPtr&lt;Item&gt;</text><ellipse cx="836" cy="708.2766" fill="#84BE84" rx="3" ry="3" style="stroke:#038048;stroke-width:1.0;"/><text fill="#000000" font-family="sans-serif" font-size="14" lengthAdjust="spacing" textLength="216" x="845" y="711.6232">operator&amp;() : IteratorPtr&lt;Item&gt;</text></g><!--class FilteredListtraversal--><g id="elem_FilteredListtraversal"><rect codeLine="18" fill="#F1F1F1" height="113.1875" id="FilteredListtraversal" rx="2.5" ry="2.5" style="stroke:#181818;stroke-width:0.5;" width="196" x="9" y="559.2969"/><ellipse cx="24" cy="575.2969" fill="#A9DCDF" rx="11" ry="11" style="stroke:#181818;stroke-width:1.0;"/><path d="M24.1094,570.6406 L22.9531,575.7188 L25.2813,575.7188 L24.1094,570.6406 Z M22.625,568.4063 L25.6094,568.4063 L28.9688,580.7969 L26.5156,580.7969 L25.75,577.7344 L22.4688,577.7344 L21.7188,580.7969 L19.2813,580.7969 L22.625,568.4063 Z " fill="#000000"/><text fill="#000000" font-family="sans-serif" font-size="14" font-style="italic" lengthAdjust="spacing" textLength="132" x="38" y="580.1436">FilteredListtraversal</text><rect fill="#FFFFFF" height="15.9688" style="stroke:#181818;stroke-width:1.0;stroke-dasharray:2.0,2.0;" width="30" x="178" y="556.2969"/><text fill="#000000" font-family="sans-serif" font-size="12" font-style="italic" lengthAdjust="spacing" textLength="28" x="179" y="568.4355">Item</text><line style="stroke:#181818;stroke-width:0.5;" x1="10" x2="204" y1="591.2969" y2="591.2969"/><rect fill="none" height="6" style="stroke:#C82930;stroke-width:1.0;" width="6" x="17" y="601.9453"/><text fill="#000000" font-family="sans-serif" font-size="14" lengthAdjust="spacing" textLength="103" x="29" y="608.292">iterator&lt;Item&gt;</text><line style="stroke:#181818;stroke-width:0.5;" x1="10" x2="204" y1="615.5938" y2="615.5938"/><ellipse cx="20" cy="629.2422" fill="#84BE84" rx="3" ry="3" style="stroke:#038048;stroke-width:1.0;"/><text fill="#000000" font-family="sans-serif" font-size="14" lengthAdjust="spacing" textLength="109" x="29" y="632.5889">traverse() : bool</text><polygon fill="#FFFF44" points="20,640.5391,24,644.5391,20,648.5391,16,644.5391" style="stroke:#B38D22;stroke-width:1.0;"/><text fill="#000000" font-family="sans-serif" font-size="14" lengthAdjust="spacing" textLength="169" x="29" y="648.8857">processItem(Item) : bool</text><text fill="#000000" font-family="sans-serif" font-size="14" lengthAdjust="spacing" textLength="140" x="29" y="665.1826">testItem(Item) : bool</text></g><!--class EmployeeFilteredTraverser--><g id="elem_EmployeeFilteredTraverser"><rect codeLine="19" fill="#F1F1F1" height="80.5938" id="EmployeeFilteredTraverser" rx="2.5" ry="2.5" style="stroke:#181818;stroke-width:0.5;" width="281" x="265" y="621.5969"/><ellipse cx="280" cy="637.5969" fill="#ADD1B2" rx="11" ry="11" style="stroke:#181818;stroke-width:1.0;"/><path d="M282.9688,643.2375 Q282.3906,643.5344 281.75,643.675 Q281.1094,643.8313 280.4063,643.8313 Q277.9063,643.8313 276.5781,642.1906 Q275.2656,640.5344 275.2656,637.4094 Q275.2656,634.2844 276.5781,632.6281 Q277.9063,630.9719 280.4063,630.9719 Q281.1094,630.9719 281.75,631.1281 Q282.4063,631.2844 282.9688,631.5813 L282.9688,634.3 Q282.3438,633.7219 281.75,633.4563 Q281.1563,633.175 280.5313,633.175 Q279.1875,633.175 278.5,634.2531 Q277.8125,635.3156 277.8125,637.4094 Q277.8125,639.5031 278.5,640.5813 Q279.1875,641.6438 280.5313,641.6438 Q281.1563,641.6438 281.75,641.3781 Q282.3438,641.0969 282.9688,640.5188 L282.9688,643.2375 Z " fill="#000000"/><text fill="#000000" font-family="sans-serif" font-size="14" lengthAdjust="spacing" textLength="184" x="294" y="642.4436">EmployeeFilteredTraverser</text><rect fill="#FFFFFF" height="15.9688" style="stroke:#181818;stroke-width:1.0;stroke-dasharray:2.0,2.0;" width="63" x="486" y="618.5969"/><text fill="#000000" font-family="sans-serif" font-size="12" font-style="italic" lengthAdjust="spacing" textLength="61" x="487" y="630.7355">Employee</text><line style="stroke:#181818;stroke-width:0.5;" x1="266" x2="545" y1="653.5969" y2="653.5969"/><line style="stroke:#181818;stroke-width:0.5;" x1="266" x2="545" y1="661.5969" y2="661.5969"/><ellipse cx="276" cy="675.2453" fill="#84BE84" rx="3" ry="3" style="stroke:#038048;stroke-width:1.0;"/><text fill="#000000" font-family="sans-serif" font-size="14" lengthAdjust="spacing" textLength="207" x="285" y="678.592">processItem(Employee) : bool</text><ellipse cx="276" cy="691.5422" fill="#84BE84" rx="3" ry="3" style="stroke:#038048;stroke-width:1.0;"/><text fill="#000000" font-family="sans-serif" font-size="14" lengthAdjust="spacing" textLength="178" x="285" y="694.8889">testItem(Employee) : bool</text></g><!--class ListTraverser--><g id="elem_ListTraverser"><rect codeLine="21" fill="#F1F1F1" height="113.1875" id="ListTraverser" rx="2.5" ry="2.5" style="stroke:#181818;stroke-width:0.5;" width="214" x="298.5" y="271.2969"/><ellipse cx="341.4" cy="287.2969" fill="#ADD1B2" rx="11" ry="11" style="stroke:#181818;stroke-width:1.0;"/><path d="M344.3688,292.9375 Q343.7906,293.2344 343.15,293.375 Q342.5094,293.5313 341.8063,293.5313 Q339.3063,293.5313 337.9781,291.8906 Q336.6656,290.2344 336.6656,287.1094 Q336.6656,283.9844 337.9781,282.3281 Q339.3063,280.6719 341.8063,280.6719 Q342.5094,280.6719 343.15,280.8281 Q343.8063,280.9844 344.3688,281.2813 L344.3688,284 Q343.7438,283.4219 343.15,283.1563 Q342.5563,282.875 341.9313,282.875 Q340.5875,282.875 339.9,283.9531 Q339.2125,285.0156 339.2125,287.1094 Q339.2125,289.2031 339.9,290.2813 Q340.5875,291.3438 341.9313,291.3438 Q342.5563,291.3438 343.15,291.0781 Q343.7438,290.7969 344.3688,290.2188 L344.3688,292.9375 Z " fill="#000000"/><text fill="#000000" font-family="sans-serif" font-size="14" lengthAdjust="spacing" textLength="88" x="361.6" y="292.1436">ListTraverser</text><rect fill="#FFFFFF" height="15.9688" style="stroke:#181818;stroke-width:1.0;stroke-dasharray:2.0,2.0;" width="30" x="485.5" y="268.2969"/><text fill="#000000" font-family="sans-serif" font-size="12" font-style="italic" lengthAdjust="spacing" textLength="28" x="486.5" y="280.4355">Item</text><line style="stroke:#181818;stroke-width:0.5;" x1="299.5" x2="511.5" y1="303.2969" y2="303.2969"/><rect fill="none" height="6" style="stroke:#C82930;stroke-width:1.0;" width="6" x="306.5" y="313.9453"/><text fill="#000000" font-family="sans-serif" font-size="14" lengthAdjust="spacing" textLength="142" x="318.5" y="320.292">action : bool(*)(Item)</text><rect fill="none" height="6" style="stroke:#C82930;stroke-width:1.0;" width="6" x="306.5" y="330.2422"/><text fill="#000000" font-family="sans-serif" font-size="14" lengthAdjust="spacing" textLength="188" x="318.5" y="336.5889">iterator : ListIterator&lt;Item&gt;</text><line style="stroke:#181818;stroke-width:0.5;" x1="299.5" x2="511.5" y1="343.8906" y2="343.8906"/><ellipse cx="309.5" cy="357.5391" fill="#84BE84" rx="3" ry="3" style="stroke:#038048;stroke-width:1.0;"/><text fill="#000000" font-family="sans-serif" font-size="14" lengthAdjust="spacing" textLength="109" x="318.5" y="360.8857">traverse() : bool</text><ellipse cx="309.5" cy="373.8359" fill="#84BE84" rx="3" ry="3" style="stroke:#038048;stroke-width:1.0;"/><text fill="#000000" font-family="sans-serif" font-size="14" lengthAdjust="spacing" textLength="169" x="318.5" y="377.1826">processItem(Item) : bool</text></g><!--reverse link Iterator to ListIterator--><g id="link_Iterator_ListIterator"><path codeLine="95" d="M712,374.0169 C712,334.1869 712,306.0369 712,306.0369 C712,306.0369 800.1,306.0369 868.76,306.0369 " fill="none" id="Iterator-backto-ListIterator" style="stroke:#181818;stroke-width:1.0;"/><polygon fill="none" points="712,392.0169,718,374.0169,706,374.0169,712,392.0169" style="stroke:#181818;stroke-width:1.0;"/></g><!--reverse link Iterator to ReverseListIterator--><g id="link_Iterator_ReverseListIterator"><path codeLine="96" d="M783.48,420.5969 C810.68,420.5969 823.38,420.5969 851.75,420.5969 " fill="none" id="Iterator-backto-ReverseListIterator" style="stroke:#181818;stroke-width:1.0;"/><polygon fill="none" points="765.48,420.5969,783.48,426.5969,783.48,414.5969,765.48,420.5969" style="stroke:#181818;stroke-width:1.0;"/></g><!--reverse link Iterator to NullIterator--><g id="link_Iterator_NullIterator"><path codeLine="97" d="M659,373.9169 C659,275.9269 659,103.8869 659,103.8869 C659,103.8869 782.94,103.8869 868.63,103.8869 " fill="none" id="Iterator-backto-NullIterator" style="stroke:#181818;stroke-width:1.0;"/><polygon fill="none" points="659,391.9169,665,373.9169,653,373.9169,659,391.9169" style="stroke:#181818;stroke-width:1.0;"/></g><!--reverse link Iterator to IteratorPtr--><g id="link_Iterator_IteratorPtr"><path codeLine="98" d="M783.4,477.1869 C818.55,477.1869 834,477.1869 834,477.1869 C834,477.1869 834,516.7369 834,556.5969 " fill="none" id="Iterator-backto-IteratorPtr" style="stroke:#181818;stroke-width:1.0;"/><polygon fill="none" points="765.4,477.1869,783.4,483.1869,783.4,471.1869,765.4,477.1869" style="stroke:#181818;stroke-width:1.0;"/></g><!--link IteratorPtr to Iterator--><g id="link_IteratorPtr_Iterator"><path codeLine="103" d="M843,544.3669 C843,493.2169 843,448.8869 843,448.8869 C843,448.8869 810.24,448.8869 771.17,448.8869 " fill="none" id="IteratorPtr-Iterator" style="stroke:#181818;stroke-width:1.0;"/><polygon fill="none" points="843,556.3669,847,550.3669,843,544.3669,839,550.3669,843,556.3669" style="stroke:#181818;stroke-width:1.0;"/><polygon fill="#181818" points="765.17,448.8869,774.17,452.8869,770.17,448.8869,774.17,444.8869,765.17,448.8869" style="stroke:#181818;stroke-width:1.0;"/><text fill="#000000" font-family="sans-serif" font-size="13" lengthAdjust="spacing" textLength="47" x="784.9141" y="545.7894">iterator</text></g><!--reverse link ListTraverser to EmployeePrint--><g id="link_ListTraverser_EmployeePrint"><path codeLine="100" d="M405.5,402.8369 C405.5,414.1869 405.5,408.0169 405.5,419.0769 " fill="none" id="ListTraverser-backto-EmployeePrint" style="stroke:#181818;stroke-width:1.0;"/><polygon fill="none" points="405.5,384.8369,399.5,402.8369,411.5,402.8369,405.5,384.8369" style="stroke:#181818;stroke-width:1.0;"/></g><!--link ListIterator to List--><g id="link_ListIterator_List"><path codeLine="102" d="M1040.2,267.8869 C1072.62,267.8869 1092.24,267.8869 1125.63,267.8869 " fill="none" id="ListIterator-List" style="stroke:#181818;stroke-width:1.0;"/><polygon fill="#181818" points="1028.2,267.8869,1034.2,271.8869,1040.2,267.8869,1034.2,263.8869,1028.2,267.8869" style="stroke:#181818;stroke-width:1.0;"/><polygon fill="#181818" points="1131.63,267.8869,1122.63,263.8869,1126.63,267.8869,1122.63,271.8869,1131.63,267.8869" style="stroke:#181818;stroke-width:1.0;"/><text fill="#000000" font-family="sans-serif" font-size="13" lengthAdjust="spacing" textLength="18" x="1036.0998" y="280.6276">list</text></g><!--reverse link FilteredListtraversal to EmployeeFilteredTraverser--><g id="link_FilteredListtraversal_EmployeeFilteredTraverser"><path codeLine="105" d="M223.15,647.0369 C242.19,647.0369 244.48,647.0369 264.57,647.0369 " fill="none" id="FilteredListtraversal-backto-EmployeeFilteredTraverser" style="stroke:#181818;stroke-width:1.0;"/><polygon fill="none" points="205.15,647.0369,223.15,653.0369,223.15,641.0369,205.15,647.0369" style="stroke:#181818;stroke-width:1.0;"/></g><!--link FilteredListtraversal to Iterator--><g id="link_FilteredListtraversal_Iterator"><path codeLine="107" d="M217.46,590.4469 C382.6,590.4469 685.5,590.4469 685.5,590.4469 C685.5,590.4469 685.5,551.0269 685.5,511.6469 " fill="none" id="FilteredListtraversal-Iterator" style="stroke:#181818;stroke-width:1.0;"/><polygon fill="#181818" points="205.46,590.4469,211.46,594.4469,217.46,590.4469,211.46,586.4469,205.46,590.4469" style="stroke:#181818;stroke-width:1.0;"/><polygon fill="#181818" points="685.5,505.6469,681.5,514.6469,685.5,510.6469,689.5,514.6469,685.5,505.6469" style="stroke:#181818;stroke-width:1.0;"/><text fill="#000000" font-family="sans-serif" font-size="13" lengthAdjust="spacing" textLength="47" x="212.8919" y="601.4244">iterator</text></g><!--link ListTraverser to Iterator--><g id="link_ListTraverser_Iterator"><path codeLine="108" d="M506.5,396.9769 C506.5,408.8669 506.5,405.8669 506.5,405.8669 C506.5,405.8669 551.95,405.8669 599.68,405.8669 " fill="none" id="ListTraverser-Iterator" style="stroke:#181818;stroke-width:1.0;"/><polygon fill="#181818" points="506.5,384.9769,502.5,390.9769,506.5,396.9769,510.5,390.9769,506.5,384.9769" style="stroke:#181818;stroke-width:1.0;"/><polygon fill="#181818" points="605.68,405.8669,596.68,401.8669,600.68,405.8669,596.68,409.8669,605.68,405.8669" style="stroke:#181818;stroke-width:1.0;"/></g><!--link EmployeePrint to Employee--><g id="link_EmployeePrint_Employee"><path codeLine="110" d="M500.72,510.9069 C539.77,510.9069 576,510.9069 576,510.9069 C576,510.9069 576,777.8869 576,777.8869 C576,777.8869 519.9,777.8869 470.65,777.8869 " fill="none" id="EmployeePrint-to-Employee" style="stroke:#181818;stroke-width:1.0;stroke-dasharray:7.0,7.0;"/><polygon fill="#181818" points="464.65,777.8869,473.65,781.8869,469.65,777.8869,473.65,773.8869,464.65,777.8869" style="stroke:#181818;stroke-width:1.0;"/></g><!--link EmployeeFilteredTraverser to Employee--><g id="link_EmployeeFilteredTraverser_Employee"><path codeLine="111" d="M405.5,702.4569 C405.5,713.6969 405.5,719.8969 405.5,731.1469 " fill="none" id="EmployeeFilteredTraverser-to-Employee" style="stroke:#181818;stroke-width:1.0;stroke-dasharray:7.0,7.0;"/><polygon fill="#181818" points="405.5,737.1469,409.5,728.1469,405.5,732.1469,401.5,728.1469,405.5,737.1469" style="stroke:#181818;stroke-width:1.0;"/></g><!--SRC=[VLRRZjiW47tdAr0gLTwaxWTKKLvMhLIfgg9ktrUiFKbGCLWmINUxxRyNVC60OPzippd3p1aF0qm8zRlZproUYVd5PSyqwwZW4l2b1weqNXGHS4AAYcf-lY1jkOO6kPA484S1z2k2PgWqFJAqhv8-iAwtzdlL0Y6DOCRGRzpWtXAx0s5F1ZLha8x8x3sXe_7xLOWiuDR90Z_W1jf01fy8dsrEwWKW-JngBf74gHpH-_falt1XKMXT06jnmPY8CfXNd9a_HnRe_OmSmceiy1JA6UadMhjFOr_SqniRTPNkHIZxesQZuNyWiUtEW9Kpt2Khx4vS6wnMPfjFnihw7cHREPl3Regt7kirb44khI8Si0_KLdP5qD2f6poo9SiC_9fVVF9TbEHGBoWRLeWgatCZhYqO7_H9AH7KBT0QbHfLlwvSVpMNGjr2El6R9lerWqC8INWk8Dmyjaf2vHCEmUQgDKYt4xeWPhYhCd5JE8wTegluAI6VGxX1NG-BiJh1V4WPqpfXzTyGaSAnY1HTYKW9UH6POPFNKY0calAiL5c15Giia5Ow2xoyt60kkkpvuf2CsfXOwki9pRVs11QxUyApYIOSrO-VzM6c9DEzm7zVe9Fi6H1MP2AMUBlf8v1LehxhjMh0c45WD9TA7WW6rsnIF9N6KRu4cOdUzKrF7stbHgB3pLNdzSH1jFye6suD4w_QtesPhlb1VsMEyvIUAUgAKYoc5-dYIjQvvmDgTniA4NPs3tTH8D6zmM6eSAY_GrVWV6pdm7prWvDX_xUkemeaK6OF9unm92TGqDxfBxDuV3sYoTZUk46teNHRruSXmMWdRUR_jw7A4Nm2XTOTqYasMyahYB8DWyHIjd42iIhwyR3S2ilT7hB-0m00]--></g></svg>