<?xml version="1.0" encoding="us-ascii" standalone="no"?><svg xmlns="http://www.w3.org/2000/svg" xmlns:xlink="http://www.w3.org/1999/xlink" contentStyleType="text/css" height="381px" preserveAspectRatio="none" style="width:398px;height:381px;background:#FFFFFF;" version="1.1" viewBox="0 0 398 381" width="398px" zoomAndPan="magnify"><defs/><g><text fill="#000000" font-family="sans-serif" font-size="14" font-weight="bold" lengthAdjust="spacing" textLength="202" x="91.25" y="22.9951">Iterator Pattern Structure</text><!--class Aggregate--><g id="elem_Aggregate"><rect codeLine="8" fill="#F1F1F1" height="64.2969" id="Aggregate" rx="2.5" ry="2.5" style="stroke:#181818;stroke-width:0.5;" width="117" x="42" y="68.7369"/><ellipse cx="62.85" cy="84.7369" fill="#ADD1B2" rx="11" ry="11" style="stroke:#181818;stroke-width:1.0;"/><path d="M65.8188,90.3775 Q65.2406,90.6744 64.6,90.815 Q63.9594,90.9713 63.2563,90.9713 Q60.7563,90.9713 59.4281,89.3306 Q58.1156,87.6744 58.1156,84.5494 Q58.1156,81.4244 59.4281,79.7681 Q60.7563,78.1119 63.2563,78.1119 Q63.9594,78.1119 64.6,78.2681 Q65.2563,78.4244 65.8188,78.7213 L65.8188,81.44 Q65.1938,80.8619 64.6,80.5963 Q64.0063,80.315 63.3813,80.315 Q62.0375,80.315 61.35,81.3931 Q60.6625,82.4556 60.6625,84.5494 Q60.6625,86.6431 61.35,87.7213 Q62.0375,88.7838 63.3813,88.7838 Q64.0063,88.7838 64.6,88.5181 Q65.1938,88.2369 65.8188,87.6588 L65.8188,90.3775 Z " fill="#000000"/><text fill="#000000" font-family="sans-serif" font-size="14" lengthAdjust="spacing" textLength="72" x="78.15" y="89.5836">Aggregate</text><line style="stroke:#181818;stroke-width:0.5;" x1="43" x2="158" y1="100.7369" y2="100.7369"/><line style="stroke:#181818;stroke-width:0.5;" x1="43" x2="158" y1="108.7369" y2="108.7369"/><text fill="#000000" font-family="sans-serif" font-size="14" lengthAdjust="spacing" textLength="105" x="48" y="125.732">CreateIterator()</text></g><!--class Iterator--><g id="elem_Iterator"><rect codeLine="9" fill="#F1F1F1" height="113.1875" id="Iterator" rx="2.5" ry="2.5" style="stroke:#181818;stroke-width:0.5;" width="104" x="287.5" y="44.2969"/><ellipse cx="312.85" cy="60.2969" fill="#ADD1B2" rx="11" ry="11" style="stroke:#181818;stroke-width:1.0;"/><path d="M315.8188,65.9375 Q315.2406,66.2344 314.6,66.375 Q313.9594,66.5313 313.2563,66.5313 Q310.7563,66.5313 309.4281,64.8906 Q308.1156,63.2344 308.1156,60.1094 Q308.1156,56.9844 309.4281,55.3281 Q310.7563,53.6719 313.2563,53.6719 Q313.9594,53.6719 314.6,53.8281 Q315.2563,53.9844 315.8188,54.2813 L315.8188,57 Q315.1938,56.4219 314.6,56.1563 Q314.0063,55.875 313.3813,55.875 Q312.0375,55.875 311.35,56.9531 Q310.6625,58.0156 310.6625,60.1094 Q310.6625,62.2031 311.35,63.2813 Q312.0375,64.3438 313.3813,64.3438 Q314.0063,64.3438 314.6,64.0781 Q315.1938,63.7969 315.8188,63.2188 L315.8188,65.9375 Z " fill="#000000"/><text fill="#000000" font-family="sans-serif" font-size="14" lengthAdjust="spacing" textLength="49" x="329.15" y="65.1436">Iterator</text><line style="stroke:#181818;stroke-width:0.5;" x1="288.5" x2="390.5" y1="76.2969" y2="76.2969"/><line style="stroke:#181818;stroke-width:0.5;" x1="288.5" x2="390.5" y1="84.2969" y2="84.2969"/><text fill="#000000" font-family="sans-serif" font-size="14" lengthAdjust="spacing" textLength="39" x="293.5" y="101.292">First()</text><text fill="#000000" font-family="sans-serif" font-size="14" lengthAdjust="spacing" textLength="41" x="293.5" y="117.5889">Next()</text><text fill="#000000" font-family="sans-serif" font-size="14" lengthAdjust="spacing" textLength="59" x="293.5" y="133.8857">IsDone()</text><text fill="#000000" font-family="sans-serif" font-size="14" lengthAdjust="spacing" textLength="92" x="293.5" y="150.1826">CurrentItem()</text></g><!--class ConcreteAggregate--><g id="elem_ConcreteAggregate"><rect codeLine="10" fill="#F1F1F1" height="64.2969" id="ConcreteAggregate" rx="2.5" ry="2.5" style="stroke:#181818;stroke-width:0.5;" width="168" x="39.5" y="221.4869"/><ellipse cx="54.5" cy="237.4869" fill="#ADD1B2" rx="11" ry="11" style="stroke:#181818;stroke-width:1.0;"/><path d="M57.4688,243.1275 Q56.8906,243.4244 56.25,243.565 Q55.6094,243.7213 54.9063,243.7213 Q52.4063,243.7213 51.0781,242.0806 Q49.7656,240.4244 49.7656,237.2994 Q49.7656,234.1744 51.0781,232.5181 Q52.4063,230.8619 54.9063,230.8619 Q55.6094,230.8619 56.25,231.0181 Q56.9063,231.1744 57.4688,231.4713 L57.4688,234.19 Q56.8438,233.6119 56.25,233.3463 Q55.6563,233.065 55.0313,233.065 Q53.6875,233.065 53,234.1431 Q52.3125,235.2056 52.3125,237.2994 Q52.3125,239.3931 53,240.4713 Q53.6875,241.5338 55.0313,241.5338 Q55.6563,241.5338 56.25,241.2681 Q56.8438,240.9869 57.4688,240.4088 L57.4688,243.1275 Z " fill="#000000"/><text fill="#000000" font-family="sans-serif" font-size="14" lengthAdjust="spacing" textLength="136" x="68.5" y="242.3336">ConcreteAggregate</text><line style="stroke:#181818;stroke-width:0.5;" x1="40.5" x2="206.5" y1="253.4869" y2="253.4869"/><line style="stroke:#181818;stroke-width:0.5;" x1="40.5" x2="206.5" y1="261.4869" y2="261.4869"/><text fill="#000000" font-family="sans-serif" font-size="14" lengthAdjust="spacing" textLength="105" x="45.5" y="278.482">CreateIterator()</text></g><!--entity ConcreteIterator--><g id="elem_ConcreteIterator"><rect fill="#F1F1F1" height="36.2969" rx="2.5" ry="2.5" style="stroke:#181818;stroke-width:0.5;" width="133" x="250" y="235.3369"/><text fill="#000000" font-family="sans-serif" font-size="14" lengthAdjust="spacing" textLength="113" x="260" y="258.332">ConcreteIterator</text></g><!--entity Client--><g id="elem_Client"><rect fill="#F1F1F1" height="36.2969" rx="2.5" ry="2.5" style="stroke:#181818;stroke-width:0.5;" width="59" x="194" y="82.7369"/><text fill="#000000" font-family="sans-serif" font-size="14" lengthAdjust="spacing" textLength="39" x="204" y="105.732">Client</text></g><g id="elem_nConcreteAggregateCreateIterator"><path d="M6,349.4869 L6,374.6197 A0,0 0 0 0 6,374.6197 L241,374.6197 A0,0 0 0 0 241,374.6197 L241,359.4869 L231,349.4869 L127.5,349.4869 L123.5,281.3469 L119.5,349.4869 L6,349.4869 A0,0 0 0 0 6,349.4869 " fill="#FEFFDD" style="stroke:#181818;stroke-width:0.5;"/><path d="M231,349.4869 L231,359.4869 L241,359.4869 L231,349.4869 " fill="#FEFFDD" style="stroke:#181818;stroke-width:0.5;"/><text fill="#000000" font-family="sans-serif" font-size="13" lengthAdjust="spacing" textLength="214" x="12" y="366.5538">return new ConcreteIterator(this);</text></g><!--reverse link Aggregate to ConcreteAggregate--><g id="link_Aggregate_ConcreteAggregate"><path codeLine="22" d="M100.5,151.2469 C100.5,176.0069 100.5,192.1269 100.5,217.6969 " fill="none" id="Aggregate-backto-ConcreteAggregate" style="stroke:#181818;stroke-width:1.0;"/><polygon fill="none" points="100.5,133.2469,94.5,151.2469,106.5,151.2469,100.5,133.2469" style="stroke:#181818;stroke-width:1.0;"/></g><!--reverse link Iterator to ConcreteIterator--><g id="link_Iterator_ConcreteIterator"><path codeLine="23" d="M335.25,175.7069 C335.25,202.9969 335.25,215.8369 335.25,234.9769 " fill="none" id="Iterator-backto-ConcreteIterator" style="stroke:#181818;stroke-width:1.0;"/><polygon fill="none" points="335.25,157.7069,329.25,175.7069,341.25,175.7069,335.25,157.7069" style="stroke:#181818;stroke-width:1.0;"/></g><!--reverse link Aggregate to Client--><g id="link_Aggregate_Client"><path codeLine="25" d="M165.48,100.8869 C177.32,100.8869 183.28,100.8869 193.61,100.8869 " fill="none" id="Aggregate-backto-Client" style="stroke:#181818;stroke-width:1.0;stroke-dasharray:7.0,7.0;"/><polygon fill="#181818" points="159.48,100.8869,168.48,104.8869,164.48,100.8869,168.48,96.8869,159.48,100.8869" style="stroke:#181818;stroke-width:1.0;"/></g><!--link Client to Iterator--><g id="link_Client_Iterator"><path codeLine="26" d="M253.37,100.8869 C263.71,100.8869 269.62,100.8869 281.22,100.8869 " fill="none" id="Client-to-Iterator" style="stroke:#181818;stroke-width:1.0;stroke-dasharray:7.0,7.0;"/><polygon fill="#181818" points="287.22,100.8869,278.22,96.8869,282.22,100.8869,278.22,104.8869,287.22,100.8869" style="stroke:#181818;stroke-width:1.0;"/></g><!--link ConcreteAggregate to ConcreteIterator--><g id="link_ConcreteAggregate_ConcreteIterator"><path codeLine="28" d="M215.48,247.4369 C227.03,247.4369 232.67,247.4369 243.73,247.4369 " fill="none" id="ConcreteAggregate-to-ConcreteIterator" style="stroke:#181818;stroke-width:1.0;"/><polygon fill="#181818" points="249.73,247.4369,240.73,243.4369,244.73,247.4369,240.73,251.4369,249.73,247.4369" style="stroke:#181818;stroke-width:1.0;"/></g><!--reverse link ConcreteAggregate to ConcreteIterator--><g id="link_ConcreteAggregate_ConcreteIterator"><path codeLine="29" d="M221.48,259.5369 C233.03,259.5369 238.67,259.5369 249.73,259.5369 " fill="none" id="ConcreteAggregate-backto-ConcreteIterator" style="stroke:#181818;stroke-width:1.0;stroke-dasharray:7.0,7.0;"/><polygon fill="#181818" points="215.48,259.5369,224.48,263.5369,220.48,259.5369,224.48,255.5369,215.48,259.5369" style="stroke:#181818;stroke-width:1.0;"/></g><!--SRC=[XL5BQiCm4DtFAMRNP64Vm0s1ubB8fXHw0k5CRL5vP4PZaa8FNxcDVv6XNbdlDteZuvo_jFPgkORmQRapObfqbac_Ea8lsdXuSFIXg1x5retYsGfLQZq3g5L7U58IerxmpMZyPNnNwIljXG0gPqB0fxeMgetIxJmwRiVISoMaDCk62ORh63voasL1EKki09CD2oo5p2pUxI79tXB1LA705oj18xQ0NkbwXvp2isTQOsKl4kyJaNQ8d0SUlhDie-DaNV5JJ_YhX_cm_VousE58_3v7P1QMf6nsJ9DJrI7VcCy-CYOW9_hr_W3Z5_a-lZpJ9KdQQMF3_X68ppXamd-1cFTTdYwiAExc_W00]--></g></svg>