<svg xmlns="http://www.w3.org/2000/svg" xmlns:xlink="http://www.w3.org/1999/xlink" contentStyleType="text/css" height="1348px" preserveAspectRatio="none" style="width:1172px;height:1348px;background:#FFFFFF;" version="1.1" viewBox="0 0 1172 1348" width="1172px" zoomAndPan="magnify"><defs/><g><text fill="#000000" font-family="sans-serif" font-size="14" font-weight="bold" lengthAdjust="spacing" textLength="255.3633" x="451.5579" y="22.9951">Composite Pattern Sample Code</text><g id="elem_n1"><path d="M6,183.6669 L6,360.1278 L430.9775,360.1278 L430.9775,193.6669 L420.9775,183.6669 L6,183.6669 " fill="#FEFFDD" style="stroke:#181818;stroke-width:0.5;"/><path d="M420.9775,183.6669 L420.9775,193.6669 L430.9775,193.6669 L420.9775,183.6669 " fill="#FEFFDD" style="stroke:#181818;stroke-width:1.0;"/><text fill="#000000" font-family="sans-serif" font-size="13" font-weight="bold" lengthAdjust="spacing" textLength="136.9951" x="12" y="200.7338">Composite pattern</text><text fill="#000000" font-family="sans-serif" font-size="13" lengthAdjust="spacing" textLength="4.1323" x="148.9951" y="200.7338">&#160;</text><text fill="#000000" font-family="sans-serif" font-size="13" lengthAdjust="spacing" textLength="4.1323" x="12" y="215.8666">&#160;</text><text fill="#000000" font-family="sans-serif" font-size="13" lengthAdjust="spacing" textLength="343.9033" x="12" y="230.9994">Organizes composnents into heirarchy tree, in which</text><text fill="#000000" font-family="sans-serif" font-size="13" lengthAdjust="spacing" textLength="403.9775" x="12" y="246.1322">some components can contain more components (composite)</text><text fill="#000000" font-family="sans-serif" font-size="13" lengthAdjust="spacing" textLength="168.105" x="12" y="261.265">and others cannot (leafs).</text><text fill="#000000" font-family="sans-serif" font-size="13" lengthAdjust="spacing" textLength="4.1323" x="12" y="276.3978">&#160;</text><text fill="#000000" font-family="sans-serif" font-size="13" lengthAdjust="spacing" textLength="104.3745" x="12" y="291.5306">In this example,</text><text fill="#000000" font-family="sans-serif" font-size="13" lengthAdjust="spacing" textLength="4.1323" x="12" y="306.6635">&#160;</text><text fill="#000000" font-family="sans-serif" font-size="13" lengthAdjust="spacing" textLength="331.1826" x="12" y="321.7963">Equipments are divided into Composites and Leafs</text><text fill="#000000" font-family="sans-serif" font-size="13" lengthAdjust="spacing" textLength="346.874" x="12" y="336.9291">Each Composite can contain more Equipments, while</text><text fill="#000000" font-family="sans-serif" font-size="13" lengthAdjust="spacing" textLength="259.0605" x="12" y="352.0619">Leaf can only be added to a Composite.</text></g><!--class Equipment--><g id="elem_Equipment"><rect codeLine="21" fill="#F1F1F1" height="227.2656" id="Equipment" rx="2.5" ry="2.5" style="stroke:#181818;stroke-width:0.5;" width="299.499" x="68.99" y="492.3969"/><ellipse cx="176.492" cy="508.3969" fill="#A9DCDF" rx="11" ry="11" style="stroke:#181818;stroke-width:1.0;"/><path d="M176.6013,503.7406 L175.4451,508.8188 L177.7732,508.8188 L176.6013,503.7406 Z M175.117,501.5063 L178.1013,501.5063 L181.4607,513.8969 L179.0076,513.8969 L178.242,510.8344 L174.9607,510.8344 L174.2107,513.8969 L171.7732,513.8969 L175.117,501.5063 Z " fill="#000000"/><text fill="#000000" font-family="sans-serif" font-size="14" font-style="italic" lengthAdjust="spacing" textLength="75.9951" x="196.992" y="513.2436">Equipment</text><line style="stroke:#181818;stroke-width:0.5;" x1="69.99" x2="367.489" y1="524.3969" y2="524.3969"/><rect fill="none" height="6" style="stroke:#C82930;stroke-width:1.0;" width="6" x="76.99" y="535.0453"/><text fill="#000000" font-family="sans-serif" font-size="14" lengthAdjust="spacing" textLength="102.1016" x="88.99" y="541.392">_name : String</text><line style="stroke:#181818;stroke-width:0.5;" x1="69.99" x2="367.489" y1="548.6938" y2="548.6938"/><polygon fill="#FFFF44" points="79.99,557.3422,83.99,561.3422,79.99,565.3422,75.99,561.3422" style="stroke:#B38D22;stroke-width:1.0;"/><text fill="#000000" font-family="sans-serif" font-size="14" lengthAdjust="spacing" textLength="128.7002" x="88.99" y="565.6889">Equipment(String)</text><ellipse cx="79.99" cy="578.6391" fill="#84BE84" rx="3" ry="3" style="stroke:#038048;stroke-width:1.0;"/><text fill="#000000" font-family="sans-serif" font-size="14" lengthAdjust="spacing" textLength="140.3486" x="88.99" y="581.9857">isComposite() : bool</text><ellipse cx="79.99" cy="594.9359" fill="#84BE84" rx="3" ry="3" style="stroke:#038048;stroke-width:1.0;"/><text fill="#000000" font-family="sans-serif" font-size="14" lengthAdjust="spacing" textLength="95.5527" x="88.99" y="598.2826">isLeaf() : bool</text><ellipse cx="79.99" cy="611.2328" fill="#84BE84" rx="3" ry="3" style="stroke:#038048;stroke-width:1.0;"/><text fill="#000000" font-family="sans-serif" font-size="14" lengthAdjust="spacing" textLength="106.0254" x="88.99" y="614.5795">name() : String</text><ellipse cx="79.99" cy="627.5297" fill="#84BE84" rx="3" ry="3" style="stroke:#038048;stroke-width:1.0;"/><text fill="#000000" font-family="sans-serif" font-size="14" lengthAdjust="spacing" textLength="101.2129" x="88.99" y="630.8764">power() : Watt</text><ellipse cx="79.99" cy="643.8266" fill="#84BE84" rx="3" ry="3" style="stroke:#038048;stroke-width:1.0;"/><text fill="#000000" font-family="sans-serif" font-size="14" lengthAdjust="spacing" textLength="141.0938" x="88.99" y="647.1732">netPrice(): Currency</text><ellipse cx="79.99" cy="660.1234" fill="#84BE84" rx="3" ry="3" style="stroke:#038048;stroke-width:1.0;"/><text fill="#000000" font-family="sans-serif" font-size="14" lengthAdjust="spacing" textLength="177.6865" x="88.99" y="663.4701">discountPrice(): Currency</text><ellipse cx="79.99" cy="676.4203" fill="#84BE84" rx="3" ry="3" style="stroke:#038048;stroke-width:1.0;"/><text fill="#000000" font-family="sans-serif" font-size="14" lengthAdjust="spacing" textLength="156.5156" x="88.99" y="679.767">add(Equipment) : void</text><ellipse cx="79.99" cy="692.7172" fill="#84BE84" rx="3" ry="3" style="stroke:#038048;stroke-width:1.0;"/><text fill="#000000" font-family="sans-serif" font-size="14" lengthAdjust="spacing" textLength="183.6338" x="88.99" y="696.0639">remove(Equipment) : void</text><ellipse cx="79.99" cy="709.0141" fill="#84BE84" rx="3" ry="3" style="stroke:#038048;stroke-width:1.0;"/><text fill="#000000" font-family="sans-serif" font-size="14" lengthAdjust="spacing" textLength="273.499" x="88.99" y="712.3607">createIterator() : Iterator&lt;Equipment&gt;</text></g><!--class CompositeEquipment--><g id="elem_CompositeEquipment"><rect codeLine="35" fill="#F1F1F1" height="129.4844" id="CompositeEquipment" rx="2.5" ry="2.5" style="stroke:#181818;stroke-width:0.5;" width="299.499" x="498.98" y="332.3969"/><ellipse cx="569.1236" cy="348.3969" fill="#A9DCDF" rx="11" ry="11" style="stroke:#181818;stroke-width:1.0;"/><path d="M569.2329,343.7406 L568.0767,348.8188 L570.4048,348.8188 L569.2329,343.7406 Z M567.7486,341.5063 L570.7329,341.5063 L574.0923,353.8969 L571.6392,353.8969 L570.8736,350.8344 L567.5923,350.8344 L566.8423,353.8969 L564.4048,353.8969 L567.7486,341.5063 Z " fill="#000000"/><text fill="#000000" font-family="sans-serif" font-size="14" font-style="italic" lengthAdjust="spacing" textLength="150.7119" x="589.6236" y="353.2436">CompositeEquipment</text><line style="stroke:#181818;stroke-width:0.5;" x1="499.98" x2="797.479" y1="364.3969" y2="364.3969"/><line style="stroke:#181818;stroke-width:0.5;" x1="499.98" x2="797.479" y1="372.3969" y2="372.3969"/><polygon fill="#FFFF44" points="509.98,381.0453,513.98,385.0453,509.98,389.0453,505.98,385.0453" style="stroke:#B38D22;stroke-width:1.0;"/><text fill="#000000" font-family="sans-serif" font-size="14" lengthAdjust="spacing" textLength="194.8037" x="518.98" y="389.392">CompositEquipment(String)</text><ellipse cx="509.98" cy="402.3422" fill="#84BE84" rx="3" ry="3" style="stroke:#038048;stroke-width:1.0;"/><text fill="#000000" font-family="sans-serif" font-size="14" lengthAdjust="spacing" textLength="140.3486" x="518.98" y="405.6889">isComposite() : bool</text><ellipse cx="509.98" cy="418.6391" fill="#84BE84" rx="3" ry="3" style="stroke:#038048;stroke-width:1.0;"/><text fill="#000000" font-family="sans-serif" font-size="14" lengthAdjust="spacing" textLength="156.5156" x="518.98" y="421.9857">add(Equipment) : void</text><ellipse cx="509.98" cy="434.9359" fill="#84BE84" rx="3" ry="3" style="stroke:#038048;stroke-width:1.0;"/><text fill="#000000" font-family="sans-serif" font-size="14" lengthAdjust="spacing" textLength="183.6338" x="518.98" y="438.2826">remove(Equipment) : void</text><ellipse cx="509.98" cy="451.2328" fill="#84BE84" rx="3" ry="3" style="stroke:#038048;stroke-width:1.0;"/><text fill="#000000" font-family="sans-serif" font-size="14" lengthAdjust="spacing" textLength="273.499" x="518.98" y="454.5795">createIterator() : Iterator&lt;Equipment&gt;</text></g><!--class Leaf--><g id="elem_Leaf"><rect codeLine="43" fill="#F1F1F1" height="64.2969" id="Leaf" rx="2.5" ry="2.5" style="stroke:#181818;stroke-width:0.5;" width="121.5527" x="587.98" y="792.8969"/><ellipse cx="629.8143" cy="808.8969" fill="#A9DCDF" rx="11" ry="11" style="stroke:#181818;stroke-width:1.0;"/><path d="M629.9237,804.2406 L628.7675,809.3188 L631.0956,809.3188 L629.9237,804.2406 Z M628.4393,802.0063 L631.4237,802.0063 L634.7831,814.3969 L632.33,814.3969 L631.5643,811.3344 L628.2831,811.3344 L627.5331,814.3969 L625.0956,814.3969 L628.4393,802.0063 Z " fill="#000000"/><text fill="#000000" font-family="sans-serif" font-size="14" font-style="italic" lengthAdjust="spacing" textLength="29.9209" x="649.7775" y="813.7436">Leaf</text><line style="stroke:#181818;stroke-width:0.5;" x1="588.98" x2="708.5327" y1="824.8969" y2="824.8969"/><line style="stroke:#181818;stroke-width:0.5;" x1="588.98" x2="708.5327" y1="832.8969" y2="832.8969"/><ellipse cx="598.98" cy="846.5453" fill="#84BE84" rx="3" ry="3" style="stroke:#038048;stroke-width:1.0;"/><text fill="#000000" font-family="sans-serif" font-size="14" lengthAdjust="spacing" textLength="95.5527" x="607.98" y="849.892">isLeaf() : bool</text></g><g id="elem_n2"><path d="M110.64,395.3269 L110.64,420.4597 L326.3417,420.4597 L326.3417,405.3269 L316.3417,395.3269 L110.64,395.3269 " fill="#FEFFDD" style="stroke:#181818;stroke-width:0.5;"/><path d="M316.3417,395.3269 L316.3417,405.3269 L326.3417,405.3269 L316.3417,395.3269 " fill="#FEFFDD" style="stroke:#181818;stroke-width:1.0;"/><text fill="#000000" font-family="sans-serif" font-size="13" lengthAdjust="spacing" textLength="194.7017" x="116.64" y="412.3938">Check if object is a composite</text></g><g id="elem_n3"><path d="M138.34,823.3269 L138.34,848.4597 L298.6457,848.4597 L298.6457,833.3269 L288.6457,823.3269 L138.34,823.3269 " fill="#FEFFDD" style="stroke:#181818;stroke-width:0.5;"/><path d="M288.6457,823.3269 L288.6457,833.3269 L298.6457,833.3269 L288.6457,823.3269 " fill="#FEFFDD" style="stroke:#181818;stroke-width:1.0;"/><text fill="#000000" font-family="sans-serif" font-size="13" lengthAdjust="spacing" textLength="139.3057" x="144.34" y="840.3938">Check if object is leaf</text></g><!--class Floppy--><g id="elem_Floppy"><rect codeLine="61" fill="#F1F1F1" height="113.1875" id="Floppy" rx="2.5" ry="2.5" style="stroke:#181818;stroke-width:0.5;" width="208.1367" x="911.66" y="932.2969"/><ellipse cx="988.1952" cy="948.2969" fill="#ADD1B2" rx="11" ry="11" style="stroke:#181818;stroke-width:1.0;"/><path d="M991.1639,953.9375 Q990.5858,954.2344 989.9452,954.375 Q989.3045,954.5313 988.6014,954.5313 Q986.1014,954.5313 984.7733,952.8906 Q983.4608,951.2344 983.4608,948.1094 Q983.4608,944.9844 984.7733,943.3281 Q986.1014,941.6719 988.6014,941.6719 Q989.3045,941.6719 989.9452,941.8281 Q990.6014,941.9844 991.1639,942.2813 L991.1639,945 Q990.5389,944.4219 989.9452,944.1563 Q989.3514,943.875 988.7264,943.875 Q987.3827,943.875 986.6952,944.9531 Q986.0077,946.0156 986.0077,948.1094 Q986.0077,950.2031 986.6952,951.2813 Q987.3827,952.3438 988.7264,952.3438 Q989.3514,952.3438 989.9452,952.0781 Q990.5389,951.7969 991.1639,951.2188 L991.1639,953.9375 Z " fill="#000000"/><text fill="#000000" font-family="sans-serif" font-size="14" lengthAdjust="spacing" textLength="46.5664" x="1008.6952" y="953.1436">Floppy</text><line style="stroke:#181818;stroke-width:0.5;" x1="912.66" x2="1118.7967" y1="964.2969" y2="964.2969"/><line style="stroke:#181818;stroke-width:0.5;" x1="912.66" x2="1118.7967" y1="972.2969" y2="972.2969"/><ellipse cx="922.66" cy="985.9453" fill="#84BE84" rx="3" ry="3" style="stroke:#038048;stroke-width:1.0;"/><text fill="#000000" font-family="sans-serif" font-size="14" lengthAdjust="spacing" textLength="99.2715" x="931.66" y="989.292">Floppy(String)</text><ellipse cx="922.66" cy="1002.2422" fill="#84BE84" rx="3" ry="3" style="stroke:#038048;stroke-width:1.0;"/><text fill="#000000" font-family="sans-serif" font-size="14" lengthAdjust="spacing" textLength="101.2129" x="931.66" y="1005.5889">power() : Watt</text><ellipse cx="922.66" cy="1018.5391" fill="#84BE84" rx="3" ry="3" style="stroke:#038048;stroke-width:1.0;"/><text fill="#000000" font-family="sans-serif" font-size="14" lengthAdjust="spacing" textLength="145.5439" x="931.66" y="1021.8857">netPrice() : Currency</text><ellipse cx="922.66" cy="1034.8359" fill="#84BE84" rx="3" ry="3" style="stroke:#038048;stroke-width:1.0;"/><text fill="#000000" font-family="sans-serif" font-size="14" lengthAdjust="spacing" textLength="182.1367" x="931.66" y="1038.1826">discountPrice() : Currency</text></g><!--class Drive--><g id="elem_Drive"><rect codeLine="68" fill="#F1F1F1" height="113.1875" id="Drive" rx="2.5" ry="2.5" style="stroke:#181818;stroke-width:0.5;" width="208.1367" x="911.66" y="1080.2969"/><ellipse cx="992.8163" cy="1096.2969" fill="#ADD1B2" rx="11" ry="11" style="stroke:#181818;stroke-width:1.0;"/><path d="M995.785,1101.9375 Q995.2069,1102.2344 994.5663,1102.375 Q993.9256,1102.5313 993.2225,1102.5313 Q990.7225,1102.5313 989.3944,1100.8906 Q988.0819,1099.2344 988.0819,1096.1094 Q988.0819,1092.9844 989.3944,1091.3281 Q990.7225,1089.6719 993.2225,1089.6719 Q993.9256,1089.6719 994.5663,1089.8281 Q995.2225,1089.9844 995.785,1090.2813 L995.785,1093 Q995.16,1092.4219 994.5663,1092.1563 Q993.9725,1091.875 993.3475,1091.875 Q992.0038,1091.875 991.3163,1092.9531 Q990.6288,1094.0156 990.6288,1096.1094 Q990.6288,1098.2031 991.3163,1099.2813 Q992.0038,1100.3438 993.3475,1100.3438 Q993.9725,1100.3438 994.5663,1100.0781 Q995.16,1099.7969 995.785,1099.2188 L995.785,1101.9375 Z " fill="#000000"/><text fill="#000000" font-family="sans-serif" font-size="14" lengthAdjust="spacing" textLength="37.3242" x="1013.3163" y="1101.1436">Drive</text><line style="stroke:#181818;stroke-width:0.5;" x1="912.66" x2="1118.7967" y1="1112.2969" y2="1112.2969"/><line style="stroke:#181818;stroke-width:0.5;" x1="912.66" x2="1118.7967" y1="1120.2969" y2="1120.2969"/><ellipse cx="922.66" cy="1133.9453" fill="#84BE84" rx="3" ry="3" style="stroke:#038048;stroke-width:1.0;"/><text fill="#000000" font-family="sans-serif" font-size="14" lengthAdjust="spacing" textLength="90.0293" x="931.66" y="1137.292">Drive(String)</text><ellipse cx="922.66" cy="1150.2422" fill="#84BE84" rx="3" ry="3" style="stroke:#038048;stroke-width:1.0;"/><text fill="#000000" font-family="sans-serif" font-size="14" lengthAdjust="spacing" textLength="101.2129" x="931.66" y="1153.5889">power() : Watt</text><ellipse cx="922.66" cy="1166.5391" fill="#84BE84" rx="3" ry="3" style="stroke:#038048;stroke-width:1.0;"/><text fill="#000000" font-family="sans-serif" font-size="14" lengthAdjust="spacing" textLength="145.5439" x="931.66" y="1169.8857">netPrice() : Currency</text><ellipse cx="922.66" cy="1182.8359" fill="#84BE84" rx="3" ry="3" style="stroke:#038048;stroke-width:1.0;"/><text fill="#000000" font-family="sans-serif" font-size="14" lengthAdjust="spacing" textLength="182.1367" x="931.66" y="1186.1826">discountPrice() : Currency</text></g><!--class Card--><g id="elem_Card"><rect codeLine="75" fill="#F1F1F1" height="113.1875" id="Card" rx="2.5" ry="2.5" style="stroke:#181818;stroke-width:0.5;" width="208.1367" x="911.66" y="1228.2969"/><ellipse cx="994.9798" cy="1244.2969" fill="#ADD1B2" rx="11" ry="11" style="stroke:#181818;stroke-width:1.0;"/><path d="M997.9486,1249.9375 Q997.3704,1250.2344 996.7298,1250.375 Q996.0892,1250.5313 995.3861,1250.5313 Q992.8861,1250.5313 991.5579,1248.8906 Q990.2454,1247.2344 990.2454,1244.1094 Q990.2454,1240.9844 991.5579,1239.3281 Q992.8861,1237.6719 995.3861,1237.6719 Q996.0892,1237.6719 996.7298,1237.8281 Q997.3861,1237.9844 997.9486,1238.2813 L997.9486,1241 Q997.3236,1240.4219 996.7298,1240.1563 Q996.1361,1239.875 995.5111,1239.875 Q994.1673,1239.875 993.4798,1240.9531 Q992.7923,1242.0156 992.7923,1244.1094 Q992.7923,1246.2031 993.4798,1247.2813 Q994.1673,1248.3438 995.5111,1248.3438 Q996.1361,1248.3438 996.7298,1248.0781 Q997.3236,1247.7969 997.9486,1247.2188 L997.9486,1249.9375 Z " fill="#000000"/><text fill="#000000" font-family="sans-serif" font-size="14" lengthAdjust="spacing" textLength="32.9971" x="1015.4798" y="1249.1436">Card</text><line style="stroke:#181818;stroke-width:0.5;" x1="912.66" x2="1118.7967" y1="1260.2969" y2="1260.2969"/><line style="stroke:#181818;stroke-width:0.5;" x1="912.66" x2="1118.7967" y1="1268.2969" y2="1268.2969"/><ellipse cx="922.66" cy="1281.9453" fill="#84BE84" rx="3" ry="3" style="stroke:#038048;stroke-width:1.0;"/><text fill="#000000" font-family="sans-serif" font-size="14" lengthAdjust="spacing" textLength="90.0293" x="931.66" y="1285.292">Drive(String)</text><ellipse cx="922.66" cy="1298.2422" fill="#84BE84" rx="3" ry="3" style="stroke:#038048;stroke-width:1.0;"/><text fill="#000000" font-family="sans-serif" font-size="14" lengthAdjust="spacing" textLength="101.2129" x="931.66" y="1301.5889">power() : Watt</text><ellipse cx="922.66" cy="1314.5391" fill="#84BE84" rx="3" ry="3" style="stroke:#038048;stroke-width:1.0;"/><text fill="#000000" font-family="sans-serif" font-size="14" lengthAdjust="spacing" textLength="145.5439" x="931.66" y="1317.8857">netPrice() : Currency</text><ellipse cx="922.66" cy="1330.8359" fill="#84BE84" rx="3" ry="3" style="stroke:#038048;stroke-width:1.0;"/><text fill="#000000" font-family="sans-serif" font-size="14" lengthAdjust="spacing" textLength="182.1367" x="931.66" y="1334.1826">discountPrice() : Currency</text></g><!--class PlannerBoard--><g id="elem_PlannerBoard"><rect codeLine="82" fill="#F1F1F1" height="113.1875" id="PlannerBoard" rx="2.5" ry="2.5" style="stroke:#181818;stroke-width:0.5;" width="208.1367" x="911.66" y="488.2969"/><ellipse cx="964.2694" cy="504.2969" fill="#ADD1B2" rx="11" ry="11" style="stroke:#181818;stroke-width:1.0;"/><path d="M967.2381,509.9375 Q966.66,510.2344 966.0194,510.375 Q965.3788,510.5313 964.6756,510.5313 Q962.1756,510.5313 960.8475,508.8906 Q959.535,507.2344 959.535,504.1094 Q959.535,500.9844 960.8475,499.3281 Q962.1756,497.6719 964.6756,497.6719 Q965.3788,497.6719 966.0194,497.8281 Q966.6756,497.9844 967.2381,498.2813 L967.2381,501 Q966.6131,500.4219 966.0194,500.1563 Q965.4256,499.875 964.8006,499.875 Q963.4569,499.875 962.7694,500.9531 Q962.0819,502.0156 962.0819,504.1094 Q962.0819,506.2031 962.7694,507.2813 Q963.4569,508.3438 964.8006,508.3438 Q965.4256,508.3438 966.0194,508.0781 Q966.6131,507.7969 967.2381,507.2188 L967.2381,509.9375 Z " fill="#000000"/><text fill="#000000" font-family="sans-serif" font-size="14" lengthAdjust="spacing" textLength="94.418" x="984.7694" y="509.1436">PlannerBoard</text><line style="stroke:#181818;stroke-width:0.5;" x1="912.66" x2="1118.7967" y1="520.2969" y2="520.2969"/><line style="stroke:#181818;stroke-width:0.5;" x1="912.66" x2="1118.7967" y1="528.2969" y2="528.2969"/><ellipse cx="922.66" cy="541.9453" fill="#84BE84" rx="3" ry="3" style="stroke:#038048;stroke-width:1.0;"/><text fill="#000000" font-family="sans-serif" font-size="14" lengthAdjust="spacing" textLength="147.123" x="931.66" y="545.292">PlannerBoard(String)</text><ellipse cx="922.66" cy="558.2422" fill="#84BE84" rx="3" ry="3" style="stroke:#038048;stroke-width:1.0;"/><text fill="#000000" font-family="sans-serif" font-size="14" lengthAdjust="spacing" textLength="101.2129" x="931.66" y="561.5889">power() : Watt</text><ellipse cx="922.66" cy="574.5391" fill="#84BE84" rx="3" ry="3" style="stroke:#038048;stroke-width:1.0;"/><text fill="#000000" font-family="sans-serif" font-size="14" lengthAdjust="spacing" textLength="145.5439" x="931.66" y="577.8857">netPrice() : Currency</text><ellipse cx="922.66" cy="590.8359" fill="#84BE84" rx="3" ry="3" style="stroke:#038048;stroke-width:1.0;"/><text fill="#000000" font-family="sans-serif" font-size="14" lengthAdjust="spacing" textLength="182.1367" x="931.66" y="594.1826">discountPrice() : Currency</text></g><!--class Cicuite--><g id="elem_Cicuite"><rect codeLine="89" fill="#F1F1F1" height="113.1875" id="Cicuite" rx="2.5" ry="2.5" style="stroke:#181818;stroke-width:0.5;" width="208.1367" x="911.66" y="636.2969"/><ellipse cx="987.3646" cy="652.2969" fill="#ADD1B2" rx="11" ry="11" style="stroke:#181818;stroke-width:1.0;"/><path d="M990.3333,657.9375 Q989.7552,658.2344 989.1146,658.375 Q988.474,658.5313 987.7708,658.5313 Q985.2708,658.5313 983.9427,656.8906 Q982.6302,655.2344 982.6302,652.1094 Q982.6302,648.9844 983.9427,647.3281 Q985.2708,645.6719 987.7708,645.6719 Q988.474,645.6719 989.1146,645.8281 Q989.7708,645.9844 990.3333,646.2813 L990.3333,649 Q989.7083,648.4219 989.1146,648.1563 Q988.5208,647.875 987.8958,647.875 Q986.5521,647.875 985.8646,648.9531 Q985.1771,650.0156 985.1771,652.1094 Q985.1771,654.2031 985.8646,655.2813 Q986.5521,656.3438 987.8958,656.3438 Q988.5208,656.3438 989.1146,656.0781 Q989.7083,655.7969 990.3333,655.2188 L990.3333,657.9375 Z " fill="#000000"/><text fill="#000000" font-family="sans-serif" font-size="14" lengthAdjust="spacing" textLength="48.2275" x="1007.8646" y="657.1436">Cicuite</text><line style="stroke:#181818;stroke-width:0.5;" x1="912.66" x2="1118.7967" y1="668.2969" y2="668.2969"/><line style="stroke:#181818;stroke-width:0.5;" x1="912.66" x2="1118.7967" y1="676.2969" y2="676.2969"/><ellipse cx="922.66" cy="689.9453" fill="#84BE84" rx="3" ry="3" style="stroke:#038048;stroke-width:1.0;"/><text fill="#000000" font-family="sans-serif" font-size="14" lengthAdjust="spacing" textLength="100.9326" x="931.66" y="693.292">Cicuite(String)</text><ellipse cx="922.66" cy="706.2422" fill="#84BE84" rx="3" ry="3" style="stroke:#038048;stroke-width:1.0;"/><text fill="#000000" font-family="sans-serif" font-size="14" lengthAdjust="spacing" textLength="101.2129" x="931.66" y="709.5889">power() : Watt</text><ellipse cx="922.66" cy="722.5391" fill="#84BE84" rx="3" ry="3" style="stroke:#038048;stroke-width:1.0;"/><text fill="#000000" font-family="sans-serif" font-size="14" lengthAdjust="spacing" textLength="145.5439" x="931.66" y="725.8857">netPrice() : Currency</text><ellipse cx="922.66" cy="738.8359" fill="#84BE84" rx="3" ry="3" style="stroke:#038048;stroke-width:1.0;"/><text fill="#000000" font-family="sans-serif" font-size="14" lengthAdjust="spacing" textLength="182.1367" x="931.66" y="742.1826">discountPrice() : Currency</text></g><!--class Switch--><g id="elem_Switch"><rect codeLine="96" fill="#F1F1F1" height="113.1875" id="Switch" rx="2.5" ry="2.5" style="stroke:#181818;stroke-width:0.5;" width="208.1367" x="911.66" y="784.2969"/><ellipse cx="988.3353" cy="800.2969" fill="#ADD1B2" rx="11" ry="11" style="stroke:#181818;stroke-width:1.0;"/><path d="M991.304,805.9375 Q990.7259,806.2344 990.0853,806.375 Q989.4447,806.5313 988.7415,806.5313 Q986.2415,806.5313 984.9134,804.8906 Q983.6009,803.2344 983.6009,800.1094 Q983.6009,796.9844 984.9134,795.3281 Q986.2415,793.6719 988.7415,793.6719 Q989.4447,793.6719 990.0853,793.8281 Q990.7415,793.9844 991.304,794.2813 L991.304,797 Q990.679,796.4219 990.0853,796.1563 Q989.4915,795.875 988.8665,795.875 Q987.5228,795.875 986.8353,796.9531 Q986.1478,798.0156 986.1478,800.1094 Q986.1478,802.2031 986.8353,803.2813 Q987.5228,804.3438 988.8665,804.3438 Q989.4915,804.3438 990.0853,804.0781 Q990.679,803.7969 991.304,803.2188 L991.304,805.9375 Z " fill="#000000"/><text fill="#000000" font-family="sans-serif" font-size="14" lengthAdjust="spacing" textLength="46.2861" x="1008.8353" y="805.1436">Switch</text><line style="stroke:#181818;stroke-width:0.5;" x1="912.66" x2="1118.7967" y1="816.2969" y2="816.2969"/><line style="stroke:#181818;stroke-width:0.5;" x1="912.66" x2="1118.7967" y1="824.2969" y2="824.2969"/><ellipse cx="922.66" cy="837.9453" fill="#84BE84" rx="3" ry="3" style="stroke:#038048;stroke-width:1.0;"/><text fill="#000000" font-family="sans-serif" font-size="14" lengthAdjust="spacing" textLength="98.9912" x="931.66" y="841.292">Switch(String)</text><ellipse cx="922.66" cy="854.2422" fill="#84BE84" rx="3" ry="3" style="stroke:#038048;stroke-width:1.0;"/><text fill="#000000" font-family="sans-serif" font-size="14" lengthAdjust="spacing" textLength="101.2129" x="931.66" y="857.5889">power() : Watt</text><ellipse cx="922.66" cy="870.5391" fill="#84BE84" rx="3" ry="3" style="stroke:#038048;stroke-width:1.0;"/><text fill="#000000" font-family="sans-serif" font-size="14" lengthAdjust="spacing" textLength="145.5439" x="931.66" y="873.8857">netPrice() : Currency</text><ellipse cx="922.66" cy="886.8359" fill="#84BE84" rx="3" ry="3" style="stroke:#038048;stroke-width:1.0;"/><text fill="#000000" font-family="sans-serif" font-size="14" lengthAdjust="spacing" textLength="182.1367" x="931.66" y="890.1826">discountPrice() : Currency</text></g><!--class Chassis--><g id="elem_Chassis"><rect codeLine="103" fill="#F1F1F1" height="113.1875" id="Chassis" rx="2.5" ry="2.5" style="stroke:#181818;stroke-width:0.5;" width="299.499" x="865.98" y="44.2969"/><ellipse cx="984.98" cy="60.2969" fill="#ADD1B2" rx="11" ry="11" style="stroke:#181818;stroke-width:1.0;"/><path d="M987.9488,65.9375 Q987.3706,66.2344 986.73,66.375 Q986.0894,66.5313 985.3863,66.5313 Q982.8863,66.5313 981.5581,64.8906 Q980.2456,63.2344 980.2456,60.1094 Q980.2456,56.9844 981.5581,55.3281 Q982.8863,53.6719 985.3863,53.6719 Q986.0894,53.6719 986.73,53.8281 Q987.3863,53.9844 987.9488,54.2813 L987.9488,57 Q987.3238,56.4219 986.73,56.1563 Q986.1363,55.875 985.5113,55.875 Q984.1675,55.875 983.48,56.9531 Q982.7925,58.0156 982.7925,60.1094 Q982.7925,62.2031 983.48,63.2813 Q984.1675,64.3438 985.5113,64.3438 Q986.1363,64.3438 986.73,64.0781 Q987.3238,63.7969 987.9488,63.2188 L987.9488,65.9375 Z " fill="#000000"/><text fill="#000000" font-family="sans-serif" font-size="14" lengthAdjust="spacing" textLength="52.999" x="1005.48" y="65.1436">Chassis</text><line style="stroke:#181818;stroke-width:0.5;" x1="866.98" x2="1164.479" y1="76.2969" y2="76.2969"/><line style="stroke:#181818;stroke-width:0.5;" x1="866.98" x2="1164.479" y1="84.2969" y2="84.2969"/><ellipse cx="876.98" cy="97.9453" fill="#84BE84" rx="3" ry="3" style="stroke:#038048;stroke-width:1.0;"/><text fill="#000000" font-family="sans-serif" font-size="14" lengthAdjust="spacing" textLength="105.7041" x="885.98" y="101.292">Chassis(String)</text><ellipse cx="876.98" cy="114.2422" fill="#84BE84" rx="3" ry="3" style="stroke:#038048;stroke-width:1.0;"/><text fill="#000000" font-family="sans-serif" font-size="14" lengthAdjust="spacing" textLength="156.5156" x="885.98" y="117.5889">add(Equipment) : void</text><ellipse cx="876.98" cy="130.5391" fill="#84BE84" rx="3" ry="3" style="stroke:#038048;stroke-width:1.0;"/><text fill="#000000" font-family="sans-serif" font-size="14" lengthAdjust="spacing" textLength="183.6338" x="885.98" y="133.8857">remove(Equipment) : void</text><ellipse cx="876.98" cy="146.8359" fill="#84BE84" rx="3" ry="3" style="stroke:#038048;stroke-width:1.0;"/><text fill="#000000" font-family="sans-serif" font-size="14" lengthAdjust="spacing" textLength="273.499" x="885.98" y="150.1826">createIterator() : Iterator&lt;Equipment&gt;</text></g><!--class Bus--><g id="elem_Bus"><rect codeLine="110" fill="#F1F1F1" height="113.1875" id="Bus" rx="2.5" ry="2.5" style="stroke:#181818;stroke-width:0.5;" width="299.499" x="865.98" y="192.2969"/><ellipse cx="998.5938" cy="208.2969" fill="#ADD1B2" rx="11" ry="11" style="stroke:#181818;stroke-width:1.0;"/><path d="M1001.5625,213.9375 Q1000.9844,214.2344 1000.3438,214.375 Q999.7031,214.5313 999,214.5313 Q996.5,214.5313 995.1719,212.8906 Q993.8594,211.2344 993.8594,208.1094 Q993.8594,204.9844 995.1719,203.3281 Q996.5,201.6719 999,201.6719 Q999.7031,201.6719 1000.3438,201.8281 Q1001,201.9844 1001.5625,202.2813 L1001.5625,205 Q1000.9375,204.4219 1000.3438,204.1563 Q999.75,203.875 999.125,203.875 Q997.7813,203.875 997.0938,204.9531 Q996.4063,206.0156 996.4063,208.1094 Q996.4063,210.2031 997.0938,211.2813 Q997.7813,212.3438 999.125,212.3438 Q999.75,212.3438 1000.3438,212.0781 Q1000.9375,211.7969 1001.5625,211.2188 L1001.5625,213.9375 Z " fill="#000000"/><text fill="#000000" font-family="sans-serif" font-size="14" lengthAdjust="spacing" textLength="25.7715" x="1019.0938" y="213.1436">Bus</text><line style="stroke:#181818;stroke-width:0.5;" x1="866.98" x2="1164.479" y1="224.2969" y2="224.2969"/><line style="stroke:#181818;stroke-width:0.5;" x1="866.98" x2="1164.479" y1="232.2969" y2="232.2969"/><ellipse cx="876.98" cy="245.9453" fill="#84BE84" rx="3" ry="3" style="stroke:#038048;stroke-width:1.0;"/><text fill="#000000" font-family="sans-serif" font-size="14" lengthAdjust="spacing" textLength="78.4766" x="885.98" y="249.292">Bus(String)</text><ellipse cx="876.98" cy="262.2422" fill="#84BE84" rx="3" ry="3" style="stroke:#038048;stroke-width:1.0;"/><text fill="#000000" font-family="sans-serif" font-size="14" lengthAdjust="spacing" textLength="156.5156" x="885.98" y="265.5889">add(Equipment) : void</text><ellipse cx="876.98" cy="278.5391" fill="#84BE84" rx="3" ry="3" style="stroke:#038048;stroke-width:1.0;"/><text fill="#000000" font-family="sans-serif" font-size="14" lengthAdjust="spacing" textLength="183.6338" x="885.98" y="281.8857">remove(Equipment) : void</text><ellipse cx="876.98" cy="294.8359" fill="#84BE84" rx="3" ry="3" style="stroke:#038048;stroke-width:1.0;"/><text fill="#000000" font-family="sans-serif" font-size="14" lengthAdjust="spacing" textLength="273.499" x="885.98" y="298.1826">createIterator() : Iterator&lt;Equipment&gt;</text></g><!--class Cabinet--><g id="elem_Cabinet"><rect codeLine="117" fill="#F1F1F1" height="113.1875" id="Cabinet" rx="2.5" ry="2.5" style="stroke:#181818;stroke-width:0.5;" width="299.499" x="865.98" y="340.2969"/><ellipse cx="984.4263" cy="356.2969" fill="#ADD1B2" rx="11" ry="11" style="stroke:#181818;stroke-width:1.0;"/><path d="M987.395,361.9375 Q986.8169,362.2344 986.1763,362.375 Q985.5357,362.5313 984.8325,362.5313 Q982.3325,362.5313 981.0044,360.8906 Q979.6919,359.2344 979.6919,356.1094 Q979.6919,352.9844 981.0044,351.3281 Q982.3325,349.6719 984.8325,349.6719 Q985.5357,349.6719 986.1763,349.8281 Q986.8325,349.9844 987.395,350.2813 L987.395,353 Q986.77,352.4219 986.1763,352.1563 Q985.5825,351.875 984.9575,351.875 Q983.6138,351.875 982.9263,352.9531 Q982.2388,354.0156 982.2388,356.1094 Q982.2388,358.2031 982.9263,359.2813 Q983.6138,360.3438 984.9575,360.3438 Q985.5825,360.3438 986.1763,360.0781 Q986.77,359.7969 987.395,359.2188 L987.395,361.9375 Z " fill="#000000"/><text fill="#000000" font-family="sans-serif" font-size="14" lengthAdjust="spacing" textLength="54.1064" x="1004.9263" y="361.1436">Cabinet</text><line style="stroke:#181818;stroke-width:0.5;" x1="866.98" x2="1164.479" y1="372.2969" y2="372.2969"/><line style="stroke:#181818;stroke-width:0.5;" x1="866.98" x2="1164.479" y1="380.2969" y2="380.2969"/><ellipse cx="876.98" cy="393.9453" fill="#84BE84" rx="3" ry="3" style="stroke:#038048;stroke-width:1.0;"/><text fill="#000000" font-family="sans-serif" font-size="14" lengthAdjust="spacing" textLength="106.8115" x="885.98" y="397.292">Cabinet(String)</text><ellipse cx="876.98" cy="410.2422" fill="#84BE84" rx="3" ry="3" style="stroke:#038048;stroke-width:1.0;"/><text fill="#000000" font-family="sans-serif" font-size="14" lengthAdjust="spacing" textLength="156.5156" x="885.98" y="413.5889">add(Equipment) : void</text><ellipse cx="876.98" cy="426.5391" fill="#84BE84" rx="3" ry="3" style="stroke:#038048;stroke-width:1.0;"/><text fill="#000000" font-family="sans-serif" font-size="14" lengthAdjust="spacing" textLength="183.6338" x="885.98" y="429.8857">remove(Equipment) : void</text><ellipse cx="876.98" cy="442.8359" fill="#84BE84" rx="3" ry="3" style="stroke:#038048;stroke-width:1.0;"/><text fill="#000000" font-family="sans-serif" font-size="14" lengthAdjust="spacing" textLength="273.499" x="885.98" y="446.1826">createIterator() : Iterator&lt;Equipment&gt;</text></g><!--link n2 to CompositeEquipment--><g id="link_n2_CompositeEquipment"><path codeLine="51" d="M326.72,407.8969 C378.96,407.8969 442.48,407.8969 499.23,407.8969 " fill="none" id="n2-CompositeEquipment" style="stroke:#181818;stroke-width:1.0;stroke-dasharray:7.0,7.0;"/></g><!--link n2 to Equipment--><g id="link_n2_Equipment"><path codeLine="52" d="M218.49,420.8369 C218.49,454.1269 218.49,541.9869 218.49,568.6269 " fill="none" id="n2-Equipment" style="stroke:#181818;stroke-width:1.0;stroke-dasharray:7.0,7.0;"/></g><!--link n3 to Leaf--><g id="link_n3_Leaf"><path codeLine="58" d="M299.11,835.8969 C421.67,835.8969 641.48,835.8969 648.31,835.8969 " fill="none" id="n3-Leaf" style="stroke:#181818;stroke-width:1.0;stroke-dasharray:7.0,7.0;"/></g><!--link Equipment to n3--><g id="link_Equipment_n3"><path codeLine="59" d="M218.49,600.2169 C218.49,635.3869 218.49,778.9869 218.49,823.0069 " fill="none" id="Equipment-n3" style="stroke:#181818;stroke-width:1.0;stroke-dasharray:7.0,7.0;"/></g><!--reverse link Equipment to Leaf--><g id="link_Equipment_Leaf"><path codeLine="124" d="M337.32,741.2269 C337.32,784.9269 337.32,806.1069 337.32,806.1069 C337.32,806.1069 488.6,806.1069 580.19,806.1069 " fill="none" id="Equipment-backto-Leaf" style="stroke:#181818;stroke-width:1.0;"/><polygon fill="none" points="337.32,723.2269,331.32,741.2269,343.32,741.2269,337.32,723.2269" style="stroke:#181818;stroke-width:1.0;"/></g><!--reverse link Equipment to CompositeEquipment--><g id="link_Equipment_CompositeEquipment"><path codeLine="125" d="M351.16,470.7569 C351.16,444.8469 351.16,442.9269 351.16,442.9269 C351.16,442.9269 419.8,442.9269 491.11,442.9269 " fill="none" id="Equipment-backto-CompositeEquipment" style="stroke:#181818;stroke-width:1.0;"/><polygon fill="none" points="351.16,488.7569,357.16,470.7569,345.16,470.7569,351.16,488.7569" style="stroke:#181818;stroke-width:1.0;"/></g><!--reverse link Leaf to Floppy--><g id="link_Leaf_Floppy"><path codeLine="127" d="M682.73,878.8869 C682.73,927.1569 682.73,988.8969 682.73,988.8969 C682.73,988.8969 813.62,988.8969 911.28,988.8969 " fill="none" id="Leaf-backto-Floppy" style="stroke:#181818;stroke-width:1.0;"/><polygon fill="none" points="682.73,860.8869,676.73,878.8869,688.73,878.8869,682.73,860.8869" style="stroke:#181818;stroke-width:1.0;"/></g><!--reverse link Leaf to Drive--><g id="link_Leaf_Drive"><path codeLine="128" d="M648.48,878.6869 C648.48,960.6369 648.48,1136.8969 648.48,1136.8969 C648.48,1136.8969 802.9,1136.8969 911.47,1136.8969 " fill="none" id="Leaf-backto-Drive" style="stroke:#181818;stroke-width:1.0;"/><polygon fill="none" points="648.48,860.6869,642.48,878.6869,654.48,878.6869,648.48,860.6869" style="stroke:#181818;stroke-width:1.0;"/></g><!--reverse link Leaf to Card--><g id="link_Leaf_Card"><path codeLine="129" d="M614.23,878.6069 C614.23,986.6869 614.23,1284.8969 614.23,1284.8969 C614.23,1284.8969 792.32,1284.8969 911.29,1284.8969 " fill="none" id="Leaf-backto-Card" style="stroke:#181818;stroke-width:1.0;"/><polygon fill="none" points="614.23,860.6069,608.23,878.6069,620.23,878.6069,614.23,860.6069" style="stroke:#181818;stroke-width:1.0;"/></g><!--reverse link Leaf to PlannerBoard--><g id="link_Leaf_PlannerBoard"><path codeLine="130" d="M625.64,771.1569 C625.64,695.6769 625.64,544.9369 625.64,544.9369 C625.64,544.9369 795.64,544.9369 911.19,544.9369 " fill="none" id="Leaf-backto-PlannerBoard" style="stroke:#181818;stroke-width:1.0;"/><polygon fill="none" points="625.64,789.1569,631.64,771.1569,619.64,771.1569,625.64,789.1569" style="stroke:#181818;stroke-width:1.0;"/></g><!--reverse link Leaf to Cicuite--><g id="link_Leaf_Cicuite"><path codeLine="131" d="M671.31,770.9169 C671.31,746.4269 671.31,736.4369 671.31,736.4369 C671.31,736.4369 810.09,736.4369 911.46,736.4369 " fill="none" id="Leaf-backto-Cicuite" style="stroke:#181818;stroke-width:1.0;"/><polygon fill="none" points="671.31,788.9169,677.31,770.9169,665.31,770.9169,671.31,788.9169" style="stroke:#181818;stroke-width:1.0;"/></g><!--reverse link Leaf to Switch--><g id="link_Leaf_Switch"><path codeLine="132" d="M734.69,824.8969 C789.35,824.8969 848.95,824.8969 911.41,824.8969 " fill="none" id="Leaf-backto-Switch" style="stroke:#181818;stroke-width:1.0;"/><polygon fill="none" points="716.69,824.8969,734.69,830.8969,734.69,818.8969,716.69,824.8969" style="stroke:#181818;stroke-width:1.0;"/></g><!--reverse link CompositeEquipment to Chassis--><g id="link_CompositeEquipment_Chassis"><path codeLine="134" d="M648.48,310.6169 C648.48,223.1969 648.48,100.8969 648.48,100.8969 C648.48,100.8969 764.07,100.8969 865.56,100.8969 " fill="none" id="CompositeEquipment-backto-Chassis" style="stroke:#181818;stroke-width:1.0;"/><polygon fill="none" points="648.48,328.6169,654.48,310.6169,642.48,310.6169,648.48,328.6169" style="stroke:#181818;stroke-width:1.0;"/></g><!--reverse link CompositeEquipment to Bus--><g id="link_CompositeEquipment_Bus"><path codeLine="135" d="M823.82,334.3469 C923.5,334.3469 1015.73,334.3469 1015.73,334.3469 C1015.73,334.3469 1015.73,321.5669 1015.73,305.8869 " fill="none" id="CompositeEquipment-backto-Bus" style="stroke:#181818;stroke-width:1.0;"/><polygon fill="none" points="805.82,334.3469,823.82,340.3469,823.82,328.3469,805.82,334.3469" style="stroke:#181818;stroke-width:1.0;"/></g><!--reverse link CompositeEquipment to Cabinet--><g id="link_CompositeEquipment_Cabinet"><path codeLine="136" d="M823.82,396.8969 C843.68,396.8969 845.96,396.8969 865.7,396.8969 " fill="none" id="CompositeEquipment-backto-Cabinet" style="stroke:#181818;stroke-width:1.0;"/><polygon fill="none" points="805.82,396.8969,823.82,402.8969,823.82,390.8969,805.82,396.8969" style="stroke:#181818;stroke-width:1.0;"/></g><!--SRC=[pLPDRzim3BthLn3e9K7R36jlGT13imqeC601SjXna6KcrcfBdgIaoxh-zr5KQwlvQ8STblhWG7nyv1DDKQbn4I1OS7fP1IYrGnMqDSBVQjDA9nkejS6mQH6i2vKL8kXG8qnjqrgl0y9CXe3Em5msBGCb2c4i8TA3UI-0dabnrHFQH9YyAww0KNvzSKjfz2_qeDZJe0aUj25j5MeddQes41pY6HdXhjAgOfwt3IPAOYXfQ6c29A_6kcVOG3s9639NcX9igD0nZJJ3e4QvyCEHOFp6GAYq1_p9UpjBrey_LhfjEA2a-ALUwnBB9BNRfUVWdsEqH9Agoegsex8FUXOtLoEp8fzzhQatK519ovYA4ia-s4WWfOeL5q8MFZYfGXyFxZbIVCxXcv5KhJ7CWzDcsG4ddVSW8SCEEjM-IpGO4hMmjixHA74F41EnUIlLQMllq37obVeW8s2OEQs8D8RfoZaqQjEZfVRAhinBBbIQGRUF67zjTTd33XkxnfSyb4CPy8PwKmQR93uj9XtjYlqVKjzsrUvAjA_i9q_eFrVvc5lZ5hn_-Oi_P0V-WYtJ2jKjw0NOuZjD5A139A4xVLd3cWiOZVRKRppEIi9UFA56SC2Z5t1vI40ysddcovWvRYP6YhzigcaWRcLXJAXQUW-VQjkscxmWoRBxILzlTFYBJj_sUVmyISm7fzUOQs73KQHCfIlVXf9PJQCStRNTKfJRZrCYhLPnzcUQ7ar7aJE_qu7kf4nDiXodDXMzwOpcjKccNJd_Snhk2BrUFHD9opScS2gB-8VjMIMJwSq8xI_9oU_pSnx1sxRT2q48leaOJICtC_2qoTPn6cNB_EZdNkdqPPPq0eJOSvydHkh9WpYrms5k-WhY3m00]--></g></svg>