<svg xmlns="http://www.w3.org/2000/svg" xmlns:xlink="http://www.w3.org/1999/xlink" contentStyleType="text/css" height="337px" preserveAspectRatio="none" style="width:689px;height:337px;background:#FFFFFF;" version="1.1" viewBox="0 0 689 337" width="689px" zoomAndPan="magnify"><defs/><g><text fill="#000000" font-family="sans-serif" font-size="14" font-weight="bold" lengthAdjust="spacing" textLength="219.5908" x="228.0993" y="22.9951">Composite Pattern Example</text><!--class Graphic--><g id="elem_Graphic"><rect codeLine="6" fill="#F1F1F1" height="113.1875" id="Graphic" rx="2.5" ry="2.5" style="stroke:#181818;stroke-width:0.5;" width="134.8965" x="348.87" y="44.2969"/><ellipse cx="385.6348" cy="60.2969" fill="#A9DCDF" rx="11" ry="11" style="stroke:#181818;stroke-width:1.0;"/><path d="M385.7442,55.6406 L384.5879,60.7188 L386.916,60.7188 L385.7442,55.6406 Z M384.2598,53.4063 L387.2442,53.4063 L390.6035,65.7969 L388.1504,65.7969 L387.3848,62.7344 L384.1035,62.7344 L383.3535,65.7969 L380.916,65.7969 L384.2598,53.4063 Z " fill="#000000"/><text fill="#000000" font-family="sans-serif" font-size="14" font-style="italic" lengthAdjust="spacing" textLength="54.5303" x="404.4714" y="65.1436">Graphic</text><line style="stroke:#181818;stroke-width:0.5;" x1="349.87" x2="482.7665" y1="76.2969" y2="76.2969"/><line style="stroke:#181818;stroke-width:0.5;" x1="349.87" x2="482.7665" y1="84.2969" y2="84.2969"/><text fill="#000000" font-family="sans-serif" font-size="14" lengthAdjust="spacing" textLength="47.4893" x="354.87" y="101.292">Draw()</text><text fill="#000000" font-family="sans-serif" font-size="14" lengthAdjust="spacing" textLength="92.8047" x="354.87" y="117.5889">Add(Graphic)</text><text fill="#000000" font-family="sans-serif" font-size="14" lengthAdjust="spacing" textLength="122.8965" x="354.87" y="133.8857">Remove(Graphic)</text><text fill="#000000" font-family="sans-serif" font-size="14" lengthAdjust="spacing" textLength="89.4414" x="354.87" y="150.1826">GetChild(int)</text></g><!--class Line--><g id="elem_Line"><rect fill="#F1F1F1" height="64.2969" id="Line" rx="2.5" ry="2.5" style="stroke:#181818;stroke-width:0.5;" width="61.1758" x="385.73" y="241.9369"/><ellipse cx="400.73" cy="257.9369" fill="#ADD1B2" rx="11" ry="11" style="stroke:#181818;stroke-width:1.0;"/><path d="M403.6988,263.5775 Q403.1206,263.8744 402.48,264.015 Q401.8394,264.1713 401.1363,264.1713 Q398.6363,264.1713 397.3081,262.5306 Q395.9956,260.8744 395.9956,257.7494 Q395.9956,254.6244 397.3081,252.9681 Q398.6363,251.3119 401.1363,251.3119 Q401.8394,251.3119 402.48,251.4681 Q403.1363,251.6244 403.6988,251.9213 L403.6988,254.64 Q403.0738,254.0619 402.48,253.7963 Q401.8863,253.515 401.2613,253.515 Q399.9175,253.515 399.23,254.5931 Q398.5425,255.6556 398.5425,257.7494 Q398.5425,259.8431 399.23,260.9213 Q399.9175,261.9838 401.2613,261.9838 Q401.8863,261.9838 402.48,261.7181 Q403.0738,261.4369 403.6988,260.8588 L403.6988,263.5775 Z " fill="#000000"/><text fill="#000000" font-family="sans-serif" font-size="14" lengthAdjust="spacing" textLength="29.1758" x="414.73" y="262.7836">Line</text><line style="stroke:#181818;stroke-width:0.5;" x1="386.73" x2="445.9058" y1="273.9369" y2="273.9369"/><line style="stroke:#181818;stroke-width:0.5;" x1="386.73" x2="445.9058" y1="281.9369" y2="281.9369"/><text fill="#000000" font-family="sans-serif" font-size="14" lengthAdjust="spacing" textLength="47.4893" x="391.73" y="298.932">Draw()</text></g><!--class Rectangle--><g id="elem_Rectangle"><rect fill="#F1F1F1" height="64.2969" id="Rectangle" rx="2.5" ry="2.5" style="stroke:#181818;stroke-width:0.5;" width="102.3691" x="482.14" y="241.9369"/><ellipse cx="497.14" cy="257.9369" fill="#ADD1B2" rx="11" ry="11" style="stroke:#181818;stroke-width:1.0;"/><path d="M500.1088,263.5775 Q499.5306,263.8744 498.89,264.015 Q498.2494,264.1713 497.5463,264.1713 Q495.0463,264.1713 493.7181,262.5306 Q492.4056,260.8744 492.4056,257.7494 Q492.4056,254.6244 493.7181,252.9681 Q495.0463,251.3119 497.5463,251.3119 Q498.2494,251.3119 498.89,251.4681 Q499.5463,251.6244 500.1088,251.9213 L500.1088,254.64 Q499.4838,254.0619 498.89,253.7963 Q498.2963,253.515 497.6713,253.515 Q496.3275,253.515 495.64,254.5931 Q494.9525,255.6556 494.9525,257.7494 Q494.9525,259.8431 495.64,260.9213 Q496.3275,261.9838 497.6713,261.9838 Q498.2963,261.9838 498.89,261.7181 Q499.4838,261.4369 500.1088,260.8588 L500.1088,263.5775 Z " fill="#000000"/><text fill="#000000" font-family="sans-serif" font-size="14" lengthAdjust="spacing" textLength="70.3691" x="511.14" y="262.7836">Rectangle</text><line style="stroke:#181818;stroke-width:0.5;" x1="483.14" x2="583.5091" y1="273.9369" y2="273.9369"/><line style="stroke:#181818;stroke-width:0.5;" x1="483.14" x2="583.5091" y1="281.9369" y2="281.9369"/><text fill="#000000" font-family="sans-serif" font-size="14" lengthAdjust="spacing" textLength="47.4893" x="488.14" y="298.932">Draw()</text></g><!--class Picture--><g id="elem_Picture"><rect fill="#F1F1F1" height="113.1875" id="Picture" rx="2.5" ry="2.5" style="stroke:#181818;stroke-width:0.5;" width="134.8965" x="215.87" y="217.4869"/><ellipse cx="255.2311" cy="233.4869" fill="#ADD1B2" rx="11" ry="11" style="stroke:#181818;stroke-width:1.0;"/><path d="M258.1998,239.1275 Q257.6217,239.4244 256.9811,239.565 Q256.3405,239.7213 255.6373,239.7213 Q253.1373,239.7213 251.8092,238.0806 Q250.4967,236.4244 250.4967,233.2994 Q250.4967,230.1744 251.8092,228.5181 Q253.1373,226.8619 255.6373,226.8619 Q256.3405,226.8619 256.9811,227.0181 Q257.6373,227.1744 258.1998,227.4713 L258.1998,230.19 Q257.5748,229.6119 256.9811,229.3463 Q256.3873,229.065 255.7623,229.065 Q254.4186,229.065 253.7311,230.1431 Q253.0436,231.2056 253.0436,233.2994 Q253.0436,235.3931 253.7311,236.4713 Q254.4186,237.5338 255.7623,237.5338 Q256.3873,237.5338 256.9811,237.2681 Q257.5748,236.9869 258.1998,236.4088 L258.1998,239.1275 Z " fill="#000000"/><text fill="#000000" font-family="sans-serif" font-size="14" lengthAdjust="spacing" textLength="48.7607" x="274.6447" y="238.3336">Picture</text><line style="stroke:#181818;stroke-width:0.5;" x1="216.87" x2="349.7665" y1="249.4869" y2="249.4869"/><line style="stroke:#181818;stroke-width:0.5;" x1="216.87" x2="349.7665" y1="257.4869" y2="257.4869"/><text fill="#000000" font-family="sans-serif" font-size="14" lengthAdjust="spacing" textLength="47.4893" x="221.87" y="274.482">Draw()</text><text fill="#000000" font-family="sans-serif" font-size="14" lengthAdjust="spacing" textLength="92.8047" x="221.87" y="290.7789">Add(Graphic)</text><text fill="#000000" font-family="sans-serif" font-size="14" lengthAdjust="spacing" textLength="122.8965" x="221.87" y="307.0757">Remove(Graphic)</text><text fill="#000000" font-family="sans-serif" font-size="14" lengthAdjust="spacing" textLength="89.4414" x="221.87" y="323.3726">GetChild(int)</text></g><path d="M6,231.3869 L6,271.6525 A0,0 0 0 0 6,271.6525 L152.2837,271.6525 A0,0 0 0 0 152.2837,271.6525 L152.2837,255.5197 L219.87,269.6353 L152.2837,247.5197 L152.2837,241.3869 L142.2837,231.3869 L6,231.3869 A0,0 0 0 0 6,231.3869 " fill="#FEFFDD" style="stroke:#181818;stroke-width:0.5;"/><path d="M142.2837,231.3869 L142.2837,241.3869 L152.2837,241.3869 L142.2837,231.3869 " fill="#FEFFDD" style="stroke:#181818;stroke-width:0.5;"/><text fill="#000000" font-family="sans-serif" font-size="13" lengthAdjust="spacing" textLength="125.2837" x="12" y="248.4538">for all g in graphics</text><text fill="#000000" font-family="sans-serif" font-size="13" lengthAdjust="spacing" textLength="56.4814" x="28.5293" y="263.5866">g.Draw()</text><path d="M6,281.6525 L6,306.7853 A0,0 0 0 0 6,306.7853 L180.645,306.7853 A0,0 0 0 0 180.645,306.7853 L180.645,299.6525 L219.87,285.9322 L180.645,291.6525 L180.645,291.6525 L170.645,281.6525 L6,281.6525 A0,0 0 0 0 6,281.6525 " fill="#FEFFDD" style="stroke:#181818;stroke-width:0.5;"/><path d="M170.645,281.6525 L170.645,291.6525 L180.645,291.6525 L170.645,281.6525 " fill="#FEFFDD" style="stroke:#181818;stroke-width:0.5;"/><text fill="#000000" font-family="sans-serif" font-size="13" lengthAdjust="spacing" textLength="153.645" x="12" y="298.7194">add g to list of graphics</text><!--class Text--><g id="elem_Text"><rect fill="#F1F1F1" height="48" id="Text" rx="2.5" ry="2.5" style="stroke:#181818;stroke-width:0.5;" width="62.9395" x="619.85" y="250.0869"/><ellipse cx="634.85" cy="266.0869" fill="#ADD1B2" rx="11" ry="11" style="stroke:#181818;stroke-width:1.0;"/><path d="M637.8188,271.7275 Q637.2406,272.0244 636.6,272.165 Q635.9594,272.3212 635.2563,272.3212 Q632.7563,272.3212 631.4281,270.6806 Q630.1156,269.0244 630.1156,265.8994 Q630.1156,262.7744 631.4281,261.1181 Q632.7563,259.4619 635.2563,259.4619 Q635.9594,259.4619 636.6,259.6181 Q637.2563,259.7744 637.8188,260.0712 L637.8188,262.79 Q637.1938,262.2119 636.6,261.9462 Q636.0063,261.665 635.3813,261.665 Q634.0375,261.665 633.35,262.7431 Q632.6625,263.8056 632.6625,265.8994 Q632.6625,267.9931 633.35,269.0712 Q634.0375,270.1337 635.3813,270.1337 Q636.0063,270.1337 636.6,269.8681 Q637.1938,269.5869 637.8188,269.0087 L637.8188,271.7275 Z " fill="#000000"/><text fill="#000000" font-family="sans-serif" font-size="14" lengthAdjust="spacing" textLength="30.9395" x="648.85" y="270.9336">Text</text><line style="stroke:#181818;stroke-width:0.5;" x1="620.85" x2="681.7895" y1="282.0869" y2="282.0869"/><line style="stroke:#181818;stroke-width:0.5;" x1="620.85" x2="681.7895" y1="290.0869" y2="290.0869"/></g><!--reverse link Graphic to Line--><g id="link_Graphic_Line"><path codeLine="31" d="M416.32,175.6069 C416.32,203.4269 416.32,217.9369 416.32,241.5269 " fill="none" id="Graphic-backto-Line" style="stroke:#181818;stroke-width:1.0;"/><polygon fill="none" points="416.32,157.6069,410.32,175.6069,422.32,175.6069,416.32,157.6069" style="stroke:#181818;stroke-width:1.0;"/></g><!--reverse link Graphic to Rectangle--><g id="link_Graphic_Rectangle"><path codeLine="32" d="M464.52,175.6069 C464.52,226.1169 464.52,274.0869 464.52,274.0869 C464.52,274.0869 471.93,274.0869 481.88,274.0869 " fill="none" id="Graphic-backto-Rectangle" style="stroke:#181818;stroke-width:1.0;"/><polygon fill="none" points="464.52,157.6069,458.52,175.6069,470.52,175.6069,464.52,157.6069" style="stroke:#181818;stroke-width:1.0;"/></g><!--reverse link Graphic to Text--><g id="link_Graphic_Text"><path codeLine="33" d="M501.98,100.8969 C571.4,100.8969 651.32,100.8969 651.32,100.8969 C651.32,100.8969 651.32,201.8969 651.32,249.6369 " fill="none" id="Graphic-backto-Text" style="stroke:#181818;stroke-width:1.0;"/><polygon fill="none" points="483.98,100.8969,501.98,106.8969,501.98,94.8969,483.98,100.8969" style="stroke:#181818;stroke-width:1.0;"/></g><!--reverse link Graphic to Picture--><g id="link_Graphic_Picture"><path codeLine="34" d="M362.43,175.7869 C362.43,208.6869 362.43,225.6369 362.43,225.6369 C362.43,225.6369 357.93,225.6369 351.09,225.6369 " fill="none" id="Graphic-backto-Picture" style="stroke:#181818;stroke-width:1.0;"/><polygon fill="none" points="362.43,157.7869,356.43,175.7869,368.43,175.7869,362.43,157.7869" style="stroke:#181818;stroke-width:1.0;"/></g><!--link Graphic to Picture--><g id="link_Graphic_Picture"><path codeLine="36" d="M374.08,163.6369 C374.08,199.7569 374.08,233.7869 374.08,233.7869 C374.08,233.7869 376.31,233.7869 363.18,233.7869 " fill="none" id="Graphic-Picture" style="stroke:#181818;stroke-width:1.0;"/><polygon fill="#181818" points="374.08,157.6369,370.08,166.6369,374.08,162.6369,378.08,166.6369,374.08,157.6369" style="stroke:#181818;stroke-width:1.0;"/><polygon fill="none" points="351.18,233.7869,357.18,237.7869,363.18,233.7869,357.18,229.7869,351.18,233.7869" style="stroke:#181818;stroke-width:1.0;"/><text fill="#000000" font-family="sans-serif" font-size="13" lengthAdjust="spacing" textLength="55.5864" x="358.8025" y="227.0505">graphics</text></g><!--SRC=[TP71JiGW54NtVCNBhEgYVa3ZnencDYuc4t_WMLvR8WK2RtIC-k_I3eLM8piEbtilZ_2gZ4EF8sXbY3ySWVKyM25OiIROsz7Pe9ZWYCpa3JnUS7IQXC2Nm1vRXeD7DwWMFWMazU3nlRh9stifgoGgy4IZVQE__42y7vIMbJ9yfTz2FCLoq2o-9sePJQzNI1nLosU_8WLiuWl-NQ2SR2i8O-FpDNKCjeEaQfefPgxNMG-eDVIW3FHNjv2Vqz-cFcGaJ4x_-SMMyoMKCbgnZHyIPaMsB0vY6VdTLrt3D9mjoGFQucUwy9Qaz9LXNLlOBP6xBFW1]--></g></svg>