<svg xmlns="http://www.w3.org/2000/svg" xmlns:xlink="http://www.w3.org/1999/xlink" contentStyleType="text/css" height="300px" preserveAspectRatio="none" style="width:475px;height:300px;background:#FFFFFF;" version="1.1" viewBox="0 0 475 300" width="475px" zoomAndPan="magnify"><defs/><g><!--class Component--><g id="elem_Component"><rect codeLine="5" fill="#F1F1F1" height="113.1875" id="Component" rx="2.5" ry="2.5" style="stroke:#181818;stroke-width:0.5;" width="161.6455" x="179.68" y="7"/><ellipse cx="216.4448" cy="23" fill="#ADD1B2" rx="11" ry="11" style="stroke:#181818;stroke-width:1.0;"/><path d="M219.4135,28.6406 Q218.8354,28.9375 218.1948,29.0781 Q217.5542,29.2344 216.851,29.2344 Q214.351,29.2344 213.0229,27.5938 Q211.7104,25.9375 211.7104,22.8125 Q211.7104,19.6875 213.0229,18.0313 Q214.351,16.375 216.851,16.375 Q217.5542,16.375 218.1948,16.5313 Q218.851,16.6875 219.4135,16.9844 L219.4135,19.7031 Q218.7885,19.125 218.1948,18.8594 Q217.601,18.5781 216.976,18.5781 Q215.6323,18.5781 214.9448,19.6563 Q214.2573,20.7188 214.2573,22.8125 Q214.2573,24.9063 214.9448,25.9844 Q215.6323,27.0469 216.976,27.0469 Q217.601,27.0469 218.1948,26.7813 Q218.7885,26.5 219.4135,25.9219 L219.4135,28.6406 Z " fill="#000000"/><text fill="#000000" font-family="sans-serif" font-size="14" lengthAdjust="spacing" textLength="81.2793" x="235.2814" y="27.8467">Component</text><line style="stroke:#181818;stroke-width:0.5;" x1="180.68" x2="340.3255" y1="39" y2="39"/><line style="stroke:#181818;stroke-width:0.5;" x1="180.68" x2="340.3255" y1="47" y2="47"/><text fill="#000000" font-family="sans-serif" font-size="14" lengthAdjust="spacing" textLength="80.5957" x="185.68" y="63.9951">Operation()</text><text fill="#000000" font-family="sans-serif" font-size="14" lengthAdjust="spacing" textLength="119.5537" x="185.68" y="80.292">Add(Component)</text><text fill="#000000" font-family="sans-serif" font-size="14" lengthAdjust="spacing" textLength="149.6455" x="185.68" y="96.5889">Remove(Component)</text><text fill="#000000" font-family="sans-serif" font-size="14" lengthAdjust="spacing" textLength="89.4414" x="185.68" y="112.8857">GetChild(int)</text></g><!--class Leaf--><g id="elem_Leaf"><rect codeLine="12" fill="#F1F1F1" height="64.2969" id="Leaf" rx="2.5" ry="2.5" style="stroke:#181818;stroke-width:0.5;" width="92.5957" x="376.21" y="204.64"/><ellipse cx="405.0137" cy="220.64" fill="#ADD1B2" rx="11" ry="11" style="stroke:#181818;stroke-width:1.0;"/><path d="M407.9824,226.2806 Q407.4043,226.5775 406.7637,226.7181 Q406.123,226.8744 405.4199,226.8744 Q402.9199,226.8744 401.5918,225.2338 Q400.2793,223.5775 400.2793,220.4525 Q400.2793,217.3275 401.5918,215.6713 Q402.9199,214.015 405.4199,214.015 Q406.123,214.015 406.7637,214.1713 Q407.4199,214.3275 407.9824,214.6244 L407.9824,217.3431 Q407.3574,216.765 406.7637,216.4994 Q406.1699,216.2181 405.5449,216.2181 Q404.2012,216.2181 403.5137,217.2963 Q402.8262,218.3588 402.8262,220.4525 Q402.8262,222.5463 403.5137,223.6244 Q404.2012,224.6869 405.5449,224.6869 Q406.1699,224.6869 406.7637,224.4213 Q407.3574,224.14 407.9824,223.5619 L407.9824,226.2806 Z " fill="#000000"/><text fill="#000000" font-family="sans-serif" font-size="14" lengthAdjust="spacing" textLength="29.9209" x="422.0811" y="225.4867">Leaf</text><line style="stroke:#181818;stroke-width:0.5;" x1="377.21" x2="467.8057" y1="236.64" y2="236.64"/><line style="stroke:#181818;stroke-width:0.5;" x1="377.21" x2="467.8057" y1="244.64" y2="244.64"/><text fill="#000000" font-family="sans-serif" font-size="14" lengthAdjust="spacing" textLength="80.5957" x="382.21" y="261.6351">Operation()</text></g><!--class Composite--><g id="elem_Composite"><rect codeLine="16" fill="#F1F1F1" height="113.1875" id="Composite" rx="2.5" ry="2.5" style="stroke:#181818;stroke-width:0.5;" width="161.6455" x="179.68" y="180.19"/><ellipse cx="219.3979" cy="196.19" fill="#ADD1B2" rx="11" ry="11" style="stroke:#181818;stroke-width:1.0;"/><path d="M222.3667,201.8306 Q221.7885,202.1275 221.1479,202.2681 Q220.5073,202.4244 219.8042,202.4244 Q217.3042,202.4244 215.976,200.7838 Q214.6635,199.1275 214.6635,196.0025 Q214.6635,192.8775 215.976,191.2213 Q217.3042,189.565 219.8042,189.565 Q220.5073,189.565 221.1479,189.7213 Q221.8042,189.8775 222.3667,190.1744 L222.3667,192.8931 Q221.7417,192.315 221.1479,192.0494 Q220.5542,191.7681 219.9292,191.7681 Q218.5854,191.7681 217.8979,192.8463 Q217.2104,193.9088 217.2104,196.0025 Q217.2104,198.0963 217.8979,199.1744 Q218.5854,200.2369 219.9292,200.2369 Q220.5542,200.2369 221.1479,199.9713 Q221.7417,199.69 222.3667,199.1119 L222.3667,201.8306 Z " fill="#000000"/><text fill="#000000" font-family="sans-serif" font-size="14" lengthAdjust="spacing" textLength="74.7168" x="238.8908" y="201.0367">Composite</text><line style="stroke:#181818;stroke-width:0.5;" x1="180.68" x2="340.3255" y1="212.19" y2="212.19"/><line style="stroke:#181818;stroke-width:0.5;" x1="180.68" x2="340.3255" y1="220.19" y2="220.19"/><text fill="#000000" font-family="sans-serif" font-size="14" lengthAdjust="spacing" textLength="80.5957" x="185.68" y="237.1851">Operation()</text><text fill="#000000" font-family="sans-serif" font-size="14" lengthAdjust="spacing" textLength="119.5537" x="185.68" y="253.482">Add(Component)</text><text fill="#000000" font-family="sans-serif" font-size="14" lengthAdjust="spacing" textLength="149.6455" x="185.68" y="269.7789">Remove(Component)</text><text fill="#000000" font-family="sans-serif" font-size="14" lengthAdjust="spacing" textLength="89.4414" x="185.68" y="286.0757">GetChild(int)</text></g><path d="M6,211.65 L6,251.9156 A0,0 0 0 0 6,251.9156 L145.0093,251.9156 A0,0 0 0 0 145.0093,251.9156 L145.0093,235.7828 L183.68,232.3384 L145.0093,227.7828 L145.0093,221.65 L135.0093,211.65 L6,211.65 A0,0 0 0 0 6,211.65 " fill="#FEFFDD" style="stroke:#181818;stroke-width:0.5;"/><path d="M135.0093,211.65 L135.0093,221.65 L145.0093,221.65 L135.0093,211.65 " fill="#FEFFDD" style="stroke:#181818;stroke-width:0.5;"/><text fill="#000000" font-family="sans-serif" font-size="13" lengthAdjust="spacing" textLength="118.0093" x="12" y="228.7169">forall g in children</text><text fill="#000000" font-family="sans-serif" font-size="13" lengthAdjust="spacing" textLength="91.603" x="28.5293" y="243.8497">g.Operation();</text><!--entity Client--><g id="elem_Client"><rect fill="#F1F1F1" height="36.2969" rx="2.5" ry="2.5" style="stroke:#181818;stroke-width:0.5;" width="60.5303" x="84.24" y="45.45"/><text fill="#000000" font-family="sans-serif" font-size="14" lengthAdjust="spacing" textLength="40.5303" x="94.24" y="68.4451">Client</text></g><!--reverse link Component to Leaf--><g id="link_Component_Leaf"><path codeLine="30" d="M359.5,63.6 C400,63.6 422.5,63.6 422.5,63.6 C422.5,63.6 422.5,154.04 422.5,204.21 " fill="none" id="Component-backto-Leaf" style="stroke:#181818;stroke-width:1.0;"/><polygon fill="none" points="341.5,63.6,359.5,69.6,359.5,57.6,341.5,63.6" style="stroke:#181818;stroke-width:1.0;"/></g><!--reverse link Component to Composite--><g id="link_Component_Composite"><path codeLine="31" d="M233.56,138.31 C233.56,157.44 233.56,160.8 233.56,179.95 " fill="none" id="Component-backto-Composite" style="stroke:#181818;stroke-width:1.0;"/><polygon fill="none" points="233.56,120.31,227.56,138.31,239.56,138.31,233.56,120.31" style="stroke:#181818;stroke-width:1.0;"/></g><!--link Component to Composite--><g id="link_Component_Composite"><path codeLine="33" d="M287.45,126.31 C287.45,145.44 287.45,148.8 287.45,167.95 " fill="none" id="Component-Composite" style="stroke:#181818;stroke-width:1.0;"/><polygon fill="#181818" points="287.45,120.31,283.45,129.31,287.45,125.31,291.45,129.31,287.45,120.31" style="stroke:#181818;stroke-width:1.0;"/><polygon fill="none" points="287.45,179.95,291.45,173.95,287.45,167.95,283.45,173.95,287.45,179.95" style="stroke:#181818;stroke-width:1.0;"/><text fill="#000000" font-family="sans-serif" font-size="13" lengthAdjust="spacing" textLength="52.4443" x="235.5925" y="169.1843">children</text></g><!--link Client to Component--><g id="link_Client_Component"><path codeLine="34" d="M145.11,63.6 C155.31,63.6 161.2,63.6 173.4,63.6 " fill="none" id="Client-to-Component" style="stroke:#181818;stroke-width:1.0;"/><polygon fill="#181818" points="179.4,63.6,170.4,59.6,174.4,63.6,170.4,67.6,179.4,63.6" style="stroke:#181818;stroke-width:1.0;"/></g><!--SRC=[lP71QiD034Jl-WgHatlOV81R2iM7N0A5_i5YoskHjMJMearey-zrqdgTXD9ZzZWxp1j6uuvbyCdt65d83WEX9kiKV8pwqVEU9G3KqOyZLjeFAYI6du2_xtMWv8rLYeUilJHDaRsB_4QzljDVFnkogkFO53ohnvcv9T_-WpjUTHlPw2xTH2TGfDPGsmLTbfbuDhQQfXKn80lMfun4adF3-gBU8v0qU4e5I5IRbn09gyXJ5O1bzwSlvywJt6gvmvNRESNLJ5vTc7wIqIKEdRddvRBm3G00]--></g></svg>