<?xml version="1.0" encoding="us-ascii" standalone="no"?><svg xmlns="http://www.w3.org/2000/svg" xmlns:xlink="http://www.w3.org/1999/xlink" contentStyleType="text/css" height="486px" preserveAspectRatio="none" style="width:1025px;height:486px;background:#FFFFFF;" version="1.1" viewBox="0 0 1025 486" width="1025px" zoomAndPan="magnify"><defs/><g><text fill="#000000" font-family="sans-serif" font-size="14" font-weight="bold" lengthAdjust="spacing" textLength="128" x="441.5" y="22.9951">Lexi: Formatting</text><!--cluster lexi--><g id="cluster_lexi"><path d="M22,99.4269 L50,99.4269 A3.75,3.75 0 0 1 52.5,101.9269 L59.5,121.7238 L1015.5,121.7238 A2.5,2.5 0 0 1 1018,124.2238 L1018,476.9269 A2.5,2.5 0 0 1 1015.5,479.4269 L22,479.4269 A2.5,2.5 0 0 1 19.5,476.9269 L19.5,101.9269 A2.5,2.5 0 0 1 22,99.4269 " fill="none" style="stroke:#000000;stroke-width:1.5;"/><line style="stroke:#000000;stroke-width:1.5;" x1="19.5" x2="59.5" y1="121.7238" y2="121.7238"/><text fill="#000000" font-family="sans-serif" font-size="14" font-weight="bold" lengthAdjust="spacing" textLength="27" x="23.5" y="114.422">lexi</text></g><!--cluster glyph--><g id="cluster_glyph"><path d="M46,214.4269 L90,214.4269 A3.75,3.75 0 0 1 92.5,216.9269 L99.5,236.7238 L379.5,236.7238 A2.5,2.5 0 0 1 382,239.2238 L382,298.9269 A2.5,2.5 0 0 1 379.5,301.4269 L46,301.4269 A2.5,2.5 0 0 1 43.5,298.9269 L43.5,216.9269 A2.5,2.5 0 0 1 46,214.4269 " fill="none" style="stroke:#000000;stroke-width:1.5;"/><line style="stroke:#000000;stroke-width:1.5;" x1="43.5" x2="99.5" y1="236.7238" y2="236.7238"/><text fill="#000000" font-family="sans-serif" font-size="14" font-weight="bold" lengthAdjust="spacing" textLength="43" x="47.5" y="229.422">glyph</text></g><!--cluster strategy--><g id="cluster_strategy"><path d="M412.5,142.4269 L479.5,142.4269 A3.75,3.75 0 0 1 482,144.9269 L489,164.7238 L991.5,164.7238 A2.5,2.5 0 0 1 994,167.2238 L994,452.9269 A2.5,2.5 0 0 1 991.5,455.4269 L412.5,455.4269 A2.5,2.5 0 0 1 410,452.9269 L410,144.9269 A2.5,2.5 0 0 1 412.5,142.4269 " fill="none" style="stroke:#000000;stroke-width:1.5;"/><line style="stroke:#000000;stroke-width:1.5;" x1="410" x2="489" y1="164.7238" y2="164.7238"/><text fill="#000000" font-family="sans-serif" font-size="14" font-weight="bold" lengthAdjust="spacing" textLength="66" x="414" y="157.422">strategy</text></g><!--entity Glyph--><g id="elem_Glyph"><rect fill="#F1F1F1" height="36.2969" rx="2.5" ry="2.5" style="stroke:#181818;stroke-width:0.5;" width="59" x="59.5" y="249.2769"/><text fill="#000000" font-family="sans-serif" font-size="14" lengthAdjust="spacing" textLength="39" x="69.5" y="272.272">Glyph</text></g><!--entity GlyphComposite--><g id="elem_GlyphComposite"><rect fill="#F1F1F1" height="36.2969" rx="2.5" ry="2.5" style="stroke:#181818;stroke-width:0.5;" width="134" x="232" y="249.2769"/><text fill="#000000" font-family="sans-serif" font-size="14" lengthAdjust="spacing" textLength="114" x="242" y="272.272">GlyphComposite</text></g><!--class GlyphStrategyCompositor--><g id="elem_GlyphStrategyCompositor"><rect codeLine="15" fill="#F1F1F1" height="96.8906" id="GlyphStrategyCompositor" rx="2.5" ry="2.5" style="stroke:#181818;stroke-width:0.5;" width="238" x="426" y="218.9769"/><ellipse cx="454.5" cy="234.9769" fill="#ADD1B2" rx="11" ry="11" style="stroke:#181818;stroke-width:1.0;"/><path d="M457.4688,240.6175 Q456.8906,240.9144 456.25,241.055 Q455.6094,241.2113 454.9063,241.2113 Q452.4063,241.2113 451.0781,239.5706 Q449.7656,237.9144 449.7656,234.7894 Q449.7656,231.6644 451.0781,230.0081 Q452.4063,228.3519 454.9063,228.3519 Q455.6094,228.3519 456.25,228.5081 Q456.9063,228.6644 457.4688,228.9613 L457.4688,231.68 Q456.8438,231.1019 456.25,230.8363 Q455.6563,230.555 455.0313,230.555 Q453.6875,230.555 453,231.6331 Q452.3125,232.6956 452.3125,234.7894 Q452.3125,236.8831 453,237.9613 Q453.6875,239.0238 455.0313,239.0238 Q455.6563,239.0238 456.25,238.7581 Q456.8438,238.4769 457.4688,237.8988 L457.4688,240.6175 Z " fill="#000000"/><text fill="#000000" font-family="sans-serif" font-size="14" lengthAdjust="spacing" textLength="176" x="471.5" y="239.8236">GlyphStrategyCompositor</text><line style="stroke:#181818;stroke-width:0.5;" x1="427" x2="663" y1="250.9769" y2="250.9769"/><rect fill="none" height="6" style="stroke:#C82930;stroke-width:1.0;" width="6" x="434" y="261.6253"/><text fill="#000000" font-family="sans-serif" font-size="14" lengthAdjust="spacing" textLength="212" x="446" y="267.972">composition : GlyphComposite</text><line style="stroke:#181818;stroke-width:0.5;" x1="427" x2="663" y1="275.2738" y2="275.2738"/><ellipse cx="437" cy="288.9222" fill="#84BE84" rx="3" ry="3" style="stroke:#038048;stroke-width:1.0;"/><text fill="#000000" font-family="sans-serif" font-size="14" lengthAdjust="spacing" textLength="75" x="446" y="292.2689">compose()</text><ellipse cx="437" cy="305.2191" fill="#84BE84" rx="3" ry="3" style="stroke:#038048;stroke-width:1.0;"/><text fill="#000000" font-family="sans-serif" font-size="14" lengthAdjust="spacing" textLength="119" x="446" y="308.5657">setComposition()</text></g><!--class GlyphStrategyArrayCompositor--><g id="elem_GlyphStrategyArrayCompositor"><rect codeLine="16" fill="#F1F1F1" height="64.2969" id="GlyphStrategyArrayCompositor" rx="2.5" ry="2.5" style="stroke:#181818;stroke-width:0.5;" width="242" x="730" y="375.2769"/><ellipse cx="745" cy="391.2769" fill="#ADD1B2" rx="11" ry="11" style="stroke:#181818;stroke-width:1.0;"/><path d="M747.9688,396.9175 Q747.3906,397.2144 746.75,397.355 Q746.1094,397.5113 745.4063,397.5113 Q742.9063,397.5113 741.5781,395.8706 Q740.2656,394.2144 740.2656,391.0894 Q740.2656,387.9644 741.5781,386.3081 Q742.9063,384.6519 745.4063,384.6519 Q746.1094,384.6519 746.75,384.8081 Q747.4063,384.9644 747.9688,385.2613 L747.9688,387.98 Q747.3438,387.4019 746.75,387.1363 Q746.1563,386.855 745.5313,386.855 Q744.1875,386.855 743.5,387.9331 Q742.8125,388.9956 742.8125,391.0894 Q742.8125,393.1831 743.5,394.2613 Q744.1875,395.3238 745.5313,395.3238 Q746.1563,395.3238 746.75,395.0581 Q747.3438,394.7769 747.9688,394.1988 L747.9688,396.9175 Z " fill="#000000"/><text fill="#000000" font-family="sans-serif" font-size="14" lengthAdjust="spacing" textLength="210" x="759" y="396.1236">GlyphStrategyArrayCompositor</text><line style="stroke:#181818;stroke-width:0.5;" x1="731" x2="971" y1="407.2769" y2="407.2769"/><line style="stroke:#181818;stroke-width:0.5;" x1="731" x2="971" y1="415.2769" y2="415.2769"/><ellipse cx="741" cy="428.9253" fill="#84BE84" rx="3" ry="3" style="stroke:#038048;stroke-width:1.0;"/><text fill="#000000" font-family="sans-serif" font-size="14" lengthAdjust="spacing" textLength="75" x="750" y="432.272">compose()</text></g><!--class GlyphStrategyTeXCompositor--><g id="elem_GlyphStrategyTeXCompositor"><rect codeLine="17" fill="#F1F1F1" height="64.2969" id="GlyphStrategyTeXCompositor" rx="2.5" ry="2.5" style="stroke:#181818;stroke-width:0.5;" width="235" x="733.5" y="276.2769"/><ellipse cx="748.5" cy="292.2769" fill="#ADD1B2" rx="11" ry="11" style="stroke:#181818;stroke-width:1.0;"/><path d="M751.4688,297.9175 Q750.8906,298.2144 750.25,298.355 Q749.6094,298.5113 748.9063,298.5113 Q746.4063,298.5113 745.0781,296.8706 Q743.7656,295.2144 743.7656,292.0894 Q743.7656,288.9644 745.0781,287.3081 Q746.4063,285.6519 748.9063,285.6519 Q749.6094,285.6519 750.25,285.8081 Q750.9063,285.9644 751.4688,286.2613 L751.4688,288.98 Q750.8438,288.4019 750.25,288.1363 Q749.6563,287.855 749.0313,287.855 Q747.6875,287.855 747,288.9331 Q746.3125,289.9956 746.3125,292.0894 Q746.3125,294.1831 747,295.2613 Q747.6875,296.3238 749.0313,296.3238 Q749.6563,296.3238 750.25,296.0581 Q750.8438,295.7769 751.4688,295.1988 L751.4688,297.9175 Z " fill="#000000"/><text fill="#000000" font-family="sans-serif" font-size="14" lengthAdjust="spacing" textLength="203" x="762.5" y="297.1236">GlyphStrategyTeXCompositor</text><line style="stroke:#181818;stroke-width:0.5;" x1="734.5" x2="967.5" y1="308.2769" y2="308.2769"/><line style="stroke:#181818;stroke-width:0.5;" x1="734.5" x2="967.5" y1="316.2769" y2="316.2769"/><ellipse cx="744.5" cy="329.9253" fill="#84BE84" rx="3" ry="3" style="stroke:#038048;stroke-width:1.0;"/><text fill="#000000" font-family="sans-serif" font-size="14" lengthAdjust="spacing" textLength="75" x="753.5" y="333.272">compose()</text></g><!--class GlyphStrategySimpleCompositor--><g id="elem_GlyphStrategySimpleCompositor"><rect codeLine="18" fill="#F1F1F1" height="64.2969" id="GlyphStrategySimpleCompositor" rx="2.5" ry="2.5" style="stroke:#181818;stroke-width:0.5;" width="254" x="724" y="177.2769"/><ellipse cx="739" cy="193.2769" fill="#ADD1B2" rx="11" ry="11" style="stroke:#181818;stroke-width:1.0;"/><path d="M741.9688,198.9175 Q741.3906,199.2144 740.75,199.355 Q740.1094,199.5113 739.4063,199.5113 Q736.9063,199.5113 735.5781,197.8706 Q734.2656,196.2144 734.2656,193.0894 Q734.2656,189.9644 735.5781,188.3081 Q736.9063,186.6519 739.4063,186.6519 Q740.1094,186.6519 740.75,186.8081 Q741.4063,186.9644 741.9688,187.2613 L741.9688,189.98 Q741.3438,189.4019 740.75,189.1363 Q740.1563,188.855 739.5313,188.855 Q738.1875,188.855 737.5,189.9331 Q736.8125,190.9956 736.8125,193.0894 Q736.8125,195.1831 737.5,196.2613 Q738.1875,197.3238 739.5313,197.3238 Q740.1563,197.3238 740.75,197.0581 Q741.3438,196.7769 741.9688,196.1988 L741.9688,198.9175 Z " fill="#000000"/><text fill="#000000" font-family="sans-serif" font-size="14" lengthAdjust="spacing" textLength="222" x="753" y="198.1236">GlyphStrategySimpleCompositor</text><line style="stroke:#181818;stroke-width:0.5;" x1="725" x2="977" y1="209.2769" y2="209.2769"/><line style="stroke:#181818;stroke-width:0.5;" x1="725" x2="977" y1="217.2769" y2="217.2769"/><ellipse cx="735" cy="230.9253" fill="#84BE84" rx="3" ry="3" style="stroke:#038048;stroke-width:1.0;"/><text fill="#000000" font-family="sans-serif" font-size="14" lengthAdjust="spacing" textLength="75" x="744" y="234.272">compose()</text></g><g id="elem_nGlyphStrategyCompositionInsert"><path d="M6,43.2969 L6,83.5625 A0,0 0 0 0 6,83.5625 L106.7,83.5625 L279.19,248.9769 L114.7,83.5625 L172,83.5625 A0,0 0 0 0 172,83.5625 L172,53.2969 L162,43.2969 L6,43.2969 A0,0 0 0 0 6,43.2969 " fill="#FEFFDD" style="stroke:#181818;stroke-width:0.5;"/><path d="M162,43.2969 L162,53.2969 L172,53.2969 L162,43.2969 " fill="#FEFFDD" style="stroke:#181818;stroke-width:0.5;"/><text fill="#000000" font-family="sans-serif" font-size="13" lengthAdjust="spacing" textLength="109" x="12" y="60.3638">Glyph::Insert(g, i)</text><text fill="#000000" font-family="sans-serif" font-size="13" lengthAdjust="spacing" textLength="145" x="12" y="75.4966">compositor.compose()</text></g><!--reverse link GlyphStrategyCompositor to GlyphStrategyArrayCompositor--><g id="link_GlyphStrategyCompositor_GlyphStrategyArrayCompositor"><path codeLine="39" d="M653.0707,324.4523 C680.7107,338.6523 695.34,345.5669 724,358.4269 C736.42,363.9969 749.68,369.5669 762.76,374.8369 " fill="none" id="GlyphStrategyCompositor-backto-GlyphStrategyArrayCompositor" style="stroke:#181818;stroke-width:1.0;"/><polygon fill="none" points="637.06,316.2269,650.3289,329.7892,655.8125,319.1154,637.06,316.2269" style="stroke:#181818;stroke-width:1.0;"/></g><!--reverse link GlyphStrategyCompositor to GlyphStrategyTeXCompositor--><g id="link_GlyphStrategyCompositor_GlyphStrategyTeXCompositor"><path codeLine="40" d="M682.2384,285.8036 C704.9184,288.8636 710.8,289.6569 733.42,292.7069 " fill="none" id="GlyphStrategyCompositor-backto-GlyphStrategyTeXCompositor" style="stroke:#181818;stroke-width:1.0;"/><polygon fill="none" points="664.4,283.3969,681.4361,291.7498,683.0406,279.8575,664.4,283.3969" style="stroke:#181818;stroke-width:1.0;"/></g><!--reverse link GlyphStrategyCompositor to GlyphStrategySimpleCompositor--><g id="link_GlyphStrategyCompositor_GlyphStrategySimpleCompositor"><path codeLine="41" d="M682.0806,241.4609 C701.5106,237.7509 704.02,237.2769 723.63,233.5369 " fill="none" id="GlyphStrategyCompositor-backto-GlyphStrategySimpleCompositor" style="stroke:#181818;stroke-width:1.0;"/><polygon fill="none" points="664.4,244.8369,683.2059,247.3544,680.9553,235.5674,664.4,244.8369" style="stroke:#181818;stroke-width:1.0;"/></g><!--link Glyph to GlyphComposite--><g id="link_Glyph_GlyphComposite"><path codeLine="43" d="M124.92,267.4269 C153.94,267.4269 181.67,267.4269 219.65,267.4269 " fill="none" id="Glyph-GlyphComposite" style="stroke:#181818;stroke-width:1.0;"/><polygon fill="#181818" points="118.92,267.4269,127.92,271.4269,123.92,267.4269,127.92,263.4269,118.92,267.4269" style="stroke:#181818;stroke-width:1.0;"/><polygon fill="none" points="231.65,267.4269,225.65,263.4269,219.65,267.4269,225.65,271.4269,231.65,267.4269" style="stroke:#181818;stroke-width:1.0;"/><text fill="#000000" font-family="sans-serif" font-size="13" lengthAdjust="spacing" textLength="50" x="174.0023" y="280.1205">children</text></g><!--link GlyphComposite to GlyphStrategyCompositor--><g id="link_GlyphComposite_GlyphStrategyCompositor"><path codeLine="44" d="M378.3349,279.8578 C396.6849,280.7778 399.18,280.6246 419.53,280.5646 " fill="none" id="GlyphComposite-GlyphStrategyCompositor" style="stroke:#181818;stroke-width:1.0;"/><polygon fill="none" points="366.35,279.2569,372.1422,283.5523,378.3349,279.8578,372.5428,275.5623,366.35,279.2569" style="stroke:#181818;stroke-width:1.0;"/><polygon fill="#181818" points="425.53,280.5469,416.5182,276.5734,420.53,280.5616,416.5418,284.5734,425.53,280.5469" style="stroke:#181818;stroke-width:1.0;"/><text fill="#000000" font-family="sans-serif" font-size="13" lengthAdjust="spacing" textLength="64" x="354.4035" y="295.7461">compsitor</text></g><!--reverse link GlyphComposite to GlyphStrategyCompositor--><g id="link_GlyphComposite_GlyphStrategyCompositor"><path codeLine="45" d="M372.3425,255.2964 C390.6925,254.3764 405.18,254.2469 425.53,254.3069 " fill="none" id="GlyphComposite-backto-GlyphStrategyCompositor" style="stroke:#181818;stroke-width:1.0;"/><polygon fill="#181818" points="366.35,255.5969,375.539,259.1412,371.3437,255.3465,375.1384,251.1512,366.35,255.5969" style="stroke:#181818;stroke-width:1.0;"/><text fill="#000000" font-family="sans-serif" font-size="13" lengthAdjust="spacing" textLength="78" x="340.5972" y="238.2012">composition</text></g><!--SRC=[fLF9Ri8m4BtxAuPS2cgT3uXG9OhI2eb58XnwTOCRh3fsP4zLKCk_rrc0af8G2H-YpFYzDvuD1KeEKxuL0Jnhap94eH92c9JwAnNRt93y7G4r695i4DR2y1Y5LeHaBFvW2GVfw7uYTza6lWcuaoEOIfpoI-wzv1lhDDDM82ykzyMNz2moW_Rp3SRJKHI5KIs6HSEG9xigJ2oPjQLSLDqSPBLfGeoCOHrWA_vw7HI9D9EyXjiJqkDgxR8WTxJB8N_odeMpft3fycx82WAWSMMv7ZYpLirctdt9u_r16yXo79_q7PQqLQz5zgo0BRXw3S-XDvHo6Kv7gybYtbBCuG-bxTFHdNa-CDrv_sQevCAGKWrUl15oRRZoBlRvQ3gW-otu7cXA7nkteiPpKKfkrN2laNX39-QBLRxAIhk0p8Aw6C85doZB3HPBL422eFJqamSGWt89Zm_oJqFY7WQ5EBaY3RvVgsCGY3Be8JqWXFm2]--></g></svg>