<?xml version="1.0" encoding="us-ascii" standalone="no"?><svg xmlns="http://www.w3.org/2000/svg" xmlns:xlink="http://www.w3.org/1999/xlink" contentStyleType="text/css" height="794px" preserveAspectRatio="none" style="width:1082px;height:794px;background:#FFFFFF;" version="1.1" viewBox="0 0 1082 794" width="1082px" zoomAndPan="magnify"><defs/><g><text fill="#000000" font-family="sans-serif" font-size="14" font-weight="bold" lengthAdjust="spacing" textLength="208" x="430" y="22.9951">Lexi : Document Structure</text><!--class Glyph--><g id="elem_Glyph"><rect codeLine="9" fill="#F1F1F1" height="259.8594" id="Glyph" rx="2.5" ry="2.5" style="stroke:#181818;stroke-width:0.5;" width="188" x="200" y="122.2969"/><ellipse cx="270.25" cy="138.2969" fill="#ADD1B2" rx="11" ry="11" style="stroke:#181818;stroke-width:1.0;"/><path d="M273.2188,143.9375 Q272.6406,144.2344 272,144.375 Q271.3594,144.5313 270.6563,144.5313 Q268.1563,144.5313 266.8281,142.8906 Q265.5156,141.2344 265.5156,138.1094 Q265.5156,134.9844 266.8281,133.3281 Q268.1563,131.6719 270.6563,131.6719 Q271.3594,131.6719 272,131.8281 Q272.6563,131.9844 273.2188,132.2813 L273.2188,135 Q272.5938,134.4219 272,134.1563 Q271.4063,133.875 270.7813,133.875 Q269.4375,133.875 268.75,134.9531 Q268.0625,136.0156 268.0625,138.1094 Q268.0625,140.2031 268.75,141.2813 Q269.4375,142.3438 270.7813,142.3438 Q271.4063,142.3438 272,142.0781 Q272.5938,141.7969 273.2188,141.2188 L273.2188,143.9375 Z " fill="#000000"/><text fill="#000000" font-family="sans-serif" font-size="14" lengthAdjust="spacing" textLength="39" x="290.75" y="143.1436">Glyph</text><line style="stroke:#181818;stroke-width:0.5;" x1="201" x2="387" y1="154.2969" y2="154.2969"/><rect fill="none" height="6" style="stroke:#C82930;stroke-width:1.0;" width="6" x="208" y="164.9453"/><text fill="#000000" font-family="sans-serif" font-size="14" lengthAdjust="spacing" textLength="93" x="220" y="171.292">parent: Glyph</text><line style="stroke:#181818;stroke-width:0.5;" x1="201" x2="387" y1="178.5938" y2="178.5938"/><ellipse cx="211" cy="192.2422" fill="#84BE84" rx="3" ry="3" style="stroke:#038048;stroke-width:1.0;"/><text fill="#000000" font-family="sans-serif" font-size="14" lengthAdjust="spacing" textLength="134" x="220" y="195.5889">draw(Window): void</text><ellipse cx="211" cy="208.5391" fill="#84BE84" rx="3" ry="3" style="stroke:#038048;stroke-width:1.0;"/><text fill="#000000" font-family="sans-serif" font-size="14" lengthAdjust="spacing" textLength="136" x="220" y="211.8857">bounds(Rect) : void</text><ellipse cx="211" cy="224.8359" fill="#84BE84" rx="3" ry="3" style="stroke:#038048;stroke-width:1.0;"/><text fill="#000000" font-family="sans-serif" font-size="14" lengthAdjust="spacing" textLength="114" x="220" y="228.1826">intersects(Point)</text><ellipse cx="211" cy="241.1328" fill="#84BE84" rx="3" ry="3" style="stroke:#038048;stroke-width:1.0;"/><text fill="#000000" font-family="sans-serif" font-size="14" lengthAdjust="spacing" textLength="113" x="220" y="244.4795">insert(Glyph, int)</text><ellipse cx="211" cy="257.4297" fill="#84BE84" rx="3" ry="3" style="stroke:#038048;stroke-width:1.0;"/><text fill="#000000" font-family="sans-serif" font-size="14" lengthAdjust="spacing" textLength="138" x="220" y="260.7764">remove(Glyph): void</text><ellipse cx="211" cy="273.7266" fill="#84BE84" rx="3" ry="3" style="stroke:#038048;stroke-width:1.0;"/><text fill="#000000" font-family="sans-serif" font-size="14" lengthAdjust="spacing" textLength="107" x="220" y="277.0732">child(int): Glyph</text><ellipse cx="211" cy="290.0234" fill="#84BE84" rx="3" ry="3" style="stroke:#038048;stroke-width:1.0;"/><text fill="#000000" font-family="sans-serif" font-size="14" lengthAdjust="spacing" textLength="103" x="220" y="293.3701">parent(): Glyph</text><polygon fill="#FFFF44" points="211,301.3203,215,305.3203,211,309.3203,207,305.3203" style="stroke:#B38D22;stroke-width:1.0;"/><text fill="#000000" font-family="sans-serif" font-size="14" lengthAdjust="spacing" textLength="135" x="220" y="309.667">parent(Glyph) : void</text><ellipse cx="211" cy="322.6172" fill="#84BE84" rx="3" ry="3" style="stroke:#038048;stroke-width:1.0;"/><text fill="#000000" font-family="sans-serif" font-size="14" lengthAdjust="spacing" textLength="82" x="220" y="325.9639">rect() : Rect</text><polygon fill="#FFFF44" points="211,333.9141,215,337.9141,211,341.9141,207,337.9141" style="stroke:#B38D22;stroke-width:1.0;"/><text fill="#000000" font-family="sans-serif" font-size="14" lengthAdjust="spacing" textLength="110" x="220" y="342.2607">rect(Rect) : void</text><ellipse cx="211" cy="355.2109" fill="#84BE84" rx="3" ry="3" style="stroke:#038048;stroke-width:1.0;"/><text fill="#000000" font-family="sans-serif" font-size="14" lengthAdjust="spacing" textLength="119" x="220" y="358.5576">isLeaf() : Boolean</text><ellipse cx="211" cy="371.5078" fill="#84BE84" rx="3" ry="3" style="stroke:#038048;stroke-width:1.0;"/><text fill="#000000" font-family="sans-serif" font-size="14" lengthAdjust="spacing" textLength="162" x="220" y="374.8545">isComposite(): Boolean</text></g><!--class GlyphComposite--><g id="elem_GlyphComposite"><rect codeLine="10" fill="#F1F1F1" height="113.1875" id="GlyphComposite" rx="2.5" ry="2.5" style="stroke:#181818;stroke-width:0.5;" width="293" x="496" y="44.2969"/><ellipse cx="581.25" cy="60.2969" fill="#ADD1B2" rx="11" ry="11" style="stroke:#181818;stroke-width:1.0;"/><path d="M584.2188,65.9375 Q583.6406,66.2344 583,66.375 Q582.3594,66.5313 581.6563,66.5313 Q579.1563,66.5313 577.8281,64.8906 Q576.5156,63.2344 576.5156,60.1094 Q576.5156,56.9844 577.8281,55.3281 Q579.1563,53.6719 581.6563,53.6719 Q582.3594,53.6719 583,53.8281 Q583.6563,53.9844 584.2188,54.2813 L584.2188,57 Q583.5938,56.4219 583,56.1563 Q582.4063,55.875 581.7813,55.875 Q580.4375,55.875 579.75,56.9531 Q579.0625,58.0156 579.0625,60.1094 Q579.0625,62.2031 579.75,63.2813 Q580.4375,64.3438 581.7813,64.3438 Q582.4063,64.3438 583,64.0781 Q583.5938,63.7969 584.2188,63.2188 L584.2188,65.9375 Z " fill="#000000"/><text fill="#000000" font-family="sans-serif" font-size="14" lengthAdjust="spacing" textLength="114" x="601.75" y="65.1436">GlyphComposite</text><line style="stroke:#181818;stroke-width:0.5;" x1="497" x2="788" y1="76.2969" y2="76.2969"/><rect fill="none" height="6" style="stroke:#C82930;stroke-width:1.0;" width="6" x="504" y="86.9453"/><text fill="#000000" font-family="sans-serif" font-size="14" lengthAdjust="spacing" textLength="137" x="516" y="93.292">children: Glyph[0..*]</text><rect fill="none" height="6" style="stroke:#C82930;stroke-width:1.0;" width="6" x="504" y="103.2422"/><text fill="#000000" font-family="sans-serif" font-size="14" lengthAdjust="spacing" textLength="267" x="516" y="109.5889">compositor : GlyphStrategyCompositor</text><line style="stroke:#181818;stroke-width:0.5;" x1="497" x2="788" y1="116.8906" y2="116.8906"/><ellipse cx="507" cy="130.5391" fill="#84BE84" rx="3" ry="3" style="stroke:#038048;stroke-width:1.0;"/><text fill="#000000" font-family="sans-serif" font-size="14" lengthAdjust="spacing" textLength="82" x="516" y="133.8857">rect() : Rect</text><ellipse cx="507" cy="146.8359" fill="#84BE84" rx="3" ry="3" style="stroke:#038048;stroke-width:1.0;"/><text fill="#000000" font-family="sans-serif" font-size="14" lengthAdjust="spacing" textLength="162" x="516" y="150.1826">isComposite(): Boolean</text></g><!--class GlyphLeaf--><g id="elem_GlyphLeaf"><rect codeLine="11" fill="#F1F1F1" height="80.5938" id="GlyphLeaf" rx="2.5" ry="2.5" style="stroke:#181818;stroke-width:0.5;" width="145" x="570" y="591.7969"/><ellipse cx="605.7" cy="607.7969" fill="#ADD1B2" rx="11" ry="11" style="stroke:#181818;stroke-width:1.0;"/><path d="M608.6688,613.4375 Q608.0906,613.7344 607.45,613.875 Q606.8094,614.0313 606.1063,614.0313 Q603.6063,614.0313 602.2781,612.3906 Q600.9656,610.7344 600.9656,607.6094 Q600.9656,604.4844 602.2781,602.8281 Q603.6063,601.1719 606.1063,601.1719 Q606.8094,601.1719 607.45,601.3281 Q608.1063,601.4844 608.6688,601.7813 L608.6688,604.5 Q608.0438,603.9219 607.45,603.6563 Q606.8563,603.375 606.2313,603.375 Q604.8875,603.375 604.2,604.4531 Q603.5125,605.5156 603.5125,607.6094 Q603.5125,609.7031 604.2,610.7813 Q604.8875,611.8438 606.2313,611.8438 Q606.8563,611.8438 607.45,611.5781 Q608.0438,611.2969 608.6688,610.7188 L608.6688,613.4375 Z " fill="#000000"/><text fill="#000000" font-family="sans-serif" font-size="14" lengthAdjust="spacing" textLength="67" x="624.3" y="612.6436">GlyphLeaf</text><line style="stroke:#181818;stroke-width:0.5;" x1="571" x2="714" y1="623.7969" y2="623.7969"/><rect fill="none" height="6" style="stroke:#C82930;stroke-width:1.0;" width="6" x="578" y="634.4453"/><text fill="#000000" font-family="sans-serif" font-size="14" lengthAdjust="spacing" textLength="68" x="590" y="640.792">rect: Rect</text><line style="stroke:#181818;stroke-width:0.5;" x1="571" x2="714" y1="648.0938" y2="648.0938"/><ellipse cx="581" cy="661.7422" fill="#84BE84" rx="3" ry="3" style="stroke:#038048;stroke-width:1.0;"/><text fill="#000000" font-family="sans-serif" font-size="14" lengthAdjust="spacing" textLength="119" x="590" y="665.0889">isLeaf() : Boolean</text></g><!--class GlyphCharacter--><g id="elem_GlyphCharacter"><rect codeLine="12" fill="#F1F1F1" height="96.8906" id="GlyphCharacter" rx="2.5" ry="2.5" style="stroke:#181818;stroke-width:0.5;" width="158" x="891" y="455.7969"/><ellipse cx="915" cy="471.7969" fill="#ADD1B2" rx="11" ry="11" style="stroke:#181818;stroke-width:1.0;"/><path d="M917.9688,477.4375 Q917.3906,477.7344 916.75,477.875 Q916.1094,478.0312 915.4063,478.0312 Q912.9063,478.0312 911.5781,476.3906 Q910.2656,474.7344 910.2656,471.6094 Q910.2656,468.4844 911.5781,466.8281 Q912.9063,465.1719 915.4063,465.1719 Q916.1094,465.1719 916.75,465.3281 Q917.4063,465.4844 917.9688,465.7812 L917.9688,468.5 Q917.3438,467.9219 916.75,467.6562 Q916.1563,467.375 915.5313,467.375 Q914.1875,467.375 913.5,468.4531 Q912.8125,469.5156 912.8125,471.6094 Q912.8125,473.7031 913.5,474.7812 Q914.1875,475.8437 915.5313,475.8437 Q916.1563,475.8437 916.75,475.5781 Q917.3438,475.2969 917.9688,474.7187 L917.9688,477.4375 Z " fill="#000000"/><text fill="#000000" font-family="sans-serif" font-size="14" lengthAdjust="spacing" textLength="106" x="931" y="476.6436">GlyphCharacter</text><line style="stroke:#181818;stroke-width:0.5;" x1="892" x2="1048" y1="487.7969" y2="487.7969"/><rect fill="none" height="6" style="stroke:#C82930;stroke-width:1.0;" width="6" x="899" y="498.4453"/><text fill="#000000" font-family="sans-serif" font-size="14" lengthAdjust="spacing" textLength="51" x="911" y="504.792">c : char</text><line style="stroke:#181818;stroke-width:0.5;" x1="892" x2="1048" y1="512.0938" y2="512.0938"/><ellipse cx="902" cy="525.7422" fill="#84BE84" rx="3" ry="3" style="stroke:#038048;stroke-width:1.0;"/><text fill="#000000" font-family="sans-serif" font-size="14" lengthAdjust="spacing" textLength="117" x="911" y="529.0889">draw(w: Window)</text><ellipse cx="902" cy="542.0391" fill="#84BE84" rx="3" ry="3" style="stroke:#038048;stroke-width:1.0;"/><text fill="#000000" font-family="sans-serif" font-size="14" lengthAdjust="spacing" textLength="132" x="911" y="545.3857">intersects(p: Point)</text></g><!--class GlyphRectangle--><g id="elem_GlyphRectangle"><rect codeLine="13" fill="#F1F1F1" height="80.5938" id="GlyphRectangle" rx="2.5" ry="2.5" style="stroke:#181818;stroke-width:0.5;" width="141" x="899.5" y="706.5069"/><ellipse cx="914.5" cy="722.5069" fill="#ADD1B2" rx="11" ry="11" style="stroke:#181818;stroke-width:1.0;"/><path d="M917.4688,728.1475 Q916.8906,728.4444 916.25,728.585 Q915.6094,728.7412 914.9063,728.7412 Q912.4063,728.7412 911.0781,727.1006 Q909.7656,725.4444 909.7656,722.3194 Q909.7656,719.1944 911.0781,717.5381 Q912.4063,715.8819 914.9063,715.8819 Q915.6094,715.8819 916.25,716.0381 Q916.9063,716.1944 917.4688,716.4912 L917.4688,719.21 Q916.8438,718.6319 916.25,718.3662 Q915.6563,718.085 915.0313,718.085 Q913.6875,718.085 913,719.1631 Q912.3125,720.2256 912.3125,722.3194 Q912.3125,724.4131 913,725.4912 Q913.6875,726.5537 915.0313,726.5537 Q915.6563,726.5537 916.25,726.2881 Q916.8438,726.0069 917.4688,725.4287 L917.4688,728.1475 Z " fill="#000000"/><text fill="#000000" font-family="sans-serif" font-size="14" lengthAdjust="spacing" textLength="109" x="928.5" y="727.3536">GlyphRectangle</text><line style="stroke:#181818;stroke-width:0.5;" x1="900.5" x2="1039.5" y1="738.5069" y2="738.5069"/><line style="stroke:#181818;stroke-width:0.5;" x1="900.5" x2="1039.5" y1="746.5069" y2="746.5069"/><ellipse cx="910.5" cy="760.1553" fill="#84BE84" rx="3" ry="3" style="stroke:#038048;stroke-width:1.0;"/><text fill="#000000" font-family="sans-serif" font-size="14" lengthAdjust="spacing" textLength="97" x="919.5" y="763.502">draw(Window)</text><ellipse cx="910.5" cy="776.4522" fill="#84BE84" rx="3" ry="3" style="stroke:#038048;stroke-width:1.0;"/><text fill="#000000" font-family="sans-serif" font-size="14" lengthAdjust="spacing" textLength="114" x="919.5" y="779.7989">intersects(Point)</text></g><!--class GlyphPolygon--><g id="elem_GlyphPolygon"><rect codeLine="14" fill="#F1F1F1" height="80.5938" id="GlyphPolygon" rx="2.5" ry="2.5" style="stroke:#181818;stroke-width:0.5;" width="140" x="900" y="590.5069"/><ellipse cx="921.3" cy="606.5069" fill="#ADD1B2" rx="11" ry="11" style="stroke:#181818;stroke-width:1.0;"/><path d="M924.2688,612.1475 Q923.6906,612.4444 923.05,612.585 Q922.4094,612.7412 921.7063,612.7412 Q919.2063,612.7412 917.8781,611.1006 Q916.5656,609.4444 916.5656,606.3194 Q916.5656,603.1944 917.8781,601.5381 Q919.2063,599.8819 921.7063,599.8819 Q922.4094,599.8819 923.05,600.0381 Q923.7063,600.1944 924.2688,600.4912 L924.2688,603.21 Q923.6438,602.6319 923.05,602.3662 Q922.4563,602.085 921.8313,602.085 Q920.4875,602.085 919.8,603.1631 Q919.1125,604.2256 919.1125,606.3194 Q919.1125,608.4131 919.8,609.4912 Q920.4875,610.5537 921.8313,610.5537 Q922.4563,610.5537 923.05,610.2881 Q923.6438,610.0069 924.2688,609.4287 L924.2688,612.1475 Z " fill="#000000"/><text fill="#000000" font-family="sans-serif" font-size="14" lengthAdjust="spacing" textLength="94" x="936.7" y="611.3536">GlyphPolygon</text><line style="stroke:#181818;stroke-width:0.5;" x1="901" x2="1039" y1="622.5069" y2="622.5069"/><line style="stroke:#181818;stroke-width:0.5;" x1="901" x2="1039" y1="630.5069" y2="630.5069"/><ellipse cx="911" cy="644.1553" fill="#84BE84" rx="3" ry="3" style="stroke:#038048;stroke-width:1.0;"/><text fill="#000000" font-family="sans-serif" font-size="14" lengthAdjust="spacing" textLength="97" x="920" y="647.502">draw(Window)</text><ellipse cx="911" cy="660.4522" fill="#84BE84" rx="3" ry="3" style="stroke:#038048;stroke-width:1.0;"/><text fill="#000000" font-family="sans-serif" font-size="14" lengthAdjust="spacing" textLength="114" x="920" y="663.7989">intersects(Point)</text></g><!--class GlyphRow--><g id="elem_GlyphRow"><rect codeLine="15" fill="#F1F1F1" height="96.8906" id="GlyphRow" rx="2.5" ry="2.5" style="stroke:#181818;stroke-width:0.5;" width="210" x="865" y="220.7969"/><ellipse cx="931.25" cy="236.7969" fill="#ADD1B2" rx="11" ry="11" style="stroke:#181818;stroke-width:1.0;"/><path d="M934.2188,242.4375 Q933.6406,242.7344 933,242.875 Q932.3594,243.0313 931.6563,243.0313 Q929.1563,243.0313 927.8281,241.3906 Q926.5156,239.7344 926.5156,236.6094 Q926.5156,233.4844 927.8281,231.8281 Q929.1563,230.1719 931.6563,230.1719 Q932.3594,230.1719 933,230.3281 Q933.6563,230.4844 934.2188,230.7813 L934.2188,233.5 Q933.5938,232.9219 933,232.6563 Q932.4063,232.375 931.7813,232.375 Q930.4375,232.375 929.75,233.4531 Q929.0625,234.5156 929.0625,236.6094 Q929.0625,238.7031 929.75,239.7813 Q930.4375,240.8438 931.7813,240.8438 Q932.4063,240.8438 933,240.5781 Q933.5938,240.2969 934.2188,239.7188 L934.2188,242.4375 Z " fill="#000000"/><text fill="#000000" font-family="sans-serif" font-size="14" lengthAdjust="spacing" textLength="69" x="951.75" y="241.6436">GlyphRow</text><line style="stroke:#181818;stroke-width:0.5;" x1="866" x2="1074" y1="252.7969" y2="252.7969"/><line style="stroke:#181818;stroke-width:0.5;" x1="866" x2="1074" y1="260.7969" y2="260.7969"/><ellipse cx="876" cy="274.4453" fill="#84BE84" rx="3" ry="3" style="stroke:#038048;stroke-width:1.0;"/><text fill="#000000" font-family="sans-serif" font-size="14" lengthAdjust="spacing" textLength="154" x="885" y="277.792">draw(w: Window): void</text><ellipse cx="876" cy="290.7422" fill="#84BE84" rx="3" ry="3" style="stroke:#038048;stroke-width:1.0;"/><text fill="#000000" font-family="sans-serif" font-size="14" lengthAdjust="spacing" textLength="175" x="885" y="294.0889">intersects(p: Point) : bool</text><ellipse cx="876" cy="307.0391" fill="#84BE84" rx="3" ry="3" style="stroke:#038048;stroke-width:1.0;"/><text fill="#000000" font-family="sans-serif" font-size="14" lengthAdjust="spacing" textLength="184" x="885" y="310.3857">insert(g: Glyph, i: int) : void</text></g><!--class GlyphColumn--><g id="elem_GlyphColumn"><rect codeLine="16" fill="#F1F1F1" height="96.8906" id="GlyphColumn" rx="2.5" ry="2.5" style="stroke:#181818;stroke-width:0.5;" width="210" x="865" y="52.3569"/><ellipse cx="919.75" cy="68.3569" fill="#ADD1B2" rx="11" ry="11" style="stroke:#181818;stroke-width:1.0;"/><path d="M922.7188,73.9975 Q922.1406,74.2944 921.5,74.435 Q920.8594,74.5912 920.1563,74.5912 Q917.6563,74.5912 916.3281,72.9506 Q915.0156,71.2944 915.0156,68.1694 Q915.0156,65.0444 916.3281,63.3881 Q917.6563,61.7319 920.1563,61.7319 Q920.8594,61.7319 921.5,61.8881 Q922.1563,62.0444 922.7188,62.3412 L922.7188,65.06 Q922.0938,64.4819 921.5,64.2162 Q920.9063,63.935 920.2813,63.935 Q918.9375,63.935 918.25,65.0131 Q917.5625,66.0756 917.5625,68.1694 Q917.5625,70.2631 918.25,71.3412 Q918.9375,72.4037 920.2813,72.4037 Q920.9063,72.4037 921.5,72.1381 Q922.0938,71.8569 922.7188,71.2787 L922.7188,73.9975 Z " fill="#000000"/><text fill="#000000" font-family="sans-serif" font-size="14" lengthAdjust="spacing" textLength="92" x="940.25" y="73.2036">GlyphColumn</text><line style="stroke:#181818;stroke-width:0.5;" x1="866" x2="1074" y1="84.3569" y2="84.3569"/><line style="stroke:#181818;stroke-width:0.5;" x1="866" x2="1074" y1="92.3569" y2="92.3569"/><ellipse cx="876" cy="106.0053" fill="#84BE84" rx="3" ry="3" style="stroke:#038048;stroke-width:1.0;"/><text fill="#000000" font-family="sans-serif" font-size="14" lengthAdjust="spacing" textLength="158" x="885" y="109.352">draw(w: Window) : void</text><ellipse cx="876" cy="122.3022" fill="#84BE84" rx="3" ry="3" style="stroke:#038048;stroke-width:1.0;"/><text fill="#000000" font-family="sans-serif" font-size="14" lengthAdjust="spacing" textLength="167" x="885" y="125.6489">intersect(p: Point) : bool</text><ellipse cx="876" cy="138.5991" fill="#84BE84" rx="3" ry="3" style="stroke:#038048;stroke-width:1.0;"/><text fill="#000000" font-family="sans-serif" font-size="14" lengthAdjust="spacing" textLength="184" x="885" y="141.9457">insert(g: Glyph, i: int) : void</text></g><g id="elem_nReturnTrue"><path d="M249,647.2369 L249,672.3697 L339,672.3697 L339,657.2369 L329,647.2369 L249,647.2369 " fill="#FEFFDD" style="stroke:#181818;stroke-width:0.5;"/><path d="M329,647.2369 L329,657.2369 L339,657.2369 L329,647.2369 " fill="#FEFFDD" style="stroke:#181818;stroke-width:1.0;"/><text fill="#000000" font-family="sans-serif" font-size="13" lengthAdjust="spacing" textLength="69" x="255" y="664.3038">return true</text></g><g id="elem_nGlyphLeaf"><path d="M160,571.6669 L160,611.9325 A0,0 0 0 0 160,611.9325 L428,611.9325 A0,0 0 0 0 428,611.9325 L428,611.2069 L562,622.6269 L428,603.2069 L428,581.6669 L418,571.6669 L160,571.6669 A0,0 0 0 0 160,571.6669 " fill="#FEFFDD" style="stroke:#181818;stroke-width:0.5;"/><path d="M418,571.6669 L418,581.6669 L428,581.6669 L418,571.6669 " fill="#FEFFDD" style="stroke:#181818;stroke-width:0.5;"/><text fill="#000000" font-family="sans-serif" font-size="13" lengthAdjust="spacing" textLength="247" x="166" y="588.7338">GlyphLeaf class is added to implement</text><text fill="#000000" font-family="sans-serif" font-size="13" lengthAdjust="spacing" textLength="198" x="166" y="603.8666">common methods in sub leafs.</text></g><g id="elem_nReturnFalse"><path d="M6,348.2369 L6,373.3697 L100,373.3697 L100,358.2369 L90,348.2369 L6,348.2369 " fill="#FEFFDD" style="stroke:#181818;stroke-width:0.5;"/><path d="M90,348.2369 L90,358.2369 L100,358.2369 L90,348.2369 " fill="#FEFFDD" style="stroke:#181818;stroke-width:1.0;"/><text fill="#000000" font-family="sans-serif" font-size="13" lengthAdjust="spacing" textLength="73" x="12" y="365.3038">return false</text></g><g id="elem_nCharDraw"><path d="M554.5,451.6669 L554.5,491.9325 A0,0 0 0 0 554.5,491.9325 L719.54,491.9325 L890,523.7969 L727.54,491.9325 L730.5,491.9325 A0,0 0 0 0 730.5,491.9325 L730.5,461.6669 L720.5,451.6669 L554.5,451.6669 A0,0 0 0 0 554.5,451.6669 " fill="#FEFFDD" style="stroke:#181818;stroke-width:0.5;"/><path d="M720.5,451.6669 L720.5,461.6669 L730.5,461.6669 L720.5,451.6669 " fill="#FEFFDD" style="stroke:#181818;stroke-width:0.5;"/><text fill="#000000" font-family="sans-serif" font-size="13" lengthAdjust="spacing" textLength="128" x="560.5" y="468.7338">return true if point p</text><text fill="#000000" font-family="sans-serif" font-size="13" lengthAdjust="spacing" textLength="155" x="560.5" y="483.8666">intersects this character</text></g><g id="elem_nCharIntersects"><path d="M562.5,527.2369 L562.5,552.3697 A0,0 0 0 0 562.5,552.3697 L722.5,552.3697 A0,0 0 0 0 722.5,552.3697 L722.5,545.2369 L890,539.7969 L722.5,537.2369 L722.5,537.2369 L712.5,527.2369 L562.5,527.2369 A0,0 0 0 0 562.5,527.2369 " fill="#FEFFDD" style="stroke:#181818;stroke-width:0.5;"/><path d="M712.5,527.2369 L712.5,537.2369 L722.5,537.2369 L712.5,527.2369 " fill="#FEFFDD" style="stroke:#181818;stroke-width:0.5;"/><text fill="#000000" font-family="sans-serif" font-size="13" lengthAdjust="spacing" textLength="139" x="568.5" y="544.3038">w -&gt;drawCharacter(c)</text></g><g id="elem_nGlyphRowDraw"><path d="M562.5,196.5369 L562.5,267.0681 A0,0 0 0 0 562.5,267.0681 L722.5,267.0681 A0,0 0 0 0 722.5,267.0681 L722.5,257.8569 L864,272.7969 L722.5,249.8569 L722.5,206.5369 L712.5,196.5369 L562.5,196.5369 A0,0 0 0 0 562.5,196.5369 " fill="#FEFFDD" style="stroke:#181818;stroke-width:0.5;"/><path d="M712.5,196.5369 L712.5,206.5369 L722.5,206.5369 L712.5,196.5369 " fill="#FEFFDD" style="stroke:#181818;stroke-width:0.5;"/><text fill="#000000" font-family="sans-serif" font-size="13" lengthAdjust="spacing" textLength="115" x="568.5" y="213.6038">for all c in children</text><text fill="#000000" font-family="sans-serif" font-size="13" lengthAdjust="spacing" textLength="139" x="568.5" y="228.7366">ensure c is positioned</text><text fill="#000000" font-family="sans-serif" font-size="13" lengthAdjust="spacing" textLength="59" x="568.5" y="243.8694">correctly;</text><text fill="#000000" font-family="sans-serif" font-size="13" lengthAdjust="spacing" textLength="72" x="584.5" y="259.0022">c-&gt;draw(w)</text></g><g id="elem_nGlypRowIntersects"><path d="M538,301.6669 L538,341.9325 A0,0 0 0 0 538,341.9325 L747,341.9325 A0,0 0 0 0 747,341.9325 L747,311.6669 L737,301.6669 L743.09,301.6669 L864,288.7969 L735.09,301.6669 L538,301.6669 A0,0 0 0 0 538,301.6669 " fill="#FEFFDD" style="stroke:#181818;stroke-width:0.5;"/><path d="M737,301.6669 L737,311.6669 L747,311.6669 L737,301.6669 " fill="#FEFFDD" style="stroke:#181818;stroke-width:0.5;"/><text fill="#000000" font-family="sans-serif" font-size="13" lengthAdjust="spacing" textLength="115" x="544" y="318.7338">for all c in children</text><text fill="#000000" font-family="sans-serif" font-size="13" lengthAdjust="spacing" textLength="188" x="544" y="333.8666">if c-&gt;intersects(p) return true</text></g><g id="elem_nGlypRowInsert"><path d="M568,376.6669 L568,416.9325 L717,416.9325 L717,386.6669 L707,376.6669 L568,376.6669 " fill="#FEFFDD" style="stroke:#181818;stroke-width:0.5;"/><path d="M707,376.6669 L707,386.6669 L717,386.6669 L707,376.6669 " fill="#FEFFDD" style="stroke:#181818;stroke-width:1.0;"/><text fill="#000000" font-family="sans-serif" font-size="13" lengthAdjust="spacing" textLength="76" x="574" y="393.7338">insert g into</text><text fill="#000000" font-family="sans-serif" font-size="13" lengthAdjust="spacing" textLength="128" x="574" y="408.8666">children at position i</text></g><!--reverse link Glyph to GlyphComposite--><g id="link_Glyph_GlyphComposite"><path codeLine="70" d="M412.1922,200.7283 C445.6622,186.1483 467.04,176.8269 502.86,161.2169 " fill="none" id="Glyph-backto-GlyphComposite" style="stroke:#181818;stroke-width:1.0;"/><polygon fill="none" points="395.69,207.9169,414.5884,206.229,409.796,195.2275,395.69,207.9169" style="stroke:#181818;stroke-width:1.0;"/></g><!--reverse link Glyph to GlyphLeaf--><g id="link_Glyph_GlyphLeaf"><path codeLine="71" d="M359.7693,401.1859 C392.0293,464.1359 429.57,520.1269 488,569.7969 C509.35,587.9469 536.7,601.2669 562.39,610.8069 " fill="none" id="Glyph-backto-GlyphLeaf" style="stroke:#181818;stroke-width:1.0;"/><polygon fill="none" points="351.56,385.1669,354.4296,403.9223,365.1089,398.4494,351.56,385.1669" style="stroke:#181818;stroke-width:1.0;"/></g><!--reverse link GlyphComposite to GlyphRow--><g id="link_GlyphComposite_GlyphRow"><path codeLine="73" d="M778.5975,169.3196 C790.2375,175.2696 785.84,173.0469 797,178.7969 C820.81,191.0769 846.42,204.4169 870.42,216.9569 " fill="none" id="GlyphComposite-backto-GlyphRow" style="stroke:#181818;stroke-width:1.0;"/><polygon fill="none" points="762.57,161.1269,775.8665,174.6621,781.3284,163.9771,762.57,161.1269" style="stroke:#181818;stroke-width:1.0;"/></g><!--reverse link GlyphComposite to GlyphColumn--><g id="link_GlyphComposite_GlyphColumn"><path codeLine="74" d="M814.72,100.7969 C837.8,100.7969 843.15,100.7969 864.88,100.7969 " fill="none" id="GlyphComposite-backto-GlyphColumn" style="stroke:#181818;stroke-width:1.0;"/><polygon fill="none" points="796.72,100.7969,814.72,106.7969,814.72,94.7969,796.72,100.7969" style="stroke:#181818;stroke-width:1.0;"/></g><!--reverse link GlyphLeaf to GlyphCharacter--><g id="link_GlyphLeaf_GlyphCharacter"><path codeLine="76" d="M739.4616,594.0601 C788.0116,574.9701 833.42,557.1169 883.14,537.5669 " fill="none" id="GlyphLeaf-backto-GlyphCharacter" style="stroke:#181818;stroke-width:1.0;"/><polygon fill="none" points="722.71,600.6469,741.6571,599.644,737.266,588.4763,722.71,600.6469" style="stroke:#181818;stroke-width:1.0;"/></g><!--reverse link GlyphLeaf to GlyphRectangle--><g id="link_GlyphLeaf_GlyphRectangle"><path codeLine="77" d="M739.6816,665.7841 C793.5916,684.8341 847.32,703.8069 899.13,722.1169 " fill="none" id="GlyphLeaf-backto-GlyphRectangle" style="stroke:#181818;stroke-width:1.0;"/><polygon fill="none" points="722.71,659.7869,737.6825,671.4412,741.6806,660.1269,722.71,659.7869" style="stroke:#181818;stroke-width:1.0;"/></g><!--reverse link GlyphLeaf to GlyphPolygon--><g id="link_GlyphLeaf_GlyphPolygon"><path codeLine="78" d="M740.7099,631.5003 C794.8099,631.3303 847.81,631.1769 899.67,631.0169 " fill="none" id="GlyphLeaf-backto-GlyphPolygon" style="stroke:#181818;stroke-width:1.0;"/><polygon fill="none" points="722.71,631.5569,740.7288,637.5003,740.6911,625.5003,722.71,631.5569" style="stroke:#181818;stroke-width:1.0;"/></g><!--link nReturnTrue to GlyphLeaf--><g id="link_nReturnTrue_GlyphLeaf"><path codeLine="88" d="M339.13,659.7969 C393.28,659.7969 487.89,659.7969 569,659.7969 " fill="none" id="nReturnTrue-GlyphLeaf" style="stroke:#181818;stroke-width:1.0;stroke-dasharray:7.0,7.0;"/></g><!--link nReturnTrue to GlyphComposite--><g id="link_nReturnTrue_GlyphComposite"><path codeLine="89" d="M339.36,661.9369 C368.77,660.7969 405.88,653.9969 428,629.7969 C501.49,549.4169 386.09,144.2969 495,144.2969 " fill="none" id="nReturnTrue-GlyphComposite" style="stroke:#181818;stroke-width:1.0;stroke-dasharray:7.0,7.0;"/></g><!--link nReturnFalse to Glyph--><g id="link_nReturnFalse_Glyph"><path codeLine="100" d="M100.33,357.1769 C128.78,355.2669 165.98,353.2969 199,353.2969 " fill="none" id="nReturnFalse-Glyph" style="stroke:#181818;stroke-width:1.0;stroke-dasharray:7.0,7.0;"/></g><!--link nReturnFalse to Glyph--><g id="link_nReturnFalse_Glyph"><path codeLine="101" d="M100.32,364.8969 C128.77,367.0769 165.97,369.2969 199,369.2969 " fill="none" id="nReturnFalse-Glyph-1" style="stroke:#181818;stroke-width:1.0;stroke-dasharray:7.0,7.0;"/></g><!--link nGlypRowInsert to GlyphRow--><g id="link_nGlypRowInsert_GlyphRow"><path codeLine="132" d="M717.31,386.0169 C743.38,380.4169 772.34,372.0769 797,359.7969 C831.49,342.6269 825.47,304.7969 864,304.7969 " fill="none" id="nGlypRowInsert-GlyphRow" style="stroke:#181818;stroke-width:1.0;stroke-dasharray:7.0,7.0;"/></g><!--SRC=[bLPBZzCm4BxdLyoAmwP0Ayu18UsZe9Mw3xKhSK0Sl8cRHZXn53jRAk2_CtQSs74SO7keQd-Vv_5vPbn6zn8aXwR83nAoeg6fB7WLoK8o2Xlweu04hddQbhIIi9DDcygseL5qlfp_H6T2aaQAzWckDXUxtNg7_9gatqbEWQ7DLSvEzG5-He2Vb14XuBFQyTTNlAovA2JrWGqb-mdvG1gIIjhum1Pp8bNE9bOUE3lbcApFvyTf8Amjg-XSRV-EeZDQPPZTtqLmLBXTtrwkjwY2DeQABclIeA29IRlVVfCrv1X_AQgC7nS9FFCYizWJRz5hhB9PW0yM5IOk41Bn0yV5meK4RMIirszXZ3MqvC-qmoOEqqF1ibWTcCJPXHzFW5S6w0nEebJL5QjjbOGzfBTdyXBgglMPIyuP9PMB3VMX8kbne_A0ARbrAXYPYVVhkzNgzRSGponu0uQA9KyapKzN0p8z5ifhXCz4ggef6kfP-LU6N2jcFoH3D2vw7Jr-fRWnXRh2EYPWQYl0S2geJi0KKJHk8Bz40_2q42Etry8M773kF3Pb80-tN0mZb0VkFw5i7a-tHMxk6JiZ0SFLDYEdyGEUHvLgMOFt6USkyn_-NpfajklDnUFD_TqmPZxyMYxzEUeZUf3w5MjXDGfdGJCKdKfri64OXr0xaKDeFvPVhC3T_QDwQYgEOH81rPRYMrKzDcqt-Hkz1AdMQ1aKBt98i5fPKPAawxaWOL13iQourlFuaR99TazA8O1a6StKmrkKDQFgSUsU75wMs0SbbGUU8R42bHVs-rwid9YjGJVaIUQV21EZrFTwmyzTqmPBVk9JD9Imkkzhx11VQ2ZsKAisW1eqPjiJv065I8T2iM7rngpUFIb9ijw97fuZ_pVMj6OSOVbHqOVJSRhml3X70hvih9v7UyVO83fIJTZZiq4OWrHTNF_aQ8HM0lyrAK20rWx_Oz7CN7cZfZuxlH-Sf5tSyN7XttdlhWyMruuau_f3x6QSm7nyU4ler1sTYvbscLWUn-985eX6JJnJ1UedvAeSU2U32GU871I28kHOd_ISQiF_Do_-0000]--></g></svg>