<?xml version="1.0" encoding="us-ascii" standalone="no"?><svg xmlns="http://www.w3.org/2000/svg" xmlns:xlink="http://www.w3.org/1999/xlink" contentStyleType="text/css" height="1187px" preserveAspectRatio="none" style="width:1130px;height:1187px;background:#FFFFFF;" version="1.1" viewBox="0 0 1130 1187" width="1130px" zoomAndPan="magnify"><defs/><g><text fill="#000000" font-family="sans-serif" font-size="14" font-weight="bold" lengthAdjust="spacing" textLength="208" x="454" y="22.9951">Lexi : Document Structure</text><!--cluster lexi--><g id="cluster_lexi"><path d="M154.5,84.8669 L182.5,84.8669 A3.75,3.75 0 0 1 185,87.3669 L192,107.1637 L1120.5,107.1637 A2.5,2.5 0 0 1 1123,109.6637 L1123,806.3669 A2.5,2.5 0 0 1 1120.5,808.8669 L154.5,808.8669 A2.5,2.5 0 0 1 152,806.3669 L152,87.3669 A2.5,2.5 0 0 1 154.5,84.8669 " fill="none" style="stroke:#000000;stroke-width:1.5;"/><line style="stroke:#000000;stroke-width:1.5;" x1="152" x2="192" y1="107.1637" y2="107.1637"/><text fill="#000000" font-family="sans-serif" font-size="14" font-weight="bold" lengthAdjust="spacing" textLength="27" x="156" y="99.862">lexi</text></g><!--cluster glyph--><g id="cluster_glyph"><path d="M178.5,127.8669 L222.5,127.8669 A3.75,3.75 0 0 1 225,130.3669 L232,150.1637 L1096.5,150.1637 A2.5,2.5 0 0 1 1099,152.6637 L1099,782.3669 A2.5,2.5 0 0 1 1096.5,784.8669 L178.5,784.8669 A2.5,2.5 0 0 1 176,782.3669 L176,130.3669 A2.5,2.5 0 0 1 178.5,127.8669 " fill="none" style="stroke:#000000;stroke-width:1.5;"/><line style="stroke:#000000;stroke-width:1.5;" x1="176" x2="232" y1="150.1637" y2="150.1637"/><text fill="#000000" font-family="sans-serif" font-size="14" font-weight="bold" lengthAdjust="spacing" textLength="43" x="180" y="142.862">glyph</text></g><!--class Glyph--><g id="elem_Glyph"><rect codeLine="9" fill="#F1F1F1" height="259.8594" id="Glyph" rx="2.5" ry="2.5" style="stroke:#181818;stroke-width:0.5;" width="188" x="200" y="229.3669"/><ellipse cx="270.25" cy="245.3669" fill="#ADD1B2" rx="11" ry="11" style="stroke:#181818;stroke-width:1.0;"/><path d="M273.2188,251.0075 Q272.6406,251.3044 272,251.445 Q271.3594,251.6013 270.6563,251.6013 Q268.1563,251.6013 266.8281,249.9606 Q265.5156,248.3044 265.5156,245.1794 Q265.5156,242.0544 266.8281,240.3981 Q268.1563,238.7419 270.6563,238.7419 Q271.3594,238.7419 272,238.8981 Q272.6563,239.0544 273.2188,239.3513 L273.2188,242.07 Q272.5938,241.4919 272,241.2263 Q271.4063,240.945 270.7813,240.945 Q269.4375,240.945 268.75,242.0231 Q268.0625,243.0856 268.0625,245.1794 Q268.0625,247.2731 268.75,248.3513 Q269.4375,249.4138 270.7813,249.4138 Q271.4063,249.4138 272,249.1481 Q272.5938,248.8669 273.2188,248.2888 L273.2188,251.0075 Z " fill="#000000"/><text fill="#000000" font-family="sans-serif" font-size="14" lengthAdjust="spacing" textLength="39" x="290.75" y="250.2136">Glyph</text><line style="stroke:#181818;stroke-width:0.5;" x1="201" x2="387" y1="261.3669" y2="261.3669"/><rect fill="none" height="6" style="stroke:#C82930;stroke-width:1.0;" width="6" x="208" y="272.0153"/><text fill="#000000" font-family="sans-serif" font-size="14" lengthAdjust="spacing" textLength="93" x="220" y="278.362">parent: Glyph</text><line style="stroke:#181818;stroke-width:0.5;" x1="201" x2="387" y1="285.6638" y2="285.6638"/><ellipse cx="211" cy="299.3122" fill="#84BE84" rx="3" ry="3" style="stroke:#038048;stroke-width:1.0;"/><text fill="#000000" font-family="sans-serif" font-size="14" lengthAdjust="spacing" textLength="134" x="220" y="302.6589">draw(Window): void</text><ellipse cx="211" cy="315.6091" fill="#84BE84" rx="3" ry="3" style="stroke:#038048;stroke-width:1.0;"/><text fill="#000000" font-family="sans-serif" font-size="14" lengthAdjust="spacing" textLength="136" x="220" y="318.9557">bounds(Rect) : void</text><ellipse cx="211" cy="331.9059" fill="#84BE84" rx="3" ry="3" style="stroke:#038048;stroke-width:1.0;"/><text fill="#000000" font-family="sans-serif" font-size="14" lengthAdjust="spacing" textLength="114" x="220" y="335.2526">intersects(Point)</text><ellipse cx="211" cy="348.2028" fill="#84BE84" rx="3" ry="3" style="stroke:#038048;stroke-width:1.0;"/><text fill="#000000" font-family="sans-serif" font-size="14" lengthAdjust="spacing" textLength="113" x="220" y="351.5495">insert(Glyph, int)</text><ellipse cx="211" cy="364.4997" fill="#84BE84" rx="3" ry="3" style="stroke:#038048;stroke-width:1.0;"/><text fill="#000000" font-family="sans-serif" font-size="14" lengthAdjust="spacing" textLength="138" x="220" y="367.8464">remove(Glyph): void</text><ellipse cx="211" cy="380.7966" fill="#84BE84" rx="3" ry="3" style="stroke:#038048;stroke-width:1.0;"/><text fill="#000000" font-family="sans-serif" font-size="14" lengthAdjust="spacing" textLength="107" x="220" y="384.1432">child(int): Glyph</text><ellipse cx="211" cy="397.0934" fill="#84BE84" rx="3" ry="3" style="stroke:#038048;stroke-width:1.0;"/><text fill="#000000" font-family="sans-serif" font-size="14" lengthAdjust="spacing" textLength="103" x="220" y="400.4401">parent(): Glyph</text><polygon fill="#FFFF44" points="211,408.3903,215,412.3903,211,416.3903,207,412.3903" style="stroke:#B38D22;stroke-width:1.0;"/><text fill="#000000" font-family="sans-serif" font-size="14" lengthAdjust="spacing" textLength="135" x="220" y="416.737">parent(Glyph) : void</text><ellipse cx="211" cy="429.6872" fill="#84BE84" rx="3" ry="3" style="stroke:#038048;stroke-width:1.0;"/><text fill="#000000" font-family="sans-serif" font-size="14" lengthAdjust="spacing" textLength="82" x="220" y="433.0339">rect() : Rect</text><polygon fill="#FFFF44" points="211,440.9841,215,444.9841,211,448.9841,207,444.9841" style="stroke:#B38D22;stroke-width:1.0;"/><text fill="#000000" font-family="sans-serif" font-size="14" lengthAdjust="spacing" textLength="110" x="220" y="449.3307">rect(Rect) : void</text><ellipse cx="211" cy="462.2809" fill="#84BE84" rx="3" ry="3" style="stroke:#038048;stroke-width:1.0;"/><text fill="#000000" font-family="sans-serif" font-size="14" lengthAdjust="spacing" textLength="119" x="220" y="465.6276">isLeaf() : Boolean</text><ellipse cx="211" cy="478.5778" fill="#84BE84" rx="3" ry="3" style="stroke:#038048;stroke-width:1.0;"/><text fill="#000000" font-family="sans-serif" font-size="14" lengthAdjust="spacing" textLength="162" x="220" y="481.9245">isComposite(): Boolean</text></g><!--class GlyphComposite--><g id="elem_GlyphComposite"><rect codeLine="10" fill="#F1F1F1" height="113.1875" id="GlyphComposite" rx="2.5" ry="2.5" style="stroke:#181818;stroke-width:0.5;" width="293" x="496" y="189.3669"/><ellipse cx="581.25" cy="205.3669" fill="#ADD1B2" rx="11" ry="11" style="stroke:#181818;stroke-width:1.0;"/><path d="M584.2188,211.0075 Q583.6406,211.3044 583,211.445 Q582.3594,211.6013 581.6563,211.6013 Q579.1563,211.6013 577.8281,209.9606 Q576.5156,208.3044 576.5156,205.1794 Q576.5156,202.0544 577.8281,200.3981 Q579.1563,198.7419 581.6563,198.7419 Q582.3594,198.7419 583,198.8981 Q583.6563,199.0544 584.2188,199.3513 L584.2188,202.07 Q583.5938,201.4919 583,201.2263 Q582.4063,200.945 581.7813,200.945 Q580.4375,200.945 579.75,202.0231 Q579.0625,203.0856 579.0625,205.1794 Q579.0625,207.2731 579.75,208.3513 Q580.4375,209.4138 581.7813,209.4138 Q582.4063,209.4138 583,209.1481 Q583.5938,208.8669 584.2188,208.2888 L584.2188,211.0075 Z " fill="#000000"/><text fill="#000000" font-family="sans-serif" font-size="14" lengthAdjust="spacing" textLength="114" x="601.75" y="210.2136">GlyphComposite</text><line style="stroke:#181818;stroke-width:0.5;" x1="497" x2="788" y1="221.3669" y2="221.3669"/><rect fill="none" height="6" style="stroke:#C82930;stroke-width:1.0;" width="6" x="504" y="232.0153"/><text fill="#000000" font-family="sans-serif" font-size="14" lengthAdjust="spacing" textLength="137" x="516" y="238.362">children: Glyph[0..*]</text><rect fill="none" height="6" style="stroke:#C82930;stroke-width:1.0;" width="6" x="504" y="248.3122"/><text fill="#000000" font-family="sans-serif" font-size="14" lengthAdjust="spacing" textLength="267" x="516" y="254.6589">compositor : GlyphStrategyCompositor</text><line style="stroke:#181818;stroke-width:0.5;" x1="497" x2="788" y1="261.9606" y2="261.9606"/><ellipse cx="507" cy="275.6091" fill="#84BE84" rx="3" ry="3" style="stroke:#038048;stroke-width:1.0;"/><text fill="#000000" font-family="sans-serif" font-size="14" lengthAdjust="spacing" textLength="82" x="516" y="278.9557">rect() : Rect</text><ellipse cx="507" cy="291.9059" fill="#84BE84" rx="3" ry="3" style="stroke:#038048;stroke-width:1.0;"/><text fill="#000000" font-family="sans-serif" font-size="14" lengthAdjust="spacing" textLength="162" x="516" y="295.2526">isComposite(): Boolean</text></g><!--class GlyphLeaf--><g id="elem_GlyphLeaf"><rect codeLine="11" fill="#F1F1F1" height="80.5938" id="GlyphLeaf" rx="2.5" ry="2.5" style="stroke:#181818;stroke-width:0.5;" width="145" x="570" y="388.8669"/><ellipse cx="605.7" cy="404.8669" fill="#ADD1B2" rx="11" ry="11" style="stroke:#181818;stroke-width:1.0;"/><path d="M608.6688,410.5075 Q608.0906,410.8044 607.45,410.945 Q606.8094,411.1013 606.1063,411.1013 Q603.6063,411.1013 602.2781,409.4606 Q600.9656,407.8044 600.9656,404.6794 Q600.9656,401.5544 602.2781,399.8981 Q603.6063,398.2419 606.1063,398.2419 Q606.8094,398.2419 607.45,398.3981 Q608.1063,398.5544 608.6688,398.8513 L608.6688,401.57 Q608.0438,400.9919 607.45,400.7263 Q606.8563,400.445 606.2313,400.445 Q604.8875,400.445 604.2,401.5231 Q603.5125,402.5856 603.5125,404.6794 Q603.5125,406.7731 604.2,407.8513 Q604.8875,408.9138 606.2313,408.9138 Q606.8563,408.9138 607.45,408.6481 Q608.0438,408.3669 608.6688,407.7888 L608.6688,410.5075 Z " fill="#000000"/><text fill="#000000" font-family="sans-serif" font-size="14" lengthAdjust="spacing" textLength="67" x="624.3" y="409.7136">GlyphLeaf</text><line style="stroke:#181818;stroke-width:0.5;" x1="571" x2="714" y1="420.8669" y2="420.8669"/><rect fill="none" height="6" style="stroke:#C82930;stroke-width:1.0;" width="6" x="578" y="431.5153"/><text fill="#000000" font-family="sans-serif" font-size="14" lengthAdjust="spacing" textLength="68" x="590" y="437.862">rect: Rect</text><line style="stroke:#181818;stroke-width:0.5;" x1="571" x2="714" y1="445.1638" y2="445.1638"/><ellipse cx="581" cy="458.8122" fill="#84BE84" rx="3" ry="3" style="stroke:#038048;stroke-width:1.0;"/><text fill="#000000" font-family="sans-serif" font-size="14" lengthAdjust="spacing" textLength="119" x="590" y="462.1589">isLeaf() : Boolean</text></g><!--class GlyphCharacter--><g id="elem_GlyphCharacter"><rect codeLine="12" fill="#F1F1F1" height="96.8906" id="GlyphCharacter" rx="2.5" ry="2.5" style="stroke:#181818;stroke-width:0.5;" width="158" x="891" y="529.8669"/><ellipse cx="915" cy="545.8669" fill="#ADD1B2" rx="11" ry="11" style="stroke:#181818;stroke-width:1.0;"/><path d="M917.9688,551.5075 Q917.3906,551.8044 916.75,551.945 Q916.1094,552.1013 915.4063,552.1013 Q912.9063,552.1013 911.5781,550.4606 Q910.2656,548.8044 910.2656,545.6794 Q910.2656,542.5544 911.5781,540.8981 Q912.9063,539.2419 915.4063,539.2419 Q916.1094,539.2419 916.75,539.3981 Q917.4063,539.5544 917.9688,539.8513 L917.9688,542.57 Q917.3438,541.9919 916.75,541.7263 Q916.1563,541.445 915.5313,541.445 Q914.1875,541.445 913.5,542.5231 Q912.8125,543.5856 912.8125,545.6794 Q912.8125,547.7731 913.5,548.8513 Q914.1875,549.9138 915.5313,549.9138 Q916.1563,549.9138 916.75,549.6481 Q917.3438,549.3669 917.9688,548.7888 L917.9688,551.5075 Z " fill="#000000"/><text fill="#000000" font-family="sans-serif" font-size="14" lengthAdjust="spacing" textLength="106" x="931" y="550.7136">GlyphCharacter</text><line style="stroke:#181818;stroke-width:0.5;" x1="892" x2="1048" y1="561.8669" y2="561.8669"/><rect fill="none" height="6" style="stroke:#C82930;stroke-width:1.0;" width="6" x="899" y="572.5153"/><text fill="#000000" font-family="sans-serif" font-size="14" lengthAdjust="spacing" textLength="51" x="911" y="578.862">c : char</text><line style="stroke:#181818;stroke-width:0.5;" x1="892" x2="1048" y1="586.1638" y2="586.1638"/><ellipse cx="902" cy="599.8122" fill="#84BE84" rx="3" ry="3" style="stroke:#038048;stroke-width:1.0;"/><text fill="#000000" font-family="sans-serif" font-size="14" lengthAdjust="spacing" textLength="117" x="911" y="603.1589">draw(w: Window)</text><ellipse cx="902" cy="616.1091" fill="#84BE84" rx="3" ry="3" style="stroke:#038048;stroke-width:1.0;"/><text fill="#000000" font-family="sans-serif" font-size="14" lengthAdjust="spacing" textLength="132" x="911" y="619.4557">intersects(p: Point)</text></g><!--class GlyphRectangle--><g id="elem_GlyphRectangle"><rect codeLine="13" fill="#F1F1F1" height="80.5938" id="GlyphRectangle" rx="2.5" ry="2.5" style="stroke:#181818;stroke-width:0.5;" width="141" x="899.5" y="410.5669"/><ellipse cx="914.5" cy="426.5669" fill="#ADD1B2" rx="11" ry="11" style="stroke:#181818;stroke-width:1.0;"/><path d="M917.4688,432.2075 Q916.8906,432.5044 916.25,432.645 Q915.6094,432.8013 914.9063,432.8013 Q912.4063,432.8013 911.0781,431.1606 Q909.7656,429.5044 909.7656,426.3794 Q909.7656,423.2544 911.0781,421.5981 Q912.4063,419.9419 914.9063,419.9419 Q915.6094,419.9419 916.25,420.0981 Q916.9063,420.2544 917.4688,420.5513 L917.4688,423.27 Q916.8438,422.6919 916.25,422.4263 Q915.6563,422.145 915.0313,422.145 Q913.6875,422.145 913,423.2231 Q912.3125,424.2856 912.3125,426.3794 Q912.3125,428.4731 913,429.5513 Q913.6875,430.6138 915.0313,430.6138 Q915.6563,430.6138 916.25,430.3481 Q916.8438,430.0669 917.4688,429.4888 L917.4688,432.2075 Z " fill="#000000"/><text fill="#000000" font-family="sans-serif" font-size="14" lengthAdjust="spacing" textLength="109" x="928.5" y="431.4136">GlyphRectangle</text><line style="stroke:#181818;stroke-width:0.5;" x1="900.5" x2="1039.5" y1="442.5669" y2="442.5669"/><line style="stroke:#181818;stroke-width:0.5;" x1="900.5" x2="1039.5" y1="450.5669" y2="450.5669"/><ellipse cx="910.5" cy="464.2153" fill="#84BE84" rx="3" ry="3" style="stroke:#038048;stroke-width:1.0;"/><text fill="#000000" font-family="sans-serif" font-size="14" lengthAdjust="spacing" textLength="97" x="919.5" y="467.562">draw(Window)</text><ellipse cx="910.5" cy="480.5122" fill="#84BE84" rx="3" ry="3" style="stroke:#038048;stroke-width:1.0;"/><text fill="#000000" font-family="sans-serif" font-size="14" lengthAdjust="spacing" textLength="114" x="919.5" y="483.8589">intersects(Point)</text></g><!--class GlyphPolygon--><g id="elem_GlyphPolygon"><rect codeLine="14" fill="#F1F1F1" height="80.5938" id="GlyphPolygon" rx="2.5" ry="2.5" style="stroke:#181818;stroke-width:0.5;" width="140" x="900" y="294.5669"/><ellipse cx="921.3" cy="310.5669" fill="#ADD1B2" rx="11" ry="11" style="stroke:#181818;stroke-width:1.0;"/><path d="M924.2688,316.2075 Q923.6906,316.5044 923.05,316.645 Q922.4094,316.8013 921.7063,316.8013 Q919.2063,316.8013 917.8781,315.1606 Q916.5656,313.5044 916.5656,310.3794 Q916.5656,307.2544 917.8781,305.5981 Q919.2063,303.9419 921.7063,303.9419 Q922.4094,303.9419 923.05,304.0981 Q923.7063,304.2544 924.2688,304.5513 L924.2688,307.27 Q923.6438,306.6919 923.05,306.4263 Q922.4563,306.145 921.8313,306.145 Q920.4875,306.145 919.8,307.2231 Q919.1125,308.2856 919.1125,310.3794 Q919.1125,312.4731 919.8,313.5513 Q920.4875,314.6138 921.8313,314.6138 Q922.4563,314.6138 923.05,314.3481 Q923.6438,314.0669 924.2688,313.4888 L924.2688,316.2075 Z " fill="#000000"/><text fill="#000000" font-family="sans-serif" font-size="14" lengthAdjust="spacing" textLength="94" x="936.7" y="315.4136">GlyphPolygon</text><line style="stroke:#181818;stroke-width:0.5;" x1="901" x2="1039" y1="326.5669" y2="326.5669"/><line style="stroke:#181818;stroke-width:0.5;" x1="901" x2="1039" y1="334.5669" y2="334.5669"/><ellipse cx="911" cy="348.2153" fill="#84BE84" rx="3" ry="3" style="stroke:#038048;stroke-width:1.0;"/><text fill="#000000" font-family="sans-serif" font-size="14" lengthAdjust="spacing" textLength="97" x="920" y="351.562">draw(Window)</text><ellipse cx="911" cy="364.5122" fill="#84BE84" rx="3" ry="3" style="stroke:#038048;stroke-width:1.0;"/><text fill="#000000" font-family="sans-serif" font-size="14" lengthAdjust="spacing" textLength="114" x="920" y="367.8589">intersects(Point)</text></g><!--class GlyphRow--><g id="elem_GlyphRow"><rect codeLine="15" fill="#F1F1F1" height="96.8906" id="GlyphRow" rx="2.5" ry="2.5" style="stroke:#181818;stroke-width:0.5;" width="210" x="865" y="668.8669"/><ellipse cx="931.25" cy="684.8669" fill="#ADD1B2" rx="11" ry="11" style="stroke:#181818;stroke-width:1.0;"/><path d="M934.2188,690.5075 Q933.6406,690.8044 933,690.945 Q932.3594,691.1013 931.6563,691.1013 Q929.1563,691.1013 927.8281,689.4606 Q926.5156,687.8044 926.5156,684.6794 Q926.5156,681.5544 927.8281,679.8981 Q929.1563,678.2419 931.6563,678.2419 Q932.3594,678.2419 933,678.3981 Q933.6563,678.5544 934.2188,678.8513 L934.2188,681.57 Q933.5938,680.9919 933,680.7263 Q932.4063,680.445 931.7813,680.445 Q930.4375,680.445 929.75,681.5231 Q929.0625,682.5856 929.0625,684.6794 Q929.0625,686.7731 929.75,687.8513 Q930.4375,688.9138 931.7813,688.9138 Q932.4063,688.9138 933,688.6481 Q933.5938,688.3669 934.2188,687.7888 L934.2188,690.5075 Z " fill="#000000"/><text fill="#000000" font-family="sans-serif" font-size="14" lengthAdjust="spacing" textLength="69" x="951.75" y="689.7136">GlyphRow</text><line style="stroke:#181818;stroke-width:0.5;" x1="866" x2="1074" y1="700.8669" y2="700.8669"/><line style="stroke:#181818;stroke-width:0.5;" x1="866" x2="1074" y1="708.8669" y2="708.8669"/><ellipse cx="876" cy="722.5153" fill="#84BE84" rx="3" ry="3" style="stroke:#038048;stroke-width:1.0;"/><text fill="#000000" font-family="sans-serif" font-size="14" lengthAdjust="spacing" textLength="154" x="885" y="725.862">draw(w: Window): void</text><ellipse cx="876" cy="738.8122" fill="#84BE84" rx="3" ry="3" style="stroke:#038048;stroke-width:1.0;"/><text fill="#000000" font-family="sans-serif" font-size="14" lengthAdjust="spacing" textLength="175" x="885" y="742.1589">intersects(p: Point) : bool</text><ellipse cx="876" cy="755.1091" fill="#84BE84" rx="3" ry="3" style="stroke:#038048;stroke-width:1.0;"/><text fill="#000000" font-family="sans-serif" font-size="14" lengthAdjust="spacing" textLength="184" x="885" y="758.4557">insert(g: Glyph, i: int) : void</text></g><!--class GlyphColumn--><g id="elem_GlyphColumn"><rect codeLine="16" fill="#F1F1F1" height="96.8906" id="GlyphColumn" rx="2.5" ry="2.5" style="stroke:#181818;stroke-width:0.5;" width="210" x="865" y="162.4169"/><ellipse cx="919.75" cy="178.4169" fill="#ADD1B2" rx="11" ry="11" style="stroke:#181818;stroke-width:1.0;"/><path d="M922.7188,184.0575 Q922.1406,184.3544 921.5,184.495 Q920.8594,184.6513 920.1563,184.6513 Q917.6563,184.6513 916.3281,183.0106 Q915.0156,181.3544 915.0156,178.2294 Q915.0156,175.1044 916.3281,173.4481 Q917.6563,171.7919 920.1563,171.7919 Q920.8594,171.7919 921.5,171.9481 Q922.1563,172.1044 922.7188,172.4013 L922.7188,175.12 Q922.0938,174.5419 921.5,174.2763 Q920.9063,173.995 920.2813,173.995 Q918.9375,173.995 918.25,175.0731 Q917.5625,176.1356 917.5625,178.2294 Q917.5625,180.3231 918.25,181.4013 Q918.9375,182.4638 920.2813,182.4638 Q920.9063,182.4638 921.5,182.1981 Q922.0938,181.9169 922.7188,181.3388 L922.7188,184.0575 Z " fill="#000000"/><text fill="#000000" font-family="sans-serif" font-size="14" lengthAdjust="spacing" textLength="92" x="940.25" y="183.2636">GlyphColumn</text><line style="stroke:#181818;stroke-width:0.5;" x1="866" x2="1074" y1="194.4169" y2="194.4169"/><line style="stroke:#181818;stroke-width:0.5;" x1="866" x2="1074" y1="202.4169" y2="202.4169"/><ellipse cx="876" cy="216.0653" fill="#84BE84" rx="3" ry="3" style="stroke:#038048;stroke-width:1.0;"/><text fill="#000000" font-family="sans-serif" font-size="14" lengthAdjust="spacing" textLength="158" x="885" y="219.412">draw(w: Window) : void</text><ellipse cx="876" cy="232.3622" fill="#84BE84" rx="3" ry="3" style="stroke:#038048;stroke-width:1.0;"/><text fill="#000000" font-family="sans-serif" font-size="14" lengthAdjust="spacing" textLength="167" x="885" y="235.7089">intersect(p: Point) : bool</text><ellipse cx="876" cy="248.6591" fill="#84BE84" rx="3" ry="3" style="stroke:#038048;stroke-width:1.0;"/><text fill="#000000" font-family="sans-serif" font-size="14" lengthAdjust="spacing" textLength="184" x="885" y="252.0057">insert(g: Glyph, i: int) : void</text></g><g id="elem_nReturnTrue"><path d="M249,43.2969 L249,68.4297 L339,68.4297 L339,53.2969 L329,43.2969 L249,43.2969 " fill="#FEFFDD" style="stroke:#181818;stroke-width:0.5;"/><path d="M329,43.2969 L329,53.2969 L339,53.2969 L329,43.2969 " fill="#FEFFDD" style="stroke:#181818;stroke-width:1.0;"/><text fill="#000000" font-family="sans-serif" font-size="13" lengthAdjust="spacing" textLength="69" x="255" y="60.3638">return true</text></g><g id="elem_nGlyphLeaf"><path d="M160,824.7269 L160,864.9925 L428,864.9925 L428,834.7269 L418,824.7269 L160,824.7269 " fill="#FEFFDD" style="stroke:#181818;stroke-width:0.5;"/><path d="M418,824.7269 L418,834.7269 L428,834.7269 L418,824.7269 " fill="#FEFFDD" style="stroke:#181818;stroke-width:1.0;"/><text fill="#000000" font-family="sans-serif" font-size="13" lengthAdjust="spacing" textLength="247" x="166" y="841.7938">GlyphLeaf class is added to implement</text><text fill="#000000" font-family="sans-serif" font-size="13" lengthAdjust="spacing" textLength="198" x="166" y="856.9266">common methods in sub leafs.</text></g><g id="elem_nReturnFalse"><path d="M6,455.2969 L6,480.4297 L100,480.4297 L100,465.2969 L90,455.2969 L6,455.2969 " fill="#FEFFDD" style="stroke:#181818;stroke-width:0.5;"/><path d="M90,455.2969 L90,465.2969 L100,465.2969 L90,455.2969 " fill="#FEFFDD" style="stroke:#181818;stroke-width:1.0;"/><text fill="#000000" font-family="sans-serif" font-size="13" lengthAdjust="spacing" textLength="73" x="12" y="472.3638">return false</text></g><g id="elem_nCharDraw"><path d="M554.5,824.7269 L554.5,864.9925 L730.5,864.9925 L730.5,834.7269 L720.5,824.7269 L554.5,824.7269 " fill="#FEFFDD" style="stroke:#181818;stroke-width:0.5;"/><path d="M720.5,824.7269 L720.5,834.7269 L730.5,834.7269 L720.5,824.7269 " fill="#FEFFDD" style="stroke:#181818;stroke-width:1.0;"/><text fill="#000000" font-family="sans-serif" font-size="13" lengthAdjust="spacing" textLength="128" x="560.5" y="841.7938">return true if point p</text><text fill="#000000" font-family="sans-serif" font-size="13" lengthAdjust="spacing" textLength="155" x="560.5" y="856.9266">intersects this character</text></g><g id="elem_nCharIntersects"><path d="M562.5,900.2969 L562.5,925.4297 L722.5,925.4297 L722.5,910.2969 L712.5,900.2969 L562.5,900.2969 " fill="#FEFFDD" style="stroke:#181818;stroke-width:0.5;"/><path d="M712.5,900.2969 L712.5,910.2969 L722.5,910.2969 L712.5,900.2969 " fill="#FEFFDD" style="stroke:#181818;stroke-width:1.0;"/><text fill="#000000" font-family="sans-serif" font-size="13" lengthAdjust="spacing" textLength="139" x="568.5" y="917.3638">w -&gt;drawCharacter(c)</text></g><g id="elem_nGlyphRowDraw"><path d="M562.5,960.5969 L562.5,1031.1281 L722.5,1031.1281 L722.5,970.5969 L712.5,960.5969 L562.5,960.5969 " fill="#FEFFDD" style="stroke:#181818;stroke-width:0.5;"/><path d="M712.5,960.5969 L712.5,970.5969 L722.5,970.5969 L712.5,960.5969 " fill="#FEFFDD" style="stroke:#181818;stroke-width:1.0;"/><text fill="#000000" font-family="sans-serif" font-size="13" lengthAdjust="spacing" textLength="115" x="568.5" y="977.6638">for all c in children</text><text fill="#000000" font-family="sans-serif" font-size="13" lengthAdjust="spacing" textLength="139" x="568.5" y="992.7966">ensure c is positioned</text><text fill="#000000" font-family="sans-serif" font-size="13" lengthAdjust="spacing" textLength="59" x="568.5" y="1007.9294">correctly;</text><text fill="#000000" font-family="sans-serif" font-size="13" lengthAdjust="spacing" textLength="72" x="584.5" y="1023.0622">c-&gt;draw(w)</text></g><g id="elem_nGlypRowIntersects"><path d="M538,1065.7269 L538,1105.9925 L747,1105.9925 L747,1075.7269 L737,1065.7269 L538,1065.7269 " fill="#FEFFDD" style="stroke:#181818;stroke-width:0.5;"/><path d="M737,1065.7269 L737,1075.7269 L747,1075.7269 L737,1065.7269 " fill="#FEFFDD" style="stroke:#181818;stroke-width:1.0;"/><text fill="#000000" font-family="sans-serif" font-size="13" lengthAdjust="spacing" textLength="115" x="544" y="1082.7938">for all c in children</text><text fill="#000000" font-family="sans-serif" font-size="13" lengthAdjust="spacing" textLength="188" x="544" y="1097.9266">if c-&gt;intersects(p) return true</text></g><g id="elem_nGlypRowInsert"><path d="M568,1140.7269 L568,1180.9925 L717,1180.9925 L717,1150.7269 L707,1140.7269 L568,1140.7269 " fill="#FEFFDD" style="stroke:#181818;stroke-width:0.5;"/><path d="M707,1140.7269 L707,1150.7269 L717,1150.7269 L707,1140.7269 " fill="#FEFFDD" style="stroke:#181818;stroke-width:1.0;"/><text fill="#000000" font-family="sans-serif" font-size="13" lengthAdjust="spacing" textLength="76" x="574" y="1157.7938">insert g into</text><text fill="#000000" font-family="sans-serif" font-size="13" lengthAdjust="spacing" textLength="128" x="574" y="1172.9266">children at position i</text></g><!--reverse link Glyph to GlyphComposite--><g id="link_Glyph_GlyphComposite"><path codeLine="70" d="M412.8039,320.4487 C441.6739,311.0387 456.72,306.1269 488,295.9269 " fill="none" id="Glyph-backto-GlyphComposite" style="stroke:#181818;stroke-width:1.0;"/><polygon fill="none" points="395.69,326.0269,414.6632,326.1533,410.9445,314.7441,395.69,326.0269" style="stroke:#181818;stroke-width:1.0;"/></g><!--reverse link Glyph to GlyphLeaf--><g id="link_Glyph_GlyphLeaf"><path codeLine="71" d="M413.3334,382.7722 C466.2834,393.4722 512.63,402.8269 562.04,412.8169 " fill="none" id="Glyph-backto-GlyphLeaf" style="stroke:#181818;stroke-width:1.0;"/><polygon fill="none" points="395.69,379.2069,412.1449,388.6533,414.5218,376.8911,395.69,379.2069" style="stroke:#181818;stroke-width:1.0;"/></g><!--reverse link GlyphComposite to GlyphRow--><g id="link_GlyphComposite_GlyphRow"><path codeLine="73" d="M755.0131,317.4738 C776.2431,334.7138 782.65,343.8269 797,366.8669 C864.3,474.8869 783.92,542.6669 857,646.8669 C861.54,653.3369 866.89,659.3469 872.76,664.8769 " fill="none" id="GlyphComposite-backto-GlyphRow" style="stroke:#181818;stroke-width:1.0;"/><polygon fill="none" points="741.04,306.1269,751.2308,322.1315,758.7954,312.8161,741.04,306.1269" style="stroke:#181818;stroke-width:1.0;"/></g><!--reverse link GlyphComposite to GlyphColumn--><g id="link_GlyphComposite_GlyphColumn"><path codeLine="74" d="M814.617,227.4638 C837.697,224.9838 843.15,224.3969 864.88,222.0569 " fill="none" id="GlyphComposite-backto-GlyphColumn" style="stroke:#181818;stroke-width:1.0;"/><polygon fill="none" points="796.72,229.3869,815.258,233.4295,813.976,221.4981,796.72,229.3869" style="stroke:#181818;stroke-width:1.0;"/></g><!--reverse link GlyphLeaf to GlyphCharacter--><g id="link_GlyphLeaf_GlyphCharacter"><path codeLine="76" d="M739.0773,472.6177 C787.6273,494.8377 833.42,515.7969 883.14,538.5669 " fill="none" id="GlyphLeaf-backto-GlyphCharacter" style="stroke:#181818;stroke-width:1.0;"/><polygon fill="none" points="722.71,465.1269,736.5803,478.0735,741.5742,467.162,722.71,465.1269" style="stroke:#181818;stroke-width:1.0;"/></g><!--reverse link GlyphLeaf to GlyphRectangle--><g id="link_GlyphLeaf_GlyphRectangle"><path codeLine="77" d="M740.6691,435.4295 C794.5791,439.0695 847.32,442.6369 899.13,446.1369 " fill="none" id="GlyphLeaf-backto-GlyphRectangle" style="stroke:#181818;stroke-width:1.0;"/><polygon fill="none" points="722.71,434.2169,740.2649,441.4158,741.0733,429.4431,722.71,434.2169" style="stroke:#181818;stroke-width:1.0;"/></g><!--reverse link GlyphLeaf to GlyphPolygon--><g id="link_GlyphLeaf_GlyphPolygon"><path codeLine="78" d="M740.0036,400.9938 C794.1036,385.3738 847.81,369.8569 899.67,354.8869 " fill="none" id="GlyphLeaf-backto-GlyphPolygon" style="stroke:#181818;stroke-width:1.0;"/><polygon fill="none" points="722.71,405.9869,741.668,406.7583,738.3392,395.2292,722.71,405.9869" style="stroke:#181818;stroke-width:1.0;"/></g><!--link nReturnTrue to GlyphLeaf--><g id="link_nReturnTrue_GlyphLeaf"><path codeLine="88" d="M324.27,68.9169 C354.34,83.7369 400.53,110.6369 428,146.8669 C519.45,267.4669 417.64,456.8669 569,456.8669 " fill="none" id="nReturnTrue-GlyphLeaf" style="stroke:#181818;stroke-width:1.0;stroke-dasharray:7.0,7.0;"/></g><!--link nReturnTrue to GlyphComposite--><g id="link_nReturnTrue_GlyphComposite"><path codeLine="89" d="M322.13,68.8569 C351.48,84.0669 398.08,111.7069 428,146.8669 C473.36,200.1569 425.02,289.3669 495,289.3669 " fill="none" id="nReturnTrue-GlyphComposite" style="stroke:#181818;stroke-width:1.0;stroke-dasharray:7.0,7.0;"/></g><!--link nGlyphLeaf to GlyphLeaf--><g id="link_nGlyphLeaf_GlyphLeaf"><path codeLine="95" d="M360.87,824.3569 C383.91,814.9269 408.79,801.9569 428,784.8669 C528.81,695.1569 596.37,546.2169 625.39,472.6869 " fill="none" id="nGlyphLeaf-GlyphLeaf" style="stroke:#181818;stroke-width:1.0;stroke-dasharray:7.0,7.0;"/></g><!--link nReturnFalse to Glyph--><g id="link_nReturnFalse_Glyph"><path codeLine="100" d="M100.33,464.2469 C128.78,462.3269 165.98,460.3669 199,460.3669 " fill="none" id="nReturnFalse-Glyph" style="stroke:#181818;stroke-width:1.0;stroke-dasharray:7.0,7.0;"/></g><!--link nReturnFalse to Glyph--><g id="link_nReturnFalse_Glyph"><path codeLine="101" d="M100.32,471.9669 C128.77,474.1369 165.97,476.3669 199,476.3669 " fill="none" id="nReturnFalse-Glyph-1" style="stroke:#181818;stroke-width:1.0;stroke-dasharray:7.0,7.0;"/></g><!--link nCharDraw to GlyphCharacter--><g id="link_nCharDraw_GlyphCharacter"><path codeLine="107" d="M730.43,824.2769 C754.25,815.3069 778.56,802.6269 797,784.8669 C863.85,720.4669 797.18,597.8669 890,597.8669 " fill="none" id="nCharDraw-GlyphCharacter" style="stroke:#181818;stroke-width:1.0;stroke-dasharray:7.0,7.0;"/></g><!--link nCharIntersects to GlyphCharacter--><g id="link_nCharIntersects_GlyphCharacter"><path codeLine="112" d="M722.66,913.8569 C749.25,910.2669 777.17,901.6169 797,882.8669 C888.92,795.9569 763.5,613.8669 890,613.8669 " fill="none" id="nCharIntersects-GlyphCharacter" style="stroke:#181818;stroke-width:1.0;stroke-dasharray:7.0,7.0;"/></g><!--link nGlyphRowDraw to GlyphRow--><g id="link_nGlyphRowDraw_GlyphRow"><path codeLine="120" d="M722.87,983.5669 C749.49,975.8469 777.36,963.2869 797,942.8669 C868.43,868.5669 760.94,720.8669 864,720.8669 " fill="none" id="nGlyphRowDraw-GlyphRow" style="stroke:#181818;stroke-width:1.0;stroke-dasharray:7.0,7.0;"/></g><!--link nGlypRowIntersects to GlyphRow--><g id="link_nGlypRowIntersects_GlyphRow"><path codeLine="126" d="M747.23,1077.5269 C765.8,1071.7169 783.51,1062.6969 797,1048.8669 C896.03,947.3269 722.17,736.8669 864,736.8669 " fill="none" id="nGlypRowIntersects-GlyphRow" style="stroke:#181818;stroke-width:1.0;stroke-dasharray:7.0,7.0;"/></g><!--link nGlypRowInsert to GlyphRow--><g id="link_nGlypRowInsert_GlyphRow"><path codeLine="132" d="M717.32,1159.7069 C745.9,1155.4369 776.59,1145.4969 797,1123.8669 C912,1002.0069 696.44,752.8669 864,752.8669 " fill="none" id="nGlypRowInsert-GlyphRow" style="stroke:#181818;stroke-width:1.0;stroke-dasharray:7.0,7.0;"/></g><!--SRC=[bLPDZzCm4BtdLyoA0odGYdD0ICjkGIjrFxHTYGFYu4tSDCA98zlTKW7_dR7Zn8xZ0Dj3LVizpxmPpupBw4w1uY2gSg-Wg0JDLSMRH5MAKTZG7nLaSCdpGqqR1Lib3haw29eaBvVpd-HCAYAKF3p2nUPykrrlawGb-NTIKc1eSbMoKxk7dmdW9sT4IlYiTyBr1QzRBYj5Gs13oMv2tXD1SaL52DnZIAGfsSJA7MUd4cCD-Vmu5S8ETKVydIHdj2amjh-dmCl1zVhwu_eUSs1iOJwNBH6Opin6tM-_BWGvfb-gfk37HGPFl2eSziWFw3NLmImW1Ai6uvO8oVIEusBXGv8AbPhr6nXZWjRyYNROn66-hrYHwWCJdPtyT0Ayi41dSA9IrrQgjtKGxf3PdebBwfisPpvopYXfV6me3wsanssM1qodsuI2ogpUhszNgrVVOZoxu08i5GkUA5gUBWPaUYmMrmYVKQghAHdAMVlNXdmhTZ-MXcHSyqOzVkMuCOMwmZfcO6ihml0ggCt05b4oxf-mH2Fmj10JlzNY5ZnmxZpsP2GElrmi8nO7xZzYsWAUQOlItZDsHWQMQsmcNjz7F8ygrR46xpFEVUO__3ztoDolD-SFLxStmvXv_skv3CTeY9Wv6bQiW_Kad0NjJFGgrSE6MHn3tK2EeVrKVdO6RcuVz4FJS9H993Jt55-gva4Ski4lp1AKNgDbqBp48y5gvPAIPLtFHGb3DZJB9TTv7hzHBiZkHQaaaAAWXNvsgxfbL3-jtOl3wnhxeAPgpmiaDg3ZmdxVoPMdsHdq9KyY_qIO78M-CnjXx8OsM0e3dwAnWFLzNsA7X8c6QWUjRWDemM2kFK7jCH7vK2XELc_CvRidPLdHEp73S-J_ofasZ2CiFsZwS3hD5u4NxqZ4bzCQU7HtZ0rYb1h23fyDmXZa-kBw9ySWj97udqa34apky1yMBUoL2ptrsUdTu2JlTAV7HNZdlRjUBAwzb8ph3x6hSG3p-l2MqAa_EXSpxJAnFDRYfIoYHayyMmNw9vIw77YN1Yi7Y1eo15NCiJaPE3M6_szU_040]--></g></svg>