<?xml version="1.0" encoding="us-ascii" standalone="no"?><svg xmlns="http://www.w3.org/2000/svg" xmlns:xlink="http://www.w3.org/1999/xlink" contentStyleType="text/css" height="486px" preserveAspectRatio="none" style="width:1112px;height:486px;background:#FFFFFF;" version="1.1" viewBox="0 0 1112 486" width="1112px" zoomAndPan="magnify"><defs/><g><text fill="#000000" font-family="sans-serif" font-size="14" font-weight="bold" lengthAdjust="spacing" textLength="128" x="485" y="22.9951">Lexi: Formatting</text><!--cluster lexi--><g id="cluster_lexi"><path d="M8.5,99.4269 L36.5,99.4269 A3.75,3.75 0 0 1 39,101.9269 L46,121.7238 L1102.5,121.7238 A2.5,2.5 0 0 1 1105,124.2238 L1105,476.9269 A2.5,2.5 0 0 1 1102.5,479.4269 L8.5,479.4269 A2.5,2.5 0 0 1 6,476.9269 L6,101.9269 A2.5,2.5 0 0 1 8.5,99.4269 " fill="none" style="stroke:#000000;stroke-width:1.5;"/><line style="stroke:#000000;stroke-width:1.5;" x1="6" x2="46" y1="121.7238" y2="121.7238"/><text fill="#000000" font-family="sans-serif" font-size="14" font-weight="bold" lengthAdjust="spacing" textLength="27" x="10" y="114.422">lexi</text></g><!--cluster glyph--><g id="cluster_glyph"><path d="M32.5,214.4269 L76.5,214.4269 A3.75,3.75 0 0 1 79,216.9269 L86,236.7238 L466.5,236.7238 A2.5,2.5 0 0 1 469,239.2238 L469,298.9269 A2.5,2.5 0 0 1 466.5,301.4269 L32.5,301.4269 A2.5,2.5 0 0 1 30,298.9269 L30,216.9269 A2.5,2.5 0 0 1 32.5,214.4269 " fill="none" style="stroke:#000000;stroke-width:1.5;"/><line style="stroke:#000000;stroke-width:1.5;" x1="30" x2="86" y1="236.7238" y2="236.7238"/><text fill="#000000" font-family="sans-serif" font-size="14" font-weight="bold" lengthAdjust="spacing" textLength="43" x="34" y="229.422">glyph</text></g><!--cluster strategy--><g id="cluster_strategy"><path d="M499.5,142.4269 L566.5,142.4269 A3.75,3.75 0 0 1 569,144.9269 L576,164.7238 L1078.5,164.7238 A2.5,2.5 0 0 1 1081,167.2238 L1081,452.9269 A2.5,2.5 0 0 1 1078.5,455.4269 L499.5,455.4269 A2.5,2.5 0 0 1 497,452.9269 L497,144.9269 A2.5,2.5 0 0 1 499.5,142.4269 " fill="none" style="stroke:#000000;stroke-width:1.5;"/><line style="stroke:#000000;stroke-width:1.5;" x1="497" x2="576" y1="164.7238" y2="164.7238"/><text fill="#000000" font-family="sans-serif" font-size="14" font-weight="bold" lengthAdjust="spacing" textLength="66" x="501" y="157.422">strategy</text></g><!--entity Glyph--><g id="elem_Glyph"><rect fill="#F1F1F1" height="36.2969" rx="2.5" ry="2.5" style="stroke:#181818;stroke-width:0.5;" width="126" x="46" y="249.2769"/><text fill="#000000" font-family="sans-serif" font-size="14" lengthAdjust="spacing" textLength="106" x="56" y="272.272">lexi.glyph.Glyph</text></g><!--entity GlyphComposite--><g id="elem_GlyphComposite"><rect fill="#F1F1F1" height="36.2969" rx="2.5" ry="2.5" style="stroke:#181818;stroke-width:0.5;" width="201" x="252" y="249.2769"/><text fill="#000000" font-family="sans-serif" font-size="14" lengthAdjust="spacing" textLength="181" x="262" y="272.272">lexi.glyph.GlyphComposite</text></g><!--class GlyphStrategyCompositor--><g id="elem_GlyphStrategyCompositor"><rect codeLine="12" fill="#F1F1F1" height="96.8906" id="GlyphStrategyCompositor" rx="2.5" ry="2.5" style="stroke:#181818;stroke-width:0.5;" width="238" x="513" y="218.9769"/><ellipse cx="541.5" cy="234.9769" fill="#ADD1B2" rx="11" ry="11" style="stroke:#181818;stroke-width:1.0;"/><path d="M544.4688,240.6175 Q543.8906,240.9144 543.25,241.055 Q542.6094,241.2113 541.9063,241.2113 Q539.4063,241.2113 538.0781,239.5706 Q536.7656,237.9144 536.7656,234.7894 Q536.7656,231.6644 538.0781,230.0081 Q539.4063,228.3519 541.9063,228.3519 Q542.6094,228.3519 543.25,228.5081 Q543.9063,228.6644 544.4688,228.9613 L544.4688,231.68 Q543.8438,231.1019 543.25,230.8363 Q542.6563,230.555 542.0313,230.555 Q540.6875,230.555 540,231.6331 Q539.3125,232.6956 539.3125,234.7894 Q539.3125,236.8831 540,237.9613 Q540.6875,239.0238 542.0313,239.0238 Q542.6563,239.0238 543.25,238.7581 Q543.8438,238.4769 544.4688,237.8988 L544.4688,240.6175 Z " fill="#000000"/><text fill="#000000" font-family="sans-serif" font-size="14" lengthAdjust="spacing" textLength="176" x="558.5" y="239.8236">GlyphStrategyCompositor</text><line style="stroke:#181818;stroke-width:0.5;" x1="514" x2="750" y1="250.9769" y2="250.9769"/><rect fill="none" height="6" style="stroke:#C82930;stroke-width:1.0;" width="6" x="521" y="261.6253"/><text fill="#000000" font-family="sans-serif" font-size="14" lengthAdjust="spacing" textLength="212" x="533" y="267.972">composition : GlyphComposite</text><line style="stroke:#181818;stroke-width:0.5;" x1="514" x2="750" y1="275.2738" y2="275.2738"/><ellipse cx="524" cy="288.9222" fill="#84BE84" rx="3" ry="3" style="stroke:#038048;stroke-width:1.0;"/><text fill="#000000" font-family="sans-serif" font-size="14" lengthAdjust="spacing" textLength="75" x="533" y="292.2689">compose()</text><ellipse cx="524" cy="305.2191" fill="#84BE84" rx="3" ry="3" style="stroke:#038048;stroke-width:1.0;"/><text fill="#000000" font-family="sans-serif" font-size="14" lengthAdjust="spacing" textLength="119" x="533" y="308.5657">setComposition()</text></g><!--class GlyphStrategyArrayCompositor--><g id="elem_GlyphStrategyArrayCompositor"><rect codeLine="13" fill="#F1F1F1" height="64.2969" id="GlyphStrategyArrayCompositor" rx="2.5" ry="2.5" style="stroke:#181818;stroke-width:0.5;" width="242" x="817" y="375.2769"/><ellipse cx="832" cy="391.2769" fill="#ADD1B2" rx="11" ry="11" style="stroke:#181818;stroke-width:1.0;"/><path d="M834.9688,396.9175 Q834.3906,397.2144 833.75,397.355 Q833.1094,397.5113 832.4063,397.5113 Q829.9063,397.5113 828.5781,395.8706 Q827.2656,394.2144 827.2656,391.0894 Q827.2656,387.9644 828.5781,386.3081 Q829.9063,384.6519 832.4063,384.6519 Q833.1094,384.6519 833.75,384.8081 Q834.4063,384.9644 834.9688,385.2613 L834.9688,387.98 Q834.3438,387.4019 833.75,387.1363 Q833.1563,386.855 832.5313,386.855 Q831.1875,386.855 830.5,387.9331 Q829.8125,388.9956 829.8125,391.0894 Q829.8125,393.1831 830.5,394.2613 Q831.1875,395.3238 832.5313,395.3238 Q833.1563,395.3238 833.75,395.0581 Q834.3438,394.7769 834.9688,394.1988 L834.9688,396.9175 Z " fill="#000000"/><text fill="#000000" font-family="sans-serif" font-size="14" lengthAdjust="spacing" textLength="210" x="846" y="396.1236">GlyphStrategyArrayCompositor</text><line style="stroke:#181818;stroke-width:0.5;" x1="818" x2="1058" y1="407.2769" y2="407.2769"/><line style="stroke:#181818;stroke-width:0.5;" x1="818" x2="1058" y1="415.2769" y2="415.2769"/><ellipse cx="828" cy="428.9253" fill="#84BE84" rx="3" ry="3" style="stroke:#038048;stroke-width:1.0;"/><text fill="#000000" font-family="sans-serif" font-size="14" lengthAdjust="spacing" textLength="75" x="837" y="432.272">compose()</text></g><!--class GlyphStrategyTeXCompositor--><g id="elem_GlyphStrategyTeXCompositor"><rect codeLine="14" fill="#F1F1F1" height="64.2969" id="GlyphStrategyTeXCompositor" rx="2.5" ry="2.5" style="stroke:#181818;stroke-width:0.5;" width="235" x="820.5" y="276.2769"/><ellipse cx="835.5" cy="292.2769" fill="#ADD1B2" rx="11" ry="11" style="stroke:#181818;stroke-width:1.0;"/><path d="M838.4688,297.9175 Q837.8906,298.2144 837.25,298.355 Q836.6094,298.5113 835.9063,298.5113 Q833.4063,298.5113 832.0781,296.8706 Q830.7656,295.2144 830.7656,292.0894 Q830.7656,288.9644 832.0781,287.3081 Q833.4063,285.6519 835.9063,285.6519 Q836.6094,285.6519 837.25,285.8081 Q837.9063,285.9644 838.4688,286.2613 L838.4688,288.98 Q837.8438,288.4019 837.25,288.1363 Q836.6563,287.855 836.0313,287.855 Q834.6875,287.855 834,288.9331 Q833.3125,289.9956 833.3125,292.0894 Q833.3125,294.1831 834,295.2613 Q834.6875,296.3238 836.0313,296.3238 Q836.6563,296.3238 837.25,296.0581 Q837.8438,295.7769 838.4688,295.1988 L838.4688,297.9175 Z " fill="#000000"/><text fill="#000000" font-family="sans-serif" font-size="14" lengthAdjust="spacing" textLength="203" x="849.5" y="297.1236">GlyphStrategyTeXCompositor</text><line style="stroke:#181818;stroke-width:0.5;" x1="821.5" x2="1054.5" y1="308.2769" y2="308.2769"/><line style="stroke:#181818;stroke-width:0.5;" x1="821.5" x2="1054.5" y1="316.2769" y2="316.2769"/><ellipse cx="831.5" cy="329.9253" fill="#84BE84" rx="3" ry="3" style="stroke:#038048;stroke-width:1.0;"/><text fill="#000000" font-family="sans-serif" font-size="14" lengthAdjust="spacing" textLength="75" x="840.5" y="333.272">compose()</text></g><!--class GlyphStrategySimpleCompositor--><g id="elem_GlyphStrategySimpleCompositor"><rect codeLine="15" fill="#F1F1F1" height="64.2969" id="GlyphStrategySimpleCompositor" rx="2.5" ry="2.5" style="stroke:#181818;stroke-width:0.5;" width="254" x="811" y="177.2769"/><ellipse cx="826" cy="193.2769" fill="#ADD1B2" rx="11" ry="11" style="stroke:#181818;stroke-width:1.0;"/><path d="M828.9688,198.9175 Q828.3906,199.2144 827.75,199.355 Q827.1094,199.5113 826.4063,199.5113 Q823.9063,199.5113 822.5781,197.8706 Q821.2656,196.2144 821.2656,193.0894 Q821.2656,189.9644 822.5781,188.3081 Q823.9063,186.6519 826.4063,186.6519 Q827.1094,186.6519 827.75,186.8081 Q828.4063,186.9644 828.9688,187.2613 L828.9688,189.98 Q828.3438,189.4019 827.75,189.1363 Q827.1563,188.855 826.5313,188.855 Q825.1875,188.855 824.5,189.9331 Q823.8125,190.9956 823.8125,193.0894 Q823.8125,195.1831 824.5,196.2613 Q825.1875,197.3238 826.5313,197.3238 Q827.1563,197.3238 827.75,197.0581 Q828.3438,196.7769 828.9688,196.1988 L828.9688,198.9175 Z " fill="#000000"/><text fill="#000000" font-family="sans-serif" font-size="14" lengthAdjust="spacing" textLength="222" x="840" y="198.1236">GlyphStrategySimpleCompositor</text><line style="stroke:#181818;stroke-width:0.5;" x1="812" x2="1064" y1="209.2769" y2="209.2769"/><line style="stroke:#181818;stroke-width:0.5;" x1="812" x2="1064" y1="217.2769" y2="217.2769"/><ellipse cx="822" cy="230.9253" fill="#84BE84" rx="3" ry="3" style="stroke:#038048;stroke-width:1.0;"/><text fill="#000000" font-family="sans-serif" font-size="14" lengthAdjust="spacing" textLength="75" x="831" y="234.272">compose()</text></g><g id="elem_nGlyphStrategyCompositionInsert"><path d="M26,43.2969 L26,83.5625 A0,0 0 0 0 26,83.5625 L130.04,83.5625 L329.66,248.9769 L138.04,83.5625 L192,83.5625 A0,0 0 0 0 192,83.5625 L192,53.2969 L182,43.2969 L26,43.2969 A0,0 0 0 0 26,43.2969 " fill="#FEFFDD" style="stroke:#181818;stroke-width:0.5;"/><path d="M182,43.2969 L182,53.2969 L192,53.2969 L182,43.2969 " fill="#FEFFDD" style="stroke:#181818;stroke-width:0.5;"/><text fill="#000000" font-family="sans-serif" font-size="13" lengthAdjust="spacing" textLength="109" x="32" y="60.3638">Glyph::Insert(g, i)</text><text fill="#000000" font-family="sans-serif" font-size="13" lengthAdjust="spacing" textLength="145" x="32" y="75.4966">compositor.compose()</text></g><!--reverse link GlyphStrategyCompositor to GlyphStrategyArrayCompositor--><g id="link_GlyphStrategyCompositor_GlyphStrategyArrayCompositor"><path codeLine="37" d="M740.0707,324.4523 C767.7107,338.6523 782.34,345.5669 811,358.4269 C823.42,363.9969 836.68,369.5669 849.76,374.8369 " fill="none" id="GlyphStrategyCompositor-backto-GlyphStrategyArrayCompositor" style="stroke:#181818;stroke-width:1.0;"/><polygon fill="none" points="724.06,316.2269,737.3289,329.7892,742.8125,319.1154,724.06,316.2269" style="stroke:#181818;stroke-width:1.0;"/></g><!--reverse link GlyphStrategyCompositor to GlyphStrategyTeXCompositor--><g id="link_GlyphStrategyCompositor_GlyphStrategyTeXCompositor"><path codeLine="38" d="M769.2384,285.8036 C791.9184,288.8636 797.8,289.6569 820.42,292.7069 " fill="none" id="GlyphStrategyCompositor-backto-GlyphStrategyTeXCompositor" style="stroke:#181818;stroke-width:1.0;"/><polygon fill="none" points="751.4,283.3969,768.4361,291.7498,770.0406,279.8575,751.4,283.3969" style="stroke:#181818;stroke-width:1.0;"/></g><!--reverse link GlyphStrategyCompositor to GlyphStrategySimpleCompositor--><g id="link_GlyphStrategyCompositor_GlyphStrategySimpleCompositor"><path codeLine="39" d="M769.0806,241.4609 C788.5106,237.7509 791.02,237.2769 810.63,233.5369 " fill="none" id="GlyphStrategyCompositor-backto-GlyphStrategySimpleCompositor" style="stroke:#181818;stroke-width:1.0;"/><polygon fill="none" points="751.4,244.8369,770.2059,247.3544,767.9553,235.5674,751.4,244.8369" style="stroke:#181818;stroke-width:1.0;"/></g><!--link Glyph to GlyphComposite--><g id="link_Glyph_GlyphComposite"><path codeLine="41" d="M178.19,267.4269 C202.37,267.4269 212.68,267.4269 239.57,267.4269 " fill="none" id="Glyph-GlyphComposite" style="stroke:#181818;stroke-width:1.0;"/><polygon fill="#181818" points="172.19,267.4269,181.19,271.4269,177.19,267.4269,181.19,263.4269,172.19,267.4269" style="stroke:#181818;stroke-width:1.0;"/><polygon fill="none" points="251.57,267.4269,245.57,263.4269,239.57,267.4269,245.57,271.4269,251.57,267.4269" style="stroke:#181818;stroke-width:1.0;"/><text fill="#000000" font-family="sans-serif" font-size="13" lengthAdjust="spacing" textLength="50" x="193.8961" y="279.9549">children</text></g><!--link GlyphComposite to GlyphStrategyCompositor--><g id="link_GlyphComposite_GlyphStrategyCompositor"><path codeLine="42" d="M465.2863,280.3757 C484.5563,280.8557 486.9205,280.7527 506.7105,280.5027 " fill="none" id="GlyphComposite-GlyphStrategyCompositor" style="stroke:#181818;stroke-width:1.0;"/><polygon fill="none" points="453.29,280.0769,459.1885,284.225,465.2863,280.3757,459.3877,276.2275,453.29,280.0769" style="stroke:#181818;stroke-width:1.0;"/><polygon fill="#181818" points="512.71,280.4269,503.6602,276.5409,507.7104,280.49,503.7612,284.5402,512.71,280.4269" style="stroke:#181818;stroke-width:1.0;"/><text fill="#000000" font-family="sans-serif" font-size="13" lengthAdjust="spacing" textLength="64" x="441.4154" y="296.3206">compsitor</text></g><!--reverse link GlyphComposite to GlyphStrategyCompositor--><g id="link_GlyphComposite_GlyphStrategyCompositor"><path codeLine="43" d="M459.2881,254.6275 C478.5581,254.1475 492.92,254.1769 512.71,254.4269 " fill="none" id="GlyphComposite-backto-GlyphStrategyCompositor" style="stroke:#181818;stroke-width:1.0;"/><polygon fill="#181818" points="453.29,254.7769,462.3868,258.5515,458.2884,254.6524,462.1876,250.554,453.29,254.7769" style="stroke:#181818;stroke-width:1.0;"/><text fill="#000000" font-family="sans-serif" font-size="13" lengthAdjust="spacing" textLength="78" x="427.4573" y="240.644">composition</text></g><!--SRC=[fPFBRi8m44Nt_eeXcrArpWT4g195QON4Go8ikdM36omvDhAdAaZz-4uIdYa98Bo8ClOzC_Rr61Lg2IEvLX6yMPSBH6KoneJMzYTNwoBGyWi1BJYLBH4MoiaKbJMC5J_2P9H0Ku8mqvlLCdmllYrB0vklh5Se6Uju50xzzoSCHlqaYHF6KYsyhnYFJg3CDXMMRACTRjrbRTyvSHCmbn-to1ELhxGy8bX7cWMTXptmQyQn0-Du_1hFo866qq84FDr6P3w5DJURkQUAazt7Df6NE3Za9orhyx8bxOc9BRgwUwTITe-PitZKdm-danOxUx-SGsktN4-UjitrtF_-APUXnxc585qglN3I16TlUX-Ia7vBFW3B-GiqlPSQHrKgTdlbGIDunqrCflFYMHjB1OK7SxO45HyQBnqoe55AegYQwMRFe1xB-NI_eV3G9hGnA9Ep2waX36i-Hf6gYkwE1zHpVm00]--></g></svg>