<?xml version="1.0" encoding="us-ascii" standalone="no"?><svg xmlns="http://www.w3.org/2000/svg" xmlns:xlink="http://www.w3.org/1999/xlink" contentStyleType="text/css" height="347px" preserveAspectRatio="none" style="width:700px;height:347px;background:#FFFFFF;" version="1.1" viewBox="0 0 700 347" width="700px" zoomAndPan="magnify"><defs/><g><text fill="#000000" font-family="sans-serif" font-size="14" font-weight="bold" lengthAdjust="spacing" textLength="224" x="231" y="22.9951">Lexi: Interface Imbelishment</text><!--cluster lexi--><g id="cluster_lexi"><path d="M8.5,43.2969 L36.5,43.2969 A3.75,3.75 0 0 1 39,45.7969 L46,65.5938 L690.5,65.5938 A2.5,2.5 0 0 1 693,68.0938 L693,337.7969 A2.5,2.5 0 0 1 690.5,340.2969 L8.5,340.2969 A2.5,2.5 0 0 1 6,337.7969 L6,45.7969 A2.5,2.5 0 0 1 8.5,43.2969 " fill="none" style="stroke:#000000;stroke-width:1.5;"/><line style="stroke:#000000;stroke-width:1.5;" x1="6" x2="46" y1="65.5938" y2="65.5938"/><text fill="#000000" font-family="sans-serif" font-size="14" font-weight="bold" lengthAdjust="spacing" textLength="27" x="10" y="58.292">lexi</text></g><!--cluster glyph--><g id="cluster_glyph"><path d="M32.5,158.2969 L76.5,158.2969 A3.75,3.75 0 0 1 79,160.7969 L86,180.5938 L185.5,180.5938 A2.5,2.5 0 0 1 188,183.0938 L188,242.7969 A2.5,2.5 0 0 1 185.5,245.2969 L32.5,245.2969 A2.5,2.5 0 0 1 30,242.7969 L30,160.7969 A2.5,2.5 0 0 1 32.5,158.2969 " fill="none" style="stroke:#000000;stroke-width:1.5;"/><line style="stroke:#000000;stroke-width:1.5;" x1="30" x2="86" y1="180.5938" y2="180.5938"/><text fill="#000000" font-family="sans-serif" font-size="14" font-weight="bold" lengthAdjust="spacing" textLength="43" x="34" y="173.292">glyph</text></g><!--cluster decorator--><g id="cluster_decorator"><path d="M218.5,86.2969 L297.5,86.2969 A3.75,3.75 0 0 1 300,88.7969 L307,108.5938 L666.5,108.5938 A2.5,2.5 0 0 1 669,111.0938 L669,313.7969 A2.5,2.5 0 0 1 666.5,316.2969 L218.5,316.2969 A2.5,2.5 0 0 1 216,313.7969 L216,88.7969 A2.5,2.5 0 0 1 218.5,86.2969 " fill="none" style="stroke:#000000;stroke-width:1.5;"/><line style="stroke:#000000;stroke-width:1.5;" x1="216" x2="307" y1="108.5938" y2="108.5938"/><text fill="#000000" font-family="sans-serif" font-size="14" font-weight="bold" lengthAdjust="spacing" textLength="78" x="220" y="101.292">decorator</text></g><!--entity Glyph--><g id="elem_Glyph"><rect fill="#F1F1F1" height="36.2969" rx="2.5" ry="2.5" style="stroke:#181818;stroke-width:0.5;" width="126" x="46" y="193.1469"/><text fill="#000000" font-family="sans-serif" font-size="14" lengthAdjust="spacing" textLength="106" x="56" y="216.142">lexi.glyph.Glyph</text></g><!--class GlyphDecorator--><g id="elem_GlyphDecorator"><rect codeLine="11" fill="#F1F1F1" height="80.5938" id="GlyphDecorator" rx="2.5" ry="2.5" style="stroke:#181818;stroke-width:0.5;" width="164" x="232" y="170.9969"/><ellipse cx="257.8" cy="186.9969" fill="#ADD1B2" rx="11" ry="11" style="stroke:#181818;stroke-width:1.0;"/><path d="M260.7688,192.6375 Q260.1906,192.9344 259.55,193.075 Q258.9094,193.2313 258.2063,193.2313 Q255.7063,193.2313 254.3781,191.5906 Q253.0656,189.9344 253.0656,186.8094 Q253.0656,183.6844 254.3781,182.0281 Q255.7063,180.3719 258.2063,180.3719 Q258.9094,180.3719 259.55,180.5281 Q260.2063,180.6844 260.7688,180.9813 L260.7688,183.7 Q260.1438,183.1219 259.55,182.8563 Q258.9563,182.575 258.3313,182.575 Q256.9875,182.575 256.3,183.6531 Q255.6125,184.7156 255.6125,186.8094 Q255.6125,188.9031 256.3,189.9813 Q256.9875,191.0438 258.3313,191.0438 Q258.9563,191.0438 259.55,190.7781 Q260.1438,190.4969 260.7688,189.9188 L260.7688,192.6375 Z " fill="#000000"/><text fill="#000000" font-family="sans-serif" font-size="14" lengthAdjust="spacing" textLength="108" x="274.2" y="191.8436">GlyphDecorator</text><line style="stroke:#181818;stroke-width:0.5;" x1="233" x2="395" y1="202.9969" y2="202.9969"/><rect fill="none" height="6" style="stroke:#C82930;stroke-width:1.0;" width="6" x="240" y="213.6453"/><text fill="#000000" font-family="sans-serif" font-size="14" lengthAdjust="spacing" textLength="132" x="252" y="219.992">component : Glyph</text><line style="stroke:#181818;stroke-width:0.5;" x1="233" x2="395" y1="227.2938" y2="227.2938"/><ellipse cx="243" cy="240.9422" fill="#84BE84" rx="3" ry="3" style="stroke:#038048;stroke-width:1.0;"/><text fill="#000000" font-family="sans-serif" font-size="14" lengthAdjust="spacing" textLength="138" x="252" y="244.2889">draw(Window) : void</text></g><!--class GlyphDecoratorBorder--><g id="elem_GlyphDecoratorBorder"><rect codeLine="12" fill="#F1F1F1" height="80.5938" id="GlyphDecoratorBorder" rx="2.5" ry="2.5" style="stroke:#181818;stroke-width:0.5;" width="197" x="456" y="219.9969"/><ellipse cx="475.5" cy="235.9969" fill="#ADD1B2" rx="11" ry="11" style="stroke:#181818;stroke-width:1.0;"/><path d="M478.4688,241.6375 Q477.8906,241.9344 477.25,242.075 Q476.6094,242.2313 475.9063,242.2313 Q473.4063,242.2313 472.0781,240.5906 Q470.7656,238.9344 470.7656,235.8094 Q470.7656,232.6844 472.0781,231.0281 Q473.4063,229.3719 475.9063,229.3719 Q476.6094,229.3719 477.25,229.5281 Q477.9063,229.6844 478.4688,229.9813 L478.4688,232.7 Q477.8438,232.1219 477.25,231.8563 Q476.6563,231.575 476.0313,231.575 Q474.6875,231.575 474,232.6531 Q473.3125,233.7156 473.3125,235.8094 Q473.3125,237.9031 474,238.9813 Q474.6875,240.0438 476.0313,240.0438 Q476.6563,240.0438 477.25,239.7781 Q477.8438,239.4969 478.4688,238.9188 L478.4688,241.6375 Z " fill="#000000"/><text fill="#000000" font-family="sans-serif" font-size="14" lengthAdjust="spacing" textLength="155" x="490.5" y="240.8436">GlyphDecoratorBorder</text><line style="stroke:#181818;stroke-width:0.5;" x1="457" x2="652" y1="251.9969" y2="251.9969"/><line style="stroke:#181818;stroke-width:0.5;" x1="457" x2="652" y1="259.9969" y2="259.9969"/><text fill="#000000" font-family="sans-serif" font-size="14" lengthAdjust="spacing" textLength="138" x="462" y="276.992">draw(Window) : void</text><text fill="#000000" font-family="sans-serif" font-size="14" lengthAdjust="spacing" textLength="185" x="462" y="293.2889">drawBorder(Window) : void</text></g><!--class GlyphDecoratorScroller--><g id="elem_GlyphDecoratorScroller"><rect codeLine="13" fill="#F1F1F1" height="64.2969" id="GlyphDecoratorScroller" rx="2.5" ry="2.5" style="stroke:#181818;stroke-width:0.5;" width="191" x="459" y="121.1469"/><ellipse cx="474" cy="137.1469" fill="#ADD1B2" rx="11" ry="11" style="stroke:#181818;stroke-width:1.0;"/><path d="M476.9688,142.7875 Q476.3906,143.0844 475.75,143.225 Q475.1094,143.3813 474.4063,143.3813 Q471.9063,143.3813 470.5781,141.7406 Q469.2656,140.0844 469.2656,136.9594 Q469.2656,133.8344 470.5781,132.1781 Q471.9063,130.5219 474.4063,130.5219 Q475.1094,130.5219 475.75,130.6781 Q476.4063,130.8344 476.9688,131.1313 L476.9688,133.85 Q476.3438,133.2719 475.75,133.0063 Q475.1563,132.725 474.5313,132.725 Q473.1875,132.725 472.5,133.8031 Q471.8125,134.8656 471.8125,136.9594 Q471.8125,139.0531 472.5,140.1313 Q473.1875,141.1938 474.5313,141.1938 Q475.1563,141.1938 475.75,140.9281 Q476.3438,140.6469 476.9688,140.0688 L476.9688,142.7875 Z " fill="#000000"/><text fill="#000000" font-family="sans-serif" font-size="14" lengthAdjust="spacing" textLength="159" x="488" y="141.9936">GlyphDecoratorScroller</text><line style="stroke:#181818;stroke-width:0.5;" x1="460" x2="649" y1="153.1469" y2="153.1469"/><line style="stroke:#181818;stroke-width:0.5;" x1="460" x2="649" y1="161.1469" y2="161.1469"/><text fill="#000000" font-family="sans-serif" font-size="14" lengthAdjust="spacing" textLength="138" x="465" y="178.142">draw(Window) : void</text></g><!--reverse link Glyph to GlyphDecorator--><g id="link_Glyph_GlyphDecorator"><path codeLine="32" d="M190.2684,224.3885 C209.0284,225.3085 211.93,224.6569 231.73,224.1869 " fill="none" id="Glyph-backto-GlyphDecorator" style="stroke:#181818;stroke-width:1.0;"/><polygon fill="none" points="172.29,223.5069,189.9745,230.3813,190.5623,218.3957,172.29,223.5069" style="stroke:#181818;stroke-width:1.0;"/></g><!--link Glyph to GlyphDecorator--><g id="link_Glyph_GlyphDecorator"><path codeLine="37" d="M178.2828,198.793 C197.0428,197.873 199.9334,197.6521 219.7334,198.1221 " fill="none" id="Glyph-GlyphDecorator" style="stroke:#181818;stroke-width:1.0;"/><polygon fill="#181818" points="172.29,199.0869,181.4751,202.6412,177.284,198.842,181.0833,194.6508,172.29,199.0869" style="stroke:#181818;stroke-width:1.0;"/><polygon fill="none" points="231.73,198.4069,225.8266,194.2656,219.7334,198.1221,225.6368,202.2634,231.73,198.4069" style="stroke:#181818;stroke-width:1.0;"/><text fill="#000000" font-family="sans-serif" font-size="13" lengthAdjust="spacing" textLength="73" x="151.0341" y="183.096">component</text></g><!--reverse link GlyphDecorator to GlyphDecoratorBorder--><g id="link_GlyphDecorator_GlyphDecoratorBorder"><path codeLine="34" d="M414.0417,231.6496 C433.0717,235.5596 435.9,236.1369 455.56,240.1769 " fill="none" id="GlyphDecorator-backto-GlyphDecoratorBorder" style="stroke:#181818;stroke-width:1.0;"/><polygon fill="none" points="396.41,228.0269,412.8341,237.5268,415.2492,225.7723,396.41,228.0269" style="stroke:#181818;stroke-width:1.0;"/></g><!--reverse link GlyphDecorator to GlyphDecoratorScroller--><g id="link_GlyphDecorator_GlyphDecoratorScroller"><path codeLine="35" d="M413.9003,187.2439 C434.0103,182.3539 438.23,181.3269 458.9,176.3069 " fill="none" id="GlyphDecorator-backto-GlyphDecoratorScroller" style="stroke:#181818;stroke-width:1.0;"/><polygon fill="none" points="396.41,191.4969,415.318,193.074,412.4827,181.4138,396.41,191.4969" style="stroke:#181818;stroke-width:1.0;"/></g><!--SRC=[ZP71JiCm38RlUGfl5q0eUu29omOLgjI1j29npXAlZPJ6Kshea7XuCdKTenjRSuZoAvz- -xVPiaF8S6kda7h6i5OQ8QrMw6nTLkXP2EKSDPNTMby8Xsi69WYsA1cC3QZPaXTYzr2-Y6OkcaqAzxKf9y-xMuXHpIfm_R62nsoMvqakX7QghblKeAQWc4ABFtLo23EdO70GcUj0paLMZD2Rs8kuaKFESVUBP35Fbh7xlzO0Kv2QgWtvEAyesjYdqBq9ghbzjzvGSnVr9rdJDsiJnSzpx0Mq5LVCko7yOtyOpL7cPPBDtjBNbourF7nB2RrDzREUOVQRkWx-BcfVJqg2yM6yuvFQNTC_]--></g></svg>