<?xml version="1.0" encoding="us-ascii" standalone="no"?><svg xmlns="http://www.w3.org/2000/svg" xmlns:xlink="http://www.w3.org/1999/xlink" contentStyleType="text/css" height="1025px" preserveAspectRatio="none" style="width:1396px;height:1025px;background:#FFFFFF;" version="1.1" viewBox="0 0 1396 1025" width="1396px" zoomAndPan="magnify"><defs/><g><text fill="#000000" font-family="sans-serif" font-size="14" font-weight="bold" lengthAdjust="spacing" textLength="129" x="626.5" y="22.9951">Lexi: Full Design</text><!--cluster lexi--><g id="cluster_lexi"><path d="M69.5,43.2969 L97.5,43.2969 A3.75,3.75 0 0 1 100,45.7969 L107,65.5938 L1386.5,65.5938 A2.5,2.5 0 0 1 1389,68.0938 L1389,913.7969 A2.5,2.5 0 0 1 1386.5,916.2969 L69.5,916.2969 A2.5,2.5 0 0 1 67,913.7969 L67,45.7969 A2.5,2.5 0 0 1 69.5,43.2969 " fill="none" style="stroke:#000000;stroke-width:1.5;"/><line style="stroke:#000000;stroke-width:1.5;" x1="67" x2="107" y1="65.5938" y2="65.5938"/><text fill="#000000" font-family="sans-serif" font-size="14" font-weight="bold" lengthAdjust="spacing" textLength="27" x="71" y="58.292">lexi</text></g><!--cluster glyph--><g id="cluster_glyph"><path d="M93.5,521.2969 L137.5,521.2969 A3.75,3.75 0 0 1 140,523.7969 L147,543.5938 L931.5,543.5938 A2.5,2.5 0 0 1 934,546.0938 L934,889.7969 A2.5,2.5 0 0 1 931.5,892.2969 L93.5,892.2969 A2.5,2.5 0 0 1 91,889.7969 L91,523.7969 A2.5,2.5 0 0 1 93.5,521.2969 " fill="none" style="stroke:#000000;stroke-width:1.5;"/><line style="stroke:#000000;stroke-width:1.5;" x1="91" x2="147" y1="543.5938" y2="543.5938"/><text fill="#000000" font-family="sans-serif" font-size="14" font-weight="bold" lengthAdjust="spacing" textLength="43" x="95" y="536.292">glyph</text></g><!--cluster strategy--><g id="cluster_strategy"><path d="M665.5,268.2969 L732.5,268.2969 A3.75,3.75 0 0 1 735,270.7969 L742,290.5938 L1362.5,290.5938 A2.5,2.5 0 0 1 1365,293.0938 L1365,494.7969 A2.5,2.5 0 0 1 1362.5,497.2969 L665.5,497.2969 A2.5,2.5 0 0 1 663,494.7969 L663,270.7969 A2.5,2.5 0 0 1 665.5,268.2969 " fill="none" style="stroke:#000000;stroke-width:1.5;"/><line style="stroke:#000000;stroke-width:1.5;" x1="663" x2="742" y1="290.5938" y2="290.5938"/><text fill="#000000" font-family="sans-serif" font-size="14" font-weight="bold" lengthAdjust="spacing" textLength="66" x="667" y="283.292">strategy</text></g><!--cluster decorator--><g id="cluster_decorator"><path d="M380.5,86.2969 L459.5,86.2969 A3.75,3.75 0 0 1 462,88.7969 L469,108.5938 L971.5,108.5938 A2.5,2.5 0 0 1 974,111.0938 L974,241.7969 A2.5,2.5 0 0 1 971.5,244.2969 L380.5,244.2969 A2.5,2.5 0 0 1 378,241.7969 L378,88.7969 A2.5,2.5 0 0 1 380.5,86.2969 " fill="none" style="stroke:#000000;stroke-width:1.5;"/><line style="stroke:#000000;stroke-width:1.5;" x1="378" x2="469" y1="108.5938" y2="108.5938"/><text fill="#000000" font-family="sans-serif" font-size="14" font-weight="bold" lengthAdjust="spacing" textLength="78" x="382" y="101.292">decorator</text></g><!--entity Glyph--><g id="elem_Glyph"><rect fill="#F1F1F1" height="36.2969" rx="2.5" ry="2.5" style="stroke:#181818;stroke-width:0.5;" width="126" x="107" y="556.1469"/><text fill="#000000" font-family="sans-serif" font-size="14" lengthAdjust="spacing" textLength="106" x="117" y="579.142">lexi.glyph.Glyph</text></g><!--entity GlyphComposite--><g id="elem_GlyphComposite"><rect fill="#F1F1F1" height="36.2969" rx="2.5" ry="2.5" style="stroke:#181818;stroke-width:0.5;" width="201" x="406" y="556.1469"/><text fill="#000000" font-family="sans-serif" font-size="14" lengthAdjust="spacing" textLength="181" x="416" y="579.142">lexi.glyph.GlyphComposite</text></g><!--entity GlyphLeaf--><g id="elem_GlyphLeaf"><rect fill="#F1F1F1" height="36.2969" rx="2.5" ry="2.5" style="stroke:#181818;stroke-width:0.5;" width="154" x="429.5" y="733.1469"/><text fill="#000000" font-family="sans-serif" font-size="14" lengthAdjust="spacing" textLength="134" x="439.5" y="756.142">lexi.glyph.GlyphLeaf</text></g><!--entity GlyphCharacter--><g id="elem_GlyphCharacter"><rect fill="#F1F1F1" height="36.2969" rx="2.5" ry="2.5" style="stroke:#181818;stroke-width:0.5;" width="193" x="723.5" y="769.1469"/><text fill="#000000" font-family="sans-serif" font-size="14" lengthAdjust="spacing" textLength="173" x="733.5" y="792.142">lexi.glyph.GlyphCharacter</text></g><!--entity GlyphRectangle--><g id="elem_GlyphRectangle"><rect fill="#F1F1F1" height="36.2969" rx="2.5" ry="2.5" style="stroke:#181818;stroke-width:0.5;" width="196" x="722" y="698.1469"/><text fill="#000000" font-family="sans-serif" font-size="14" lengthAdjust="spacing" textLength="176" x="732" y="721.142">lexi.glyph.GlyphRectangle</text></g><!--entity GlyphPolygon--><g id="elem_GlyphPolygon"><rect fill="#F1F1F1" height="36.2969" rx="2.5" ry="2.5" style="stroke:#181818;stroke-width:0.5;" width="181" x="729.5" y="840.1469"/><text fill="#000000" font-family="sans-serif" font-size="14" lengthAdjust="spacing" textLength="161" x="739.5" y="863.142">lexi.glyph.GlyphPolygon</text></g><!--entity GlyphRow--><g id="elem_GlyphRow"><rect fill="#F1F1F1" height="36.2969" rx="2.5" ry="2.5" style="stroke:#181818;stroke-width:0.5;" width="156" x="742" y="556.1469"/><text fill="#000000" font-family="sans-serif" font-size="14" lengthAdjust="spacing" textLength="136" x="752" y="579.142">lexi.glyph.GlyphRow</text></g><!--entity GlyphColumn--><g id="elem_GlyphColumn"><rect fill="#F1F1F1" height="36.2969" rx="2.5" ry="2.5" style="stroke:#181818;stroke-width:0.5;" width="179" x="730.5" y="627.1469"/><text fill="#000000" font-family="sans-serif" font-size="14" lengthAdjust="spacing" textLength="159" x="740.5" y="650.142">lexi.glyph.GlyphColumn</text></g><!--entity GlyphStrategyCompositor--><g id="elem_GlyphStrategyCompositor"><rect fill="#F1F1F1" height="36.2969" rx="2.5" ry="2.5" style="stroke:#181818;stroke-width:0.5;" width="282" x="679" y="445.1469"/><text fill="#000000" font-family="sans-serif" font-size="14" lengthAdjust="spacing" textLength="262" x="689" y="468.142">lexi.strategy.GlyphStrategyCompositor</text></g><!--entity GlyphStrategyArrayCompositor--><g id="elem_GlyphStrategyArrayCompositor"><rect fill="#F1F1F1" height="36.2969" rx="2.5" ry="2.5" style="stroke:#181818;stroke-width:0.5;" width="316" x="1027" y="445.1469"/><text fill="#000000" font-family="sans-serif" font-size="14" lengthAdjust="spacing" textLength="296" x="1037" y="468.142">lexi.strategy.GlyphStrategyArrayCompositor</text></g><!--entity GlyphStrategyTeXCompositor--><g id="elem_GlyphStrategyTeXCompositor"><rect fill="#F1F1F1" height="36.2969" rx="2.5" ry="2.5" style="stroke:#181818;stroke-width:0.5;" width="309" x="1030.5" y="374.1469"/><text fill="#000000" font-family="sans-serif" font-size="14" lengthAdjust="spacing" textLength="289" x="1040.5" y="397.142">lexi.strategy.GlyphStrategyTeXCompositor</text></g><!--entity GlyphStrategySimpleCompositor--><g id="elem_GlyphStrategySimpleCompositor"><rect fill="#F1F1F1" height="36.2969" rx="2.5" ry="2.5" style="stroke:#181818;stroke-width:0.5;" width="328" x="1021" y="303.1469"/><text fill="#000000" font-family="sans-serif" font-size="14" lengthAdjust="spacing" textLength="308" x="1031" y="326.142">lexi.strategy.GlyphStrategySimpleCompositor</text></g><!--entity GlyphDecorator--><g id="elem_GlyphDecorator"><rect fill="#F1F1F1" height="36.2969" rx="2.5" ry="2.5" style="stroke:#181818;stroke-width:0.5;" width="225" x="394" y="192.1469"/><text fill="#000000" font-family="sans-serif" font-size="14" lengthAdjust="spacing" textLength="205" x="404" y="215.142">lexi.decorator.GlyphDecorator</text></g><!--entity GlyphDecoratorBorder--><g id="elem_GlyphDecoratorBorder"><rect fill="#F1F1F1" height="36.2969" rx="2.5" ry="2.5" style="stroke:#181818;stroke-width:0.5;" width="272" x="684" y="192.1469"/><text fill="#000000" font-family="sans-serif" font-size="14" lengthAdjust="spacing" textLength="252" x="694" y="215.142">lexi.decorator.GlyphDecoratorBorder</text></g><!--entity GlyphDecoratorScroller--><g id="elem_GlyphDecoratorScroller"><rect fill="#F1F1F1" height="36.2969" rx="2.5" ry="2.5" style="stroke:#181818;stroke-width:0.5;" width="276" x="682" y="121.1469"/><text fill="#000000" font-family="sans-serif" font-size="14" lengthAdjust="spacing" textLength="256" x="692" y="144.142">lexi.decorator.GlyphDecoratorScroller</text></g><g id="elem_general"><path d="M6,932.4669 L6,1018.1309 L334,1018.1309 L334,942.4669 L324,932.4669 L6,932.4669 " fill="#FEFFDD" style="stroke:#181818;stroke-width:0.5;"/><path d="M324,932.4669 L324,942.4669 L334,942.4669 L324,932.4669 " fill="#FEFFDD" style="stroke:#181818;stroke-width:1.0;"/><text fill="#000000" font-family="sans-serif" font-size="13" font-weight="bold" lengthAdjust="spacing" textLength="119" x="12" y="949.5338">Design Patterns</text><text fill="#000000" font-family="sans-serif" font-size="13" font-style="italic" lengthAdjust="spacing" textLength="305" x="12" y="964.6666">Elements of Reusable Object-Oriented Software</text><text fill="#000000" font-family="sans-serif" font-size="13" lengthAdjust="spacing" textLength="16" x="12" y="979.7994">&#160;&#160;&#160;&#160;</text><text fill="#000000" font-family="sans-serif" font-size="13" font-weight="bold" lengthAdjust="spacing" textLength="39" x="28" y="979.7994">Lexi :</text><text fill="#000000" font-family="sans-serif" font-size="13" lengthAdjust="spacing" textLength="216" x="103" y="979.7994">Graphical document editor design</text><text fill="#000000" font-family="sans-serif" font-size="13" lengthAdjust="spacing" textLength="16" x="12" y="994.9322">&#160;&#160;&#160;&#160;</text><text fill="#000000" font-family="sans-serif" font-size="13" font-weight="bold" lengthAdjust="spacing" textLength="50" x="28" y="994.9322">Scope:</text><text fill="#000000" font-family="sans-serif" font-size="13" lengthAdjust="spacing" textLength="209" x="103" y="994.9322">Document Structure, Formatting</text><text fill="#000000" font-family="sans-serif" font-size="13" lengthAdjust="spacing" textLength="16" x="12" y="1010.065">&#160;&#160;&#160;&#160;</text><text fill="#000000" font-family="sans-serif" font-size="13" font-weight="bold" lengthAdjust="spacing" textLength="68" x="28" y="1010.065">Patterns:</text><text fill="#000000" font-family="sans-serif" font-size="13" lengthAdjust="spacing" textLength="69" x="100" y="1010.065">Composite</text></g><!--reverse link Glyph to GlyphComposite--><g id="link_Glyph_GlyphComposite"><path codeLine="68" d="M251.0988,585.8256 C299.4688,588.6756 349.59,588.1669 405.59,586.4269 " fill="none" id="Glyph-backto-GlyphComposite" style="stroke:#181818;stroke-width:1.0;"/><polygon fill="none" points="233.13,584.7669,250.7459,591.8152,251.4517,579.836,233.13,584.7669" style="stroke:#181818;stroke-width:1.0;"/></g><!--link Glyph to GlyphComposite--><g id="link_Glyph_GlyphComposite"><path codeLine="39" d="M239.1196,563.464 C287.4896,560.614 337.5959,560.0421 393.5959,561.7921 " fill="none" id="Glyph-GlyphComposite" style="stroke:#181818;stroke-width:1.0;"/><polygon fill="#181818" points="233.13,563.8169,242.3497,567.2806,238.1213,563.5228,241.8791,559.2944,233.13,563.8169" style="stroke:#181818;stroke-width:1.0;"/><polygon fill="none" points="405.59,562.1669,399.7179,557.9814,393.5959,561.7921,399.468,565.9775,405.59,562.1669" style="stroke:#181818;stroke-width:1.0;"/><text fill="#000000" font-family="sans-serif" font-size="13" lengthAdjust="spacing" textLength="50" x="347.9174" y="573.9558">children</text></g><!--reverse link Glyph to GlyphLeaf--><g id="link_Glyph_GlyphLeaf"><path codeLine="69" d="M222.0802,601.3251 C286.3202,635.3151 406.04,698.6669 470.3,732.6669 " fill="none" id="Glyph-backto-GlyphLeaf" style="stroke:#181818;stroke-width:1.0;"/><polygon fill="none" points="206.17,592.9069,219.2741,606.6285,224.8862,596.0217,206.17,592.9069" style="stroke:#181818;stroke-width:1.0;"/></g><!--reverse link GlyphComposite to GlyphRow--><g id="link_GlyphComposite_GlyphRow"><path codeLine="71" d="M625.35,574.2969 C668.94,574.2969 701.28,574.2969 741.93,574.2969 " fill="none" id="GlyphComposite-backto-GlyphRow" style="stroke:#181818;stroke-width:1.0;"/><polygon fill="none" points="607.35,574.2969,625.35,580.2969,625.35,568.2969,607.35,574.2969" style="stroke:#181818;stroke-width:1.0;"/></g><!--reverse link GlyphComposite to GlyphColumn--><g id="link_GlyphComposite_GlyphColumn"><path codeLine="72" d="M599.5435,597.2178 C622.8635,602.9278 631.23,604.8569 655,610.2969 C679.41,615.8769 705.92,621.6569 730.38,626.8769 " fill="none" id="GlyphComposite-backto-GlyphColumn" style="stroke:#181818;stroke-width:1.0;"/><polygon fill="none" points="582.06,592.9369,598.1166,603.0456,600.9705,591.3899,582.06,592.9369" style="stroke:#181818;stroke-width:1.0;"/></g><!--reverse link GlyphLeaf to GlyphCharacter--><g id="link_GlyphLeaf_GlyphCharacter"><path codeLine="74" d="M601.5805,762.1672 C643.6405,767.0372 678.39,771.0469 723.21,776.2269 " fill="none" id="GlyphLeaf-backto-GlyphCharacter" style="stroke:#181818;stroke-width:1.0;"/><polygon fill="none" points="583.7,760.0969,600.8904,768.1274,602.2707,756.207,583.7,760.0969" style="stroke:#181818;stroke-width:1.0;"/></g><!--reverse link GlyphLeaf to GlyphRectangle--><g id="link_GlyphLeaf_GlyphRectangle"><path codeLine="75" d="M601.5872,740.725 C643.1972,736.045 677.27,732.2169 721.77,727.2169 " fill="none" id="GlyphLeaf-backto-GlyphRectangle" style="stroke:#181818;stroke-width:1.0;"/><polygon fill="none" points="583.7,742.7369,602.2578,746.6875,600.9166,734.7626,583.7,742.7369" style="stroke:#181818;stroke-width:1.0;"/></g><!--reverse link GlyphLeaf to GlyphPolygon--><g id="link_GlyphLeaf_GlyphPolygon"><path codeLine="76" d="M555.3718,778.5278 C584.6118,794.6978 613.65,809.0269 655,823.2969 C678.67,831.4569 704.94,838.0869 729.4,843.2969 " fill="none" id="GlyphLeaf-backto-GlyphPolygon" style="stroke:#181818;stroke-width:1.0;"/><polygon fill="none" points="539.62,769.8169,552.4682,783.7784,558.2755,773.2772,539.62,769.8169" style="stroke:#181818;stroke-width:1.0;"/></g><!--reverse link GlyphStrategyCompositor to GlyphStrategyArrayCompositor--><g id="link_GlyphStrategyCompositor_GlyphStrategyArrayCompositor"><path codeLine="35" d="M979.35,463.2969 C1000.69,463.2969 1004.84,463.2969 1026.53,463.2969 " fill="none" id="GlyphStrategyCompositor-backto-GlyphStrategyArrayCompositor" style="stroke:#181818;stroke-width:1.0;"/><polygon fill="none" points="961.35,463.2969,979.35,469.2969,979.35,457.2969,961.35,463.2969" style="stroke:#181818;stroke-width:1.0;"/></g><!--reverse link GlyphStrategyCompositor to GlyphStrategyTeXCompositor--><g id="link_GlyphStrategyCompositor_GlyphStrategyTeXCompositor"><path codeLine="36" d="M933.565,441.2802 C986.815,430.8602 1035.39,421.3569 1088.71,410.9369 " fill="none" id="GlyphStrategyCompositor-backto-GlyphStrategyTeXCompositor" style="stroke:#181818;stroke-width:1.0;"/><polygon fill="none" points="915.9,444.7369,934.7172,447.1685,932.4127,435.3919,915.9,444.7369" style="stroke:#181818;stroke-width:1.0;"/></g><!--reverse link GlyphStrategyCompositor to GlyphStrategySimpleCompositor--><g id="link_GlyphStrategyCompositor_GlyphStrategySimpleCompositor"><path codeLine="37" d="M864.8363,435.0568 C902.6163,411.2368 956.67,379.8769 1021,356.2969 C1038.66,349.8169 1057.87,344.3769 1076.69,339.8569 " fill="none" id="GlyphStrategyCompositor-backto-GlyphStrategySimpleCompositor" style="stroke:#181818;stroke-width:1.0;"/><polygon fill="none" points="849.61,444.6569,868.0363,440.1323,861.6363,429.9814,849.61,444.6569" style="stroke:#181818;stroke-width:1.0;"/></g><!--link GlyphComposite to GlyphStrategyCompositor--><g id="link_GlyphComposite_GlyphStrategyCompositor"><path codeLine="40" d="M604.4666,552.0432 C670.0266,531.2132 739.7095,505.2883 784.2795,484.3483 " fill="none" id="GlyphComposite-GlyphStrategyCompositor" style="stroke:#181818;stroke-width:1.0;"/><polygon fill="none" points="593.03,555.6769,599.9595,557.6722,604.4666,552.0432,597.5371,550.0478,593.03,555.6769" style="stroke:#181818;stroke-width:1.0;"/><polygon fill="#181818" points="789.71,481.7969,779.8633,482.0036,785.1846,483.923,783.2651,489.2443,789.71,481.7969" style="stroke:#181818;stroke-width:1.0;"/><text fill="#000000" font-family="sans-serif" font-size="13" lengthAdjust="spacing" textLength="64" x="545.0482" y="545.091">compsitor</text></g><!--reverse link GlyphComposite to GlyphStrategyCompositor--><g id="link_GlyphComposite_GlyphStrategyCompositor"><path codeLine="41" d="M542.5216,553.1078 C587.1616,532.1578 668.06,502.6969 733.48,481.9069 " fill="none" id="GlyphComposite-backto-GlyphStrategyCompositor" style="stroke:#181818;stroke-width:1.0;"/><polygon fill="#181818" points="537.09,555.6569,546.9368,555.4543,541.6163,553.5326,543.538,548.2122,537.09,555.6569" style="stroke:#181818;stroke-width:1.0;"/><text fill="#000000" font-family="sans-serif" font-size="13" lengthAdjust="spacing" textLength="78" x="618.6085" y="501.6635">composition</text></g><!--reverse link Glyph to GlyphDecorator--><g id="link_Glyph_GlyphDecorator"><path codeLine="33" d="M207.5179,543.3748 C273.2479,480.4048 444.25,292.0269 493.34,228.8569 " fill="none" id="Glyph-backto-GlyphDecorator" style="stroke:#181818;stroke-width:1.0;"/><polygon fill="none" points="194.52,555.8269,211.6686,547.7074,203.3672,539.0421,194.52,555.8269" style="stroke:#181818;stroke-width:1.0;"/></g><!--link Glyph to GlyphDecorator--><g id="link_Glyph_GlyphDecorator"><path codeLine="38" d="M186.7807,551.0685 C235.7407,488.0385 407.2965,300.3401 473.1765,237.2001 " fill="none" id="Glyph-GlyphDecorator" style="stroke:#181818;stroke-width:1.0;"/><polygon fill="#181818" points="183.1,555.8069,191.78,551.153,186.1672,551.8582,185.4621,546.2455,183.1,555.8069" style="stroke:#181818;stroke-width:1.0;"/><polygon fill="none" points="481.84,228.8969,474.7405,230.1606,473.1765,237.2001,480.276,235.9363,481.84,228.8969" style="stroke:#181818;stroke-width:1.0;"/><text fill="#000000" font-family="sans-serif" font-size="13" lengthAdjust="spacing" textLength="73" x="390.8742" y="248.6506">component</text></g><!--reverse link GlyphDecorator to GlyphDecoratorBorder--><g id="link_GlyphDecorator_GlyphDecoratorBorder"><path codeLine="35" d="M637.08,210.2969 C658.03,210.2969 662.14,210.2969 683.72,210.2969 " fill="none" id="GlyphDecorator-backto-GlyphDecoratorBorder" style="stroke:#181818;stroke-width:1.0;"/><polygon fill="none" points="619.08,210.2969,637.08,216.2969,637.08,204.2969,619.08,210.2969" style="stroke:#181818;stroke-width:1.0;"/></g><!--reverse link GlyphDecorator to GlyphDecoratorScroller--><g id="link_GlyphDecorator_GlyphDecoratorScroller"><path codeLine="36" d="M599.5435,187.366 C622.8635,181.656 631.23,179.7269 655,174.2969 C679.12,168.7769 705.31,163.0669 729.52,157.8969 " fill="none" id="GlyphDecorator-backto-GlyphDecoratorScroller" style="stroke:#181818;stroke-width:1.0;"/><polygon fill="none" points="582.06,191.6469,600.9705,193.1938,598.1166,181.5381,582.06,191.6469" style="stroke:#181818;stroke-width:1.0;"/></g><!--SRC=[dLF1JkCm4BtxAuOJ5oZtgge45D1A5KKDAt53ZZD9PZNnH6D7fN-_3Y7GNKHKy26IC-yzl_USH8gCiCONciDjnmmh35HvOoopx1fw8LyPnZ92552gwWW5ARf8aa1U8e8DKA57jMmWhKM-73JWmSQ8wiFY8byE8rhUC3ReOm0fOOjTi7awVfF_IOhd6wKqmW8oAUFEAYukQ22-wVOsOTxBZI_XJcrRaxCCXRYkbmOiA8f2CGGve6TEMfp3EtyrChAedOkTuXdSYZR9Tf_wW3ac6Sw-bgQLG14D-WBw3epfAx6-Ic4ucPnLl6_hsLt_d1Xz27sDMQCjfoHggzObSnEOxJYPm3m8xwjqfHCgifkCmbsJleWJyewxr7sNlsAU7TiGC3o7iUDPspLyihrPNpx-sjndnfoU7xFCwU7T_EyagTk8rNumaxtjndv5ZyDVgjflanxnwRkKZ9gMyO0rqLlv6lg7fRrNzpkW0gMVIqlh4AZ9aPb2tN_-dyeiq4aoAZguNetROt5NeWKUZSwS2dF2Vzt1FtO_LV4N]--></g></svg>