<?xml version="1.0" encoding="us-ascii" standalone="no"?><svg xmlns="http://www.w3.org/2000/svg" xmlns:xlink="http://www.w3.org/1999/xlink" contentStyleType="text/css" height="902px" preserveAspectRatio="none" style="width:581px;height:902px;background:#FFFFFF;" version="1.1" viewBox="0 0 581 902" width="581px" zoomAndPan="magnify"><defs/><g><text fill="#000000" font-family="sans-serif" font-size="14" font-weight="bold" lengthAdjust="spacing" textLength="113" x="227.3002" y="22.9951">Lexi Usecases</text><!--entity USR--><g id="elem_USR"><ellipse cx="82.5" cy="426.7269" fill="#F1F1F1" rx="8" ry="8" style="stroke:#181818;stroke-width:0.5;"/><path d="M82.5,434.7269 L82.5,461.7269 M69.5,442.7269 L95.5,442.7269 M82.5,461.7269 L69.5,476.7269 M82.5,461.7269 L95.5,476.7269 " fill="none" style="stroke:#181818;stroke-width:0.5;"/><text fill="#000000" font-family="sans-serif" font-size="14" lengthAdjust="spacing" textLength="32" x="66.5" y="491.222">User</text></g><g id="elem_DOCCRUD"><ellipse cx="397.3002" cy="595.3769" fill="#F1F1F1" rx="178.3002" ry="38.06" style="stroke:#181818;stroke-width:0.5;"/><text fill="#000000" font-family="sans-serif" font-size="14" font-style="italic" lengthAdjust="spacing" textLength="58" x="368.3002" y="581.9267">&#171;menu&#187;</text><text fill="#000000" font-family="sans-serif" font-size="14" lengthAdjust="spacing" textLength="329" x="232.8002" y="598.2236">Create, Open, Close, Save, or Delete Document</text></g><g id="elem_DOCPRN"><ellipse cx="397.2972" cy="692.3772" fill="#F1F1F1" rx="81.2372" ry="24.2504" style="stroke:#181818;stroke-width:0.5;"/><text fill="#000000" font-family="sans-serif" font-size="14" font-style="italic" lengthAdjust="spacing" textLength="58" x="362.19" y="686.1833">&#171;menu&#187;</text><text fill="#000000" font-family="sans-serif" font-size="14" lengthAdjust="spacing" textLength="108" x="337.19" y="702.4802">Print Document</text></g><g id="elem_CURMOV"><ellipse cx="397.3013" cy="69.3763" fill="#F1F1F1" rx="73.1013" ry="26.0794" style="stroke:#181818;stroke-width:0.5;"/><text fill="#000000" font-family="sans-serif" font-size="14" font-style="italic" lengthAdjust="spacing" textLength="88" x="350.5513" y="64.9754">&#171;WYSIWYG&#187;</text><text fill="#000000" font-family="sans-serif" font-size="14" lengthAdjust="spacing" textLength="87" x="351.0513" y="81.2723">Move Cursor</text></g><g id="elem_TXTSEL"><ellipse cx="397.3036" cy="157.3768" fill="#F1F1F1" rx="67.5236" ry="26.63" style="stroke:#181818;stroke-width:0.5;"/><text fill="#000000" font-family="sans-serif" font-size="14" font-style="italic" lengthAdjust="spacing" textLength="88" x="353.0536" y="152.976">&#171;WYSIWYG&#187;</text><text fill="#000000" font-family="sans-serif" font-size="14" lengthAdjust="spacing" textLength="77" x="358.5536" y="169.2728">Select Text</text></g><g id="elem_TXTCUTPASTE"><ellipse cx="397.2971" cy="245.3751" fill="#F1F1F1" rx="116.9271" ry="26.2082" style="stroke:#181818;stroke-width:0.5;"/><text fill="#000000" font-family="sans-serif" font-size="14" font-style="italic" lengthAdjust="spacing" textLength="146" x="320.7971" y="240.9742">&#171;WYSIWYG&#187;&#171;menu&#187;</text><text fill="#000000" font-family="sans-serif" font-size="14" lengthAdjust="spacing" textLength="148" x="319.7971" y="257.2711">Copy, Cut, Paste Text</text></g><g id="elem_TXTFONT"><ellipse cx="397.3023" cy="330.3793" fill="#F1F1F1" rx="107.9623" ry="23.9925" style="stroke:#181818;stroke-width:0.5;"/><text fill="#000000" font-family="sans-serif" font-size="14" font-style="italic" lengthAdjust="spacing" textLength="58" x="361.3766" y="323.4517">&#171;menu&#187;</text><text fill="#000000" font-family="sans-serif" font-size="14" lengthAdjust="spacing" textLength="152" x="314.3766" y="339.7486">Update Font and Style</text></g><g id="elem_TXTFMT"><ellipse cx="397.2996" cy="780.3748" fill="#F1F1F1" rx="132.6896" ry="28.9379" style="stroke:#181818;stroke-width:0.5;"/><text fill="#000000" font-family="sans-serif" font-size="14" font-style="italic" lengthAdjust="spacing" textLength="58" x="366.5638" y="767.9727">&#171;menu&#187;</text><text fill="#000000" font-family="sans-serif" font-size="14" lengthAdjust="spacing" textLength="234" x="278.5638" y="784.2696">Update Alignment and justification</text></g><g id="elem_TXTTYP"><ellipse cx="397.3014" cy="414.3736" fill="#F1F1F1" rx="91.9214" ry="24.9567" style="stroke:#181818;stroke-width:0.5;"/><text fill="#000000" font-family="sans-serif" font-size="14" font-style="italic" lengthAdjust="spacing" textLength="88" x="346.6795" y="409.119">&#171;WYSIWYG&#187;</text><text fill="#000000" font-family="sans-serif" font-size="14" lengthAdjust="spacing" textLength="120" x="330.6795" y="425.4159">Type, delete Text</text></g><g id="elem_TXTHST"><ellipse cx="397.2995" cy="870.3768" fill="#F1F1F1" rx="105.1295" ry="25.7999" style="stroke:#181818;stroke-width:0.5;"/><text fill="#000000" font-family="sans-serif" font-size="14" font-style="italic" lengthAdjust="spacing" textLength="146" x="324.2995" y="867.2285">&#171;WYSIWYG&#187;&#171;menu&#187;</text><text fill="#000000" font-family="sans-serif" font-size="14" lengthAdjust="spacing" textLength="108" x="343.2995" y="883.5254">Undo and Redo</text></g><g id="elem_APPEXT"><ellipse cx="397.2985" cy="498.3799" fill="#F1F1F1" rx="78.1985" ry="24.3131" style="stroke:#181818;stroke-width:0.5;"/><text fill="#000000" font-family="sans-serif" font-size="14" font-style="italic" lengthAdjust="spacing" textLength="58" x="362.2875" y="492.3146">&#171;menu&#187;</text><text fill="#000000" font-family="sans-serif" font-size="14" lengthAdjust="spacing" textLength="103" x="339.7875" y="508.6115">Exit Application</text></g><g id="elem_nTXTFMT"><path d="M29.5,767.8069 L29.5,792.9397 A0,0 0 0 0 29.5,792.9397 L135.5,792.9397 A0,0 0 0 0 135.5,792.9397 L135.5,785.8069 L264.12,780.3769 L135.5,777.8069 L135.5,777.8069 L125.5,767.8069 L29.5,767.8069 A0,0 0 0 0 29.5,767.8069 " fill="#FEFFDD" style="stroke:#181818;stroke-width:0.5;"/><path d="M125.5,767.8069 L125.5,777.8069 L135.5,777.8069 L125.5,767.8069 " fill="#FEFFDD" style="stroke:#181818;stroke-width:0.5;"/><text fill="#000000" font-family="sans-serif" font-size="13" lengthAdjust="spacing" textLength="85" x="35.5" y="784.8738">Selected text</text></g><g id="elem_nTXTHST"><path d="M6,850.2469 L6,890.5125 A0,0 0 0 0 6,890.5125 L159,890.5125 A0,0 0 0 0 159,890.5125 L159,874.3769 L291.73,870.3769 L159,866.3769 L159,860.2469 L149,850.2469 L6,850.2469 A0,0 0 0 0 6,850.2469 " fill="#FEFFDD" style="stroke:#181818;stroke-width:0.5;"/><path d="M149,850.2469 L149,860.2469 L159,860.2469 L149,850.2469 " fill="#FEFFDD" style="stroke:#181818;stroke-width:0.5;"/><text fill="#000000" font-family="sans-serif" font-size="13" lengthAdjust="spacing" textLength="92" x="12" y="867.3138">Operations list</text><text fill="#000000" font-family="sans-serif" font-size="13" lengthAdjust="spacing" textLength="132" x="12" y="882.4466">should be developed</text></g><!--link USR to APPEXT--><g id="link_USR_APPEXT"><path d="M98.59,458.4069 C138.74,463.7969 244.2734,477.9685 318.8334,487.9785 " fill="none" id="USR-to-APPEXT" style="stroke:#181818;stroke-width:1.0;"/><polygon fill="#181818" points="324.78,488.7769,316.3923,483.6149,319.8245,488.1116,315.3278,491.5438,324.78,488.7769" style="stroke:#181818;stroke-width:1.0;"/></g><!--link USR to DOCCRUD--><g id="link_USR_DOCCRUD"><path d="M98.63,467.5569 C122.94,485.0969 172.66,519.2469 219,540.3769 C239.82,549.8669 257.027,556.4626 279.267,563.7326 " fill="none" id="USR-to-DOCCRUD" style="stroke:#181818;stroke-width:1.0;"/><polygon fill="#181818" points="284.97,565.5969,277.6583,558.9985,280.2175,564.0433,275.1726,566.6025,284.97,565.5969" style="stroke:#181818;stroke-width:1.0;"/></g><!--link USR to DOCPRN--><g id="link_USR_DOCPRN"><path d="M98.91,493.1269 C119.55,537.6869 160.46,611.7269 219,651.3769 C248.03,671.0469 279.299,680.3963 312.119,685.7763 " fill="none" id="USR-to-DOCPRN" style="stroke:#181818;stroke-width:1.0;"/><polygon fill="#181818" points="318.04,686.7469,309.8056,681.3437,313.1059,685.938,308.5115,689.2383,318.04,686.7469" style="stroke:#181818;stroke-width:1.0;"/></g><!--link USR to CURMOV--><g id="link_USR_CURMOV"><path d="M87.33,417.9669 C96.53,346.7969 126.49,194.3369 219,113.3769 C247.88,88.1069 283.1244,77.7028 318.5344,72.9028 " fill="none" id="USR-to-CURMOV" style="stroke:#181818;stroke-width:1.0;"/><polygon fill="#181818" points="324.48,72.0969,315.0243,69.3421,319.5253,72.7685,316.0989,77.2696,324.48,72.0969" style="stroke:#181818;stroke-width:1.0;"/></g><!--link USR to TXTTYP--><g id="link_USR_TXTTYP"><path d="M98.59,454.3469 C136.91,449.2069 234.2534,436.1355 308.4134,426.1755 " fill="none" id="USR-to-TXTTYP" style="stroke:#181818;stroke-width:1.0;"/><polygon fill="#181818" points="314.36,425.3769,304.9077,422.6105,309.4045,426.0424,305.9725,430.5393,314.36,425.3769" style="stroke:#181818;stroke-width:1.0;"/></g><!--link USR to TXTSEL--><g id="link_USR_TXTSEL"><path d="M93.16,417.9169 C109.35,361.5669 147.47,257.2169 219,201.3769 C250.5,176.7869 287.9944,166.5528 323.9944,161.6728 " fill="none" id="USR-to-TXTSEL" style="stroke:#181818;stroke-width:1.0;"/><polygon fill="#181818" points="329.94,160.8669,320.4843,158.1121,324.9853,161.5385,321.5589,166.0396,329.94,160.8669" style="stroke:#181818;stroke-width:1.0;"/></g><!--link USR to TXTCUTPASTE--><g id="link_USR_TXTCUTPASTE"><path d="M98.86,427.6469 C120.54,389.9669 163.7,324.5269 219,289.3769 C241.88,274.8269 263.4362,266.5401 289.7462,260.0201 " fill="none" id="USR-to-TXTCUTPASTE" style="stroke:#181818;stroke-width:1.0;"/><polygon fill="#181818" points="295.57,258.5769,285.8721,256.8592,290.7168,259.7796,287.7964,264.6243,295.57,258.5769" style="stroke:#181818;stroke-width:1.0;"/></g><!--link USR to TXTFONT--><g id="link_USR_TXTFONT"><path d="M98.86,444.5269 C123.08,426.3869 172.23,391.8069 219,372.3769 C247.77,360.4269 274.7903,352.7369 304.3603,346.2269 " fill="none" id="USR-to-TXTFONT" style="stroke:#181818;stroke-width:1.0;"/><polygon fill="#181818" points="310.22,344.9369,300.5705,342.9655,305.3369,346.0119,302.2905,350.7784,310.22,344.9369" style="stroke:#181818;stroke-width:1.0;"/></g><!--link USR to TXTFMT--><g id="link_USR_TXTFMT"><path d="M91.36,494.6469 C105.79,554.9469 142.32,671.6569 219,734.3769 C236.97,749.0769 253.3722,757.3726 275.8422,764.2426 " fill="none" id="USR-to-TXTFMT" style="stroke:#181818;stroke-width:1.0;"/><polygon fill="#181818" points="281.58,765.9969,274.1428,759.5402,276.7985,764.535,271.8038,767.1907,281.58,765.9969" style="stroke:#181818;stroke-width:1.0;"/></g><!--link USR to TXTHST--><g id="link_USR_TXTHST"><path d="M86.06,494.7869 C93.21,570.0969 119.98,737.4969 219,826.3769 C240.24,845.4469 262.6129,855.2008 290.2829,861.5708 " fill="none" id="USR-to-TXTHST" style="stroke:#181818;stroke-width:1.0;"/><polygon fill="#181818" points="296.13,862.9169,288.2568,856.9997,291.2575,861.7951,286.462,864.7958,296.13,862.9169" style="stroke:#181818;stroke-width:1.0;"/></g><!--SRC=[RL9TR-8m47pthzYtjXBq1o2452NqxgIcHFbeosCktbAVZ1tP3WMfFxvhXognUZo0nfuPxyxWX9C8ZtWMq5ZiMekMiPjMIlrn56UX3apYcmEdmOZ3kmCk37PEQCNOYWHc1Qs5fYhPpIhXHw42JhASJEWKrf_B4MMxD2sRpD_2RMgmTRY0NOzg0QdKba3LdkXR6yXGeaF8T3SSKRaxMA_fTzXil4bHFdcFsy88vVx7OMbJvhldGChr2I4TZDN6CrxsrP-N_IzFgb_hQliOI1KzrpceyUnY4d7IfYwIgju6Oghx2qqxk0KKhQK9HybSCur1ueVTKns4JSzfNNZGD76hE5Jk8l4kvkOHDP7YeFnYWVzli4wyYQxrkSUwUby4NNtfAJm-9lTpBa_zNLsVK5m7snAvZZQUCaoAOliwqhTduI3fU_dpVUORNYutCD8dV2rxZgctwNwiQCBZ8dD8vSpXTm_pCnzlXFC8qhgCAKrnq1RgUW_q6Vj63evYOaX1U1QxKk3-_jiiKdixhwQ_h0avM932EWY7zbqFaiDVf0PEA7MFF3RssO_6OQml]--></g></svg>