<?xml version="1.0" encoding="us-ascii" standalone="no"?><svg xmlns="http://www.w3.org/2000/svg" xmlns:xlink="http://www.w3.org/1999/xlink" contentStyleType="text/css" height="1025px" preserveAspectRatio="none" style="width:1133px;height:1025px;background:#FFFFFF;" version="1.1" viewBox="0 0 1133 1025" width="1133px" zoomAndPan="magnify"><defs/><g><text fill="#000000" font-family="sans-serif" font-size="14" font-weight="bold" lengthAdjust="spacing" textLength="129" x="495" y="22.9951">Lexi: Full Design</text><!--cluster lexi--><g id="cluster_lexi"><path d="M103,43.2969 L131,43.2969 A3.75,3.75 0 0 1 133.5,45.7969 L140.5,65.5938 L1123.5,65.5938 A2.5,2.5 0 0 1 1126,68.0938 L1126,913.7969 A2.5,2.5 0 0 1 1123.5,916.2969 L103,916.2969 A2.5,2.5 0 0 1 100.5,913.7969 L100.5,45.7969 A2.5,2.5 0 0 1 103,43.2969 " fill="none" style="stroke:#000000;stroke-width:1.5;"/><line style="stroke:#000000;stroke-width:1.5;" x1="100.5" x2="140.5" y1="65.5938" y2="65.5938"/><text fill="#000000" font-family="sans-serif" font-size="14" font-weight="bold" lengthAdjust="spacing" textLength="27" x="104.5" y="58.292">lexi</text></g><!--cluster glyph--><g id="cluster_glyph"><path d="M127,521.2969 L171,521.2969 A3.75,3.75 0 0 1 173.5,523.7969 L180.5,543.5938 L764,543.5938 A2.5,2.5 0 0 1 766.5,546.0938 L766.5,889.7969 A2.5,2.5 0 0 1 764,892.2969 L127,892.2969 A2.5,2.5 0 0 1 124.5,889.7969 L124.5,523.7969 A2.5,2.5 0 0 1 127,521.2969 " fill="none" style="stroke:#000000;stroke-width:1.5;"/><line style="stroke:#000000;stroke-width:1.5;" x1="124.5" x2="180.5" y1="543.5938" y2="543.5938"/><text fill="#000000" font-family="sans-serif" font-size="14" font-weight="bold" lengthAdjust="spacing" textLength="43" x="128.5" y="536.292">glyph</text></g><!--cluster strategy--><g id="cluster_strategy"><path d="M574.5,268.2969 L641.5,268.2969 A3.75,3.75 0 0 1 644,270.7969 L651,290.5938 L1099.5,290.5938 A2.5,2.5 0 0 1 1102,293.0938 L1102,494.7969 A2.5,2.5 0 0 1 1099.5,497.2969 L574.5,497.2969 A2.5,2.5 0 0 1 572,494.7969 L572,270.7969 A2.5,2.5 0 0 1 574.5,268.2969 " fill="none" style="stroke:#000000;stroke-width:1.5;"/><line style="stroke:#000000;stroke-width:1.5;" x1="572" x2="651" y1="290.5938" y2="290.5938"/><text fill="#000000" font-family="sans-serif" font-size="14" font-weight="bold" lengthAdjust="spacing" textLength="66" x="576" y="283.292">strategy</text></g><!--cluster decorator--><g id="cluster_decorator"><path d="M383.5,86.2969 L462.5,86.2969 A3.75,3.75 0 0 1 465,88.7969 L472,108.5938 L789,108.5938 A2.5,2.5 0 0 1 791.5,111.0938 L791.5,241.7969 A2.5,2.5 0 0 1 789,244.2969 L383.5,244.2969 A2.5,2.5 0 0 1 381,241.7969 L381,88.7969 A2.5,2.5 0 0 1 383.5,86.2969 " fill="none" style="stroke:#000000;stroke-width:1.5;"/><line style="stroke:#000000;stroke-width:1.5;" x1="381" x2="472" y1="108.5938" y2="108.5938"/><text fill="#000000" font-family="sans-serif" font-size="14" font-weight="bold" lengthAdjust="spacing" textLength="78" x="385" y="101.292">decorator</text></g><!--entity Glyph--><g id="elem_Glyph"><rect fill="#F1F1F1" height="36.2969" rx="2.5" ry="2.5" style="stroke:#181818;stroke-width:0.5;" width="59" x="140.5" y="556.1469"/><text fill="#000000" font-family="sans-serif" font-size="14" lengthAdjust="spacing" textLength="39" x="150.5" y="579.142">Glyph</text></g><!--entity GlyphComposite--><g id="elem_GlyphComposite"><rect fill="#F1F1F1" height="36.2969" rx="2.5" ry="2.5" style="stroke:#181818;stroke-width:0.5;" width="134" x="394" y="556.1469"/><text fill="#000000" font-family="sans-serif" font-size="14" lengthAdjust="spacing" textLength="114" x="404" y="579.142">GlyphComposite</text></g><!--entity GlyphLeaf--><g id="elem_GlyphLeaf"><rect fill="#F1F1F1" height="36.2969" rx="2.5" ry="2.5" style="stroke:#181818;stroke-width:0.5;" width="87" x="417.5" y="733.1469"/><text fill="#000000" font-family="sans-serif" font-size="14" lengthAdjust="spacing" textLength="67" x="427.5" y="756.142">GlyphLeaf</text></g><!--entity GlyphCharacter--><g id="elem_GlyphCharacter"><rect fill="#F1F1F1" height="36.2969" rx="2.5" ry="2.5" style="stroke:#181818;stroke-width:0.5;" width="126" x="623" y="769.1469"/><text fill="#000000" font-family="sans-serif" font-size="14" lengthAdjust="spacing" textLength="106" x="633" y="792.142">GlyphCharacter</text></g><!--entity GlyphRectangle--><g id="elem_GlyphRectangle"><rect fill="#F1F1F1" height="36.2969" rx="2.5" ry="2.5" style="stroke:#181818;stroke-width:0.5;" width="129" x="621.5" y="698.1469"/><text fill="#000000" font-family="sans-serif" font-size="14" lengthAdjust="spacing" textLength="109" x="631.5" y="721.142">GlyphRectangle</text></g><!--entity GlyphPolygon--><g id="elem_GlyphPolygon"><rect fill="#F1F1F1" height="36.2969" rx="2.5" ry="2.5" style="stroke:#181818;stroke-width:0.5;" width="114" x="629" y="840.1469"/><text fill="#000000" font-family="sans-serif" font-size="14" lengthAdjust="spacing" textLength="94" x="639" y="863.142">GlyphPolygon</text></g><!--entity GlyphRow--><g id="elem_GlyphRow"><rect fill="#F1F1F1" height="36.2969" rx="2.5" ry="2.5" style="stroke:#181818;stroke-width:0.5;" width="89" x="641.5" y="556.1469"/><text fill="#000000" font-family="sans-serif" font-size="14" lengthAdjust="spacing" textLength="69" x="651.5" y="579.142">GlyphRow</text></g><!--entity GlyphColumn--><g id="elem_GlyphColumn"><rect fill="#F1F1F1" height="36.2969" rx="2.5" ry="2.5" style="stroke:#181818;stroke-width:0.5;" width="112" x="630" y="627.1469"/><text fill="#000000" font-family="sans-serif" font-size="14" lengthAdjust="spacing" textLength="92" x="640" y="650.142">GlyphColumn</text></g><!--entity GlyphStrategyCompositor--><g id="elem_GlyphStrategyCompositor"><rect fill="#F1F1F1" height="36.2969" rx="2.5" ry="2.5" style="stroke:#181818;stroke-width:0.5;" width="196" x="588" y="445.1469"/><text fill="#000000" font-family="sans-serif" font-size="14" lengthAdjust="spacing" textLength="176" x="598" y="468.142">GlyphStrategyCompositor</text></g><!--entity GlyphStrategyArrayCompositor--><g id="elem_GlyphStrategyArrayCompositor"><rect fill="#F1F1F1" height="36.2969" rx="2.5" ry="2.5" style="stroke:#181818;stroke-width:0.5;" width="230" x="850" y="445.1469"/><text fill="#000000" font-family="sans-serif" font-size="14" lengthAdjust="spacing" textLength="210" x="860" y="468.142">GlyphStrategyArrayCompositor</text></g><!--entity GlyphStrategyTeXCompositor--><g id="elem_GlyphStrategyTeXCompositor"><rect fill="#F1F1F1" height="36.2969" rx="2.5" ry="2.5" style="stroke:#181818;stroke-width:0.5;" width="223" x="853.5" y="374.1469"/><text fill="#000000" font-family="sans-serif" font-size="14" lengthAdjust="spacing" textLength="203" x="863.5" y="397.142">GlyphStrategyTeXCompositor</text></g><!--entity GlyphStrategySimpleCompositor--><g id="elem_GlyphStrategySimpleCompositor"><rect fill="#F1F1F1" height="36.2969" rx="2.5" ry="2.5" style="stroke:#181818;stroke-width:0.5;" width="242" x="844" y="303.1469"/><text fill="#000000" font-family="sans-serif" font-size="14" lengthAdjust="spacing" textLength="222" x="854" y="326.142">GlyphStrategySimpleCompositor</text></g><!--entity GlyphDecorator--><g id="elem_GlyphDecorator"><rect fill="#F1F1F1" height="36.2969" rx="2.5" ry="2.5" style="stroke:#181818;stroke-width:0.5;" width="128" x="397" y="192.1469"/><text fill="#000000" font-family="sans-serif" font-size="14" lengthAdjust="spacing" textLength="108" x="407" y="215.142">GlyphDecorator</text></g><!--entity GlyphDecoratorBorder--><g id="elem_GlyphDecoratorBorder"><rect fill="#F1F1F1" height="36.2969" rx="2.5" ry="2.5" style="stroke:#181818;stroke-width:0.5;" width="175" x="598.5" y="192.1469"/><text fill="#000000" font-family="sans-serif" font-size="14" lengthAdjust="spacing" textLength="155" x="608.5" y="215.142">GlyphDecoratorBorder</text></g><!--entity GlyphDecoratorScroller--><g id="elem_GlyphDecoratorScroller"><rect fill="#F1F1F1" height="36.2969" rx="2.5" ry="2.5" style="stroke:#181818;stroke-width:0.5;" width="179" x="596.5" y="121.1469"/><text fill="#000000" font-family="sans-serif" font-size="14" lengthAdjust="spacing" textLength="159" x="606.5" y="144.142">GlyphDecoratorScroller</text></g><g id="elem_general"><path d="M6,932.4669 L6,1018.1309 L334,1018.1309 L334,942.4669 L324,932.4669 L6,932.4669 " fill="#FEFFDD" style="stroke:#181818;stroke-width:0.5;"/><path d="M324,932.4669 L324,942.4669 L334,942.4669 L324,932.4669 " fill="#FEFFDD" style="stroke:#181818;stroke-width:1.0;"/><text fill="#000000" font-family="sans-serif" font-size="13" font-weight="bold" lengthAdjust="spacing" textLength="119" x="12" y="949.5338">Design Patterns</text><text fill="#000000" font-family="sans-serif" font-size="13" font-style="italic" lengthAdjust="spacing" textLength="305" x="12" y="964.6666">Elements of Reusable Object-Oriented Software</text><text fill="#000000" font-family="sans-serif" font-size="13" lengthAdjust="spacing" textLength="16" x="12" y="979.7994">&#160;&#160;&#160;&#160;</text><text fill="#000000" font-family="sans-serif" font-size="13" font-weight="bold" lengthAdjust="spacing" textLength="39" x="28" y="979.7994">Lexi :</text><text fill="#000000" font-family="sans-serif" font-size="13" lengthAdjust="spacing" textLength="216" x="103" y="979.7994">Graphical document editor design</text><text fill="#000000" font-family="sans-serif" font-size="13" lengthAdjust="spacing" textLength="16" x="12" y="994.9322">&#160;&#160;&#160;&#160;</text><text fill="#000000" font-family="sans-serif" font-size="13" font-weight="bold" lengthAdjust="spacing" textLength="50" x="28" y="994.9322">Scope:</text><text fill="#000000" font-family="sans-serif" font-size="13" lengthAdjust="spacing" textLength="209" x="103" y="994.9322">Document Structure, Formatting</text><text fill="#000000" font-family="sans-serif" font-size="13" lengthAdjust="spacing" textLength="16" x="12" y="1010.065">&#160;&#160;&#160;&#160;</text><text fill="#000000" font-family="sans-serif" font-size="13" font-weight="bold" lengthAdjust="spacing" textLength="68" x="28" y="1010.065">Patterns:</text><text fill="#000000" font-family="sans-serif" font-size="13" lengthAdjust="spacing" textLength="69" x="100" y="1010.065">Composite</text></g><!--reverse link Glyph to GlyphComposite--><g id="link_Glyph_GlyphComposite"><path codeLine="68" d="M217.6473,584.6452 C262.5473,589.9152 332.6,588.8169 393.75,585.5369 " fill="none" id="Glyph-backto-GlyphComposite" style="stroke:#181818;stroke-width:1.0;"/><polygon fill="none" points="199.77,582.5469,216.9479,590.6043,218.3467,578.6861,199.77,582.5469" style="stroke:#181818;stroke-width:1.0;"/></g><!--link Glyph to GlyphComposite--><g id="link_Glyph_GlyphComposite"><path codeLine="39" d="M205.7291,565.3474 C250.6291,560.0774 320.6172,559.1341 381.7672,562.4141 " fill="none" id="Glyph-GlyphComposite" style="stroke:#181818;stroke-width:1.0;"/><polygon fill="#181818" points="199.77,566.0469,209.1749,568.9705,204.7359,565.464,208.2424,561.025,199.77,566.0469" style="stroke:#181818;stroke-width:1.0;"/><polygon fill="none" points="393.75,563.0569,387.9729,558.7412,381.7672,562.4141,387.5444,566.7298,393.75,563.0569" style="stroke:#181818;stroke-width:1.0;"/><text fill="#000000" font-family="sans-serif" font-size="13" lengthAdjust="spacing" textLength="50" x="336.1105" y="574.8197">children</text></g><!--reverse link Glyph to GlyphLeaf--><g id="link_Glyph_GlyphLeaf"><path codeLine="69" d="M215.1205,601.317 C269.9405,634.887 373.56,698.3569 429.62,732.6869 " fill="none" id="Glyph-backto-GlyphLeaf" style="stroke:#181818;stroke-width:1.0;"/><polygon fill="none" points="199.77,591.9169,211.9871,606.4338,218.2539,596.2002,199.77,591.9169" style="stroke:#181818;stroke-width:1.0;"/></g><!--reverse link GlyphComposite to GlyphRow--><g id="link_GlyphComposite_GlyphRow"><path codeLine="71" d="M546.3,574.2969 C582.77,574.2969 608.99,574.2969 641.15,574.2969 " fill="none" id="GlyphComposite-backto-GlyphRow" style="stroke:#181818;stroke-width:1.0;"/><polygon fill="none" points="528.3,574.2969,546.3,580.2969,546.3,568.2969,528.3,574.2969" style="stroke:#181818;stroke-width:1.0;"/></g><!--reverse link GlyphComposite to GlyphColumn--><g id="link_GlyphComposite_GlyphColumn"><path codeLine="72" d="M529.8736,598.9366 C546.1336,604.7066 547.28,604.9269 564,610.2969 C585.34,617.1469 608.99,624.1169 629.68,630.0169 " fill="none" id="GlyphComposite-backto-GlyphColumn" style="stroke:#181818;stroke-width:1.0;"/><polygon fill="none" points="512.91,592.9169,527.867,604.5911,531.8802,593.282,512.91,592.9169" style="stroke:#181818;stroke-width:1.0;"/></g><!--reverse link GlyphLeaf to GlyphCharacter--><g id="link_GlyphLeaf_GlyphCharacter"><path codeLine="74" d="M522.7702,761.1037 C556.1802,766.4937 585.22,771.1869 622.73,777.2469 " fill="none" id="GlyphLeaf-backto-GlyphCharacter" style="stroke:#181818;stroke-width:1.0;"/><polygon fill="none" points="505,758.2369,521.8146,767.0271,523.7258,755.1803,505,758.2369" style="stroke:#181818;stroke-width:1.0;"/></g><!--reverse link GlyphLeaf to GlyphRectangle--><g id="link_GlyphLeaf_GlyphRectangle"><path codeLine="75" d="M522.7818,741.7526 C555.6818,736.5826 583.81,732.1769 621.02,726.3369 " fill="none" id="GlyphLeaf-backto-GlyphRectangle" style="stroke:#181818;stroke-width:1.0;"/><polygon fill="none" points="505,744.5469,523.7132,747.6799,521.8504,735.8253,505,744.5469" style="stroke:#181818;stroke-width:1.0;"/></g><!--reverse link GlyphLeaf to GlyphPolygon--><g id="link_GlyphLeaf_GlyphPolygon"><path codeLine="76" d="M497.6867,781.274 C517.4667,797.384 534.11,808.9269 564,823.2969 C584.3,833.0569 607.85,840.6269 628.75,846.1869 " fill="none" id="GlyphLeaf-backto-GlyphPolygon" style="stroke:#181818;stroke-width:1.0;"/><polygon fill="none" points="483.73,769.9069,493.8976,785.9262,501.4757,776.6218,483.73,769.9069" style="stroke:#181818;stroke-width:1.0;"/></g><!--reverse link GlyphStrategyCompositor to GlyphStrategyArrayCompositor--><g id="link_GlyphStrategyCompositor_GlyphStrategyArrayCompositor"><path codeLine="35" d="M802.27,463.2969 C823.47,463.2969 828.09,463.2969 849.88,463.2969 " fill="none" id="GlyphStrategyCompositor-backto-GlyphStrategyArrayCompositor" style="stroke:#181818;stroke-width:1.0;"/><polygon fill="none" points="784.27,463.2969,802.27,469.2969,802.27,457.2969,784.27,463.2969" style="stroke:#181818;stroke-width:1.0;"/></g><!--reverse link GlyphStrategyCompositor to GlyphStrategyTeXCompositor--><g id="link_GlyphStrategyCompositor_GlyphStrategyTeXCompositor"><path codeLine="36" d="M776.8558,440.2655 C817.5658,429.8255 850.8,421.3069 891.53,410.8669 " fill="none" id="GlyphStrategyCompositor-backto-GlyphStrategyTeXCompositor" style="stroke:#181818;stroke-width:1.0;"/><polygon fill="none" points="759.42,444.7369,778.3462,446.0774,775.3653,434.4536,759.42,444.7369" style="stroke:#181818;stroke-width:1.0;"/></g><!--reverse link GlyphStrategyCompositor to GlyphStrategySimpleCompositor--><g id="link_GlyphStrategyCompositor_GlyphStrategySimpleCompositor"><path codeLine="37" d="M723.3028,433.4415 C752.5528,409.9015 792.25,380.7269 844,356.2969 C857.44,349.9469 872.28,344.4969 886.81,339.9069 " fill="none" id="GlyphStrategyCompositor-backto-GlyphStrategySimpleCompositor" style="stroke:#181818;stroke-width:1.0;"/><polygon fill="none" points="709.28,444.7269,727.0646,438.1158,719.541,428.7672,709.28,444.7269" style="stroke:#181818;stroke-width:1.0;"/></g><!--link GlyphComposite to GlyphStrategyCompositor--><g id="link_GlyphComposite_GlyphStrategyCompositor"><path codeLine="40" d="M534.1981,550.8086 C581.1281,529.9786 627.1141,506.0294 659.0141,485.0894 " fill="none" id="GlyphComposite-GlyphStrategyCompositor" style="stroke:#181818;stroke-width:1.0;"/><polygon fill="none" points="523.23,555.6769,530.3368,556.8988,534.1981,550.8086,527.0913,549.5867,523.23,555.6769" style="stroke:#181818;stroke-width:1.0;"/><polygon fill="#181818" points="664.03,481.7969,654.3111,483.3918,659.8501,484.5407,658.7012,490.0796,664.03,481.7969" style="stroke:#181818;stroke-width:1.0;"/><text fill="#000000" font-family="sans-serif" font-size="13" lengthAdjust="spacing" textLength="64" x="468.1101" y="545.091">compsitor</text></g><!--reverse link GlyphComposite to GlyphStrategyCompositor--><g id="link_GlyphComposite_GlyphStrategyCompositor"><path codeLine="41" d="M487.9961,552.4946 C519.9761,531.5046 577.16,502.5769 624.13,481.7569 " fill="none" id="GlyphComposite-backto-GlyphStrategyCompositor" style="stroke:#181818;stroke-width:1.0;"/><polygon fill="#181818" points="482.98,555.7869,492.6989,554.1925,487.1601,553.0433,488.3092,547.5044,482.98,555.7869" style="stroke:#181818;stroke-width:1.0;"/><text fill="#000000" font-family="sans-serif" font-size="13" lengthAdjust="spacing" textLength="78" x="516.4994" y="501.4695">composition</text></g><!--reverse link Glyph to GlyphDecorator--><g id="link_Glyph_GlyphDecorator"><path codeLine="33" d="M203.3751,542.4599 C260.1651,479.4899 407.08,292.0269 449.49,228.8569 " fill="none" id="Glyph-backto-GlyphDecorator" style="stroke:#181818;stroke-width:1.0;"/><polygon fill="none" points="191.32,555.8269,207.8307,546.4783,198.9194,538.4416,191.32,555.8269" style="stroke:#181818;stroke-width:1.0;"/></g><!--link Glyph to GlyphDecorator--><g id="link_Glyph_GlyphDecorator"><path codeLine="38" d="M184.8035,550.8248 C227.1035,487.7948 374.6051,300.9498 431.5251,237.8098 " fill="none" id="Glyph-GlyphDecorator" style="stroke:#181818;stroke-width:1.0;"/><polygon fill="#181818" points="181.46,555.8069,189.7966,550.5628,184.2463,551.6552,183.1539,546.1048,181.46,555.8069" style="stroke:#181818;stroke-width:1.0;"/><polygon fill="none" points="439.56,228.8969,432.5716,230.675,431.5251,237.8098,438.5135,236.0316,439.56,228.8969" style="stroke:#181818;stroke-width:1.0;"/><text fill="#000000" font-family="sans-serif" font-size="13" lengthAdjust="spacing" textLength="73" x="349.5401" y="248.6506">component</text></g><!--reverse link GlyphDecorator to GlyphDecoratorBorder--><g id="link_GlyphDecorator_GlyphDecoratorBorder"><path codeLine="35" d="M543.31,210.2969 C565.97,210.2969 573.92,210.2969 598.22,210.2969 " fill="none" id="GlyphDecorator-backto-GlyphDecoratorBorder" style="stroke:#181818;stroke-width:1.0;"/><polygon fill="none" points="525.31,210.2969,543.31,216.2969,543.31,204.2969,525.31,210.2969" style="stroke:#181818;stroke-width:1.0;"/></g><!--reverse link GlyphDecorator to GlyphDecoratorScroller--><g id="link_GlyphDecorator_GlyphDecoratorScroller"><path codeLine="36" d="M529.8736,185.6572 C546.1336,179.8872 547.28,179.6569 564,174.2969 C581.49,168.6869 600.53,162.9869 618.22,157.8669 " fill="none" id="GlyphDecorator-backto-GlyphDecoratorScroller" style="stroke:#181818;stroke-width:1.0;"/><polygon fill="none" points="512.91,191.6769,531.8802,191.3117,527.867,180.0027,512.91,191.6769" style="stroke:#181818;stroke-width:1.0;"/></g><!--SRC=[dPD1Rzim38Nl-XNigPUrlGT1W6vfYmB1KiGTi5iXoxJDbHODIaOQ3Flla-EwIpiZ2wQR-VYUo0zMfCW8AtoX6TnspB34G9KtnZBBjg4NyfLXB2D40QMgZb2GeeiagSbBHB01AlIebWsaCyyNGmOys1XHVPXVvOj1eiKDOuC-1f0IDjW5cwVhr_cFb7YnLaeI5f196RTMSNv5W_4rjnyJPdtSM8GxjMrDpZ8Kuhe-6h2WA0h5iCY1FNFIuWpU_ClHaKNjNEmKFy6jQ9F6xhS-S8wR37T_aQQLG14D-W9w1iQqrZtR2e7JY9SLxzeQVkuJUbRMLsdBkxuwLVkJDo6kq9QJfjggTMcgAN4pVaw93yAxIloaJxRJ0tBN38PVnfoHTzmbl5s-N_V9iGq1mrCOCLwsNSDdcvlLzUFz-cjcpFd5ASUS7-9_ZpHbsuZLRffgzggE94MFTLshsXDR7_7xQOqPDItZXzvZiChzflz9wetNju0Ab1wDbjOXK9CZCuMw_wq_42pGIPerlOn9XCjHFYf-5YtmU4lcL9ZntmJU3ViNYDy0]--></g></svg>