<?xml version="1.0" encoding="us-ascii" standalone="no"?><svg xmlns="http://www.w3.org/2000/svg" xmlns:xlink="http://www.w3.org/1999/xlink" contentStyleType="text/css" height="326px" preserveAspectRatio="none" style="width:756px;height:326px;background:#FFFFFF;" version="1.1" viewBox="0 0 756 326" width="756px" zoomAndPan="magnify"><defs/><g><text fill="#000000" font-family="sans-serif" font-size="14" font-weight="bold" lengthAdjust="spacing" textLength="212" x="265" y="22.9951">Decorator Pattern (Formal)</text><g id="elem_nGeneral"><path d="M6,276.8769 L6,302.0097 L268,302.0097 L268,286.8769 L258,276.8769 L6,276.8769 " fill="#FEFFDD" style="stroke:#181818;stroke-width:0.5;"/><path d="M258,276.8769 L258,286.8769 L268,286.8769 L258,276.8769 " fill="#FEFFDD" style="stroke:#181818;stroke-width:1.0;"/><text fill="#000000" font-family="sans-serif" font-size="13" lengthAdjust="spacing" textLength="241" x="12" y="293.9438">Formal structure of Decorator Pattern</text></g><!--class Component--><g id="elem_Component"><rect fill="#F1F1F1" height="64.2969" id="Component" rx="2.5" ry="2.5" style="stroke:#181818;stroke-width:0.5;" width="114" x="80" y="117.2969"/><ellipse cx="95" cy="133.2969" fill="#ADD1B2" rx="11" ry="11" style="stroke:#181818;stroke-width:1.0;"/><path d="M97.9688,138.9375 Q97.3906,139.2344 96.75,139.375 Q96.1094,139.5312 95.4063,139.5312 Q92.9063,139.5312 91.5781,137.8906 Q90.2656,136.2344 90.2656,133.1094 Q90.2656,129.9844 91.5781,128.3281 Q92.9063,126.6719 95.4063,126.6719 Q96.1094,126.6719 96.75,126.8281 Q97.4063,126.9844 97.9688,127.2812 L97.9688,130 Q97.3438,129.4219 96.75,129.1562 Q96.1563,128.875 95.5313,128.875 Q94.1875,128.875 93.5,129.9531 Q92.8125,131.0156 92.8125,133.1094 Q92.8125,135.2031 93.5,136.2812 Q94.1875,137.3437 95.5313,137.3437 Q96.1563,137.3437 96.75,137.0781 Q97.3438,136.7969 97.9688,136.2187 L97.9688,138.9375 Z " fill="#000000"/><text fill="#000000" font-family="sans-serif" font-size="14" lengthAdjust="spacing" textLength="82" x="109" y="138.1436">Component</text><line style="stroke:#181818;stroke-width:0.5;" x1="81" x2="193" y1="149.2969" y2="149.2969"/><line style="stroke:#181818;stroke-width:0.5;" x1="81" x2="193" y1="157.2969" y2="157.2969"/><text fill="#000000" font-family="sans-serif" font-size="14" lengthAdjust="spacing" textLength="78" x="86" y="174.292">Operation()</text></g><!--class ConcreteComponent--><g id="elem_ConcreteComponent"><rect fill="#F1F1F1" height="64.2969" id="ConcreteComponent" rx="2.5" ry="2.5" style="stroke:#181818;stroke-width:0.5;" width="178" x="328" y="44.2969"/><ellipse cx="343" cy="60.2969" fill="#ADD1B2" rx="11" ry="11" style="stroke:#181818;stroke-width:1.0;"/><path d="M345.9688,65.9375 Q345.3906,66.2344 344.75,66.375 Q344.1094,66.5313 343.4063,66.5313 Q340.9063,66.5313 339.5781,64.8906 Q338.2656,63.2344 338.2656,60.1094 Q338.2656,56.9844 339.5781,55.3281 Q340.9063,53.6719 343.4063,53.6719 Q344.1094,53.6719 344.75,53.8281 Q345.4063,53.9844 345.9688,54.2813 L345.9688,57 Q345.3438,56.4219 344.75,56.1563 Q344.1563,55.875 343.5313,55.875 Q342.1875,55.875 341.5,56.9531 Q340.8125,58.0156 340.8125,60.1094 Q340.8125,62.2031 341.5,63.2813 Q342.1875,64.3438 343.5313,64.3438 Q344.1563,64.3438 344.75,64.0781 Q345.3438,63.7969 345.9688,63.2188 L345.9688,65.9375 Z " fill="#000000"/><text fill="#000000" font-family="sans-serif" font-size="14" lengthAdjust="spacing" textLength="146" x="357" y="65.1436">ConcreteComponent</text><line style="stroke:#181818;stroke-width:0.5;" x1="329" x2="505" y1="76.2969" y2="76.2969"/><line style="stroke:#181818;stroke-width:0.5;" x1="329" x2="505" y1="84.2969" y2="84.2969"/><text fill="#000000" font-family="sans-serif" font-size="14" lengthAdjust="spacing" textLength="78" x="334" y="101.292">Operation()</text></g><!--class Decorator--><g id="elem_Decorator"><rect fill="#F1F1F1" height="64.2969" id="Decorator" rx="2.5" ry="2.5" style="stroke:#181818;stroke-width:0.5;" width="101" x="366.5" y="147.4469"/><ellipse cx="381.5" cy="163.4469" fill="#ADD1B2" rx="11" ry="11" style="stroke:#181818;stroke-width:1.0;"/><path d="M384.4688,169.0875 Q383.8906,169.3844 383.25,169.525 Q382.6094,169.6812 381.9063,169.6812 Q379.4063,169.6812 378.0781,168.0406 Q376.7656,166.3844 376.7656,163.2594 Q376.7656,160.1344 378.0781,158.4781 Q379.4063,156.8219 381.9063,156.8219 Q382.6094,156.8219 383.25,156.9781 Q383.9063,157.1344 384.4688,157.4312 L384.4688,160.15 Q383.8438,159.5719 383.25,159.3062 Q382.6563,159.025 382.0313,159.025 Q380.6875,159.025 380,160.1031 Q379.3125,161.1656 379.3125,163.2594 Q379.3125,165.3531 380,166.4312 Q380.6875,167.4937 382.0313,167.4937 Q382.6563,167.4937 383.25,167.2281 Q383.8438,166.9469 384.4688,166.3687 L384.4688,169.0875 Z " fill="#000000"/><text fill="#000000" font-family="sans-serif" font-size="14" lengthAdjust="spacing" textLength="69" x="395.5" y="168.2936">Decorator</text><line style="stroke:#181818;stroke-width:0.5;" x1="367.5" x2="466.5" y1="179.4469" y2="179.4469"/><line style="stroke:#181818;stroke-width:0.5;" x1="367.5" x2="466.5" y1="187.4469" y2="187.4469"/><text fill="#000000" font-family="sans-serif" font-size="14" lengthAdjust="spacing" textLength="78" x="372.5" y="204.442">Operation()</text></g><!--class ConcreteDecoratorA--><g id="elem_ConcreteDecoratorA"><rect fill="#F1F1F1" height="80.5938" id="ConcreteDecoratorA" rx="2.5" ry="2.5" style="stroke:#181818;stroke-width:0.5;" width="174" x="574.5" y="119.1469"/><ellipse cx="589.5" cy="135.1469" fill="#ADD1B2" rx="11" ry="11" style="stroke:#181818;stroke-width:1.0;"/><path d="M592.4688,140.7875 Q591.8906,141.0844 591.25,141.225 Q590.6094,141.3812 589.9063,141.3812 Q587.4063,141.3812 586.0781,139.7406 Q584.7656,138.0844 584.7656,134.9594 Q584.7656,131.8344 586.0781,130.1781 Q587.4063,128.5219 589.9063,128.5219 Q590.6094,128.5219 591.25,128.6781 Q591.9063,128.8344 592.4688,129.1312 L592.4688,131.85 Q591.8438,131.2719 591.25,131.0062 Q590.6563,130.725 590.0313,130.725 Q588.6875,130.725 588,131.8031 Q587.3125,132.8656 587.3125,134.9594 Q587.3125,137.0531 588,138.1312 Q588.6875,139.1937 590.0313,139.1937 Q590.6563,139.1937 591.25,138.9281 Q591.8438,138.6469 592.4688,138.0687 L592.4688,140.7875 Z " fill="#000000"/><text fill="#000000" font-family="sans-serif" font-size="14" lengthAdjust="spacing" textLength="142" x="603.5" y="139.9936">ConcreteDecoratorA</text><line style="stroke:#181818;stroke-width:0.5;" x1="575.5" x2="747.5" y1="151.1469" y2="151.1469"/><text fill="#000000" font-family="sans-serif" font-size="14" lengthAdjust="spacing" textLength="80" x="580.5" y="168.142">addedState</text><line style="stroke:#181818;stroke-width:0.5;" x1="575.5" x2="747.5" y1="175.4437" y2="175.4437"/><text fill="#000000" font-family="sans-serif" font-size="14" lengthAdjust="spacing" textLength="78" x="580.5" y="192.4389">Operation()</text></g><!--class ConcreteDecoratorB--><g id="elem_ConcreteDecoratorB"><rect fill="#F1F1F1" height="80.5938" id="ConcreteDecoratorB" rx="2.5" ry="2.5" style="stroke:#181818;stroke-width:0.5;" width="175" x="574" y="238.4469"/><ellipse cx="589" cy="254.4469" fill="#ADD1B2" rx="11" ry="11" style="stroke:#181818;stroke-width:1.0;"/><path d="M591.9688,260.0875 Q591.3906,260.3844 590.75,260.525 Q590.1094,260.6813 589.4063,260.6813 Q586.9063,260.6813 585.5781,259.0406 Q584.2656,257.3844 584.2656,254.2594 Q584.2656,251.1344 585.5781,249.4781 Q586.9063,247.8219 589.4063,247.8219 Q590.1094,247.8219 590.75,247.9781 Q591.4063,248.1344 591.9688,248.4312 L591.9688,251.15 Q591.3438,250.5719 590.75,250.3062 Q590.1563,250.025 589.5313,250.025 Q588.1875,250.025 587.5,251.1031 Q586.8125,252.1656 586.8125,254.2594 Q586.8125,256.3531 587.5,257.4313 Q588.1875,258.4938 589.5313,258.4938 Q590.1563,258.4938 590.75,258.2281 Q591.3438,257.9469 591.9688,257.3688 L591.9688,260.0875 Z " fill="#000000"/><text fill="#000000" font-family="sans-serif" font-size="14" lengthAdjust="spacing" textLength="143" x="603" y="259.2936">ConcreteDecoratorB</text><line style="stroke:#181818;stroke-width:0.5;" x1="575" x2="748" y1="270.4469" y2="270.4469"/><line style="stroke:#181818;stroke-width:0.5;" x1="575" x2="748" y1="278.4469" y2="278.4469"/><text fill="#000000" font-family="sans-serif" font-size="14" lengthAdjust="spacing" textLength="78" x="580" y="295.442">Operation()</text><text fill="#000000" font-family="sans-serif" font-size="14" lengthAdjust="spacing" textLength="124" x="580" y="311.7389">AddedBehaviour()</text></g><g id="elem_nDecoratorOperation"><path d="M49.5,216.8769 L49.5,242.0097 A0,0 0 0 0 49.5,242.0097 L224.5,242.0097 A0,0 0 0 0 224.5,242.0097 L224.5,226.8769 L214.5,216.8769 L205.93,216.8769 L365.5,199.4469 L197.93,216.8769 L49.5,216.8769 A0,0 0 0 0 49.5,216.8769 " fill="#FEFFDD" style="stroke:#181818;stroke-width:0.5;"/><path d="M214.5,216.8769 L214.5,226.8769 L224.5,226.8769 L214.5,216.8769 " fill="#FEFFDD" style="stroke:#181818;stroke-width:0.5;"/><text fill="#000000" font-family="sans-serif" font-size="13" lengthAdjust="spacing" textLength="154" x="55.5" y="233.9438">component.Operation();</text></g><g id="elem_nConcreteDecoratorBOperation"><path d="M332,270.3169 L332,310.5825 A0,0 0 0 0 332,310.5825 L502,310.5825 A0,0 0 0 0 502,310.5825 L502,294.4469 L573,290.4469 L502,286.4469 L502,280.3169 L492,270.3169 L332,270.3169 A0,0 0 0 0 332,270.3169 " fill="#FEFFDD" style="stroke:#181818;stroke-width:0.5;"/><path d="M492,270.3169 L492,280.3169 L502,280.3169 L492,270.3169 " fill="#FEFFDD" style="stroke:#181818;stroke-width:0.5;"/><text fill="#000000" font-family="sans-serif" font-size="13" lengthAdjust="spacing" textLength="149" x="338" y="287.3838">Decorator::Operation();</text><text fill="#000000" font-family="sans-serif" font-size="13" lengthAdjust="spacing" textLength="119" x="338" y="302.5166">AddedBehaviour();</text></g><!--reverse link Component to ConcreteComponent--><g id="link_Component_ConcreteComponent"><path codeLine="22" d="M211.6696,130.1047 C249.8996,120.0647 283.86,111.1469 327.53,99.6769 " fill="none" id="Component-backto-ConcreteComponent" style="stroke:#181818;stroke-width:1.0;"/><polygon fill="none" points="194.26,134.6769,213.1937,135.908,210.1456,124.3015,194.26,134.6769" style="stroke:#181818;stroke-width:1.0;"/></g><!--reverse link Component to Decorator--><g id="link_Component_Decorator"><path codeLine="23" d="M211.9977,169.3687 C259.9077,177.6387 310.71,181.9869 358.87,184.1269 " fill="none" id="Component-backto-Decorator" style="stroke:#181818;stroke-width:1.0;"/><polygon fill="none" points="194.26,166.3069,210.9771,175.2812,213.0183,163.4561,194.26,166.3069" style="stroke:#181818;stroke-width:1.0;"/></g><!--link Component to Decorator--><g id="link_Component_Decorator"><path codeLine="25" d="M200.2544,144.9871 C248.1644,147.0671 298.8827,152.1484 347.0427,160.4084 " fill="none" id="Component-Decorator" style="stroke:#181818;stroke-width:1.0;"/><polygon fill="#181818" points="194.26,144.7269,203.078,149.1135,199.2553,144.9437,203.425,141.121,194.26,144.7269" style="stroke:#181818;stroke-width:1.0;"/><polygon fill="none" points="358.87,162.4369,353.6325,157.4802,347.0427,160.4084,352.2802,165.365,358.87,162.4369" style="stroke:#181818;stroke-width:1.0;"/><text fill="#000000" font-family="sans-serif" font-size="13" lengthAdjust="spacing" textLength="73" x="285.4264" y="174.4588">compenent</text></g><!--reverse link Decorator to ConcreteDecoratorA--><g id="link_Decorator_ConcreteDecoratorA"><path codeLine="27" d="M493.4089,173.2247 C522.8189,170.7947 541.29,169.2769 574.02,166.5769 " fill="none" id="Decorator-backto-ConcreteDecoratorA" style="stroke:#181818;stroke-width:1.0;"/><polygon fill="none" points="475.47,174.7069,493.9029,179.2043,492.9148,167.2451,475.47,174.7069" style="stroke:#181818;stroke-width:1.0;"/></g><!--reverse link Decorator to ConcreteDecoratorB--><g id="link_Decorator_ConcreteDecoratorB"><path codeLine="28" d="M492.1337,209.7129 C519.1637,220.7529 535.44,227.3969 566,239.8669 " fill="none" id="Decorator-backto-ConcreteDecoratorB" style="stroke:#181818;stroke-width:1.0;"/><polygon fill="none" points="475.47,202.9069,489.865,215.2675,494.4023,204.1583,475.47,202.9069" style="stroke:#181818;stroke-width:1.0;"/></g><!--SRC=[XL7DRi8m3BxdAInES6WVeDk5RXh78Uq9eiICICL6njs9XryoH9F-m7fBlr_R7HuKb472zr711q6dWSaO3TeXlADZiSe2UwkAGh3-O3dPRcCCiIBO2z0E2SLs1k9tG-6YqZlj1O4FSnE3v279ZNdZqva9IQ61ptEqIUdhJGB82Ie-96JN1yg1i8qCwptwBxKnSn5_xj1E68k4ROfeyMX_0lToyxbtVxrM5Sn6cX86kv6qgXXMBhunlLSbA-zW590d-vVH5dSSVWwZ_ftKtQlKnGfUyWqNT53NkMRJPBySDcyoJbsIfzY4JJTTbddYcrhDuRBUBm00]--></g></svg>