<svg xmlns="http://www.w3.org/2000/svg" xmlns:xlink="http://www.w3.org/1999/xlink" contentStyleType="text/css" height="365px" preserveAspectRatio="none" style="width:505px;height:365px;background:#FFFFFF;" version="1.1" viewBox="0 0 505 365" width="505px" zoomAndPan="magnify"><defs/><g><text fill="#000000" font-family="sans-serif" font-size="14" font-weight="bold" lengthAdjust="spacing" textLength="253.4561" x="118.8247" y="22.9951">Adapter Pattern Shape Example</text><!--entity DrawingEditor--><g id="elem_DrawingEditor"><rect fill="#F1F1F1" height="36.2969" rx="2.5" ry="2.5" style="stroke:#181818;stroke-width:0.5;" width="119.6475" x="194.78" y="66.4469"/><text fill="#000000" font-family="sans-serif" font-size="14" lengthAdjust="spacing" textLength="99.6475" x="204.78" y="89.442">DrawingEditor</text></g><!--class Shape--><g id="elem_Shape"><rect codeLine="10" fill="#F1F1F1" height="80.5938" id="Shape" rx="2.5" ry="2.5" style="stroke:#181818;stroke-width:0.5;" width="153.21" x="7" y="44.2969"/><ellipse cx="57.4355" cy="60.2969" fill="#ADD1B2" rx="11" ry="11" style="stroke:#181818;stroke-width:1.0;"/><path d="M60.4043,65.9375 Q59.8262,66.2344 59.1855,66.375 Q58.5449,66.5313 57.8418,66.5313 Q55.3418,66.5313 54.0137,64.8906 Q52.7012,63.2344 52.7012,60.1094 Q52.7012,56.9844 54.0137,55.3281 Q55.3418,53.6719 57.8418,53.6719 Q58.5449,53.6719 59.1855,53.8281 Q59.8418,53.9844 60.4043,54.2813 L60.4043,57 Q59.7793,56.4219 59.1855,56.1563 Q58.5918,55.875 57.9668,55.875 Q56.623,55.875 55.9355,56.9531 Q55.248,58.0156 55.248,60.1094 Q55.248,62.2031 55.9355,63.2813 Q56.623,64.3438 57.9668,64.3438 Q58.5918,64.3438 59.1855,64.0781 Q59.7793,63.7969 60.4043,63.2188 L60.4043,65.9375 Z " fill="#000000"/><text fill="#000000" font-family="sans-serif" font-size="14" lengthAdjust="spacing" textLength="43.8389" x="77.9355" y="65.1436">Shape</text><line style="stroke:#181818;stroke-width:0.5;" x1="8" x2="159.21" y1="76.2969" y2="76.2969"/><line style="stroke:#181818;stroke-width:0.5;" x1="8" x2="159.21" y1="84.2969" y2="84.2969"/><text fill="#000000" font-family="sans-serif" font-size="14" lengthAdjust="spacing" textLength="103.8311" x="13" y="101.292">BoundingBox()</text><text fill="#000000" font-family="sans-serif" font-size="14" lengthAdjust="spacing" textLength="141.21" x="13" y="117.5889">CreateManipulator()</text></g><!--class Line--><g id="elem_Line"><rect codeLine="11" fill="#F1F1F1" height="80.5938" id="Line" rx="2.5" ry="2.5" style="stroke:#181818;stroke-width:0.5;" width="153.21" x="7" y="188.5969"/><ellipse cx="64.7671" cy="204.5969" fill="#ADD1B2" rx="11" ry="11" style="stroke:#181818;stroke-width:1.0;"/><path d="M67.7358,210.2375 Q67.1577,210.5344 66.5171,210.675 Q65.8765,210.8313 65.1733,210.8313 Q62.6733,210.8313 61.3452,209.1906 Q60.0327,207.5344 60.0327,204.4094 Q60.0327,201.2844 61.3452,199.6281 Q62.6733,197.9719 65.1733,197.9719 Q65.8765,197.9719 66.5171,198.1281 Q67.1733,198.2844 67.7358,198.5813 L67.7358,201.3 Q67.1108,200.7219 66.5171,200.4563 Q65.9233,200.175 65.2983,200.175 Q63.9546,200.175 63.2671,201.2531 Q62.5796,202.3156 62.5796,204.4094 Q62.5796,206.5031 63.2671,207.5813 Q63.9546,208.6438 65.2983,208.6438 Q65.9233,208.6438 66.5171,208.3781 Q67.1108,208.0969 67.7358,207.5188 L67.7358,210.2375 Z " fill="#000000"/><text fill="#000000" font-family="sans-serif" font-size="14" lengthAdjust="spacing" textLength="29.1758" x="85.2671" y="209.4436">Line</text><line style="stroke:#181818;stroke-width:0.5;" x1="8" x2="159.21" y1="220.5969" y2="220.5969"/><line style="stroke:#181818;stroke-width:0.5;" x1="8" x2="159.21" y1="228.5969" y2="228.5969"/><text fill="#000000" font-family="sans-serif" font-size="14" lengthAdjust="spacing" textLength="103.8311" x="13" y="245.592">BoundingBox()</text><text fill="#000000" font-family="sans-serif" font-size="14" lengthAdjust="spacing" textLength="141.21" x="13" y="261.8889">CreateManipulator()</text></g><!--class TextShape--><g id="elem_TextShape"><rect codeLine="12" fill="#F1F1F1" height="80.5938" id="TextShape" rx="2.5" ry="2.5" style="stroke:#181818;stroke-width:0.5;" width="153.21" x="203.1" y="188.8969"/><ellipse cx="238.9942" cy="204.8969" fill="#ADD1B2" rx="11" ry="11" style="stroke:#181818;stroke-width:1.0;"/><path d="M241.963,210.5375 Q241.3849,210.8344 240.7442,210.975 Q240.1036,211.1313 239.4005,211.1313 Q236.9005,211.1313 235.5724,209.4906 Q234.2599,207.8344 234.2599,204.7094 Q234.2599,201.5844 235.5724,199.9281 Q236.9005,198.2719 239.4005,198.2719 Q240.1036,198.2719 240.7442,198.4281 Q241.4005,198.5844 241.963,198.8813 L241.963,201.6 Q241.338,201.0219 240.7442,200.7563 Q240.1505,200.475 239.5255,200.475 Q238.1817,200.475 237.4942,201.5531 Q236.8067,202.6156 236.8067,204.7094 Q236.8067,206.8031 237.4942,207.8813 Q238.1817,208.9438 239.5255,208.9438 Q240.1505,208.9438 240.7442,208.6781 Q241.338,208.3969 241.963,207.8188 L241.963,210.5375 Z " fill="#000000"/><text fill="#000000" font-family="sans-serif" font-size="14" lengthAdjust="spacing" textLength="74.7783" x="257.6374" y="209.7436">TextShape</text><line style="stroke:#181818;stroke-width:0.5;" x1="204.1" x2="355.31" y1="220.8969" y2="220.8969"/><line style="stroke:#181818;stroke-width:0.5;" x1="204.1" x2="355.31" y1="228.8969" y2="228.8969"/><text fill="#000000" font-family="sans-serif" font-size="14" lengthAdjust="spacing" textLength="103.8311" x="209.1" y="245.892">BoundingBox()</text><text fill="#000000" font-family="sans-serif" font-size="14" lengthAdjust="spacing" textLength="141.21" x="209.1" y="262.1889">CreateManipulator()</text></g><!--class TextView--><g id="elem_TextView"><rect codeLine="15" fill="#F1F1F1" height="64.2969" id="TextView" rx="2.5" ry="2.5" style="stroke:#181818;stroke-width:0.5;" width="96.4697" x="399.37" y="196.7469"/><ellipse cx="414.37" cy="212.7469" fill="#ADD1B2" rx="11" ry="11" style="stroke:#181818;stroke-width:1.0;"/><path d="M417.3388,218.3875 Q416.7606,218.6844 416.12,218.825 Q415.4794,218.9813 414.7763,218.9813 Q412.2763,218.9813 410.9481,217.3406 Q409.6356,215.6844 409.6356,212.5594 Q409.6356,209.4344 410.9481,207.7781 Q412.2763,206.1219 414.7763,206.1219 Q415.4794,206.1219 416.12,206.2781 Q416.7763,206.4344 417.3388,206.7313 L417.3388,209.45 Q416.7138,208.8719 416.12,208.6063 Q415.5263,208.325 414.9013,208.325 Q413.5575,208.325 412.87,209.4031 Q412.1825,210.4656 412.1825,212.5594 Q412.1825,214.6531 412.87,215.7313 Q413.5575,216.7938 414.9013,216.7938 Q415.5263,216.7938 416.12,216.5281 Q416.7138,216.2469 417.3388,215.6688 L417.3388,218.3875 Z " fill="#000000"/><text fill="#000000" font-family="sans-serif" font-size="14" lengthAdjust="spacing" textLength="64.4697" x="428.37" y="217.5936">TextView</text><line style="stroke:#181818;stroke-width:0.5;" x1="400.37" x2="494.8397" y1="228.7469" y2="228.7469"/><line style="stroke:#181818;stroke-width:0.5;" x1="400.37" x2="494.8397" y1="236.7469" y2="236.7469"/><text fill="#000000" font-family="sans-serif" font-size="14" lengthAdjust="spacing" textLength="81.4707" x="405.37" y="253.742">GetExtent()</text></g><g id="elem_nTextShapeBoundingBox"><path d="M73.34,332.8969 L73.34,358.0297 A0,0 0 0 0 73.34,358.0297 L255.8561,358.0297 A0,0 0 0 0 255.8561,358.0297 L255.8561,342.8969 L245.8561,332.8969 L229.48,332.8969 L225.48,248.7569 L221.48,332.8969 L73.34,332.8969 A0,0 0 0 0 73.34,332.8969 " fill="#FEFFDD" style="stroke:#181818;stroke-width:0.5;"/><path d="M245.8561,332.8969 L245.8561,342.8969 L255.8561,342.8969 L245.8561,332.8969 " fill="#FEFFDD" style="stroke:#181818;stroke-width:0.5;"/><text fill="#000000" font-family="sans-serif" font-size="13" lengthAdjust="spacing" textLength="161.5161" x="79.34" y="349.9638">return text-&gt;GetExtent()</text></g><g id="elem_nTextShapeCreateManipulator"><path d="M291.1,332.8969 L291.1,358.0297 A0,0 0 0 0 291.1,358.0297 L498.1054,358.0297 A0,0 0 0 0 498.1054,358.0297 L498.1054,342.8969 L488.1054,332.8969 L331.6,332.8969 L327.6,264.7569 L323.6,332.8969 L291.1,332.8969 A0,0 0 0 0 291.1,332.8969 " fill="#FEFFDD" style="stroke:#181818;stroke-width:0.5;"/><path d="M488.1054,332.8969 L488.1054,342.8969 L498.1054,342.8969 L488.1054,332.8969 " fill="#FEFFDD" style="stroke:#181818;stroke-width:0.5;"/><text fill="#000000" font-family="sans-serif" font-size="13" lengthAdjust="spacing" textLength="186.0054" x="297.1" y="349.9638">return new TextManipulator;</text></g><!--reverse link Shape to Line--><g id="link_Shape_Line"><path codeLine="28" d="M83.6,143.1769 C83.6,162.8469 83.6,168.4169 83.6,188.1169 " fill="none" id="Shape-backto-Line" style="stroke:#181818;stroke-width:1.0;"/><polygon fill="none" points="83.6,125.1769,77.6,143.1769,89.6,143.1769,83.6,125.1769" style="stroke:#181818;stroke-width:1.0;"/></g><!--reverse link Shape to TextShape--><g id="link_Shape_TextShape"><path codeLine="29" d="M178.67,113.8169 C224.1,113.8169 254.76,113.8169 254.76,113.8169 C254.76,113.8169 254.76,152.5369 254.76,185.0569 " fill="none" id="Shape-backto-TextShape" style="stroke:#181818;stroke-width:1.0;"/><polygon fill="none" points="160.67,113.8169,178.67,119.8169,178.67,107.8169,160.67,113.8169" style="stroke:#181818;stroke-width:1.0;"/></g><!--link DrawingEditor to Shape--><g id="link_DrawingEditor_Shape"><path codeLine="31" d="M194.31,84.5969 C183.35,84.5969 177.78,84.5969 166.42,84.5969 " fill="none" id="DrawingEditor-to-Shape" style="stroke:#181818;stroke-width:1.0;"/><polygon fill="#181818" points="160.42,84.5969,169.42,88.5969,165.42,84.5969,169.42,80.5969,160.42,84.5969" style="stroke:#181818;stroke-width:1.0;"/></g><!--link TextShape to TextView--><g id="link_TextShape_TextView"><path codeLine="33" d="M364.09,228.8969 C376.02,228.8969 381.94,228.8969 392.88,228.8969 " fill="none" id="TextShape-to-TextView" style="stroke:#181818;stroke-width:1.0;"/><polygon fill="#181818" points="398.88,228.8969,389.88,224.8969,393.88,228.8969,389.88,232.8969,398.88,228.8969" style="stroke:#181818;stroke-width:1.0;"/><text fill="#000000" font-family="sans-serif" font-size="13" lengthAdjust="spacing" textLength="25.8857" x="364.2421" y="225.9517">text</text></g><!--SRC=[TP71JeGm48RlynJDdlJ0FW2QJLmbUz74HEDziaoWiRHD6G96VNUdie6Q8XVep7pp__r1OzpOwKdR1lftRJq6x9JHblZ3atA1MmV0cWsfknezKr3FoFAowgL56QacxBmXW41dHjl8u4F0KHPMjMONX7ODSIlW9oXvpWRxVeQJywD89iTNcdWU-GPOIs-QHe1Pk5H7DzXQX8vkkhfUglU1aEa9hVQ3GN4WFOZhC-9It0GM0ncLTlv5er7fduYhYSbohC_GxLTHpBTDpkjruKzugZXSaafaTooVkzXQ8x6EIM6lx3AMcFxDDH0FyjCYMnnINsHh5N7OPDL-yFlLNrccUpTaiqHISIkXnCcaVREbdot9NEGoFm00]--></g></svg>