<svg xmlns="http://www.w3.org/2000/svg" xmlns:xlink="http://www.w3.org/1999/xlink" contentStyleType="text/css" height="305px" preserveAspectRatio="none" style="width:547px;height:305px;background:#FFFFFF;" version="1.1" viewBox="0 0 547 305" width="547px" zoomAndPan="magnify"><defs/><g><text fill="#000000" font-family="sans-serif" font-size="14" font-weight="bold" lengthAdjust="spacing" textLength="368.6689" x="82.2909" y="22.9951">Class Adapter Pattern Drawing Editor Example</text><!--class Shape--><g id="elem_Shape"><rect codeLine="6" fill="#F1F1F1" height="80.5938" id="Shape" rx="2.5" ry="2.5" style="stroke:#181818;stroke-width:0.5;" width="262.209" x="7" y="52.4469"/><ellipse cx="111.9351" cy="68.4469" fill="#A9DCDF" rx="11" ry="11" style="stroke:#181818;stroke-width:1.0;"/><path d="M112.0444,63.7906 L110.8882,68.8688 L113.2163,68.8688 L112.0444,63.7906 Z M110.5601,61.5563 L113.5444,61.5563 L116.9038,73.9469 L114.4507,73.9469 L113.6851,70.8844 L110.4038,70.8844 L109.6538,73.9469 L107.2163,73.9469 L110.5601,61.5563 Z " fill="#000000"/><text fill="#000000" font-family="sans-serif" font-size="14" font-style="italic" lengthAdjust="spacing" textLength="43.8389" x="132.4351" y="73.2936">Shape</text><line style="stroke:#181818;stroke-width:0.5;" x1="8" x2="268.209" y1="84.4469" y2="84.4469"/><line style="stroke:#181818;stroke-width:0.5;" x1="8" x2="268.209" y1="92.4469" y2="92.4469"/><ellipse cx="18" cy="106.0953" fill="#84BE84" rx="3" ry="3" style="stroke:#038048;stroke-width:1.0;"/><text fill="#000000" font-family="sans-serif" font-size="14" lengthAdjust="spacing" textLength="225.7773" x="27" y="109.442">boundingBox(Point, Point) : void</text><ellipse cx="18" cy="122.3922" fill="#84BE84" rx="3" ry="3" style="stroke:#038048;stroke-width:1.0;"/><text fill="#000000" font-family="sans-serif" font-size="14" lengthAdjust="spacing" textLength="236.209" x="27" y="125.7389">createManipulator() : Manipulator</text></g><!--class TextShapeClass--><g id="elem_TextShapeClass"><rect codeLine="7" fill="#F1F1F1" height="96.8906" id="TextShapeClass" rx="2.5" ry="2.5" style="stroke:#181818;stroke-width:0.5;" width="262.209" x="149" y="201.1869"/><ellipse cx="220.0493" cy="217.1869" fill="#ADD1B2" rx="11" ry="11" style="stroke:#181818;stroke-width:1.0;"/><path d="M223.0181,222.8275 Q222.4399,223.1244 221.7993,223.265 Q221.1587,223.4213 220.4556,223.4213 Q217.9556,223.4213 216.6274,221.7806 Q215.3149,220.1244 215.3149,216.9994 Q215.3149,213.8744 216.6274,212.2181 Q217.9556,210.5619 220.4556,210.5619 Q221.1587,210.5619 221.7993,210.7181 Q222.4556,210.8744 223.0181,211.1713 L223.0181,213.89 Q222.3931,213.3119 221.7993,213.0463 Q221.2056,212.765 220.5806,212.765 Q219.2368,212.765 218.5493,213.8431 Q217.8618,214.9056 217.8618,216.9994 Q217.8618,219.0931 218.5493,220.1713 Q219.2368,221.2338 220.5806,221.2338 Q221.2056,221.2338 221.7993,220.9681 Q222.3931,220.6869 223.0181,220.1088 L223.0181,222.8275 Z " fill="#000000"/><text fill="#000000" font-family="sans-serif" font-size="14" lengthAdjust="spacing" textLength="111.6104" x="240.5493" y="222.0336">TextShapeClass</text><line style="stroke:#181818;stroke-width:0.5;" x1="150" x2="410.209" y1="233.1869" y2="233.1869"/><line style="stroke:#181818;stroke-width:0.5;" x1="150" x2="410.209" y1="241.1869" y2="241.1869"/><ellipse cx="160" cy="254.8353" fill="#84BE84" rx="3" ry="3" style="stroke:#038048;stroke-width:1.0;"/><text fill="#000000" font-family="sans-serif" font-size="14" lengthAdjust="spacing" textLength="225.7773" x="169" y="258.182">boundingBox(Point, Point) : void</text><ellipse cx="160" cy="271.1322" fill="#84BE84" rx="3" ry="3" style="stroke:#038048;stroke-width:1.0;"/><text fill="#000000" font-family="sans-serif" font-size="14" lengthAdjust="spacing" textLength="236.209" x="169" y="274.4789">createManipulator() : Manipulator</text><ellipse cx="160" cy="287.4291" fill="#84BE84" rx="3" ry="3" style="stroke:#038048;stroke-width:1.0;"/><text fill="#000000" font-family="sans-serif" font-size="14" lengthAdjust="spacing" textLength="110.7764" x="169" y="290.7757">isEmpty() : bool</text></g><!--class TextView--><g id="elem_TextView"><rect codeLine="8" fill="#F1F1F1" height="96.8906" id="TextView" rx="2.5" ry="2.5" style="stroke:#181818;stroke-width:0.5;" width="236.3008" x="303.95" y="44.2969"/><ellipse cx="385.6155" cy="60.2969" fill="#ADD1B2" rx="11" ry="11" style="stroke:#181818;stroke-width:1.0;"/><path d="M388.5843,65.9375 Q388.0062,66.2344 387.3655,66.375 Q386.7249,66.5313 386.0218,66.5313 Q383.5218,66.5313 382.1937,64.8906 Q380.8812,63.2344 380.8812,60.1094 Q380.8812,56.9844 382.1937,55.3281 Q383.5218,53.6719 386.0218,53.6719 Q386.7249,53.6719 387.3655,53.8281 Q388.0218,53.9844 388.5843,54.2813 L388.5843,57 Q387.9593,56.4219 387.3655,56.1563 Q386.7718,55.875 386.1468,55.875 Q384.803,55.875 384.1155,56.9531 Q383.428,58.0156 383.428,60.1094 Q383.428,62.2031 384.1155,63.2813 Q384.803,64.3438 386.1468,64.3438 Q386.7718,64.3438 387.3655,64.0781 Q387.9593,63.7969 388.5843,63.2188 L388.5843,65.9375 Z " fill="#000000"/><text fill="#000000" font-family="sans-serif" font-size="14" lengthAdjust="spacing" textLength="64.4697" x="406.1155" y="65.1436">TextView</text><line style="stroke:#181818;stroke-width:0.5;" x1="304.95" x2="539.2508" y1="76.2969" y2="76.2969"/><line style="stroke:#181818;stroke-width:0.5;" x1="304.95" x2="539.2508" y1="84.2969" y2="84.2969"/><ellipse cx="314.95" cy="97.9453" fill="#84BE84" rx="3" ry="3" style="stroke:#038048;stroke-width:1.0;"/><text fill="#000000" font-family="sans-serif" font-size="14" lengthAdjust="spacing" textLength="207.0195" x="323.95" y="101.292">getOrigin(Coord,Coord) : void</text><ellipse cx="314.95" cy="114.2422" fill="#84BE84" rx="3" ry="3" style="stroke:#038048;stroke-width:1.0;"/><text fill="#000000" font-family="sans-serif" font-size="14" lengthAdjust="spacing" textLength="210.3008" x="323.95" y="117.5889">getExtent(Coord,Coord) : void</text><ellipse cx="314.95" cy="130.5391" fill="#84BE84" rx="3" ry="3" style="stroke:#038048;stroke-width:1.0;"/><text fill="#000000" font-family="sans-serif" font-size="14" lengthAdjust="spacing" textLength="110.7764" x="323.95" y="133.8857">isEmpty() : bool</text></g><!--reverse link Shape to TextShapeClass--><g id="link_Shape_TextShapeClass"><path codeLine="21" d="M209.1,151.1469 C209.1,171.7569 209.1,178.9869 209.1,200.6869 " fill="none" id="Shape-backto-TextShapeClass" style="stroke:#181818;stroke-width:1.0;"/><polygon fill="none" points="209.1,133.1469,203.1,151.1469,215.1,151.1469,209.1,133.1469" style="stroke:#181818;stroke-width:1.0;"/></g><!--reverse link TextView to TextShapeClass--><g id="link_TextView_TextShapeClass"><path codeLine="22" d="M357.58,159.5269 C357.58,178.4169 357.58,181.9969 357.58,200.8769 " fill="none" id="TextView-backto-TextShapeClass" style="stroke:#181818;stroke-width:1.0;"/><polygon fill="none" points="357.58,141.5269,351.58,159.5269,363.58,159.5269,357.58,141.5269" style="stroke:#181818;stroke-width:1.0;"/></g><!--SRC=[ZL3DJiCm3BxxANmiOdi1n0L6ZsYJcBYxZTLPf76KUbidyV2qgGGTHHgNECxtvxZxa10fKOjU0jibCcgoWmAOc6VSUEewV78KZHFko8OIy2NHMKA3fHFJX6LFRVGCG5LdYMh3EilU3XGPflkUUyjzTfmzlWkV0JA43tXVwJ6umVjP-sAd4co5kTmDu4d5_J3hn6JyIa7YqTCmHp5oPZt0TUY_x9UIspbBZNHb6-sIcPMgdqOPlpgY3TisIIEXsAWcjyhdrGGpPjaR1xl9N2PEYthyNAz_B_zRznS8Nm00]--></g></svg>