<svg xmlns="http://www.w3.org/2000/svg" xmlns:xlink="http://www.w3.org/1999/xlink" contentStyleType="text/css" height="305px" preserveAspectRatio="none" style="width:547px;height:305px;background:#FFFFFF;" version="1.1" viewBox="0 0 547 305" width="547px" zoomAndPan="magnify"><defs/><g><text fill="#000000" font-family="sans-serif" font-size="14" font-weight="bold" lengthAdjust="spacing" textLength="378.6904" x="77.2802" y="22.9951">Object Adapter Pattern Drawing Editor Example</text><!--class Shape--><g id="elem_Shape"><rect codeLine="6" fill="#F1F1F1" height="80.5938" id="Shape" rx="2.5" ry="2.5" style="stroke:#181818;stroke-width:0.5;" width="262.209" x="7" y="44.2969"/><ellipse cx="111.9351" cy="60.2969" fill="#A9DCDF" rx="11" ry="11" style="stroke:#181818;stroke-width:1.0;"/><path d="M112.0444,55.6406 L110.8882,60.7188 L113.2163,60.7188 L112.0444,55.6406 Z M110.5601,53.4063 L113.5444,53.4063 L116.9038,65.7969 L114.4507,65.7969 L113.6851,62.7344 L110.4038,62.7344 L109.6538,65.7969 L107.2163,65.7969 L110.5601,53.4063 Z " fill="#000000"/><text fill="#000000" font-family="sans-serif" font-size="14" font-style="italic" lengthAdjust="spacing" textLength="43.8389" x="132.4351" y="65.1436">Shape</text><line style="stroke:#181818;stroke-width:0.5;" x1="8" x2="268.209" y1="76.2969" y2="76.2969"/><line style="stroke:#181818;stroke-width:0.5;" x1="8" x2="268.209" y1="84.2969" y2="84.2969"/><ellipse cx="18" cy="97.9453" fill="#84BE84" rx="3" ry="3" style="stroke:#038048;stroke-width:1.0;"/><text fill="#000000" font-family="sans-serif" font-size="14" lengthAdjust="spacing" textLength="225.7773" x="27" y="101.292">boundingBox(Point, Point) : void</text><ellipse cx="18" cy="114.2422" fill="#84BE84" rx="3" ry="3" style="stroke:#038048;stroke-width:1.0;"/><text fill="#000000" font-family="sans-serif" font-size="14" lengthAdjust="spacing" textLength="236.209" x="27" y="117.5889">createManipulator() : Manipulator</text></g><!--class TextShapeObject--><g id="elem_TextShapeObject"><rect codeLine="7" fill="#F1F1F1" height="113.1875" id="TextShapeObject" rx="2.5" ry="2.5" style="stroke:#181818;stroke-width:0.5;" width="262.209" x="7" y="184.8869"/><ellipse cx="73.6675" cy="200.8869" fill="#ADD1B2" rx="11" ry="11" style="stroke:#181818;stroke-width:1.0;"/><path d="M76.6362,206.5275 Q76.0581,206.8244 75.4175,206.965 Q74.7769,207.1213 74.0737,207.1213 Q71.5737,207.1213 70.2456,205.4806 Q68.9331,203.8244 68.9331,200.6994 Q68.9331,197.5744 70.2456,195.9181 Q71.5737,194.2619 74.0737,194.2619 Q74.7769,194.2619 75.4175,194.4181 Q76.0737,194.5744 76.6362,194.8713 L76.6362,197.59 Q76.0112,197.0119 75.4175,196.7463 Q74.8237,196.465 74.1987,196.465 Q72.855,196.465 72.1675,197.5431 Q71.48,198.6056 71.48,200.6994 Q71.48,202.7931 72.1675,203.8713 Q72.855,204.9338 74.1987,204.9338 Q74.8237,204.9338 75.4175,204.6681 Q76.0112,204.3869 76.6362,203.8088 L76.6362,206.5275 Z " fill="#000000"/><text fill="#000000" font-family="sans-serif" font-size="14" lengthAdjust="spacing" textLength="120.374" x="94.1675" y="205.7336">TextShapeObject</text><line style="stroke:#181818;stroke-width:0.5;" x1="8" x2="268.209" y1="216.8869" y2="216.8869"/><rect fill="none" height="6" style="stroke:#C82930;stroke-width:1.0;" width="6" x="15" y="227.5353"/><text fill="#000000" font-family="sans-serif" font-size="14" lengthAdjust="spacing" textLength="105.9639" x="27" y="233.882">text : TextView</text><line style="stroke:#181818;stroke-width:0.5;" x1="8" x2="268.209" y1="241.1838" y2="241.1838"/><ellipse cx="18" cy="254.8322" fill="#84BE84" rx="3" ry="3" style="stroke:#038048;stroke-width:1.0;"/><text fill="#000000" font-family="sans-serif" font-size="14" lengthAdjust="spacing" textLength="225.7773" x="27" y="258.1789">boundingBox(Point, Point) : void</text><ellipse cx="18" cy="271.1291" fill="#84BE84" rx="3" ry="3" style="stroke:#038048;stroke-width:1.0;"/><text fill="#000000" font-family="sans-serif" font-size="14" lengthAdjust="spacing" textLength="236.209" x="27" y="274.4757">createManipulator() : Manipulator</text><ellipse cx="18" cy="287.4259" fill="#84BE84" rx="3" ry="3" style="stroke:#038048;stroke-width:1.0;"/><text fill="#000000" font-family="sans-serif" font-size="14" lengthAdjust="spacing" textLength="110.7764" x="27" y="290.7726">isEmpty() : bool</text></g><!--class TextView--><g id="elem_TextView"><rect codeLine="8" fill="#F1F1F1" height="96.8906" id="TextView" rx="2.5" ry="2.5" style="stroke:#181818;stroke-width:0.5;" width="236.3008" x="303.95" y="193.0369"/><ellipse cx="385.6155" cy="209.0369" fill="#ADD1B2" rx="11" ry="11" style="stroke:#181818;stroke-width:1.0;"/><path d="M388.5843,214.6775 Q388.0062,214.9744 387.3655,215.115 Q386.7249,215.2712 386.0218,215.2712 Q383.5218,215.2712 382.1937,213.6306 Q380.8812,211.9744 380.8812,208.8494 Q380.8812,205.7244 382.1937,204.0681 Q383.5218,202.4119 386.0218,202.4119 Q386.7249,202.4119 387.3655,202.5681 Q388.0218,202.7244 388.5843,203.0212 L388.5843,205.74 Q387.9593,205.1619 387.3655,204.8962 Q386.7718,204.615 386.1468,204.615 Q384.803,204.615 384.1155,205.6931 Q383.428,206.7556 383.428,208.8494 Q383.428,210.9431 384.1155,212.0212 Q384.803,213.0837 386.1468,213.0837 Q386.7718,213.0837 387.3655,212.8181 Q387.9593,212.5369 388.5843,211.9587 L388.5843,214.6775 Z " fill="#000000"/><text fill="#000000" font-family="sans-serif" font-size="14" lengthAdjust="spacing" textLength="64.4697" x="406.1155" y="213.8836">TextView</text><line style="stroke:#181818;stroke-width:0.5;" x1="304.95" x2="539.2508" y1="225.0369" y2="225.0369"/><line style="stroke:#181818;stroke-width:0.5;" x1="304.95" x2="539.2508" y1="233.0369" y2="233.0369"/><ellipse cx="314.95" cy="246.6853" fill="#84BE84" rx="3" ry="3" style="stroke:#038048;stroke-width:1.0;"/><text fill="#000000" font-family="sans-serif" font-size="14" lengthAdjust="spacing" textLength="207.0195" x="323.95" y="250.032">getOrigin(Coord,Coord) : void</text><ellipse cx="314.95" cy="262.9822" fill="#84BE84" rx="3" ry="3" style="stroke:#038048;stroke-width:1.0;"/><text fill="#000000" font-family="sans-serif" font-size="14" lengthAdjust="spacing" textLength="210.3008" x="323.95" y="266.3289">getExtent(Coord,Coord) : void</text><ellipse cx="314.95" cy="279.2791" fill="#84BE84" rx="3" ry="3" style="stroke:#038048;stroke-width:1.0;"/><text fill="#000000" font-family="sans-serif" font-size="14" lengthAdjust="spacing" textLength="110.7764" x="323.95" y="282.6257">isEmpty() : bool</text></g><!--reverse link Shape to TextShapeObject--><g id="link_Shape_TextShapeObject"><path codeLine="22" d="M138.1,142.9969 C138.1,161.1569 138.1,164.8969 138.1,184.6569 " fill="none" id="Shape-backto-TextShapeObject" style="stroke:#181818;stroke-width:1.0;"/><polygon fill="none" points="138.1,124.9969,132.1,142.9969,144.1,142.9969,138.1,124.9969" style="stroke:#181818;stroke-width:1.0;"/></g><!--link TextShapeObject to TextView--><g id="link_TextShapeObject_TextView"><path codeLine="23" d="M269.3,241.4869 C280.78,241.4869 286.36,241.4869 297.72,241.4869 " fill="none" id="TextShapeObject-to-TextView" style="stroke:#181818;stroke-width:1.0;"/><polygon fill="#181818" points="303.72,241.4869,294.72,237.4869,298.72,241.4869,294.72,245.4869,303.72,241.4869" style="stroke:#181818;stroke-width:1.0;"/><text fill="#000000" font-family="sans-serif" font-size="13" lengthAdjust="spacing" textLength="25.8857" x="269.9652" y="237.7191">text</text></g><!--SRC=[XL5DQyCm3BtxLuYUCjRyWJ46-yXnjD2nkvA8LAjZ6KTjKzYFd-F0bZM5N2nBxptf8NK7TXu3jc3PaLuyWGJTYp7AQWasvHTL2iyrUgK0MzGO7Bm5FBDheAXP9K3HO-ij6ODbfm6ZeBBOTR3ReoSp_Z-ervIFBIVLJwQpCGc31xWlvUZgsFn5-cmhx7GDATn5y2HS_p6hGAZqZexzqM8qaWsSIMxCrTG8vnfBCVvEdbEMBTpGB9kv8UAkQBrU4hKKiQFXmTQ0DgIRm0sxx5KarElq_lCmOHQzajD5vdpYkCx7xpoVtUZQyMhOtGhofydTp0y0]--></g></svg>