<svg xmlns="http://www.w3.org/2000/svg" xmlns:xlink="http://www.w3.org/1999/xlink" contentStyleType="text/css" height="340px" preserveAspectRatio="none" style="width:377px;height:340px;background:#FFFFFF;" version="1.1" viewBox="0 0 377 340" width="377px" zoomAndPan="magnify"><defs/><g><text fill="#000000" font-family="sans-serif" font-size="14" font-weight="bold" lengthAdjust="spacing" textLength="313.4824" x="24.8639" y="22.9951">Class Adapter Pattern Formal Structure</text><!--entity Client--><g id="elem_Client"><rect fill="#F1F1F1" height="36.2969" rx="2.5" ry="2.5" style="stroke:#181818;stroke-width:0.5;" width="60.5303" x="129.49" y="44.2969"/><text fill="#000000" font-family="sans-serif" font-size="14" lengthAdjust="spacing" textLength="40.5303" x="139.49" y="67.292">Client</text></g><!--class Target--><g id="elem_Target"><rect codeLine="9" fill="#F1F1F1" height="64.2969" id="Target" rx="2.5" ry="2.5" style="stroke:#181818;stroke-width:0.5;" width="80.4209" x="119.54" y="140.5869"/><ellipse cx="135.6852" cy="156.5869" fill="#ADD1B2" rx="11" ry="11" style="stroke:#181818;stroke-width:1.0;"/><path d="M138.654,162.2275 Q138.0758,162.5244 137.4352,162.665 Q136.7946,162.8212 136.0915,162.8212 Q133.5915,162.8212 132.2633,161.1806 Q130.9508,159.5244 130.9508,156.3994 Q130.9508,153.2744 132.2633,151.6181 Q133.5915,149.9619 136.0915,149.9619 Q136.7946,149.9619 137.4352,150.1181 Q138.0915,150.2744 138.654,150.5712 L138.654,153.29 Q138.029,152.7119 137.4352,152.4462 Q136.8415,152.165 136.2165,152.165 Q134.8727,152.165 134.1852,153.2431 Q133.4977,154.3056 133.4977,156.3994 Q133.4977,158.4931 134.1852,159.5712 Q134.8727,160.6337 136.2165,160.6337 Q136.8415,160.6337 137.4352,160.3681 Q138.029,160.0869 138.654,159.5087 L138.654,162.2275 Z " fill="#000000"/><text fill="#000000" font-family="sans-serif" font-size="14" lengthAdjust="spacing" textLength="45.876" x="149.9397" y="161.4336">Target</text><line style="stroke:#181818;stroke-width:0.5;" x1="120.54" x2="198.9609" y1="172.5869" y2="172.5869"/><line style="stroke:#181818;stroke-width:0.5;" x1="120.54" x2="198.9609" y1="180.5869" y2="180.5869"/><text fill="#000000" font-family="sans-serif" font-size="14" lengthAdjust="spacing" textLength="68.4209" x="125.54" y="197.582">Request()</text></g><!--class Adaptee--><g id="elem_Adaptee"><rect codeLine="10" fill="#F1F1F1" height="64.2969" id="Adaptee" rx="2.5" ry="2.5" style="stroke:#181818;stroke-width:0.5;" width="134.9102" x="235.3" y="140.5869"/><ellipse cx="270.2191" cy="156.5869" fill="#ADD1B2" rx="11" ry="11" style="stroke:#181818;stroke-width:1.0;"/><path d="M273.1878,162.2275 Q272.6097,162.5244 271.9691,162.665 Q271.3285,162.8212 270.6253,162.8212 Q268.1253,162.8212 266.7972,161.1806 Q265.4847,159.5244 265.4847,156.3994 Q265.4847,153.2744 266.7972,151.6181 Q268.1253,149.9619 270.6253,149.9619 Q271.3285,149.9619 271.9691,150.1181 Q272.6253,150.2744 273.1878,150.5712 L273.1878,153.29 Q272.5628,152.7119 271.9691,152.4462 Q271.3753,152.165 270.7503,152.165 Q269.4066,152.165 268.7191,153.2431 Q268.0316,154.3056 268.0316,156.3994 Q268.0316,158.4931 268.7191,159.5712 Q269.4066,160.6337 270.7503,160.6337 Q271.3753,160.6337 271.9691,160.3681 Q272.5628,160.0869 273.1878,159.5087 L273.1878,162.2275 Z " fill="#000000"/><text fill="#000000" font-family="sans-serif" font-size="14" lengthAdjust="spacing" textLength="58.6455" x="288.6456" y="161.4336">Adaptee</text><line style="stroke:#181818;stroke-width:0.5;" x1="236.3" x2="369.2102" y1="172.5869" y2="172.5869"/><line style="stroke:#181818;stroke-width:0.5;" x1="236.3" x2="369.2102" y1="180.5869" y2="180.5869"/><text fill="#000000" font-family="sans-serif" font-size="14" lengthAdjust="spacing" textLength="122.9102" x="241.3" y="197.582">SpecificRequest()</text></g><!--class Adapter--><g id="elem_Adapter"><rect codeLine="11" fill="#F1F1F1" height="64.2969" id="Adapter" rx="2.5" ry="2.5" style="stroke:#181818;stroke-width:0.5;" width="87.7881" x="188.26" y="268.8869"/><ellipse cx="203.26" cy="284.8869" fill="#ADD1B2" rx="11" ry="11" style="stroke:#181818;stroke-width:1.0;"/><path d="M206.2288,290.5275 Q205.6506,290.8244 205.01,290.965 Q204.3694,291.1213 203.6663,291.1213 Q201.1663,291.1213 199.8381,289.4806 Q198.5256,287.8244 198.5256,284.6994 Q198.5256,281.5744 199.8381,279.9181 Q201.1663,278.2619 203.6663,278.2619 Q204.3694,278.2619 205.01,278.4181 Q205.6663,278.5744 206.2288,278.8713 L206.2288,281.59 Q205.6038,281.0119 205.01,280.7463 Q204.4163,280.465 203.7913,280.465 Q202.4475,280.465 201.76,281.5431 Q201.0725,282.6056 201.0725,284.6994 Q201.0725,286.7931 201.76,287.8713 Q202.4475,288.9338 203.7913,288.9338 Q204.4163,288.9338 205.01,288.6681 Q205.6038,288.3869 206.2288,287.8088 L206.2288,290.5275 Z " fill="#000000"/><text fill="#000000" font-family="sans-serif" font-size="14" lengthAdjust="spacing" textLength="55.7881" x="217.26" y="289.7336">Adapter</text><line style="stroke:#181818;stroke-width:0.5;" x1="189.26" x2="275.0481" y1="300.8869" y2="300.8869"/><line style="stroke:#181818;stroke-width:0.5;" x1="189.26" x2="275.0481" y1="308.8869" y2="308.8869"/><text fill="#000000" font-family="sans-serif" font-size="14" lengthAdjust="spacing" textLength="68.4209" x="194.26" y="325.882">Request()</text></g><g id="elem_nAdapterSpecificRequest"><path d="M6,288.3169 L6,313.4497 A0,0 0 0 0 6,313.4497 L145.5107,313.4497 A0,0 0 0 0 145.5107,313.4497 L145.5107,306.3169 L180.58,300.8869 L145.5107,298.3169 L145.5107,298.3169 L135.5107,288.3169 L6,288.3169 A0,0 0 0 0 6,288.3169 " fill="#FEFFDD" style="stroke:#181818;stroke-width:0.5;"/><path d="M135.5107,288.3169 L135.5107,298.3169 L145.5107,298.3169 L135.5107,288.3169 " fill="#FEFFDD" style="stroke:#181818;stroke-width:0.5;"/><text fill="#000000" font-family="sans-serif" font-size="13" lengthAdjust="spacing" textLength="118.5107" x="12" y="305.3838">SpecificRequest();</text></g><!--reverse link Target to Adapter--><g id="link_Target_Adapter"><path codeLine="18" d="M190.11,223.0769 C190.11,241.3169 190.11,246.1469 190.11,264.9469 " fill="none" id="Target-backto-Adapter" style="stroke:#181818;stroke-width:1.0;"/><polygon fill="none" points="190.11,205.0769,184.11,223.0769,196.11,223.0769,190.11,205.0769" style="stroke:#181818;stroke-width:1.0;"/></g><!--reverse link Adaptee to Adapter--><g id="link_Adaptee_Adapter"><path codeLine="19" d="M259.28,223.0769 C259.28,241.3169 259.28,246.1469 259.28,264.9469 " fill="none" id="Adaptee-backto-Adapter" style="stroke:#181818;stroke-width:1.0;"/><polygon fill="none" points="259.28,205.0769,253.28,223.0769,265.28,223.0769,259.28,205.0769" style="stroke:#181818;stroke-width:1.0;"/><text fill="#000000" font-family="sans-serif" font-size="13" lengthAdjust="spacing" textLength="103.0034" x="155.28" y="231.0738">implementation</text></g><!--link Client to Target--><g id="link_Client_Target"><path codeLine="21" d="M159.76,80.6569 C159.76,96.8069 159.76,114.7869 159.76,134.2269 " fill="none" id="Client-to-Target" style="stroke:#181818;stroke-width:1.0;"/><polygon fill="#181818" points="159.76,140.2269,163.76,131.2269,159.76,135.2269,155.76,131.2269,159.76,140.2269" style="stroke:#181818;stroke-width:1.0;"/></g><!--SRC=[TOv1JWCn34NtFeMNT34SOAYGAYJMY781AtK7YyG9ZaUq4eSdT6OG7KGsaUt_lXx5c3-Id4G7g6-YXOmIHb7sSs7CvgyPmCKZuqEaMd5teE9i-4JUFiN7R8aYxjt6uACn0XW79nqkYB0wGBYWBsG3-pnCFNmr6G1C8UpncTz7hdwpWJdQTll2GOuIrZUxoYyTsy-k-sbUIdul6oMfH4vDaboo0ap6s7NtYoveTaQgg3EraW1ixu_O7R0Uy1k5VpYyNJJwVbtv1G00]--></g></svg>