<svg xmlns="http://www.w3.org/2000/svg" xmlns:xlink="http://www.w3.org/1999/xlink" contentStyleType="text/css" height="243px" preserveAspectRatio="none" style="width:525px;height:243px;background:#FFFFFF;" version="1.1" viewBox="0 0 525 243" width="525px" zoomAndPan="magnify"><defs/><g><text fill="#000000" font-family="sans-serif" font-size="14" font-weight="bold" lengthAdjust="spacing" textLength="323.5039" x="94.0381" y="22.9951">Object Adapter Pattern Formal Structure</text><!--entity Client--><g id="elem_Client"><rect fill="#F1F1F1" height="36.2969" rx="2.5" ry="2.5" style="stroke:#181818;stroke-width:0.5;" width="60.5303" x="161.86" y="58.2969"/><text fill="#000000" font-family="sans-serif" font-size="14" lengthAdjust="spacing" textLength="40.5303" x="171.86" y="81.292">Client</text></g><!--class Target--><g id="elem_Target"><rect codeLine="9" fill="#F1F1F1" height="64.2969" id="Target" rx="2.5" ry="2.5" style="stroke:#181818;stroke-width:0.5;" width="80.4209" x="256.91" y="44.2969"/><ellipse cx="273.0552" cy="60.2969" fill="#ADD1B2" rx="11" ry="11" style="stroke:#181818;stroke-width:1.0;"/><path d="M276.024,65.9375 Q275.4458,66.2344 274.8052,66.375 Q274.1646,66.5313 273.4615,66.5313 Q270.9615,66.5313 269.6333,64.8906 Q268.3208,63.2344 268.3208,60.1094 Q268.3208,56.9844 269.6333,55.3281 Q270.9615,53.6719 273.4615,53.6719 Q274.1646,53.6719 274.8052,53.8281 Q275.4615,53.9844 276.024,54.2813 L276.024,57 Q275.399,56.4219 274.8052,56.1563 Q274.2115,55.875 273.5865,55.875 Q272.2427,55.875 271.5552,56.9531 Q270.8677,58.0156 270.8677,60.1094 Q270.8677,62.2031 271.5552,63.2813 Q272.2427,64.3438 273.5865,64.3438 Q274.2115,64.3438 274.8052,64.0781 Q275.399,63.7969 276.024,63.2188 L276.024,65.9375 Z " fill="#000000"/><text fill="#000000" font-family="sans-serif" font-size="14" lengthAdjust="spacing" textLength="45.876" x="287.3097" y="65.1436">Target</text><line style="stroke:#181818;stroke-width:0.5;" x1="257.91" x2="336.3309" y1="76.2969" y2="76.2969"/><line style="stroke:#181818;stroke-width:0.5;" x1="257.91" x2="336.3309" y1="84.2969" y2="84.2969"/><text fill="#000000" font-family="sans-serif" font-size="14" lengthAdjust="spacing" textLength="68.4209" x="262.91" y="101.292">Request()</text></g><!--class Adapter--><g id="elem_Adapter"><rect codeLine="10" fill="#F1F1F1" height="64.2969" id="Adapter" rx="2.5" ry="2.5" style="stroke:#181818;stroke-width:0.5;" width="87.7881" x="253.62" y="172.5969"/><ellipse cx="268.62" cy="188.5969" fill="#ADD1B2" rx="11" ry="11" style="stroke:#181818;stroke-width:1.0;"/><path d="M271.5888,194.2375 Q271.0106,194.5344 270.37,194.675 Q269.7294,194.8313 269.0263,194.8313 Q266.5263,194.8313 265.1981,193.1906 Q263.8856,191.5344 263.8856,188.4094 Q263.8856,185.2844 265.1981,183.6281 Q266.5263,181.9719 269.0263,181.9719 Q269.7294,181.9719 270.37,182.1281 Q271.0263,182.2844 271.5888,182.5813 L271.5888,185.3 Q270.9638,184.7219 270.37,184.4563 Q269.7763,184.175 269.1513,184.175 Q267.8075,184.175 267.12,185.2531 Q266.4325,186.3156 266.4325,188.4094 Q266.4325,190.5031 267.12,191.5813 Q267.8075,192.6438 269.1513,192.6438 Q269.7763,192.6438 270.37,192.3781 Q270.9638,192.0969 271.5888,191.5188 L271.5888,194.2375 Z " fill="#000000"/><text fill="#000000" font-family="sans-serif" font-size="14" lengthAdjust="spacing" textLength="55.7881" x="282.62" y="193.4436">Adapter</text><line style="stroke:#181818;stroke-width:0.5;" x1="254.62" x2="340.4081" y1="204.5969" y2="204.5969"/><line style="stroke:#181818;stroke-width:0.5;" x1="254.62" x2="340.4081" y1="212.5969" y2="212.5969"/><text fill="#000000" font-family="sans-serif" font-size="14" lengthAdjust="spacing" textLength="68.4209" x="259.62" y="229.592">Request()</text></g><!--class Adaptee--><g id="elem_Adaptee"><rect codeLine="11" fill="#F1F1F1" height="64.2969" id="Adaptee" rx="2.5" ry="2.5" style="stroke:#181818;stroke-width:0.5;" width="134.9102" x="383.67" y="172.4469"/><ellipse cx="418.5891" cy="188.4469" fill="#ADD1B2" rx="11" ry="11" style="stroke:#181818;stroke-width:1.0;"/><path d="M421.5578,194.0875 Q420.9797,194.3844 420.3391,194.525 Q419.6985,194.6813 418.9953,194.6813 Q416.4953,194.6813 415.1672,193.0406 Q413.8547,191.3844 413.8547,188.2594 Q413.8547,185.1344 415.1672,183.4781 Q416.4953,181.8219 418.9953,181.8219 Q419.6985,181.8219 420.3391,181.9781 Q420.9953,182.1344 421.5578,182.4313 L421.5578,185.15 Q420.9328,184.5719 420.3391,184.3063 Q419.7453,184.025 419.1203,184.025 Q417.7766,184.025 417.0891,185.1031 Q416.4016,186.1656 416.4016,188.2594 Q416.4016,190.3531 417.0891,191.4313 Q417.7766,192.4938 419.1203,192.4938 Q419.7453,192.4938 420.3391,192.2281 Q420.9328,191.9469 421.5578,191.3688 L421.5578,194.0875 Z " fill="#000000"/><text fill="#000000" font-family="sans-serif" font-size="14" lengthAdjust="spacing" textLength="58.6455" x="437.0156" y="193.2936">Adaptee</text><line style="stroke:#181818;stroke-width:0.5;" x1="384.67" x2="517.5802" y1="204.4469" y2="204.4469"/><line style="stroke:#181818;stroke-width:0.5;" x1="384.67" x2="517.5802" y1="212.4469" y2="212.4469"/><text fill="#000000" font-family="sans-serif" font-size="14" lengthAdjust="spacing" textLength="122.9102" x="389.67" y="229.442">SpecificRequest()</text></g><g id="elem_nAdapterRequest"><path d="M6,192.0269 L6,217.1597 A0,0 0 0 0 6,217.1597 L210.2441,217.1597 A0,0 0 0 0 210.2441,217.1597 L210.2441,210.0269 L297,204.5969 L210.2441,202.0269 L210.2441,202.0269 L200.2441,192.0269 L6,192.0269 A0,0 0 0 0 6,192.0269 " fill="#FEFFDD" style="stroke:#181818;stroke-width:0.5;"/><path d="M200.2441,192.0269 L200.2441,202.0269 L210.2441,202.0269 L200.2441,192.0269 " fill="#FEFFDD" style="stroke:#181818;stroke-width:0.5;"/><text fill="#000000" font-family="sans-serif" font-size="13" lengthAdjust="spacing" textLength="183.2441" x="12" y="209.0938">adaptee-&gt;SpecificRequest()</text></g><!--reverse link Target to Adapter--><g id="link_Target_Adapter"><path codeLine="17" d="M297.12,126.7869 C297.12,145.0269 297.12,149.8569 297.12,168.6569 " fill="none" id="Target-backto-Adapter" style="stroke:#181818;stroke-width:1.0;"/><polygon fill="none" points="297.12,108.7869,291.12,126.7869,303.12,126.7869,297.12,108.7869" style="stroke:#181818;stroke-width:1.0;"/></g><!--link Adapter to Adaptee--><g id="link_Adapter_Adaptee"><path codeLine="19" d="M348.4,204.5969 C359.6,204.5969 365.62,204.5969 377.35,204.5969 " fill="none" id="Adapter-to-Adaptee" style="stroke:#181818;stroke-width:1.0;"/><polygon fill="#181818" points="383.35,204.5969,374.35,200.5969,378.35,204.5969,374.35,208.5969,383.35,204.5969" style="stroke:#181818;stroke-width:1.0;"/><text fill="#000000" font-family="sans-serif" font-size="13" lengthAdjust="spacing" textLength="53.5298" x="321.8843" y="198.7773">adaptee</text></g><!--link Client to Target--><g id="link_Client_Target"><path codeLine="20" d="M222.77,76.4469 C233.31,76.4469 239.27,76.4469 250.47,76.4469 " fill="none" id="Client-to-Target" style="stroke:#181818;stroke-width:1.0;"/><polygon fill="#181818" points="256.47,76.4469,247.47,72.4469,251.47,76.4469,247.47,80.4469,256.47,76.4469" style="stroke:#181818;stroke-width:1.0;"/></g><!--SRC=[POv1hi8m34JtFeN52XRz1wWG4a9YonTm0HDC2QHEILm14eSdg6aHa4taiT_Ca7F-MjkRbGhYsKf3WMfqLbZl3QCFUlG0QjKnhdOdDehpFJNA0Vz9qoUuzA4cXniDhT4sC418PoHLGXREiYY0SHGZRYbKh7d8DXzJOhiRB77DbvQZZYVG1_vgdBHDmyOUh7dlUe_feoY6cC5bH1qwmc8sn7OzNqhk2EALaI9Avh8zO7hPePZzPhFiyON25uT_VPEoxAsU]--></g></svg>