<?xml version="1.0" encoding="us-ascii" standalone="no"?><svg xmlns="http://www.w3.org/2000/svg" xmlns:xlink="http://www.w3.org/1999/xlink" contentStyleType="text/css" height="507px" preserveAspectRatio="none" style="width:943px;height:507px;background:#FFFFFF;" version="1.1" viewBox="0 0 943 507" width="943px" zoomAndPan="magnify"><defs/><g><text fill="#000000" font-family="sans-serif" font-size="14" font-weight="bold" lengthAdjust="spacing" textLength="239" x="345.25" y="22.9951">Simple Singleton Sample Code</text><!--class AbstractMazeFactory--><g id="elem_AbstractMazeFactory"><rect codeLine="6" fill="#F1F1F1" height="113.1875" id="AbstractMazeFactory" rx="2.5" ry="2.5" style="stroke:#181818;stroke-width:0.5;" width="176" x="451.5" y="44.2969"/><ellipse cx="466.5" cy="60.2969" fill="#A9DCDF" rx="11" ry="11" style="stroke:#181818;stroke-width:1.0;"/><path d="M466.6094,55.6406 L465.4531,60.7188 L467.7813,60.7188 L466.6094,55.6406 Z M465.125,53.4063 L468.1094,53.4063 L471.4688,65.7969 L469.0156,65.7969 L468.25,62.7344 L464.9688,62.7344 L464.2188,65.7969 L461.7813,65.7969 L465.125,53.4063 Z " fill="#000000"/><text fill="#000000" font-family="sans-serif" font-size="14" font-style="italic" lengthAdjust="spacing" textLength="144" x="480.5" y="65.1436">AbstractMazeFactory</text><line style="stroke:#181818;stroke-width:0.5;" x1="452.5" x2="626.5" y1="76.2969" y2="76.2969"/><line style="stroke:#181818;stroke-width:0.5;" x1="452.5" x2="626.5" y1="84.2969" y2="84.2969"/><ellipse cx="462.5" cy="97.9453" fill="#84BE84" rx="3" ry="3" style="stroke:#038048;stroke-width:1.0;"/><text fill="#000000" font-family="sans-serif" font-size="14" lengthAdjust="spacing" textLength="135" x="471.5" y="101.292">makeMaze() : Maze</text><ellipse cx="462.5" cy="114.2422" fill="#84BE84" rx="3" ry="3" style="stroke:#038048;stroke-width:1.0;"/><text fill="#000000" font-family="sans-serif" font-size="14" lengthAdjust="spacing" textLength="143" x="471.5" y="117.5889">makeRoom() : Room</text><ellipse cx="462.5" cy="130.5391" fill="#84BE84" rx="3" ry="3" style="stroke:#038048;stroke-width:1.0;"/><text fill="#000000" font-family="sans-serif" font-size="14" lengthAdjust="spacing" textLength="115" x="471.5" y="133.8857">makeWall() : Wall</text><ellipse cx="462.5" cy="146.8359" fill="#84BE84" rx="3" ry="3" style="stroke:#038048;stroke-width:1.0;"/><text fill="#000000" font-family="sans-serif" font-size="14" lengthAdjust="spacing" textLength="129" x="471.5" y="150.1826">makeDoor() : Door</text></g><!--class MazeFactory--><g id="elem_MazeFactory"><rect codeLine="7" fill="#F1F1F1" height="162.0781" id="MazeFactory" rx="2.5" ry="2.5" style="stroke:#181818;stroke-width:0.5;" width="241" x="574" y="222.4769"/><ellipse cx="646.75" cy="238.4769" fill="#ADD1B2" rx="11" ry="11" style="stroke:#181818;stroke-width:1.0;"/><path d="M649.7188,244.1175 Q649.1406,244.4144 648.5,244.555 Q647.8594,244.7113 647.1563,244.7113 Q644.6563,244.7113 643.3281,243.0706 Q642.0156,241.4144 642.0156,238.2894 Q642.0156,235.1644 643.3281,233.5081 Q644.6563,231.8519 647.1563,231.8519 Q647.8594,231.8519 648.5,232.0081 Q649.1563,232.1644 649.7188,232.4613 L649.7188,235.18 Q649.0938,234.6019 648.5,234.3363 Q647.9063,234.055 647.2813,234.055 Q645.9375,234.055 645.25,235.1331 Q644.5625,236.1956 644.5625,238.2894 Q644.5625,240.3831 645.25,241.4613 Q645.9375,242.5238 647.2813,242.5238 Q647.9063,242.5238 648.5,242.2581 Q649.0938,241.9769 649.7188,241.3988 L649.7188,244.1175 Z " fill="#000000"/><text fill="#000000" font-family="sans-serif" font-size="14" lengthAdjust="spacing" textLength="87" x="667.25" y="243.3236">MazeFactory</text><line style="stroke:#181818;stroke-width:0.5;" x1="575" x2="814" y1="254.4769" y2="254.4769"/><rect fill="none" height="6" style="stroke:#C82930;stroke-width:1.0;" width="6" x="582" y="265.1253"/><text fill="#000000" font-family="sans-serif" font-size="14" lengthAdjust="spacing" text-decoration="underline" textLength="207" x="594" y="271.472">uniqueInstance : MazeFactory</text><line style="stroke:#181818;stroke-width:0.5;" x1="575" x2="814" y1="278.7738" y2="278.7738"/><ellipse cx="585" cy="292.4222" fill="#84BE84" rx="3" ry="3" style="stroke:#038048;stroke-width:1.0;"/><text fill="#000000" font-family="sans-serif" font-size="14" lengthAdjust="spacing" text-decoration="underline" textLength="169" x="594" y="295.7689">instance() : MazeFactory</text><polygon fill="#FFFF44" points="585,303.7191,589,307.7191,585,311.7191,581,307.7191" style="stroke:#B38D22;stroke-width:1.0;"/><text fill="#000000" font-family="sans-serif" font-size="14" lengthAdjust="spacing" textLength="97" x="594" y="312.0657">MazeFactory()</text><ellipse cx="585" cy="325.0159" fill="#84BE84" rx="3" ry="3" style="stroke:#038048;stroke-width:1.0;"/><text fill="#000000" font-family="sans-serif" font-size="14" lengthAdjust="spacing" textLength="135" x="594" y="328.3626">makeMaze() : Maze</text><ellipse cx="585" cy="341.3128" fill="#84BE84" rx="3" ry="3" style="stroke:#038048;stroke-width:1.0;"/><text fill="#000000" font-family="sans-serif" font-size="14" lengthAdjust="spacing" textLength="160" x="594" y="344.6595">makeRoom(int) : Room</text><ellipse cx="585" cy="357.6097" fill="#84BE84" rx="3" ry="3" style="stroke:#038048;stroke-width:1.0;"/><text fill="#000000" font-family="sans-serif" font-size="14" lengthAdjust="spacing" textLength="115" x="594" y="360.9564">makeWall() : Wall</text><ellipse cx="585" cy="373.9066" fill="#84BE84" rx="3" ry="3" style="stroke:#038048;stroke-width:1.0;"/><text fill="#000000" font-family="sans-serif" font-size="14" lengthAdjust="spacing" textLength="215" x="594" y="377.2532">makeDoor(Room,Room) : Door</text></g><!--class BombMazeFactory--><g id="elem_BombMazeFactory"><rect codeLine="8" fill="#F1F1F1" height="162.0781" id="BombMazeFactory" rx="2.5" ry="2.5" style="stroke:#181818;stroke-width:0.5;" width="274" x="248.5" y="222.4769"/><ellipse cx="317.25" cy="238.4769" fill="#ADD1B2" rx="11" ry="11" style="stroke:#181818;stroke-width:1.0;"/><path d="M320.2188,244.1175 Q319.6406,244.4144 319,244.555 Q318.3594,244.7113 317.6563,244.7113 Q315.1563,244.7113 313.8281,243.0706 Q312.5156,241.4144 312.5156,238.2894 Q312.5156,235.1644 313.8281,233.5081 Q315.1563,231.8519 317.6563,231.8519 Q318.3594,231.8519 319,232.0081 Q319.6563,232.1644 320.2188,232.4613 L320.2188,235.18 Q319.5938,234.6019 319,234.3363 Q318.4063,234.055 317.7813,234.055 Q316.4375,234.055 315.75,235.1331 Q315.0625,236.1956 315.0625,238.2894 Q315.0625,240.3831 315.75,241.4613 Q316.4375,242.5238 317.7813,242.5238 Q318.4063,242.5238 319,242.2581 Q319.5938,241.9769 320.2188,241.3988 L320.2188,244.1175 Z " fill="#000000"/><text fill="#000000" font-family="sans-serif" font-size="14" lengthAdjust="spacing" textLength="128" x="337.75" y="243.3236">BombMazeFactory</text><line style="stroke:#181818;stroke-width:0.5;" x1="249.5" x2="521.5" y1="254.4769" y2="254.4769"/><rect fill="none" height="6" style="stroke:#C82930;stroke-width:1.0;" width="6" x="256.5" y="265.1253"/><text fill="#000000" font-family="sans-serif" font-size="14" lengthAdjust="spacing" text-decoration="underline" textLength="248" x="268.5" y="271.472">uniqueInstance : BombMazeFactory</text><line style="stroke:#181818;stroke-width:0.5;" x1="249.5" x2="521.5" y1="278.7738" y2="278.7738"/><ellipse cx="259.5" cy="292.4222" fill="#84BE84" rx="3" ry="3" style="stroke:#038048;stroke-width:1.0;"/><text fill="#000000" font-family="sans-serif" font-size="14" lengthAdjust="spacing" text-decoration="underline" textLength="210" x="268.5" y="295.7689">instance() : BombMazeFactory</text><polygon fill="#FFFF44" points="259.5,303.7191,263.5,307.7191,259.5,311.7191,255.5,307.7191" style="stroke:#B38D22;stroke-width:1.0;"/><text fill="#000000" font-family="sans-serif" font-size="14" lengthAdjust="spacing" textLength="138" x="268.5" y="312.0657">BombMazeFactory()</text><ellipse cx="259.5" cy="325.0159" fill="#84BE84" rx="3" ry="3" style="stroke:#038048;stroke-width:1.0;"/><text fill="#000000" font-family="sans-serif" font-size="14" lengthAdjust="spacing" textLength="135" x="268.5" y="328.3626">makeMaze() : Maze</text><ellipse cx="259.5" cy="341.3128" fill="#84BE84" rx="3" ry="3" style="stroke:#038048;stroke-width:1.0;"/><text fill="#000000" font-family="sans-serif" font-size="14" lengthAdjust="spacing" textLength="201" x="268.5" y="344.6595">makeRoom(int) : RoomBomb</text><ellipse cx="259.5" cy="357.6097" fill="#84BE84" rx="3" ry="3" style="stroke:#038048;stroke-width:1.0;"/><text fill="#000000" font-family="sans-serif" font-size="14" lengthAdjust="spacing" textLength="115" x="268.5" y="360.9564">makeWall() : Wall</text><ellipse cx="259.5" cy="373.9066" fill="#84BE84" rx="3" ry="3" style="stroke:#038048;stroke-width:1.0;"/><text fill="#000000" font-family="sans-serif" font-size="14" lengthAdjust="spacing" textLength="215" x="268.5" y="377.2532">makeDoor(Room,Room) : Door</text></g><!--entity Maze--><g id="elem_Maze"><rect fill="#F1F1F1" height="36.2969" rx="2.5" ry="2.5" style="stroke:#181818;stroke-width:0.5;" width="57" x="464" y="465.4769"/><text fill="#000000" font-family="sans-serif" font-size="14" lengthAdjust="spacing" textLength="37" x="474" y="488.472">Maze</text></g><!--entity Room--><g id="elem_Room"><rect fill="#F1F1F1" height="36.2969" rx="2.5" ry="2.5" style="stroke:#181818;stroke-width:0.5;" width="61" x="595" y="465.4769"/><text fill="#000000" font-family="sans-serif" font-size="14" lengthAdjust="spacing" textLength="41" x="605" y="488.472">Room</text></g><g id="elem_general"><path d="M662.5,65.6169 L662.5,136.1481 L936.5,136.1481 L936.5,75.6169 L926.5,65.6169 L662.5,65.6169 " fill="#FEFFDD" style="stroke:#181818;stroke-width:0.5;"/><path d="M926.5,65.6169 L926.5,75.6169 L936.5,75.6169 L926.5,65.6169 " fill="#FEFFDD" style="stroke:#181818;stroke-width:1.0;"/><text fill="#000000" font-family="sans-serif" font-size="13" font-weight="bold" lengthAdjust="spacing" textLength="35" x="668.5" y="82.6838">Note</text><text fill="#000000" font-family="sans-serif" font-size="13" lengthAdjust="spacing" textLength="199" x="707.5" y="82.6838">that every subclass has its own</text><text fill="#000000" font-family="sans-serif" font-size="13" lengthAdjust="spacing" textLength="231" x="668.5" y="97.8166">uniqueInstance object, which means</text><text fill="#000000" font-family="sans-serif" font-size="13" lengthAdjust="spacing" textLength="249" x="668.5" y="112.9494">that we can have more than one single</text><text fill="#000000" font-family="sans-serif" font-size="13" lengthAdjust="spacing" textLength="163" x="668.5" y="128.0822">factory at the same time.</text></g><g id="elem_ninstance"><path d="M6,275.7769 L6,331.1753 L205,331.1753 L205,285.7769 L195,275.7769 L6,275.7769 " fill="#FEFFDD" style="stroke:#181818;stroke-width:0.5;"/><path d="M195,275.7769 L195,285.7769 L205,285.7769 L195,275.7769 " fill="#FEFFDD" style="stroke:#181818;stroke-width:1.0;"/><text fill="#000000" font-family="sans-serif" font-size="13" lengthAdjust="spacing" textLength="113" x="12" y="292.8438">if (instance == 0)</text><text fill="#000000" font-family="sans-serif" font-size="13" lengthAdjust="spacing" textLength="162" x="28" y="307.9766">instance = new Singleton</text><text fill="#000000" font-family="sans-serif" font-size="13" lengthAdjust="spacing" textLength="101" x="12" y="323.1094">return instance;</text></g><!--reverse link AbstractMazeFactory to MazeFactory--><g id="link_AbstractMazeFactory_MazeFactory"><path codeLine="34" d="M593.6876,172.0088 C608.2876,190.8988 613.92,198.1869 629.81,218.7669 " fill="none" id="AbstractMazeFactory-backto-MazeFactory" style="stroke:#181818;stroke-width:1.0;"/><polygon fill="none" points="582.68,157.7669,588.9402,175.678,598.4349,168.3397,582.68,157.7669" style="stroke:#181818;stroke-width:1.0;"/></g><!--reverse link AbstractMazeFactory to BombMazeFactory--><g id="link_AbstractMazeFactory_BombMazeFactory"><path codeLine="35" d="M485.6398,172.0453 C471.1398,190.9353 465.57,198.1869 449.77,218.7669 " fill="none" id="AbstractMazeFactory-backto-BombMazeFactory" style="stroke:#181818;stroke-width:1.0;"/><polygon fill="none" points="496.6,157.7669,480.8803,168.3919,490.3993,175.6987,496.6,157.7669" style="stroke:#181818;stroke-width:1.0;"/></g><!--link MazeFactory to Maze--><g id="link_MazeFactory_Maze"><path codeLine="37" d="M616.56,388.3069 C599.97,404.6169 582.12,421.0969 564.5,435.4769 C551.07,446.4369 540.1224,453.974 526.5924,462.404 " fill="none" id="MazeFactory-to-Maze" style="stroke:#181818;stroke-width:1.0;stroke-dasharray:7.0,7.0;"/><polygon fill="#181818" points="521.5,465.5769,531.2539,464.2125,525.7437,462.9328,527.0234,457.4226,521.5,465.5769" style="stroke:#181818;stroke-width:1.0;"/><text fill="#000000" font-family="sans-serif" font-size="13" lengthAdjust="spacing" textLength="41" x="584.5" y="431.5438">create</text></g><!--link BombMazeFactory to Maze--><g id="link_BombMazeFactory_Maze"><path codeLine="38" d="M403.65,388.2969 C409.57,404.8669 417.34,421.4569 427.5,435.4769 C436.9,448.4669 445.899,456.0899 458.549,464.0899 " fill="none" id="BombMazeFactory-to-Maze" style="stroke:#181818;stroke-width:1.0;stroke-dasharray:7.0,7.0;"/><polygon fill="#181818" points="463.62,467.2969,458.1514,459.1057,459.3941,464.6244,453.8755,465.8671,463.62,467.2969" style="stroke:#181818;stroke-width:1.0;"/><text fill="#000000" font-family="sans-serif" font-size="13" lengthAdjust="spacing" textLength="41" x="428.5" y="431.5438">create</text></g><!--link MazeFactory to Room--><g id="link_MazeFactory_Room"><path codeLine="39" d="M669.62,388.1669 C664.17,404.0769 658.04,420.4469 651.5,435.4769 C647.1,445.5969 644.2369,451.2047 639.1869,459.9247 " fill="none" id="MazeFactory-to-Room" style="stroke:#181818;stroke-width:1.0;stroke-dasharray:7.0,7.0;"/><polygon fill="#181818" points="636.18,465.1169,644.1518,459.3333,638.6858,460.7901,637.2289,455.324,636.18,465.1169" style="stroke:#181818;stroke-width:1.0;"/><text fill="#000000" font-family="sans-serif" font-size="13" lengthAdjust="spacing" textLength="41" x="657.5" y="431.5438">create</text></g><!--link BombMazeFactory to Room--><g id="link_BombMazeFactory_Room"><path codeLine="40" d="M457.41,388.2069 C474.64,405.2569 493.79,422.0569 513.5,435.4769 C538.79,452.6969 565.673,463.6243 589.163,471.5243 " fill="none" id="BombMazeFactory-to-Room" style="stroke:#181818;stroke-width:1.0;stroke-dasharray:7.0,7.0;"/><polygon fill="#181818" points="594.85,473.4369,587.5946,466.7766,590.1108,471.843,585.0444,474.3593,594.85,473.4369" style="stroke:#181818;stroke-width:1.0;"/><text fill="#000000" font-family="sans-serif" font-size="13" lengthAdjust="spacing" textLength="41" x="514.5" y="431.5438">create</text></g><!--link ninstance to MazeFactory--><g id="link_ninstance_MazeFactory"><path codeLine="54" d="M127.45,275.4669 C151.55,247.2069 193.1,205.3569 240,187.9769 C300.64,165.5169 475.04,155.5669 531,187.9769 C573.6,212.6569 523.77,290.4769 573,290.4769 " fill="none" id="ninstance-MazeFactory" style="stroke:#181818;stroke-width:1.0;stroke-dasharray:7.0,7.0;"/></g><!--link ninstance to BombMazeFactory--><g id="link_ninstance_BombMazeFactory"><path codeLine="55" d="M205.38,292.0469 C219.5,291.0869 233.86,290.4769 247.5,290.4769 " fill="none" id="ninstance-BombMazeFactory" style="stroke:#181818;stroke-width:1.0;stroke-dasharray:7.0,7.0;"/></g><!--SRC=[XPHDRzim38Rl-XK4Uacm9jivImDq7GRii1tMmywoozPQBMgJb7gV_tqKapYs72K-s2RvaA9U4OecjWZtndwN3psr61t1lHR7dNj0fNJRkiwQdnnbemhHwpf2tUeGu7PlVjA_yGD_dV-bTf6fvvsprT3hiOuwhIZimFpYd5NgH6bOmIkhdp6vPdEs9F4Cc2e9A2NFW5zvamAcdtFWU-UyWEb7AJL65l0dH1rD_G-sP7viyIEnJJNkUpriFIlS9vaztc_kTCBLm9pDrKM5IieOYhqu5qKfYP6ohzFhg4fsqacOiYxvM4oJ2_fSJhpANApLYUfJlGfGhbd2IknOkm9Kqk_K_At_BXQZaIX2kIwZarikDrA5rwezwZZTx9J8ewdPy_bZGf6B23h04n9wtIhWPrrjFhDx_RhQG6nq17n1pWxRQdTRDCoR6C1r97msDwxwnlV5DNIDgHkmg2c0S5AhGwWrSOqN1Eiy9Y-18uGWTzmEVTntp0cnuP2s31gBIuNq0AdfO-jq63t9D8ymEpZWvWRUpCKjeTuDXDtnJXN0OznwwfctnuNw-h0Sdl9grQyx93BD1zH_]--></g></svg>