<?xml version="1.0" encoding="us-ascii" standalone="no"?><svg xmlns="http://www.w3.org/2000/svg" xmlns:xlink="http://www.w3.org/1999/xlink" contentStyleType="text/css" height="701px" preserveAspectRatio="none" style="width:730px;height:701px;background:#FFFFFF;" version="1.1" viewBox="0 0 730 701" width="730px" zoomAndPan="magnify"><defs/><g><text fill="#000000" font-family="sans-serif" font-size="14" font-weight="bold" lengthAdjust="spacing" textLength="305" x="205.75" y="22.9951">Fixed Inherited Singleton Sample Code</text><!--class AbstractMazeFactory--><g id="elem_AbstractMazeFactory"><rect codeLine="6" fill="#F1F1F1" height="162.0781" id="AbstractMazeFactory" rx="2.5" ry="2.5" style="stroke:#181818;stroke-width:0.5;" width="344" x="94.5" y="209.0969"/><ellipse cx="190.25" cy="225.0969" fill="#ADD1B2" rx="11" ry="11" style="stroke:#181818;stroke-width:1.0;"/><path d="M193.2188,230.7375 Q192.6406,231.0344 192,231.175 Q191.3594,231.3313 190.6563,231.3313 Q188.1563,231.3313 186.8281,229.6906 Q185.5156,228.0344 185.5156,224.9094 Q185.5156,221.7844 186.8281,220.1281 Q188.1563,218.4719 190.6563,218.4719 Q191.3594,218.4719 192,218.6281 Q192.6563,218.7844 193.2188,219.0813 L193.2188,221.8 Q192.5938,221.2219 192,220.9563 Q191.4063,220.675 190.7813,220.675 Q189.4375,220.675 188.75,221.7531 Q188.0625,222.8156 188.0625,224.9094 Q188.0625,227.0031 188.75,228.0813 Q189.4375,229.1438 190.7813,229.1438 Q191.4063,229.1438 192,228.8781 Q192.5938,228.5969 193.2188,228.0188 L193.2188,230.7375 Z " fill="#000000"/><text fill="#000000" font-family="sans-serif" font-size="14" lengthAdjust="spacing" textLength="144" x="210.75" y="229.9436">AbstractMazeFactory</text><line style="stroke:#181818;stroke-width:0.5;" x1="95.5" x2="437.5" y1="241.0969" y2="241.0969"/><rect fill="none" height="6" style="stroke:#C82930;stroke-width:1.0;" width="6" x="102.5" y="251.7453"/><text fill="#000000" font-family="sans-serif" font-size="14" lengthAdjust="spacing" text-decoration="underline" textLength="264" x="114.5" y="258.092">uniqueInstance : AbstractMazeFactory</text><line style="stroke:#181818;stroke-width:0.5;" x1="95.5" x2="437.5" y1="265.3938" y2="265.3938"/><polygon fill="#FFFF44" points="105.5,274.0422,109.5,278.0422,105.5,282.0422,101.5,278.0422" style="stroke:#B38D22;stroke-width:1.0;"/><text fill="#000000" font-family="sans-serif" font-size="14" lengthAdjust="spacing" textLength="154" x="114.5" y="282.3889">AbstractMazeFactory()</text><ellipse cx="105.5" cy="295.3391" fill="#84BE84" rx="3" ry="3" style="stroke:#038048;stroke-width:1.0;"/><text fill="#000000" font-family="sans-serif" font-size="14" lengthAdjust="spacing" text-decoration="underline" textLength="318" x="114.5" y="298.6857">instance(name : String) : AbstractMazeFactory</text><ellipse cx="105.5" cy="311.6359" fill="#84BE84" rx="3" ry="3" style="stroke:#038048;stroke-width:1.0;"/><text fill="#000000" font-family="sans-serif" font-size="14" font-style="italic" lengthAdjust="spacing" textLength="133" x="114.5" y="314.9826">makeMaze() : Maze</text><ellipse cx="105.5" cy="327.9328" fill="#84BE84" rx="3" ry="3" style="stroke:#038048;stroke-width:1.0;"/><text fill="#000000" font-family="sans-serif" font-size="14" font-style="italic" lengthAdjust="spacing" textLength="143" x="114.5" y="331.2795">makeRoom() : Room</text><ellipse cx="105.5" cy="344.2297" fill="#84BE84" rx="3" ry="3" style="stroke:#038048;stroke-width:1.0;"/><text fill="#000000" font-family="sans-serif" font-size="14" font-style="italic" lengthAdjust="spacing" textLength="117" x="114.5" y="347.5764">makeWall() : Wall</text><ellipse cx="105.5" cy="360.5266" fill="#84BE84" rx="3" ry="3" style="stroke:#038048;stroke-width:1.0;"/><text fill="#000000" font-family="sans-serif" font-size="14" font-style="italic" lengthAdjust="spacing" textLength="129" x="114.5" y="363.8732">makeDoor() : Door</text></g><!--class MazeFactory--><g id="elem_MazeFactory"><rect codeLine="7" fill="#F1F1F1" height="145.7813" id="MazeFactory" rx="2.5" ry="2.5" style="stroke:#181818;stroke-width:0.5;" width="241" x="9" y="436.0969"/><ellipse cx="81.75" cy="452.0969" fill="#ADD1B2" rx="11" ry="11" style="stroke:#181818;stroke-width:1.0;"/><path d="M84.7188,457.7375 Q84.1406,458.0344 83.5,458.175 Q82.8594,458.3313 82.1563,458.3313 Q79.6563,458.3313 78.3281,456.6906 Q77.0156,455.0344 77.0156,451.9094 Q77.0156,448.7844 78.3281,447.1281 Q79.6563,445.4719 82.1563,445.4719 Q82.8594,445.4719 83.5,445.6281 Q84.1563,445.7844 84.7188,446.0813 L84.7188,448.8 Q84.0938,448.2219 83.5,447.9563 Q82.9063,447.675 82.2813,447.675 Q80.9375,447.675 80.25,448.7531 Q79.5625,449.8156 79.5625,451.9094 Q79.5625,454.0031 80.25,455.0813 Q80.9375,456.1438 82.2813,456.1438 Q82.9063,456.1438 83.5,455.8781 Q84.0938,455.5969 84.7188,455.0188 L84.7188,457.7375 Z " fill="#000000"/><text fill="#000000" font-family="sans-serif" font-size="14" lengthAdjust="spacing" textLength="87" x="102.25" y="456.9436">MazeFactory</text><line style="stroke:#181818;stroke-width:0.5;" x1="10" x2="249" y1="468.0969" y2="468.0969"/><ellipse cx="20" cy="481.7453" fill="none" rx="3" ry="3" style="stroke:#038048;stroke-width:1.0;"/><text fill="#000000" font-family="sans-serif" font-size="14" lengthAdjust="spacing" text-decoration="underline" textLength="93" x="29" y="485.092">NAME : String</text><line style="stroke:#181818;stroke-width:0.5;" x1="10" x2="249" y1="492.3938" y2="492.3938"/><polygon fill="#FFFF44" points="20,501.0422,24,505.0422,20,509.0422,16,505.0422" style="stroke:#B38D22;stroke-width:1.0;"/><text fill="#000000" font-family="sans-serif" font-size="14" lengthAdjust="spacing" textLength="97" x="29" y="509.3889">MazeFactory()</text><ellipse cx="20" cy="522.3391" fill="#84BE84" rx="3" ry="3" style="stroke:#038048;stroke-width:1.0;"/><text fill="#000000" font-family="sans-serif" font-size="14" lengthAdjust="spacing" textLength="135" x="29" y="525.6857">makeMaze() : Maze</text><ellipse cx="20" cy="538.6359" fill="#84BE84" rx="3" ry="3" style="stroke:#038048;stroke-width:1.0;"/><text fill="#000000" font-family="sans-serif" font-size="14" lengthAdjust="spacing" textLength="160" x="29" y="541.9826">makeRoom(int) : Room</text><ellipse cx="20" cy="554.9328" fill="#84BE84" rx="3" ry="3" style="stroke:#038048;stroke-width:1.0;"/><text fill="#000000" font-family="sans-serif" font-size="14" lengthAdjust="spacing" textLength="115" x="29" y="558.2795">makeWall() : Wall</text><ellipse cx="20" cy="571.2297" fill="#84BE84" rx="3" ry="3" style="stroke:#038048;stroke-width:1.0;"/><text fill="#000000" font-family="sans-serif" font-size="14" lengthAdjust="spacing" textLength="215" x="29" y="574.5764">makeDoor(Room,Room) : Door</text></g><!--class BombMazeFactory--><g id="elem_BombMazeFactory"><rect codeLine="8" fill="#F1F1F1" height="145.7813" id="BombMazeFactory" rx="2.5" ry="2.5" style="stroke:#181818;stroke-width:0.5;" width="241" x="285" y="436.0969"/><ellipse cx="337.25" cy="452.0969" fill="#ADD1B2" rx="11" ry="11" style="stroke:#181818;stroke-width:1.0;"/><path d="M340.2188,457.7375 Q339.6406,458.0344 339,458.175 Q338.3594,458.3313 337.6563,458.3313 Q335.1563,458.3313 333.8281,456.6906 Q332.5156,455.0344 332.5156,451.9094 Q332.5156,448.7844 333.8281,447.1281 Q335.1563,445.4719 337.6563,445.4719 Q338.3594,445.4719 339,445.6281 Q339.6563,445.7844 340.2188,446.0813 L340.2188,448.8 Q339.5938,448.2219 339,447.9563 Q338.4063,447.675 337.7813,447.675 Q336.4375,447.675 335.75,448.7531 Q335.0625,449.8156 335.0625,451.9094 Q335.0625,454.0031 335.75,455.0813 Q336.4375,456.1438 337.7813,456.1438 Q338.4063,456.1438 339,455.8781 Q339.5938,455.5969 340.2188,455.0188 L340.2188,457.7375 Z " fill="#000000"/><text fill="#000000" font-family="sans-serif" font-size="14" lengthAdjust="spacing" textLength="128" x="357.75" y="456.9436">BombMazeFactory</text><line style="stroke:#181818;stroke-width:0.5;" x1="286" x2="525" y1="468.0969" y2="468.0969"/><ellipse cx="296" cy="481.7453" fill="none" rx="3" ry="3" style="stroke:#038048;stroke-width:1.0;"/><text fill="#000000" font-family="sans-serif" font-size="14" lengthAdjust="spacing" text-decoration="underline" textLength="93" x="305" y="485.092">NAME : String</text><line style="stroke:#181818;stroke-width:0.5;" x1="286" x2="525" y1="492.3938" y2="492.3938"/><polygon fill="#FFFF44" points="296,501.0422,300,505.0422,296,509.0422,292,505.0422" style="stroke:#B38D22;stroke-width:1.0;"/><text fill="#000000" font-family="sans-serif" font-size="14" lengthAdjust="spacing" textLength="138" x="305" y="509.3889">BombMazeFactory()</text><ellipse cx="296" cy="522.3391" fill="#84BE84" rx="3" ry="3" style="stroke:#038048;stroke-width:1.0;"/><text fill="#000000" font-family="sans-serif" font-size="14" lengthAdjust="spacing" textLength="135" x="305" y="525.6857">makeMaze() : Maze</text><ellipse cx="296" cy="538.6359" fill="#84BE84" rx="3" ry="3" style="stroke:#038048;stroke-width:1.0;"/><text fill="#000000" font-family="sans-serif" font-size="14" lengthAdjust="spacing" textLength="201" x="305" y="541.9826">makeRoom(int) : RoomBomb</text><ellipse cx="296" cy="554.9328" fill="#84BE84" rx="3" ry="3" style="stroke:#038048;stroke-width:1.0;"/><text fill="#000000" font-family="sans-serif" font-size="14" lengthAdjust="spacing" textLength="115" x="305" y="558.2795">makeWall() : Wall</text><ellipse cx="296" cy="571.2297" fill="#84BE84" rx="3" ry="3" style="stroke:#038048;stroke-width:1.0;"/><text fill="#000000" font-family="sans-serif" font-size="14" lengthAdjust="spacing" textLength="215" x="305" y="574.5764">makeDoor(Room,Room) : Door</text></g><!--entity Maze--><g id="elem_Maze"><rect fill="#F1F1F1" height="36.2969" rx="2.5" ry="2.5" style="stroke:#181818;stroke-width:0.5;" width="57" x="191" y="658.8769"/><text fill="#000000" font-family="sans-serif" font-size="14" lengthAdjust="spacing" textLength="37" x="201" y="681.872">Maze</text></g><!--entity Room--><g id="elem_Room"><rect fill="#F1F1F1" height="36.2969" rx="2.5" ry="2.5" style="stroke:#181818;stroke-width:0.5;" width="61" x="322" y="658.8769"/><text fill="#000000" font-family="sans-serif" font-size="14" lengthAdjust="spacing" textLength="41" x="332" y="681.872">Room</text></g><g id="elem_general"><path d="M453.5,58.4369 L453.5,128.9681 L723.5,128.9681 L723.5,68.4369 L713.5,58.4369 L453.5,58.4369 " fill="#FEFFDD" style="stroke:#181818;stroke-width:0.5;"/><path d="M713.5,58.4369 L713.5,68.4369 L723.5,68.4369 L713.5,58.4369 " fill="#FEFFDD" style="stroke:#181818;stroke-width:1.0;"/><text fill="#000000" font-family="sans-serif" font-size="13" font-weight="bold" lengthAdjust="spacing" textLength="35" x="459.5" y="75.5038">Note</text><text fill="#000000" font-family="sans-serif" font-size="13" lengthAdjust="spacing" textLength="196" x="498.5" y="75.5038">who subclasses are hardcoded</text><text fill="#000000" font-family="sans-serif" font-size="13" lengthAdjust="spacing" textLength="244" x="459.5" y="90.6366">int the instance method, which means</text><text fill="#000000" font-family="sans-serif" font-size="13" lengthAdjust="spacing" textLength="208" x="459.5" y="105.7694">that any new subclasses needed</text><text fill="#000000" font-family="sans-serif" font-size="13" lengthAdjust="spacing" textLength="249" x="459.5" y="120.9022">requires base class to changed as well.</text></g><g id="elem_nAbstractMazeFactoryInstance"><path d="M114,43.2969 L114,144.0938 L419,144.0938 L419,53.2969 L409,43.2969 L114,43.2969 " fill="#FEFFDD" style="stroke:#181818;stroke-width:0.5;"/><path d="M409,43.2969 L409,53.2969 L419,53.2969 L409,43.2969 " fill="#FEFFDD" style="stroke:#181818;stroke-width:1.0;"/><text fill="#000000" font-family="sans-serif" font-size="13" lengthAdjust="spacing" textLength="146" x="120" y="60.3638">if(uniqueInstance != 0)</text><text fill="#000000" font-family="sans-serif" font-size="13" lengthAdjust="spacing" textLength="144" x="136" y="75.4966">return uniqueInstance;</text><text fill="#000000" font-family="sans-serif" font-size="13" lengthAdjust="spacing" textLength="136" x="120" y="90.6294">if (name == "MAZE")</text><text fill="#000000" font-family="sans-serif" font-size="13" lengthAdjust="spacing" textLength="230" x="136" y="105.7622">uniqueInstance = new MazeFactory;</text><text fill="#000000" font-family="sans-serif" font-size="13" lengthAdjust="spacing" textLength="26" x="120" y="120.895">else</text><text fill="#000000" font-family="sans-serif" font-size="13" lengthAdjust="spacing" textLength="268" x="136" y="136.0278">uniqueInstance = new BombMazeFactory;</text></g><!--reverse link AbstractMazeFactory to MazeFactory--><g id="link_AbstractMazeFactory_MazeFactory"><path codeLine="34" d="M203.915,390.1737 C191.265,410.1937 187.49,416.1869 175.2,435.6469 " fill="none" id="AbstractMazeFactory-backto-MazeFactory" style="stroke:#181818;stroke-width:1.0;"/><polygon fill="none" points="213.53,374.9569,198.8427,386.9687,208.9873,393.3787,213.53,374.9569" style="stroke:#181818;stroke-width:1.0;"/></g><!--reverse link AbstractMazeFactory to BombMazeFactory--><g id="link_AbstractMazeFactory_BombMazeFactory"><path codeLine="35" d="M329.9576,390.1084 C342.7976,410.1284 346.67,416.1869 359.14,435.6469 " fill="none" id="AbstractMazeFactory-backto-BombMazeFactory" style="stroke:#181818;stroke-width:1.0;"/><polygon fill="none" points="320.24,374.9569,324.9071,393.3476,335.0081,386.8692,320.24,374.9569" style="stroke:#181818;stroke-width:1.0;"/></g><!--link MazeFactory to Maze--><g id="link_MazeFactory_Maze"><path codeLine="37" d="M129.95,582.3169 C132.66,598.5869 137.67,615.0969 146.5,628.8769 C156.92,645.1369 169.7897,654.2711 185.4297,661.9911 " fill="none" id="MazeFactory-to-Maze" style="stroke:#181818;stroke-width:1.0;stroke-dasharray:7.0,7.0;"/><polygon fill="#181818" points="190.81,664.6469,184.5101,657.0765,186.3265,662.4338,180.9691,664.2501,190.81,664.6469" style="stroke:#181818;stroke-width:1.0;"/><text fill="#000000" font-family="sans-serif" font-size="13" lengthAdjust="spacing" textLength="41" x="147.5" y="624.9438">create</text></g><!--link BombMazeFactory to Maze--><g id="link_BombMazeFactory_Maze"><path codeLine="38" d="M331.23,582.1669 C314.48,597.8569 296.59,614.1569 279.5,628.8769 C267.66,639.0869 258.7342,646.2366 247.4342,654.9366 " fill="none" id="BombMazeFactory-to-Maze" style="stroke:#181818;stroke-width:1.0;stroke-dasharray:7.0,7.0;"/><polygon fill="#181818" points="242.68,658.5969,252.2515,656.2759,246.6418,655.5466,247.3711,649.937,242.68,658.5969" style="stroke:#181818;stroke-width:1.0;"/><text fill="#000000" font-family="sans-serif" font-size="13" lengthAdjust="spacing" textLength="41" x="297.5" y="624.9438">create</text></g><!--link MazeFactory to Room--><g id="link_MazeFactory_Room"><path codeLine="40" d="M179.69,582.3669 C193.97,599.2869 210.57,616.0869 228.5,628.8769 C256.9,649.1469 289.3132,660.3886 315.7832,667.4586 " fill="none" id="MazeFactory-to-Room" style="stroke:#181818;stroke-width:1.0;stroke-dasharray:7.0,7.0;"/><polygon fill="#181818" points="321.58,669.0069,313.917,662.8199,316.7493,667.7166,311.8526,670.549,321.58,669.0069" style="stroke:#181818;stroke-width:1.0;"/><text fill="#000000" font-family="sans-serif" font-size="13" lengthAdjust="spacing" textLength="41" x="229.5" y="624.9438">create</text></g><!--link BombMazeFactory to Room--><g id="link_BombMazeFactory_Room"><path codeLine="41" d="M382.41,582.3369 C373.43,610.4769 365.7339,634.5608 359.9139,652.8008 " fill="none" id="BombMazeFactory-to-Room" style="stroke:#181818;stroke-width:1.0;stroke-dasharray:7.0,7.0;"/><polygon fill="#181818" points="358.09,658.5169,364.6365,651.1587,359.6099,653.7535,357.0151,648.7268,358.09,658.5169" style="stroke:#181818;stroke-width:1.0;"/><text fill="#000000" font-family="sans-serif" font-size="13" lengthAdjust="spacing" textLength="41" x="373.5" y="624.9438">create</text></g><!--link nAbstractMazeFactoryInstance to AbstractMazeFactory--><g id="link_nAbstractMazeFactoryInstance_AbstractMazeFactory"><path codeLine="58" d="M379.55,144.5769 C403.07,160.4269 424.83,180.4169 438.5,205.0969 C457.45,239.3169 478.61,293.0969 439.5,293.0969 " fill="none" id="nAbstractMazeFactoryInstance-AbstractMazeFactory" style="stroke:#181818;stroke-width:1.0;stroke-dasharray:7.0,7.0;"/></g><!--SRC=[bLHDSzem4BthLsp31OP0U-PhXhJ9J0xaK0wTwKssDx4cjjH8yf0qpN_lIWQ3PPaX743QVMzNxmcj5RP0k1ElcC6zp54BIwkja4y5MYLXoyi_1FYkCcIC5uNQbUALieob1JS6recncgTsm__Y7Vqg_RRFT2CtganEenfJorqZZptP_bIgP2nI6c064tWtbbkHVa0bnKk5zvBsCaNAnIZHEZCOHCB3KGzuVEmfzjs6afUkvTPgicFqkURZTxwFVq39dz5bXww6D-8oZZF9SxnRbt5-qGrwZbjSoFcXbFOSjs0i11zyULXlRXix0jIWxN5Gecj01E3L2caRmH5CMrq4uAKuzhNxEceA_fXdT7MHWo14-YBbkXfxGA5E1-l3jlNsWFeqnov_yMyoQRtRNb3ub5jkJwShNuLwfHgvxOhj8Ze5t6dF5sWZc5GMWHjuGecQ5mpeiqXM3nHUV4rMiCiLc2hnemWDS8sGSvsbDDaoy6Yo7MoEpHE74cskickYYZId7PUcHjgSM-3o3IJkJejAnAQQnfTAQ0ect23K4z0gI7EQSOIXa-wmAAOCPGRkx4S5CcBxOSZL1tqS1gFlonA-ZNokRcqhBOFnE7UPFHtgwRLSmjLc_VlsQWGDDoYyz19F3ZBtI2mCdgS4DpO_wZmdZousDaTdiyETiFy0]--></g></svg>