<?xml version="1.0" encoding="us-ascii" standalone="no"?><svg xmlns="http://www.w3.org/2000/svg" xmlns:xlink="http://www.w3.org/1999/xlink" contentStyleType="text/css" height="539px" preserveAspectRatio="none" style="width:981px;height:539px;background:#FFFFFF;" version="1.1" viewBox="0 0 981 539" width="981px" zoomAndPan="magnify"><defs/><g><text fill="#000000" font-family="sans-serif" font-size="14" font-weight="bold" lengthAdjust="spacing" textLength="137" x="415.25" y="22.9951">Singleton Pattern</text><!--class Singleton--><g id="elem_Singleton"><rect codeLine="7" fill="#F1F1F1" height="129.4844" id="Singleton" rx="2.5" ry="2.5" style="stroke:#181818;stroke-width:0.5;" width="211" x="504" y="80.8769"/><ellipse cx="572.75" cy="96.8769" fill="#ADD1B2" rx="11" ry="11" style="stroke:#181818;stroke-width:1.0;"/><path d="M575.7188,102.5175 Q575.1406,102.8144 574.5,102.955 Q573.8594,103.1113 573.1563,103.1113 Q570.6563,103.1113 569.3281,101.4706 Q568.0156,99.8144 568.0156,96.6894 Q568.0156,93.5644 569.3281,91.9081 Q570.6563,90.2519 573.1563,90.2519 Q573.8594,90.2519 574.5,90.4081 Q575.1563,90.5644 575.7188,90.8613 L575.7188,93.58 Q575.0938,93.0019 574.5,92.7363 Q573.9063,92.455 573.2813,92.455 Q571.9375,92.455 571.25,93.5331 Q570.5625,94.5956 570.5625,96.6894 Q570.5625,98.7831 571.25,99.8613 Q571.9375,100.9238 573.2813,100.9238 Q573.9063,100.9238 574.5,100.6581 Q575.0938,100.3769 575.7188,99.7988 L575.7188,102.5175 Z " fill="#000000"/><text fill="#000000" font-family="sans-serif" font-size="14" lengthAdjust="spacing" textLength="65" x="593.25" y="101.7236">Singleton</text><line style="stroke:#181818;stroke-width:0.5;" x1="505" x2="714" y1="112.8769" y2="112.8769"/><rect fill="none" height="6" style="stroke:#C82930;stroke-width:1.0;" width="6" x="512" y="123.5253"/><text fill="#000000" font-family="sans-serif" font-size="14" lengthAdjust="spacing" text-decoration="underline" textLength="185" x="524" y="129.872">uniqueInstance : Singleton</text><rect fill="none" height="6" style="stroke:#C82930;stroke-width:1.0;" width="6" x="512" y="139.8222"/><text fill="#000000" font-family="sans-serif" font-size="14" lengthAdjust="spacing" textLength="96" x="524" y="146.1689">singletonData</text><line style="stroke:#181818;stroke-width:0.5;" x1="505" x2="714" y1="153.4706" y2="153.4706"/><ellipse cx="515" cy="167.1191" fill="#84BE84" rx="3" ry="3" style="stroke:#038048;stroke-width:1.0;"/><text fill="#000000" font-family="sans-serif" font-size="14" lengthAdjust="spacing" text-decoration="underline" textLength="147" x="524" y="170.4657">instance() : Singleton</text><ellipse cx="515" cy="183.4159" fill="#84BE84" rx="3" ry="3" style="stroke:#038048;stroke-width:1.0;"/><text fill="#000000" font-family="sans-serif" font-size="14" lengthAdjust="spacing" textLength="117" x="524" y="186.7626">operation() : void</text><ellipse cx="515" cy="199.7128" fill="#84BE84" rx="3" ry="3" style="stroke:#038048;stroke-width:1.0;"/><text fill="#000000" font-family="sans-serif" font-size="14" lengthAdjust="spacing" textLength="108" x="524" y="203.0595">getData() : data</text></g><!--class SingletonInheritable--><g id="elem_SingletonInheritable"><rect codeLine="8" fill="#F1F1F1" height="129.4844" id="SingletonInheritable" rx="2.5" ry="2.5" style="stroke:#181818;stroke-width:0.5;" width="373" x="423" y="290.8769"/><ellipse cx="536.75" cy="306.8769" fill="#ADD1B2" rx="11" ry="11" style="stroke:#181818;stroke-width:1.0;"/><path d="M539.7188,312.5175 Q539.1406,312.8144 538.5,312.955 Q537.8594,313.1113 537.1563,313.1113 Q534.6563,313.1113 533.3281,311.4706 Q532.0156,309.8144 532.0156,306.6894 Q532.0156,303.5644 533.3281,301.9081 Q534.6563,300.2519 537.1563,300.2519 Q537.8594,300.2519 538.5,300.4081 Q539.1563,300.5644 539.7188,300.8613 L539.7188,303.58 Q539.0938,303.0019 538.5,302.7363 Q537.9063,302.455 537.2813,302.455 Q535.9375,302.455 535.25,303.5331 Q534.5625,304.5956 534.5625,306.6894 Q534.5625,308.7831 535.25,309.8613 Q535.9375,310.9238 537.2813,310.9238 Q537.9063,310.9238 538.5,310.6581 Q539.0938,310.3769 539.7188,309.7988 L539.7188,312.5175 Z " fill="#000000"/><text fill="#000000" font-family="sans-serif" font-size="14" lengthAdjust="spacing" textLength="137" x="557.25" y="311.7236">SingletonInheritable</text><line style="stroke:#181818;stroke-width:0.5;" x1="424" x2="795" y1="322.8769" y2="322.8769"/><rect fill="none" height="6" style="stroke:#C82930;stroke-width:1.0;" width="6" x="431" y="333.5253"/><text fill="#000000" font-family="sans-serif" font-size="14" lengthAdjust="spacing" text-decoration="underline" textLength="209" x="443" y="339.872">instance : SingletonInheritable</text><rect fill="none" height="6" style="stroke:#C82930;stroke-width:1.0;" width="6" x="431" y="349.8222"/><text fill="#000000" font-family="sans-serif" font-size="14" lengthAdjust="spacing" text-decoration="underline" textLength="228" x="443" y="356.1689">registry : NameSingletonPair[0..*]</text><line style="stroke:#181818;stroke-width:0.5;" x1="424" x2="795" y1="363.4706" y2="363.4706"/><ellipse cx="434" cy="377.1191" fill="#84BE84" rx="3" ry="3" style="stroke:#038048;stroke-width:1.0;"/><text fill="#000000" font-family="sans-serif" font-size="14" lengthAdjust="spacing" text-decoration="underline" textLength="347" x="443" y="380.4657">register(name: string, object: SingletonInheritable)</text><ellipse cx="434" cy="393.4159" fill="#84BE84" rx="3" ry="3" style="stroke:#038048;stroke-width:1.0;"/><text fill="#000000" font-family="sans-serif" font-size="14" lengthAdjust="spacing" text-decoration="underline" textLength="219" x="443" y="396.7626">instance() : SingletonInheritable</text><polygon fill="#FFFF44" points="434,404.7128,438,408.7128,434,412.7128,430,408.7128" style="stroke:#B38D22;stroke-width:1.0;"/><text fill="#000000" font-family="sans-serif" font-size="14" lengthAdjust="spacing" text-decoration="underline" textLength="299" x="443" y="413.0595">lookup(name : String) : SingletonInheritable</text></g><!--entity Client--><g id="elem_Client"><rect fill="#F1F1F1" height="36.2969" rx="2.5" ry="2.5" style="stroke:#181818;stroke-width:0.5;" width="59" x="891" y="127.2269"/><text fill="#000000" font-family="sans-serif" font-size="14" lengthAdjust="spacing" textLength="39" x="901" y="150.222">Client</text></g><!--entity SingletonExtended--><g id="elem_SingletonExtended"><rect fill="#F1F1F1" height="36.2969" rx="2.5" ry="2.5" style="stroke:#181818;stroke-width:0.5;" width="151" x="534" y="497.3569"/><text fill="#000000" font-family="sans-serif" font-size="14" lengthAdjust="spacing" textLength="131" x="544" y="520.352">SingletonExtended</text></g><g id="elem_nSingleton"><path d="M6,117.6769 L6,173.0753 L261,173.0753 L261,127.6769 L251,117.6769 L6,117.6769 " fill="#FEFFDD" style="stroke:#181818;stroke-width:0.5;"/><path d="M251,117.6769 L251,127.6769 L261,127.6769 L251,117.6769 " fill="#FEFFDD" style="stroke:#181818;stroke-width:1.0;"/><text fill="#000000" font-family="sans-serif" font-size="13" font-style="italic" lengthAdjust="spacing" textLength="59" x="12" y="134.7438">Singleton</text><text fill="#000000" font-family="sans-serif" font-size="13" lengthAdjust="spacing" textLength="167" x="75" y="134.7438">pattern uses one instance</text><text fill="#000000" font-family="sans-serif" font-size="13" lengthAdjust="spacing" textLength="186" x="12" y="149.8766">but doesn't allow inheritance.</text><text fill="#000000" font-family="sans-serif" font-size="13" font-style="italic" lengthAdjust="spacing" textLength="127" x="12" y="165.0094">SingletonInheritable</text><text fill="#000000" font-family="sans-serif" font-size="13" lengthAdjust="spacing" textLength="72" x="143" y="165.0094">allows that.</text></g><g id="elem_nSingletonInstance"><path d="M296,132.8069 L296,157.9397 A0,0 0 0 0 296,157.9397 L433.94,157.9397 L503,164.8769 L441.94,157.9397 L461,157.9397 A0,0 0 0 0 461,157.9397 L461,142.8069 L451,132.8069 L296,132.8069 A0,0 0 0 0 296,132.8069 " fill="#FEFFDD" style="stroke:#181818;stroke-width:0.5;"/><path d="M451,132.8069 L451,142.8069 L461,142.8069 L451,132.8069 " fill="#FEFFDD" style="stroke:#181818;stroke-width:0.5;"/><text fill="#000000" font-family="sans-serif" font-size="13" lengthAdjust="spacing" textLength="144" x="302" y="149.8738">return uniqueInstance;</text></g><!--reverse link Singleton to SingletonInheritable--><g id="link_Singleton_SingletonInheritable"><path codeLine="24" d="M609.5,231.6969 C609.5,256.4169 609.5,266.3069 609.5,290.7169 " fill="none" id="Singleton-backto-SingletonInheritable" style="stroke:#181818;stroke-width:1.0;"/><polygon fill="none" points="609.5,213.6969,603.5,231.6969,615.5,231.6969,609.5,213.6969" style="stroke:#181818;stroke-width:1.0;"/></g><!--reverse link SingletonInheritable to SingletonExtended--><g id="link_SingletonInheritable_SingletonExtended"><path codeLine="25" d="M601.4585,438.7284 C600.5985,454.0084 601.39,452.2769 602.5,467.3569 C603.23,477.2669 604.81,488.2469 606.29,497.1169 " fill="none" id="SingletonInheritable-backto-SingletonExtended" style="stroke:#181818;stroke-width:1.0;"/><polygon fill="none" points="602.47,420.7569,595.468,438.3913,607.449,439.0656,602.47,420.7569" style="stroke:#181818;stroke-width:1.0;"/></g><!--reverse link SingletonInheritable to SingletonExtended--><g id="link_SingletonInheritable_SingletonExtended"><path codeLine="29" d="M609.5,426.8369 C609.5,454.4969 609.5,478.6669 609.5,497.0869 " fill="none" id="SingletonInheritable-backto-SingletonExtended-1" style="stroke:#181818;stroke-width:1.0;stroke-dasharray:7.0,7.0;"/><polygon fill="#181818" points="609.5,420.8369,605.5,429.8369,609.5,425.8369,613.5,429.8369,609.5,420.8369" style="stroke:#181818;stroke-width:1.0;"/><text fill="#000000" font-family="sans-serif" font-size="13" lengthAdjust="spacing" textLength="194" x="610.5" y="463.4238">SingletonInheritable::register()</text></g><!--reverse link Singleton to Client--><g id="link_Singleton_Client"><path codeLine="27" d="M728.66,145.3769 C788.75,145.3769 851.97,145.3769 890.55,145.3769 " fill="none" id="Singleton-backto-Client" style="stroke:#181818;stroke-width:1.0;stroke-dasharray:7.0,7.0;"/><polygon fill="#181818" points="722.66,145.3769,731.66,149.3769,727.66,145.3769,731.66,141.3769,722.66,145.3769" style="stroke:#181818;stroke-width:1.0;"/><text fill="#000000" font-family="sans-serif" font-size="13" lengthAdjust="spacing" textLength="132" x="741" y="138.4438">Singleton::instance()</text></g><!--link Client to SingletonInheritable--><g id="link_Client_SingletonInheritable"><path codeLine="28" d="M894.25,163.9469 C852.96,191.6069 775.7557,243.2988 710.2457,287.1588 " fill="none" id="Client-to-SingletonInheritable" style="stroke:#181818;stroke-width:1.0;stroke-dasharray:7.0,7.0;"/><polygon fill="#181818" points="705.26,290.4969,714.964,288.8137,709.4148,287.7152,710.5132,282.166,705.26,290.4969" style="stroke:#181818;stroke-width:1.0;"/><text fill="#000000" font-family="sans-serif" font-size="13" lengthAdjust="spacing" textLength="199" x="774.5" y="256.9438">SingletonInheritable::instance()</text></g><!--link nSingleton to Singleton--><g id="link_nSingleton_Singleton"><path codeLine="36" d="M174.43,117.3769 C206.06,97.5169 251.76,72.5769 296,61.8769 C367.28,44.6369 390.06,43.2969 461,61.8769 C474.88,65.5069 488.83,70.7669 502.32,76.8969 " fill="none" id="nSingleton-Singleton" style="stroke:#181818;stroke-width:1.0;stroke-dasharray:7.0,7.0;"/></g><!--link nSingleton to SingletonInheritable--><g id="link_nSingleton_SingletonInheritable"><path codeLine="37" d="M190.46,173.4269 C217.1,185.9469 249.33,200.8869 278.5,213.8769 C336.12,239.5269 399.79,266.8469 455.78,290.5269 " fill="none" id="nSingleton-SingletonInheritable" style="stroke:#181818;stroke-width:1.0;stroke-dasharray:7.0,7.0;"/></g><!--SRC=[bPGzJmCn38Rt_0fB351A0tEfkW135rI94J6aFTCQGb8I7ny2_Zj92haBlHDmKs8xZr_7EUzhl6LW2uvMQuQA72wPh15AQ_lyG2zaLa8miKQu2ckDR0tC5JCw8yHIA-yRny_zpApH4Qk5HX71AjhXJ1CQRXbo_CKBewcm4gB9DORHcsV5jFo0sj1ZZJCJzcQ9mTLaBWxuxysvObMuXfb5NvI3GIzdQ3VeLBoE5FHagIhzA-IO8Nchc4fqbLwKG1tYszVqAy3XYZoxrs2yL0-Ou-UAtFM9b8StVOpX3mQw0nC8OmYuSE88xE8kzAHRsE1tQlUD_g6ulOpGrjxNcoGhCfAkNbgh5vFtqUWVASlmvjLjNoR8-5F8ARHxdTVZSLDdFj0EBclhCXU8Re5IxkhhfULs3eGmbX6K1zCyQGZVXARPC3ccAMoslp3K7ZrOWyt3JF6BEWm3YzxiCwHH4FpRZ254xY1RSX8z7V70QyLI1F4GPOb64xJAwp4NdTwjwdi892aEkOwr5EFXj2jndXsogwFY4m00]--></g></svg>