<?xml version="1.0" encoding="us-ascii" standalone="no"?><svg xmlns="http://www.w3.org/2000/svg" xmlns:xlink="http://www.w3.org/1999/xlink" contentStyleType="text/css" height="847px" preserveAspectRatio="none" style="width:1092px;height:847px;background:#FFFFFF;" version="1.1" viewBox="0 0 1092 847" width="1092px" zoomAndPan="magnify"><defs/><g><text fill="#000000" font-family="sans-serif" font-size="14" font-weight="bold" lengthAdjust="spacing" textLength="182" x="448.25" y="22.9951">Singleton Sample Code</text><!--class AbstractMazeFactory--><g id="elem_AbstractMazeFactory"><rect codeLine="6" fill="#F1F1F1" height="210.9688" id="AbstractMazeFactory" rx="2.5" ry="2.5" style="stroke:#181818;stroke-width:0.5;" width="333" x="443.5" y="299.8869"/><ellipse cx="533.75" cy="315.8869" fill="#ADD1B2" rx="11" ry="11" style="stroke:#181818;stroke-width:1.0;"/><path d="M536.7188,321.5275 Q536.1406,321.8244 535.5,321.965 Q534.8594,322.1213 534.1563,322.1213 Q531.6563,322.1213 530.3281,320.4806 Q529.0156,318.8244 529.0156,315.6994 Q529.0156,312.5744 530.3281,310.9181 Q531.6563,309.2619 534.1563,309.2619 Q534.8594,309.2619 535.5,309.4181 Q536.1563,309.5744 536.7188,309.8713 L536.7188,312.59 Q536.0938,312.0119 535.5,311.7463 Q534.9063,311.465 534.2813,311.465 Q532.9375,311.465 532.25,312.5431 Q531.5625,313.6056 531.5625,315.6994 Q531.5625,317.7931 532.25,318.8713 Q532.9375,319.9338 534.2813,319.9338 Q534.9063,319.9338 535.5,319.6681 Q536.0938,319.3869 536.7188,318.8088 L536.7188,321.5275 Z " fill="#000000"/><text fill="#000000" font-family="sans-serif" font-size="14" lengthAdjust="spacing" textLength="144" x="554.25" y="320.7336">AbstractMazeFactory</text><line style="stroke:#181818;stroke-width:0.5;" x1="444.5" x2="775.5" y1="331.8869" y2="331.8869"/><rect fill="none" height="6" style="stroke:#C82930;stroke-width:1.0;" width="6" x="451.5" y="342.5353"/><text fill="#000000" font-family="sans-serif" font-size="14" lengthAdjust="spacing" text-decoration="underline" textLength="207" x="463.5" y="348.882">uniqueInstance : MazeFactory</text><rect fill="none" height="6" style="stroke:#C82930;stroke-width:1.0;" width="6" x="451.5" y="358.8322"/><text fill="#000000" font-family="sans-serif" font-size="14" lengthAdjust="spacing" text-decoration="underline" textLength="237" x="463.5" y="365.1789">registery : NameSingletonPair[0..*]</text><line style="stroke:#181818;stroke-width:0.5;" x1="444.5" x2="775.5" y1="372.4806" y2="372.4806"/><polygon fill="#FFFF44" points="454.5,381.1291,458.5,385.1291,454.5,389.1291,450.5,385.1291" style="stroke:#B38D22;stroke-width:1.0;"/><text fill="#000000" font-family="sans-serif" font-size="14" lengthAdjust="spacing" textLength="154" x="463.5" y="389.4757">AbstractMazeFactory()</text><ellipse cx="454.5" cy="402.4259" fill="#84BE84" rx="3" ry="3" style="stroke:#038048;stroke-width:1.0;"/><text fill="#000000" font-family="sans-serif" font-size="14" lengthAdjust="spacing" text-decoration="underline" textLength="261" x="463.5" y="405.7726">instance(name : String) : MazeFactory</text><ellipse cx="454.5" cy="418.7228" fill="#84BE84" rx="3" ry="3" style="stroke:#038048;stroke-width:1.0;"/><text fill="#000000" font-family="sans-serif" font-size="14" lengthAdjust="spacing" text-decoration="underline" textLength="307" x="463.5" y="422.0695">register(name : String, AbstractMazeFactory)</text><ellipse cx="454.5" cy="435.0197" fill="#84BE84" rx="3" ry="3" style="stroke:#038048;stroke-width:1.0;"/><text fill="#000000" font-family="sans-serif" font-size="14" lengthAdjust="spacing" text-decoration="underline" textLength="306" x="463.5" y="438.3664">lookup(name : String) : AbstractMazeFactory</text><ellipse cx="454.5" cy="451.3166" fill="#84BE84" rx="3" ry="3" style="stroke:#038048;stroke-width:1.0;"/><text fill="#000000" font-family="sans-serif" font-size="14" font-style="italic" lengthAdjust="spacing" textLength="133" x="463.5" y="454.6632">makeMaze() : Maze</text><ellipse cx="454.5" cy="467.6134" fill="#84BE84" rx="3" ry="3" style="stroke:#038048;stroke-width:1.0;"/><text fill="#000000" font-family="sans-serif" font-size="14" font-style="italic" lengthAdjust="spacing" textLength="143" x="463.5" y="470.9601">makeRoom() : Room</text><ellipse cx="454.5" cy="483.9103" fill="#84BE84" rx="3" ry="3" style="stroke:#038048;stroke-width:1.0;"/><text fill="#000000" font-family="sans-serif" font-size="14" font-style="italic" lengthAdjust="spacing" textLength="117" x="463.5" y="487.257">makeWall() : Wall</text><ellipse cx="454.5" cy="500.2072" fill="#84BE84" rx="3" ry="3" style="stroke:#038048;stroke-width:1.0;"/><text fill="#000000" font-family="sans-serif" font-size="14" font-style="italic" lengthAdjust="spacing" textLength="129" x="463.5" y="503.5539">makeDoor() : Door</text></g><!--class MazeFactory--><g id="elem_MazeFactory"><rect codeLine="7" fill="#F1F1F1" height="145.7813" id="MazeFactory" rx="2.5" ry="2.5" style="stroke:#181818;stroke-width:0.5;" width="241" x="636.5" y="578.8869"/><ellipse cx="709.25" cy="594.8869" fill="#ADD1B2" rx="11" ry="11" style="stroke:#181818;stroke-width:1.0;"/><path d="M712.2188,600.5275 Q711.6406,600.8244 711,600.965 Q710.3594,601.1213 709.6563,601.1213 Q707.1563,601.1213 705.8281,599.4806 Q704.5156,597.8244 704.5156,594.6994 Q704.5156,591.5744 705.8281,589.9181 Q707.1563,588.2619 709.6563,588.2619 Q710.3594,588.2619 711,588.4181 Q711.6563,588.5744 712.2188,588.8713 L712.2188,591.59 Q711.5938,591.0119 711,590.7463 Q710.4063,590.465 709.7813,590.465 Q708.4375,590.465 707.75,591.5431 Q707.0625,592.6056 707.0625,594.6994 Q707.0625,596.7931 707.75,597.8713 Q708.4375,598.9338 709.7813,598.9338 Q710.4063,598.9338 711,598.6681 Q711.5938,598.3869 712.2188,597.8088 L712.2188,600.5275 Z " fill="#000000"/><text fill="#000000" font-family="sans-serif" font-size="14" lengthAdjust="spacing" textLength="87" x="729.75" y="599.7336">MazeFactory</text><line style="stroke:#181818;stroke-width:0.5;" x1="637.5" x2="876.5" y1="610.8869" y2="610.8869"/><ellipse cx="647.5" cy="624.5353" fill="none" rx="3" ry="3" style="stroke:#038048;stroke-width:1.0;"/><text fill="#000000" font-family="sans-serif" font-size="14" lengthAdjust="spacing" text-decoration="underline" textLength="93" x="656.5" y="627.882">NAME : String</text><line style="stroke:#181818;stroke-width:0.5;" x1="637.5" x2="876.5" y1="635.1838" y2="635.1838"/><ellipse cx="647.5" cy="648.8322" fill="#84BE84" rx="3" ry="3" style="stroke:#038048;stroke-width:1.0;"/><text fill="#000000" font-family="sans-serif" font-size="14" lengthAdjust="spacing" textLength="97" x="656.5" y="652.1789">MazeFactory()</text><ellipse cx="647.5" cy="665.1291" fill="#84BE84" rx="3" ry="3" style="stroke:#038048;stroke-width:1.0;"/><text fill="#000000" font-family="sans-serif" font-size="14" lengthAdjust="spacing" textLength="135" x="656.5" y="668.4757">makeMaze() : Maze</text><ellipse cx="647.5" cy="681.4259" fill="#84BE84" rx="3" ry="3" style="stroke:#038048;stroke-width:1.0;"/><text fill="#000000" font-family="sans-serif" font-size="14" lengthAdjust="spacing" textLength="160" x="656.5" y="684.7726">makeRoom(int) : Room</text><ellipse cx="647.5" cy="697.7228" fill="#84BE84" rx="3" ry="3" style="stroke:#038048;stroke-width:1.0;"/><text fill="#000000" font-family="sans-serif" font-size="14" lengthAdjust="spacing" textLength="115" x="656.5" y="701.0695">makeWall() : Wall</text><ellipse cx="647.5" cy="714.0197" fill="#84BE84" rx="3" ry="3" style="stroke:#038048;stroke-width:1.0;"/><text fill="#000000" font-family="sans-serif" font-size="14" lengthAdjust="spacing" textLength="215" x="656.5" y="717.3664">makeDoor(Room,Room) : Door</text></g><!--class BombMazeFactory--><g id="elem_BombMazeFactory"><rect codeLine="8" fill="#F1F1F1" height="145.7813" id="BombMazeFactory" rx="2.5" ry="2.5" style="stroke:#181818;stroke-width:0.5;" width="241" x="344.5" y="578.8869"/><ellipse cx="396.75" cy="594.8869" fill="#ADD1B2" rx="11" ry="11" style="stroke:#181818;stroke-width:1.0;"/><path d="M399.7188,600.5275 Q399.1406,600.8244 398.5,600.965 Q397.8594,601.1213 397.1563,601.1213 Q394.6563,601.1213 393.3281,599.4806 Q392.0156,597.8244 392.0156,594.6994 Q392.0156,591.5744 393.3281,589.9181 Q394.6563,588.2619 397.1563,588.2619 Q397.8594,588.2619 398.5,588.4181 Q399.1563,588.5744 399.7188,588.8713 L399.7188,591.59 Q399.0938,591.0119 398.5,590.7463 Q397.9063,590.465 397.2813,590.465 Q395.9375,590.465 395.25,591.5431 Q394.5625,592.6056 394.5625,594.6994 Q394.5625,596.7931 395.25,597.8713 Q395.9375,598.9338 397.2813,598.9338 Q397.9063,598.9338 398.5,598.6681 Q399.0938,598.3869 399.7188,597.8088 L399.7188,600.5275 Z " fill="#000000"/><text fill="#000000" font-family="sans-serif" font-size="14" lengthAdjust="spacing" textLength="128" x="417.25" y="599.7336">BombMazeFactory</text><line style="stroke:#181818;stroke-width:0.5;" x1="345.5" x2="584.5" y1="610.8869" y2="610.8869"/><ellipse cx="355.5" cy="624.5353" fill="none" rx="3" ry="3" style="stroke:#038048;stroke-width:1.0;"/><text fill="#000000" font-family="sans-serif" font-size="14" lengthAdjust="spacing" text-decoration="underline" textLength="93" x="364.5" y="627.882">NAME : String</text><line style="stroke:#181818;stroke-width:0.5;" x1="345.5" x2="584.5" y1="635.1838" y2="635.1838"/><ellipse cx="355.5" cy="648.8322" fill="#84BE84" rx="3" ry="3" style="stroke:#038048;stroke-width:1.0;"/><text fill="#000000" font-family="sans-serif" font-size="14" lengthAdjust="spacing" textLength="138" x="364.5" y="652.1789">BombMazeFactory()</text><ellipse cx="355.5" cy="665.1291" fill="#84BE84" rx="3" ry="3" style="stroke:#038048;stroke-width:1.0;"/><text fill="#000000" font-family="sans-serif" font-size="14" lengthAdjust="spacing" textLength="135" x="364.5" y="668.4757">makeMaze() : Maze</text><ellipse cx="355.5" cy="681.4259" fill="#84BE84" rx="3" ry="3" style="stroke:#038048;stroke-width:1.0;"/><text fill="#000000" font-family="sans-serif" font-size="14" lengthAdjust="spacing" textLength="201" x="364.5" y="684.7726">makeRoom(int) : RoomBomb</text><ellipse cx="355.5" cy="697.7228" fill="#84BE84" rx="3" ry="3" style="stroke:#038048;stroke-width:1.0;"/><text fill="#000000" font-family="sans-serif" font-size="14" lengthAdjust="spacing" textLength="115" x="364.5" y="701.0695">makeWall() : Wall</text><ellipse cx="355.5" cy="714.0197" fill="#84BE84" rx="3" ry="3" style="stroke:#038048;stroke-width:1.0;"/><text fill="#000000" font-family="sans-serif" font-size="14" lengthAdjust="spacing" textLength="215" x="364.5" y="717.3664">makeDoor(Room,Room) : Door</text></g><!--entity Maze--><g id="elem_Maze"><rect fill="#F1F1F1" height="36.2969" rx="2.5" ry="2.5" style="stroke:#181818;stroke-width:0.5;" width="57" x="496.5" y="804.8869"/><text fill="#000000" font-family="sans-serif" font-size="14" lengthAdjust="spacing" textLength="37" x="506.5" y="827.882">Maze</text></g><!--entity Room--><g id="elem_Room"><rect fill="#F1F1F1" height="36.2969" rx="2.5" ry="2.5" style="stroke:#181818;stroke-width:0.5;" width="61" x="665.5" y="804.8869"/><text fill="#000000" font-family="sans-serif" font-size="14" lengthAdjust="spacing" textLength="41" x="675.5" y="827.882">Room</text></g><g id="elem_nGeneral"><path d="M808.5,43.2969 L808.5,234.8906 L1085.5,234.8906 L1085.5,53.2969 L1075.5,43.2969 L808.5,43.2969 " fill="#FEFFDD" style="stroke:#181818;stroke-width:0.5;"/><path d="M1075.5,43.2969 L1075.5,53.2969 L1085.5,53.2969 L1075.5,43.2969 " fill="#FEFFDD" style="stroke:#181818;stroke-width:1.0;"/><text fill="#000000" font-family="sans-serif" font-size="13" font-weight="bold" lengthAdjust="spacing" textLength="35" x="814.5" y="60.3638">Note</text><text fill="#000000" font-family="sans-serif" font-size="13" lengthAdjust="spacing" textLength="173" x="853.5" y="60.3638">that in this implementation</text><text fill="#000000" font-family="sans-serif" font-size="13" lengthAdjust="spacing" textLength="21" x="814.5" y="75.4966">the</text><text fill="#000000" font-family="sans-serif" font-size="13" font-style="italic" lengthAdjust="spacing" textLength="98" x="839.5" y="75.4966">uniqueInstance</text><text fill="#000000" font-family="sans-serif" font-size="13" lengthAdjust="spacing" textLength="83" x="941.5" y="75.4966">instance is in</text><text fill="#000000" font-family="sans-serif" font-size="13" lengthAdjust="spacing" textLength="222" x="814.5" y="90.6294">the base class, and every subclass</text><text fill="#000000" font-family="sans-serif" font-size="13" lengthAdjust="spacing" textLength="210" x="814.5" y="105.7622">Factory should be instanciated in</text><text fill="#000000" font-family="sans-serif" font-size="13" lengthAdjust="spacing" textLength="234" x="814.5" y="120.895">order to register itself in the registry,</text><text fill="#000000" font-family="sans-serif" font-size="13" lengthAdjust="spacing" textLength="204" x="814.5" y="136.0278">which restores the problem that</text><text fill="#000000" font-family="sans-serif" font-size="13" font-style="italic" lengthAdjust="spacing" textLength="59" x="814.5" y="151.1606">Singleton</text><text fill="#000000" font-family="sans-serif" font-size="13" lengthAdjust="spacing" textLength="156" x="877.5" y="151.1606">are made to solve in the</text><text fill="#000000" font-family="sans-serif" font-size="13" lengthAdjust="spacing" textLength="66" x="814.5" y="166.2935">first place.</text><text fill="#000000" font-family="sans-serif" font-size="13" lengthAdjust="spacing" textLength="4" x="814.5" y="181.4263">&#160;</text><text fill="#000000" font-family="sans-serif" font-size="13" lengthAdjust="spacing" textLength="252" x="814.5" y="196.5591">This might be resoved using a separate</text><text fill="#000000" font-family="sans-serif" font-size="13" lengthAdjust="spacing" textLength="239" x="814.5" y="211.6919">static block that registers all subclass</text><text fill="#000000" font-family="sans-serif" font-size="13" lengthAdjust="spacing" textLength="59" x="814.5" y="226.8247">factories.</text></g><g id="elem_nConstructor"><path d="M6,638.8269 L6,663.9597 L302,663.9597 L302,648.8269 L292,638.8269 L6,638.8269 " fill="#FEFFDD" style="stroke:#181818;stroke-width:0.5;"/><path d="M292,638.8269 L292,648.8269 L302,648.8269 L292,638.8269 " fill="#FEFFDD" style="stroke:#181818;stroke-width:1.0;"/><text fill="#000000" font-family="sans-serif" font-size="13" lengthAdjust="spacing" textLength="275" x="12" y="655.8938">AbstractMazeFactory::register(NAME, this);</text></g><g id="elem_nAbstractMazeSingletonInstance"><path d="M446.5,96.2569 L446.5,181.9209 L773.5,181.9209 L773.5,106.2569 L763.5,96.2569 L446.5,96.2569 " fill="#FEFFDD" style="stroke:#181818;stroke-width:0.5;"/><path d="M763.5,96.2569 L763.5,106.2569 L773.5,106.2569 L763.5,96.2569 " fill="#FEFFDD" style="stroke:#181818;stroke-width:1.0;"/><text fill="#000000" font-family="sans-serif" font-size="13" lengthAdjust="spacing" textLength="164" x="452.5" y="113.3238">if(uniqueInstance == 0) {</text><text fill="#000000" font-family="sans-serif" font-size="13" lengthAdjust="spacing" textLength="209" x="468.5" y="128.4566">uniqueInstance = lookup(name);</text><text fill="#000000" font-family="sans-serif" font-size="13" lengthAdjust="spacing" textLength="290" x="468.5" y="143.5894">// Lookip returns 0 if there's no such singleton</text><text fill="#000000" font-family="sans-serif" font-size="13" lengthAdjust="spacing" textLength="8" x="452.5" y="158.7222">}</text><text fill="#000000" font-family="sans-serif" font-size="13" lengthAdjust="spacing" textLength="144" x="452.5" y="173.855">return uniqueInstance;</text></g><!--reverse link AbstractMazeFactory to MazeFactory--><g id="link_AbstractMazeFactory_MazeFactory"><path codeLine="38" d="M684.1807,529.2698 C696.5707,549.8598 700,555.5869 711.61,574.8969 " fill="none" id="AbstractMazeFactory-backto-MazeFactory" style="stroke:#181818;stroke-width:1.0;"/><polygon fill="none" points="674.9,513.8469,679.0398,532.3634,689.3217,526.1763,674.9,513.8469" style="stroke:#181818;stroke-width:1.0;"/></g><!--reverse link AbstractMazeFactory to BombMazeFactory--><g id="link_AbstractMazeFactory_BombMazeFactory"><path codeLine="39" d="M536.7933,529.326 C524.5733,549.916 521.22,555.5869 509.77,574.8969 " fill="none" id="AbstractMazeFactory-backto-BombMazeFactory" style="stroke:#181818;stroke-width:1.0;"/><polygon fill="none" points="545.98,513.8469,531.6335,526.2638,541.953,532.3883,545.98,513.8469" style="stroke:#181818;stroke-width:1.0;"/></g><!--link MazeFactory to Maze--><g id="link_MazeFactory_Maze"><path codeLine="41" d="M686.91,727.5769 C669.03,744.4069 649.13,761.2769 629,774.8869 C605.35,790.8769 581.0077,801.6629 559.3277,809.9129 " fill="none" id="MazeFactory-to-Maze" style="stroke:#181818;stroke-width:1.0;stroke-dasharray:7.0,7.0;"/><polygon fill="#181818" points="553.72,812.0469,563.5542,812.5845,558.3931,810.2686,560.7089,805.1075,553.72,812.0469" style="stroke:#181818;stroke-width:1.0;"/><text fill="#000000" font-family="sans-serif" font-size="13" lengthAdjust="spacing" textLength="41" x="649" y="770.9538">create</text></g><!--link BombMazeFactory to Maze--><g id="link_BombMazeFactory_Maze"><path codeLine="42" d="M478.42,727.5769 C482.47,743.5369 487.6,760.0369 494,774.8869 C498.5,785.3269 501.8113,791.0983 507.8813,799.6283 " fill="none" id="BombMazeFactory-to-Maze" style="stroke:#181818;stroke-width:1.0;stroke-dasharray:7.0,7.0;"/><polygon fill="#181818" points="511.36,804.5169,509.4009,794.8648,508.461,800.4431,502.8828,799.5032,511.36,804.5169" style="stroke:#181818;stroke-width:1.0;"/><text fill="#000000" font-family="sans-serif" font-size="13" lengthAdjust="spacing" textLength="41" x="495" y="770.9538">create</text></g><!--link MazeFactory to Room--><g id="link_MazeFactory_Room"><path codeLine="43" d="M731.86,727.7669 C726.45,743.3969 720.65,759.7169 715,774.8869 C711.3,784.8169 709.1801,790.247 705.5401,799.107 " fill="none" id="MazeFactory-to-Room" style="stroke:#181818;stroke-width:1.0;stroke-dasharray:7.0,7.0;"/><polygon fill="#181818" points="703.26,804.6569,710.3801,797.8521,705.1601,800.032,702.9802,794.812,703.26,804.6569" style="stroke:#181818;stroke-width:1.0;"/><text fill="#000000" font-family="sans-serif" font-size="13" lengthAdjust="spacing" textLength="41" x="722" y="770.9538">create</text></g><!--link BombMazeFactory to Room--><g id="link_BombMazeFactory_Room"><path codeLine="44" d="M527.33,727.6369 C543.88,744.6569 562.59,761.5969 582,774.8869 C607.8,792.5569 635.5426,803.556 659.5326,811.336 " fill="none" id="BombMazeFactory-to-Room" style="stroke:#181818;stroke-width:1.0;stroke-dasharray:7.0,7.0;"/><polygon fill="#181818" points="665.24,813.1869,657.9129,806.6056,660.4839,811.6444,655.445,814.2154,665.24,813.1869" style="stroke:#181818;stroke-width:1.0;"/><text fill="#000000" font-family="sans-serif" font-size="13" lengthAdjust="spacing" textLength="41" x="583" y="770.9538">create</text></g><!--link nConstructor to MazeFactory--><g id="link_nConstructor_MazeFactory"><path codeLine="64" d="M169.29,638.5169 C199.1,614.3469 268.09,562.9669 336.5,544.3869 C391.62,529.4269 544.08,515.7669 593.5,544.3869 C636.1,569.0669 586.27,646.8869 635.5,646.8869 " fill="none" id="nConstructor-MazeFactory" style="stroke:#181818;stroke-width:1.0;stroke-dasharray:7.0,7.0;"/></g><!--link nConstructor to BombMazeFactory--><g id="link_nConstructor_BombMazeFactory"><path codeLine="65" d="M302.4,647.1969 C316.29,647.0069 330.16,646.8869 343.5,646.8869 " fill="none" id="nConstructor-BombMazeFactory" style="stroke:#181818;stroke-width:1.0;stroke-dasharray:7.0,7.0;"/></g><!--link nAbstractMazeSingletonInstance to AbstractMazeFactory--><g id="link_nAbstractMazeSingletonInstance_AbstractMazeFactory"><path codeLine="74" d="M676.68,182.2469 C713.51,209.6369 755.87,248.9569 776.5,295.8869 C795.1,338.2069 823.72,399.8869 777.5,399.8869 " fill="none" id="nAbstractMazeSingletonInstance-AbstractMazeFactory" style="stroke:#181818;stroke-width:1.0;stroke-dasharray:7.0,7.0;"/></g><!--SRC=[ZLLBRzim3BxhLn3OOScQE3rdQO2kUs306WpBW1s67MI7IOJQKYR9wRek_tqK4xj-jl713_BZuoCfsYkV8YoLtgJeZOQbp7Oak34h54AcgRdFr1_I2f6aqZcuZfstCl6tyYz-fAUn3oTDM_BEP75LQZ7nCWHYRENpcp6P41skOGhZH-UbLya1Sgr-v_XPqxTEa5HLtoyPMzmevv6b2vbXoVYhLFRdPHIz-TNZurM7U33i0L-K0TKfpu6cQAHPUaiXXsUbVT5Ak-vbrDM6brDAZRdBT-s4kdhQvqkUv0V8v1q6xQ3WTAPDQ3RRSDVFi_b1ayWsuULCc_V6MBO9BqA8lgeihcy_bELeekezRoZR5UW0C5sbVScu0rEdrm5WBi5w56vFf1edx1bU7SY6YFXrWDeSUq1DdW7MXwtpxG7rSUxg_kpVUFpYkM9GSoVLgXr5S_P2iHABqhV9jX5DRKZsUViwGcZZ4QG3_GarMfaAe6iMpnSadqtYEVYjzBHEwAaSgB2UCzIXoKOprcyHPcfUNu-pYPgNEmY2uHCubWw1L_G8f5u1xiDUT7dCCeOL-RgjoTCLn5ZuKfJpgd1cx0ejU5EkAL3UORe-PeidiNqOCVf-gv8joHnvHiU0dJKnqM6AHzvgNcvcfY0jqcbUOOZYJBh7asz6hvLr7dQfJ31Y0T- -XpfbQhFr8MyAPVQKSkx8BqXmk9EMI1onnyC2SMgIksEX2oeEQ3RhHLbpKHIwI22LBJIkqhuRGnMoUO0mkcC4fzDoduVJEUAM3jy-UQiwWGXgfjMfRU0QKpQTjgQypBAQLLdfOcWuRxKUDFwqLrTmEOH7reQhgQx-M8XD0PjCu0ifr8vgwdEh7LoIyz0yYwyf5MfeJWFXYYpOyC3teq4ZKBLEpzAWKzPT_U8yYFy0]--></g></svg>