<svg xmlns="http://www.w3.org/2000/svg" xmlns:xlink="http://www.w3.org/1999/xlink" contentStyleType="text/css" height="364px" preserveAspectRatio="none" style="width:416px;height:364px;background:#FFFFFF;" version="1.1" viewBox="0 0 416 364" width="416px" zoomAndPan="magnify"><defs/><g><text fill="#000000" font-family="sans-serif" font-size="14" font-weight="bold" lengthAdjust="spacing" textLength="201.5713" x="106.5996" y="27.9951">Memento Pattern Collabo</text><rect fill="#FFFFFF" height="118.2656" style="stroke:#181818;stroke-width:1.0;" width="10" x="45.9238" y="104.7266"/><rect fill="#FFFFFF" height="59.1328" style="stroke:#181818;stroke-width:1.0;" width="10" x="45.9238" y="252.125"/><rect fill="#FFFFFF" height="118.2656" style="stroke:#181818;stroke-width:1.0;" width="10" x="230.2339" y="104.7266"/><rect fill="#FFFFFF" height="59.1328" style="stroke:#181818;stroke-width:1.0;" width="10" x="230.2339" y="252.125"/><rect fill="#FFFFFF" height="30" style="stroke:#181818;stroke-width:1.0;" width="10" x="361.5454" y="133.8594"/><rect fill="#FFFFFF" height="30" style="stroke:#181818;stroke-width:1.0;" width="10" x="361.5454" y="192.9922"/><rect fill="#FFFFFF" height="30" style="stroke:#181818;stroke-width:1.0;" width="10" x="361.5454" y="281.2578"/><line style="stroke:#181818;stroke-width:0.5;stroke-dasharray:5.0,5.0;" x1="50" x2="50" y1="73.5938" y2="329.2578"/><line style="stroke:#181818;stroke-width:0.5;stroke-dasharray:5.0,5.0;" x1="235.1558" x2="235.1558" y1="73.5938" y2="329.2578"/><line style="stroke:#181818;stroke-width:0.5;stroke-dasharray:5.0,5.0;" x1="366.3203" x2="366.3203" y1="73.5938" y2="329.2578"/><rect fill="#E2E2F0" height="30.2969" rx="2.5" ry="2.5" style="stroke:#181818;stroke-width:0.5;" width="91.8477" x="5" y="42.2969"/><text fill="#000000" font-family="sans-serif" font-size="14" lengthAdjust="spacing" textLength="77.8477" x="12" y="62.292">aCaretaker</text><rect fill="#E2E2F0" height="30.2969" rx="2.5" ry="2.5" style="stroke:#181818;stroke-width:0.5;" width="91.8477" x="5" y="328.2578"/><text fill="#000000" font-family="sans-serif" font-size="14" lengthAdjust="spacing" textLength="77.8477" x="12" y="348.2529">aCaretaker</text><rect fill="#E2E2F0" height="30.2969" rx="2.5" ry="2.5" style="stroke:#181818;stroke-width:0.5;" width="102.1563" x="184.1558" y="42.2969"/><text fill="#000000" font-family="sans-serif" font-size="14" lengthAdjust="spacing" textLength="88.1563" x="191.1558" y="62.292">anOriginator</text><rect fill="#E2E2F0" height="30.2969" rx="2.5" ry="2.5" style="stroke:#181818;stroke-width:0.5;" width="102.1563" x="184.1558" y="328.2578"/><text fill="#000000" font-family="sans-serif" font-size="14" lengthAdjust="spacing" textLength="88.1563" x="191.1558" y="348.2529">anOriginator</text><rect fill="#E2E2F0" height="30.2969" rx="2.5" ry="2.5" style="stroke:#181818;stroke-width:0.5;" width="88.4502" x="322.3203" y="42.2969"/><text fill="#000000" font-family="sans-serif" font-size="14" lengthAdjust="spacing" textLength="74.4502" x="329.3203" y="62.292">aMemento</text><rect fill="#E2E2F0" height="30.2969" rx="2.5" ry="2.5" style="stroke:#181818;stroke-width:0.5;" width="88.4502" x="322.3203" y="328.2578"/><text fill="#000000" font-family="sans-serif" font-size="14" lengthAdjust="spacing" textLength="74.4502" x="329.3203" y="348.2529">aMemento</text><rect fill="#FFFFFF" height="118.2656" style="stroke:#181818;stroke-width:1.0;" width="10" x="45.9238" y="104.7266"/><rect fill="#FFFFFF" height="59.1328" style="stroke:#181818;stroke-width:1.0;" width="10" x="45.9238" y="252.125"/><rect fill="#FFFFFF" height="118.2656" style="stroke:#181818;stroke-width:1.0;" width="10" x="230.2339" y="104.7266"/><rect fill="#FFFFFF" height="59.1328" style="stroke:#181818;stroke-width:1.0;" width="10" x="230.2339" y="252.125"/><rect fill="#FFFFFF" height="30" style="stroke:#181818;stroke-width:1.0;" width="10" x="361.5454" y="133.8594"/><rect fill="#FFFFFF" height="30" style="stroke:#181818;stroke-width:1.0;" width="10" x="361.5454" y="192.9922"/><rect fill="#FFFFFF" height="30" style="stroke:#181818;stroke-width:1.0;" width="10" x="361.5454" y="281.2578"/><polygon fill="#181818" points="218.2339,100.7266,228.2339,104.7266,218.2339,108.7266,222.2339,104.7266" style="stroke:#181818;stroke-width:1.0;"/><line style="stroke:#181818;stroke-width:1.0;" x1="55.9238" x2="224.2339" y1="104.7266" y2="104.7266"/><text fill="#000000" font-family="sans-serif" font-size="13" lengthAdjust="spacing" textLength="112.8613" x="62.9238" y="99.6606">createMemento()</text><polygon fill="#181818" points="349.5454,129.8594,359.5454,133.8594,349.5454,137.8594,353.5454,133.8594" style="stroke:#181818;stroke-width:1.0;"/><line style="stroke:#181818;stroke-width:1.0;" x1="240.2339" x2="355.5454" y1="133.8594" y2="133.8594"/><text fill="#000000" font-family="sans-serif" font-size="13" lengthAdjust="spacing" textLength="102.3115" x="247.2339" y="128.7935">new Memento()</text><polygon fill="#181818" points="349.5454,188.9922,359.5454,192.9922,349.5454,196.9922,353.5454,192.9922" style="stroke:#181818;stroke-width:1.0;"/><line style="stroke:#181818;stroke-width:1.0;" x1="240.2339" x2="355.5454" y1="192.9922" y2="192.9922"/><text fill="#000000" font-family="sans-serif" font-size="13" lengthAdjust="spacing" textLength="64.4224" x="247.2339" y="187.9263">setState()</text><polygon fill="#181818" points="218.2339,248.125,228.2339,252.125,218.2339,256.125,222.2339,252.125" style="stroke:#181818;stroke-width:1.0;"/><line style="stroke:#181818;stroke-width:1.0;" x1="55.9238" x2="224.2339" y1="252.125" y2="252.125"/><text fill="#000000" font-family="sans-serif" font-size="13" lengthAdjust="spacing" textLength="160.3101" x="62.9238" y="247.0591">setMemento(aMemento)</text><polygon fill="#181818" points="349.5454,277.2578,359.5454,281.2578,349.5454,285.2578,353.5454,281.2578" style="stroke:#181818;stroke-width:1.0;"/><line style="stroke:#181818;stroke-width:1.0;" x1="240.2339" x2="355.5454" y1="281.2578" y2="281.2578"/><text fill="#000000" font-family="sans-serif" font-size="13" lengthAdjust="spacing" textLength="65.9014" x="247.2339" y="276.1919">getState()</text><!--SRC=[ZL0n3i8m3Dpp2c-q0nzWOCaS5K4_O5ghYYX9vLf5_1uNqJO5WSZay_byvuYNbi3HbO94EA08SG0RsnRFqPWEMNpbEmm2Q959y48Cs8CjrsGes3S-eCGdNHpNzEIWb7F6s1AsUns27LHCAFJYiznW9NxGpkYm0DsdqwfnJZM1Rh0ebYbTNLEAKb5FSXBjPpde-oLAeFecQ8oqgQaNZlSHpBMEpVNRVMexHPr-uRyZcpcl-PPk7VqpwmC0]--></g></svg>