<?xml version="1.0" encoding="us-ascii" standalone="no"?><svg xmlns="http://www.w3.org/2000/svg" xmlns:xlink="http://www.w3.org/1999/xlink" contentStyleType="text/css" height="946px" preserveAspectRatio="none" style="width:1226px;height:946px;background:#FFFFFF;" version="1.1" viewBox="0 0 1226 946" width="1226px" zoomAndPan="magnify"><defs/><g><text fill="#000000" font-family="sans-serif" font-size="14" font-weight="bold" lengthAdjust="spacing" textLength="244" x="484" y="22.9951">Memento Pattern Sample Code</text><!--class Graphic--><g id="elem_Graphic"><rect codeLine="7" fill="#F1F1F1" height="113.1875" id="Graphic" rx="2.5" ry="2.5" style="stroke:#181818;stroke-width:0.5;" width="150" x="730" y="480.8569"/><ellipse cx="774.25" cy="496.8569" fill="#A9DCDF" rx="11" ry="11" style="stroke:#181818;stroke-width:1.0;"/><path d="M774.3594,492.2006 L773.2031,497.2787 L775.5313,497.2787 L774.3594,492.2006 Z M772.875,489.9662 L775.8594,489.9662 L779.2188,502.3569 L776.7656,502.3569 L776,499.2944 L772.7188,499.2944 L771.9688,502.3569 L769.5313,502.3569 L772.875,489.9662 Z " fill="#000000"/><text fill="#000000" font-family="sans-serif" font-size="14" font-style="italic" lengthAdjust="spacing" textLength="53" x="794.75" y="501.7036">Graphic</text><line style="stroke:#181818;stroke-width:0.5;" x1="731" x2="879" y1="512.8569" y2="512.8569"/><polygon fill="none" points="741,521.5053,745,525.5053,741,529.5053,737,525.5053" style="stroke:#B38D22;stroke-width:1.0;"/><text fill="#000000" font-family="sans-serif" font-size="14" lengthAdjust="spacing" textLength="93" x="750" y="529.852">center : Point</text><line style="stroke:#181818;stroke-width:0.5;" x1="731" x2="879" y1="537.1538" y2="537.1538"/><ellipse cx="741" cy="550.8022" fill="#84BE84" rx="3" ry="3" style="stroke:#038048;stroke-width:1.0;"/><text fill="#000000" font-family="sans-serif" font-size="14" lengthAdjust="spacing" textLength="124" x="750" y="554.1489">move(Point) : void</text><ellipse cx="741" cy="567.0991" fill="#84BE84" rx="3" ry="3" style="stroke:#038048;stroke-width:1.0;"/><text fill="#000000" font-family="sans-serif" font-size="14" lengthAdjust="spacing" textLength="98" x="750" y="570.4457">display() : void</text><rect fill="#F24D5C" height="6" style="stroke:#C82930;stroke-width:1.0;" width="6" x="738" y="580.3959"/><text fill="#000000" font-family="sans-serif" font-size="14" lengthAdjust="spacing" textLength="103" x="750" y="586.7426">center() : Point</text></g><!--class GraphicCanvas--><g id="elem_GraphicCanvas"><rect codeLine="8" fill="#F1F1F1" height="145.7813" id="GraphicCanvas" rx="2.5" ry="2.5" style="stroke:#181818;stroke-width:0.5;" width="182" x="1037" y="300.5569"/><ellipse cx="1073.15" cy="316.5569" fill="#ADD1B2" rx="11" ry="11" style="stroke:#181818;stroke-width:1.0;"/><path d="M1076.1188,322.1975 Q1075.5406,322.4944 1074.9,322.635 Q1074.2594,322.7913 1073.5563,322.7913 Q1071.0563,322.7913 1069.7281,321.1506 Q1068.4156,319.4944 1068.4156,316.3694 Q1068.4156,313.2444 1069.7281,311.5881 Q1071.0563,309.9319 1073.5563,309.9319 Q1074.2594,309.9319 1074.9,310.0881 Q1075.5563,310.2444 1076.1188,310.5413 L1076.1188,313.26 Q1075.4938,312.6819 1074.9,312.4163 Q1074.3063,312.135 1073.6813,312.135 Q1072.3375,312.135 1071.65,313.2131 Q1070.9625,314.2756 1070.9625,316.3694 Q1070.9625,318.4631 1071.65,319.5413 Q1072.3375,320.6038 1073.6813,320.6038 Q1074.3063,320.6038 1074.9,320.3381 Q1075.4938,320.0569 1076.1188,319.4788 L1076.1188,322.1975 Z " fill="#000000"/><text fill="#000000" font-family="sans-serif" font-size="14" lengthAdjust="spacing" textLength="103" x="1091.85" y="321.4036">GraphicCanvas</text><line style="stroke:#181818;stroke-width:0.5;" x1="1038" x2="1218" y1="332.5569" y2="332.5569"/><rect fill="none" height="6" style="stroke:#C82930;stroke-width:1.0;" width="6" x="1045" y="343.2053"/><text fill="#000000" font-family="sans-serif" font-size="14" lengthAdjust="spacing" textLength="155" x="1057" y="349.552">children : Graphic[0..*]</text><line style="stroke:#181818;stroke-width:0.5;" x1="1038" x2="1218" y1="356.8538" y2="356.8538"/><ellipse cx="1048" cy="370.5022" fill="#84BE84" rx="3" ry="3" style="stroke:#038048;stroke-width:1.0;"/><text fill="#000000" font-family="sans-serif" font-size="14" lengthAdjust="spacing" textLength="139" x="1057" y="373.8489">add(Graphic) : voidq</text><ellipse cx="1048" cy="386.7991" fill="#84BE84" rx="3" ry="3" style="stroke:#038048;stroke-width:1.0;"/><text fill="#000000" font-family="sans-serif" font-size="14" lengthAdjust="spacing" textLength="156" x="1057" y="390.1457">remove(Graphic) : void</text><ellipse cx="1048" cy="403.0959" fill="#84BE84" rx="3" ry="3" style="stroke:#038048;stroke-width:1.0;"/><text fill="#000000" font-family="sans-serif" font-size="14" lengthAdjust="spacing" textLength="124" x="1057" y="406.4426">move(Point) : void</text><ellipse cx="1048" cy="419.3928" fill="#84BE84" rx="3" ry="3" style="stroke:#038048;stroke-width:1.0;"/><text fill="#000000" font-family="sans-serif" font-size="14" lengthAdjust="spacing" textLength="98" x="1057" y="422.7395">display() : void</text><ellipse cx="1048" cy="435.6897" fill="#84BE84" rx="3" ry="3" style="stroke:#038048;stroke-width:1.0;"/><text fill="#000000" font-family="sans-serif" font-size="14" lengthAdjust="spacing" textLength="103" x="1057" y="439.0364">center() : Point</text></g><!--class GraphicRectangle--><g id="elem_GraphicRectangle"><rect codeLine="9" fill="#F1F1F1" height="113.1875" id="GraphicRectangle" rx="2.5" ry="2.5" style="stroke:#181818;stroke-width:0.5;" width="155" x="1050.5" y="480.8569"/><ellipse cx="1065.5" cy="496.8569" fill="#ADD1B2" rx="11" ry="11" style="stroke:#181818;stroke-width:1.0;"/><path d="M1068.4688,502.4975 Q1067.8906,502.7944 1067.25,502.935 Q1066.6094,503.0912 1065.9063,503.0912 Q1063.4063,503.0912 1062.0781,501.4506 Q1060.7656,499.7944 1060.7656,496.6694 Q1060.7656,493.5444 1062.0781,491.8881 Q1063.4063,490.2319 1065.9063,490.2319 Q1066.6094,490.2319 1067.25,490.3881 Q1067.9063,490.5444 1068.4688,490.8412 L1068.4688,493.56 Q1067.8438,492.9819 1067.25,492.7162 Q1066.6563,492.435 1066.0313,492.435 Q1064.6875,492.435 1064,493.5131 Q1063.3125,494.5756 1063.3125,496.6694 Q1063.3125,498.7631 1064,499.8412 Q1064.6875,500.9037 1066.0313,500.9037 Q1066.6563,500.9037 1067.25,500.6381 Q1067.8438,500.3569 1068.4688,499.7787 L1068.4688,502.4975 Z " fill="#000000"/><text fill="#000000" font-family="sans-serif" font-size="14" lengthAdjust="spacing" textLength="123" x="1079.5" y="501.7036">GraphicRectangle</text><line style="stroke:#181818;stroke-width:0.5;" x1="1051.5" x2="1204.5" y1="512.8569" y2="512.8569"/><rect fill="none" height="6" style="stroke:#C82930;stroke-width:1.0;" width="6" x="1058.5" y="523.5053"/><text fill="#000000" font-family="sans-serif" font-size="14" lengthAdjust="spacing" textLength="72" x="1070.5" y="529.852">rect : Rect</text><line style="stroke:#181818;stroke-width:0.5;" x1="1051.5" x2="1204.5" y1="537.1538" y2="537.1538"/><ellipse cx="1061.5" cy="550.8022" fill="#84BE84" rx="3" ry="3" style="stroke:#038048;stroke-width:1.0;"/><text fill="#000000" font-family="sans-serif" font-size="14" lengthAdjust="spacing" textLength="124" x="1070.5" y="554.1489">move(Point) : void</text><ellipse cx="1061.5" cy="567.0991" fill="#84BE84" rx="3" ry="3" style="stroke:#038048;stroke-width:1.0;"/><text fill="#000000" font-family="sans-serif" font-size="14" lengthAdjust="spacing" textLength="98" x="1070.5" y="570.4457">display() : void</text><ellipse cx="1061.5" cy="583.3959" fill="#84BE84" rx="3" ry="3" style="stroke:#038048;stroke-width:1.0;"/><text fill="#000000" font-family="sans-serif" font-size="14" lengthAdjust="spacing" textLength="103" x="1070.5" y="586.7426">center() : Point</text></g><!--class GraphicLine--><g id="elem_GraphicLine"><rect codeLine="10" fill="#F1F1F1" height="129.4844" id="GraphicLine" rx="2.5" ry="2.5" style="stroke:#181818;stroke-width:0.5;" width="150" x="1053" y="628.7069"/><ellipse cx="1084.65" cy="644.7069" fill="#ADD1B2" rx="11" ry="11" style="stroke:#181818;stroke-width:1.0;"/><path d="M1087.6188,650.3475 Q1087.0406,650.6444 1086.4,650.785 Q1085.7594,650.9413 1085.0563,650.9413 Q1082.5563,650.9413 1081.2281,649.3006 Q1079.9156,647.6444 1079.9156,644.5194 Q1079.9156,641.3944 1081.2281,639.7381 Q1082.5563,638.0819 1085.0563,638.0819 Q1085.7594,638.0819 1086.4,638.2381 Q1087.0563,638.3944 1087.6188,638.6913 L1087.6188,641.41 Q1086.9938,640.8319 1086.4,640.5663 Q1085.8063,640.285 1085.1813,640.285 Q1083.8375,640.285 1083.15,641.3631 Q1082.4625,642.4256 1082.4625,644.5194 Q1082.4625,646.6131 1083.15,647.6913 Q1083.8375,648.7538 1085.1813,648.7538 Q1085.8063,648.7538 1086.4,648.4881 Q1086.9938,648.2069 1087.6188,647.6288 L1087.6188,650.3475 Z " fill="#000000"/><text fill="#000000" font-family="sans-serif" font-size="14" lengthAdjust="spacing" textLength="81" x="1102.35" y="649.5536">GraphicLine</text><line style="stroke:#181818;stroke-width:0.5;" x1="1054" x2="1202" y1="660.7069" y2="660.7069"/><rect fill="none" height="6" style="stroke:#C82930;stroke-width:1.0;" width="6" x="1061" y="671.3553"/><text fill="#000000" font-family="sans-serif" font-size="14" lengthAdjust="spacing" textLength="79" x="1073" y="677.702">start : Point</text><rect fill="none" height="6" style="stroke:#C82930;stroke-width:1.0;" width="6" x="1061" y="687.6522"/><text fill="#000000" font-family="sans-serif" font-size="14" lengthAdjust="spacing" textLength="75" x="1073" y="693.9989">end : Point</text><line style="stroke:#181818;stroke-width:0.5;" x1="1054" x2="1202" y1="701.3006" y2="701.3006"/><ellipse cx="1064" cy="714.9491" fill="#84BE84" rx="3" ry="3" style="stroke:#038048;stroke-width:1.0;"/><text fill="#000000" font-family="sans-serif" font-size="14" lengthAdjust="spacing" textLength="124" x="1073" y="718.2957">move(Point) : void</text><ellipse cx="1064" cy="731.2459" fill="#84BE84" rx="3" ry="3" style="stroke:#038048;stroke-width:1.0;"/><text fill="#000000" font-family="sans-serif" font-size="14" lengthAdjust="spacing" textLength="98" x="1073" y="734.5926">display() : void</text><rect fill="#F24D5C" height="6" style="stroke:#C82930;stroke-width:1.0;" width="6" x="1061" y="744.5428"/><text fill="#000000" font-family="sans-serif" font-size="14" lengthAdjust="spacing" textLength="103" x="1073" y="750.8895">center() : Point</text></g><!--class GraphicConnect--><g id="elem_GraphicConnect"><rect codeLine="11" fill="#F1F1F1" height="145.7813" id="GraphicConnect" rx="2.5" ry="2.5" style="stroke:#181818;stroke-width:0.5;" width="150" x="1053" y="793.5569"/><ellipse cx="1070.7" cy="809.5569" fill="#ADD1B2" rx="11" ry="11" style="stroke:#181818;stroke-width:1.0;"/><path d="M1073.6688,815.1975 Q1073.0906,815.4944 1072.45,815.635 Q1071.8094,815.7913 1071.1063,815.7913 Q1068.6063,815.7913 1067.2781,814.1506 Q1065.9656,812.4944 1065.9656,809.3694 Q1065.9656,806.2444 1067.2781,804.5881 Q1068.6063,802.9319 1071.1063,802.9319 Q1071.8094,802.9319 1072.45,803.0881 Q1073.1063,803.2444 1073.6688,803.5413 L1073.6688,806.26 Q1073.0438,805.6819 1072.45,805.4163 Q1071.8563,805.135 1071.2313,805.135 Q1069.8875,805.135 1069.2,806.2131 Q1068.5125,807.2756 1068.5125,809.3694 Q1068.5125,811.4631 1069.2,812.5413 Q1069.8875,813.6038 1071.2313,813.6038 Q1071.8563,813.6038 1072.45,813.3381 Q1073.0438,813.0569 1073.6688,812.4788 L1073.6688,815.1975 Z " fill="#000000"/><text fill="#000000" font-family="sans-serif" font-size="14" lengthAdjust="spacing" textLength="112" x="1085.3" y="814.4036">GraphicConnect</text><line style="stroke:#181818;stroke-width:0.5;" x1="1054" x2="1202" y1="825.5569" y2="825.5569"/><rect fill="none" height="6" style="stroke:#C82930;stroke-width:1.0;" width="6" x="1061" y="836.2053"/><text fill="#000000" font-family="sans-serif" font-size="14" lengthAdjust="spacing" textLength="97" x="1073" y="842.552">start : Graphic</text><rect fill="none" height="6" style="stroke:#C82930;stroke-width:1.0;" width="6" x="1061" y="852.5022"/><text fill="#000000" font-family="sans-serif" font-size="14" lengthAdjust="spacing" textLength="93" x="1073" y="858.8489">end : Graphic</text><rect fill="none" height="6" style="stroke:#C82930;stroke-width:1.0;" width="6" x="1061" y="868.7991"/><text fill="#000000" font-family="sans-serif" font-size="14" lengthAdjust="spacing" textLength="118" x="1073" y="875.1457">line : GraphicLine</text><line style="stroke:#181818;stroke-width:0.5;" x1="1054" x2="1202" y1="882.4475" y2="882.4475"/><ellipse cx="1064" cy="896.0959" fill="#84BE84" rx="3" ry="3" style="stroke:#038048;stroke-width:1.0;"/><text fill="#000000" font-family="sans-serif" font-size="14" lengthAdjust="spacing" textLength="124" x="1073" y="899.4426">move(Point) : void</text><ellipse cx="1064" cy="912.3928" fill="#84BE84" rx="3" ry="3" style="stroke:#038048;stroke-width:1.0;"/><text fill="#000000" font-family="sans-serif" font-size="14" lengthAdjust="spacing" textLength="98" x="1073" y="915.7395">display() : void</text><rect fill="#F24D5C" height="6" style="stroke:#C82930;stroke-width:1.0;" width="6" x="1061" y="925.6897"/><text fill="#000000" font-family="sans-serif" font-size="14" lengthAdjust="spacing" textLength="103" x="1073" y="932.0364">center() : Point</text></g><!--class ConstraintSolver--><g id="elem_ConstraintSolver"><rect codeLine="12" fill="#F1F1F1" height="162.0781" id="ConstraintSolver" rx="2.5" ry="2.5" style="stroke:#181818;stroke-width:0.5;" width="344" x="633" y="160.4069"/><ellipse cx="744.25" cy="176.4069" fill="#ADD1B2" rx="11" ry="11" style="stroke:#181818;stroke-width:1.0;"/><path d="M747.2188,182.0475 Q746.6406,182.3444 746,182.485 Q745.3594,182.6413 744.6563,182.6413 Q742.1563,182.6413 740.8281,181.0006 Q739.5156,179.3444 739.5156,176.2194 Q739.5156,173.0944 740.8281,171.4381 Q742.1563,169.7819 744.6563,169.7819 Q745.3594,169.7819 746,169.9381 Q746.6563,170.0944 747.2188,170.3913 L747.2188,173.11 Q746.5938,172.5319 746,172.2663 Q745.4063,171.985 744.7813,171.985 Q743.4375,171.985 742.75,173.0631 Q742.0625,174.1256 742.0625,176.2194 Q742.0625,178.3131 742.75,179.3913 Q743.4375,180.4538 744.7813,180.4538 Q745.4063,180.4538 746,180.1881 Q746.5938,179.9069 747.2188,179.3288 L747.2188,182.0475 Z " fill="#000000"/><text fill="#000000" font-family="sans-serif" font-size="14" lengthAdjust="spacing" textLength="113" x="764.75" y="181.2536">ConstraintSolver</text><line style="stroke:#181818;stroke-width:0.5;" x1="634" x2="976" y1="192.4069" y2="192.4069"/><rect fill="none" height="6" style="stroke:#C82930;stroke-width:1.0;" width="6" x="641" y="203.0553"/><text fill="#000000" font-family="sans-serif" font-size="14" lengthAdjust="spacing" textLength="126" x="653" y="209.402">state : StateSolver</text><line style="stroke:#181818;stroke-width:0.5;" x1="634" x2="976" y1="216.7038" y2="216.7038"/><ellipse cx="644" cy="230.3522" fill="#84BE84" rx="3" ry="3" style="stroke:#038048;stroke-width:1.0;"/><text fill="#000000" font-family="sans-serif" font-size="14" lengthAdjust="spacing" text-decoration="underline" textLength="195" x="653" y="233.6989">instance() : ConstraintSolver</text><ellipse cx="644" cy="246.6491" fill="#84BE84" rx="3" ry="3" style="stroke:#038048;stroke-width:1.0;"/><text fill="#000000" font-family="sans-serif" font-size="14" lengthAdjust="spacing" textLength="87" x="653" y="249.9957">solve() : void</text><ellipse cx="644" cy="262.9459" fill="#84BE84" rx="3" ry="3" style="stroke:#038048;stroke-width:1.0;"/><text fill="#000000" font-family="sans-serif" font-size="14" lengthAdjust="spacing" textLength="201" x="653" y="266.2926">addConstraint(Graphic) : void</text><ellipse cx="644" cy="279.2428" fill="#84BE84" rx="3" ry="3" style="stroke:#038048;stroke-width:1.0;"/><text fill="#000000" font-family="sans-serif" font-size="14" lengthAdjust="spacing" textLength="227" x="653" y="282.5895">removeConstraint(Graphic) : void</text><ellipse cx="644" cy="295.5397" fill="#84BE84" rx="3" ry="3" style="stroke:#038048;stroke-width:1.0;"/><text fill="#000000" font-family="sans-serif" font-size="14" lengthAdjust="spacing" textLength="312" x="653" y="298.8864">createMemento() : ConstraintSolverMemento</text><ellipse cx="644" cy="311.8366" fill="#84BE84" rx="3" ry="3" style="stroke:#038048;stroke-width:1.0;"/><text fill="#000000" font-family="sans-serif" font-size="14" lengthAdjust="spacing" textLength="318" x="653" y="315.1832">setMemento(ConstraintSolverMemento) : void</text></g><!--class State--><g id="elem_State"><rect codeLine="14" fill="#F1F1F1" height="48" id="State" rx="2.5" ry="2.5" style="stroke:#181818;stroke-width:0.5;" width="68" x="99.5" y="52.4469"/><ellipse cx="114.5" cy="68.4469" fill="#A9DCDF" rx="11" ry="11" style="stroke:#181818;stroke-width:1.0;"/><path d="M114.6094,63.7906 L113.4531,68.8687 L115.7813,68.8687 L114.6094,63.7906 Z M113.125,61.5562 L116.1094,61.5562 L119.4688,73.9469 L117.0156,73.9469 L116.25,70.8844 L112.9688,70.8844 L112.2188,73.9469 L109.7813,73.9469 L113.125,61.5562 Z " fill="#000000"/><text fill="#000000" font-family="sans-serif" font-size="14" font-style="italic" lengthAdjust="spacing" textLength="36" x="128.5" y="73.2936">State</text><line style="stroke:#181818;stroke-width:0.5;" x1="100.5" x2="166.5" y1="84.4469" y2="84.4469"/><line style="stroke:#181818;stroke-width:0.5;" x1="100.5" x2="166.5" y1="92.4469" y2="92.4469"/></g><!--class StateSolver--><g id="elem_StateSolver"><rect codeLine="15" fill="#F1F1F1" height="64.2969" id="StateSolver" rx="2.5" ry="2.5" style="stroke:#181818;stroke-width:0.5;" width="110" x="391.5" y="44.2969"/><ellipse cx="406.5" cy="60.2969" fill="#ADD1B2" rx="11" ry="11" style="stroke:#181818;stroke-width:1.0;"/><path d="M409.4688,65.9375 Q408.8906,66.2344 408.25,66.375 Q407.6094,66.5313 406.9063,66.5313 Q404.4063,66.5313 403.0781,64.8906 Q401.7656,63.2344 401.7656,60.1094 Q401.7656,56.9844 403.0781,55.3281 Q404.4063,53.6719 406.9063,53.6719 Q407.6094,53.6719 408.25,53.8281 Q408.9063,53.9844 409.4688,54.2813 L409.4688,57 Q408.8438,56.4219 408.25,56.1563 Q407.6563,55.875 407.0313,55.875 Q405.6875,55.875 405,56.9531 Q404.3125,58.0156 404.3125,60.1094 Q404.3125,62.2031 405,63.2813 Q405.6875,64.3438 407.0313,64.3438 Q407.6563,64.3438 408.25,64.0781 Q408.8438,63.7969 409.4688,63.2188 L409.4688,65.9375 Z " fill="#000000"/><text fill="#000000" font-family="sans-serif" font-size="14" lengthAdjust="spacing" textLength="78" x="420.5" y="65.1436">StateSolver</text><line style="stroke:#181818;stroke-width:0.5;" x1="392.5" x2="500.5" y1="76.2969" y2="76.2969"/><rect fill="none" height="6" style="stroke:#C82930;stroke-width:1.0;" width="6" x="399.5" y="86.9453"/><text fill="#000000" font-family="sans-serif" font-size="14" lengthAdjust="spacing" textLength="77" x="411.5" y="93.292">constraints</text><line style="stroke:#181818;stroke-width:0.5;" x1="392.5" x2="500.5" y1="100.5938" y2="100.5938"/></g><!--class Memento--><g id="elem_Memento"><rect codeLine="17" fill="#F1F1F1" height="113.1875" id="Memento" rx="2.5" ry="2.5" style="stroke:#181818;stroke-width:0.5;" width="171" x="361" y="143.8569"/><ellipse cx="409.25" cy="159.8569" fill="#A9DCDF" rx="11" ry="11" style="stroke:#181818;stroke-width:1.0;"/><path d="M409.3594,155.2006 L408.2031,160.2787 L410.5313,160.2787 L409.3594,155.2006 Z M407.875,152.9662 L410.8594,152.9662 L414.2188,165.3569 L411.7656,165.3569 L411,162.2944 L407.7188,162.2944 L406.9688,165.3569 L404.5313,165.3569 L407.875,152.9662 Z " fill="#000000"/><text fill="#000000" font-family="sans-serif" font-size="14" font-style="italic" lengthAdjust="spacing" textLength="66" x="429.75" y="164.7036">Memento</text><line style="stroke:#181818;stroke-width:0.5;" x1="362" x2="531" y1="175.8569" y2="175.8569"/><rect fill="none" height="6" style="stroke:#C82930;stroke-width:1.0;" width="6" x="369" y="186.5053"/><text fill="#000000" font-family="sans-serif" font-size="14" lengthAdjust="spacing" textLength="84" x="381" y="192.852">state : State</text><line style="stroke:#181818;stroke-width:0.5;" x1="362" x2="531" y1="200.1537" y2="200.1537"/><rect fill="#F24D5C" height="6" style="stroke:#C82930;stroke-width:1.0;" width="6" x="369" y="210.8022"/><text fill="#000000" font-family="sans-serif" font-size="14" lengthAdjust="spacing" textLength="76" x="381" y="217.1489">Memento()</text><ellipse cx="372" cy="230.0991" fill="#84BE84" rx="3" ry="3" style="stroke:#038048;stroke-width:1.0;"/><text fill="#000000" font-family="sans-serif" font-size="14" lengthAdjust="spacing" textLength="145" x="381" y="233.4457">setState(State) : void</text><ellipse cx="372" cy="246.3959" fill="#84BE84" rx="3" ry="3" style="stroke:#038048;stroke-width:1.0;"/><text fill="#000000" font-family="sans-serif" font-size="14" lengthAdjust="spacing" textLength="118" x="381" y="249.7426">getState() : State</text></g><!--class ConstraintSolverMemento--><g id="elem_ConstraintSolverMemento"><rect codeLine="19" fill="#F1F1F1" height="64.2969" id="ConstraintSolverMemento" rx="2.5" ry="2.5" style="stroke:#181818;stroke-width:0.5;" width="215" x="697.5" y="357.2969"/><ellipse cx="714.3" cy="373.2969" fill="#ADD1B2" rx="11" ry="11" style="stroke:#181818;stroke-width:1.0;"/><path d="M717.2688,378.9375 Q716.6906,379.2344 716.05,379.375 Q715.4094,379.5313 714.7063,379.5313 Q712.2063,379.5313 710.8781,377.8906 Q709.5656,376.2344 709.5656,373.1094 Q709.5656,369.9844 710.8781,368.3281 Q712.2063,366.6719 714.7063,366.6719 Q715.4094,366.6719 716.05,366.8281 Q716.7063,366.9844 717.2688,367.2813 L717.2688,370 Q716.6438,369.4219 716.05,369.1563 Q715.4563,368.875 714.8313,368.875 Q713.4875,368.875 712.8,369.9531 Q712.1125,371.0156 712.1125,373.1094 Q712.1125,375.2031 712.8,376.2813 Q713.4875,377.3438 714.8313,377.3438 Q715.4563,377.3438 716.05,377.0781 Q716.6438,376.7969 717.2688,376.2188 L717.2688,378.9375 Z " fill="#000000"/><text fill="#000000" font-family="sans-serif" font-size="14" lengthAdjust="spacing" textLength="179" x="728.7" y="378.1436">ConstraintSolverMemento</text><line style="stroke:#181818;stroke-width:0.5;" x1="698.5" x2="911.5" y1="389.2969" y2="389.2969"/><line style="stroke:#181818;stroke-width:0.5;" x1="698.5" x2="911.5" y1="397.2969" y2="397.2969"/><rect fill="#F24D5C" height="6" style="stroke:#C82930;stroke-width:1.0;" width="6" x="705.5" y="407.9453"/><text fill="#000000" font-family="sans-serif" font-size="14" lengthAdjust="spacing" textLength="189" x="717.5" y="414.292">ConstraintSolverMemento()</text></g><!--class Command--><g id="elem_Command"><rect codeLine="21" fill="#F1F1F1" height="129.4844" id="Command" rx="2.5" ry="2.5" style="stroke:#181818;stroke-width:0.5;" width="253" x="7" y="472.7069"/><ellipse cx="93.75" cy="488.7069" fill="#ADD1B2" rx="11" ry="11" style="stroke:#181818;stroke-width:1.0;"/><path d="M96.7188,494.3475 Q96.1406,494.6444 95.5,494.785 Q94.8594,494.9412 94.1563,494.9412 Q91.6563,494.9412 90.3281,493.3006 Q89.0156,491.6444 89.0156,488.5194 Q89.0156,485.3944 90.3281,483.7381 Q91.6563,482.0819 94.1563,482.0819 Q94.8594,482.0819 95.5,482.2381 Q96.1563,482.3944 96.7188,482.6912 L96.7188,485.41 Q96.0938,484.8319 95.5,484.5662 Q94.9063,484.285 94.2813,484.285 Q92.9375,484.285 92.25,485.3631 Q91.5625,486.4256 91.5625,488.5194 Q91.5625,490.6131 92.25,491.6912 Q92.9375,492.7537 94.2813,492.7537 Q94.9063,492.7537 95.5,492.4881 Q96.0938,492.2069 96.7188,491.6287 L96.7188,494.3475 Z " fill="#000000"/><text fill="#000000" font-family="sans-serif" font-size="14" lengthAdjust="spacing" textLength="71" x="114.25" y="493.5536">Command</text><line style="stroke:#181818;stroke-width:0.5;" x1="8" x2="259" y1="504.7069" y2="504.7069"/><rect fill="none" height="6" style="stroke:#C82930;stroke-width:1.0;" width="6" x="15" y="515.3553"/><text fill="#000000" font-family="sans-serif" font-size="14" lengthAdjust="spacing" textLength="114" x="27" y="521.702">canvas : Graphic</text><rect fill="none" height="6" style="stroke:#C82930;stroke-width:1.0;" width="6" x="15" y="531.6522"/><text fill="#000000" font-family="sans-serif" font-size="14" lengthAdjust="spacing" textLength="107" x="27" y="537.9989">target : Graphic</text><rect fill="none" height="6" style="stroke:#C82930;stroke-width:1.0;" width="6" x="15" y="547.9491"/><text fill="#000000" font-family="sans-serif" font-size="14" lengthAdjust="spacing" textLength="227" x="27" y="554.2957">state : ConstraintSolverMemento</text><line style="stroke:#181818;stroke-width:0.5;" x1="8" x2="259" y1="561.5975" y2="561.5975"/><ellipse cx="18" cy="575.2459" fill="#84BE84" rx="3" ry="3" style="stroke:#038048;stroke-width:1.0;"/><text fill="#000000" font-family="sans-serif" font-size="14" lengthAdjust="spacing" textLength="107" x="27" y="578.5926">execute() : void</text><ellipse cx="18" cy="591.5428" fill="#84BE84" rx="3" ry="3" style="stroke:#038048;stroke-width:1.0;"/><text fill="#000000" font-family="sans-serif" font-size="14" lengthAdjust="spacing" textLength="125" x="27" y="594.8895">unexecute() : void</text></g><!--class CommandCreateRectangle--><g id="elem_CommandCreateRectangle"><rect codeLine="22" fill="#F1F1F1" height="145.7813" id="CommandCreateRectangle" rx="2.5" ry="2.5" style="stroke:#181818;stroke-width:0.5;" width="253" x="320" y="291.5569"/><ellipse cx="350.3" cy="307.5569" fill="#ADD1B2" rx="11" ry="11" style="stroke:#181818;stroke-width:1.0;"/><path d="M353.2688,313.1975 Q352.6906,313.4944 352.05,313.635 Q351.4094,313.7913 350.7063,313.7913 Q348.2063,313.7913 346.8781,312.1506 Q345.5656,310.4944 345.5656,307.3694 Q345.5656,304.2444 346.8781,302.5881 Q348.2063,300.9319 350.7063,300.9319 Q351.4094,300.9319 352.05,301.0881 Q352.7063,301.2444 353.2688,301.5413 L353.2688,304.26 Q352.6438,303.6819 352.05,303.4163 Q351.4563,303.135 350.8313,303.135 Q349.4875,303.135 348.8,304.2131 Q348.1125,305.2756 348.1125,307.3694 Q348.1125,309.4631 348.8,310.5413 Q349.4875,311.6038 350.8313,311.6038 Q351.4563,311.6038 352.05,311.3381 Q352.6438,311.0569 353.2688,310.4788 L353.2688,313.1975 Z " fill="#000000"/><text fill="#000000" font-family="sans-serif" font-size="14" lengthAdjust="spacing" textLength="187" x="367.7" y="312.4036">CommandCreateRectangle</text><line style="stroke:#181818;stroke-width:0.5;" x1="321" x2="572" y1="323.5569" y2="323.5569"/><rect fill="none" height="6" style="stroke:#C82930;stroke-width:1.0;" width="6" x="328" y="334.2053"/><text fill="#000000" font-family="sans-serif" font-size="14" lengthAdjust="spacing" textLength="72" x="340" y="340.552">rect : Rect</text><rect fill="none" height="6" style="stroke:#C82930;stroke-width:1.0;" width="6" x="328" y="350.5022"/><text fill="#000000" font-family="sans-serif" font-size="14" lengthAdjust="spacing" textLength="168" x="340" y="356.8489">context : GraphicCanvas</text><rect fill="none" height="6" style="stroke:#C82930;stroke-width:1.0;" width="6" x="328" y="366.7991"/><text fill="#000000" font-family="sans-serif" font-size="14" lengthAdjust="spacing" textLength="107" x="340" y="373.1457">target : Graphic</text><rect fill="none" height="6" style="stroke:#C82930;stroke-width:1.0;" width="6" x="328" y="383.0959"/><text fill="#000000" font-family="sans-serif" font-size="14" lengthAdjust="spacing" textLength="227" x="340" y="389.4426">state : ConstraintSolverMemento</text><line style="stroke:#181818;stroke-width:0.5;" x1="321" x2="572" y1="396.7444" y2="396.7444"/><ellipse cx="331" cy="410.3928" fill="#84BE84" rx="3" ry="3" style="stroke:#038048;stroke-width:1.0;"/><text fill="#000000" font-family="sans-serif" font-size="14" lengthAdjust="spacing" textLength="107" x="340" y="413.7395">execute() : void</text><ellipse cx="331" cy="426.6897" fill="#84BE84" rx="3" ry="3" style="stroke:#038048;stroke-width:1.0;"/><text fill="#000000" font-family="sans-serif" font-size="14" lengthAdjust="spacing" textLength="125" x="340" y="430.0364">unexecute() : void</text></g><!--class CommandMove--><g id="elem_CommandMove"><rect codeLine="23" fill="#F1F1F1" height="129.4844" id="CommandMove" rx="2.5" ry="2.5" style="stroke:#181818;stroke-width:0.5;" width="253" x="320" y="472.7069"/><ellipse cx="388.25" cy="488.7069" fill="#ADD1B2" rx="11" ry="11" style="stroke:#181818;stroke-width:1.0;"/><path d="M391.2188,494.3475 Q390.6406,494.6444 390,494.785 Q389.3594,494.9412 388.6563,494.9412 Q386.1563,494.9412 384.8281,493.3006 Q383.5156,491.6444 383.5156,488.5194 Q383.5156,485.3944 384.8281,483.7381 Q386.1563,482.0819 388.6563,482.0819 Q389.3594,482.0819 390,482.2381 Q390.6563,482.3944 391.2188,482.6912 L391.2188,485.41 Q390.5938,484.8319 390,484.5662 Q389.4063,484.285 388.7813,484.285 Q387.4375,484.285 386.75,485.3631 Q386.0625,486.4256 386.0625,488.5194 Q386.0625,490.6131 386.75,491.6912 Q387.4375,492.7537 388.7813,492.7537 Q389.4063,492.7537 390,492.4881 Q390.5938,492.2069 391.2188,491.6287 L391.2188,494.3475 Z " fill="#000000"/><text fill="#000000" font-family="sans-serif" font-size="14" lengthAdjust="spacing" textLength="108" x="408.75" y="493.5536">CommandMove</text><line style="stroke:#181818;stroke-width:0.5;" x1="321" x2="572" y1="504.7069" y2="504.7069"/><rect fill="none" height="6" style="stroke:#C82930;stroke-width:1.0;" width="6" x="328" y="515.3553"/><text fill="#000000" font-family="sans-serif" font-size="14" lengthAdjust="spacing" textLength="82" x="340" y="521.702">delta : Point</text><rect fill="none" height="6" style="stroke:#C82930;stroke-width:1.0;" width="6" x="328" y="531.6522"/><text fill="#000000" font-family="sans-serif" font-size="14" lengthAdjust="spacing" textLength="107" x="340" y="537.9989">target : Graphic</text><rect fill="none" height="6" style="stroke:#C82930;stroke-width:1.0;" width="6" x="328" y="547.9491"/><text fill="#000000" font-family="sans-serif" font-size="14" lengthAdjust="spacing" textLength="227" x="340" y="554.2957">state : ConstraintSolverMemento</text><line style="stroke:#181818;stroke-width:0.5;" x1="321" x2="572" y1="561.5975" y2="561.5975"/><ellipse cx="331" cy="575.2459" fill="#84BE84" rx="3" ry="3" style="stroke:#038048;stroke-width:1.0;"/><text fill="#000000" font-family="sans-serif" font-size="14" lengthAdjust="spacing" textLength="107" x="340" y="578.5926">execute() : void</text><ellipse cx="331" cy="591.5428" fill="#84BE84" rx="3" ry="3" style="stroke:#038048;stroke-width:1.0;"/><text fill="#000000" font-family="sans-serif" font-size="14" lengthAdjust="spacing" textLength="125" x="340" y="594.8895">unexecute() : void</text></g><!--class CommandConnect--><g id="elem_CommandConnect"><rect codeLine="24" fill="#F1F1F1" height="80.5938" id="CommandConnect" rx="2.5" ry="2.5" style="stroke:#181818;stroke-width:0.5;" width="162" x="365.5" y="637.1469"/><ellipse cx="380.5" cy="653.1469" fill="#ADD1B2" rx="11" ry="11" style="stroke:#181818;stroke-width:1.0;"/><path d="M383.4688,658.7875 Q382.8906,659.0844 382.25,659.225 Q381.6094,659.3812 380.9063,659.3812 Q378.4063,659.3812 377.0781,657.7406 Q375.7656,656.0844 375.7656,652.9594 Q375.7656,649.8344 377.0781,648.1781 Q378.4063,646.5219 380.9063,646.5219 Q381.6094,646.5219 382.25,646.6781 Q382.9063,646.8344 383.4688,647.1312 L383.4688,649.85 Q382.8438,649.2719 382.25,649.0062 Q381.6563,648.725 381.0313,648.725 Q379.6875,648.725 379,649.8031 Q378.3125,650.8656 378.3125,652.9594 Q378.3125,655.0531 379,656.1312 Q379.6875,657.1937 381.0313,657.1937 Q381.6563,657.1937 382.25,656.9281 Q382.8438,656.6469 383.4688,656.0687 L383.4688,658.7875 Z " fill="#000000"/><text fill="#000000" font-family="sans-serif" font-size="14" lengthAdjust="spacing" textLength="130" x="394.5" y="657.9936">CommandConnect</text><line style="stroke:#181818;stroke-width:0.5;" x1="366.5" x2="526.5" y1="669.1469" y2="669.1469"/><line style="stroke:#181818;stroke-width:0.5;" x1="366.5" x2="526.5" y1="677.1469" y2="677.1469"/><ellipse cx="376.5" cy="690.7953" fill="#84BE84" rx="3" ry="3" style="stroke:#038048;stroke-width:1.0;"/><text fill="#000000" font-family="sans-serif" font-size="14" lengthAdjust="spacing" textLength="107" x="385.5" y="694.142">execute() : void</text><ellipse cx="376.5" cy="707.0922" fill="#84BE84" rx="3" ry="3" style="stroke:#038048;stroke-width:1.0;"/><text fill="#000000" font-family="sans-serif" font-size="14" lengthAdjust="spacing" textLength="125" x="385.5" y="710.4389">unexecute() : void</text></g><!--reverse link Graphic to GraphicCanvas--><g id="link_Graphic_GraphicCanvas"><path codeLine="95" d="M898.48,509.1469 C967.69,509.1469 1041.5,509.1469 1041.5,509.1469 C1041.5,509.1469 1041.5,478.5769 1041.5,446.4569 " fill="none" id="Graphic-backto-GraphicCanvas" style="stroke:#181818;stroke-width:1.0;"/><polygon fill="none" points="880.48,509.1469,898.48,515.1469,898.48,503.1469,880.48,509.1469" style="stroke:#181818;stroke-width:1.0;"/></g><!--link GraphicCanvas to Graphic--><g id="link_GraphicCanvas_Graphic"><path codeLine="114" d="M1046,458.8169 C1046,502.4769 1046,537.4469 1046,537.4469 C1046,537.4469 956.97,537.4469 886.26,537.4469 " fill="none" id="GraphicCanvas-Graphic" style="stroke:#181818;stroke-width:1.0;"/><polygon fill="none" points="1046,446.8169,1042,452.8169,1046,458.8169,1050,452.8169,1046,446.8169" style="stroke:#181818;stroke-width:1.0;"/><polygon fill="#181818" points="880.26,537.4469,889.26,541.4469,885.26,537.4469,889.26,533.4469,880.26,537.4469" style="stroke:#181818;stroke-width:1.0;"/><text fill="#000000" font-family="sans-serif" font-size="13" lengthAdjust="spacing" textLength="50" x="986.1359" y="466.345">children</text></g><!--reverse link Graphic to GraphicConnect--><g id="link_Graphic_GraphicConnect"><path codeLine="96" d="M780,612.3769 C780,706.5469 780,866.4469 780,866.4469 C780,866.4469 950.62,866.4469 1052.92,866.4469 " fill="none" id="Graphic-backto-GraphicConnect" style="stroke:#181818;stroke-width:1.0;"/><polygon fill="none" points="780,594.3769,774,612.3769,786,612.3769,780,594.3769" style="stroke:#181818;stroke-width:1.0;"/></g><!--reverse link Graphic to GraphicRectangle--><g id="link_Graphic_GraphicRectangle"><path codeLine="97" d="M898.32,565.7469 C949.31,565.7469 998.5,565.7469 1050.03,565.7469 " fill="none" id="Graphic-backto-GraphicRectangle" style="stroke:#181818;stroke-width:1.0;"/><polygon fill="none" points="880.32,565.7469,898.32,571.7469,898.32,559.7469,880.32,565.7469" style="stroke:#181818;stroke-width:1.0;"/></g><!--reverse link Graphic to GraphicLine--><g id="link_Graphic_GraphicLine"><path codeLine="98" d="M830,612.3669 C830,632.8169 830,632.9269 830,632.9269 C830,632.9269 964.52,632.9269 1052.8,632.9269 " fill="none" id="Graphic-backto-GraphicLine" style="stroke:#181818;stroke-width:1.0;"/><polygon fill="none" points="830,594.3669,824,612.3669,836,612.3669,830,594.3669" style="stroke:#181818;stroke-width:1.0;"/></g><!--reverse link State to StateSolver--><g id="link_State_StateSolver"><path codeLine="100" d="M185.89,76.4469 C239.73,76.4469 326.41,76.4469 391.01,76.4469 " fill="none" id="State-backto-StateSolver" style="stroke:#181818;stroke-width:1.0;"/><polygon fill="none" points="167.89,76.4469,185.89,82.4469,185.89,70.4469,167.89,76.4469" style="stroke:#181818;stroke-width:1.0;"/></g><!--reverse link Memento to ConstraintSolverMemento--><g id="link_Memento_ConstraintSolverMemento"><path codeLine="102" d="M550.08,208.7269 C586.61,208.7269 603,208.7269 603,208.7269 C603,208.7269 603,378.7269 603,378.7269 C603,378.7269 649.06,378.7269 697.2,378.7269 " fill="none" id="Memento-backto-ConstraintSolverMemento" style="stroke:#181818;stroke-width:1.0;"/><polygon fill="none" points="532.08,208.7269,550.08,214.7269,550.08,202.7269,532.08,208.7269" style="stroke:#181818;stroke-width:1.0;"/></g><!--reverse link Command to CommandMove--><g id="link_Command_CommandMove"><path codeLine="104" d="M278.36,537.4469 C297.93,537.4469 300.14,537.4469 319.72,537.4469 " fill="none" id="Command-backto-CommandMove" style="stroke:#181818;stroke-width:1.0;"/><polygon fill="none" points="260.36,537.4469,278.36,543.4469,278.36,531.4469,260.36,537.4469" style="stroke:#181818;stroke-width:1.0;"/></g><!--reverse link Command to CommandCreateRectangle--><g id="link_Command_CommandCreateRectangle"><path codeLine="105" d="M213.75,454.5369 C213.75,405.4469 213.75,364.4469 213.75,364.4469 C213.75,364.4469 265.1,364.4469 319.57,364.4469 " fill="none" id="Command-backto-CommandCreateRectangle" style="stroke:#181818;stroke-width:1.0;"/><polygon fill="none" points="213.75,472.5369,219.75,454.5369,207.75,454.5369,213.75,472.5369" style="stroke:#181818;stroke-width:1.0;"/></g><!--reverse link Command to CommandConnect--><g id="link_Command_CommandConnect"><path codeLine="106" d="M133.5,620.5269 C133.5,657.0869 133.5,677.4469 133.5,677.4469 C133.5,677.4469 272.34,677.4469 365.08,677.4469 " fill="none" id="Command-backto-CommandConnect" style="stroke:#181818;stroke-width:1.0;"/><polygon fill="none" points="133.5,602.5269,127.5,620.5269,139.5,620.5269,133.5,602.5269" style="stroke:#181818;stroke-width:1.0;"/></g><!--link CommandMove to Graphic--><g id="link_CommandMove_Graphic"><path codeLine="108" d="M585.4,537.4469 C637.67,537.4469 678.45,537.4469 723.71,537.4469 " fill="none" id="CommandMove-Graphic" style="stroke:#181818;stroke-width:1.0;"/><polygon fill="#181818" points="573.4,537.4469,579.4,541.4469,585.4,537.4469,579.4,533.4469,573.4,537.4469" style="stroke:#181818;stroke-width:1.0;"/><polygon fill="#181818" points="729.71,537.4469,720.71,533.4469,724.71,537.4469,720.71,541.4469,729.71,537.4469" style="stroke:#181818;stroke-width:1.0;"/><text fill="#000000" font-family="sans-serif" font-size="13" lengthAdjust="spacing" textLength="39" x="580.9488" y="549.9038">target</text></g><!--link CommandMove to ConstraintSolverMemento--><g id="link_CommandMove_ConstraintSolverMemento"><path codeLine="109" d="M585.2,475.4169 C652.03,475.4169 708.33,475.4169 708.33,475.4169 C708.33,475.4169 708.33,452.2969 708.33,427.9469 " fill="none" id="CommandMove-ConstraintSolverMemento" style="stroke:#181818;stroke-width:1.0;"/><polygon fill="#181818" points="573.2,475.4169,579.2,479.4169,585.2,475.4169,579.2,471.4169,573.2,475.4169" style="stroke:#181818;stroke-width:1.0;"/><polygon fill="#181818" points="708.33,421.9469,704.33,430.9469,708.33,426.9469,712.33,430.9469,708.33,421.9469" style="stroke:#181818;stroke-width:1.0;"/><text fill="#000000" font-family="sans-serif" font-size="13" lengthAdjust="spacing" textLength="33" x="581.0313" y="468.6849">state</text></g><!--link CommandMove to ConstraintSolverMemento--><g id="link_CommandMove_ConstraintSolverMemento"><path codeLine="110" d="M585.25,478.1369 C656.46,478.1369 719.17,478.1369 719.17,478.1369 C719.17,478.1369 719.17,453.2769 719.17,427.9669 " fill="none" id="CommandMove-ConstraintSolverMemento-1" style="stroke:#181818;stroke-width:1.0;"/><polygon fill="#181818" points="573.25,478.1369,579.25,482.1369,585.25,478.1369,579.25,474.1369,573.25,478.1369" style="stroke:#181818;stroke-width:1.0;"/><polygon fill="#181818" points="719.17,421.9669,715.17,430.9669,719.17,426.9669,723.17,430.9669,719.17,421.9669" style="stroke:#181818;stroke-width:1.0;"/><text fill="#000000" font-family="sans-serif" font-size="13" lengthAdjust="spacing" textLength="33" x="581.084" y="487.3739">state</text></g><!--link CommandCreateRectangle to ConstraintSolverMemento--><g id="link_CommandCreateRectangle_ConstraintSolverMemento"><path codeLine="111" d="M585.4,400.1669 C625.88,400.1669 652.28,400.1669 691.27,400.1669 " fill="none" id="CommandCreateRectangle-ConstraintSolverMemento" style="stroke:#181818;stroke-width:1.0;"/><polygon fill="#181818" points="573.4,400.1669,579.4,404.1669,585.4,400.1669,579.4,396.1669,573.4,400.1669" style="stroke:#181818;stroke-width:1.0;"/><polygon fill="#181818" points="697.27,400.1669,688.27,396.1669,692.27,400.1669,688.27,404.1669,697.27,400.1669" style="stroke:#181818;stroke-width:1.0;"/><text fill="#000000" font-family="sans-serif" font-size="13" lengthAdjust="spacing" textLength="33" x="580.7941" y="414.4657">state</text></g><!--link ConstraintSolver to ConstraintSolverMemento--><g id="link_ConstraintSolver_ConstraintSolverMemento"><path codeLine="112" d="M805,322.8069 C805,334.8969 805,340.7269 805,350.9769 " fill="none" id="ConstraintSolver-to-ConstraintSolverMemento" style="stroke:#181818;stroke-width:1.0;stroke-dasharray:7.0,7.0;"/><polygon fill="#181818" points="805,356.9769,809,347.9769,805,351.9769,801,347.9769,805,356.9769" style="stroke:#181818;stroke-width:1.0;"/><text fill="#000000" font-family="sans-serif" font-size="13" lengthAdjust="spacing" textLength="36" x="768" y="352.9538">friend</text></g><!--SRC=[bLR1ZjiW4Btp5SYzP3Tor7DLzP93BrrfrHoh7gZD9cXjI34RxQhjltV0O30mKVQIsFFUC6yO6C_qBEIPQJRIGKXktiwSAcrEYWpyoL2Zg1R7aw6zqBmpGab2Z303fmzyv1BWHsOCrv8Us7W6yrxrd13sQpAQTOPs0vic-bMpyqbqPFMsP_B2fhNjEyHWyZZmjVaRACkSbPJ0zKPui_64D0SrNBWk11mCCs45zupmV584MRU0nv79VlssrnpMpnFnu8EwP9QG2F69qK_qGmT1k8QdHmMX4sGxWl_6MU_WzQ94dwAzcCu3UzjKi7PUqq7pgcHL1aSvYQ7NNCApntvytEtkVnRCBUlxZJU6MBzBbkPERaOiUNXIaOEb5XbeWaifR8xs4CE_jTNmArfMD4pEYeGgiiVPYfaCqoOlSm2vx17eYiZ0mFI5nV7JC1_7L5sul2LZbeZZhgD4Xhl51UjQ-IC9hN-CLkRahvW3mpa9QXCCyZnoKyScsopW0Ui4aRhbhxnxCJnAJB0NMQ2atY_oGugpEWNvlYQwVKF5FR14AzGRyouzqMseKA_iYcsKLaVF1yEMYcOWba_0Rqp2qr7b0RzMn7XIqVmZfRxGMcEgF_rYLNZRFvOekdzK0CPaDwzRV1HhhfDzIhMM56ZsqLnqyvh7tFZVwTIvy-5BKqqWbgsI1pV15N6BMvrifxz7dZyH4gQQVFTJOD6O6Aq0HzoutoLOmZW6njsoA46qsYW8156Np_hdlssRNVugv4UC6XRdb1hgElQyNxDzDJi5iGv1HwNG1JqhZa4r81-UgfmmCQNNivbxGKFls_PBhHqqhfmpVbD3U8z3tjjkzCsEyGxbmdbuqW8-j_dKreIPhQ7AnWgP_mS0]--></g></svg>