<?xml version="1.0" encoding="us-ascii" standalone="no"?><svg xmlns="http://www.w3.org/2000/svg" xmlns:xlink="http://www.w3.org/1999/xlink" contentStyleType="text/css" height="236px" preserveAspectRatio="none" style="width:588px;height:236px;background:#FFFFFF;" version="1.1" viewBox="0 0 588 236" width="588px" zoomAndPan="magnify"><defs/><g><text fill="#000000" font-family="sans-serif" font-size="14" font-weight="bold" lengthAdjust="spacing" textLength="216" x="179" y="22.9951">Memento Pattern Structure</text><!--class Originator--><g id="elem_Originator"><rect codeLine="7" fill="#F1F1F1" height="96.8906" id="Originator" rx="2.5" ry="2.5" style="stroke:#181818;stroke-width:0.5;" width="207" x="113" y="44.7469"/><ellipse cx="178.75" cy="60.7469" fill="#ADD1B2" rx="11" ry="11" style="stroke:#181818;stroke-width:1.0;"/><path d="M181.7188,66.3875 Q181.1406,66.6844 180.5,66.825 Q179.8594,66.9813 179.1563,66.9813 Q176.6563,66.9813 175.3281,65.3406 Q174.0156,63.6844 174.0156,60.5594 Q174.0156,57.4344 175.3281,55.7781 Q176.6563,54.1219 179.1563,54.1219 Q179.8594,54.1219 180.5,54.2781 Q181.1563,54.4344 181.7188,54.7313 L181.7188,57.45 Q181.0938,56.8719 180.5,56.6063 Q179.9063,56.325 179.2813,56.325 Q177.9375,56.325 177.25,57.4031 Q176.5625,58.4656 176.5625,60.5594 Q176.5625,62.6531 177.25,63.7313 Q177.9375,64.7938 179.2813,64.7938 Q179.9063,64.7938 180.5,64.5281 Q181.0938,64.2469 181.7188,63.6688 L181.7188,66.3875 Z " fill="#000000"/><text fill="#000000" font-family="sans-serif" font-size="14" lengthAdjust="spacing" textLength="67" x="199.25" y="65.5936">Originator</text><line style="stroke:#181818;stroke-width:0.5;" x1="114" x2="319" y1="76.7469" y2="76.7469"/><rect fill="none" height="6" style="stroke:#C82930;stroke-width:1.0;" width="6" x="121" y="87.3953"/><text fill="#000000" font-family="sans-serif" font-size="14" lengthAdjust="spacing" textLength="35" x="133" y="93.742">state</text><line style="stroke:#181818;stroke-width:0.5;" x1="114" x2="319" y1="101.0438" y2="101.0438"/><ellipse cx="124" cy="114.6922" fill="#84BE84" rx="3" ry="3" style="stroke:#038048;stroke-width:1.0;"/><text fill="#000000" font-family="sans-serif" font-size="14" lengthAdjust="spacing" textLength="120" x="133" y="118.0389">createMemento()</text><ellipse cx="124" cy="130.9891" fill="#84BE84" rx="3" ry="3" style="stroke:#038048;stroke-width:1.0;"/><text fill="#000000" font-family="sans-serif" font-size="14" lengthAdjust="spacing" textLength="181" x="133" y="134.3357">setMemento(Memento m)</text></g><!--class Memento--><g id="elem_Memento"><rect codeLine="8" fill="#F1F1F1" height="96.8906" id="Memento" rx="2.5" ry="2.5" style="stroke:#181818;stroke-width:0.5;" width="98" x="362.5" y="44.2969"/><ellipse cx="377.5" cy="60.2969" fill="#ADD1B2" rx="11" ry="11" style="stroke:#181818;stroke-width:1.0;"/><path d="M380.4688,65.9375 Q379.8906,66.2344 379.25,66.375 Q378.6094,66.5313 377.9063,66.5313 Q375.4063,66.5313 374.0781,64.8906 Q372.7656,63.2344 372.7656,60.1094 Q372.7656,56.9844 374.0781,55.3281 Q375.4063,53.6719 377.9063,53.6719 Q378.6094,53.6719 379.25,53.8281 Q379.9063,53.9844 380.4688,54.2813 L380.4688,57 Q379.8438,56.4219 379.25,56.1563 Q378.6563,55.875 378.0313,55.875 Q376.6875,55.875 376,56.9531 Q375.3125,58.0156 375.3125,60.1094 Q375.3125,62.2031 376,63.2813 Q376.6875,64.3438 378.0313,64.3438 Q378.6563,64.3438 379.25,64.0781 Q379.8438,63.7969 380.4688,63.2188 L380.4688,65.9375 Z " fill="#000000"/><text fill="#000000" font-family="sans-serif" font-size="14" lengthAdjust="spacing" textLength="66" x="391.5" y="65.1436">Memento</text><line style="stroke:#181818;stroke-width:0.5;" x1="363.5" x2="459.5" y1="76.2969" y2="76.2969"/><rect fill="none" height="6" style="stroke:#C82930;stroke-width:1.0;" width="6" x="370.5" y="86.9453"/><text fill="#000000" font-family="sans-serif" font-size="14" lengthAdjust="spacing" textLength="35" x="382.5" y="93.292">state</text><line style="stroke:#181818;stroke-width:0.5;" x1="363.5" x2="459.5" y1="100.5938" y2="100.5938"/><ellipse cx="373.5" cy="114.2422" fill="#84BE84" rx="3" ry="3" style="stroke:#038048;stroke-width:1.0;"/><text fill="#000000" font-family="sans-serif" font-size="14" lengthAdjust="spacing" textLength="69" x="382.5" y="117.5889">getState()</text><ellipse cx="373.5" cy="130.5391" fill="#84BE84" rx="3" ry="3" style="stroke:#038048;stroke-width:1.0;"/><text fill="#000000" font-family="sans-serif" font-size="14" lengthAdjust="spacing" textLength="68" x="382.5" y="133.8857">setState()</text></g><!--entity Caretaker--><g id="elem_Caretaker"><rect fill="#F1F1F1" height="36.2969" rx="2.5" ry="2.5" style="stroke:#181818;stroke-width:0.5;" width="87" x="495" y="74.5969"/><text fill="#000000" font-family="sans-serif" font-size="14" lengthAdjust="spacing" textLength="67" x="505" y="97.592">Caretaker</text></g><g id="elem_nOriginatorSetMemento"><path d="M6,204.7469 L6,229.8797 A0,0 0 0 0 6,229.8797 L197,229.8797 A0,0 0 0 0 197,229.8797 L197,214.7469 L187,204.7469 L155,204.7469 L151,136.6069 L147,204.7469 L6,204.7469 A0,0 0 0 0 6,204.7469 " fill="#FEFFDD" style="stroke:#181818;stroke-width:0.5;"/><path d="M187,204.7469 L187,214.7469 L197,214.7469 L187,204.7469 " fill="#FEFFDD" style="stroke:#181818;stroke-width:0.5;"/><text fill="#000000" font-family="sans-serif" font-size="13" font-weight="bold" lengthAdjust="spacing" textLength="170" x="12" y="221.8138">state = m-&gt;getState();</text></g><g id="elem_nOriginatorCreateMemento"><path d="M232,204.7469 L232,229.8797 A0,0 0 0 0 232,229.8797 L433,229.8797 A0,0 0 0 0 433,229.8797 L433,214.7469 L423,204.7469 L284,204.7469 L280,120.6069 L276,204.7469 L232,204.7469 A0,0 0 0 0 232,204.7469 " fill="#FEFFDD" style="stroke:#181818;stroke-width:0.5;"/><path d="M423,204.7469 L423,214.7469 L433,214.7469 L423,204.7469 " fill="#FEFFDD" style="stroke:#181818;stroke-width:0.5;"/><text fill="#000000" font-family="sans-serif" font-size="13" lengthAdjust="spacing" textLength="180" x="238" y="221.8138">return new Memento(state);</text></g><!--link Originator to Memento--><g id="link_Originator_Memento"><path codeLine="19" d="M327.95,92.7469 C339.9,92.7469 345.56,92.7469 356.19,92.7469 " fill="none" id="Originator-to-Memento" style="stroke:#181818;stroke-width:1.0;"/><polygon fill="#181818" points="362.19,92.7469,353.19,88.7469,357.19,92.7469,353.19,96.7469,362.19,92.7469" style="stroke:#181818;stroke-width:1.0;"/></g><!--link Memento to Caretaker--><g id="link_Memento_Caretaker"><path codeLine="20" d="M466.97,92.7469 C478.11,92.7469 471.86,92.7469 482.75,92.7469 " fill="none" id="Memento-Caretaker" style="stroke:#181818;stroke-width:1.0;"/><polygon fill="#181818" points="460.97,92.7469,469.97,96.7469,465.97,92.7469,469.97,88.7469,460.97,92.7469" style="stroke:#181818;stroke-width:1.0;"/><polygon fill="none" points="494.75,92.7469,488.75,88.7469,482.75,92.7469,488.75,96.7469,494.75,92.7469" style="stroke:#181818;stroke-width:1.0;"/></g><!--SRC=[TP71ReCm38RlVWeVMrNq0TZ6fUTfbNW2ZtaqQd2GOzJjxPSY8B1rELc_u___4iUhavwKElHEsBvxng1s2K3UXrldlfoq0ERCCxvons81psJ6AbYR3eqDoW2DfnZnJLthX2pe94mJeDmOIPiyJgHiT6K5oBUnn28Q6M-rGwESnCbaj__LZMnpQoRhzW1plNXcuT2orNSjUQtKcDLrH97AYnNLycvOu34KdZzNFG09naWH9JlK2o1WEi_lrGY4BzWLLKPv0fOFlC_3ms4y3lrnzRTbcL_-CFUq_hOnEc4FQM72jnbuDwByaxqn-1k_MGl03m00]--></g></svg>