<svg xmlns="http://www.w3.org/2000/svg" xmlns:xlink="http://www.w3.org/1999/xlink" contentStyleType="text/css" data-diagram-type="CLASS" height="332px" preserveAspectRatio="none" style="width:792px;height:332px;background:#FFFFFF;" version="1.1" viewBox="0 0 792 332" width="792px" zoomAndPan="magnify"><?plantuml $version$?><defs/><g><g class="title" data-source-line="4"><text fill="#000000" font-family="sans-serif" font-size="14" font-weight="700" lengthAdjust="spacing" textLength="190.5673" x="297.367" y="24.9659">Observer Pattern Structure</text></g><!--class Subject--><g class="entity" data-qualified-name="Subject" data-source-line="7" id="ent0001"><rect fill="#F1F1F1" height="105.2038" rx="2.5" ry="2.5" style="stroke:#181818;stroke-width:0.5;" width="127.5135" x="191.36" y="47.0679"/><ellipse cx="229.1497" cy="63.0679" fill="#B4A7E5" rx="11" ry="11" style="stroke:#181818;stroke-width:1;"/><path d="M225.1809,69.5679 L225.1809,67.8648 L227.5403,67.5992 L227.5403,59.396 L225.1809,59.1304 L225.1809,57.4273 L232.3215,57.4273 L232.3215,59.1304 L229.8997,59.396 L229.8997,67.5992 L232.3215,67.8648 L232.3215,69.5679 L225.1809,69.5679 Z " fill="#000000"/><text fill="#000000" font-family="sans-serif" font-size="14" font-style="italic" lengthAdjust="spacing" textLength="44.8698" x="248.214" y="68.4999">Subject</text><line style="stroke:#181818;stroke-width:0.5;" x1="192.36" x2="317.8735" y1="79.0679" y2="79.0679"/><line style="stroke:#181818;stroke-width:0.5;" x1="192.36" x2="317.8735" y1="87.0679" y2="87.0679"/><text fill="#000000" font-family="sans-serif" font-size="14" lengthAdjust="spacing" textLength="111.3976" x="197.36" y="106.0339">Attach(Observer)</text><text fill="#000000" font-family="sans-serif" font-size="14" lengthAdjust="spacing" textLength="115.5135" x="197.36" y="125.1018">Detach(Observer)</text><text fill="#000000" font-family="sans-serif" font-size="14" lengthAdjust="spacing" textLength="48.1318" x="197.36" y="144.1697">Notify()</text></g><!--class ConcreteSubject--><g class="entity" data-qualified-name="ConcreteSubject" data-source-line="8" id="ent0002"><rect fill="#F1F1F1" height="105.2038" rx="2.5" ry="2.5" style="stroke:#181818;stroke-width:0.5;" width="139.5476" x="179.35" y="212.2779"/><ellipse cx="194.35" cy="228.2779" fill="#ADD1B2" rx="11" ry="11" style="stroke:#181818;stroke-width:1;"/><path d="M193.8188,235.1998 Q192.0688,235.1998 190.9281,234.4654 Q189.8031,233.7154 189.2406,232.3717 Q188.6938,231.0123 188.6938,229.2154 Q188.6938,227.1842 189.35,225.731 Q190.0063,224.2779 191.2875,223.4967 Q192.5688,222.7154 194.4438,222.7154 Q195.3344,222.7154 196.0063,222.9029 Q196.6781,223.0748 197.3656,223.4185 L196.5531,225.4342 Q195.9281,225.1217 195.3813,224.9967 Q194.85,224.8717 194.3656,224.8717 Q193.1938,224.8717 192.4906,225.4029 Q191.7875,225.9342 191.4906,226.8873 Q191.1938,227.8404 191.1938,229.106 Q191.1938,231.1217 191.9125,232.0904 Q192.6313,233.0435 194.225,233.0435 Q194.8188,233.0435 195.4438,232.8873 Q196.0688,232.731 196.8969,232.356 L196.8969,234.5748 Q196.1625,234.8873 195.3656,235.0435 Q194.5844,235.1998 193.8188,235.1998 Z " fill="#000000"/><text fill="#000000" font-family="sans-serif" font-size="14" lengthAdjust="spacing" textLength="107.5476" x="208.35" y="233.7099">ConcreteSubject</text><line style="stroke:#181818;stroke-width:0.5;" x1="180.35" x2="317.8976" y1="244.2779" y2="244.2779"/><text fill="#000000" font-family="sans-serif" font-size="14" lengthAdjust="spacing" textLength="80.7937" x="185.35" y="263.2439">subjectState</text><line style="stroke:#181818;stroke-width:0.5;" x1="180.35" x2="317.8976" y1="271.3458" y2="271.3458"/><text fill="#000000" font-family="sans-serif" font-size="14" lengthAdjust="spacing" textLength="65.0858" x="185.35" y="290.3118">GetState()</text><text fill="#000000" font-family="sans-serif" font-size="14" lengthAdjust="spacing" textLength="62.5798" x="185.35" y="309.3797">SetState()</text></g><path d="M7.53,71.9679 L7.53,117.3799 A0,0 0 0 0 7.53,117.3799 L156.7101,117.3799 A0,0 0 0 0 156.7101,117.3799 L156.7101,98.6739 L197.36,138.7377 L156.7101,90.6739 L156.7101,81.9679 L146.7101,71.9679 L7.53,71.9679 A0,0 0 0 0 7.53,71.9679" fill="#FEFFDD" style="stroke:#181818;stroke-width:0.5;"/><path d="M146.7101,71.9679 L146.7101,81.9679 L156.7101,81.9679 L146.7101,71.9679" fill="#FEFFDD" style="stroke:#181818;stroke-width:0.5;"/><text fill="#000000" font-family="sans-serif" font-size="13" lengthAdjust="spacing" textLength="124.8001" x="13.53" y="90.8649">for all o in observers</text><text fill="#000000" font-family="sans-serif" font-size="13" lengthAdjust="spacing" textLength="72.0981" x="27.05" y="108.5709">o-&gt;Update()</text><path d="M6,246.0279 L6,273.7339 A0,0 0 0 0 6,273.7339 L144.2341,273.7339 A0,0 0 0 0 144.2341,273.7339 L144.2341,264.0279 L185.35,284.8798 L144.2341,256.0279 L144.2341,256.0279 L134.2341,246.0279 L6,246.0279 A0,0 0 0 0 6,246.0279" fill="#FEFFDD" style="stroke:#181818;stroke-width:0.5;"/><path d="M134.2341,246.0279 L134.2341,256.0279 L144.2341,256.0279 L134.2341,246.0279" fill="#FEFFDD" style="stroke:#181818;stroke-width:0.5;"/><text fill="#000000" font-family="sans-serif" font-size="13" lengthAdjust="spacing" textLength="117.2341" x="12" y="264.9249">return subjectState</text><!--class Observer--><g class="entity" data-qualified-name="Observer" data-source-line="21" id="ent0007"><rect fill="#F1F1F1" height="67.0679" rx="2.5" ry="2.5" style="stroke:#181818;stroke-width:0.5;" width="87.9018" x="370.17" y="66.1379"/><ellipse cx="385.17" cy="82.1379" fill="#B4A7E5" rx="11" ry="11" style="stroke:#181818;stroke-width:1;"/><path d="M381.2013,88.6379 L381.2013,86.9348 L383.5606,86.6692 L383.5606,78.466 L381.2013,78.2004 L381.2013,76.4973 L388.3419,76.4973 L388.3419,78.2004 L385.92,78.466 L385.92,86.6692 L388.3419,86.9348 L388.3419,88.6379 L381.2013,88.6379 Z " fill="#000000"/><text fill="#000000" font-family="sans-serif" font-size="14" font-style="italic" lengthAdjust="spacing" textLength="55.9018" x="399.17" y="87.5699">Observer</text><line style="stroke:#181818;stroke-width:0.5;" x1="371.17" x2="457.0718" y1="98.1379" y2="98.1379"/><line style="stroke:#181818;stroke-width:0.5;" x1="371.17" x2="457.0718" y1="106.1379" y2="106.1379"/><text fill="#000000" font-family="sans-serif" font-size="14" lengthAdjust="spacing" textLength="56.6578" x="376.17" y="125.1039">Update()</text></g><!--class ConcreteObserver--><g class="entity" data-qualified-name="ConcreteObserver" data-source-line="22" id="ent0008"><rect fill="#F1F1F1" height="86.1358" rx="2.5" ry="2.5" style="stroke:#181818;stroke-width:0.5;" width="152.0355" x="354.1" y="221.8079"/><ellipse cx="369.1" cy="237.8079" fill="#ADD1B2" rx="11" ry="11" style="stroke:#181818;stroke-width:1;"/><path d="M368.5688,244.7298 Q366.8188,244.7298 365.6781,243.9954 Q364.5531,243.2454 363.9906,241.9017 Q363.4438,240.5423 363.4438,238.7454 Q363.4438,236.7142 364.1,235.261 Q364.7563,233.8079 366.0375,233.0267 Q367.3188,232.2454 369.1938,232.2454 Q370.0844,232.2454 370.7563,232.4329 Q371.4281,232.6048 372.1156,232.9485 L371.3031,234.9642 Q370.6781,234.6517 370.1313,234.5267 Q369.6,234.4017 369.1156,234.4017 Q367.9438,234.4017 367.2406,234.9329 Q366.5375,235.4642 366.2406,236.4173 Q365.9438,237.3704 365.9438,238.636 Q365.9438,240.6517 366.6625,241.6204 Q367.3813,242.5735 368.975,242.5735 Q369.5688,242.5735 370.1938,242.4173 Q370.8188,242.261 371.6469,241.886 L371.6469,244.1048 Q370.9125,244.4173 370.1156,244.5735 Q369.3344,244.7298 368.5688,244.7298 Z " fill="#000000"/><text fill="#000000" font-family="sans-serif" font-size="14" lengthAdjust="spacing" textLength="120.0355" x="383.1" y="243.2399">ConcreteObserver</text><line style="stroke:#181818;stroke-width:0.5;" x1="355.1" x2="505.1355" y1="253.8079" y2="253.8079"/><text fill="#000000" font-family="sans-serif" font-size="14" lengthAdjust="spacing" textLength="91.7977" x="360.1" y="272.7739">observerState</text><line style="stroke:#181818;stroke-width:0.5;" x1="355.1" x2="505.1355" y1="280.8758" y2="280.8758"/><text fill="#000000" font-family="sans-serif" font-size="14" lengthAdjust="spacing" textLength="56.6578" x="360.1" y="299.8418">Update()</text></g><path d="M540.93,246.0279 L540.93,255.8809 L416.7578,294.4098 L540.93,263.8809 L540.93,273.7339 A0,0 0 0 0 540.93,273.7339 L777.3012,273.7339 A0,0 0 0 0 777.3012,273.7339 L777.3012,256.0279 L767.3012,246.0279 L540.93,246.0279 A0,0 0 0 0 540.93,246.0279" fill="#FEFFDD" style="stroke:#181818;stroke-width:0.5;"/><path d="M767.3012,246.0279 L767.3012,256.0279 L777.3012,256.0279 L767.3012,246.0279" fill="#FEFFDD" style="stroke:#181818;stroke-width:0.5;"/><text fill="#000000" font-family="sans-serif" font-size="13" lengthAdjust="spacing" textLength="215.3712" x="546.93" y="264.9249">observerState = subject-&gt;GetState()</text><!--reverse link Subject to ConcreteSubject--><g class="link" data-entity-1="ent0001" data-entity-2="ent0002" data-link-type="extension" data-source-line="30" id="lnk11"><path codeLine="30" d="M255.12,170.3979 C255.12,189.3779 255.12,192.7879 255.12,211.7979" fill="none" id="Subject-backto-ConcreteSubject" style="stroke:#181818;stroke-width:1;"/><polygon fill="none" points="255.12,152.3979,249.12,170.3979,261.12,170.3979,255.12,152.3979" style="stroke:#181818;stroke-width:1;stroke-linejoin:miter;stroke-miterlimit:10;"/></g><!--reverse link Observer to ConcreteObserver--><g class="link" data-entity-1="ent0007" data-entity-2="ent0008" data-link-type="extension" data-source-line="31" id="lnk12"><path codeLine="31" d="M414.12,151.4979 C414.12,176.8979 414.12,193.8679 414.12,221.3479" fill="none" id="Observer-backto-ConcreteObserver" style="stroke:#181818;stroke-width:1;"/><polygon fill="none" points="414.12,133.4979,408.12,151.4979,420.12,151.4979,414.12,133.4979" style="stroke:#181818;stroke-width:1;stroke-linejoin:miter;stroke-miterlimit:10;"/></g><!--link Subject to Observer--><g class="link" data-entity-1="ent0001" data-entity-2="ent0007" data-link-type="composition" data-source-line="33" id="lnk13"><path codeLine="33" d="M331.33,99.4779 C348.23,99.4779 349.08,99.4779 364.67,99.4779" fill="none" id="Subject-Observer" style="stroke:#181818;stroke-width:1;"/><polygon fill="#181818" points="319.33,99.4779,325.33,103.4779,331.33,99.4779,325.33,95.4779,319.33,99.4779" style="stroke:#181818;stroke-width:1;stroke-linejoin:miter;stroke-miterlimit:10;"/><polygon fill="#181818" points="369.67,99.4779,360.67,95.4779,364.67,99.4779,360.67,103.4779,369.67,99.4779" style="stroke:#181818;stroke-width:1;stroke-linejoin:miter;stroke-miterlimit:10;"/><text fill="#000000" font-family="sans-serif" font-size="13" lengthAdjust="spacing" textLength="60.32" x="301.8645" y="91.7705">observers</text></g><!--link ConcreteObserver to ConcreteSubject--><g class="link" data-entity-1="ent0008" data-entity-2="ent0002" data-link-type="dependency" data-source-line="34" id="lnk14"><path codeLine="34" d="M353.62,264.4779 C342.24,264.4779 335.55,264.4779 324.3,264.4779" fill="none" id="ConcreteObserver-to-ConcreteSubject" style="stroke:#181818;stroke-width:1;"/><polygon fill="#181818" points="319.3,264.4779,328.3,268.4779,324.3,264.4779,328.3,260.4779,319.3,264.4779" style="stroke:#181818;stroke-width:1;stroke-linejoin:miter;stroke-miterlimit:10;"/><text fill="#000000" font-family="sans-serif" font-size="13" lengthAdjust="spacing" textLength="43.875" x="302.1987" y="256.5596">subject</text></g><?plantuml-src TP9DJiCm48NtFiKegnOf5x0W4WA97I157C1r9ut1s94zGQg0k-CciPCurClvvkUz6ViFPJhXn2TePP3E7O9rr5h6I956U3buT5_eu5KGeJDGa-ibzGv3XZqXjO5zCsK2R8H4gFl3EqfYKWlluS4QwP0mHfcnXA2n8R1DpENysP9gpWp2Qwm3eJLOK0RiDDt3m2xFbjLRTnI4kpr3SuHBmwnjDfJp9wIQGidG990--F0Z7EEfqUyLLt4DcQqK7WKuTMfN2YBdVDGy28YcXj5m5vMKLPIvT1O4iSa7tFwKvMQZwK0hEWkBnKNQPG4tPJKxoakWc0GL4D8s1upzEDmJ2TdkOjr-WHxnAXfF7Iooh7LWgvjiyM8_MrZFSDu9X_HNjZxv-XB_9QJgFm00?></g></svg>