<svg xmlns="http://www.w3.org/2000/svg" xmlns:xlink="http://www.w3.org/1999/xlink" contentStyleType="text/css" height="505px" preserveAspectRatio="none" style="width:993px;height:505px;background:#FFFFFF;" version="1.1" viewBox="0 0 993 505" width="993px" zoomAndPan="magnify"><defs/><g><text fill="#000000" font-family="sans-serif" font-size="14" font-weight="bold" lengthAdjust="spacing" textLength="323.4355" x="328.1336" y="22.9951">Builder Pattern RTF Text Parser Example</text><!--class RTFReader--><g id="elem_RTFReader"><rect codeLine="7" fill="#F1F1F1" height="72.5625" id="RTFReader" rx="2.5" ry="2.5" style="stroke:#181818;stroke-width:0.5;" width="108.5078" x="152.78" y="69.0169"/><ellipse cx="167.78" cy="89.1497" fill="#ADD1B2" rx="11" ry="11" style="stroke:#181818;stroke-width:1.0;"/><path d="M170.7488,94.7903 Q170.1706,95.0872 169.53,95.2278 Q168.8894,95.3841 168.1863,95.3841 Q165.6863,95.3841 164.3581,93.7434 Q163.0456,92.0872 163.0456,88.9622 Q163.0456,85.8372 164.3581,84.1809 Q165.6863,82.5247 168.1863,82.5247 Q168.8894,82.5247 169.53,82.6809 Q170.1863,82.8372 170.7488,83.1341 L170.7488,85.8528 Q170.1238,85.2747 169.53,85.0091 Q168.9363,84.7278 168.3113,84.7278 Q166.9675,84.7278 166.28,85.8059 Q165.5925,86.8684 165.5925,88.9622 Q165.5925,91.0559 166.28,92.1341 Q166.9675,93.1966 168.3113,93.1966 Q168.9363,93.1966 169.53,92.9309 Q170.1238,92.6497 170.7488,92.0716 L170.7488,94.7903 Z " fill="#000000"/><text fill="#000000" font-family="sans-serif" font-size="12" font-style="italic" lengthAdjust="spacing" textLength="63.2813" x="188.3933" y="85.1555">&#171;Director&#187;</text><text fill="#000000" font-family="sans-serif" font-size="14" lengthAdjust="spacing" textLength="76.5078" x="181.78" y="100.9807">RTFReader</text><line style="stroke:#181818;stroke-width:0.5;" x1="153.78" x2="260.2878" y1="109.2825" y2="109.2825"/><line style="stroke:#181818;stroke-width:0.5;" x1="153.78" x2="260.2878" y1="117.2825" y2="117.2825"/><text fill="#000000" font-family="sans-serif" font-size="14" lengthAdjust="spacing" textLength="69.7539" x="158.78" y="134.2776">ParseRtf()</text></g><!--class TextConverter--><g id="elem_TextConverter"><rect codeLine="10" fill="#F1F1F1" height="121.4531" id="TextConverter" rx="2.5" ry="2.5" style="stroke:#181818;stroke-width:0.5;" width="193.8428" x="456.86" y="44.2969"/><ellipse cx="499.3895" cy="64.4297" fill="#ADD1B2" rx="11" ry="11" style="stroke:#181818;stroke-width:1.0;"/><path d="M502.3583,70.0703 Q501.7802,70.3672 501.1395,70.5078 Q500.4989,70.6641 499.7958,70.6641 Q497.2958,70.6641 495.9677,69.0234 Q494.6552,67.3672 494.6552,64.2422 Q494.6552,61.1172 495.9677,59.4609 Q497.2958,57.8047 499.7958,57.8047 Q500.4989,57.8047 501.1395,57.9609 Q501.7958,58.1172 502.3583,58.4141 L502.3583,61.1328 Q501.7333,60.5547 501.1395,60.2891 Q500.5458,60.0078 499.9208,60.0078 Q498.577,60.0078 497.8895,61.0859 Q497.202,62.1484 497.202,64.2422 Q497.202,66.3359 497.8895,67.4141 Q498.577,68.4766 499.9208,68.4766 Q500.5458,68.4766 501.1395,68.2109 Q501.7333,67.9297 502.3583,67.3516 L502.3583,70.0703 Z " fill="#000000"/><text fill="#000000" font-family="sans-serif" font-size="12" font-style="italic" lengthAdjust="spacing" textLength="57.252" x="541.2142" y="60.4355">&#171;Builder&#187;</text><text fill="#000000" font-family="sans-serif" font-size="14" lengthAdjust="spacing" textLength="100.666" x="519.5072" y="76.2607">TextConverter</text><line style="stroke:#181818;stroke-width:0.5;" x1="457.86" x2="649.7028" y1="84.5625" y2="84.5625"/><line style="stroke:#181818;stroke-width:0.5;" x1="457.86" x2="649.7028" y1="92.5625" y2="92.5625"/><text fill="#000000" font-family="sans-serif" font-size="14" lengthAdjust="spacing" textLength="166.3047" x="462.86" y="109.5576">ConvertCharacter(char)</text><text fill="#000000" font-family="sans-serif" font-size="14" lengthAdjust="spacing" textLength="181.8428" x="462.86" y="125.8545">ConvertFontChange(Font)</text><text fill="#000000" font-family="sans-serif" font-size="14" lengthAdjust="spacing" textLength="138.6191" x="462.86" y="142.1514">ConvertParagraph()</text><text fill="#000000" font-family="sans-serif" font-size="14" lengthAdjust="spacing" textLength="93.5703" x="462.86" y="158.4482">GetTeXText()</text></g><!--class ASCIIConverter--><g id="elem_ASCIIConverter"><rect codeLine="11" fill="#F1F1F1" height="88.8594" id="ASCIIConverter" rx="2.5" ry="2.5" style="stroke:#181818;stroke-width:0.5;" width="178.3047" x="350.63" y="261.9769"/><ellipse cx="383.0561" cy="282.1097" fill="#ADD1B2" rx="11" ry="11" style="stroke:#181818;stroke-width:1.0;"/><path d="M386.0248,287.7503 Q385.4467,288.0472 384.8061,288.1878 Q384.1654,288.3441 383.4623,288.3441 Q380.9623,288.3441 379.6342,286.7034 Q378.3217,285.0472 378.3217,281.9222 Q378.3217,278.7972 379.6342,277.1409 Q380.9623,275.4847 383.4623,275.4847 Q384.1654,275.4847 384.8061,275.6409 Q385.4623,275.7972 386.0248,276.0941 L386.0248,278.8128 Q385.3998,278.2347 384.8061,277.9691 Q384.2123,277.6878 383.5873,277.6878 Q382.2436,277.6878 381.5561,278.7659 Q380.8686,279.8284 380.8686,281.9222 Q380.8686,284.0159 381.5561,285.0941 Q382.2436,286.1566 383.5873,286.1566 Q384.2123,286.1566 384.8061,285.8909 Q385.3998,285.6097 386.0248,285.0316 L386.0248,287.7503 Z " fill="#000000"/><text fill="#000000" font-family="sans-serif" font-size="12" font-style="italic" lengthAdjust="spacing" textLength="111.5801" x="398.9285" y="278.1155">&#171;ConcreteBuilder&#187;</text><text fill="#000000" font-family="sans-serif" font-size="14" lengthAdjust="spacing" textLength="106.2236" x="401.6068" y="293.9407">ASCIIConverter</text><line style="stroke:#181818;stroke-width:0.5;" x1="351.63" x2="527.9347" y1="302.2425" y2="302.2425"/><line style="stroke:#181818;stroke-width:0.5;" x1="351.63" x2="527.9347" y1="310.2425" y2="310.2425"/><text fill="#000000" font-family="sans-serif" font-size="14" lengthAdjust="spacing" textLength="166.3047" x="356.63" y="327.2376">ConvertCharacter(char)</text><text fill="#000000" font-family="sans-serif" font-size="14" lengthAdjust="spacing" textLength="103.3115" x="356.63" y="343.5345">GetASCIIText()</text></g><!--class TeXConverter--><g id="elem_TeXConverter"><rect codeLine="12" fill="#F1F1F1" height="105.1563" id="TeXConverter" rx="2.5" ry="2.5" style="stroke:#181818;stroke-width:0.5;" width="193.8428" x="563.86" y="253.8269"/><ellipse cx="603.2782" cy="273.9597" fill="#ADD1B2" rx="11" ry="11" style="stroke:#181818;stroke-width:1.0;"/><path d="M606.247,279.6003 Q605.6688,279.8972 605.0282,280.0378 Q604.3876,280.1941 603.6845,280.1941 Q601.1845,280.1941 599.8563,278.5534 Q598.5438,276.8972 598.5438,273.7722 Q598.5438,270.6472 599.8563,268.9909 Q601.1845,267.3347 603.6845,267.3347 Q604.3876,267.3347 605.0282,267.4909 Q605.6845,267.6472 606.247,267.9441 L606.247,270.6628 Q605.622,270.0847 605.0282,269.8191 Q604.4345,269.5378 603.8095,269.5378 Q602.4657,269.5378 601.7782,270.6159 Q601.0907,271.6784 601.0907,273.7722 Q601.0907,275.8659 601.7782,276.9441 Q602.4657,278.0066 603.8095,278.0066 Q604.4345,278.0066 605.0282,277.7409 Q605.622,277.4597 606.247,276.8816 L606.247,279.6003 Z " fill="#000000"/><text fill="#000000" font-family="sans-serif" font-size="12" font-style="italic" lengthAdjust="spacing" textLength="111.5801" x="620.7045" y="269.9655">&#171;ConcreteBuilder&#187;</text><text fill="#000000" font-family="sans-serif" font-size="14" lengthAdjust="spacing" textLength="96.4824" x="628.2533" y="285.7907">TeXConverter</text><line style="stroke:#181818;stroke-width:0.5;" x1="564.86" x2="756.7028" y1="294.0925" y2="294.0925"/><line style="stroke:#181818;stroke-width:0.5;" x1="564.86" x2="756.7028" y1="302.0925" y2="302.0925"/><text fill="#000000" font-family="sans-serif" font-size="14" lengthAdjust="spacing" textLength="166.3047" x="569.86" y="319.0876">ConvertCharacter(char)</text><text fill="#000000" font-family="sans-serif" font-size="14" lengthAdjust="spacing" textLength="181.8428" x="569.86" y="335.3845">ConvertFontChange(Font)</text><text fill="#000000" font-family="sans-serif" font-size="14" lengthAdjust="spacing" textLength="138.6191" x="569.86" y="351.6814">ConvertParagraph()</text></g><!--class TextWidgetConverter--><g id="elem_TextWidgetConverter"><rect codeLine="13" fill="#F1F1F1" height="121.4531" id="TextWidgetConverter" rx="2.5" ry="2.5" style="stroke:#181818;stroke-width:0.5;" width="193.8428" x="792.86" y="245.6869"/><ellipse cx="813.0658" cy="265.8197" fill="#ADD1B2" rx="11" ry="11" style="stroke:#181818;stroke-width:1.0;"/><path d="M816.0345,271.4603 Q815.4564,271.7572 814.8158,271.8978 Q814.1751,272.0541 813.472,272.0541 Q810.972,272.0541 809.6439,270.4134 Q808.3314,268.7572 808.3314,265.6322 Q808.3314,262.5072 809.6439,260.8509 Q810.972,259.1947 813.472,259.1947 Q814.1751,259.1947 814.8158,259.3509 Q815.472,259.5072 816.0345,259.8041 L816.0345,262.5228 Q815.4095,261.9447 814.8158,261.6791 Q814.222,261.3978 813.597,261.3978 Q812.2533,261.3978 811.5658,262.4759 Q810.8783,263.5384 810.8783,265.6322 Q810.8783,267.7259 811.5658,268.8041 Q812.2533,269.8666 813.597,269.8666 Q814.222,269.8666 814.8158,269.6009 Q815.4095,269.3197 816.0345,268.7416 L816.0345,271.4603 Z " fill="#000000"/><text fill="#000000" font-family="sans-serif" font-size="12" font-style="italic" lengthAdjust="spacing" textLength="111.5801" x="847.5698" y="261.8255">&#171;ConcreteBuilder&#187;</text><text fill="#000000" font-family="sans-serif" font-size="14" lengthAdjust="spacing" textLength="150.2744" x="828.2226" y="277.6507">TextWidgetConverter</text><line style="stroke:#181818;stroke-width:0.5;" x1="793.86" x2="985.7028" y1="285.9525" y2="285.9525"/><line style="stroke:#181818;stroke-width:0.5;" x1="793.86" x2="985.7028" y1="293.9525" y2="293.9525"/><text fill="#000000" font-family="sans-serif" font-size="14" lengthAdjust="spacing" textLength="166.3047" x="798.86" y="310.9476">ConvertCharacter(char)</text><text fill="#000000" font-family="sans-serif" font-size="14" lengthAdjust="spacing" textLength="181.8428" x="798.86" y="327.2445">ConvertFontChange(Font)</text><text fill="#000000" font-family="sans-serif" font-size="14" lengthAdjust="spacing" textLength="138.6191" x="798.86" y="343.5414">ConvertParagraph()</text><text fill="#000000" font-family="sans-serif" font-size="14" lengthAdjust="spacing" textLength="116.4229" x="798.86" y="359.8382">GetTextWidget()</text></g><!--entity ASCIIText--><g id="elem_ASCIIText"><rect fill="#F1F1F1" height="52.5938" rx="2.5" ry="2.5" style="stroke:#181818;stroke-width:0.5;" width="90.9912" x="394.29" y="447.0769"/><text fill="#000000" font-family="sans-serif" font-size="14" font-style="italic" lengthAdjust="spacing" textLength="70.9912" x="404.29" y="470.072">&#171;Product&#187;</text><text fill="#000000" font-family="sans-serif" font-size="14" lengthAdjust="spacing" textLength="67.4365" x="406.0673" y="486.3689">ASCIIText</text></g><!--entity TeXText--><g id="elem_TeXText"><rect fill="#F1F1F1" height="52.5938" rx="2.5" ry="2.5" style="stroke:#181818;stroke-width:0.5;" width="90.9912" x="615.29" y="447.0769"/><text fill="#000000" font-family="sans-serif" font-size="14" font-style="italic" lengthAdjust="spacing" textLength="70.9912" x="625.29" y="470.072">&#171;Product&#187;</text><text fill="#000000" font-family="sans-serif" font-size="14" lengthAdjust="spacing" textLength="57.6953" x="631.9379" y="486.3689">TeXText</text></g><!--entity TextWidget--><g id="elem_TextWidget"><rect fill="#F1F1F1" height="52.5938" rx="2.5" ry="2.5" style="stroke:#181818;stroke-width:0.5;" width="100.5479" x="839.51" y="447.0769"/><text fill="#000000" font-family="sans-serif" font-size="14" font-style="italic" lengthAdjust="spacing" textLength="70.9912" x="854.2883" y="470.072">&#171;Product&#187;</text><text fill="#000000" font-family="sans-serif" font-size="14" lengthAdjust="spacing" textLength="80.5479" x="849.51" y="486.3689">TextWidget</text></g><g id="elem_nRTFReaderParseRTF"><path d="M6,225.7469 L6,387.075 A0,0 0 0 0 6,387.075 L315.5645,387.075 A0,0 0 0 0 315.5645,387.075 L315.5645,235.7469 L305.5645,225.7469 L210.78,225.7469 L206.78,136.6369 L202.78,225.7469 L6,225.7469 A0,0 0 0 0 6,225.7469 " fill="#FEFFDD" style="stroke:#181818;stroke-width:0.5;"/><path d="M305.5645,225.7469 L305.5645,235.7469 L315.5645,235.7469 L305.5645,225.7469 " fill="#FEFFDD" style="stroke:#181818;stroke-width:0.5;"/><text fill="#000000" font-family="sans-serif" font-size="13" lengthAdjust="spacing" textLength="205.9497" x="12" y="242.8138">while (t = get the next token) {</text><text fill="#000000" font-family="sans-serif" font-size="13" lengthAdjust="spacing" textLength="99.1504" x="28.5293" y="257.9466">switch t.Type {</text><text fill="#000000" font-family="sans-serif" font-size="13" lengthAdjust="spacing" textLength="41.1582" x="45.0586" y="273.0794">CHAR:</text><text fill="#000000" font-family="sans-serif" font-size="13" lengthAdjust="spacing" textLength="226.478" x="61.5879" y="288.2122">builder-&gt;ConvertCharacter(t.Char)</text><text fill="#000000" font-family="sans-serif" font-size="13" lengthAdjust="spacing" textLength="39.7554" x="45.0586" y="303.345">FONT:</text><text fill="#000000" font-family="sans-serif" font-size="13" lengthAdjust="spacing" textLength="238.9766" x="61.5879" y="318.4778">builder-&gt;ConvertFontChange(t.Font)</text><text fill="#000000" font-family="sans-serif" font-size="13" lengthAdjust="spacing" textLength="39.0381" x="45.0586" y="333.6106">PARA:</text><text fill="#000000" font-family="sans-serif" font-size="13" lengthAdjust="spacing" textLength="189.6108" x="61.5879" y="348.7435">builder-&gt;ConvertParagraph()</text><text fill="#000000" font-family="sans-serif" font-size="13" lengthAdjust="spacing" textLength="8.271" x="28.5293" y="363.8763">}</text><text fill="#000000" font-family="sans-serif" font-size="13" lengthAdjust="spacing" textLength="8.271" x="12" y="379.0091">}</text></g><!--reverse link TextConverter to ASCIIConverter--><g id="link_TextConverter_ASCIIConverter"><path codeLine="39" d="M492.9,183.9869 C492.9,214.7869 492.9,233.4869 492.9,261.6369 " fill="none" id="TextConverter-backto-ASCIIConverter" style="stroke:#181818;stroke-width:1.0;"/><polygon fill="none" points="492.9,165.9869,486.9,183.9869,498.9,183.9869,492.9,165.9869" style="stroke:#181818;stroke-width:1.0;"/></g><!--reverse link TextConverter to TeXConverter--><g id="link_TextConverter_TeXConverter"><path codeLine="40" d="M592.81,183.9869 C592.81,211.8869 592.81,226.6369 592.81,253.4869 " fill="none" id="TextConverter-backto-TeXConverter" style="stroke:#181818;stroke-width:1.0;"/><polygon fill="none" points="592.81,165.9869,586.81,183.9869,598.81,183.9869,592.81,165.9869" style="stroke:#181818;stroke-width:1.0;"/></g><!--reverse link TextConverter to TextWidgetConverter--><g id="link_TextConverter_TextWidgetConverter"><path codeLine="41" d="M621.76,183.9769 C621.76,223.5369 621.76,249.7569 621.76,249.7569 C621.76,249.7569 715.94,249.7569 792.64,249.7569 " fill="none" id="TextConverter-backto-TextWidgetConverter" style="stroke:#181818;stroke-width:1.0;"/><polygon fill="none" points="621.76,165.9769,615.76,183.9769,627.76,183.9769,621.76,165.9769" style="stroke:#181818;stroke-width:1.0;"/></g><!--link RTFReader to TextConverter--><g id="link_RTFReader_TextConverter"><path codeLine="43" d="M280.42,105.0169 C332.61,105.0169 390.35,105.0169 450.69,105.0169 " fill="none" id="RTFReader-TextConverter" style="stroke:#181818;stroke-width:1.0;"/><polygon fill="none" points="268.42,105.0169,274.42,109.0169,280.42,105.0169,274.42,101.0169,268.42,105.0169" style="stroke:#181818;stroke-width:1.0;"/><polygon fill="#181818" points="456.69,105.0169,447.69,101.0169,451.69,105.0169,447.69,109.0169,456.69,105.0169" style="stroke:#181818;stroke-width:1.0;"/><text fill="#000000" font-family="sans-serif" font-size="13" lengthAdjust="spacing" textLength="45.3096" x="269.3392" y="101.9994">builder</text></g><!--link ASCIIConverter to ASCIIText--><g id="link_ASCIIConverter_ASCIIText"><path codeLine="45" d="M439.78,351.1469 C439.78,381.6769 439.78,415.0769 439.78,440.7669 " fill="none" id="ASCIIConverter-to-ASCIIText" style="stroke:#181818;stroke-width:1.0;stroke-dasharray:7.0,7.0;"/><polygon fill="#181818" points="439.78,446.7669,443.78,437.7669,439.78,441.7669,435.78,437.7669,439.78,446.7669" style="stroke:#181818;stroke-width:1.0;"/></g><!--link TeXConverter to TeXText--><g id="link_TeXConverter_TeXText"><path codeLine="46" d="M660.78,359.2369 C660.78,388.4669 660.78,417.5269 660.78,441.0069 " fill="none" id="TeXConverter-to-TeXText" style="stroke:#181818;stroke-width:1.0;stroke-dasharray:7.0,7.0;"/><polygon fill="#181818" points="660.78,447.0069,664.78,438.0069,660.78,442.0069,656.78,438.0069,660.78,447.0069" style="stroke:#181818;stroke-width:1.0;"/></g><!--link TextWidgetConverter to TextWidget--><g id="link_TextWidgetConverter_TextWidget"><path codeLine="47" d="M889.78,367.6269 C889.78,394.8069 889.78,419.3769 889.78,440.6269 " fill="none" id="TextWidgetConverter-to-TextWidget" style="stroke:#181818;stroke-width:1.0;stroke-dasharray:7.0,7.0;"/><polygon fill="#181818" points="889.78,446.6269,893.78,437.6269,889.78,441.6269,885.78,437.6269,889.78,446.6269" style="stroke:#181818;stroke-width:1.0;"/></g><!--SRC=[bLHDZvim4BtxLupsb1p23q0KAMMRTYzjH96QgvTCmLfY8pDfKdNtlw_DHp0GDYa7P8tVp3o_-U15eKu7SHOoOzMBa2NN_025a4X_ImIbALUCaQ02uVDH57lKiEL4g2N4oGOIF9CnwChOlvpveIoGiRJWLMMlO-JM8GWUXSQKb0v34qnbIBan_sFGVes3ZHKf-GSrrKvjFkCpnAr_HazFBj2SKus4Smu9xluFVgPVOczOVknrSRDlup8p4jNKQas2OAlL_fYI4xx76KPteJeY4-1R_MUzndvJXPX-BvQC3QNqeJr7kIblQaoBr9oMSx2DaXOgCrpOuopEPEIPvcLkKuwgCfjpWlkAT96juRwxY_hkFkQx6yJ7RpDqskfqGevxuKCvPy5NHPr5ZnbEWJNFxc9Qy-1rjHfDoZM4gy_r-qbkvdJTmtCp3G-WLk5mW2STuNbXFn_3mjYhLlIhhstkEpjZKX42hq1Uc3JDdspgiJZbmapFWk0JsDanomQadJPIBoYNpjwfJeBI7CXBxBBhxVQBlgrZVs2nN_lULJXf0VAYkWbSzER7z-Hs3ASpo6jwmuLlr_7wTX2tOJhCMxigKEx1IiQcUe5tBBr-LVj-jqKOUmS0]--></g></svg>