<svg xmlns="http://www.w3.org/2000/svg" xmlns:xlink="http://www.w3.org/1999/xlink" contentStyleType="text/css" height="831px" preserveAspectRatio="none" style="width:1283px;height:831px;background:#FFFFFF;" version="1.1" viewBox="0 0 1283 831" width="1283px" zoomAndPan="magnify"><defs/><g><text fill="#000000" font-family="sans-serif" font-size="14" font-weight="bold" lengthAdjust="spacing" textLength="364.7588" x="452.3662" y="22.9951">Builder Pattern Maze Builder Factory Example</text><!--class MazeBuilder--><g id="elem_MazeBuilder"><rect codeLine="9" fill="#F1F1F1" height="137.75" id="MazeBuilder" rx="2.5" ry="2.5" style="stroke:#181818;stroke-width:0.5;" width="267.8418" x="316.08" y="440.5569"/><ellipse cx="402.6845" cy="460.6897" fill="#ADD1B2" rx="11" ry="11" style="stroke:#181818;stroke-width:1.0;"/><path d="M405.6532,466.3303 Q405.0751,466.6272 404.4345,466.7678 Q403.7939,466.9241 403.0907,466.9241 Q400.5907,466.9241 399.2626,465.2834 Q397.9501,463.6272 397.9501,460.5022 Q397.9501,457.3772 399.2626,455.7209 Q400.5907,454.0647 403.0907,454.0647 Q403.7939,454.0647 404.4345,454.2209 Q405.0907,454.3772 405.6532,454.6741 L405.6532,457.3928 Q405.0282,456.8147 404.4345,456.5491 Q403.8407,456.2678 403.2157,456.2678 Q401.872,456.2678 401.1845,457.3459 Q400.497,458.4084 400.497,460.5022 Q400.497,462.5959 401.1845,463.6741 Q401.872,464.7366 403.2157,464.7366 Q403.8407,464.7366 404.4345,464.4709 Q405.0282,464.1897 405.6532,463.6116 L405.6532,466.3303 Z " fill="#000000"/><text fill="#000000" font-family="sans-serif" font-size="12" font-style="italic" lengthAdjust="spacing" textLength="57.252" x="437.6249" y="456.6955">&#171;Builder&#187;</text><text fill="#000000" font-family="sans-serif" font-size="14" lengthAdjust="spacing" textLength="86.1328" x="423.1845" y="472.5207">MazeBuilder</text><line style="stroke:#181818;stroke-width:0.5;" x1="317.08" x2="582.9218" y1="480.8225" y2="480.8225"/><line style="stroke:#181818;stroke-width:0.5;" x1="317.08" x2="582.9218" y1="488.8225" y2="488.8225"/><polygon fill="#FFFF44" points="327.08,497.4709,331.08,501.4709,327.08,505.4709,323.08,501.4709" style="stroke:#B38D22;stroke-width:1.0;"/><text fill="#000000" font-family="sans-serif" font-size="14" lengthAdjust="spacing" textLength="97.0566" x="336.08" y="505.8176">MazeBuilder()</text><ellipse cx="327.08" cy="518.7678" fill="#84BE84" rx="3" ry="3" style="stroke:#038048;stroke-width:1.0;"/><text fill="#000000" font-family="sans-serif" font-size="14" lengthAdjust="spacing" textLength="125.2139" x="336.08" y="522.1145">buildMaze() : void</text><ellipse cx="327.08" cy="535.0647" fill="#84BE84" rx="3" ry="3" style="stroke:#038048;stroke-width:1.0;"/><text fill="#000000" font-family="sans-serif" font-size="14" lengthAdjust="spacing" textLength="187.8926" x="336.08" y="538.4114">buildRoom(num: int) : void</text><ellipse cx="327.08" cy="551.3616" fill="#84BE84" rx="3" ry="3" style="stroke:#038048;stroke-width:1.0;"/><text fill="#000000" font-family="sans-serif" font-size="14" lengthAdjust="spacing" textLength="241.8418" x="336.08" y="554.7082">buildDoor(from : int, to : int) : void</text><ellipse cx="327.08" cy="567.6584" fill="#84BE84" rx="3" ry="3" style="stroke:#038048;stroke-width:1.0;"/><text fill="#000000" font-family="sans-serif" font-size="14" lengthAdjust="spacing" textLength="120.7705" x="336.08" y="571.0051">getMaze() : Maze</text></g><!--class StandardMazeBuilder--><g id="elem_StandardMazeBuilder"><rect codeLine="10" fill="#F1F1F1" height="170.3438" id="StandardMazeBuilder" rx="2.5" ry="2.5" style="stroke:#181818;stroke-width:0.5;" width="295.165" x="576.5" y="646.6269"/><ellipse cx="644.7979" cy="666.7597" fill="#ADD1B2" rx="11" ry="11" style="stroke:#181818;stroke-width:1.0;"/><path d="M647.7666,672.4003 Q647.1885,672.6972 646.5479,672.8378 Q645.9072,672.9941 645.2041,672.9941 Q642.7041,672.9941 641.376,671.3534 Q640.0635,669.6972 640.0635,666.5722 Q640.0635,663.4472 641.376,661.7909 Q642.7041,660.1347 645.2041,660.1347 Q645.9072,660.1347 646.5479,660.2909 Q647.2041,660.4472 647.7666,660.7441 L647.7666,663.4628 Q647.1416,662.8847 646.5479,662.6191 Q645.9541,662.3378 645.3291,662.3378 Q643.9854,662.3378 643.2979,663.4159 Q642.6104,664.4784 642.6104,666.5722 Q642.6104,668.6659 643.2979,669.7441 Q643.9854,670.8066 645.3291,670.8066 Q645.9541,670.8066 646.5479,670.5409 Q647.1416,670.2597 647.7666,669.6816 L647.7666,672.4003 Z " fill="#000000"/><text fill="#000000" font-family="sans-serif" font-size="12" font-style="italic" lengthAdjust="spacing" textLength="111.5801" x="684.5425" y="662.7655">&#171;ConcreteBuilder&#187;</text><text fill="#000000" font-family="sans-serif" font-size="14" lengthAdjust="spacing" textLength="150.0693" x="665.2979" y="678.5907">StandardMazeBuilder</text><line style="stroke:#181818;stroke-width:0.5;" x1="577.5" x2="870.665" y1="686.8925" y2="686.8925"/><rect fill="none" height="6" style="stroke:#C82930;stroke-width:1.0;" width="6" x="584.5" y="697.5409"/><text fill="#000000" font-family="sans-serif" font-size="14" lengthAdjust="spacing" textLength="101.2949" x="596.5" y="703.8876">current : Maze</text><line style="stroke:#181818;stroke-width:0.5;" x1="577.5" x2="870.665" y1="711.1894" y2="711.1894"/><ellipse cx="587.5" cy="724.8378" fill="#84BE84" rx="3" ry="3" style="stroke:#038048;stroke-width:1.0;"/><text fill="#000000" font-family="sans-serif" font-size="14" lengthAdjust="spacing" textLength="160.9932" x="596.5" y="728.1845">StandardMazeBuilder()</text><ellipse cx="587.5" cy="741.1347" fill="#84BE84" rx="3" ry="3" style="stroke:#038048;stroke-width:1.0;"/><text fill="#000000" font-family="sans-serif" font-size="14" lengthAdjust="spacing" textLength="125.2139" x="596.5" y="744.4814">buildMaze() : void</text><ellipse cx="587.5" cy="757.4316" fill="#84BE84" rx="3" ry="3" style="stroke:#038048;stroke-width:1.0;"/><text fill="#000000" font-family="sans-serif" font-size="14" lengthAdjust="spacing" textLength="129.0898" x="596.5" y="760.7782">buildRoom() : void</text><ellipse cx="587.5" cy="773.7284" fill="#84BE84" rx="3" ry="3" style="stroke:#038048;stroke-width:1.0;"/><text fill="#000000" font-family="sans-serif" font-size="14" lengthAdjust="spacing" textLength="122.2607" x="596.5" y="777.0751">buildDoor() : void</text><ellipse cx="587.5" cy="790.0253" fill="#84BE84" rx="3" ry="3" style="stroke:#038048;stroke-width:1.0;"/><text fill="#000000" font-family="sans-serif" font-size="14" lengthAdjust="spacing" textLength="120.7705" x="596.5" y="793.372">getMaze() : Maze</text><rect fill="#F24D5C" height="6" style="stroke:#C82930;stroke-width:1.0;" width="6" x="584.5" y="803.3222"/><text fill="#000000" font-family="sans-serif" font-size="14" lengthAdjust="spacing" textLength="269.165" x="596.5" y="809.6689">commonWall(Room, Room) : Direction</text></g><!--class CountingMazeBuilder--><g id="elem_CountingMazeBuilder"><rect codeLine="11" fill="#F1F1F1" height="186.6406" id="CountingMazeBuilder" rx="2.5" ry="2.5" style="stroke:#181818;stroke-width:0.5;" width="227.4277" x="306.29" y="638.3069"/><ellipse cx="342.0212" cy="658.4397" fill="#ADD1B2" rx="11" ry="11" style="stroke:#181818;stroke-width:1.0;"/><path d="M344.99,664.0803 Q344.4118,664.3772 343.7712,664.5178 Q343.1306,664.6741 342.4275,664.6741 Q339.9275,664.6741 338.5993,663.0334 Q337.2868,661.3772 337.2868,658.2522 Q337.2868,655.1272 338.5993,653.4709 Q339.9275,651.8147 342.4275,651.8147 Q343.1306,651.8147 343.7712,651.9709 Q344.4275,652.1272 344.99,652.4241 L344.99,655.1428 Q344.365,654.5647 343.7712,654.2991 Q343.1775,654.0178 342.5525,654.0178 Q341.2087,654.0178 340.5212,655.0959 Q339.8337,656.1584 339.8337,658.2522 Q339.8337,660.3459 340.5212,661.4241 Q341.2087,662.4866 342.5525,662.4866 Q343.1775,662.4866 343.7712,662.2209 Q344.365,661.9397 344.99,661.3616 L344.99,664.0803 Z " fill="#000000"/><text fill="#000000" font-family="sans-serif" font-size="12" font-style="italic" lengthAdjust="spacing" textLength="111.5801" x="379.5173" y="654.4455">&#171;ConcreteBuilder&#187;</text><text fill="#000000" font-family="sans-serif" font-size="14" lengthAdjust="spacing" textLength="149.3584" x="360.6281" y="670.2707">CountingMazeBuilder</text><line style="stroke:#181818;stroke-width:0.5;" x1="307.29" x2="532.7177" y1="678.5725" y2="678.5725"/><rect fill="none" height="6" style="stroke:#C82930;stroke-width:1.0;" width="6" x="314.29" y="689.2209"/><text fill="#000000" font-family="sans-serif" font-size="14" lengthAdjust="spacing" textLength="70.9365" x="326.29" y="695.5676">doors : int</text><rect fill="none" height="6" style="stroke:#C82930;stroke-width:1.0;" width="6" x="314.29" y="705.5178"/><text fill="#000000" font-family="sans-serif" font-size="14" lengthAdjust="spacing" textLength="75.6875" x="326.29" y="711.8645">rooms : int</text><line style="stroke:#181818;stroke-width:0.5;" x1="307.29" x2="532.7177" y1="719.1663" y2="719.1663"/><ellipse cx="317.29" cy="732.8147" fill="#84BE84" rx="3" ry="3" style="stroke:#038048;stroke-width:1.0;"/><text fill="#000000" font-family="sans-serif" font-size="14" lengthAdjust="spacing" textLength="160.2822" x="326.29" y="736.1614">CountingMazeBuilder()</text><ellipse cx="317.29" cy="749.1116" fill="#84BE84" rx="3" ry="3" style="stroke:#038048;stroke-width:1.0;"/><text fill="#000000" font-family="sans-serif" font-size="14" lengthAdjust="spacing" textLength="125.2139" x="326.29" y="752.4582">buildMaze() : void</text><ellipse cx="317.29" cy="765.4084" fill="#84BE84" rx="3" ry="3" style="stroke:#038048;stroke-width:1.0;"/><text fill="#000000" font-family="sans-serif" font-size="14" lengthAdjust="spacing" textLength="129.0898" x="326.29" y="768.7551">buildRoom() : void</text><ellipse cx="317.29" cy="781.7053" fill="#84BE84" rx="3" ry="3" style="stroke:#038048;stroke-width:1.0;"/><text fill="#000000" font-family="sans-serif" font-size="14" lengthAdjust="spacing" textLength="122.2607" x="326.29" y="785.052">buildDoor() : void</text><ellipse cx="317.29" cy="798.0022" fill="#84BE84" rx="3" ry="3" style="stroke:#038048;stroke-width:1.0;"/><text fill="#000000" font-family="sans-serif" font-size="14" lengthAdjust="spacing" textLength="201.4277" x="326.29" y="801.3489">addWall(int, Direction) : void</text><ellipse cx="317.29" cy="814.2991" fill="#84BE84" rx="3" ry="3" style="stroke:#038048;stroke-width:1.0;"/><text fill="#000000" font-family="sans-serif" font-size="14" lengthAdjust="spacing" textLength="171.4316" x="326.29" y="817.6457">getCounts(int, int) : void</text></g><!--class MazeGame--><g id="elem_MazeGame"><rect codeLine="14" fill="#F1F1F1" height="88.8594" id="MazeGame" rx="2.5" ry="2.5" style="stroke:#181818;stroke-width:0.5;" width="266.0781" x="7" y="465.4269"/><ellipse cx="96.6396" cy="485.5597" fill="#ADD1B2" rx="11" ry="11" style="stroke:#181818;stroke-width:1.0;"/><path d="M99.6084,491.2003 Q99.0303,491.4972 98.3896,491.6378 Q97.749,491.7941 97.0459,491.7941 Q94.5459,491.7941 93.2178,490.1534 Q91.9053,488.4972 91.9053,485.3722 Q91.9053,482.2472 93.2178,480.5909 Q94.5459,478.9347 97.0459,478.9347 Q97.749,478.9347 98.3896,479.0909 Q99.0459,479.2472 99.6084,479.5441 L99.6084,482.2628 Q98.9834,481.6847 98.3896,481.4191 Q97.7959,481.1378 97.1709,481.1378 Q95.8271,481.1378 95.1396,482.2159 Q94.4521,483.2784 94.4521,485.3722 Q94.4521,487.4659 95.1396,488.5441 Q95.8271,489.6066 97.1709,489.6066 Q97.7959,489.6066 98.3896,489.3409 Q98.9834,489.0597 99.6084,488.4816 L99.6084,491.2003 Z " fill="#000000"/><text fill="#000000" font-family="sans-serif" font-size="12" font-style="italic" lengthAdjust="spacing" textLength="63.2813" x="124.6484" y="481.5655">&#171;Director&#187;</text><text fill="#000000" font-family="sans-serif" font-size="14" lengthAdjust="spacing" textLength="78.2988" x="117.1396" y="497.3907">MazeGame</text><line style="stroke:#181818;stroke-width:0.5;" x1="8" x2="272.0781" y1="505.6925" y2="505.6925"/><line style="stroke:#181818;stroke-width:0.5;" x1="8" x2="272.0781" y1="513.6925" y2="513.6925"/><ellipse cx="18" cy="527.3409" fill="#84BE84" rx="3" ry="3" style="stroke:#038048;stroke-width:1.0;"/><text fill="#000000" font-family="sans-serif" font-size="14" lengthAdjust="spacing" textLength="178.4248" x="27" y="530.6876">createMaze(MazeBuilder)</text><ellipse cx="18" cy="543.6378" fill="#84BE84" rx="3" ry="3" style="stroke:#038048;stroke-width:1.0;"/><text fill="#000000" font-family="sans-serif" font-size="14" lengthAdjust="spacing" textLength="240.0781" x="27" y="546.9845">createComplexMaze(MazeBuilder)</text></g><!--entity Client--><g id="elem_Client"><rect fill="#F1F1F1" height="36.2969" rx="2.5" ry="2.5" style="stroke:#181818;stroke-width:0.5;" width="60.5303" x="103.73" y="281.7469"/><text fill="#000000" font-family="sans-serif" font-size="14" lengthAdjust="spacing" textLength="40.5303" x="113.73" y="304.742">Client</text></g><!--entity Maze--><g id="elem_Maze"><rect fill="#F1F1F1" height="52.5938" rx="2.5" ry="2.5" style="stroke:#181818;stroke-width:0.5;" width="90.9912" x="1006.5" y="483.1369"/><text fill="#000000" font-family="sans-serif" font-size="14" font-style="italic" lengthAdjust="spacing" textLength="70.9912" x="1016.5" y="506.132">&#171;Product&#187;</text><text fill="#000000" font-family="sans-serif" font-size="14" lengthAdjust="spacing" textLength="36.6201" x="1033.6855" y="522.4289">Maze</text></g><!--entity Room--><g id="elem_Room"><rect fill="#F1F1F1" height="52.5938" rx="2.5" ry="2.5" style="stroke:#181818;stroke-width:0.5;" width="90.9912" x="934.5" y="705.3269"/><text fill="#000000" font-family="sans-serif" font-size="14" font-style="italic" lengthAdjust="spacing" textLength="70.9912" x="944.5" y="728.322">&#171;Product&#187;</text><text fill="#000000" font-family="sans-serif" font-size="14" lengthAdjust="spacing" textLength="40.4961" x="959.7476" y="744.6189">Room</text></g><!--entity Door--><g id="elem_Door"><rect fill="#F1F1F1" height="52.5938" rx="2.5" ry="2.5" style="stroke:#181818;stroke-width:0.5;" width="90.9912" x="1060.5" y="705.3269"/><text fill="#000000" font-family="sans-serif" font-size="14" font-style="italic" lengthAdjust="spacing" textLength="70.9912" x="1070.5" y="728.322">&#171;Product&#187;</text><text fill="#000000" font-family="sans-serif" font-size="14" lengthAdjust="spacing" textLength="33.667" x="1089.1621" y="744.6189">Door</text></g><!--entity Wall--><g id="elem_Wall"><rect fill="#F1F1F1" height="52.5938" rx="2.5" ry="2.5" style="stroke:#181818;stroke-width:0.5;" width="90.9912" x="1186.5" y="705.3269"/><text fill="#000000" font-family="sans-serif" font-size="14" font-style="italic" lengthAdjust="spacing" textLength="70.9912" x="1196.5" y="728.322">&#171;Product&#187;</text><text fill="#000000" font-family="sans-serif" font-size="14" lengthAdjust="spacing" textLength="30.2012" x="1216.895" y="744.6189">Wall</text></g><g id="elem_nClient"><path d="M18.65,43.2969 L18.65,159.2266 A0,0 0 0 0 18.65,159.2266 L130,159.2266 L134,281.4769 L138,159.2266 L249.3512,159.2266 A0,0 0 0 0 249.3512,159.2266 L249.3512,53.2969 L239.3512,43.2969 L18.65,43.2969 A0,0 0 0 0 18.65,43.2969 " fill="#FEFFDD" style="stroke:#181818;stroke-width:0.5;"/><path d="M239.3512,43.2969 L239.3512,53.2969 L249.3512,53.2969 L239.3512,43.2969 " fill="#FEFFDD" style="stroke:#181818;stroke-width:0.5;"/><text fill="#000000" font-family="sans-serif" font-size="13" font-weight="bold" lengthAdjust="spacing" textLength="20.9282" x="24.65" y="60.3638">(1)</text><text fill="#000000" font-family="sans-serif" font-size="13" lengthAdjust="spacing" textLength="84.4683" x="41.1793" y="75.4966">Maze *maze;</text><text fill="#000000" font-family="sans-serif" font-size="13" lengthAdjust="spacing" textLength="118.0981" x="41.1793" y="90.6294">MazeGame game;</text><text fill="#000000" font-family="sans-serif" font-size="13" lengthAdjust="spacing" textLength="193.1719" x="41.1793" y="105.7622">StandardMazeBuilder builder;</text><text fill="#000000" font-family="sans-serif" font-size="13" lengthAdjust="spacing" textLength="16.5293" x="24.65" y="120.895">&#160;&#160;&#160;&#160;</text><text fill="#000000" font-family="sans-serif" font-size="13" lengthAdjust="spacing" textLength="176.4014" x="45.3116" y="136.0278">game.createMaze(builder);</text><text fill="#000000" font-family="sans-serif" font-size="13" lengthAdjust="spacing" textLength="173.9258" x="45.3116" y="151.1606">maze = builder.getMaze();</text></g><g id="elem_nMazeGameCreateMaze"><path d="M199.38,249.4969 L199.38,350.2937 A0,0 0 0 0 199.38,350.2937 L236.19,350.2937 L240.19,517.7269 L244.19,350.2937 L400.6217,350.2937 A0,0 0 0 0 400.6217,350.2937 L400.6217,259.4969 L390.6217,249.4969 L199.38,249.4969 A0,0 0 0 0 199.38,249.4969 " fill="#FEFFDD" style="stroke:#181818;stroke-width:0.5;"/><path d="M390.6217,249.4969 L390.6217,259.4969 L400.6217,259.4969 L390.6217,249.4969 " fill="#FEFFDD" style="stroke:#181818;stroke-width:0.5;"/><text fill="#000000" font-family="sans-serif" font-size="13" font-weight="bold" lengthAdjust="spacing" textLength="20.9282" x="205.38" y="266.5638">(2)</text><text fill="#000000" font-family="sans-serif" font-size="13" lengthAdjust="spacing" textLength="129.9365" x="221.9093" y="281.6966">builder.buildMaze();</text><text fill="#000000" font-family="sans-serif" font-size="13" lengthAdjust="spacing" textLength="141.8066" x="221.9093" y="296.8294">builder.buildRoom(1);</text><text fill="#000000" font-family="sans-serif" font-size="13" lengthAdjust="spacing" textLength="138.1187" x="221.9093" y="311.9622">builder.buildroom(1);</text><text fill="#000000" font-family="sans-serif" font-size="13" lengthAdjust="spacing" textLength="152.001" x="221.9093" y="327.095">builder.buildDoor(1, 2);</text><text fill="#000000" font-family="sans-serif" font-size="13" lengthAdjust="spacing" textLength="163.7124" x="221.9093" y="342.2278">return builder.getMaze();</text></g><g id="elem_nStandardMazeBuilderBuildRoom"><path d="M464.16,219.2269 L464.16,380.555 A0,0 0 0 0 464.16,380.555 L663.88,380.555 L667.88,747.6269 L671.88,380.555 L751.8441,380.555 A0,0 0 0 0 751.8441,380.555 L751.8441,229.2269 L741.8441,219.2269 L464.16,219.2269 A0,0 0 0 0 464.16,219.2269 " fill="#FEFFDD" style="stroke:#181818;stroke-width:0.5;"/><path d="M741.8441,219.2269 L741.8441,229.2269 L751.8441,229.2269 L741.8441,219.2269 " fill="#FEFFDD" style="stroke:#181818;stroke-width:0.5;"/><text fill="#000000" font-family="sans-serif" font-size="13" font-weight="bold" lengthAdjust="spacing" textLength="20.9282" x="470.16" y="236.2938">(3)</text><text fill="#000000" font-family="sans-serif" font-size="13" lengthAdjust="spacing" textLength="206.6099" x="503.2186" y="251.4266">if(!currentMaze-&gt;RoomNo(n)) {</text><text fill="#000000" font-family="sans-serif" font-size="13" lengthAdjust="spacing" textLength="192.6768" x="519.7479" y="266.5594">Room *room = new Room(n);</text><text fill="#000000" font-family="sans-serif" font-size="13" lengthAdjust="spacing" textLength="207.5112" x="519.7479" y="281.6922">currentMaze-&gt;addRoom(room);</text><text fill="#000000" font-family="sans-serif" font-size="13" lengthAdjust="spacing" textLength="49.5879" x="470.16" y="296.825">&#160;&#160;&#160;&#160;&#160;&#160;&#160;&#160;&#160;&#160;&#160;&#160;</text><text fill="#000000" font-family="sans-serif" font-size="13" lengthAdjust="spacing" textLength="215.6743" x="519.7479" y="311.9578">room-&gt;setSide(North, new Wall);</text><text fill="#000000" font-family="sans-serif" font-size="13" lengthAdjust="spacing" textLength="217.0962" x="519.7479" y="327.0906">room-&gt;setSide(South, new Wall);</text><text fill="#000000" font-family="sans-serif" font-size="13" lengthAdjust="spacing" textLength="207.3652" x="519.7479" y="342.2235">room-&gt;setSide(East, new Wall);</text><text fill="#000000" font-family="sans-serif" font-size="13" lengthAdjust="spacing" textLength="212.0371" x="519.7479" y="357.3563">room-&gt;setSide(West, new Wall);</text><text fill="#000000" font-family="sans-serif" font-size="13" lengthAdjust="spacing" textLength="8.271" x="503.2186" y="372.4891">}</text></g><g id="elem_nStandardMazeBuilderBuildDoor"><path d="M786.92,249.4969 L786.92,350.2937 A0,0 0 0 0 786.92,350.2937 L829.21,350.2937 L833.21,763.8169 L837.21,350.2937 L1085.0841,350.2937 A0,0 0 0 0 1085.0841,350.2937 L1085.0841,259.4969 L1075.0841,249.4969 L786.92,249.4969 A0,0 0 0 0 786.92,249.4969 " fill="#FEFFDD" style="stroke:#181818;stroke-width:0.5;"/><path d="M1075.0841,249.4969 L1075.0841,259.4969 L1085.0841,259.4969 L1075.0841,249.4969 " fill="#FEFFDD" style="stroke:#181818;stroke-width:0.5;"/><text fill="#000000" font-family="sans-serif" font-size="13" font-weight="bold" lengthAdjust="spacing" textLength="20.9282" x="792.92" y="266.5638">(4)</text><text fill="#000000" font-family="sans-serif" font-size="13" lengthAdjust="spacing" textLength="260.6348" x="809.4493" y="281.6966">Room *r1 = currentMaze-&gt;roomNo(n1);</text><text fill="#000000" font-family="sans-serif" font-size="13" lengthAdjust="spacing" textLength="260.6348" x="809.4493" y="296.8294">Room *r2 = currentMaze-&gt;roomNo(n2);</text><text fill="#000000" font-family="sans-serif" font-size="13" lengthAdjust="spacing" textLength="181.5874" x="809.4493" y="311.9622">Door *d = new Door(r1, r2);</text><text fill="#000000" font-family="sans-serif" font-size="13" lengthAdjust="spacing" textLength="238.5259" x="809.4493" y="327.095">r1-&gt;setSide(commonWall(r1, r2), d);</text><text fill="#000000" font-family="sans-serif" font-size="13" lengthAdjust="spacing" textLength="238.5259" x="809.4493" y="342.2278">r2-&gt;setSide(commonWall(r1, r2), d);</text></g><!--reverse link MazeBuilder to StandardMazeBuilder--><g id="link_MazeBuilder_StandardMazeBuilder"><path codeLine="51" d="M576.21,596.5169 C576.21,616.8969 576.21,621.4969 576.21,642.9269 " fill="none" id="MazeBuilder-backto-StandardMazeBuilder" style="stroke:#181818;stroke-width:1.0;"/><polygon fill="none" points="576.21,578.5169,570.21,596.5169,582.21,596.5169,576.21,578.5169" style="stroke:#181818;stroke-width:1.0;"/></g><!--reverse link MazeBuilder to CountingMazeBuilder--><g id="link_MazeBuilder_CountingMazeBuilder"><path codeLine="52" d="M424.9,596.5169 C424.9,615.3669 424.9,618.1169 424.9,638.0869 " fill="none" id="MazeBuilder-backto-CountingMazeBuilder" style="stroke:#181818;stroke-width:1.0;"/><polygon fill="none" points="424.9,578.5169,418.9,596.5169,430.9,596.5169,424.9,578.5169" style="stroke:#181818;stroke-width:1.0;"/></g><!--link MazeGame to MazeBuilder--><g id="link_MazeGame_MazeBuilder"><path codeLine="54" d="M280.94,509.4269 C292.62,509.4269 298.4,509.4269 310.02,509.4269 " fill="none" id="MazeGame-to-MazeBuilder" style="stroke:#181818;stroke-width:1.0;"/><polygon fill="#181818" points="316.02,509.4269,307.02,505.4269,311.02,509.4269,307.02,513.4269,316.02,509.4269" style="stroke:#181818;stroke-width:1.0;"/><text fill="#000000" font-family="sans-serif" font-size="13" lengthAdjust="spacing" textLength="23.0103" x="286.98" y="522.4938">use</text></g><!--link MazeBuilder to Maze--><g id="link_MazeBuilder_Maze"><path codeLine="55" d="M596.35,509.4269 C730.63,509.4269 911.52,509.4269 1000.31,509.4269 " fill="none" id="MazeBuilder-Maze" style="stroke:#181818;stroke-width:1.0;"/><polygon fill="none" points="584.35,509.4269,590.35,513.4269,596.35,509.4269,590.35,505.4269,584.35,509.4269" style="stroke:#181818;stroke-width:1.0;"/><polygon fill="#181818" points="1006.31,509.4269,997.31,505.4269,1001.31,509.4269,997.31,513.4269,1006.31,509.4269" style="stroke:#181818;stroke-width:1.0;"/></g><!--link Client to MazeGame--><g id="link_Client_MazeGame"><path codeLine="57" d="M134,318.4869 C134,350.3369 134,410.2869 134,455.6869 " fill="none" id="Client-to-MazeGame" style="stroke:#181818;stroke-width:1.0;stroke-dasharray:7.0,7.0;"/><polygon fill="#181818" points="134,461.6869,138,452.6869,134,456.6869,130,452.6869,134,461.6869" style="stroke:#181818;stroke-width:1.0;"/></g><!--link Maze to Room--><g id="link_Maze_Room"><path codeLine="59" d="M1016,547.7969 C1016,590.4369 1016,656.1069 1016,698.9569 " fill="none" id="Maze-Room" style="stroke:#181818;stroke-width:1.0;"/><polygon fill="none" points="1016,535.7969,1012,541.7969,1016,547.7969,1020,541.7969,1016,535.7969" style="stroke:#181818;stroke-width:1.0;"/><polygon fill="#181818" points="1016,704.9569,1020,695.9569,1016,699.9569,1012,695.9569,1016,704.9569" style="stroke:#181818;stroke-width:1.0;"/></g><!--link Maze to Door--><g id="link_Maze_Door"><path codeLine="60" d="M1079,547.7969 C1079,590.4369 1079,656.1069 1079,698.9569 " fill="none" id="Maze-Door" style="stroke:#181818;stroke-width:1.0;"/><polygon fill="none" points="1079,535.7969,1075,541.7969,1079,547.7969,1083,541.7969,1079,535.7969" style="stroke:#181818;stroke-width:1.0;"/><polygon fill="#181818" points="1079,704.9569,1083,695.9569,1079,699.9569,1075,695.9569,1079,704.9569" style="stroke:#181818;stroke-width:1.0;"/></g><!--link Maze to Wall--><g id="link_Maze_Wall"><path codeLine="61" d="M1109.89,509.4269 C1163.22,509.4269 1232,509.4269 1232,509.4269 C1232,509.4269 1232,640.4069 1232,699.2669 " fill="none" id="Maze-Wall" style="stroke:#181818;stroke-width:1.0;"/><polygon fill="none" points="1097.89,509.4269,1103.89,513.4269,1109.89,509.4269,1103.89,505.4269,1097.89,509.4269" style="stroke:#181818;stroke-width:1.0;"/><polygon fill="#181818" points="1232,705.2669,1236,696.2669,1232,700.2669,1228,696.2669,1232,705.2669" style="stroke:#181818;stroke-width:1.0;"/></g><!--SRC=[ZLPDSziW4BtpA-ZqK2cnFMEt9yNr8KxQKpEPvf0pCSHXAa46eIPfc__UPG5zn4Yn3h9Wtw9zRv_0h2prKoMVfTgJ-fTKZyomYfPI2VloAAWsza6JJwMujzHgQkJ-mL8kZTXPgHKXLjfIqFD6bbmOUisi5KRH7-nFD_cDxQmsB_JocLMFfO0SlHVsGPY_XCArArbTOqPCMA_3qsRJGznOfZWpV8ZSQhKpmefKnbOtoWAlOp9U2UaA-Sug0SWBfAaTXBWdflR0TLjAeMp7WdeQ7G39hzVNHlDcPyFwNVYdrjL4-49hCn6-PMLv48RY-nmB-h4tpF8tmTCxz-ZciXo6lxNaIOGhD5DDLL2fx2JIrPpT6-25s9bpocGMADU-tpqGakfkGUUxnXXGEyBIgDF4DB0U0IVOJo5HXQEGgC9xo0FcOyHrLMdbkfsv2cPe6vTqqNrxANz3AeSwQg__6CJ0OjEGqyGqQ3e2JcWwXHngEeKSQZg2P9oZK6YzLf_tig0J6AbzNj-jfDq400UR1RC2oVLMo1EOhNRxs_CXT63_zR_vFBMP7O8IXVTAcs_ea55JYy4QEY30ABXbqKMOSEb-8S3CDwuRtGWteDxGAKk8qbPGLbCLTh_rtIPRvhZv8FIaWljPEyO2zt3pKocFt_bV3y0R9YnwSWT8xZ7KlO9-ZOcBzaiw8q9nwYeaAZ9TjDjqMtciQzk-05ciF8kuQi_9PuS1DEuo5J6Z4RJmSaPN8GXdJmD7v2IDmreTfJXR59r8FO89bSzZqKZriwVgBdcVVGXxguDx4rpfJELvEC_YXSVLYQC7sYlnHFsn49iIhi5Qy3qYo2MzmGq6BZxVrCBUI2woA_TNOuQlS9vxapZ4tkZcQEmbg-sHq5in0drjUqF9fCxGfaNAxaNH-kU8Zk4dw3hsnNSiz6097HW8RKBJeky2RZM6YnR4_nWdF3GK3Mh0eQQrwBBJf7SG1SoCyeXRlOkZnoY7zKmhXvBy1m00]--></g></svg>