<svg xmlns="http://www.w3.org/2000/svg" xmlns:xlink="http://www.w3.org/1999/xlink" contentStyleType="text/css" height="567px" preserveAspectRatio="none" style="width:463px;height:567px;background:#FFFFFF;" version="1.1" viewBox="0 0 463 567" width="463px" zoomAndPan="magnify"><defs/><g><rect fill="#FFFFFF" height="435.0625" style="stroke:#181818;stroke-width:1.0;" width="10" x="31.5547" y="62.5938"/><rect fill="#FFFFFF" height="30" style="stroke:#181818;stroke-width:1.0;" width="10" x="226.2349" y="142.8594"/><rect fill="#FFFFFF" height="236.5313" style="stroke:#181818;stroke-width:1.0;" width="10" x="226.2349" y="201.9922"/><rect fill="#FFFFFF" height="30" style="stroke:#181818;stroke-width:1.0;" width="10" x="366.4731" y="83.7266"/><rect fill="#FFFFFF" height="30" style="stroke:#181818;stroke-width:1.0;" width="10" x="366.4731" y="231.125"/><rect fill="#FFFFFF" height="30" style="stroke:#181818;stroke-width:1.0;" width="10" x="366.4731" y="290.2578"/><rect fill="#FFFFFF" height="30" style="stroke:#181818;stroke-width:1.0;" width="10" x="366.4731" y="349.3906"/><rect fill="#FFFFFF" height="30" style="stroke:#181818;stroke-width:1.0;" width="10" x="366.4731" y="408.5234"/><rect fill="#FFFFFF" height="30" style="stroke:#181818;stroke-width:1.0;" width="10" x="366.4731" y="467.6563"/><line style="stroke:#181818;stroke-width:0.5;stroke-dasharray:5.0,5.0;" x1="36" x2="36" y1="52.5938" y2="515.6563"/><line style="stroke:#181818;stroke-width:0.5;stroke-dasharray:5.0,5.0;" x1="230.3208" x2="230.3208" y1="52.5938" y2="515.6563"/><line style="stroke:#181818;stroke-width:0.5;stroke-dasharray:5.0,5.0;" x1="371.1489" x2="371.1489" y1="52.5938" y2="515.6563"/><rect fill="#E2E2F0" height="30.2969" rx="2.5" ry="2.5" style="stroke:#181818;stroke-width:0.5;" width="63.1094" x="5" y="21.2969"/><text fill="#000000" font-family="sans-serif" font-size="14" lengthAdjust="spacing" textLength="49.1094" x="12" y="41.292">aClient</text><rect fill="#E2E2F0" height="30.2969" rx="2.5" ry="2.5" style="stroke:#181818;stroke-width:0.5;" width="63.1094" x="5" y="514.6563"/><text fill="#000000" font-family="sans-serif" font-size="14" lengthAdjust="spacing" textLength="49.1094" x="12" y="534.6514">aClient</text><rect fill="#E2E2F0" height="46.5938" rx="2.5" ry="2.5" style="stroke:#181818;stroke-width:0.5;" width="87.8281" x="187.3208" y="5"/><text fill="#000000" font-family="sans-serif" font-size="14" font-style="italic" lengthAdjust="spacing" textLength="73.8281" x="194.3208" y="24.9951">&#171;Director&#187;</text><text fill="#000000" font-family="sans-serif" font-size="14" lengthAdjust="spacing" textLength="50.2578" x="206.106" y="41.292">aGame</text><rect fill="#E2E2F0" height="46.5938" rx="2.5" ry="2.5" style="stroke:#181818;stroke-width:0.5;" width="87.8281" x="187.3208" y="514.6563"/><text fill="#000000" font-family="sans-serif" font-size="14" font-style="italic" lengthAdjust="spacing" textLength="73.8281" x="194.3208" y="534.6514">&#171;Director&#187;</text><text fill="#000000" font-family="sans-serif" font-size="14" lengthAdjust="spacing" textLength="50.2578" x="206.106" y="550.9482">aGame</text><rect fill="#E2E2F0" height="46.5938" rx="2.5" ry="2.5" style="stroke:#181818;stroke-width:0.5;" width="172.6484" x="285.1489" y="5"/><text fill="#000000" font-family="sans-serif" font-size="14" font-style="italic" lengthAdjust="spacing" textLength="130.1768" x="306.3848" y="24.9951">&#171;ConcreteBuilder&#187;</text><text fill="#000000" font-family="sans-serif" font-size="14" lengthAdjust="spacing" textLength="158.6484" x="292.1489" y="41.292">aStandardMazeBuilder</text><rect fill="#E2E2F0" height="46.5938" rx="2.5" ry="2.5" style="stroke:#181818;stroke-width:0.5;" width="172.6484" x="285.1489" y="514.6563"/><text fill="#000000" font-family="sans-serif" font-size="14" font-style="italic" lengthAdjust="spacing" textLength="130.1768" x="306.3848" y="534.6514">&#171;ConcreteBuilder&#187;</text><text fill="#000000" font-family="sans-serif" font-size="14" lengthAdjust="spacing" textLength="158.6484" x="292.1489" y="550.9482">aStandardMazeBuilder</text><rect fill="#FFFFFF" height="435.0625" style="stroke:#181818;stroke-width:1.0;" width="10" x="31.5547" y="62.5938"/><rect fill="#FFFFFF" height="30" style="stroke:#181818;stroke-width:1.0;" width="10" x="226.2349" y="142.8594"/><rect fill="#FFFFFF" height="236.5313" style="stroke:#181818;stroke-width:1.0;" width="10" x="226.2349" y="201.9922"/><rect fill="#FFFFFF" height="30" style="stroke:#181818;stroke-width:1.0;" width="10" x="366.4731" y="83.7266"/><rect fill="#FFFFFF" height="30" style="stroke:#181818;stroke-width:1.0;" width="10" x="366.4731" y="231.125"/><rect fill="#FFFFFF" height="30" style="stroke:#181818;stroke-width:1.0;" width="10" x="366.4731" y="290.2578"/><rect fill="#FFFFFF" height="30" style="stroke:#181818;stroke-width:1.0;" width="10" x="366.4731" y="349.3906"/><rect fill="#FFFFFF" height="30" style="stroke:#181818;stroke-width:1.0;" width="10" x="366.4731" y="408.5234"/><rect fill="#FFFFFF" height="30" style="stroke:#181818;stroke-width:1.0;" width="10" x="366.4731" y="467.6563"/><polygon fill="#181818" points="354.4731,79.7266,364.4731,83.7266,354.4731,87.7266,358.4731,83.7266" style="stroke:#181818;stroke-width:1.0;"/><line style="stroke:#181818;stroke-width:1.0;" x1="41.5547" x2="360.4731" y1="83.7266" y2="83.7266"/><text fill="#000000" font-family="sans-serif" font-size="13" lengthAdjust="spacing" textLength="170.3521" x="48.5547" y="78.6606">new StandardMazeBuilder</text><polygon fill="#181818" points="214.2349,138.8594,224.2349,142.8594,214.2349,146.8594,218.2349,142.8594" style="stroke:#181818;stroke-width:1.0;"/><line style="stroke:#181818;stroke-width:1.0;" x1="41.5547" x2="220.2349" y1="142.8594" y2="142.8594"/><text fill="#000000" font-family="sans-serif" font-size="13" lengthAdjust="spacing" textLength="103.708" x="48.5547" y="137.7935">new MazeGame</text><polygon fill="#181818" points="214.2349,197.9922,224.2349,201.9922,214.2349,205.9922,218.2349,201.9922" style="stroke:#181818;stroke-width:1.0;"/><line style="stroke:#181818;stroke-width:1.0;" x1="41.5547" x2="220.2349" y1="201.9922" y2="201.9922"/><text fill="#000000" font-family="sans-serif" font-size="13" lengthAdjust="spacing" textLength="165.6802" x="48.5547" y="196.9263">createMaze(MazeBuilder)</text><polygon fill="#181818" points="354.4731,227.125,364.4731,231.125,354.4731,235.125,358.4731,231.125" style="stroke:#181818;stroke-width:1.0;"/><line style="stroke:#181818;stroke-width:1.0;" x1="236.2349" x2="360.4731" y1="231.125" y2="231.125"/><text fill="#000000" font-family="sans-serif" font-size="13" lengthAdjust="spacing" textLength="76.1147" x="243.2349" y="226.0591">buildMaze()</text><polygon fill="#181818" points="354.4731,286.2578,364.4731,290.2578,354.4731,294.2578,358.4731,290.2578" style="stroke:#181818;stroke-width:1.0;"/><line style="stroke:#181818;stroke-width:1.0;" x1="236.2349" x2="360.4731" y1="290.2578" y2="290.2578"/><text fill="#000000" font-family="sans-serif" font-size="13" lengthAdjust="spacing" textLength="87.9849" x="243.2349" y="285.1919">buildRoom(1)</text><polygon fill="#181818" points="354.4731,345.3906,364.4731,349.3906,354.4731,353.3906,358.4731,349.3906" style="stroke:#181818;stroke-width:1.0;"/><line style="stroke:#181818;stroke-width:1.0;" x1="236.2349" x2="360.4731" y1="349.3906" y2="349.3906"/><text fill="#000000" font-family="sans-serif" font-size="13" lengthAdjust="spacing" textLength="84.2969" x="243.2349" y="344.3247">buildroom(2)</text><polygon fill="#181818" points="354.4731,404.5234,364.4731,408.5234,354.4731,412.5234,358.4731,408.5234" style="stroke:#181818;stroke-width:1.0;"/><line style="stroke:#181818;stroke-width:1.0;" x1="236.2349" x2="360.4731" y1="408.5234" y2="408.5234"/><text fill="#000000" font-family="sans-serif" font-size="13" lengthAdjust="spacing" textLength="98.1792" x="243.2349" y="403.4575">buildDoor(1, 2)</text><polygon fill="#181818" points="354.4731,463.6563,364.4731,467.6563,354.4731,471.6563,358.4731,467.6563" style="stroke:#181818;stroke-width:1.0;"/><line style="stroke:#181818;stroke-width:1.0;" x1="41.5547" x2="360.4731" y1="467.6563" y2="467.6563"/><text fill="#000000" font-family="sans-serif" font-size="13" lengthAdjust="spacing" textLength="65.4951" x="48.5547" y="462.5903">getMaze()</text><!--SRC=[bT512u8m50Vm-px5ZWfrg6E81nKaQ9Vw1A_j4GFTPAs2FdrxXZX330yotlP-st-p0-Urr1qOpw5iDD9uv-NfoBfugOOMQQ4MFCigxL1ww_9ysdJnO1Gu9U2DnKCt2XqPKGHJMYCT-c4-K0RIwoTux4yB7z_cr7lW1bzyPgyHY88fZAk1XtXVJemoZwOMiGdLn8HiOPfK4fsOJZWBdKF4ApNqxUbIh5znjhPDTgk88x9VHIfhNRBRy6Kr_nhzBZVq_-yMbVG3Fm00]--></g></svg>