<svg xmlns="http://www.w3.org/2000/svg" xmlns:xlink="http://www.w3.org/1999/xlink" contentStyleType="text/css" height="514px" preserveAspectRatio="none" style="width:1060px;height:514px;background:#FFFFFF;" version="1.1" viewBox="0 0 1060 514" width="1060px" zoomAndPan="magnify"><defs/><g><text fill="#000000" font-family="sans-serif" font-size="14" font-weight="bold" lengthAdjust="spacing" textLength="260.6611" x="392.7154" y="22.9951">Builder Pattern Formal Structure</text><!--class Director--><g id="elem_Director"><rect codeLine="7" fill="#F1F1F1" height="64.2969" id="Director" rx="2.5" ry="2.5" style="stroke:#181818;stroke-width:0.5;" width="90.7363" x="138.36" y="299.3669"/><ellipse cx="154.3453" cy="315.3669" fill="#ADD1B2" rx="11" ry="11" style="stroke:#181818;stroke-width:1.0;"/><path d="M157.314,321.0075 Q156.7359,321.3044 156.0953,321.445 Q155.4546,321.6013 154.7515,321.6013 Q152.2515,321.6013 150.9234,319.9606 Q149.6109,318.3044 149.6109,315.1794 Q149.6109,312.0544 150.9234,310.3981 Q152.2515,308.7419 154.7515,308.7419 Q155.4546,308.7419 156.0953,308.8981 Q156.7515,309.0544 157.314,309.3513 L157.314,312.07 Q156.689,311.4919 156.0953,311.2263 Q155.5015,310.945 154.8765,310.945 Q153.5328,310.945 152.8453,312.0231 Q152.1578,313.0856 152.1578,315.1794 Q152.1578,317.2731 152.8453,318.3513 Q153.5328,319.4138 154.8765,319.4138 Q155.5015,319.4138 156.0953,319.1481 Q156.689,318.8669 157.314,318.2888 L157.314,321.0075 Z " fill="#000000"/><text fill="#000000" font-family="sans-serif" font-size="14" lengthAdjust="spacing" textLength="56.5469" x="168.5642" y="320.2136">Director</text><line style="stroke:#181818;stroke-width:0.5;" x1="139.36" x2="228.0963" y1="331.3669" y2="331.3669"/><line style="stroke:#181818;stroke-width:0.5;" x1="139.36" x2="228.0963" y1="339.3669" y2="339.3669"/><text fill="#000000" font-family="sans-serif" font-size="14" lengthAdjust="spacing" textLength="78.7363" x="144.36" y="356.362">Construct()</text></g><!--class Builder--><g id="elem_Builder"><rect codeLine="9" fill="#F1F1F1" height="64.2969" id="Builder" rx="2.5" ry="2.5" style="stroke:#181818;stroke-width:0.5;" width="86.334" x="512.19" y="299.2169"/><ellipse cx="529.3596" cy="315.2169" fill="#ADD1B2" rx="11" ry="11" style="stroke:#181818;stroke-width:1.0;"/><path d="M532.3283,320.8575 Q531.7502,321.1544 531.1096,321.295 Q530.469,321.4513 529.7658,321.4513 Q527.2658,321.4513 525.9377,319.8106 Q524.6252,318.1544 524.6252,315.0294 Q524.6252,311.9044 525.9377,310.2481 Q527.2658,308.5919 529.7658,308.5919 Q530.469,308.5919 531.1096,308.7481 Q531.7658,308.9044 532.3283,309.2013 L532.3283,311.92 Q531.7033,311.3419 531.1096,311.0763 Q530.5158,310.795 529.8908,310.795 Q528.5471,310.795 527.8596,311.8731 Q527.1721,312.9356 527.1721,315.0294 Q527.1721,317.1231 527.8596,318.2013 Q528.5471,319.2638 529.8908,319.2638 Q530.5158,319.2638 531.1096,318.9981 Q531.7033,318.7169 532.3283,318.1388 L532.3283,320.8575 Z " fill="#000000"/><text fill="#000000" font-family="sans-serif" font-size="14" lengthAdjust="spacing" textLength="49.5127" x="543.8417" y="320.0636">Builder</text><line style="stroke:#181818;stroke-width:0.5;" x1="513.19" x2="597.524" y1="331.2169" y2="331.2169"/><line style="stroke:#181818;stroke-width:0.5;" x1="513.19" x2="597.524" y1="339.2169" y2="339.2169"/><text fill="#000000" font-family="sans-serif" font-size="14" lengthAdjust="spacing" textLength="74.334" x="518.19" y="356.212">BuildPart()</text></g><!--class ConcreteBuilder--><g id="elem_ConcreteBuilder"><rect codeLine="10" fill="#F1F1F1" height="80.5938" id="ConcreteBuilder" rx="2.5" ry="2.5" style="stroke:#181818;stroke-width:0.5;" width="144.8955" x="482.91" y="427.3669"/><ellipse cx="497.91" cy="443.3669" fill="#ADD1B2" rx="11" ry="11" style="stroke:#181818;stroke-width:1.0;"/><path d="M500.8788,449.0075 Q500.3006,449.3044 499.66,449.445 Q499.0194,449.6013 498.3163,449.6013 Q495.8163,449.6013 494.4881,447.9606 Q493.1756,446.3044 493.1756,443.1794 Q493.1756,440.0544 494.4881,438.3981 Q495.8163,436.7419 498.3163,436.7419 Q499.0194,436.7419 499.66,436.8981 Q500.3163,437.0544 500.8788,437.3513 L500.8788,440.07 Q500.2538,439.4919 499.66,439.2263 Q499.0663,438.945 498.4413,438.945 Q497.0975,438.945 496.41,440.0231 Q495.7225,441.0856 495.7225,443.1794 Q495.7225,445.2731 496.41,446.3513 Q497.0975,447.4138 498.4413,447.4138 Q499.0663,447.4138 499.66,447.1481 Q500.2538,446.8669 500.8788,446.2888 L500.8788,449.0075 Z " fill="#000000"/><text fill="#000000" font-family="sans-serif" font-size="14" lengthAdjust="spacing" textLength="112.8955" x="511.91" y="448.2136">ConcreteBuilder</text><line style="stroke:#181818;stroke-width:0.5;" x1="483.91" x2="626.8055" y1="459.3669" y2="459.3669"/><line style="stroke:#181818;stroke-width:0.5;" x1="483.91" x2="626.8055" y1="467.3669" y2="467.3669"/><text fill="#000000" font-family="sans-serif" font-size="14" lengthAdjust="spacing" textLength="74.334" x="488.91" y="484.362">BuildPart()</text><text fill="#000000" font-family="sans-serif" font-size="14" lengthAdjust="spacing" textLength="79.7617" x="488.91" y="500.6589">GetResult()</text></g><!--entity Product--><g id="elem_Product"><rect fill="#F1F1F1" height="36.2969" rx="2.5" ry="2.5" style="stroke:#181818;stroke-width:0.5;" width="73.71" x="774.51" y="449.5069"/><text fill="#000000" font-family="sans-serif" font-size="14" lengthAdjust="spacing" textLength="53.71" x="784.51" y="472.502">Product</text></g><g id="elem_nDirectorConstruct"><path d="M89.08,447.5269 L89.08,487.7925 A0,0 0 0 0 89.08,487.7925 L277.6391,487.7925 A0,0 0 0 0 277.6391,487.7925 L277.6391,457.5269 L267.6391,447.5269 L187.36,447.5269 L183.36,359.3569 L179.36,447.5269 L89.08,447.5269 A0,0 0 0 0 89.08,447.5269 " fill="#FEFFDD" style="stroke:#181818;stroke-width:0.5;"/><path d="M267.6391,447.5269 L267.6391,457.5269 L277.6391,457.5269 L267.6391,447.5269 " fill="#FEFFDD" style="stroke:#181818;stroke-width:0.5;"/><text fill="#000000" font-family="sans-serif" font-size="13" lengthAdjust="spacing" textLength="167.5591" x="95.08" y="464.5938">for all objects in structure</text><text fill="#000000" font-family="sans-serif" font-size="13" lengthAdjust="spacing" textLength="134.2974" x="111.6093" y="479.7266">builder-&gt;BuildPart();</text></g><g id="elem_nDirector"><path d="M6,81.1369 L6,136.5353 A0,0 0 0 0 6,136.5353 L162.54,136.5353 L166.54,295.6969 L170.54,136.5353 L202.7222,136.5353 A0,0 0 0 0 202.7222,136.5353 L202.7222,91.1369 L192.7222,81.1369 L6,81.1369 A0,0 0 0 0 6,81.1369 " fill="#FEFFDD" style="stroke:#181818;stroke-width:0.5;"/><path d="M192.7222,81.1369 L192.7222,91.1369 L202.7222,91.1369 L192.7222,81.1369 " fill="#FEFFDD" style="stroke:#181818;stroke-width:0.5;"/><text fill="#000000" font-family="sans-serif" font-size="13" font-weight="bold" lengthAdjust="spacing" textLength="59.7378" x="12" y="98.2038">Director</text><text fill="#000000" font-family="sans-serif" font-size="13" lengthAdjust="spacing" textLength="171.5898" x="12" y="113.3366">constructs an object using</text><text fill="#000000" font-family="sans-serif" font-size="13" lengthAdjust="spacing" textLength="137.687" x="12" y="128.4694">the Builder interface.</text></g><g id="elem_nBuilder"><path d="M534.31,73.5669 L534.31,144.0981 A0,0 0 0 0 534.31,144.0981 L562.42,144.0981 L566.42,298.9569 L570.42,144.0981 L756.4101,144.0981 A0,0 0 0 0 756.4101,144.0981 L756.4101,83.5669 L746.4101,73.5669 L534.31,73.5669 A0,0 0 0 0 534.31,73.5669 " fill="#FEFFDD" style="stroke:#181818;stroke-width:0.5;"/><path d="M746.4101,73.5669 L746.4101,83.5669 L756.4101,83.5669 L746.4101,73.5669 " fill="#FEFFDD" style="stroke:#181818;stroke-width:0.5;"/><text fill="#000000" font-family="sans-serif" font-size="13" font-weight="bold" lengthAdjust="spacing" textLength="52.6094" x="540.31" y="90.6338">Builder</text><text fill="#000000" font-family="sans-serif" font-size="13" lengthAdjust="spacing" textLength="196.9678" x="540.31" y="105.7666">specifies an abstract interface</text><text fill="#000000" font-family="sans-serif" font-size="13" lengthAdjust="spacing" textLength="195.9966" x="540.31" y="120.8994">for creating parts of a Product</text><text fill="#000000" font-family="sans-serif" font-size="13" lengthAdjust="spacing" textLength="40.0601" x="540.31" y="136.0322">object</text></g><g id="elem_nConcreteBuilder"><path d="M237.55,43.2969 L237.55,174.3594 A0,0 0 0 0 237.55,174.3594 L487.04,174.3594 L491.04,427.0769 L495.04,174.3594 L499.1643,174.3594 A0,0 0 0 0 499.1643,174.3594 L499.1643,53.2969 L489.1643,43.2969 L237.55,43.2969 A0,0 0 0 0 237.55,43.2969 " fill="#FEFFDD" style="stroke:#181818;stroke-width:0.5;"/><path d="M489.1643,43.2969 L489.1643,53.2969 L499.1643,53.2969 L489.1643,43.2969 " fill="#FEFFDD" style="stroke:#181818;stroke-width:0.5;"/><text fill="#000000" font-family="sans-serif" font-size="13" font-weight="bold" lengthAdjust="spacing" textLength="118.3013" x="243.55" y="60.3638">ConcreteBuilder</text><text fill="#000000" font-family="sans-serif" font-size="13" lengthAdjust="spacing" textLength="215.7314" x="243.55" y="75.4966">- constructs and assembles parts</text><text fill="#000000" font-family="sans-serif" font-size="13" lengthAdjust="spacing" textLength="206.8638" x="251.8146" y="90.6294">of the product by implementing</text><text fill="#000000" font-family="sans-serif" font-size="13" lengthAdjust="spacing" textLength="137.687" x="251.8146" y="105.7622">the Builder interface.</text><text fill="#000000" font-family="sans-serif" font-size="13" lengthAdjust="spacing" textLength="206.8892" x="243.55" y="120.895">- defines and keeps track of the</text><text fill="#000000" font-family="sans-serif" font-size="13" lengthAdjust="spacing" textLength="165.3438" x="251.8146" y="136.0278">representation it creates.</text><text fill="#000000" font-family="sans-serif" font-size="13" lengthAdjust="spacing" textLength="236.4819" x="243.55" y="151.1606">- provides an interface for retrieving</text><text fill="#000000" font-family="sans-serif" font-size="13" lengthAdjust="spacing" textLength="75.7529" x="251.8146" y="166.2935">the product</text></g><g id="elem_nProduct"><path d="M791.63,50.8669 L791.63,166.7966 A0,0 0 0 0 791.63,166.7966 L815.92,166.7966 L819.92,449.0269 L823.92,166.7966 L1053.0919,166.7966 A0,0 0 0 0 1053.0919,166.7966 L1053.0919,60.8669 L1043.0919,50.8669 L791.63,50.8669 A0,0 0 0 0 791.63,50.8669 " fill="#FEFFDD" style="stroke:#181818;stroke-width:0.5;"/><path d="M1043.0919,50.8669 L1043.0919,60.8669 L1053.0919,60.8669 L1043.0919,50.8669 " fill="#FEFFDD" style="stroke:#181818;stroke-width:0.5;"/><text fill="#000000" font-family="sans-serif" font-size="13" font-weight="bold" lengthAdjust="spacing" textLength="57.3511" x="797.63" y="67.9338">Product</text><text fill="#000000" font-family="sans-serif" font-size="13" lengthAdjust="spacing" textLength="211.4404" x="797.63" y="83.0666">- Represents the complex object</text><text fill="#000000" font-family="sans-serif" font-size="13" lengthAdjust="spacing" textLength="127.1816" x="805.8946" y="98.1994">under construction.</text><text fill="#000000" font-family="sans-serif" font-size="13" lengthAdjust="spacing" textLength="214.6777" x="797.63" y="113.3322">- includes classes that define the</text><text fill="#000000" font-family="sans-serif" font-size="13" lengthAdjust="spacing" textLength="178.5278" x="805.8946" y="128.465">constituent parts, including</text><text fill="#000000" font-family="sans-serif" font-size="13" lengthAdjust="spacing" textLength="228.0649" x="805.8946" y="143.5978">interfaces for assembling the parts</text><text fill="#000000" font-family="sans-serif" font-size="13" lengthAdjust="spacing" textLength="127.8354" x="805.8946" y="158.7306">into the final result.</text></g><!--reverse link Builder to ConcreteBuilder--><g id="link_Builder_ConcreteBuilder"><path codeLine="21" d="M555.36,382.0069 C555.36,400.9069 555.36,406.8669 555.36,426.9869 " fill="none" id="Builder-backto-ConcreteBuilder" style="stroke:#181818;stroke-width:1.0;"/><polygon fill="none" points="555.36,364.0069,549.36,382.0069,561.36,382.0069,555.36,364.0069" style="stroke:#181818;stroke-width:1.0;"/></g><!--link Director to Builder--><g id="link_Director_Builder"><path codeLine="23" d="M248.26,331.3669 C322.28,331.3669 437.35,331.3669 505.91,331.3669 " fill="none" id="Director-Builder" style="stroke:#181818;stroke-width:1.0;"/><polygon fill="none" points="236.26,331.3669,242.26,335.3669,248.26,331.3669,242.26,327.3669,236.26,331.3669" style="stroke:#181818;stroke-width:1.0;"/><polygon fill="#181818" points="511.91,331.3669,502.91,327.3669,506.91,331.3669,502.91,335.3669,511.91,331.3669" style="stroke:#181818;stroke-width:1.0;"/><text fill="#000000" font-family="sans-serif" font-size="13" lengthAdjust="spacing" textLength="45.3096" x="237.0824" y="328.3508">builder</text></g><!--link ConcreteBuilder to Product--><g id="link_ConcreteBuilder_Product"><path codeLine="25" d="M628.04,467.6569 C675.63,467.6569 729.87,467.6569 768.03,467.6569 " fill="none" id="ConcreteBuilder-to-Product" style="stroke:#181818;stroke-width:1.0;stroke-dasharray:7.0,7.0;"/><polygon fill="#181818" points="774.03,467.6569,765.03,463.6569,769.03,467.6569,765.03,471.6569,774.03,467.6569" style="stroke:#181818;stroke-width:1.0;"/></g><!--SRC=[TPH9Rjmm44NtF4N1gmI8T82EqOiaSBOD-mGKLMepJP42INb0ahkdE8hTShJZzF-lLwIuKkPrbczIdvcxIBrmosTGKgD_Nn2CzS-6CI-zGlYsIZMYXHFt7gs61sDdhk39srNurI9ZGd7du8UqABonp9ip-cSwyJklP8Ky-cwqiEYnpFvbuHpNP_8wMJEIAcD530vXlujUdpupLi8SakY9spXzetcpl5_zYVuHtQgkDE__TDqktPRaRaXJTs2wOwrf9zuVjogqyGZSWIuYjHO6z4saofK2C_oYLGTIWwjK8N_PjJis5Nrbg4S8wcml3VswzBKRXyFckSyJNUw7uzLOb0CEkCxXO7LqLo2kKs_hfP2QxiJ41VOVH8A-tu8qxeLTDc-7Ra4X9udHcW-KWvDvTO7AZPXp7oBHrQMWPW9UkATDANUJgZQ8GjNkrKotVS_PFfhkhWcDTDxXF2WAdSBatb6cW6h9gOPtaFEYS4RjAyl_qan68qxq9fFB1N5n481SYdIMiBXOT2HBH8m6wHCTT4M68hp8CK7TM0QCL9kL-7AJ9qTkuErkUQ2uUokLPda1cM8xxE2nn7NHJ9X0vQrSj1nZrS6cWgQwIZ5I2xM6OkBl18C8zvbKIoMUbNubezINB_beKso5uT9ZJ8qC6oA6jfkqrSHPyg7Vdus_Z_RMbziNqPIA_m40]--></g></svg>