<svg xmlns="http://www.w3.org/2000/svg" xmlns:xlink="http://www.w3.org/1999/xlink" contentStyleType="text/css" height="512px" preserveAspectRatio="none" style="width:479px;height:512px;background:#FFFFFF;" version="1.1" viewBox="0 0 479 512" width="479px" zoomAndPan="magnify"><defs/><g><text fill="#000000" font-family="sans-serif" font-size="14" font-weight="bold" lengthAdjust="spacing" textLength="311.7461" x="82.9543" y="27.9951">Builder Pattern Structure Collaboration</text><rect fill="#FFFFFF" height="375.9297" style="stroke:#181818;stroke-width:1.0;" width="10" x="31.5547" y="83.5938"/><rect fill="#FFFFFF" height="30" style="stroke:#181818;stroke-width:1.0;" width="10" x="275.0039" y="163.8594"/><rect fill="#FFFFFF" height="177.3984" style="stroke:#181818;stroke-width:1.0;" width="10" x="275.0039" y="222.9922"/><rect fill="#FFFFFF" height="30" style="stroke:#181818;stroke-width:1.0;" width="10" x="396.6108" y="104.7266"/><rect fill="#FFFFFF" height="30" style="stroke:#181818;stroke-width:1.0;" width="10" x="396.6108" y="252.125"/><rect fill="#FFFFFF" height="30" style="stroke:#181818;stroke-width:1.0;" width="10" x="396.6108" y="311.2578"/><rect fill="#FFFFFF" height="30" style="stroke:#181818;stroke-width:1.0;" width="10" x="396.6108" y="370.3906"/><rect fill="#FFFFFF" height="30" style="stroke:#181818;stroke-width:1.0;" width="10" x="396.6108" y="429.5234"/><line style="stroke:#181818;stroke-width:0.5;stroke-dasharray:5.0,5.0;" x1="36" x2="36" y1="73.5938" y2="477.5234"/><line style="stroke:#181818;stroke-width:0.5;stroke-dasharray:5.0,5.0;" x1="279.4409" x2="279.4409" y1="73.5938" y2="477.5234"/><line style="stroke:#181818;stroke-width:0.5;stroke-dasharray:5.0,5.0;" x1="401.5669" x2="401.5669" y1="73.5938" y2="477.5234"/><rect fill="#E2E2F0" height="30.2969" rx="2.5" ry="2.5" style="stroke:#181818;stroke-width:0.5;" width="63.1094" x="5" y="42.2969"/><text fill="#000000" font-family="sans-serif" font-size="14" lengthAdjust="spacing" textLength="49.1094" x="12" y="62.292">aClient</text><rect fill="#E2E2F0" height="30.2969" rx="2.5" ry="2.5" style="stroke:#181818;stroke-width:0.5;" width="63.1094" x="5" y="476.5234"/><text fill="#000000" font-family="sans-serif" font-size="14" lengthAdjust="spacing" textLength="49.1094" x="12" y="496.5186">aClient</text><rect fill="#E2E2F0" height="30.2969" rx="2.5" ry="2.5" style="stroke:#181818;stroke-width:0.5;" width="79.126" x="240.4409" y="42.2969"/><text fill="#000000" font-family="sans-serif" font-size="14" lengthAdjust="spacing" textLength="65.126" x="247.4409" y="62.292">aDirector</text><rect fill="#E2E2F0" height="30.2969" rx="2.5" ry="2.5" style="stroke:#181818;stroke-width:0.5;" width="79.126" x="240.4409" y="476.5234"/><text fill="#000000" font-family="sans-serif" font-size="14" lengthAdjust="spacing" textLength="65.126" x="247.4409" y="496.5186">aDirector</text><rect fill="#E2E2F0" height="30.2969" rx="2.5" ry="2.5" style="stroke:#181818;stroke-width:0.5;" width="144.0879" x="329.5669" y="42.2969"/><text fill="#000000" font-family="sans-serif" font-size="14" lengthAdjust="spacing" textLength="130.0879" x="336.5669" y="62.292">aConcereteBuilder</text><rect fill="#E2E2F0" height="30.2969" rx="2.5" ry="2.5" style="stroke:#181818;stroke-width:0.5;" width="144.0879" x="329.5669" y="476.5234"/><text fill="#000000" font-family="sans-serif" font-size="14" lengthAdjust="spacing" textLength="130.0879" x="336.5669" y="496.5186">aConcereteBuilder</text><rect fill="#FFFFFF" height="375.9297" style="stroke:#181818;stroke-width:1.0;" width="10" x="31.5547" y="83.5938"/><rect fill="#FFFFFF" height="30" style="stroke:#181818;stroke-width:1.0;" width="10" x="275.0039" y="163.8594"/><rect fill="#FFFFFF" height="177.3984" style="stroke:#181818;stroke-width:1.0;" width="10" x="275.0039" y="222.9922"/><rect fill="#FFFFFF" height="30" style="stroke:#181818;stroke-width:1.0;" width="10" x="396.6108" y="104.7266"/><rect fill="#FFFFFF" height="30" style="stroke:#181818;stroke-width:1.0;" width="10" x="396.6108" y="252.125"/><rect fill="#FFFFFF" height="30" style="stroke:#181818;stroke-width:1.0;" width="10" x="396.6108" y="311.2578"/><rect fill="#FFFFFF" height="30" style="stroke:#181818;stroke-width:1.0;" width="10" x="396.6108" y="370.3906"/><rect fill="#FFFFFF" height="30" style="stroke:#181818;stroke-width:1.0;" width="10" x="396.6108" y="429.5234"/><polygon fill="#181818" points="384.6108,100.7266,394.6108,104.7266,384.6108,108.7266,388.6108,104.7266" style="stroke:#181818;stroke-width:1.0;"/><line style="stroke:#181818;stroke-width:1.0;" x1="41.5547" x2="390.6108" y1="104.7266" y2="104.7266"/><text fill="#000000" font-family="sans-serif" font-size="13" lengthAdjust="spacing" textLength="135.8335" x="48.5547" y="99.6606">new ConcreteBuilder</text><polygon fill="#181818" points="263.0039,159.8594,273.0039,163.8594,263.0039,167.8594,267.0039,163.8594" style="stroke:#181818;stroke-width:1.0;"/><line style="stroke:#181818;stroke-width:1.0;" x1="41.5547" x2="269.0039" y1="163.8594" y2="163.8594"/><text fill="#000000" font-family="sans-serif" font-size="13" lengthAdjust="spacing" textLength="214.4492" x="48.5547" y="158.7935">new Director(aConcereteBuilder)</text><polygon fill="#181818" points="263.0039,218.9922,273.0039,222.9922,263.0039,226.9922,267.0039,222.9922" style="stroke:#181818;stroke-width:1.0;"/><line style="stroke:#181818;stroke-width:1.0;" x1="41.5547" x2="269.0039" y1="222.9922" y2="222.9922"/><text fill="#000000" font-family="sans-serif" font-size="13" lengthAdjust="spacing" textLength="73.1123" x="48.5547" y="217.9263">Construct()</text><polygon fill="#181818" points="384.6108,248.125,394.6108,252.125,384.6108,256.125,388.6108,252.125" style="stroke:#181818;stroke-width:1.0;"/><line style="stroke:#181818;stroke-width:1.0;" x1="285.0039" x2="390.6108" y1="252.125" y2="252.125"/><text fill="#000000" font-family="sans-serif" font-size="13" lengthAdjust="spacing" textLength="77.9175" x="292.0039" y="247.0591">BuildPartA()</text><polygon fill="#181818" points="384.6108,307.2578,394.6108,311.2578,384.6108,315.2578,388.6108,311.2578" style="stroke:#181818;stroke-width:1.0;"/><line style="stroke:#181818;stroke-width:1.0;" x1="285.0039" x2="390.6108" y1="311.2578" y2="311.2578"/><text fill="#000000" font-family="sans-serif" font-size="13" lengthAdjust="spacing" textLength="77.9429" x="292.0039" y="306.1919">BuildPartB()</text><polygon fill="#181818" points="384.6108,366.3906,394.6108,370.3906,384.6108,374.3906,388.6108,370.3906" style="stroke:#181818;stroke-width:1.0;"/><line style="stroke:#181818;stroke-width:1.0;" x1="285.0039" x2="390.6108" y1="370.3906" y2="370.3906"/><text fill="#000000" font-family="sans-serif" font-size="13" lengthAdjust="spacing" textLength="78.1016" x="292.0039" y="365.3247">BuildPartC()</text><polygon fill="#181818" points="384.6108,425.5234,394.6108,429.5234,384.6108,433.5234,388.6108,429.5234" style="stroke:#181818;stroke-width:1.0;"/><line style="stroke:#181818;stroke-width:1.0;" x1="41.5547" x2="390.6108" y1="429.5234" y2="429.5234"/><text fill="#000000" font-family="sans-serif" font-size="13" lengthAdjust="spacing" textLength="74.0645" x="48.5547" y="424.4575">GetResult()</text><!--SRC=[dP713i8W343lV4MFy-0FU32HBJ5BF9Zv1SXw826mT4L_No0kiasDyK18AU-r1JPi4MGmjaU2is96Sd1X2fe38TJUMdNrfDXu9yIWY8qsWt8CghO6qpv2VMhdgSOGQlQKaatRBJZlD18oJcMJGGgXD9kROiowk62xZ-Um0uTtI53159UbwB6C9ZJMVR9JDzMgzERbIMqMeXJEJP4TyxjK2qga_DHh5f_Zk8Voshh9jupyWwc_Cnz6oeuZSeTZiFop8ltC0m00]--></g></svg>