<?xml version="1.0" encoding="us-ascii" standalone="no"?><svg xmlns="http://www.w3.org/2000/svg" xmlns:xlink="http://www.w3.org/1999/xlink" contentStyleType="text/css" height="241px" preserveAspectRatio="none" style="width:450px;height:241px;background:#FFFFFF;" version="1.1" viewBox="0 0 450 241" width="450px" zoomAndPan="magnify"><defs/><g><!--entity Window--><g id="elem_Window"><rect fill="#F1F1F1" height="36.2969" rx="2.5" ry="2.5" style="stroke:#181818;stroke-width:0.5;" width="74" x="135.5" y="7"/><text fill="#000000" font-family="sans-serif" font-size="14" lengthAdjust="spacing" textLength="54" x="145.5" y="29.9951">Window</text></g><!--entity XWindow--><g id="elem_XWindow"><rect fill="#F1F1F1" height="36.2969" rx="2.5" ry="2.5" style="stroke:#181818;stroke-width:0.5;" width="83" x="7" y="103.3"/><text fill="#000000" font-family="sans-serif" font-size="14" lengthAdjust="spacing" textLength="63" x="17" y="126.2951">XWindow</text></g><!--entity PMWindow--><g id="elem_PMWindow"><rect fill="#F1F1F1" height="36.2969" rx="2.5" ry="2.5" style="stroke:#181818;stroke-width:0.5;" width="95" x="125" y="103.3"/><text fill="#000000" font-family="sans-serif" font-size="14" lengthAdjust="spacing" textLength="75" x="135" y="126.2951">PMWindow</text></g><!--entity IconWindow--><g id="elem_IconWindow"><rect fill="#F1F1F1" height="36.2969" rx="2.5" ry="2.5" style="stroke:#181818;stroke-width:0.5;" width="103" x="255" y="103.3"/><text fill="#000000" font-family="sans-serif" font-size="14" lengthAdjust="spacing" textLength="83" x="265" y="126.2951">IconWindow</text></g><!--entity XIconWindow--><g id="elem_XIconWindow"><rect fill="#F1F1F1" height="36.2969" rx="2.5" ry="2.5" style="stroke:#181818;stroke-width:0.5;" width="112" x="173.5" y="199.59"/><text fill="#000000" font-family="sans-serif" font-size="14" lengthAdjust="spacing" textLength="92" x="183.5" y="222.5851">XIconWindow</text></g><!--entity PMIconWindow--><g id="elem_PMIconWindow"><rect fill="#F1F1F1" height="36.2969" rx="2.5" ry="2.5" style="stroke:#181818;stroke-width:0.5;" width="124" x="320.5" y="199.59"/><text fill="#000000" font-family="sans-serif" font-size="14" lengthAdjust="spacing" textLength="104" x="330.5" y="222.5851">PMIconWindow</text></g><!--reverse link Window to XWindow--><g id="link_Window_XWindow"><path codeLine="15" d="M117.3,25.15 C80.77,25.15 48.5,25.15 48.5,25.15 C48.5,25.15 48.5,74.89 48.5,102.88 " fill="none" id="Window-backto-XWindow" style="stroke:#181818;stroke-width:1.0;"/><polygon fill="none" points="135.3,25.15,117.3,19.15,117.3,31.15,135.3,25.15" style="stroke:#181818;stroke-width:1.0;"/></g><!--reverse link Window to PMWindow--><g id="link_Window_PMWindow"><path codeLine="16" d="M172.5,61.71 C172.5,78.77 172.5,85.9 172.5,102.93 " fill="none" id="Window-backto-PMWindow" style="stroke:#181818;stroke-width:1.0;"/><polygon fill="none" points="172.5,43.71,166.5,61.71,178.5,61.71,172.5,43.71" style="stroke:#181818;stroke-width:1.0;"/></g><!--reverse link Window to IconWindow--><g id="link_Window_IconWindow"><path codeLine="17" d="M227.83,25.15 C267.48,25.15 306.5,25.15 306.5,25.15 C306.5,25.15 306.5,74.89 306.5,102.88 " fill="none" id="Window-backto-IconWindow" style="stroke:#181818;stroke-width:1.0;"/><polygon fill="none" points="209.83,25.15,227.83,31.15,227.83,19.15,209.83,25.15" style="stroke:#181818;stroke-width:1.0;"/></g><!--reverse link IconWindow to XIconWindow--><g id="link_IconWindow_XIconWindow"><path codeLine="19" d="M270.25,158.01 C270.25,175.06 270.25,182.2 270.25,199.23 " fill="none" id="IconWindow-backto-XIconWindow" style="stroke:#181818;stroke-width:1.0;"/><polygon fill="none" points="270.25,140.01,264.25,158.01,276.25,158.01,270.25,140.01" style="stroke:#181818;stroke-width:1.0;"/></g><!--reverse link IconWindow to PMIconWindow--><g id="link_IconWindow_PMIconWindow"><path codeLine="20" d="M339.25,158.01 C339.25,175.06 339.25,182.2 339.25,199.23 " fill="none" id="IconWindow-backto-PMIconWindow" style="stroke:#181818;stroke-width:1.0;"/><polygon fill="none" points="339.25,140.01,333.25,158.01,345.25,158.01,339.25,140.01" style="stroke:#181818;stroke-width:1.0;"/></g><!--SRC=[ROr13e9034NtSuhkN743Bk32X9rk9r27nj9EXYP8uk4DaK0LL_rzl_q_Ckiqq9CaXV51acE90p09sfmHilAyBFyyBTPhE37U3KoXKEeDEYhO6gc4i8WeYH6k99rE3jmEfBaSqBbLMQ5_TTY_- -lFXFfLLLkLPrkPXpvWrsk8Ct-zh-et]--></g></svg>