<?xml version="1.0" encoding="us-ascii" standalone="no"?><svg xmlns="http://www.w3.org/2000/svg" xmlns:xlink="http://www.w3.org/1999/xlink" contentStyleType="text/css" height="398px" preserveAspectRatio="none" style="width:925px;height:398px;background:#FFFFFF;" version="1.1" viewBox="0 0 925 398" width="925px" zoomAndPan="magnify"><defs/><g><text fill="#000000" font-family="sans-serif" font-size="14" font-weight="bold" lengthAdjust="spacing" textLength="110" x="400.5" y="22.9951">Bridge Design</text><!--cluster bridge--><g id="cluster_bridge"><rect fill="none" height="139" rx="2.5" ry="2.5" style="stroke:#181818;stroke-width:1.0;" width="538" x="202" y="130.2969"/><text fill="#000000" font-family="sans-serif" font-size="14" font-weight="bold" lengthAdjust="spacing" textLength="51" x="445.5" y="145.292">bridge</text></g><!--class Window--><g id="elem_Window"><rect codeLine="10" fill="#F1F1F1" height="80.5938" id="Window" rx="2.5" ry="2.5" style="stroke:#181818;stroke-width:0.5;" width="89" x="226" y="169.2969"/><ellipse cx="242.35" cy="185.2969" fill="#ADD1B2" rx="11" ry="11" style="stroke:#181818;stroke-width:1.0;"/><path d="M245.3188,190.9375 Q244.7406,191.2344 244.1,191.375 Q243.4594,191.5313 242.7563,191.5313 Q240.2563,191.5313 238.9281,189.8906 Q237.6156,188.2344 237.6156,185.1094 Q237.6156,181.9844 238.9281,180.3281 Q240.2563,178.6719 242.7563,178.6719 Q243.4594,178.6719 244.1,178.8281 Q244.7563,178.9844 245.3188,179.2813 L245.3188,182 Q244.6938,181.4219 244.1,181.1563 Q243.5063,180.875 242.8813,180.875 Q241.5375,180.875 240.85,181.9531 Q240.1625,183.0156 240.1625,185.1094 Q240.1625,187.2031 240.85,188.2813 Q241.5375,189.3438 242.8813,189.3438 Q243.5063,189.3438 244.1,189.0781 Q244.6938,188.7969 245.3188,188.2188 L245.3188,190.9375 Z " fill="#000000"/><text fill="#000000" font-family="sans-serif" font-size="14" lengthAdjust="spacing" textLength="54" x="256.65" y="190.1436">Window</text><line style="stroke:#181818;stroke-width:0.5;" x1="227" x2="314" y1="201.2969" y2="201.2969"/><line style="stroke:#181818;stroke-width:0.5;" x1="227" x2="314" y1="209.2969" y2="209.2969"/><text fill="#000000" font-family="sans-serif" font-size="14" lengthAdjust="spacing" textLength="75" x="232" y="226.292">DrawText()</text><text fill="#000000" font-family="sans-serif" font-size="14" lengthAdjust="spacing" textLength="77" x="232" y="242.5889">DrawRect()</text></g><!--class WindowImp--><g id="elem_WindowImp"><rect codeLine="11" fill="#F1F1F1" height="80.5938" id="WindowImp" rx="2.5" ry="2.5" style="stroke:#181818;stroke-width:0.5;" width="114" x="610" y="169.0069"/><ellipse cx="626.35" cy="185.0069" fill="#ADD1B2" rx="11" ry="11" style="stroke:#181818;stroke-width:1.0;"/><path d="M629.3188,190.6475 Q628.7406,190.9444 628.1,191.085 Q627.4594,191.2412 626.7563,191.2412 Q624.2563,191.2412 622.9281,189.6006 Q621.6156,187.9444 621.6156,184.8194 Q621.6156,181.6944 622.9281,180.0381 Q624.2563,178.3819 626.7563,178.3819 Q627.4594,178.3819 628.1,178.5381 Q628.7563,178.6944 629.3188,178.9912 L629.3188,181.71 Q628.6938,181.1319 628.1,180.8662 Q627.5063,180.585 626.8813,180.585 Q625.5375,180.585 624.85,181.6631 Q624.1625,182.7256 624.1625,184.8194 Q624.1625,186.9131 624.85,187.9912 Q625.5375,189.0537 626.8813,189.0537 Q627.5063,189.0537 628.1,188.7881 Q628.6938,188.5069 629.3188,187.9287 L629.3188,190.6475 Z " fill="#000000"/><text fill="#000000" font-family="sans-serif" font-size="14" lengthAdjust="spacing" textLength="79" x="640.65" y="189.8536">WindowImp</text><line style="stroke:#181818;stroke-width:0.5;" x1="611" x2="723" y1="201.0069" y2="201.0069"/><line style="stroke:#181818;stroke-width:0.5;" x1="611" x2="723" y1="209.0069" y2="209.0069"/><text fill="#000000" font-family="sans-serif" font-size="14" lengthAdjust="spacing" textLength="102" x="616" y="226.002">DevDrawText()</text><text fill="#000000" font-family="sans-serif" font-size="14" lengthAdjust="spacing" textLength="100" x="616" y="242.2989">DevDrawLine()</text></g><!--class IconWindow--><g id="elem_IconWindow"><rect codeLine="15" fill="#F1F1F1" height="64.2969" id="IconWindow" rx="2.5" ry="2.5" style="stroke:#181818;stroke-width:0.5;" width="115" x="409" y="44.2969"/><ellipse cx="424" cy="60.2969" fill="#ADD1B2" rx="11" ry="11" style="stroke:#181818;stroke-width:1.0;"/><path d="M426.9688,65.9375 Q426.3906,66.2344 425.75,66.375 Q425.1094,66.5313 424.4063,66.5313 Q421.9063,66.5313 420.5781,64.8906 Q419.2656,63.2344 419.2656,60.1094 Q419.2656,56.9844 420.5781,55.3281 Q421.9063,53.6719 424.4063,53.6719 Q425.1094,53.6719 425.75,53.8281 Q426.4063,53.9844 426.9688,54.2813 L426.9688,57 Q426.3438,56.4219 425.75,56.1563 Q425.1563,55.875 424.5313,55.875 Q423.1875,55.875 422.5,56.9531 Q421.8125,58.0156 421.8125,60.1094 Q421.8125,62.2031 422.5,63.2813 Q423.1875,64.3438 424.5313,64.3438 Q425.1563,64.3438 425.75,64.0781 Q426.3438,63.7969 426.9688,63.2188 L426.9688,65.9375 Z " fill="#000000"/><text fill="#000000" font-family="sans-serif" font-size="14" lengthAdjust="spacing" textLength="83" x="438" y="65.1436">IconWindow</text><line style="stroke:#181818;stroke-width:0.5;" x1="410" x2="523" y1="76.2969" y2="76.2969"/><line style="stroke:#181818;stroke-width:0.5;" x1="410" x2="523" y1="84.2969" y2="84.2969"/><text fill="#000000" font-family="sans-serif" font-size="14" lengthAdjust="spacing" textLength="92" x="415" y="101.292">DrawBorder()</text></g><!--class TransientWindow--><g id="elem_TransientWindow"><rect codeLine="16" fill="#F1F1F1" height="64.2969" id="TransientWindow" rx="2.5" ry="2.5" style="stroke:#181818;stroke-width:0.5;" width="151" x="391" y="289.2969"/><ellipse cx="406" cy="305.2969" fill="#ADD1B2" rx="11" ry="11" style="stroke:#181818;stroke-width:1.0;"/><path d="M408.9688,310.9375 Q408.3906,311.2344 407.75,311.375 Q407.1094,311.5313 406.4063,311.5313 Q403.9063,311.5313 402.5781,309.8906 Q401.2656,308.2344 401.2656,305.1094 Q401.2656,301.9844 402.5781,300.3281 Q403.9063,298.6719 406.4063,298.6719 Q407.1094,298.6719 407.75,298.8281 Q408.4063,298.9844 408.9688,299.2813 L408.9688,302 Q408.3438,301.4219 407.75,301.1563 Q407.1563,300.875 406.5313,300.875 Q405.1875,300.875 404.5,301.9531 Q403.8125,303.0156 403.8125,305.1094 Q403.8125,307.2031 404.5,308.2813 Q405.1875,309.3438 406.5313,309.3438 Q407.1563,309.3438 407.75,309.0781 Q408.3438,308.7969 408.9688,308.2188 L408.9688,310.9375 Z " fill="#000000"/><text fill="#000000" font-family="sans-serif" font-size="14" lengthAdjust="spacing" textLength="119" x="420" y="310.1436">TransientWindow</text><line style="stroke:#181818;stroke-width:0.5;" x1="392" x2="541" y1="321.2969" y2="321.2969"/><line style="stroke:#181818;stroke-width:0.5;" x1="392" x2="541" y1="329.2969" y2="329.2969"/><text fill="#000000" font-family="sans-serif" font-size="14" lengthAdjust="spacing" textLength="110" x="397" y="346.292">DrawCloseBox()</text></g><!--class XWindowImp--><g id="elem_XWindowImp"><rect codeLine="18" fill="#F1F1F1" height="80.5938" id="XWindowImp" rx="2.5" ry="2.5" style="stroke:#181818;stroke-width:0.5;" width="120" x="792" y="278.2969"/><ellipse cx="807" cy="294.2969" fill="#ADD1B2" rx="11" ry="11" style="stroke:#181818;stroke-width:1.0;"/><path d="M809.9688,299.9375 Q809.3906,300.2344 808.75,300.375 Q808.1094,300.5313 807.4063,300.5313 Q804.9063,300.5313 803.5781,298.8906 Q802.2656,297.2344 802.2656,294.1094 Q802.2656,290.9844 803.5781,289.3281 Q804.9063,287.6719 807.4063,287.6719 Q808.1094,287.6719 808.75,287.8281 Q809.4063,287.9844 809.9688,288.2813 L809.9688,291 Q809.3438,290.4219 808.75,290.1563 Q808.1563,289.875 807.5313,289.875 Q806.1875,289.875 805.5,290.9531 Q804.8125,292.0156 804.8125,294.1094 Q804.8125,296.2031 805.5,297.2813 Q806.1875,298.3438 807.5313,298.3438 Q808.1563,298.3438 808.75,298.0781 Q809.3438,297.7969 809.9688,297.2188 L809.9688,299.9375 Z " fill="#000000"/><text fill="#000000" font-family="sans-serif" font-size="14" lengthAdjust="spacing" textLength="88" x="821" y="299.1436">XWindowImp</text><line style="stroke:#181818;stroke-width:0.5;" x1="793" x2="911" y1="310.2969" y2="310.2969"/><line style="stroke:#181818;stroke-width:0.5;" x1="793" x2="911" y1="318.2969" y2="318.2969"/><text fill="#000000" font-family="sans-serif" font-size="14" lengthAdjust="spacing" textLength="102" x="798" y="335.292">DevDrawText()</text><text fill="#000000" font-family="sans-serif" font-size="14" lengthAdjust="spacing" textLength="100" x="798" y="351.5889">DevDrawLine()</text></g><!--class PMWindowImp--><g id="elem_PMWindowImp"><rect codeLine="19" fill="#F1F1F1" height="80.5938" id="PMWindowImp" rx="2.5" ry="2.5" style="stroke:#181818;stroke-width:0.5;" width="132" x="786" y="159.0069"/><ellipse cx="801" cy="175.0069" fill="#ADD1B2" rx="11" ry="11" style="stroke:#181818;stroke-width:1.0;"/><path d="M803.9688,180.6475 Q803.3906,180.9444 802.75,181.085 Q802.1094,181.2412 801.4063,181.2412 Q798.9063,181.2412 797.5781,179.6006 Q796.2656,177.9444 796.2656,174.8194 Q796.2656,171.6944 797.5781,170.0381 Q798.9063,168.3819 801.4063,168.3819 Q802.1094,168.3819 802.75,168.5381 Q803.4063,168.6944 803.9688,168.9912 L803.9688,171.71 Q803.3438,171.1319 802.75,170.8662 Q802.1563,170.585 801.5313,170.585 Q800.1875,170.585 799.5,171.6631 Q798.8125,172.7256 798.8125,174.8194 Q798.8125,176.9131 799.5,177.9912 Q800.1875,179.0537 801.5313,179.0537 Q802.1563,179.0537 802.75,178.7881 Q803.3438,178.5069 803.9688,177.9287 L803.9688,180.6475 Z " fill="#000000"/><text fill="#000000" font-family="sans-serif" font-size="14" lengthAdjust="spacing" textLength="100" x="815" y="179.8536">PMWindowImp</text><line style="stroke:#181818;stroke-width:0.5;" x1="787" x2="917" y1="191.0069" y2="191.0069"/><line style="stroke:#181818;stroke-width:0.5;" x1="787" x2="917" y1="199.0069" y2="199.0069"/><text fill="#000000" font-family="sans-serif" font-size="14" lengthAdjust="spacing" textLength="100" x="792" y="216.002">DevDrawLine()</text><text fill="#000000" font-family="sans-serif" font-size="14" lengthAdjust="spacing" textLength="102" x="792" y="232.2989">DevDrawText()</text></g><g id="elem_nWindowDrawRect"><path d="M6,202.0369 L6,272.5681 A0,0 0 0 0 6,272.5681 L158,272.5681 A0,0 0 0 0 158,272.5681 L158,231.6669 L270.46,227.6669 L158,223.6669 L158,212.0369 L148,202.0369 L6,202.0369 A0,0 0 0 0 6,202.0369 " fill="#FEFFDD" style="stroke:#181818;stroke-width:0.5;"/><path d="M148,202.0369 L148,212.0369 L158,212.0369 L148,202.0369 " fill="#FEFFDD" style="stroke:#181818;stroke-width:0.5;"/><text fill="#000000" font-family="sans-serif" font-size="13" lengthAdjust="spacing" textLength="131" x="12" y="219.1038">imp-&gt;devDrawLine()</text><text fill="#000000" font-family="sans-serif" font-size="13" lengthAdjust="spacing" textLength="131" x="12" y="234.2366">imp-&gt;devDrawLine()</text><text fill="#000000" font-family="sans-serif" font-size="13" lengthAdjust="spacing" textLength="131" x="12" y="249.3694">imp-&gt;devDrawLine()</text><text fill="#000000" font-family="sans-serif" font-size="13" lengthAdjust="spacing" textLength="131" x="12" y="264.5022">imp-&gt;devDrawLine()</text></g><g id="elem_nIconWindowDrawBorder"><path d="M225,74.1669 L225,114.4325 A0,0 0 0 0 225,114.4325 L316,114.4325 A0,0 0 0 0 316,114.4325 L316,97.2369 L409.26,93.2369 L316,89.2369 L316,84.1669 L306,74.1669 L225,74.1669 A0,0 0 0 0 225,74.1669 " fill="#FEFFDD" style="stroke:#181818;stroke-width:0.5;"/><path d="M306,74.1669 L306,84.1669 L316,84.1669 L306,74.1669 " fill="#FEFFDD" style="stroke:#181818;stroke-width:0.5;"/><text fill="#000000" font-family="sans-serif" font-size="13" lengthAdjust="spacing" textLength="70" x="231" y="91.2338">DrawRect()</text><text fill="#000000" font-family="sans-serif" font-size="13" lengthAdjust="spacing" textLength="69" x="231" y="106.3666">DrawText()</text></g><g id="elem_nTransientWindowDrawCloseBox"><path d="M225,328.7369 L225,353.8697 A0,0 0 0 0 225,353.8697 L316,353.8697 A0,0 0 0 0 316,353.8697 L316,346.7369 L391.31,341.2969 L316,338.7369 L316,338.7369 L306,328.7369 L225,328.7369 A0,0 0 0 0 225,328.7369 " fill="#FEFFDD" style="stroke:#181818;stroke-width:0.5;"/><path d="M306,328.7369 L306,338.7369 L316,338.7369 L306,328.7369 " fill="#FEFFDD" style="stroke:#181818;stroke-width:0.5;"/><text fill="#000000" font-family="sans-serif" font-size="13" lengthAdjust="spacing" textLength="70" x="231" y="345.8038">DrawRect()</text></g><g id="elem_nXWindowImpDevDrawText"><path d="M612.5,306.7369 L612.5,331.8697 A0,0 0 0 0 612.5,331.8697 L721.5,331.8697 A0,0 0 0 0 721.5,331.8697 L721.5,324.7369 L851.94,319.2969 L721.5,316.7369 L721.5,316.7369 L711.5,306.7369 L612.5,306.7369 A0,0 0 0 0 612.5,306.7369 " fill="#FEFFDD" style="stroke:#181818;stroke-width:0.5;"/><path d="M711.5,306.7369 L711.5,316.7369 L721.5,316.7369 L711.5,306.7369 " fill="#FEFFDD" style="stroke:#181818;stroke-width:0.5;"/><text fill="#000000" font-family="sans-serif" font-size="13" lengthAdjust="spacing" textLength="88" x="618.5" y="323.8038">XDrawString()</text></g><g id="elem_nXWindowImpDevDrawLine"><path d="M612.5,366.7369 L612.5,391.8697 L721.5,391.8697 L721.5,376.7369 L711.5,366.7369 L612.5,366.7369 " fill="#FEFFDD" style="stroke:#181818;stroke-width:0.5;"/><path d="M711.5,366.7369 L711.5,376.7369 L721.5,376.7369 L711.5,366.7369 " fill="#FEFFDD" style="stroke:#181818;stroke-width:1.0;"/><text fill="#000000" font-family="sans-serif" font-size="13" lengthAdjust="spacing" textLength="88" x="618.5" y="383.8038">XDrawString()</text></g><!--reverse link Window to IconWindow--><g id="link_Window_IconWindow"><path codeLine="37" d="M340.77,189.1569 C398.83,189.1569 466.5,189.1569 466.5,189.1569 C466.5,189.1569 466.5,145.0669 466.5,112.0069 " fill="none" id="Window-backto-IconWindow" style="stroke:#181818;stroke-width:1.0;"/><polygon fill="none" points="322.77,189.1569,340.77,195.1569,340.77,183.1569,322.77,189.1569" style="stroke:#181818;stroke-width:1.0;"/></g><!--reverse link Window to TransientWindow--><g id="link_Window_TransientWindow"><path codeLine="38" d="M340.73,229.4469 C373.66,229.4469 392,229.4469 392,229.4469 C392,229.4469 392,259.7369 392,285.5269 " fill="none" id="Window-backto-TransientWindow" style="stroke:#181818;stroke-width:1.0;"/><polygon fill="none" points="322.73,229.4469,340.73,235.4469,340.73,223.4469,322.73,229.4469" style="stroke:#181818;stroke-width:1.0;"/></g><!--reverse link WindowImp to XWindowImp--><g id="link_WindowImp_XWindowImp"><path codeLine="40" d="M667,267.9069 C667,283.5769 667,279.7969 667,279.7969 C667,279.7969 731.36,279.7969 784.16,279.7969 " fill="none" id="WindowImp-backto-XWindowImp" style="stroke:#181818;stroke-width:1.0;"/><polygon fill="none" points="667,249.9069,661,267.9069,673,267.9069,667,249.9069" style="stroke:#181818;stroke-width:1.0;"/></g><!--reverse link WindowImp to PMWindowImp--><g id="link_WindowImp_PMWindowImp"><path codeLine="41" d="M742.27,204.2969 C761.69,204.2969 765.54,204.2969 785.61,204.2969 " fill="none" id="WindowImp-backto-PMWindowImp" style="stroke:#181818;stroke-width:1.0;"/><polygon fill="none" points="724.27,204.2969,742.27,210.2969,742.27,198.2969,724.27,204.2969" style="stroke:#181818;stroke-width:1.0;"/></g><!--link Window to WindowImp--><g id="link_Window_WindowImp"><path codeLine="43" d="M334.74,209.2969 C409.08,209.2969 526.87,209.2969 603.82,209.2969 " fill="none" id="Window-WindowImp" style="stroke:#181818;stroke-width:1.0;stroke-dasharray:7.0,7.0;"/><polygon fill="none" points="322.74,209.2969,328.74,213.2969,334.74,209.2969,328.74,205.2969,322.74,209.2969" style="stroke:#181818;stroke-width:1.0;"/><polygon fill="#181818" points="609.82,209.2969,600.82,205.2969,604.82,209.2969,600.82,213.2969,609.82,209.2969" style="stroke:#181818;stroke-width:1.0;"/><text fill="#000000" font-family="sans-serif" font-size="13" lengthAdjust="spacing" textLength="24" x="323.0411" y="221.3978">imp</text></g><!--link nXWindowImpDevDrawLine to XWindowImp--><g id="link_nXWindowImpDevDrawLine_XWindowImp"><path codeLine="72" d="M667,366.3769 C667,356.5069 667,344.5869 667,344.5869 C667,344.5869 738.14,344.5869 792.19,344.5869 " fill="none" id="nXWindowImpDevDrawLine-XWindowImp" style="stroke:#181818;stroke-width:1.0;stroke-dasharray:7.0,7.0;"/></g><!--SRC=[hPHDImCn48Rl-HL3B-gX-mEAz51xAIY85jnhxCPjC9iiIR0jwdytN-raFreek8TbyxwPUIOpOIstWi52ywfci6I6rv8GAeJQDNpFPKtC9vSjrRG1mIMpXvQ1qdQhoCs8qofny0iYs8S5gq3pUckXuffjB5SkjV-WidRCzyZy9k2UZQ36m1kNbTeDX5NJ1kqtl0c9tcgZP0g8mbfJQJYJDgb9BZ5959wVK27n4sQmr7ItPdjxUzVLNbp1JYEd6A-phy7sZlFeUk23iCQKRQ5qnRItUjKc_q4emnPgxtUKvv7b1MPsl84vwgMSnsFV_qodUNDpUT1YJ1VyhDSzPwpf4zwq4r15KSopIHEfB0Dg81Lm748OlekOpglEcVv5Ph82poKzA1H5AcqsEnM25MARSBW1aTsSupAr6KbZmPw7UcIcj4ZjJI6_DtquqYu4UMZFZkHJLcJZXBFR4wYbNxrQxNuQ7V1eX4UYuMXPiWimFwthO3xY32ma-mC0]--></g></svg>