<?xml version="1.0" encoding="us-ascii" standalone="no"?><svg xmlns="http://www.w3.org/2000/svg" xmlns:xlink="http://www.w3.org/1999/xlink" contentStyleType="text/css" height="1060px" preserveAspectRatio="none" style="width:1267px;height:1060px;background:#FFFFFF;" version="1.1" viewBox="0 0 1267 1060" width="1267px" zoomAndPan="magnify"><defs/><g><text fill="#000000" font-family="sans-serif" font-size="14" font-weight="bold" lengthAdjust="spacing" textLength="159" x="547" y="22.9951">Bridge Sample Code</text><!--class Window--><g id="elem_Window"><rect codeLine="7" fill="#F1F1F1" height="341.3438" id="Window" rx="2.5" ry="2.5" style="stroke:#181818;stroke-width:0.5;" width="259" x="205" y="243.2469"/><ellipse cx="302.75" cy="259.2469" fill="#A9DCDF" rx="11" ry="11" style="stroke:#181818;stroke-width:1.0;"/><path d="M302.8594,254.5906 L301.7031,259.6688 L304.0313,259.6688 L302.8594,254.5906 Z M301.375,252.3563 L304.3594,252.3563 L307.7188,264.7469 L305.2656,264.7469 L304.5,261.6844 L301.2188,261.6844 L300.4688,264.7469 L298.0313,264.7469 L301.375,252.3563 Z " fill="#000000"/><text fill="#000000" font-family="sans-serif" font-size="14" font-style="italic" lengthAdjust="spacing" textLength="55" x="323.25" y="264.0936">Window</text><line style="stroke:#181818;stroke-width:0.5;" x1="206" x2="463" y1="275.2469" y2="275.2469"/><rect fill="none" height="6" style="stroke:#C82930;stroke-width:1.0;" width="6" x="213" y="285.8953"/><text fill="#000000" font-family="sans-serif" font-size="14" lengthAdjust="spacing" textLength="199" x="225" y="292.242">implementation : WindowImp</text><rect fill="none" height="6" style="stroke:#C82930;stroke-width:1.0;" width="6" x="213" y="302.1922"/><text fill="#000000" font-family="sans-serif" font-size="14" lengthAdjust="spacing" textLength="107" x="225" y="308.5389">contents : View</text><line style="stroke:#181818;stroke-width:0.5;" x1="206" x2="463" y1="315.8406" y2="315.8406"/><ellipse cx="216" cy="329.4891" fill="#84BE84" rx="3" ry="3" style="stroke:#038048;stroke-width:1.0;"/><text fill="#000000" font-family="sans-serif" font-size="14" lengthAdjust="spacing" textLength="96" x="225" y="332.8357">Window(View)</text><ellipse cx="216" cy="345.7859" fill="#84BE84" rx="3" ry="3" style="stroke:#038048;stroke-width:1.0;"/><text fill="#000000" font-family="sans-serif" font-size="14" lengthAdjust="spacing" textLength="148" x="225" y="349.1326">drawContents() : void</text><ellipse cx="216" cy="362.0828" fill="#84BE84" rx="3" ry="3" style="stroke:#038048;stroke-width:1.0;"/><text fill="#000000" font-family="sans-serif" font-size="14" lengthAdjust="spacing" textLength="87" x="225" y="365.4295">open() : void</text><ellipse cx="216" cy="378.3797" fill="#84BE84" rx="3" ry="3" style="stroke:#038048;stroke-width:1.0;"/><text fill="#000000" font-family="sans-serif" font-size="14" lengthAdjust="spacing" textLength="88" x="225" y="381.7264">close() : void</text><ellipse cx="216" cy="394.6766" fill="#84BE84" rx="3" ry="3" style="stroke:#038048;stroke-width:1.0;"/><text fill="#000000" font-family="sans-serif" font-size="14" lengthAdjust="spacing" textLength="94" x="225" y="398.0232">iconify() : void</text><ellipse cx="216" cy="410.9734" fill="#84BE84" rx="3" ry="3" style="stroke:#038048;stroke-width:1.0;"/><text fill="#000000" font-family="sans-serif" font-size="14" lengthAdjust="spacing" textLength="112" x="225" y="414.3201">deiconify() : void</text><ellipse cx="216" cy="427.2703" fill="#84BE84" rx="3" ry="3" style="stroke:#038048;stroke-width:1.0;"/><text fill="#000000" font-family="sans-serif" font-size="14" lengthAdjust="spacing" textLength="148" x="225" y="430.617">setOrigin(Point) : void</text><ellipse cx="216" cy="443.5672" fill="#84BE84" rx="3" ry="3" style="stroke:#038048;stroke-width:1.0;"/><text fill="#000000" font-family="sans-serif" font-size="14" lengthAdjust="spacing" textLength="152" x="225" y="446.9139">setExtent(Point) : void</text><ellipse cx="216" cy="459.8641" fill="#84BE84" rx="3" ry="3" style="stroke:#038048;stroke-width:1.0;"/><text fill="#000000" font-family="sans-serif" font-size="14" lengthAdjust="spacing" textLength="84" x="225" y="463.2107">raise() : void</text><ellipse cx="216" cy="476.1609" fill="#84BE84" rx="3" ry="3" style="stroke:#038048;stroke-width:1.0;"/><text fill="#000000" font-family="sans-serif" font-size="14" lengthAdjust="spacing" textLength="88" x="225" y="479.5076">lower() : void</text><ellipse cx="216" cy="492.4578" fill="#84BE84" rx="3" ry="3" style="stroke:#038048;stroke-width:1.0;"/><text fill="#000000" font-family="sans-serif" font-size="14" lengthAdjust="spacing" textLength="186" x="225" y="495.8045">drawLine(Point,Point) : void</text><ellipse cx="216" cy="508.7547" fill="#84BE84" rx="3" ry="3" style="stroke:#038048;stroke-width:1.0;"/><text fill="#000000" font-family="sans-serif" font-size="14" lengthAdjust="spacing" textLength="194" x="225" y="512.1014">drawRect(Point, Point) : void</text><ellipse cx="216" cy="525.0516" fill="#84BE84" rx="3" ry="3" style="stroke:#038048;stroke-width:1.0;"/><text fill="#000000" font-family="sans-serif" font-size="14" lengthAdjust="spacing" textLength="233" x="225" y="528.3982">drawPolygon(Point[3..*], int) : void</text><ellipse cx="216" cy="541.3484" fill="#84BE84" rx="3" ry="3" style="stroke:#038048;stroke-width:1.0;"/><text fill="#000000" font-family="sans-serif" font-size="14" lengthAdjust="spacing" textLength="197" x="225" y="544.6951">drawText(String, Point) : void</text><polygon fill="#FFFF44" points="216,552.6453,220,556.6453,216,560.6453,212,556.6453" style="stroke:#B38D22;stroke-width:1.0;"/><text fill="#000000" font-family="sans-serif" font-size="14" lengthAdjust="spacing" textLength="204" x="225" y="560.992">getWindowImp() : WindowImp</text><polygon fill="#FFFF44" points="216,568.9422,220,572.9422,216,576.9422,212,572.9422" style="stroke:#B38D22;stroke-width:1.0;"/><text fill="#000000" font-family="sans-serif" font-size="14" lengthAdjust="spacing" textLength="110" x="225" y="577.2889">getView() : View</text></g><!--class WindowApplication--><g id="elem_WindowApplication"><rect codeLine="8" fill="#F1F1F1" height="96.8906" id="WindowApplication" rx="2.5" ry="2.5" style="stroke:#181818;stroke-width:0.5;" width="197" x="600.5" y="44.2969"/><ellipse cx="631.7" cy="60.2969" fill="#ADD1B2" rx="11" ry="11" style="stroke:#181818;stroke-width:1.0;"/><path d="M634.6688,65.9375 Q634.0906,66.2344 633.45,66.375 Q632.8094,66.5313 632.1063,66.5313 Q629.6063,66.5313 628.2781,64.8906 Q626.9656,63.2344 626.9656,60.1094 Q626.9656,56.9844 628.2781,55.3281 Q629.6063,53.6719 632.1063,53.6719 Q632.8094,53.6719 633.45,53.8281 Q634.1063,53.9844 634.6688,54.2813 L634.6688,57 Q634.0438,56.4219 633.45,56.1563 Q632.8563,55.875 632.2313,55.875 Q630.8875,55.875 630.2,56.9531 Q629.5125,58.0156 629.5125,60.1094 Q629.5125,62.2031 630.2,63.2813 Q630.8875,64.3438 632.2313,64.3438 Q632.8563,64.3438 633.45,64.0781 Q634.0438,63.7969 634.6688,63.2188 L634.6688,65.9375 Z " fill="#000000"/><text fill="#000000" font-family="sans-serif" font-size="14" lengthAdjust="spacing" textLength="129" x="649.3" y="65.1436">WindowApplication</text><line style="stroke:#181818;stroke-width:0.5;" x1="601.5" x2="796.5" y1="76.2969" y2="76.2969"/><line style="stroke:#181818;stroke-width:0.5;" x1="601.5" x2="796.5" y1="84.2969" y2="84.2969"/><ellipse cx="611.5" cy="97.9453" fill="#84BE84" rx="3" ry="3" style="stroke:#038048;stroke-width:1.0;"/><text fill="#000000" font-family="sans-serif" font-size="14" lengthAdjust="spacing" textLength="171" x="620.5" y="101.292">WindowApplication(View)</text><ellipse cx="611.5" cy="114.2422" fill="#84BE84" rx="3" ry="3" style="stroke:#038048;stroke-width:1.0;"/><text fill="#000000" font-family="sans-serif" font-size="14" lengthAdjust="spacing" textLength="151" x="620.5" y="117.5889">~WindowApplication()</text><ellipse cx="611.5" cy="130.5391" fill="#84BE84" rx="3" ry="3" style="stroke:#038048;stroke-width:1.0;"/><text fill="#000000" font-family="sans-serif" font-size="14" lengthAdjust="spacing" textLength="148" x="620.5" y="133.8857">drawContents() : void</text></g><!--class WindowImp--><g id="elem_WindowImp"><rect codeLine="10" fill="#F1F1F1" height="194.6719" id="WindowImp" rx="2.5" ry="2.5" style="stroke:#181818;stroke-width:0.5;" width="334" x="532" y="176.4069"/><ellipse cx="654.25" cy="192.4069" fill="#A9DCDF" rx="11" ry="11" style="stroke:#181818;stroke-width:1.0;"/><path d="M654.3594,187.7506 L653.2031,192.8288 L655.5313,192.8288 L654.3594,187.7506 Z M652.875,185.5163 L655.8594,185.5163 L659.2188,197.9069 L656.7656,197.9069 L656,194.8444 L652.7188,194.8444 L651.9688,197.9069 L649.5313,197.9069 L652.875,185.5163 Z " fill="#000000"/><text fill="#000000" font-family="sans-serif" font-size="14" font-style="italic" lengthAdjust="spacing" textLength="81" x="674.75" y="197.2536">WindowImp</text><line style="stroke:#181818;stroke-width:0.5;" x1="533" x2="865" y1="208.4069" y2="208.4069"/><line style="stroke:#181818;stroke-width:0.5;" x1="533" x2="865" y1="216.4069" y2="216.4069"/><polygon fill="#FFFF44" points="543,225.0553,547,229.0553,543,233.0553,539,229.0553" style="stroke:#B38D22;stroke-width:1.0;"/><text fill="#000000" font-family="sans-serif" font-size="14" lengthAdjust="spacing" textLength="89" x="552" y="233.402">WindowImp()</text><polygon fill="#FFFF44" points="543,241.3522,547,245.3522,543,249.3522,539,245.3522" style="stroke:#B38D22;stroke-width:1.0;"/><text fill="#000000" font-family="sans-serif" font-size="14" lengthAdjust="spacing" textLength="101" x="552" y="249.6989">~WindowImp()</text><ellipse cx="543" cy="262.6491" fill="#84BE84" rx="3" ry="3" style="stroke:#038048;stroke-width:1.0;"/><text fill="#000000" font-family="sans-serif" font-size="14" lengthAdjust="spacing" textLength="103" x="552" y="265.9957">impTop() : void</text><ellipse cx="543" cy="278.9459" fill="#84BE84" rx="3" ry="3" style="stroke:#038048;stroke-width:1.0;"/><text fill="#000000" font-family="sans-serif" font-size="14" lengthAdjust="spacing" textLength="127" x="552" y="282.2926">impBottom() : void</text><ellipse cx="543" cy="295.2428" fill="#84BE84" rx="3" ry="3" style="stroke:#038048;stroke-width:1.0;"/><text fill="#000000" font-family="sans-serif" font-size="14" lengthAdjust="spacing" textLength="174" x="552" y="298.5895">impSetOrigin(Point) : void</text><ellipse cx="543" cy="311.5397" fill="#84BE84" rx="3" ry="3" style="stroke:#038048;stroke-width:1.0;"/><text fill="#000000" font-family="sans-serif" font-size="14" lengthAdjust="spacing" textLength="178" x="552" y="314.8864">impSetExtent(Point) : void</text><ellipse cx="543" cy="327.8366" fill="#84BE84" rx="3" ry="3" style="stroke:#038048;stroke-width:1.0;"/><text fill="#000000" font-family="sans-serif" font-size="14" lengthAdjust="spacing" textLength="308" x="552" y="331.1832">deviceRect(Coord,Coord,Coord,Coord) : void</text><ellipse cx="543" cy="344.1334" fill="#84BE84" rx="3" ry="3" style="stroke:#038048;stroke-width:1.0;"/><text fill="#000000" font-family="sans-serif" font-size="14" lengthAdjust="spacing" textLength="258" x="552" y="347.4801">deviceText(String,Coord,Coord) : void</text><ellipse cx="543" cy="360.4303" fill="#84BE84" rx="3" ry="3" style="stroke:#038048;stroke-width:1.0;"/><text fill="#000000" font-family="sans-serif" font-size="14" lengthAdjust="spacing" textLength="276" x="552" y="363.777">deviceBitmap(String,Coord,Coord) : void</text></g><!--class XWindowImp--><g id="elem_XWindowImp"><rect codeLine="11" fill="#F1F1F1" height="194.6719" id="XWindowImp" rx="2.5" ry="2.5" style="stroke:#181818;stroke-width:0.5;" width="334" x="926" y="176.4069"/><ellipse cx="1044.75" cy="192.4069" fill="#ADD1B2" rx="11" ry="11" style="stroke:#181818;stroke-width:1.0;"/><path d="M1047.7188,198.0475 Q1047.1406,198.3444 1046.5,198.485 Q1045.8594,198.6413 1045.1563,198.6413 Q1042.6563,198.6413 1041.3281,197.0006 Q1040.0156,195.3444 1040.0156,192.2194 Q1040.0156,189.0944 1041.3281,187.4381 Q1042.6563,185.7819 1045.1563,185.7819 Q1045.8594,185.7819 1046.5,185.9381 Q1047.1563,186.0944 1047.7188,186.3913 L1047.7188,189.11 Q1047.0938,188.5319 1046.5,188.2663 Q1045.9063,187.985 1045.2813,187.985 Q1043.9375,187.985 1043.25,189.0631 Q1042.5625,190.1256 1042.5625,192.2194 Q1042.5625,194.3131 1043.25,195.3913 Q1043.9375,196.4538 1045.2813,196.4538 Q1045.9063,196.4538 1046.5,196.1881 Q1047.0938,195.9069 1047.7188,195.3288 L1047.7188,198.0475 Z " fill="#000000"/><text fill="#000000" font-family="sans-serif" font-size="14" lengthAdjust="spacing" textLength="88" x="1065.25" y="197.2536">XWindowImp</text><line style="stroke:#181818;stroke-width:0.5;" x1="927" x2="1259" y1="208.4069" y2="208.4069"/><line style="stroke:#181818;stroke-width:0.5;" x1="927" x2="1259" y1="216.4069" y2="216.4069"/><ellipse cx="937" cy="230.0553" fill="#84BE84" rx="3" ry="3" style="stroke:#038048;stroke-width:1.0;"/><text fill="#000000" font-family="sans-serif" font-size="14" lengthAdjust="spacing" textLength="98" x="946" y="233.402">XWindowImp()</text><ellipse cx="937" cy="246.3522" fill="#84BE84" rx="3" ry="3" style="stroke:#038048;stroke-width:1.0;"/><text fill="#000000" font-family="sans-serif" font-size="14" lengthAdjust="spacing" textLength="110" x="946" y="249.6989">~XWindowImp()</text><ellipse cx="937" cy="262.6491" fill="#84BE84" rx="3" ry="3" style="stroke:#038048;stroke-width:1.0;"/><text fill="#000000" font-family="sans-serif" font-size="14" lengthAdjust="spacing" textLength="103" x="946" y="265.9957">impTop() : void</text><ellipse cx="937" cy="278.9459" fill="#84BE84" rx="3" ry="3" style="stroke:#038048;stroke-width:1.0;"/><text fill="#000000" font-family="sans-serif" font-size="14" lengthAdjust="spacing" textLength="127" x="946" y="282.2926">impBottom() : void</text><ellipse cx="937" cy="295.2428" fill="#84BE84" rx="3" ry="3" style="stroke:#038048;stroke-width:1.0;"/><text fill="#000000" font-family="sans-serif" font-size="14" lengthAdjust="spacing" textLength="174" x="946" y="298.5895">impSetOrigin(Point) : void</text><ellipse cx="937" cy="311.5397" fill="#84BE84" rx="3" ry="3" style="stroke:#038048;stroke-width:1.0;"/><text fill="#000000" font-family="sans-serif" font-size="14" lengthAdjust="spacing" textLength="178" x="946" y="314.8864">impSetExtent(Point) : void</text><ellipse cx="937" cy="327.8366" fill="#84BE84" rx="3" ry="3" style="stroke:#038048;stroke-width:1.0;"/><text fill="#000000" font-family="sans-serif" font-size="14" lengthAdjust="spacing" textLength="308" x="946" y="331.1832">deviceRect(Coord,Coord,Coord,Coord) : void</text><ellipse cx="937" cy="344.1334" fill="#84BE84" rx="3" ry="3" style="stroke:#038048;stroke-width:1.0;"/><text fill="#000000" font-family="sans-serif" font-size="14" lengthAdjust="spacing" textLength="258" x="946" y="347.4801">deviceText(String,Coord,Coord) : void</text><ellipse cx="937" cy="360.4303" fill="#84BE84" rx="3" ry="3" style="stroke:#038048;stroke-width:1.0;"/><text fill="#000000" font-family="sans-serif" font-size="14" lengthAdjust="spacing" textLength="276" x="946" y="363.777">deviceBitmap(String,Coord,Coord) : void</text></g><!--class View--><g id="elem_View"><rect codeLine="13" fill="#F1F1F1" height="96.8906" id="View" rx="2.5" ry="2.5" style="stroke:#181818;stroke-width:0.5;" width="164" x="252.5" y="673.2969"/><ellipse cx="313.75" cy="689.2969" fill="#A9DCDF" rx="11" ry="11" style="stroke:#181818;stroke-width:1.0;"/><path d="M313.8594,684.6406 L312.7031,689.7188 L315.0313,689.7188 L313.8594,684.6406 Z M312.375,682.4063 L315.3594,682.4063 L318.7188,694.7969 L316.2656,694.7969 L315.5,691.7344 L312.2188,691.7344 L311.4688,694.7969 L309.0313,694.7969 L312.375,682.4063 Z " fill="#000000"/><text fill="#000000" font-family="sans-serif" font-size="14" font-style="italic" lengthAdjust="spacing" textLength="33" x="334.25" y="694.1436">View</text><line style="stroke:#181818;stroke-width:0.5;" x1="253.5" x2="415.5" y1="705.2969" y2="705.2969"/><line style="stroke:#181818;stroke-width:0.5;" x1="253.5" x2="415.5" y1="713.2969" y2="713.2969"/><ellipse cx="263.5" cy="726.9453" fill="#84BE84" rx="3" ry="3" style="stroke:#038048;stroke-width:1.0;"/><text fill="#000000" font-family="sans-serif" font-size="14" lengthAdjust="spacing" textLength="42" x="272.5" y="730.292">View()</text><ellipse cx="263.5" cy="743.2422" fill="#84BE84" rx="3" ry="3" style="stroke:#038048;stroke-width:1.0;"/><text fill="#000000" font-family="sans-serif" font-size="14" lengthAdjust="spacing" textLength="54" x="272.5" y="746.5889">~View()</text><ellipse cx="263.5" cy="759.5391" fill="#84BE84" rx="3" ry="3" style="stroke:#038048;stroke-width:1.0;"/><text fill="#000000" font-family="sans-serif" font-size="14" lengthAdjust="spacing" textLength="138" x="272.5" y="762.8857">draw(Window) : void</text></g><!--class ViewComposite--><g id="elem_ViewComposite"><rect codeLine="14" fill="#F1F1F1" height="162.0781" id="ViewComposite" rx="2.5" ry="2.5" style="stroke:#181818;stroke-width:0.5;" width="173" x="612.5" y="578.7069"/><ellipse cx="642.8" cy="594.7069" fill="#ADD1B2" rx="11" ry="11" style="stroke:#181818;stroke-width:1.0;"/><path d="M645.7688,600.3475 Q645.1906,600.6444 644.55,600.785 Q643.9094,600.9413 643.2063,600.9413 Q640.7063,600.9413 639.3781,599.3006 Q638.0656,597.6444 638.0656,594.5194 Q638.0656,591.3944 639.3781,589.7381 Q640.7063,588.0819 643.2063,588.0819 Q643.9094,588.0819 644.55,588.2381 Q645.2063,588.3944 645.7688,588.6913 L645.7688,591.41 Q645.1438,590.8319 644.55,590.5663 Q643.9563,590.285 643.3313,590.285 Q641.9875,590.285 641.3,591.3631 Q640.6125,592.4256 640.6125,594.5194 Q640.6125,596.6131 641.3,597.6913 Q641.9875,598.7538 643.3313,598.7538 Q643.9563,598.7538 644.55,598.4881 Q645.1438,598.2069 645.7688,597.6288 L645.7688,600.3475 Z " fill="#000000"/><text fill="#000000" font-family="sans-serif" font-size="14" lengthAdjust="spacing" textLength="107" x="660.2" y="599.5536">ViewComposite</text><line style="stroke:#181818;stroke-width:0.5;" x1="613.5" x2="784.5" y1="610.7069" y2="610.7069"/><rect fill="none" height="6" style="stroke:#C82930;stroke-width:1.0;" width="6" x="620.5" y="621.3553"/><text fill="#000000" font-family="sans-serif" font-size="14" lengthAdjust="spacing" textLength="55" x="632.5" y="627.702">children</text><line style="stroke:#181818;stroke-width:0.5;" x1="613.5" x2="784.5" y1="635.0038" y2="635.0038"/><ellipse cx="623.5" cy="648.6522" fill="#84BE84" rx="3" ry="3" style="stroke:#038048;stroke-width:1.0;"/><text fill="#000000" font-family="sans-serif" font-size="14" lengthAdjust="spacing" textLength="117" x="632.5" y="651.9989">ViewComposite()</text><ellipse cx="623.5" cy="664.9491" fill="#84BE84" rx="3" ry="3" style="stroke:#038048;stroke-width:1.0;"/><text fill="#000000" font-family="sans-serif" font-size="14" lengthAdjust="spacing" textLength="129" x="632.5" y="668.2957">~ViewComposite()</text><ellipse cx="623.5" cy="681.2459" fill="#84BE84" rx="3" ry="3" style="stroke:#038048;stroke-width:1.0;"/><text fill="#000000" font-family="sans-serif" font-size="14" lengthAdjust="spacing" textLength="136" x="632.5" y="684.5926">append(View) : void</text><ellipse cx="623.5" cy="697.5428" fill="#84BE84" rx="3" ry="3" style="stroke:#038048;stroke-width:1.0;"/><text fill="#000000" font-family="sans-serif" font-size="14" lengthAdjust="spacing" textLength="142" x="632.5" y="700.8895">prepend(View) : void</text><ellipse cx="623.5" cy="713.8397" fill="#84BE84" rx="3" ry="3" style="stroke:#038048;stroke-width:1.0;"/><text fill="#000000" font-family="sans-serif" font-size="14" lengthAdjust="spacing" textLength="147" x="632.5" y="717.1864">insert(View, int) : void</text><ellipse cx="623.5" cy="730.1366" fill="#84BE84" rx="3" ry="3" style="stroke:#038048;stroke-width:1.0;"/><text fill="#000000" font-family="sans-serif" font-size="14" lengthAdjust="spacing" textLength="129" x="632.5" y="733.4832">getChild(int) : View</text></g><!--class ViewRectangle--><g id="elem_ViewRectangle"><rect codeLine="15" fill="#F1F1F1" height="113.1875" id="ViewRectangle" rx="2.5" ry="2.5" style="stroke:#181818;stroke-width:0.5;" width="164" x="617" y="776.1469"/><ellipse cx="645.5" cy="792.1469" fill="#ADD1B2" rx="11" ry="11" style="stroke:#181818;stroke-width:1.0;"/><path d="M648.4688,797.7875 Q647.8906,798.0844 647.25,798.225 Q646.6094,798.3813 645.9063,798.3813 Q643.4063,798.3813 642.0781,796.7406 Q640.7656,795.0844 640.7656,791.9594 Q640.7656,788.8344 642.0781,787.1781 Q643.4063,785.5219 645.9063,785.5219 Q646.6094,785.5219 647.25,785.6781 Q647.9063,785.8344 648.4688,786.1313 L648.4688,788.85 Q647.8438,788.2719 647.25,788.0063 Q646.6563,787.725 646.0313,787.725 Q644.6875,787.725 644,788.8031 Q643.3125,789.8656 643.3125,791.9594 Q643.3125,794.0531 644,795.1313 Q644.6875,796.1938 646.0313,796.1938 Q646.6563,796.1938 647.25,795.9281 Q647.8438,795.6469 648.4688,795.0688 L648.4688,797.7875 Z " fill="#000000"/><text fill="#000000" font-family="sans-serif" font-size="14" lengthAdjust="spacing" textLength="102" x="662.5" y="796.9936">ViewRectangle</text><line style="stroke:#181818;stroke-width:0.5;" x1="618" x2="780" y1="808.1469" y2="808.1469"/><rect fill="none" height="6" style="stroke:#C82930;stroke-width:1.0;" width="6" x="625" y="818.7953"/><text fill="#000000" font-family="sans-serif" font-size="14" lengthAdjust="spacing" textLength="72" x="637" y="825.142">rect : Rect</text><line style="stroke:#181818;stroke-width:0.5;" x1="618" x2="780" y1="832.4438" y2="832.4438"/><ellipse cx="628" cy="846.0922" fill="#84BE84" rx="3" ry="3" style="stroke:#038048;stroke-width:1.0;"/><text fill="#000000" font-family="sans-serif" font-size="14" lengthAdjust="spacing" textLength="112" x="637" y="849.4389">ViewRectangle()</text><ellipse cx="628" cy="862.3891" fill="#84BE84" rx="3" ry="3" style="stroke:#038048;stroke-width:1.0;"/><text fill="#000000" font-family="sans-serif" font-size="14" lengthAdjust="spacing" textLength="124" x="637" y="865.7357">~ViewRectangle()</text><ellipse cx="628" cy="878.6859" fill="#84BE84" rx="3" ry="3" style="stroke:#038048;stroke-width:1.0;"/><text fill="#000000" font-family="sans-serif" font-size="14" lengthAdjust="spacing" textLength="138" x="637" y="882.0326">draw(Window) : void</text></g><!--class ViewString--><g id="elem_ViewString"><rect codeLine="16" fill="#F1F1F1" height="129.4844" id="ViewString" rx="2.5" ry="2.5" style="stroke:#181818;stroke-width:0.5;" width="164" x="617" y="924.0069"/><ellipse cx="659" cy="940.0069" fill="#ADD1B2" rx="11" ry="11" style="stroke:#181818;stroke-width:1.0;"/><path d="M661.9688,945.6475 Q661.3906,945.9444 660.75,946.085 Q660.1094,946.2413 659.4063,946.2413 Q656.9063,946.2413 655.5781,944.6006 Q654.2656,942.9444 654.2656,939.8194 Q654.2656,936.6944 655.5781,935.0381 Q656.9063,933.3819 659.4063,933.3819 Q660.1094,933.3819 660.75,933.5381 Q661.4063,933.6944 661.9688,933.9913 L661.9688,936.71 Q661.3438,936.1319 660.75,935.8663 Q660.1563,935.585 659.5313,935.585 Q658.1875,935.585 657.5,936.6631 Q656.8125,937.7256 656.8125,939.8194 Q656.8125,941.9131 657.5,942.9913 Q658.1875,944.0538 659.5313,944.0538 Q660.1563,944.0538 660.75,943.7881 Q661.3438,943.5069 661.9688,942.9288 L661.9688,945.6475 Z " fill="#000000"/><text fill="#000000" font-family="sans-serif" font-size="14" lengthAdjust="spacing" textLength="72" x="679" y="944.8536">ViewString</text><line style="stroke:#181818;stroke-width:0.5;" x1="618" x2="780" y1="956.0069" y2="956.0069"/><rect fill="none" height="6" style="stroke:#C82930;stroke-width:1.0;" width="6" x="625" y="966.6553"/><text fill="#000000" font-family="sans-serif" font-size="14" lengthAdjust="spacing" textLength="89" x="637" y="973.002">value : String</text><rect fill="none" height="6" style="stroke:#C82930;stroke-width:1.0;" width="6" x="625" y="982.9522"/><text fill="#000000" font-family="sans-serif" font-size="14" lengthAdjust="spacing" textLength="102" x="637" y="989.2989">location : Point</text><line style="stroke:#181818;stroke-width:0.5;" x1="618" x2="780" y1="996.6006" y2="996.6006"/><ellipse cx="628" cy="1010.2491" fill="#84BE84" rx="3" ry="3" style="stroke:#038048;stroke-width:1.0;"/><text fill="#000000" font-family="sans-serif" font-size="14" lengthAdjust="spacing" textLength="82" x="637" y="1013.5957">ViewString()</text><ellipse cx="628" cy="1026.5459" fill="#84BE84" rx="3" ry="3" style="stroke:#038048;stroke-width:1.0;"/><text fill="#000000" font-family="sans-serif" font-size="14" lengthAdjust="spacing" textLength="94" x="637" y="1029.8926">~ViewString()</text><ellipse cx="628" cy="1042.8428" fill="#84BE84" rx="3" ry="3" style="stroke:#038048;stroke-width:1.0;"/><text fill="#000000" font-family="sans-serif" font-size="14" lengthAdjust="spacing" textLength="138" x="637" y="1046.1895">draw(Window) : void</text></g><!--class WindowSystemFactory--><g id="elem_WindowSystemFactory"><rect codeLine="18" fill="#F1F1F1" height="137.75" id="WindowSystemFactory" rx="2.5" ry="2.5" style="stroke:#181818;stroke-width:0.5;" width="263" x="567.5" y="405.8669"/><ellipse cx="617.25" cy="425.9997" fill="#ADD1B2" rx="11" ry="11" style="stroke:#181818;stroke-width:1.0;"/><path d="M620.2188,431.6403 Q619.6406,431.9372 619,432.0778 Q618.3594,432.2341 617.6563,432.2341 Q615.1563,432.2341 613.8281,430.5934 Q612.5156,428.9372 612.5156,425.8122 Q612.5156,422.6872 613.8281,421.0309 Q615.1563,419.3747 617.6563,419.3747 Q618.3594,419.3747 619,419.5309 Q619.6563,419.6872 620.2188,419.9841 L620.2188,422.7028 Q619.5938,422.1247 619,421.8591 Q618.4063,421.5778 617.7813,421.5778 Q616.4375,421.5778 615.75,422.6559 Q615.0625,423.7184 615.0625,425.8122 Q615.0625,427.9059 615.75,428.9841 Q616.4375,430.0466 617.7813,430.0466 Q618.4063,430.0466 619,429.7809 Q619.5938,429.4997 620.2188,428.9216 L620.2188,431.6403 Z " fill="#000000"/><text fill="#000000" font-family="sans-serif" font-size="12" font-style="italic" lengthAdjust="spacing" textLength="71" x="679.75" y="422.0055">&#171;singleton&#187;</text><text fill="#000000" font-family="sans-serif" font-size="14" lengthAdjust="spacing" textLength="155" x="637.75" y="437.8307">WindowSystemFactory</text><line style="stroke:#181818;stroke-width:0.5;" x1="568.5" x2="829.5" y1="446.1325" y2="446.1325"/><rect fill="none" height="6" style="stroke:#C82930;stroke-width:1.0;" width="6" x="575.5" y="456.7809"/><text fill="#000000" font-family="sans-serif" font-size="14" lengthAdjust="spacing" text-decoration="underline" textLength="59" x="587.5" y="463.1276">instance</text><line style="stroke:#181818;stroke-width:0.5;" x1="568.5" x2="829.5" y1="470.4294" y2="470.4294"/><polygon fill="#FFFF44" points="578.5,479.0778,582.5,483.0778,578.5,487.0778,574.5,483.0778" style="stroke:#B38D22;stroke-width:1.0;"/><text fill="#000000" font-family="sans-serif" font-size="14" lengthAdjust="spacing" textLength="165" x="587.5" y="487.4245">WindowSystemFactory()</text><polygon fill="#FFFF44" points="578.5,495.3747,582.5,499.3747,578.5,503.3747,574.5,499.3747" style="stroke:#B38D22;stroke-width:1.0;"/><text fill="#000000" font-family="sans-serif" font-size="14" lengthAdjust="spacing" textLength="177" x="587.5" y="503.7214">~WindowSystemFactory()</text><ellipse cx="578.5" cy="516.6716" fill="#84BE84" rx="3" ry="3" style="stroke:#038048;stroke-width:1.0;"/><text fill="#000000" font-family="sans-serif" font-size="14" lengthAdjust="spacing" text-decoration="underline" textLength="237" x="587.5" y="520.0182">instance() : WindowSystemFactory</text><ellipse cx="578.5" cy="532.9684" fill="#84BE84" rx="3" ry="3" style="stroke:#038048;stroke-width:1.0;"/><text fill="#000000" font-family="sans-serif" font-size="14" lengthAdjust="spacing" textLength="108" x="587.5" y="536.3151">createWindow()</text></g><!--class XWindowSystemFactory--><g id="elem_XWindowSystemFactory"><rect codeLine="19" fill="#F1F1F1" height="113.1875" id="XWindowSystemFactory" rx="2.5" ry="2.5" style="stroke:#181818;stroke-width:0.5;" width="263" x="961.5" y="418.1469"/><ellipse cx="1006.75" cy="434.1469" fill="#ADD1B2" rx="11" ry="11" style="stroke:#181818;stroke-width:1.0;"/><path d="M1009.7188,439.7875 Q1009.1406,440.0844 1008.5,440.225 Q1007.8594,440.3813 1007.1563,440.3813 Q1004.6563,440.3813 1003.3281,438.7406 Q1002.0156,437.0844 1002.0156,433.9594 Q1002.0156,430.8344 1003.3281,429.1781 Q1004.6563,427.5219 1007.1563,427.5219 Q1007.8594,427.5219 1008.5,427.6781 Q1009.1563,427.8344 1009.7188,428.1313 L1009.7188,430.85 Q1009.0938,430.2719 1008.5,430.0063 Q1007.9063,429.725 1007.2813,429.725 Q1005.9375,429.725 1005.25,430.8031 Q1004.5625,431.8656 1004.5625,433.9594 Q1004.5625,436.0531 1005.25,437.1313 Q1005.9375,438.1938 1007.2813,438.1938 Q1007.9063,438.1938 1008.5,437.9281 Q1009.0938,437.6469 1009.7188,437.0688 L1009.7188,439.7875 Z " fill="#000000"/><text fill="#000000" font-family="sans-serif" font-size="14" lengthAdjust="spacing" textLength="164" x="1027.25" y="438.9936">XWindowSystemFactory</text><line style="stroke:#181818;stroke-width:0.5;" x1="962.5" x2="1223.5" y1="450.1469" y2="450.1469"/><line style="stroke:#181818;stroke-width:0.5;" x1="962.5" x2="1223.5" y1="458.1469" y2="458.1469"/><polygon fill="#FFFF44" points="972.5,466.7953,976.5,470.7953,972.5,474.7953,968.5,470.7953" style="stroke:#B38D22;stroke-width:1.0;"/><text fill="#000000" font-family="sans-serif" font-size="14" lengthAdjust="spacing" textLength="174" x="981.5" y="475.142">XWindowSystemFactory()</text><polygon fill="#FFFF44" points="972.5,483.0922,976.5,487.0922,972.5,491.0922,968.5,487.0922" style="stroke:#B38D22;stroke-width:1.0;"/><text fill="#000000" font-family="sans-serif" font-size="14" lengthAdjust="spacing" textLength="186" x="981.5" y="491.4389">~XWindowSystemFactory()</text><ellipse cx="972.5" cy="504.3891" fill="#84BE84" rx="3" ry="3" style="stroke:#038048;stroke-width:1.0;"/><text fill="#000000" font-family="sans-serif" font-size="14" lengthAdjust="spacing" text-decoration="underline" textLength="237" x="981.5" y="507.7357">instance() : WindowSystemFactory</text><ellipse cx="972.5" cy="520.6859" fill="#84BE84" rx="3" ry="3" style="stroke:#038048;stroke-width:1.0;"/><text fill="#000000" font-family="sans-serif" font-size="14" lengthAdjust="spacing" textLength="108" x="981.5" y="524.0326">createWindow()</text></g><g id="elem_nViewDraw"><path d="M6,331.1769 L6,356.3097 A0,0 0 0 0 6,356.3097 L137,356.3097 A0,0 0 0 0 137,356.3097 L137,349.1769 L205.03,343.7469 L137,341.1769 L137,341.1769 L127,331.1769 L6,331.1769 A0,0 0 0 0 6,331.1769 " fill="#FEFFDD" style="stroke:#181818;stroke-width:0.5;"/><path d="M127,331.1769 L127,341.1769 L137,341.1769 L127,331.1769 " fill="#FEFFDD" style="stroke:#181818;stroke-width:0.5;"/><text fill="#000000" font-family="sans-serif" font-size="13" lengthAdjust="spacing" textLength="110" x="12" y="348.2438">view-&gt;draw(this);</text></g><!--reverse link Window to WindowApplication--><g id="link_Window_WindowApplication"><path codeLine="98" d="M334.5,221.6269 C334.5,146.1569 334.5,92.7469 334.5,92.7469 C334.5,92.7469 492.41,92.7469 600.36,92.7469 " fill="none" id="Window-backto-WindowApplication" style="stroke:#181818;stroke-width:1.0;"/><polygon fill="none" points="334.5,239.6269,340.5,221.6269,328.5,221.6269,334.5,239.6269" style="stroke:#181818;stroke-width:1.0;"/></g><!--reverse link WindowImp to XWindowImp--><g id="link_WindowImp_XWindowImp"><path codeLine="99" d="M884.38,273.7469 C903.97,273.7469 905.97,273.7469 925.57,273.7469 " fill="none" id="WindowImp-backto-XWindowImp" style="stroke:#181818;stroke-width:1.0;"/><polygon fill="none" points="866.38,273.7469,884.38,279.7469,884.38,267.7469,866.38,273.7469" style="stroke:#181818;stroke-width:1.0;"/></g><!--reverse link View to ViewComposite--><g id="link_View_ViewComposite"><path codeLine="101" d="M434.76,707.0369 C493.02,707.0369 553.04,707.0369 612.28,707.0369 " fill="none" id="View-backto-ViewComposite" style="stroke:#181818;stroke-width:1.0;"/><polygon fill="none" points="416.76,707.0369,434.76,713.0369,434.76,701.0369,416.76,707.0369" style="stroke:#181818;stroke-width:1.0;"/></g><!--reverse link View to ViewRectangle--><g id="link_View_ViewRectangle"><path codeLine="102" d="M434.76,755.4869 C542.26,755.4869 699,755.4869 699,755.4869 C699,755.4869 699,764.2069 699,775.7869 " fill="none" id="View-backto-ViewRectangle" style="stroke:#181818;stroke-width:1.0;"/><polygon fill="none" points="416.76,755.4869,434.76,761.4869,434.76,749.4869,416.76,755.4869" style="stroke:#181818;stroke-width:1.0;"/></g><!--reverse link View to ViewString--><g id="link_View_ViewString"><path codeLine="103" d="M334.5,788.4069 C334.5,865.4169 334.5,988.7469 334.5,988.7469 C334.5,988.7469 509.24,988.7469 616.74,988.7469 " fill="none" id="View-backto-ViewString" style="stroke:#181818;stroke-width:1.0;"/><polygon fill="none" points="334.5,770.4069,328.5,788.4069,340.5,788.4069,334.5,770.4069" style="stroke:#181818;stroke-width:1.0;"/></g><!--reverse link WindowSystemFactory to XWindowSystemFactory--><g id="link_WindowSystemFactory_XWindowSystemFactory"><path codeLine="105" d="M848.74,474.7469 C890.69,474.7469 919.08,474.7469 961.04,474.7469 " fill="none" id="WindowSystemFactory-backto-XWindowSystemFactory" style="stroke:#181818;stroke-width:1.0;"/><polygon fill="none" points="830.74,474.7469,848.74,480.7469,848.74,468.7469,830.74,474.7469" style="stroke:#181818;stroke-width:1.0;"/></g><!--link Window to WindowImp--><g id="link_Window_WindowImp"><path codeLine="107" d="M483.78,305.1669 C503.36,305.1669 505.67,305.1669 525.74,305.1669 " fill="none" id="Window-WindowImp" style="stroke:#181818;stroke-width:1.0;stroke-dasharray:7.0,7.0;"/><polygon fill="none" points="471.78,305.1669,477.78,309.1669,483.78,305.1669,477.78,301.1669,471.78,305.1669" style="stroke:#181818;stroke-width:1.0;"/><polygon fill="#181818" points="531.74,305.1669,522.74,301.1669,526.74,305.1669,522.74,309.1669,531.74,305.1669" style="stroke:#181818;stroke-width:1.0;"/><text fill="#000000" font-family="sans-serif" font-size="13" lengthAdjust="spacing" textLength="101" x="422.4534" y="327.9973">implementation</text></g><!--link Window to View--><g id="link_Window_View"><path codeLine="108" d="M334.5,587.9969 C334.5,619.1669 334.5,643.2069 334.5,666.8969 " fill="none" id="Window-to-View" style="stroke:#181818;stroke-width:1.0;stroke-dasharray:7.0,7.0;"/><polygon fill="#181818" points="334.5,672.8969,338.5,663.8969,334.5,667.8969,330.5,663.8969,334.5,672.8969" style="stroke:#181818;stroke-width:1.0;"/><text fill="#000000" font-family="sans-serif" font-size="13" lengthAdjust="spacing" textLength="30" x="303.5" y="643.5138">draw</text></g><!--link Window to WindowSystemFactory--><g id="link_Window_WindowSystemFactory"><path codeLine="109" d="M471.78,474.7469 C503.06,474.7469 530.23,474.7469 561.27,474.7469 " fill="none" id="Window-to-WindowSystemFactory" style="stroke:#181818;stroke-width:1.0;stroke-dasharray:7.0,7.0;"/><polygon fill="#181818" points="567.27,474.7469,558.27,470.7469,562.27,474.7469,558.27,478.7469,567.27,474.7469" style="stroke:#181818;stroke-width:1.0;"/><text fill="#000000" font-family="sans-serif" font-size="13" lengthAdjust="spacing" textLength="30" x="488.53" y="487.8138">uses</text></g><!--SRC=[dLR1Rjim3BthAuJsaYnDBhjrHO0rsu010rOinMQWs46psKIOBHgIcZROvc-V92ks5SjksXvIwV6H9YcAekOw1tejURO1kcP5QNOhp82G7EurrKWbtsmrpRY4L7CKHFtcecII5JJd0lI-18fIRv4GzajfoL9DqvmfHNzmaU4ZwMxUbsNEK-RinEcVYz9h92rmJFtEuM3NBbTObAYuXWxspNZBn2RlOcijkTYGmAFrNcaeFXdRAFVqwafngwHHB9UX7m6Ha1gabtJERSuA4Dg5PP3MxvQKej26eipQETz8PlLgOj5f1yuaCt7LIfEfGNR8iuuSIn0nFCrHGKp0ZGlyVXyJPJ0YLA2_cXBWOdA3NEWuu-EJTNIG8HcFEvNZ8yYeIoRyBwQyQfCNGuOjpPwqfz4ntWtc-mtwCExUBXPlVbxGOVejFEb9NJ63Tiyte9lJTc54pjwIxEawkJjyqhiCRI5qmA0cZiXLdpt0Z1SIQHor7dPY20NLa6HcgluMo-EZQuNNg3KMm_BrQ5a5l97YyhmCTZm5LmWhH9bTz7x7zBedVQBADTS5AyUKI1Ae9Tr4Xg9gH7QSvUIvD2UdvZavDT79QpETl2BLoUjoRI-ALQYlMREjZlRsAapgBuIwpGFYMlMMvva4qPFC0i3R3GZLimnMchwTrJVxu4AFL4euWSM50gaTAUnZFQPfG2iRrCIpwYOKl98sSFl0c_yMwmbd0U0Z2mZLiup1zDT7QrtOiVp1SlrB7GfpRBgQAz5GF6jt_kEjg1gHHRsApGR6Wp_AFlBfFvDkin8f313F8t3JG7lawYNiMS-7phiJaeSif1AO1ZztJ9jErVChYVirHAzUndz98Cc9aVWtz-hlV1uPEDlUuWZT-T9r28U6ysI8jpDbY1_cokX4sVbKV8Gy2mV8CqfniLZs9mc3-KPcIxP16-fnTXuKA484cXx051LMzuDLfEPlPpRpfIjzlULg-ewOVaCjbpH4OzfRlhpi3X64_0S0]--></g></svg>