<?xml version="1.0" encoding="us-ascii" standalone="no"?><svg xmlns="http://www.w3.org/2000/svg" xmlns:xlink="http://www.w3.org/1999/xlink" contentStyleType="text/css" height="306px" preserveAspectRatio="none" style="width:775px;height:306px;background:#FFFFFF;" version="1.1" viewBox="0 0 775 306" width="775px" zoomAndPan="magnify"><defs/><g><!--entity Client--><g id="elem_Client"><rect fill="#F1F1F1" height="36.2969" rx="2.5" ry="2.5" style="stroke:#181818;stroke-width:0.5;" width="59" x="232.5" y="7"/><text fill="#000000" font-family="sans-serif" font-size="14" lengthAdjust="spacing" textLength="39" x="242.5" y="29.9951">Client</text></g><!--class Abstraction--><g id="elem_Abstraction"><rect codeLine="7" fill="#F1F1F1" height="64.2969" id="Abstraction" rx="2.5" ry="2.5" style="stroke:#181818;stroke-width:0.5;" width="110" x="207" y="107.29"/><ellipse cx="222" cy="123.29" fill="#ADD1B2" rx="11" ry="11" style="stroke:#181818;stroke-width:1.0;"/><path d="M224.9688,128.9306 Q224.3906,129.2275 223.75,129.3681 Q223.1094,129.5244 222.4063,129.5244 Q219.9063,129.5244 218.5781,127.8837 Q217.2656,126.2275 217.2656,123.1025 Q217.2656,119.9775 218.5781,118.3212 Q219.9063,116.665 222.4063,116.665 Q223.1094,116.665 223.75,116.8212 Q224.4063,116.9775 224.9688,117.2744 L224.9688,119.9931 Q224.3438,119.415 223.75,119.1494 Q223.1563,118.8681 222.5313,118.8681 Q221.1875,118.8681 220.5,119.9462 Q219.8125,121.0087 219.8125,123.1025 Q219.8125,125.1962 220.5,126.2744 Q221.1875,127.3369 222.5313,127.3369 Q223.1563,127.3369 223.75,127.0712 Q224.3438,126.79 224.9688,126.2119 L224.9688,128.9306 Z " fill="#000000"/><text fill="#000000" font-family="sans-serif" font-size="14" lengthAdjust="spacing" textLength="78" x="236" y="128.1367">Abstraction</text><line style="stroke:#181818;stroke-width:0.5;" x1="208" x2="316" y1="139.29" y2="139.29"/><line style="stroke:#181818;stroke-width:0.5;" x1="208" x2="316" y1="147.29" y2="147.29"/><text fill="#000000" font-family="sans-serif" font-size="14" lengthAdjust="spacing" textLength="78" x="213" y="164.2851">Operation()</text></g><!--class Implementor--><g id="elem_Implementor"><rect codeLine="8" fill="#F1F1F1" height="64.2969" id="Implementor" rx="2.5" ry="2.5" style="stroke:#181818;stroke-width:0.5;" width="119" x="384.5" y="107.14"/><ellipse cx="399.5" cy="123.14" fill="#ADD1B2" rx="11" ry="11" style="stroke:#181818;stroke-width:1.0;"/><path d="M402.4688,128.7806 Q401.8906,129.0775 401.25,129.2181 Q400.6094,129.3744 399.9063,129.3744 Q397.4063,129.3744 396.0781,127.7337 Q394.7656,126.0775 394.7656,122.9525 Q394.7656,119.8275 396.0781,118.1712 Q397.4063,116.515 399.9063,116.515 Q400.6094,116.515 401.25,116.6712 Q401.9063,116.8275 402.4688,117.1244 L402.4688,119.8431 Q401.8438,119.265 401.25,118.9994 Q400.6563,118.7181 400.0313,118.7181 Q398.6875,118.7181 398,119.7962 Q397.3125,120.8587 397.3125,122.9525 Q397.3125,125.0462 398,126.1244 Q398.6875,127.1869 400.0313,127.1869 Q400.6563,127.1869 401.25,126.9212 Q401.8438,126.64 402.4688,126.0619 L402.4688,128.7806 Z " fill="#000000"/><text fill="#000000" font-family="sans-serif" font-size="14" lengthAdjust="spacing" textLength="87" x="413.5" y="127.9867">Implementor</text><line style="stroke:#181818;stroke-width:0.5;" x1="385.5" x2="502.5" y1="139.14" y2="139.14"/><line style="stroke:#181818;stroke-width:0.5;" x1="385.5" x2="502.5" y1="147.14" y2="147.14"/><text fill="#000000" font-family="sans-serif" font-size="14" lengthAdjust="spacing" textLength="103" x="390.5" y="164.1351">OperationImp()</text></g><!--class ConcreteImplementorA--><g id="elem_ConcreteImplementorA"><rect codeLine="9" fill="#F1F1F1" height="64.2969" id="ConcreteImplementorA" rx="2.5" ry="2.5" style="stroke:#181818;stroke-width:0.5;" width="192" x="348" y="235.29"/><ellipse cx="363" cy="251.29" fill="#ADD1B2" rx="11" ry="11" style="stroke:#181818;stroke-width:1.0;"/><path d="M365.9688,256.9306 Q365.3906,257.2275 364.75,257.3681 Q364.1094,257.5244 363.4063,257.5244 Q360.9063,257.5244 359.5781,255.8837 Q358.2656,254.2275 358.2656,251.1025 Q358.2656,247.9775 359.5781,246.3212 Q360.9063,244.665 363.4063,244.665 Q364.1094,244.665 364.75,244.8212 Q365.4063,244.9775 365.9688,245.2744 L365.9688,247.9931 Q365.3438,247.415 364.75,247.1494 Q364.1563,246.8681 363.5313,246.8681 Q362.1875,246.8681 361.5,247.9462 Q360.8125,249.0087 360.8125,251.1025 Q360.8125,253.1962 361.5,254.2744 Q362.1875,255.3369 363.5313,255.3369 Q364.1563,255.3369 364.75,255.0712 Q365.3438,254.79 365.9688,254.2119 L365.9688,256.9306 Z " fill="#000000"/><text fill="#000000" font-family="sans-serif" font-size="14" lengthAdjust="spacing" textLength="160" x="377" y="256.1367">ConcreteImplementorA</text><line style="stroke:#181818;stroke-width:0.5;" x1="349" x2="539" y1="267.29" y2="267.29"/><line style="stroke:#181818;stroke-width:0.5;" x1="349" x2="539" y1="275.29" y2="275.29"/><text fill="#000000" font-family="sans-serif" font-size="14" lengthAdjust="spacing" textLength="103" x="354" y="292.2851">OperationImp()</text></g><!--class ConcreteImplementorB--><g id="elem_ConcreteImplementorB"><rect codeLine="10" fill="#F1F1F1" height="64.2969" id="ConcreteImplementorB" rx="2.5" ry="2.5" style="stroke:#181818;stroke-width:0.5;" width="193" x="575.5" y="235.29"/><ellipse cx="590.5" cy="251.29" fill="#ADD1B2" rx="11" ry="11" style="stroke:#181818;stroke-width:1.0;"/><path d="M593.4688,256.9306 Q592.8906,257.2275 592.25,257.3681 Q591.6094,257.5244 590.9063,257.5244 Q588.4063,257.5244 587.0781,255.8837 Q585.7656,254.2275 585.7656,251.1025 Q585.7656,247.9775 587.0781,246.3212 Q588.4063,244.665 590.9063,244.665 Q591.6094,244.665 592.25,244.8212 Q592.9063,244.9775 593.4688,245.2744 L593.4688,247.9931 Q592.8438,247.415 592.25,247.1494 Q591.6563,246.8681 591.0313,246.8681 Q589.6875,246.8681 589,247.9462 Q588.3125,249.0087 588.3125,251.1025 Q588.3125,253.1962 589,254.2744 Q589.6875,255.3369 591.0313,255.3369 Q591.6563,255.3369 592.25,255.0712 Q592.8438,254.79 593.4688,254.2119 L593.4688,256.9306 Z " fill="#000000"/><text fill="#000000" font-family="sans-serif" font-size="14" lengthAdjust="spacing" textLength="161" x="604.5" y="256.1367">ConcreteImplementorB</text><line style="stroke:#181818;stroke-width:0.5;" x1="576.5" x2="767.5" y1="267.29" y2="267.29"/><line style="stroke:#181818;stroke-width:0.5;" x1="576.5" x2="767.5" y1="275.29" y2="275.29"/><text fill="#000000" font-family="sans-serif" font-size="14" lengthAdjust="spacing" textLength="103" x="581.5" y="292.2851">OperationImp()</text></g><!--entity RefinedAbstraction--><g id="elem_RefinedAbstraction"><rect fill="#F1F1F1" height="36.2969" rx="2.5" ry="2.5" style="stroke:#181818;stroke-width:0.5;" width="151" x="161.5" y="249.29"/><text fill="#000000" font-family="sans-serif" font-size="14" lengthAdjust="spacing" textLength="131" x="171.5" y="272.2851">RefinedAbstraction</text></g><g id="elem_nAbstractionOperation"><path d="M6,126.73 L6,151.8628 A0,0 0 0 0 6,151.8628 L164,151.8628 A0,0 0 0 0 164,151.8628 L164,144.73 L261.85,139.29 L164,136.73 L164,136.73 L154,126.73 L6,126.73 A0,0 0 0 0 6,126.73 " fill="#FEFFDD" style="stroke:#181818;stroke-width:0.5;"/><path d="M154,126.73 L154,136.73 L164,136.73 L154,126.73 " fill="#FEFFDD" style="stroke:#181818;stroke-width:0.5;"/><text fill="#000000" font-family="sans-serif" font-size="13" lengthAdjust="spacing" textLength="137" x="12" y="143.7969">imp-&gt;OperationImp()</text></g><!--reverse link Abstraction to RefinedAbstraction--><g id="link_Abstraction_RefinedAbstraction"><path codeLine="20" d="M255.75,192.99 C255.75,216.98 255.75,229.63 255.75,248.91 " fill="none" id="Abstraction-backto-RefinedAbstraction" style="stroke:#181818;stroke-width:1.0;"/><polygon fill="none" points="255.75,174.99,249.75,192.99,261.75,192.99,255.75,174.99" style="stroke:#181818;stroke-width:1.0;"/></g><!--reverse link Implementor to ConcreteImplementorA--><g id="link_Implementor_ConcreteImplementorA"><path codeLine="21" d="M444,189.63 C444,209.06 444,215.69 444,235.11 " fill="none" id="Implementor-backto-ConcreteImplementorA" style="stroke:#181818;stroke-width:1.0;"/><polygon fill="none" points="444,171.63,438,189.63,450,189.63,444,171.63" style="stroke:#181818;stroke-width:1.0;"/></g><!--reverse link Implementor to ConcreteImplementorB--><g id="link_Implementor_ConcreteImplementorB"><path codeLine="22" d="M521.9,139.29 C589.46,139.29 672,139.29 672,139.29 C672,139.29 672,197.14 672,235.1 " fill="none" id="Implementor-backto-ConcreteImplementorB" style="stroke:#181818;stroke-width:1.0;"/><polygon fill="none" points="503.9,139.29,521.9,145.29,521.9,133.29,503.9,139.29" style="stroke:#181818;stroke-width:1.0;"/></g><!--link Abstraction to Implementor--><g id="link_Abstraction_Implementor"><path codeLine="24" d="M336.89,139.29 C356.1,139.29 359.17,139.29 378.17,139.29 " fill="none" id="Abstraction-Implementor" style="stroke:#181818;stroke-width:1.0;stroke-dasharray:7.0,7.0;"/><polygon fill="none" points="324.89,139.29,330.89,143.29,336.89,139.29,330.89,135.29,324.89,139.29" style="stroke:#181818;stroke-width:1.0;"/><polygon fill="#181818" points="384.17,139.29,375.17,135.29,379.17,139.29,375.17,143.29,384.17,139.29" style="stroke:#181818;stroke-width:1.0;"/><text fill="#000000" font-family="sans-serif" font-size="13" lengthAdjust="spacing" textLength="24" x="325.007" y="136.345">imp</text></g><!--link Client to Abstraction--><g id="link_Client_Abstraction"><path codeLine="25" d="M262,43.74 C262,59.91 262,77.8 262,97.65 " fill="none" id="Client-to-Abstraction" style="stroke:#181818;stroke-width:1.0;stroke-dasharray:7.0,7.0;"/><polygon fill="#181818" points="262,103.65,266,94.65,262,98.65,258,94.65,262,103.65" style="stroke:#181818;stroke-width:1.0;"/></g><!--SRC=[ZL51Zi8m3Bpx5HOdEBGFg11IosbFA_63K4mRaJXHOWcGzl4RTX6ukqKYfsHcx1axnhbmzlPYUO1yiXnDCXwTPP9h90n9nW2Gg1V3WoFSEaii0BqpEMExpv9CBpRm7VdmqP4laf3ko3PmdqX8CUrhgjDcEpgM80Vj0kg13Nv6IkPsNwu0L1jD5RYmSrvlgTh_gac8zLTLpINLQNuqiujuHzLD3HVMnmM6EjbXb7epMVdlzs1TuCdME0YXoSWAVGm5M4vfMct-p4bym5ibp9PXhJsQvjdl6m00]--></g></svg>