<?xml version="1.0" encoding="us-ascii" standalone="no"?><svg xmlns="http://www.w3.org/2000/svg" xmlns:xlink="http://www.w3.org/1999/xlink" contentStyleType="text/css" height="1231px" preserveAspectRatio="none" style="width:1181px;height:1231px;background:#FFFFFF;" version="1.1" viewBox="0 0 1181 1231" width="1181px" zoomAndPan="magnify"><defs/><g><text fill="#000000" font-family="sans-serif" font-size="14" font-weight="bold" lengthAdjust="spacing" textLength="159" x="504" y="22.9951">Bridge Sample Code</text><!--class Window--><g id="elem_Window"><rect codeLine="7" fill="#F1F1F1" height="341.3438" id="Window" rx="2.5" ry="2.5" style="stroke:#181818;stroke-width:0.5;" width="259" x="9" y="217.2869"/><ellipse cx="106.75" cy="233.2869" fill="#A9DCDF" rx="11" ry="11" style="stroke:#181818;stroke-width:1.0;"/><path d="M106.8594,228.6306 L105.7031,233.7088 L108.0313,233.7088 L106.8594,228.6306 Z M105.375,226.3963 L108.3594,226.3963 L111.7188,238.7869 L109.2656,238.7869 L108.5,235.7244 L105.2188,235.7244 L104.4688,238.7869 L102.0313,238.7869 L105.375,226.3963 Z " fill="#000000"/><text fill="#000000" font-family="sans-serif" font-size="14" font-style="italic" lengthAdjust="spacing" textLength="55" x="127.25" y="238.1336">Window</text><line style="stroke:#181818;stroke-width:0.5;" x1="10" x2="267" y1="249.2869" y2="249.2869"/><rect fill="none" height="6" style="stroke:#C82930;stroke-width:1.0;" width="6" x="17" y="259.9353"/><text fill="#000000" font-family="sans-serif" font-size="14" lengthAdjust="spacing" textLength="199" x="29" y="266.282">implementation : WindowImp</text><rect fill="none" height="6" style="stroke:#C82930;stroke-width:1.0;" width="6" x="17" y="276.2322"/><text fill="#000000" font-family="sans-serif" font-size="14" lengthAdjust="spacing" textLength="107" x="29" y="282.5789">contents : View</text><line style="stroke:#181818;stroke-width:0.5;" x1="10" x2="267" y1="289.8806" y2="289.8806"/><ellipse cx="20" cy="303.5291" fill="#84BE84" rx="3" ry="3" style="stroke:#038048;stroke-width:1.0;"/><text fill="#000000" font-family="sans-serif" font-size="14" lengthAdjust="spacing" textLength="96" x="29" y="306.8757">Window(View)</text><ellipse cx="20" cy="319.8259" fill="#84BE84" rx="3" ry="3" style="stroke:#038048;stroke-width:1.0;"/><text fill="#000000" font-family="sans-serif" font-size="14" lengthAdjust="spacing" textLength="148" x="29" y="323.1726">drawContents() : void</text><ellipse cx="20" cy="336.1228" fill="#84BE84" rx="3" ry="3" style="stroke:#038048;stroke-width:1.0;"/><text fill="#000000" font-family="sans-serif" font-size="14" lengthAdjust="spacing" textLength="87" x="29" y="339.4695">open() : void</text><ellipse cx="20" cy="352.4197" fill="#84BE84" rx="3" ry="3" style="stroke:#038048;stroke-width:1.0;"/><text fill="#000000" font-family="sans-serif" font-size="14" lengthAdjust="spacing" textLength="88" x="29" y="355.7664">close() : void</text><ellipse cx="20" cy="368.7166" fill="#84BE84" rx="3" ry="3" style="stroke:#038048;stroke-width:1.0;"/><text fill="#000000" font-family="sans-serif" font-size="14" lengthAdjust="spacing" textLength="94" x="29" y="372.0632">iconify() : void</text><ellipse cx="20" cy="385.0134" fill="#84BE84" rx="3" ry="3" style="stroke:#038048;stroke-width:1.0;"/><text fill="#000000" font-family="sans-serif" font-size="14" lengthAdjust="spacing" textLength="112" x="29" y="388.3601">deiconify() : void</text><ellipse cx="20" cy="401.3103" fill="#84BE84" rx="3" ry="3" style="stroke:#038048;stroke-width:1.0;"/><text fill="#000000" font-family="sans-serif" font-size="14" lengthAdjust="spacing" textLength="148" x="29" y="404.657">setOrigin(Point) : void</text><ellipse cx="20" cy="417.6072" fill="#84BE84" rx="3" ry="3" style="stroke:#038048;stroke-width:1.0;"/><text fill="#000000" font-family="sans-serif" font-size="14" lengthAdjust="spacing" textLength="152" x="29" y="420.9539">setExtent(Point) : void</text><ellipse cx="20" cy="433.9041" fill="#84BE84" rx="3" ry="3" style="stroke:#038048;stroke-width:1.0;"/><text fill="#000000" font-family="sans-serif" font-size="14" lengthAdjust="spacing" textLength="84" x="29" y="437.2507">raise() : void</text><ellipse cx="20" cy="450.2009" fill="#84BE84" rx="3" ry="3" style="stroke:#038048;stroke-width:1.0;"/><text fill="#000000" font-family="sans-serif" font-size="14" lengthAdjust="spacing" textLength="88" x="29" y="453.5476">lower() : void</text><ellipse cx="20" cy="466.4978" fill="#84BE84" rx="3" ry="3" style="stroke:#038048;stroke-width:1.0;"/><text fill="#000000" font-family="sans-serif" font-size="14" lengthAdjust="spacing" textLength="186" x="29" y="469.8445">drawLine(Point,Point) : void</text><ellipse cx="20" cy="482.7947" fill="#84BE84" rx="3" ry="3" style="stroke:#038048;stroke-width:1.0;"/><text fill="#000000" font-family="sans-serif" font-size="14" lengthAdjust="spacing" textLength="194" x="29" y="486.1414">drawRect(Point, Point) : void</text><ellipse cx="20" cy="499.0916" fill="#84BE84" rx="3" ry="3" style="stroke:#038048;stroke-width:1.0;"/><text fill="#000000" font-family="sans-serif" font-size="14" lengthAdjust="spacing" textLength="233" x="29" y="502.4382">drawPolygon(Point[3..*], int) : void</text><ellipse cx="20" cy="515.3884" fill="#84BE84" rx="3" ry="3" style="stroke:#038048;stroke-width:1.0;"/><text fill="#000000" font-family="sans-serif" font-size="14" lengthAdjust="spacing" textLength="197" x="29" y="518.7351">drawText(String, Point) : void</text><polygon fill="#FFFF44" points="20,526.6853,24,530.6853,20,534.6853,16,530.6853" style="stroke:#B38D22;stroke-width:1.0;"/><text fill="#000000" font-family="sans-serif" font-size="14" lengthAdjust="spacing" textLength="204" x="29" y="535.032">getWindowImp() : WindowImp</text><polygon fill="#FFFF44" points="20,542.9822,24,546.9822,20,550.9822,16,546.9822" style="stroke:#B38D22;stroke-width:1.0;"/><text fill="#000000" font-family="sans-serif" font-size="14" lengthAdjust="spacing" textLength="110" x="29" y="551.3289">getView() : View</text></g><!--class WindowApplication--><g id="elem_WindowApplication"><rect codeLine="8" fill="#F1F1F1" height="96.8906" id="WindowApplication" rx="2.5" ry="2.5" style="stroke:#181818;stroke-width:0.5;" width="197" x="459.5" y="150.3369"/><ellipse cx="490.7" cy="166.3369" fill="#ADD1B2" rx="11" ry="11" style="stroke:#181818;stroke-width:1.0;"/><path d="M493.6688,171.9775 Q493.0906,172.2744 492.45,172.415 Q491.8094,172.5712 491.1063,172.5712 Q488.6063,172.5712 487.2781,170.9306 Q485.9656,169.2744 485.9656,166.1494 Q485.9656,163.0244 487.2781,161.3681 Q488.6063,159.7119 491.1063,159.7119 Q491.8094,159.7119 492.45,159.8681 Q493.1063,160.0244 493.6688,160.3212 L493.6688,163.04 Q493.0438,162.4619 492.45,162.1962 Q491.8563,161.915 491.2313,161.915 Q489.8875,161.915 489.2,162.9931 Q488.5125,164.0556 488.5125,166.1494 Q488.5125,168.2431 489.2,169.3212 Q489.8875,170.3837 491.2313,170.3837 Q491.8563,170.3837 492.45,170.1181 Q493.0438,169.8369 493.6688,169.2587 L493.6688,171.9775 Z " fill="#000000"/><text fill="#000000" font-family="sans-serif" font-size="14" lengthAdjust="spacing" textLength="129" x="508.3" y="171.1836">WindowApplication</text><line style="stroke:#181818;stroke-width:0.5;" x1="460.5" x2="655.5" y1="182.3369" y2="182.3369"/><line style="stroke:#181818;stroke-width:0.5;" x1="460.5" x2="655.5" y1="190.3369" y2="190.3369"/><ellipse cx="470.5" cy="203.9853" fill="#84BE84" rx="3" ry="3" style="stroke:#038048;stroke-width:1.0;"/><text fill="#000000" font-family="sans-serif" font-size="14" lengthAdjust="spacing" textLength="171" x="479.5" y="207.332">WindowApplication(View)</text><ellipse cx="470.5" cy="220.2822" fill="#84BE84" rx="3" ry="3" style="stroke:#038048;stroke-width:1.0;"/><text fill="#000000" font-family="sans-serif" font-size="14" lengthAdjust="spacing" textLength="151" x="479.5" y="223.6289">~WindowApplication()</text><ellipse cx="470.5" cy="236.5791" fill="#84BE84" rx="3" ry="3" style="stroke:#038048;stroke-width:1.0;"/><text fill="#000000" font-family="sans-serif" font-size="14" lengthAdjust="spacing" textLength="148" x="479.5" y="239.9257">drawContents() : void</text></g><!--class WindowImp--><g id="elem_WindowImp"><rect codeLine="10" fill="#F1F1F1" height="210.9688" id="WindowImp" rx="2.5" ry="2.5" style="stroke:#181818;stroke-width:0.5;" width="334" x="391" y="282.2969"/><ellipse cx="513.25" cy="298.2969" fill="#A9DCDF" rx="11" ry="11" style="stroke:#181818;stroke-width:1.0;"/><path d="M513.3594,293.6406 L512.2031,298.7188 L514.5313,298.7188 L513.3594,293.6406 Z M511.875,291.4063 L514.8594,291.4063 L518.2188,303.7969 L515.7656,303.7969 L515,300.7344 L511.7188,300.7344 L510.9688,303.7969 L508.5313,303.7969 L511.875,291.4063 Z " fill="#000000"/><text fill="#000000" font-family="sans-serif" font-size="14" font-style="italic" lengthAdjust="spacing" textLength="81" x="533.75" y="303.1436">WindowImp</text><line style="stroke:#181818;stroke-width:0.5;" x1="392" x2="724" y1="314.2969" y2="314.2969"/><line style="stroke:#181818;stroke-width:0.5;" x1="392" x2="724" y1="322.2969" y2="322.2969"/><polygon fill="#FFFF44" points="402,330.9453,406,334.9453,402,338.9453,398,334.9453" style="stroke:#B38D22;stroke-width:1.0;"/><text fill="#000000" font-family="sans-serif" font-size="14" lengthAdjust="spacing" textLength="89" x="411" y="339.292">WindowImp()</text><polygon fill="#FFFF44" points="402,347.2422,406,351.2422,402,355.2422,398,351.2422" style="stroke:#B38D22;stroke-width:1.0;"/><text fill="#000000" font-family="sans-serif" font-size="14" lengthAdjust="spacing" textLength="101" x="411" y="355.5889">~WindowImp()</text><ellipse cx="402" cy="368.5391" fill="#84BE84" rx="3" ry="3" style="stroke:#038048;stroke-width:1.0;"/><text fill="#000000" font-family="sans-serif" font-size="14" lengthAdjust="spacing" textLength="103" x="411" y="371.8857">impTop() : void</text><ellipse cx="402" cy="384.8359" fill="#84BE84" rx="3" ry="3" style="stroke:#038048;stroke-width:1.0;"/><text fill="#000000" font-family="sans-serif" font-size="14" lengthAdjust="spacing" textLength="127" x="411" y="388.1826">impBottom() : void</text><ellipse cx="402" cy="401.1328" fill="#84BE84" rx="3" ry="3" style="stroke:#038048;stroke-width:1.0;"/><text fill="#000000" font-family="sans-serif" font-size="14" lengthAdjust="spacing" textLength="174" x="411" y="404.4795">impSetOrigin(Point) : void</text><ellipse cx="402" cy="417.4297" fill="#84BE84" rx="3" ry="3" style="stroke:#038048;stroke-width:1.0;"/><text fill="#000000" font-family="sans-serif" font-size="14" lengthAdjust="spacing" textLength="178" x="411" y="420.7764">impSetExtent(Point) : void</text><ellipse cx="402" cy="433.7266" fill="#84BE84" rx="3" ry="3" style="stroke:#038048;stroke-width:1.0;"/><text fill="#000000" font-family="sans-serif" font-size="14" lengthAdjust="spacing" textLength="308" x="411" y="437.0732">deviceRect(Coord,Coord,Coord,Coord) : void</text><ellipse cx="402" cy="450.0234" fill="#84BE84" rx="3" ry="3" style="stroke:#038048;stroke-width:1.0;"/><text fill="#000000" font-family="sans-serif" font-size="14" lengthAdjust="spacing" textLength="258" x="411" y="453.3701">deviceText(String,Coord,Coord) : void</text><ellipse cx="402" cy="466.3203" fill="#84BE84" rx="3" ry="3" style="stroke:#038048;stroke-width:1.0;"/><text fill="#000000" font-family="sans-serif" font-size="14" lengthAdjust="spacing" textLength="276" x="411" y="469.667">deviceBitmap(String,Coord,Coord) : void</text><ellipse cx="402" cy="482.6172" fill="#84BE84" rx="3" ry="3" style="stroke:#038048;stroke-width:1.0;"/><text fill="#000000" font-family="sans-serif" font-size="14" lengthAdjust="spacing" textLength="181" x="411" y="485.9639">event_loop(Window) : void</text></g><!--class XWindowImp--><g id="elem_XWindowImp"><rect codeLine="11" fill="#F1F1F1" height="210.9688" id="XWindowImp" rx="2.5" ry="2.5" style="stroke:#181818;stroke-width:0.5;" width="334" x="840" y="44.2969"/><ellipse cx="958.75" cy="60.2969" fill="#ADD1B2" rx="11" ry="11" style="stroke:#181818;stroke-width:1.0;"/><path d="M961.7188,65.9375 Q961.1406,66.2344 960.5,66.375 Q959.8594,66.5313 959.1563,66.5313 Q956.6563,66.5313 955.3281,64.8906 Q954.0156,63.2344 954.0156,60.1094 Q954.0156,56.9844 955.3281,55.3281 Q956.6563,53.6719 959.1563,53.6719 Q959.8594,53.6719 960.5,53.8281 Q961.1563,53.9844 961.7188,54.2813 L961.7188,57 Q961.0938,56.4219 960.5,56.1563 Q959.9063,55.875 959.2813,55.875 Q957.9375,55.875 957.25,56.9531 Q956.5625,58.0156 956.5625,60.1094 Q956.5625,62.2031 957.25,63.2813 Q957.9375,64.3438 959.2813,64.3438 Q959.9063,64.3438 960.5,64.0781 Q961.0938,63.7969 961.7188,63.2188 L961.7188,65.9375 Z " fill="#000000"/><text fill="#000000" font-family="sans-serif" font-size="14" lengthAdjust="spacing" textLength="88" x="979.25" y="65.1436">XWindowImp</text><line style="stroke:#181818;stroke-width:0.5;" x1="841" x2="1173" y1="76.2969" y2="76.2969"/><line style="stroke:#181818;stroke-width:0.5;" x1="841" x2="1173" y1="84.2969" y2="84.2969"/><ellipse cx="851" cy="97.9453" fill="#84BE84" rx="3" ry="3" style="stroke:#038048;stroke-width:1.0;"/><text fill="#000000" font-family="sans-serif" font-size="14" lengthAdjust="spacing" textLength="98" x="860" y="101.292">XWindowImp()</text><ellipse cx="851" cy="114.2422" fill="#84BE84" rx="3" ry="3" style="stroke:#038048;stroke-width:1.0;"/><text fill="#000000" font-family="sans-serif" font-size="14" lengthAdjust="spacing" textLength="110" x="860" y="117.5889">~XWindowImp()</text><ellipse cx="851" cy="130.5391" fill="#84BE84" rx="3" ry="3" style="stroke:#038048;stroke-width:1.0;"/><text fill="#000000" font-family="sans-serif" font-size="14" lengthAdjust="spacing" textLength="103" x="860" y="133.8857">impTop() : void</text><ellipse cx="851" cy="146.8359" fill="#84BE84" rx="3" ry="3" style="stroke:#038048;stroke-width:1.0;"/><text fill="#000000" font-family="sans-serif" font-size="14" lengthAdjust="spacing" textLength="127" x="860" y="150.1826">impBottom() : void</text><ellipse cx="851" cy="163.1328" fill="#84BE84" rx="3" ry="3" style="stroke:#038048;stroke-width:1.0;"/><text fill="#000000" font-family="sans-serif" font-size="14" lengthAdjust="spacing" textLength="174" x="860" y="166.4795">impSetOrigin(Point) : void</text><ellipse cx="851" cy="179.4297" fill="#84BE84" rx="3" ry="3" style="stroke:#038048;stroke-width:1.0;"/><text fill="#000000" font-family="sans-serif" font-size="14" lengthAdjust="spacing" textLength="178" x="860" y="182.7764">impSetExtent(Point) : void</text><ellipse cx="851" cy="195.7266" fill="#84BE84" rx="3" ry="3" style="stroke:#038048;stroke-width:1.0;"/><text fill="#000000" font-family="sans-serif" font-size="14" lengthAdjust="spacing" textLength="308" x="860" y="199.0732">deviceRect(Coord,Coord,Coord,Coord) : void</text><ellipse cx="851" cy="212.0234" fill="#84BE84" rx="3" ry="3" style="stroke:#038048;stroke-width:1.0;"/><text fill="#000000" font-family="sans-serif" font-size="14" lengthAdjust="spacing" textLength="258" x="860" y="215.3701">deviceText(String,Coord,Coord) : void</text><ellipse cx="851" cy="228.3203" fill="#84BE84" rx="3" ry="3" style="stroke:#038048;stroke-width:1.0;"/><text fill="#000000" font-family="sans-serif" font-size="14" lengthAdjust="spacing" textLength="276" x="860" y="231.667">deviceBitmap(String,Coord,Coord) : void</text><ellipse cx="851" cy="244.6172" fill="#84BE84" rx="3" ry="3" style="stroke:#038048;stroke-width:1.0;"/><text fill="#000000" font-family="sans-serif" font-size="14" lengthAdjust="spacing" textLength="181" x="860" y="247.9639">event_loop(Window) : void</text></g><!--class XcbWindowImp--><g id="elem_XcbWindowImp"><rect codeLine="12" fill="#F1F1F1" height="210.9688" id="XcbWindowImp" rx="2.5" ry="2.5" style="stroke:#181818;stroke-width:0.5;" width="334" x="840" y="290.2969"/><ellipse cx="950.25" cy="306.2969" fill="#ADD1B2" rx="11" ry="11" style="stroke:#181818;stroke-width:1.0;"/><path d="M953.2188,311.9375 Q952.6406,312.2344 952,312.375 Q951.3594,312.5313 950.6563,312.5313 Q948.1563,312.5313 946.8281,310.8906 Q945.5156,309.2344 945.5156,306.1094 Q945.5156,302.9844 946.8281,301.3281 Q948.1563,299.6719 950.6563,299.6719 Q951.3594,299.6719 952,299.8281 Q952.6563,299.9844 953.2188,300.2813 L953.2188,303 Q952.5938,302.4219 952,302.1563 Q951.4063,301.875 950.7813,301.875 Q949.4375,301.875 948.75,302.9531 Q948.0625,304.0156 948.0625,306.1094 Q948.0625,308.2031 948.75,309.2813 Q949.4375,310.3438 950.7813,310.3438 Q951.4063,310.3438 952,310.0781 Q952.5938,309.7969 953.2188,309.2188 L953.2188,311.9375 Z " fill="#000000"/><text fill="#000000" font-family="sans-serif" font-size="14" lengthAdjust="spacing" textLength="105" x="970.75" y="311.1436">XcbWindowImp</text><line style="stroke:#181818;stroke-width:0.5;" x1="841" x2="1173" y1="322.2969" y2="322.2969"/><line style="stroke:#181818;stroke-width:0.5;" x1="841" x2="1173" y1="330.2969" y2="330.2969"/><ellipse cx="851" cy="343.9453" fill="#84BE84" rx="3" ry="3" style="stroke:#038048;stroke-width:1.0;"/><text fill="#000000" font-family="sans-serif" font-size="14" lengthAdjust="spacing" textLength="115" x="860" y="347.292">XcbWindowImp()</text><ellipse cx="851" cy="360.2422" fill="#84BE84" rx="3" ry="3" style="stroke:#038048;stroke-width:1.0;"/><text fill="#000000" font-family="sans-serif" font-size="14" lengthAdjust="spacing" textLength="127" x="860" y="363.5889">~XcbWindowImp()</text><ellipse cx="851" cy="376.5391" fill="#84BE84" rx="3" ry="3" style="stroke:#038048;stroke-width:1.0;"/><text fill="#000000" font-family="sans-serif" font-size="14" lengthAdjust="spacing" textLength="103" x="860" y="379.8857">impTop() : void</text><ellipse cx="851" cy="392.8359" fill="#84BE84" rx="3" ry="3" style="stroke:#038048;stroke-width:1.0;"/><text fill="#000000" font-family="sans-serif" font-size="14" lengthAdjust="spacing" textLength="127" x="860" y="396.1826">impBottom() : void</text><ellipse cx="851" cy="409.1328" fill="#84BE84" rx="3" ry="3" style="stroke:#038048;stroke-width:1.0;"/><text fill="#000000" font-family="sans-serif" font-size="14" lengthAdjust="spacing" textLength="174" x="860" y="412.4795">impSetOrigin(Point) : void</text><ellipse cx="851" cy="425.4297" fill="#84BE84" rx="3" ry="3" style="stroke:#038048;stroke-width:1.0;"/><text fill="#000000" font-family="sans-serif" font-size="14" lengthAdjust="spacing" textLength="178" x="860" y="428.7764">impSetExtent(Point) : void</text><ellipse cx="851" cy="441.7266" fill="#84BE84" rx="3" ry="3" style="stroke:#038048;stroke-width:1.0;"/><text fill="#000000" font-family="sans-serif" font-size="14" lengthAdjust="spacing" textLength="308" x="860" y="445.0732">deviceRect(Coord,Coord,Coord,Coord) : void</text><ellipse cx="851" cy="458.0234" fill="#84BE84" rx="3" ry="3" style="stroke:#038048;stroke-width:1.0;"/><text fill="#000000" font-family="sans-serif" font-size="14" lengthAdjust="spacing" textLength="258" x="860" y="461.3701">deviceText(String,Coord,Coord) : void</text><ellipse cx="851" cy="474.3203" fill="#84BE84" rx="3" ry="3" style="stroke:#038048;stroke-width:1.0;"/><text fill="#000000" font-family="sans-serif" font-size="14" lengthAdjust="spacing" textLength="276" x="860" y="477.667">deviceBitmap(String,Coord,Coord) : void</text><ellipse cx="851" cy="490.6172" fill="#84BE84" rx="3" ry="3" style="stroke:#038048;stroke-width:1.0;"/><text fill="#000000" font-family="sans-serif" font-size="14" lengthAdjust="spacing" textLength="181" x="860" y="493.9639">event_loop(Window) : void</text></g><!--class View--><g id="elem_View"><rect codeLine="14" fill="#F1F1F1" height="96.8906" id="View" rx="2.5" ry="2.5" style="stroke:#181818;stroke-width:0.5;" width="164" x="56.5" y="868.3369"/><ellipse cx="117.75" cy="884.3369" fill="#A9DCDF" rx="11" ry="11" style="stroke:#181818;stroke-width:1.0;"/><path d="M117.8594,879.6806 L116.7031,884.7588 L119.0313,884.7588 L117.8594,879.6806 Z M116.375,877.4463 L119.3594,877.4463 L122.7188,889.8369 L120.2656,889.8369 L119.5,886.7744 L116.2188,886.7744 L115.4688,889.8369 L113.0313,889.8369 L116.375,877.4463 Z " fill="#000000"/><text fill="#000000" font-family="sans-serif" font-size="14" font-style="italic" lengthAdjust="spacing" textLength="33" x="138.25" y="889.1836">View</text><line style="stroke:#181818;stroke-width:0.5;" x1="57.5" x2="219.5" y1="900.3369" y2="900.3369"/><line style="stroke:#181818;stroke-width:0.5;" x1="57.5" x2="219.5" y1="908.3369" y2="908.3369"/><ellipse cx="67.5" cy="921.9853" fill="#84BE84" rx="3" ry="3" style="stroke:#038048;stroke-width:1.0;"/><text fill="#000000" font-family="sans-serif" font-size="14" lengthAdjust="spacing" textLength="42" x="76.5" y="925.332">View()</text><ellipse cx="67.5" cy="938.2822" fill="#84BE84" rx="3" ry="3" style="stroke:#038048;stroke-width:1.0;"/><text fill="#000000" font-family="sans-serif" font-size="14" lengthAdjust="spacing" textLength="54" x="76.5" y="941.6289">~View()</text><ellipse cx="67.5" cy="954.5791" fill="#84BE84" rx="3" ry="3" style="stroke:#038048;stroke-width:1.0;"/><text fill="#000000" font-family="sans-serif" font-size="14" lengthAdjust="spacing" textLength="138" x="76.5" y="957.9257">draw(Window) : void</text></g><!--class ViewComposite--><g id="elem_ViewComposite"><rect codeLine="15" fill="#F1F1F1" height="162.0781" id="ViewComposite" rx="2.5" ry="2.5" style="stroke:#181818;stroke-width:0.5;" width="173" x="471.5" y="749.7469"/><ellipse cx="501.8" cy="765.7469" fill="#ADD1B2" rx="11" ry="11" style="stroke:#181818;stroke-width:1.0;"/><path d="M504.7688,771.3875 Q504.1906,771.6844 503.55,771.825 Q502.9094,771.9813 502.2063,771.9813 Q499.7063,771.9813 498.3781,770.3406 Q497.0656,768.6844 497.0656,765.5594 Q497.0656,762.4344 498.3781,760.7781 Q499.7063,759.1219 502.2063,759.1219 Q502.9094,759.1219 503.55,759.2781 Q504.2063,759.4344 504.7688,759.7313 L504.7688,762.45 Q504.1438,761.8719 503.55,761.6063 Q502.9563,761.325 502.3313,761.325 Q500.9875,761.325 500.3,762.4031 Q499.6125,763.4656 499.6125,765.5594 Q499.6125,767.6531 500.3,768.7313 Q500.9875,769.7938 502.3313,769.7938 Q502.9563,769.7938 503.55,769.5281 Q504.1438,769.2469 504.7688,768.6688 L504.7688,771.3875 Z " fill="#000000"/><text fill="#000000" font-family="sans-serif" font-size="14" lengthAdjust="spacing" textLength="107" x="519.2" y="770.5936">ViewComposite</text><line style="stroke:#181818;stroke-width:0.5;" x1="472.5" x2="643.5" y1="781.7469" y2="781.7469"/><rect fill="none" height="6" style="stroke:#C82930;stroke-width:1.0;" width="6" x="479.5" y="792.3953"/><text fill="#000000" font-family="sans-serif" font-size="14" lengthAdjust="spacing" textLength="55" x="491.5" y="798.742">children</text><line style="stroke:#181818;stroke-width:0.5;" x1="472.5" x2="643.5" y1="806.0438" y2="806.0438"/><ellipse cx="482.5" cy="819.6922" fill="#84BE84" rx="3" ry="3" style="stroke:#038048;stroke-width:1.0;"/><text fill="#000000" font-family="sans-serif" font-size="14" lengthAdjust="spacing" textLength="117" x="491.5" y="823.0389">ViewComposite()</text><ellipse cx="482.5" cy="835.9891" fill="#84BE84" rx="3" ry="3" style="stroke:#038048;stroke-width:1.0;"/><text fill="#000000" font-family="sans-serif" font-size="14" lengthAdjust="spacing" textLength="129" x="491.5" y="839.3357">~ViewComposite()</text><ellipse cx="482.5" cy="852.2859" fill="#84BE84" rx="3" ry="3" style="stroke:#038048;stroke-width:1.0;"/><text fill="#000000" font-family="sans-serif" font-size="14" lengthAdjust="spacing" textLength="136" x="491.5" y="855.6326">append(View) : void</text><ellipse cx="482.5" cy="868.5828" fill="#84BE84" rx="3" ry="3" style="stroke:#038048;stroke-width:1.0;"/><text fill="#000000" font-family="sans-serif" font-size="14" lengthAdjust="spacing" textLength="142" x="491.5" y="871.9295">prepend(View) : void</text><ellipse cx="482.5" cy="884.8797" fill="#84BE84" rx="3" ry="3" style="stroke:#038048;stroke-width:1.0;"/><text fill="#000000" font-family="sans-serif" font-size="14" lengthAdjust="spacing" textLength="147" x="491.5" y="888.2264">insert(View, int) : void</text><ellipse cx="482.5" cy="901.1766" fill="#84BE84" rx="3" ry="3" style="stroke:#038048;stroke-width:1.0;"/><text fill="#000000" font-family="sans-serif" font-size="14" lengthAdjust="spacing" textLength="129" x="491.5" y="904.5232">getChild(int) : View</text></g><!--class ViewRectangle--><g id="elem_ViewRectangle"><rect codeLine="16" fill="#F1F1F1" height="113.1875" id="ViewRectangle" rx="2.5" ry="2.5" style="stroke:#181818;stroke-width:0.5;" width="164" x="476" y="947.1869"/><ellipse cx="504.5" cy="963.1869" fill="#ADD1B2" rx="11" ry="11" style="stroke:#181818;stroke-width:1.0;"/><path d="M507.4688,968.8275 Q506.8906,969.1244 506.25,969.265 Q505.6094,969.4213 504.9063,969.4213 Q502.4063,969.4213 501.0781,967.7806 Q499.7656,966.1244 499.7656,962.9994 Q499.7656,959.8744 501.0781,958.2181 Q502.4063,956.5619 504.9063,956.5619 Q505.6094,956.5619 506.25,956.7181 Q506.9063,956.8744 507.4688,957.1713 L507.4688,959.89 Q506.8438,959.3119 506.25,959.0463 Q505.6563,958.765 505.0313,958.765 Q503.6875,958.765 503,959.8431 Q502.3125,960.9056 502.3125,962.9994 Q502.3125,965.0931 503,966.1713 Q503.6875,967.2338 505.0313,967.2338 Q505.6563,967.2338 506.25,966.9681 Q506.8438,966.6869 507.4688,966.1088 L507.4688,968.8275 Z " fill="#000000"/><text fill="#000000" font-family="sans-serif" font-size="14" lengthAdjust="spacing" textLength="102" x="521.5" y="968.0336">ViewRectangle</text><line style="stroke:#181818;stroke-width:0.5;" x1="477" x2="639" y1="979.1869" y2="979.1869"/><rect fill="none" height="6" style="stroke:#C82930;stroke-width:1.0;" width="6" x="484" y="989.8353"/><text fill="#000000" font-family="sans-serif" font-size="14" lengthAdjust="spacing" textLength="72" x="496" y="996.182">rect : Rect</text><line style="stroke:#181818;stroke-width:0.5;" x1="477" x2="639" y1="1003.4838" y2="1003.4838"/><ellipse cx="487" cy="1017.1322" fill="#84BE84" rx="3" ry="3" style="stroke:#038048;stroke-width:1.0;"/><text fill="#000000" font-family="sans-serif" font-size="14" lengthAdjust="spacing" textLength="112" x="496" y="1020.4789">ViewRectangle()</text><ellipse cx="487" cy="1033.4291" fill="#84BE84" rx="3" ry="3" style="stroke:#038048;stroke-width:1.0;"/><text fill="#000000" font-family="sans-serif" font-size="14" lengthAdjust="spacing" textLength="124" x="496" y="1036.7757">~ViewRectangle()</text><ellipse cx="487" cy="1049.7259" fill="#84BE84" rx="3" ry="3" style="stroke:#038048;stroke-width:1.0;"/><text fill="#000000" font-family="sans-serif" font-size="14" lengthAdjust="spacing" textLength="138" x="496" y="1053.0726">draw(Window) : void</text></g><!--class ViewString--><g id="elem_ViewString"><rect codeLine="17" fill="#F1F1F1" height="129.4844" id="ViewString" rx="2.5" ry="2.5" style="stroke:#181818;stroke-width:0.5;" width="164" x="476" y="1095.0469"/><ellipse cx="518" cy="1111.0469" fill="#ADD1B2" rx="11" ry="11" style="stroke:#181818;stroke-width:1.0;"/><path d="M520.9688,1116.6875 Q520.3906,1116.9844 519.75,1117.125 Q519.1094,1117.2813 518.4063,1117.2813 Q515.9063,1117.2813 514.5781,1115.6406 Q513.2656,1113.9844 513.2656,1110.8594 Q513.2656,1107.7344 514.5781,1106.0781 Q515.9063,1104.4219 518.4063,1104.4219 Q519.1094,1104.4219 519.75,1104.5781 Q520.4063,1104.7344 520.9688,1105.0313 L520.9688,1107.75 Q520.3438,1107.1719 519.75,1106.9063 Q519.1563,1106.625 518.5313,1106.625 Q517.1875,1106.625 516.5,1107.7031 Q515.8125,1108.7656 515.8125,1110.8594 Q515.8125,1112.9531 516.5,1114.0313 Q517.1875,1115.0938 518.5313,1115.0938 Q519.1563,1115.0938 519.75,1114.8281 Q520.3438,1114.5469 520.9688,1113.9688 L520.9688,1116.6875 Z " fill="#000000"/><text fill="#000000" font-family="sans-serif" font-size="14" lengthAdjust="spacing" textLength="72" x="538" y="1115.8936">ViewString</text><line style="stroke:#181818;stroke-width:0.5;" x1="477" x2="639" y1="1127.0469" y2="1127.0469"/><rect fill="none" height="6" style="stroke:#C82930;stroke-width:1.0;" width="6" x="484" y="1137.6953"/><text fill="#000000" font-family="sans-serif" font-size="14" lengthAdjust="spacing" textLength="89" x="496" y="1144.042">value : String</text><rect fill="none" height="6" style="stroke:#C82930;stroke-width:1.0;" width="6" x="484" y="1153.9922"/><text fill="#000000" font-family="sans-serif" font-size="14" lengthAdjust="spacing" textLength="102" x="496" y="1160.3389">location : Point</text><line style="stroke:#181818;stroke-width:0.5;" x1="477" x2="639" y1="1167.6406" y2="1167.6406"/><ellipse cx="487" cy="1181.2891" fill="#84BE84" rx="3" ry="3" style="stroke:#038048;stroke-width:1.0;"/><text fill="#000000" font-family="sans-serif" font-size="14" lengthAdjust="spacing" textLength="82" x="496" y="1184.6357">ViewString()</text><ellipse cx="487" cy="1197.5859" fill="#84BE84" rx="3" ry="3" style="stroke:#038048;stroke-width:1.0;"/><text fill="#000000" font-family="sans-serif" font-size="14" lengthAdjust="spacing" textLength="94" x="496" y="1200.9326">~ViewString()</text><ellipse cx="487" cy="1213.8828" fill="#84BE84" rx="3" ry="3" style="stroke:#038048;stroke-width:1.0;"/><text fill="#000000" font-family="sans-serif" font-size="14" lengthAdjust="spacing" textLength="138" x="496" y="1217.2295">draw(Window) : void</text></g><!--class WindowSystemFactory--><g id="elem_WindowSystemFactory"><rect codeLine="19" fill="#F1F1F1" height="186.6406" id="WindowSystemFactory" rx="2.5" ry="2.5" style="stroke:#181818;stroke-width:0.5;" width="444" x="336" y="528.4669"/><ellipse cx="476.25" cy="548.5997" fill="#ADD1B2" rx="11" ry="11" style="stroke:#181818;stroke-width:1.0;"/><path d="M479.2188,554.2403 Q478.6406,554.5372 478,554.6778 Q477.3594,554.8341 476.6563,554.8341 Q474.1563,554.8341 472.8281,553.1934 Q471.5156,551.5372 471.5156,548.4122 Q471.5156,545.2872 472.8281,543.6309 Q474.1563,541.9747 476.6563,541.9747 Q477.3594,541.9747 478,542.1309 Q478.6563,542.2872 479.2188,542.5841 L479.2188,545.3028 Q478.5938,544.7247 478,544.4591 Q477.4063,544.1778 476.7813,544.1778 Q475.4375,544.1778 474.75,545.2559 Q474.0625,546.3184 474.0625,548.4122 Q474.0625,550.5059 474.75,551.5841 Q475.4375,552.6466 476.7813,552.6466 Q477.4063,552.6466 478,552.3809 Q478.5938,552.0997 479.2188,551.5216 L479.2188,554.2403 Z " fill="#000000"/><text fill="#000000" font-family="sans-serif" font-size="12" font-style="italic" lengthAdjust="spacing" textLength="71" x="538.75" y="544.6055">&#171;singleton&#187;</text><text fill="#000000" font-family="sans-serif" font-size="14" lengthAdjust="spacing" textLength="155" x="496.75" y="560.4307">WindowSystemFactory</text><line style="stroke:#181818;stroke-width:0.5;" x1="337" x2="779" y1="568.7325" y2="568.7325"/><rect fill="none" height="6" style="stroke:#C82930;stroke-width:1.0;" width="6" x="344" y="579.3809"/><text fill="#000000" font-family="sans-serif" font-size="14" lengthAdjust="spacing" text-decoration="underline" textLength="227" x="356" y="585.7276">instance : WindowSystemFactory</text><rect fill="none" height="6" style="stroke:#C82930;stroke-width:1.0;" width="6" x="344" y="595.6778"/><text fill="#000000" font-family="sans-serif" font-size="14" lengthAdjust="spacing" text-decoration="underline" textLength="253" x="356" y="602.0245">registry : WindowSystemFactory[1..*]</text><line style="stroke:#181818;stroke-width:0.5;" x1="337" x2="779" y1="609.3263" y2="609.3263"/><polygon fill="#FFFF44" points="347,617.9747,351,621.9747,347,625.9747,343,621.9747" style="stroke:#B38D22;stroke-width:1.0;"/><text fill="#000000" font-family="sans-serif" font-size="14" lengthAdjust="spacing" textLength="165" x="356" y="626.3214">WindowSystemFactory()</text><polygon fill="#FFFF44" points="347,634.2716,351,638.2716,347,642.2716,343,638.2716" style="stroke:#B38D22;stroke-width:1.0;"/><text fill="#000000" font-family="sans-serif" font-size="14" lengthAdjust="spacing" textLength="177" x="356" y="642.6182">~WindowSystemFactory()</text><ellipse cx="347" cy="655.5684" fill="#84BE84" rx="3" ry="3" style="stroke:#038048;stroke-width:1.0;"/><text fill="#000000" font-family="sans-serif" font-size="14" lengthAdjust="spacing" text-decoration="underline" textLength="325" x="356" y="658.9151">instance(name: String) : WindowSystemFactory</text><ellipse cx="347" cy="671.8653" fill="#84BE84" rx="3" ry="3" style="stroke:#038048;stroke-width:1.0;"/><text fill="#000000" font-family="sans-serif" font-size="14" lengthAdjust="spacing" text-decoration="underline" textLength="418" x="356" y="675.212">register(name : String, factory : WindowSystemFactory) : void</text><ellipse cx="347" cy="688.1622" fill="#84BE84" rx="3" ry="3" style="stroke:#038048;stroke-width:1.0;"/><text fill="#000000" font-family="sans-serif" font-size="14" lengthAdjust="spacing" text-decoration="underline" textLength="162" x="356" y="691.5089">unregister(String) : void</text><ellipse cx="347" cy="704.4591" fill="#84BE84" rx="3" ry="3" style="stroke:#038048;stroke-width:1.0;"/><text fill="#000000" font-family="sans-serif" font-size="14" lengthAdjust="spacing" textLength="108" x="356" y="707.8057">createWindow()</text></g><!--class XWindowSystemFactory--><g id="elem_XWindowSystemFactory"><rect codeLine="20" fill="#F1F1F1" height="129.4844" id="XWindowSystemFactory" rx="2.5" ry="2.5" style="stroke:#181818;stroke-width:0.5;" width="263" x="875.5" y="550.0469"/><ellipse cx="920.75" cy="566.0469" fill="#ADD1B2" rx="11" ry="11" style="stroke:#181818;stroke-width:1.0;"/><path d="M923.7188,571.6875 Q923.1406,571.9844 922.5,572.125 Q921.8594,572.2813 921.1563,572.2813 Q918.6563,572.2813 917.3281,570.6406 Q916.0156,568.9844 916.0156,565.8594 Q916.0156,562.7344 917.3281,561.0781 Q918.6563,559.4219 921.1563,559.4219 Q921.8594,559.4219 922.5,559.5781 Q923.1563,559.7344 923.7188,560.0313 L923.7188,562.75 Q923.0938,562.1719 922.5,561.9063 Q921.9063,561.625 921.2813,561.625 Q919.9375,561.625 919.25,562.7031 Q918.5625,563.7656 918.5625,565.8594 Q918.5625,567.9531 919.25,569.0313 Q919.9375,570.0938 921.2813,570.0938 Q921.9063,570.0938 922.5,569.8281 Q923.0938,569.5469 923.7188,568.9688 L923.7188,571.6875 Z " fill="#000000"/><text fill="#000000" font-family="sans-serif" font-size="14" lengthAdjust="spacing" textLength="164" x="941.25" y="570.8936">XWindowSystemFactory</text><line style="stroke:#181818;stroke-width:0.5;" x1="876.5" x2="1137.5" y1="582.0469" y2="582.0469"/><ellipse cx="886.5" cy="595.6953" fill="none" rx="3" ry="3" style="stroke:#038048;stroke-width:1.0;"/><text fill="#000000" font-family="sans-serif" font-size="14" lengthAdjust="spacing" text-decoration="underline" textLength="93" x="895.5" y="599.042">NAME : String</text><line style="stroke:#181818;stroke-width:0.5;" x1="876.5" x2="1137.5" y1="606.3438" y2="606.3438"/><polygon fill="#FFFF44" points="886.5,614.9922,890.5,618.9922,886.5,622.9922,882.5,618.9922" style="stroke:#B38D22;stroke-width:1.0;"/><text fill="#000000" font-family="sans-serif" font-size="14" lengthAdjust="spacing" textLength="174" x="895.5" y="623.3389">XWindowSystemFactory()</text><polygon fill="#FFFF44" points="886.5,631.2891,890.5,635.2891,886.5,639.2891,882.5,635.2891" style="stroke:#B38D22;stroke-width:1.0;"/><text fill="#000000" font-family="sans-serif" font-size="14" lengthAdjust="spacing" textLength="186" x="895.5" y="639.6357">~XWindowSystemFactory()</text><ellipse cx="886.5" cy="652.5859" fill="#84BE84" rx="3" ry="3" style="stroke:#038048;stroke-width:1.0;"/><text fill="#000000" font-family="sans-serif" font-size="14" lengthAdjust="spacing" text-decoration="underline" textLength="237" x="895.5" y="655.9326">instance() : WindowSystemFactory</text><ellipse cx="886.5" cy="668.8828" fill="#84BE84" rx="3" ry="3" style="stroke:#038048;stroke-width:1.0;"/><text fill="#000000" font-family="sans-serif" font-size="14" lengthAdjust="spacing" textLength="108" x="895.5" y="672.2295">createWindow()</text></g><!--class XcbWindowSystemFactory--><g id="elem_XcbWindowSystemFactory"><rect codeLine="21" fill="#F1F1F1" height="129.4844" id="XcbWindowSystemFactory" rx="2.5" ry="2.5" style="stroke:#181818;stroke-width:0.5;" width="263" x="875.5" y="714.0469"/><ellipse cx="913" cy="730.0469" fill="#ADD1B2" rx="11" ry="11" style="stroke:#181818;stroke-width:1.0;"/><path d="M915.9688,735.6875 Q915.3906,735.9844 914.75,736.125 Q914.1094,736.2813 913.4063,736.2813 Q910.9063,736.2813 909.5781,734.6406 Q908.2656,732.9844 908.2656,729.8594 Q908.2656,726.7344 909.5781,725.0781 Q910.9063,723.4219 913.4063,723.4219 Q914.1094,723.4219 914.75,723.5781 Q915.4063,723.7344 915.9688,724.0313 L915.9688,726.75 Q915.3438,726.1719 914.75,725.9063 Q914.1563,725.625 913.5313,725.625 Q912.1875,725.625 911.5,726.7031 Q910.8125,727.7656 910.8125,729.8594 Q910.8125,731.9531 911.5,733.0313 Q912.1875,734.0938 913.5313,734.0938 Q914.1563,734.0938 914.75,733.8281 Q915.3438,733.5469 915.9688,732.9688 L915.9688,735.6875 Z " fill="#000000"/><text fill="#000000" font-family="sans-serif" font-size="14" lengthAdjust="spacing" textLength="181" x="932" y="734.8936">XcbWindowSystemFactory</text><line style="stroke:#181818;stroke-width:0.5;" x1="876.5" x2="1137.5" y1="746.0469" y2="746.0469"/><ellipse cx="886.5" cy="759.6953" fill="none" rx="3" ry="3" style="stroke:#038048;stroke-width:1.0;"/><text fill="#000000" font-family="sans-serif" font-size="14" lengthAdjust="spacing" text-decoration="underline" textLength="93" x="895.5" y="763.042">NAME : String</text><line style="stroke:#181818;stroke-width:0.5;" x1="876.5" x2="1137.5" y1="770.3438" y2="770.3438"/><polygon fill="#FFFF44" points="886.5,778.9922,890.5,782.9922,886.5,786.9922,882.5,782.9922" style="stroke:#B38D22;stroke-width:1.0;"/><text fill="#000000" font-family="sans-serif" font-size="14" lengthAdjust="spacing" textLength="191" x="895.5" y="787.3389">XcbWindowSystemFactory()</text><polygon fill="#FFFF44" points="886.5,795.2891,890.5,799.2891,886.5,803.2891,882.5,799.2891" style="stroke:#B38D22;stroke-width:1.0;"/><text fill="#000000" font-family="sans-serif" font-size="14" lengthAdjust="spacing" textLength="203" x="895.5" y="803.6357">~XcbWindowSystemFactory()</text><ellipse cx="886.5" cy="816.5859" fill="#84BE84" rx="3" ry="3" style="stroke:#038048;stroke-width:1.0;"/><text fill="#000000" font-family="sans-serif" font-size="14" lengthAdjust="spacing" text-decoration="underline" textLength="237" x="895.5" y="819.9326">instance() : WindowSystemFactory</text><ellipse cx="886.5" cy="832.8828" fill="#84BE84" rx="3" ry="3" style="stroke:#038048;stroke-width:1.0;"/><text fill="#000000" font-family="sans-serif" font-size="14" lengthAdjust="spacing" textLength="108" x="895.5" y="836.2295">createWindow()</text></g><g id="elem_nGeneral"><path d="M17.5,47.2569 L17.5,178.3194 L259.5,178.3194 L259.5,57.2569 L249.5,47.2569 L17.5,47.2569 " fill="#FEFFDD" style="stroke:#181818;stroke-width:0.5;"/><path d="M249.5,47.2569 L249.5,57.2569 L259.5,57.2569 L249.5,47.2569 " fill="#FEFFDD" style="stroke:#181818;stroke-width:1.0;"/><text fill="#000000" font-family="sans-serif" font-size="13" lengthAdjust="spacing" textLength="217" x="23.5" y="64.3238">X server interfaces has been used</text><text fill="#000000" font-family="sans-serif" font-size="13" lengthAdjust="spacing" textLength="184" x="23.5" y="79.4566">instead of window system for</text><text fill="#000000" font-family="sans-serif" font-size="13" lengthAdjust="spacing" textLength="74" x="23.5" y="94.5894">simplelicity.</text><text fill="#000000" font-family="sans-serif" font-size="13" lengthAdjust="spacing" textLength="4" x="23.5" y="109.7222">&#160;</text><text fill="#000000" font-family="sans-serif" font-size="13" lengthAdjust="spacing" textLength="209" x="23.5" y="124.855">Application initialization registers</text><text fill="#000000" font-family="sans-serif" font-size="13" lengthAdjust="spacing" textLength="198" x="23.5" y="139.9878">all avaiable Factories, and then</text><text fill="#000000" font-family="sans-serif" font-size="13" lengthAdjust="spacing" textLength="195" x="23.5" y="155.1206">creates a new window, and run</text><text fill="#000000" font-family="sans-serif" font-size="13" lengthAdjust="spacing" textLength="74" x="23.5" y="170.2535">event_loop.</text></g><g id="elem_nViewDraw"><path d="M492.5,90.2169 L492.5,115.3497 L623.5,115.3497 L623.5,100.2169 L613.5,90.2169 L492.5,90.2169 " fill="#FEFFDD" style="stroke:#181818;stroke-width:0.5;"/><path d="M613.5,90.2169 L613.5,100.2169 L623.5,100.2169 L613.5,90.2169 " fill="#FEFFDD" style="stroke:#181818;stroke-width:1.0;"/><text fill="#000000" font-family="sans-serif" font-size="13" lengthAdjust="spacing" textLength="110" x="498.5" y="107.2838">view-&gt;draw(this);</text></g><!--reverse link Window to WindowApplication--><g id="link_Window_WindowApplication"><path codeLine="123" d="M293.86,230.2569 C353.72,230.2569 404.54,230.2569 459.23,230.2569 " fill="none" id="Window-backto-WindowApplication" style="stroke:#181818;stroke-width:1.0;"/><polygon fill="none" points="275.86,230.2569,293.86,236.2569,293.86,224.2569,275.86,230.2569" style="stroke:#181818;stroke-width:1.0;"/></g><!--reverse link WindowImp to XWindowImp--><g id="link_WindowImp_XWindowImp"><path codeLine="124" d="M690.75,263.8869 C690.75,246.0869 690.75,251.2469 690.75,251.2469 C690.75,251.2469 763.76,251.2469 839.61,251.2469 " fill="none" id="WindowImp-backto-XWindowImp" style="stroke:#181818;stroke-width:1.0;"/><polygon fill="none" points="690.75,281.8869,696.75,263.8869,684.75,263.8869,690.75,281.8869" style="stroke:#181818;stroke-width:1.0;"/></g><!--reverse link WindowImp to XcbWindowImp--><g id="link_WindowImp_XcbWindowImp"><path codeLine="125" d="M743.19,391.7869 C780.59,391.7869 802.26,391.7869 839.67,391.7869 " fill="none" id="WindowImp-backto-XcbWindowImp" style="stroke:#181818;stroke-width:1.0;"/><polygon fill="none" points="725.19,391.7869,743.19,397.7869,743.19,385.7869,725.19,391.7869" style="stroke:#181818;stroke-width:1.0;"/></g><!--reverse link View to ViewComposite--><g id="link_View_ViewComposite"><path codeLine="127" d="M238.88,890.0769 C311.06,890.0769 397.63,890.0769 471.12,890.0769 " fill="none" id="View-backto-ViewComposite" style="stroke:#181818;stroke-width:1.0;"/><polygon fill="none" points="220.88,890.0769,238.88,896.0769,238.88,884.0769,220.88,890.0769" style="stroke:#181818;stroke-width:1.0;"/></g><!--reverse link View to ViewRectangle--><g id="link_View_ViewRectangle"><path codeLine="128" d="M238.88,956.2069 C312.61,956.2069 402.14,956.2069 475.81,956.2069 " fill="none" id="View-backto-ViewRectangle" style="stroke:#181818;stroke-width:1.0;"/><polygon fill="none" points="220.88,956.2069,238.88,962.2069,238.88,950.2069,220.88,956.2069" style="stroke:#181818;stroke-width:1.0;"/></g><!--reverse link View to ViewString--><g id="link_View_ViewString"><path codeLine="129" d="M138.5,983.6669 C138.5,1054.6269 138.5,1159.7869 138.5,1159.7869 C138.5,1159.7869 353.45,1159.7869 475.62,1159.7869 " fill="none" id="View-backto-ViewString" style="stroke:#181818;stroke-width:1.0;"/><polygon fill="none" points="138.5,965.6669,132.5,983.6669,144.5,983.6669,138.5,965.6669" style="stroke:#181818;stroke-width:1.0;"/></g><!--reverse link WindowSystemFactory to XWindowSystemFactory--><g id="link_WindowSystemFactory_XWindowSystemFactory"><path codeLine="131" d="M798.2,614.7869 C830.64,614.7869 845.16,614.7869 875.02,614.7869 " fill="none" id="WindowSystemFactory-backto-XWindowSystemFactory" style="stroke:#181818;stroke-width:1.0;"/><polygon fill="none" points="780.2,614.7869,798.2,620.7869,798.2,608.7869,780.2,614.7869" style="stroke:#181818;stroke-width:1.0;"/></g><!--reverse link WindowSystemFactory to XcbWindowSystemFactory--><g id="link_WindowSystemFactory_XcbWindowSystemFactory"><path codeLine="132" d="M712.25,733.1369 C712.25,733.1369 796.66,732.4269 875.14,732.4269 " fill="none" id="WindowSystemFactory-backto-XcbWindowSystemFactory" style="stroke:#181818;stroke-width:1.0;"/><polygon fill="none" points="712.25,715.1369,706.25,733.1369,718.25,733.1369,712.25,715.1369" style="stroke:#181818;stroke-width:1.0;"/></g><!--link Window to WindowImp--><g id="link_Window_WindowImp"><path codeLine="134" d="M287.86,387.7869 C324.54,387.7869 346.58,387.7869 384.68,387.7869 " fill="none" id="Window-WindowImp" style="stroke:#181818;stroke-width:1.0;stroke-dasharray:7.0,7.0;"/><polygon fill="none" points="275.86,387.7869,281.86,391.7869,287.86,387.7869,281.86,383.7869,275.86,387.7869" style="stroke:#181818;stroke-width:1.0;"/><polygon fill="#181818" points="390.68,387.7869,381.68,383.7869,385.68,387.7869,381.68,391.7869,390.68,387.7869" style="stroke:#181818;stroke-width:1.0;"/><text fill="#000000" font-family="sans-serif" font-size="13" lengthAdjust="spacing" textLength="101" x="276.1535" y="399.8653">implementation</text></g><!--link Window to View--><g id="link_Window_View"><path codeLine="135" d="M138.5,562.0969 C138.5,669.2669 138.5,792.8869 138.5,861.9169 " fill="none" id="Window-to-View" style="stroke:#181818;stroke-width:1.0;stroke-dasharray:7.0,7.0;"/><polygon fill="#181818" points="138.5,867.9169,142.5,858.9169,138.5,862.9169,134.5,858.9169,138.5,867.9169" style="stroke:#181818;stroke-width:1.0;"/><text fill="#000000" font-family="sans-serif" font-size="13" lengthAdjust="spacing" textLength="30" x="107.5" y="728.0738">draw</text></g><!--link Window to WindowSystemFactory--><g id="link_Window_WindowSystemFactory"><path codeLine="136" d="M275.86,545.3769 C295.1,545.3769 309.26,545.3769 329.58,545.3769 " fill="none" id="Window-to-WindowSystemFactory" style="stroke:#181818;stroke-width:1.0;stroke-dasharray:7.0,7.0;"/><polygon fill="#181818" points="335.58,545.3769,326.58,541.3769,330.58,545.3769,326.58,549.3769,335.58,545.3769" style="stroke:#181818;stroke-width:1.0;"/><text fill="#000000" font-family="sans-serif" font-size="13" lengthAdjust="spacing" textLength="30" x="274.72" y="558.4438">uses</text></g><!--link Window to nViewDraw--><g id="link_Window_nViewDraw"><path codeLine="152" d="M267.75,309.3969 C267.75,270.6969 267.75,102.7869 267.75,102.7869 C267.75,102.7869 406.5,102.7869 492.14,102.7869 " fill="none" id="Window-nViewDraw" style="stroke:#181818;stroke-width:1.0;stroke-dasharray:7.0,7.0;"/><text fill="#000000" font-family="sans-serif" font-size="13" lengthAdjust="spacing" textLength="101" x="277.64" y="115.8538">implementation</text></g><!--SRC=[dLVVZzis37xtNo7qNf8b5s3Os-rmGE_M3WFsezWLgu6Y67GsamYL9KDISitQ-cyV9JcsPSjESdb8BFAZJF9ZHCemmu7SAvPlW3pIeiJLWymXIJYi3J6IABRP6f8p1PbXKYJwCnCbLRGWd0amXnA8L6OhauG-QQDePaZ6gTRa0nEvV4wwYzTboLb6tJvn-6z5MLka0q7sr8hwrlymEBxAFZx8efIQ6UZ8_iO0gDZmhkpHA2OsIU3auq4RADxYtb8ToEsjPjR8I75t5xeM0FjEXih42yaDkMOsnmK8uzA0aZQe5fH9OH2YyTb5rcWM_cbcfVEEE5SKW_P6ipbAzfBb7RqiGSJa6PSQOWg6Bh3r8QRAOKAfmVo59SF4x9ramiGHRxvOHqSHYhAuKrm-WugwXE7_ZkNejroERMnXjWng69d2lPFyi95r61z_Mgr- -BGau_3tyCNCV3cDxdkr0TEmxSA8S6z1bbsdT-GdWpzFMmWTOL0JFN0rH8yWuuMKD8vQ3pinX8fgJBF0gdylopvrhV9U6YEBSVtZP5a5k8dYgd4vx5a6hX0Uf5JvSl0zPTTb-aoJUsOAMfvj17iCu5ykCM5UtlAG1i2qc-zGLKte-cIafzX8pwKZFPUFzAM4f2zW97qH9UdPd7GQasEbixQvxwch4_e1EqFzW9yXP9IXA3JEKGzw2KjHqvCyHQtEOAfdDy6LFICjn9-mpRBghUqf6BLj1WlNfRUCvmh4GBC81FM-0Q0wYQ0bjkpS7-f75mQWKi4PA2OqAED0OGiR8B7tFDYWPZNAzvzWUhA1sraGVwrie5m4WZgo052TH8octnU1TM5F-SvYwmakL7BPD3HNqg5wqQxgbxUgQa8NzIesCw87NxMTxxBlc6vy4XaqpJuS34-PAzWm77GFSVEFFzgnP6IJguYuQSi3S7K9UZ48RoPe0KSsvd5loSdTVBGuujdT6dANPDrW8plqUkZuxZlHxD_wEMMPAQ06webxtZJVqJVy-VgFDsr9Zg2lqdYcn-3LPVW8DQDqfEV67RtKJ4G-Xh-AQxfDC1B_nJONvM1qatuMwWdzzjlrTUGwspOW1qZxatsh2Qwnhk4uUNXj3UNjrJMK7w-lqOjhnutJPqxeMlpo-YgykhuYHAvMTyCx3ChgFcfFp4RQGFkPtcdGII8ajY2gYVWL12ZA4uAVb63dseEoNGiK7WEWoHP1Jm32skN4mIpDG7CYr-JPlqsxTv2rL1wXdU_85ZE7bPEuh-xbXmbc6ENiFxyydXNQ8oddXEufeq_Oehpl3FIIK94JiqLl7ChNZ2QK24o0zyLZrAw6jCF9Ai7MJMpSdUXjvdwnQRFOFIwkxrpVCLkcvp-t5WsGh7RbgixipKtt-eQf3HbBaly1]--></g></svg>