<svg xmlns="http://www.w3.org/2000/svg" xmlns:xlink="http://www.w3.org/1999/xlink" contentStyleType="text/css" height="1612px" preserveAspectRatio="none" style="width:1210px;height:1612px;background:#FFFFFF;" version="1.1" viewBox="0 0 1210 1612" width="1210px" zoomAndPan="magnify"><defs/><g><text fill="#000000" font-family="sans-serif" font-size="14" font-weight="bold" lengthAdjust="spacing" textLength="159.5029" x="518.6218" y="22.9951">Bridge Sample Code</text><!--class Window--><g id="elem_Window"><rect codeLine="8" fill="#F1F1F1" height="341.3438" id="Window" rx="2.5" ry="2.5" style="stroke:#181818;stroke-width:0.5;" width="268.4912" x="9" y="727.3269"/><ellipse cx="111.2417" cy="743.3269" fill="#A9DCDF" rx="11" ry="11" style="stroke:#181818;stroke-width:1.0;"/><path d="M111.3511,738.6706 L110.1948,743.7488 L112.5229,743.7488 L111.3511,738.6706 Z M109.8667,736.4363 L112.8511,736.4363 L116.2104,748.8269 L113.7573,748.8269 L112.9917,745.7644 L109.7104,745.7644 L108.9604,748.8269 L106.5229,748.8269 L109.8667,736.4363 Z " fill="#000000"/><text fill="#000000" font-family="sans-serif" font-size="14" font-style="italic" lengthAdjust="spacing" textLength="55.5078" x="131.7417" y="748.1736">Window</text><line style="stroke:#181818;stroke-width:0.5;" x1="10" x2="276.4912" y1="759.3269" y2="759.3269"/><rect fill="none" height="6" style="stroke:#C82930;stroke-width:1.0;" width="6" x="17" y="769.9753"/><text fill="#000000" font-family="sans-serif" font-size="14" lengthAdjust="spacing" textLength="206.7051" x="29" y="776.322">implementation : WindowImp</text><rect fill="none" height="6" style="stroke:#C82930;stroke-width:1.0;" width="6" x="17" y="786.2722"/><text fill="#000000" font-family="sans-serif" font-size="14" lengthAdjust="spacing" textLength="108.042" x="29" y="792.6189">contents : View</text><line style="stroke:#181818;stroke-width:0.5;" x1="10" x2="276.4912" y1="799.9206" y2="799.9206"/><ellipse cx="20" cy="813.5691" fill="#84BE84" rx="3" ry="3" style="stroke:#038048;stroke-width:1.0;"/><text fill="#000000" font-family="sans-serif" font-size="14" lengthAdjust="spacing" textLength="99.9619" x="29" y="816.9157">Window(View)</text><ellipse cx="20" cy="829.8659" fill="#84BE84" rx="3" ry="3" style="stroke:#038048;stroke-width:1.0;"/><text fill="#000000" font-family="sans-serif" font-size="14" lengthAdjust="spacing" textLength="151.8125" x="29" y="833.2126">drawContents() : void</text><ellipse cx="20" cy="846.1628" fill="#84BE84" rx="3" ry="3" style="stroke:#038048;stroke-width:1.0;"/><text fill="#000000" font-family="sans-serif" font-size="14" lengthAdjust="spacing" textLength="89.1064" x="29" y="849.5095">open() : void</text><ellipse cx="20" cy="862.4597" fill="#84BE84" rx="3" ry="3" style="stroke:#038048;stroke-width:1.0;"/><text fill="#000000" font-family="sans-serif" font-size="14" lengthAdjust="spacing" textLength="90.2275" x="29" y="865.8064">close() : void</text><ellipse cx="20" cy="878.7566" fill="#84BE84" rx="3" ry="3" style="stroke:#038048;stroke-width:1.0;"/><text fill="#000000" font-family="sans-serif" font-size="14" lengthAdjust="spacing" textLength="100.2969" x="29" y="882.1032">iconify() : void</text><ellipse cx="20" cy="895.0534" fill="#84BE84" rx="3" ry="3" style="stroke:#038048;stroke-width:1.0;"/><text fill="#000000" font-family="sans-serif" font-size="14" lengthAdjust="spacing" textLength="117.7969" x="29" y="898.4001">deiconify() : void</text><ellipse cx="20" cy="911.3503" fill="#84BE84" rx="3" ry="3" style="stroke:#038048;stroke-width:1.0;"/><text fill="#000000" font-family="sans-serif" font-size="14" lengthAdjust="spacing" textLength="153.1387" x="29" y="914.697">setOrigin(Point) : void</text><ellipse cx="20" cy="927.6472" fill="#84BE84" rx="3" ry="3" style="stroke:#038048;stroke-width:1.0;"/><text fill="#000000" font-family="sans-serif" font-size="14" lengthAdjust="spacing" textLength="156.4199" x="29" y="930.9939">setExtent(Point) : void</text><ellipse cx="20" cy="943.9441" fill="#84BE84" rx="3" ry="3" style="stroke:#038048;stroke-width:1.0;"/><text fill="#000000" font-family="sans-serif" font-size="14" lengthAdjust="spacing" textLength="88.2998" x="29" y="947.2907">raise() : void</text><ellipse cx="20" cy="960.2409" fill="#84BE84" rx="3" ry="3" style="stroke:#038048;stroke-width:1.0;"/><text fill="#000000" font-family="sans-serif" font-size="14" lengthAdjust="spacing" textLength="92.4424" x="29" y="963.5876">lower() : void</text><ellipse cx="20" cy="976.5378" fill="#84BE84" rx="3" ry="3" style="stroke:#038048;stroke-width:1.0;"/><text fill="#000000" font-family="sans-serif" font-size="14" lengthAdjust="spacing" textLength="192.9854" x="29" y="979.8845">drawLine(Point,Point) : void</text><ellipse cx="20" cy="992.8347" fill="#84BE84" rx="3" ry="3" style="stroke:#038048;stroke-width:1.0;"/><text fill="#000000" font-family="sans-serif" font-size="14" lengthAdjust="spacing" textLength="199.7871" x="29" y="996.1814">drawRect(Point, Point) : void</text><ellipse cx="20" cy="1009.1316" fill="#84BE84" rx="3" ry="3" style="stroke:#038048;stroke-width:1.0;"/><text fill="#000000" font-family="sans-serif" font-size="14" lengthAdjust="spacing" textLength="242.4912" x="29" y="1012.4782">drawPolygon(Point[3..*], int) : void</text><ellipse cx="20" cy="1025.4284" fill="#84BE84" rx="3" ry="3" style="stroke:#038048;stroke-width:1.0;"/><text fill="#000000" font-family="sans-serif" font-size="14" lengthAdjust="spacing" textLength="205.7207" x="29" y="1028.7751">drawText(String, Point) : void</text><polygon fill="#FFFF44" points="20,1036.7253,24,1040.7253,20,1044.7253,16,1040.7253" style="stroke:#B38D22;stroke-width:1.0;"/><text fill="#000000" font-family="sans-serif" font-size="14" lengthAdjust="spacing" textLength="211.8525" x="29" y="1045.072">getWindowImp() : WindowImp</text><polygon fill="#FFFF44" points="20,1053.0222,24,1057.0222,20,1061.0222,16,1057.0222" style="stroke:#B38D22;stroke-width:1.0;"/><text fill="#000000" font-family="sans-serif" font-size="14" lengthAdjust="spacing" textLength="114.5908" x="29" y="1061.3689">getView() : View</text></g><!--class WindowApplication--><g id="elem_WindowApplication"><rect codeLine="9" fill="#F1F1F1" height="96.8906" id="WindowApplication" rx="2.5" ry="2.5" style="stroke:#181818;stroke-width:0.5;" width="204.1855" x="473.67" y="700.3769"/><ellipse cx="505.9743" cy="716.3769" fill="#ADD1B2" rx="11" ry="11" style="stroke:#181818;stroke-width:1.0;"/><path d="M508.9431,722.0175 Q508.365,722.3144 507.7243,722.455 Q507.0837,722.6112 506.3806,722.6112 Q503.8806,722.6112 502.5525,720.9706 Q501.24,719.3144 501.24,716.1894 Q501.24,713.0644 502.5525,711.4081 Q503.8806,709.7519 506.3806,709.7519 Q507.0837,709.7519 507.7243,709.9081 Q508.3806,710.0644 508.9431,710.3612 L508.9431,713.08 Q508.3181,712.5019 507.7243,712.2362 Q507.1306,711.955 506.5056,711.955 Q505.1618,711.955 504.4743,713.0331 Q503.7868,714.0956 503.7868,716.1894 Q503.7868,718.2831 504.4743,719.3612 Q505.1618,720.4237 506.5056,720.4237 Q507.1306,720.4237 507.7243,720.1581 Q508.3181,719.8769 508.9431,719.2987 L508.9431,722.0175 Z " fill="#000000"/><text fill="#000000" font-family="sans-serif" font-size="14" lengthAdjust="spacing" textLength="133.7314" x="523.8198" y="721.2236">WindowApplication</text><line style="stroke:#181818;stroke-width:0.5;" x1="474.67" x2="676.8555" y1="732.3769" y2="732.3769"/><line style="stroke:#181818;stroke-width:0.5;" x1="474.67" x2="676.8555" y1="740.3769" y2="740.3769"/><ellipse cx="484.67" cy="754.0253" fill="#84BE84" rx="3" ry="3" style="stroke:#038048;stroke-width:1.0;"/><text fill="#000000" font-family="sans-serif" font-size="14" lengthAdjust="spacing" textLength="178.1855" x="493.67" y="757.372">WindowApplication(View)</text><ellipse cx="484.67" cy="770.3222" fill="#84BE84" rx="3" ry="3" style="stroke:#038048;stroke-width:1.0;"/><text fill="#000000" font-family="sans-serif" font-size="14" lengthAdjust="spacing" textLength="156.3857" x="493.67" y="773.6689">~WindowApplication()</text><ellipse cx="484.67" cy="786.6191" fill="#84BE84" rx="3" ry="3" style="stroke:#038048;stroke-width:1.0;"/><text fill="#000000" font-family="sans-serif" font-size="14" lengthAdjust="spacing" textLength="151.8125" x="493.67" y="789.9657">drawContents() : void</text></g><!--class WindowImp--><g id="elem_WindowImp"><rect codeLine="13" fill="#F1F1F1" height="210.9688" id="WindowImp" rx="2.5" ry="2.5" style="stroke:#181818;stroke-width:0.5;" width="337.2266" x="407.15" y="832.3469"/><ellipse cx="530.4327" cy="848.3469" fill="#A9DCDF" rx="11" ry="11" style="stroke:#181818;stroke-width:1.0;"/><path d="M530.5421,843.6906 L529.3858,848.7688 L531.714,848.7688 L530.5421,843.6906 Z M529.0577,841.4563 L532.0421,841.4563 L535.4015,853.8469 L532.9483,853.8469 L532.1827,850.7844 L528.9015,850.7844 L528.1515,853.8469 L525.714,853.8469 L529.0577,841.4563 Z " fill="#000000"/><text fill="#000000" font-family="sans-serif" font-size="14" font-style="italic" lengthAdjust="spacing" textLength="82.1611" x="550.9327" y="853.1936">WindowImp</text><line style="stroke:#181818;stroke-width:0.5;" x1="408.15" x2="743.3766" y1="864.3469" y2="864.3469"/><line style="stroke:#181818;stroke-width:0.5;" x1="408.15" x2="743.3766" y1="872.3469" y2="872.3469"/><polygon fill="#FFFF44" points="418.15,880.9953,422.15,884.9953,418.15,888.9953,414.15,884.9953" style="stroke:#B38D22;stroke-width:1.0;"/><text fill="#000000" font-family="sans-serif" font-size="14" lengthAdjust="spacing" textLength="93.085" x="427.15" y="889.342">WindowImp()</text><polygon fill="#FFFF44" points="418.15,897.2922,422.15,901.2922,418.15,905.2922,414.15,901.2922" style="stroke:#B38D22;stroke-width:1.0;"/><text fill="#000000" font-family="sans-serif" font-size="14" lengthAdjust="spacing" textLength="104.8154" x="427.15" y="905.6389">~WindowImp()</text><ellipse cx="418.15" cy="918.5891" fill="#84BE84" rx="3" ry="3" style="stroke:#038048;stroke-width:1.0;"/><text fill="#000000" font-family="sans-serif" font-size="14" lengthAdjust="spacing" textLength="106.5859" x="427.15" y="921.9357">impTop() : void</text><ellipse cx="418.15" cy="934.8859" fill="#84BE84" rx="3" ry="3" style="stroke:#038048;stroke-width:1.0;"/><text fill="#000000" font-family="sans-serif" font-size="14" lengthAdjust="spacing" textLength="131.9336" x="427.15" y="938.2326">impBottom() : void</text><ellipse cx="418.15" cy="951.1828" fill="#84BE84" rx="3" ry="3" style="stroke:#038048;stroke-width:1.0;"/><text fill="#000000" font-family="sans-serif" font-size="14" lengthAdjust="spacing" textLength="181.1455" x="427.15" y="954.5295">impSetOrigin(Point) : void</text><ellipse cx="418.15" cy="967.4797" fill="#84BE84" rx="3" ry="3" style="stroke:#038048;stroke-width:1.0;"/><text fill="#000000" font-family="sans-serif" font-size="14" lengthAdjust="spacing" textLength="184.4268" x="427.15" y="970.8264">impSetExtent(Point) : void</text><ellipse cx="418.15" cy="983.7766" fill="#84BE84" rx="3" ry="3" style="stroke:#038048;stroke-width:1.0;"/><text fill="#000000" font-family="sans-serif" font-size="14" lengthAdjust="spacing" textLength="311.2266" x="427.15" y="987.1232">deviceRect(Coord,Coord,Coord,Coord) : void</text><ellipse cx="418.15" cy="1000.0734" fill="#84BE84" rx="3" ry="3" style="stroke:#038048;stroke-width:1.0;"/><text fill="#000000" font-family="sans-serif" font-size="14" lengthAdjust="spacing" textLength="264.8721" x="427.15" y="1003.4201">deviceText(String,Coord,Coord) : void</text><ellipse cx="418.15" cy="1016.3703" fill="#84BE84" rx="3" ry="3" style="stroke:#038048;stroke-width:1.0;"/><text fill="#000000" font-family="sans-serif" font-size="14" lengthAdjust="spacing" textLength="284.0195" x="427.15" y="1019.717">deviceBitmap(String,Coord,Coord) : void</text><ellipse cx="418.15" cy="1032.6672" fill="#84BE84" rx="3" ry="3" style="stroke:#038048;stroke-width:1.0;"/><text fill="#000000" font-family="sans-serif" font-size="14" lengthAdjust="spacing" textLength="186.457" x="427.15" y="1036.0139">event_loop(Window) : void</text></g><!--class XWindowImp--><g id="elem_XWindowImp"><rect codeLine="14" fill="#F1F1F1" height="210.9688" id="XWindowImp" rx="2.5" ry="2.5" style="stroke:#181818;stroke-width:0.5;" width="337.2266" x="866.52" y="1066.3469"/><ellipse cx="985.0073" cy="1082.3469" fill="#ADD1B2" rx="11" ry="11" style="stroke:#181818;stroke-width:1.0;"/><path d="M987.9761,1087.9875 Q987.3979,1088.2844 986.7573,1088.425 Q986.1167,1088.5813 985.4136,1088.5813 Q982.9136,1088.5813 981.5854,1086.9406 Q980.2729,1085.2844 980.2729,1082.1594 Q980.2729,1079.0344 981.5854,1077.3781 Q982.9136,1075.7219 985.4136,1075.7219 Q986.1167,1075.7219 986.7573,1075.8781 Q987.4136,1076.0344 987.9761,1076.3313 L987.9761,1079.05 Q987.3511,1078.4719 986.7573,1078.2063 Q986.1636,1077.925 985.5386,1077.925 Q984.1948,1077.925 983.5073,1079.0031 Q982.8198,1080.0656 982.8198,1082.1594 Q982.8198,1084.2531 983.5073,1085.3313 Q984.1948,1086.3938 985.5386,1086.3938 Q986.1636,1086.3938 986.7573,1086.1281 Q987.3511,1085.8469 987.9761,1085.2688 L987.9761,1087.9875 Z " fill="#000000"/><text fill="#000000" font-family="sans-serif" font-size="14" lengthAdjust="spacing" textLength="91.752" x="1005.5073" y="1087.1936">XWindowImp</text><line style="stroke:#181818;stroke-width:0.5;" x1="867.52" x2="1202.7466" y1="1098.3469" y2="1098.3469"/><line style="stroke:#181818;stroke-width:0.5;" x1="867.52" x2="1202.7466" y1="1106.3469" y2="1106.3469"/><ellipse cx="877.52" cy="1119.9953" fill="#84BE84" rx="3" ry="3" style="stroke:#038048;stroke-width:1.0;"/><text fill="#000000" font-family="sans-serif" font-size="14" lengthAdjust="spacing" textLength="102.6758" x="886.52" y="1123.342">XWindowImp()</text><ellipse cx="877.52" cy="1136.2922" fill="#84BE84" rx="3" ry="3" style="stroke:#038048;stroke-width:1.0;"/><text fill="#000000" font-family="sans-serif" font-size="14" lengthAdjust="spacing" textLength="114.4063" x="886.52" y="1139.6389">~XWindowImp()</text><ellipse cx="877.52" cy="1152.5891" fill="#84BE84" rx="3" ry="3" style="stroke:#038048;stroke-width:1.0;"/><text fill="#000000" font-family="sans-serif" font-size="14" lengthAdjust="spacing" textLength="106.5859" x="886.52" y="1155.9357">impTop() : void</text><ellipse cx="877.52" cy="1168.8859" fill="#84BE84" rx="3" ry="3" style="stroke:#038048;stroke-width:1.0;"/><text fill="#000000" font-family="sans-serif" font-size="14" lengthAdjust="spacing" textLength="131.9336" x="886.52" y="1172.2326">impBottom() : void</text><ellipse cx="877.52" cy="1185.1828" fill="#84BE84" rx="3" ry="3" style="stroke:#038048;stroke-width:1.0;"/><text fill="#000000" font-family="sans-serif" font-size="14" lengthAdjust="spacing" textLength="181.1455" x="886.52" y="1188.5295">impSetOrigin(Point) : void</text><ellipse cx="877.52" cy="1201.4797" fill="#84BE84" rx="3" ry="3" style="stroke:#038048;stroke-width:1.0;"/><text fill="#000000" font-family="sans-serif" font-size="14" lengthAdjust="spacing" textLength="184.4268" x="886.52" y="1204.8264">impSetExtent(Point) : void</text><ellipse cx="877.52" cy="1217.7766" fill="#84BE84" rx="3" ry="3" style="stroke:#038048;stroke-width:1.0;"/><text fill="#000000" font-family="sans-serif" font-size="14" lengthAdjust="spacing" textLength="311.2266" x="886.52" y="1221.1232">deviceRect(Coord,Coord,Coord,Coord) : void</text><ellipse cx="877.52" cy="1234.0734" fill="#84BE84" rx="3" ry="3" style="stroke:#038048;stroke-width:1.0;"/><text fill="#000000" font-family="sans-serif" font-size="14" lengthAdjust="spacing" textLength="264.8721" x="886.52" y="1237.4201">deviceText(String,Coord,Coord) : void</text><ellipse cx="877.52" cy="1250.3703" fill="#84BE84" rx="3" ry="3" style="stroke:#038048;stroke-width:1.0;"/><text fill="#000000" font-family="sans-serif" font-size="14" lengthAdjust="spacing" textLength="284.0195" x="886.52" y="1253.717">deviceBitmap(String,Coord,Coord) : void</text><ellipse cx="877.52" cy="1266.6672" fill="#84BE84" rx="3" ry="3" style="stroke:#038048;stroke-width:1.0;"/><text fill="#000000" font-family="sans-serif" font-size="14" lengthAdjust="spacing" textLength="186.457" x="886.52" y="1270.0139">event_loop(Window) : void</text></g><!--class XcbWindowImp--><g id="elem_XcbWindowImp"><rect codeLine="15" fill="#F1F1F1" height="210.9688" id="XcbWindowImp" rx="2.5" ry="2.5" style="stroke:#181818;stroke-width:0.5;" width="337.2266" x="866.52" y="820.3469"/><ellipse cx="976.7153" cy="836.3469" fill="#ADD1B2" rx="11" ry="11" style="stroke:#181818;stroke-width:1.0;"/><path d="M979.6841,841.9875 Q979.1059,842.2844 978.4653,842.425 Q977.8247,842.5813 977.1216,842.5813 Q974.6216,842.5813 973.2934,840.9406 Q971.9809,839.2844 971.9809,836.1594 Q971.9809,833.0344 973.2934,831.3781 Q974.6216,829.7219 977.1216,829.7219 Q977.8247,829.7219 978.4653,829.8781 Q979.1216,830.0344 979.6841,830.3313 L979.6841,833.05 Q979.0591,832.4719 978.4653,832.2063 Q977.8716,831.925 977.2466,831.925 Q975.9028,831.925 975.2153,833.0031 Q974.5278,834.0656 974.5278,836.1594 Q974.5278,838.2531 975.2153,839.3313 Q975.9028,840.3938 977.2466,840.3938 Q977.8716,840.3938 978.4653,840.1281 Q979.0591,839.8469 979.6841,839.2688 L979.6841,841.9875 Z " fill="#000000"/><text fill="#000000" font-family="sans-serif" font-size="14" lengthAdjust="spacing" textLength="108.3359" x="997.2153" y="841.1936">XcbWindowImp</text><line style="stroke:#181818;stroke-width:0.5;" x1="867.52" x2="1202.7466" y1="852.3469" y2="852.3469"/><line style="stroke:#181818;stroke-width:0.5;" x1="867.52" x2="1202.7466" y1="860.3469" y2="860.3469"/><ellipse cx="877.52" cy="873.9953" fill="#84BE84" rx="3" ry="3" style="stroke:#038048;stroke-width:1.0;"/><text fill="#000000" font-family="sans-serif" font-size="14" lengthAdjust="spacing" textLength="119.2598" x="886.52" y="877.342">XcbWindowImp()</text><ellipse cx="877.52" cy="890.2922" fill="#84BE84" rx="3" ry="3" style="stroke:#038048;stroke-width:1.0;"/><text fill="#000000" font-family="sans-serif" font-size="14" lengthAdjust="spacing" textLength="130.9902" x="886.52" y="893.6389">~XcbWindowImp()</text><ellipse cx="877.52" cy="906.5891" fill="#84BE84" rx="3" ry="3" style="stroke:#038048;stroke-width:1.0;"/><text fill="#000000" font-family="sans-serif" font-size="14" lengthAdjust="spacing" textLength="106.5859" x="886.52" y="909.9357">impTop() : void</text><ellipse cx="877.52" cy="922.8859" fill="#84BE84" rx="3" ry="3" style="stroke:#038048;stroke-width:1.0;"/><text fill="#000000" font-family="sans-serif" font-size="14" lengthAdjust="spacing" textLength="131.9336" x="886.52" y="926.2326">impBottom() : void</text><ellipse cx="877.52" cy="939.1828" fill="#84BE84" rx="3" ry="3" style="stroke:#038048;stroke-width:1.0;"/><text fill="#000000" font-family="sans-serif" font-size="14" lengthAdjust="spacing" textLength="181.1455" x="886.52" y="942.5295">impSetOrigin(Point) : void</text><ellipse cx="877.52" cy="955.4797" fill="#84BE84" rx="3" ry="3" style="stroke:#038048;stroke-width:1.0;"/><text fill="#000000" font-family="sans-serif" font-size="14" lengthAdjust="spacing" textLength="184.4268" x="886.52" y="958.8264">impSetExtent(Point) : void</text><ellipse cx="877.52" cy="971.7766" fill="#84BE84" rx="3" ry="3" style="stroke:#038048;stroke-width:1.0;"/><text fill="#000000" font-family="sans-serif" font-size="14" lengthAdjust="spacing" textLength="311.2266" x="886.52" y="975.1232">deviceRect(Coord,Coord,Coord,Coord) : void</text><ellipse cx="877.52" cy="988.0734" fill="#84BE84" rx="3" ry="3" style="stroke:#038048;stroke-width:1.0;"/><text fill="#000000" font-family="sans-serif" font-size="14" lengthAdjust="spacing" textLength="264.8721" x="886.52" y="991.4201">deviceText(String,Coord,Coord) : void</text><ellipse cx="877.52" cy="1004.3703" fill="#84BE84" rx="3" ry="3" style="stroke:#038048;stroke-width:1.0;"/><text fill="#000000" font-family="sans-serif" font-size="14" lengthAdjust="spacing" textLength="284.0195" x="886.52" y="1007.717">deviceBitmap(String,Coord,Coord) : void</text><ellipse cx="877.52" cy="1020.6672" fill="#84BE84" rx="3" ry="3" style="stroke:#038048;stroke-width:1.0;"/><text fill="#000000" font-family="sans-serif" font-size="14" lengthAdjust="spacing" textLength="186.457" x="886.52" y="1024.0139">event_loop(Window) : void</text></g><!--class View--><g id="elem_View"><rect codeLine="19" fill="#F1F1F1" height="96.8906" id="View" rx="2.5" ry="2.5" style="stroke:#181818;stroke-width:0.5;" width="170.3477" x="57.83" y="450.3769"/><ellipse cx="121.9887" cy="466.3769" fill="#A9DCDF" rx="11" ry="11" style="stroke:#181818;stroke-width:1.0;"/><path d="M122.0981,461.7206 L120.9418,466.7987 L123.2699,466.7987 L122.0981,461.7206 Z M120.6137,459.4862 L123.5981,459.4862 L126.9574,471.8769 L124.5043,471.8769 L123.7387,468.8144 L120.4574,468.8144 L119.7074,471.8769 L117.2699,471.8769 L120.6137,459.4862 Z " fill="#000000"/><text fill="#000000" font-family="sans-serif" font-size="14" font-style="italic" lengthAdjust="spacing" textLength="33.5303" x="142.4887" y="471.2236">View</text><line style="stroke:#181818;stroke-width:0.5;" x1="58.83" x2="227.1777" y1="482.3769" y2="482.3769"/><line style="stroke:#181818;stroke-width:0.5;" x1="58.83" x2="227.1777" y1="490.3769" y2="490.3769"/><ellipse cx="68.83" cy="504.0253" fill="#84BE84" rx="3" ry="3" style="stroke:#038048;stroke-width:1.0;"/><text fill="#000000" font-family="sans-serif" font-size="14" lengthAdjust="spacing" textLength="44.4541" x="77.83" y="507.372">View()</text><ellipse cx="68.83" cy="520.3222" fill="#84BE84" rx="3" ry="3" style="stroke:#038048;stroke-width:1.0;"/><text fill="#000000" font-family="sans-serif" font-size="14" lengthAdjust="spacing" textLength="56.1846" x="77.83" y="523.6689">~View()</text><ellipse cx="68.83" cy="536.6191" fill="#84BE84" rx="3" ry="3" style="stroke:#038048;stroke-width:1.0;"/><text fill="#000000" font-family="sans-serif" font-size="14" lengthAdjust="spacing" textLength="144.3477" x="77.83" y="539.9657">draw(Window) : void</text></g><!--class ViewComposite--><g id="elem_ViewComposite"><rect codeLine="20" fill="#F1F1F1" height="162.0781" id="ViewComposite" rx="2.5" ry="2.5" style="stroke:#181818;stroke-width:0.5;" width="180.7656" x="485.38" y="503.7869"/><ellipse cx="518.6133" cy="519.7869" fill="#ADD1B2" rx="11" ry="11" style="stroke:#181818;stroke-width:1.0;"/><path d="M521.5821,525.4275 Q521.004,525.7244 520.3633,525.865 Q519.7227,526.0213 519.0196,526.0213 Q516.5196,526.0213 515.1915,524.3806 Q513.879,522.7244 513.879,519.5994 Q513.879,516.4744 515.1915,514.8181 Q516.5196,513.1619 519.0196,513.1619 Q519.7227,513.1619 520.3633,513.3181 Q521.0196,513.4744 521.5821,513.7713 L521.5821,516.49 Q520.9571,515.9119 520.3633,515.6463 Q519.7696,515.365 519.1446,515.365 Q517.8008,515.365 517.1133,516.4431 Q516.4258,517.5056 516.4258,519.5994 Q516.4258,521.6931 517.1133,522.7713 Q517.8008,523.8338 519.1446,523.8338 Q519.7696,523.8338 520.3633,523.5681 Q520.9571,523.2869 521.5821,522.7088 L521.5821,525.4275 Z " fill="#000000"/><text fill="#000000" font-family="sans-serif" font-size="14" lengthAdjust="spacing" textLength="108.2471" x="536.6652" y="524.6336">ViewComposite</text><line style="stroke:#181818;stroke-width:0.5;" x1="486.38" x2="665.1456" y1="535.7869" y2="535.7869"/><rect fill="none" height="6" style="stroke:#C82930;stroke-width:1.0;" width="6" x="493.38" y="546.4353"/><text fill="#000000" font-family="sans-serif" font-size="14" lengthAdjust="spacing" textLength="56.4785" x="505.38" y="552.782">children</text><line style="stroke:#181818;stroke-width:0.5;" x1="486.38" x2="665.1456" y1="560.0838" y2="560.0838"/><ellipse cx="496.38" cy="573.7322" fill="#84BE84" rx="3" ry="3" style="stroke:#038048;stroke-width:1.0;"/><text fill="#000000" font-family="sans-serif" font-size="14" lengthAdjust="spacing" textLength="119.1709" x="505.38" y="577.0789">ViewComposite()</text><ellipse cx="496.38" cy="590.0291" fill="#84BE84" rx="3" ry="3" style="stroke:#038048;stroke-width:1.0;"/><text fill="#000000" font-family="sans-serif" font-size="14" lengthAdjust="spacing" textLength="130.9014" x="505.38" y="593.3757">~ViewComposite()</text><ellipse cx="496.38" cy="606.3259" fill="#84BE84" rx="3" ry="3" style="stroke:#038048;stroke-width:1.0;"/><text fill="#000000" font-family="sans-serif" font-size="14" lengthAdjust="spacing" textLength="140.4238" x="505.38" y="609.6726">append(View) : void</text><ellipse cx="496.38" cy="622.6228" fill="#84BE84" rx="3" ry="3" style="stroke:#038048;stroke-width:1.0;"/><text fill="#000000" font-family="sans-serif" font-size="14" lengthAdjust="spacing" textLength="146.2139" x="505.38" y="625.9695">prepend(View) : void</text><ellipse cx="496.38" cy="638.9197" fill="#84BE84" rx="3" ry="3" style="stroke:#038048;stroke-width:1.0;"/><text fill="#000000" font-family="sans-serif" font-size="14" lengthAdjust="spacing" textLength="154.7656" x="505.38" y="642.2664">insert(View, int) : void</text><ellipse cx="496.38" cy="655.2166" fill="#84BE84" rx="3" ry="3" style="stroke:#038048;stroke-width:1.0;"/><text fill="#000000" font-family="sans-serif" font-size="14" lengthAdjust="spacing" textLength="134.627" x="505.38" y="658.5632">getChild(int) : View</text></g><!--class ViewRectangle--><g id="elem_ViewRectangle"><rect codeLine="21" fill="#F1F1F1" height="113.1875" id="ViewRectangle" rx="2.5" ry="2.5" style="stroke:#181818;stroke-width:0.5;" width="170.3477" x="490.59" y="355.2369"/><ellipse cx="521.0917" cy="371.2369" fill="#ADD1B2" rx="11" ry="11" style="stroke:#181818;stroke-width:1.0;"/><path d="M524.0605,376.8775 Q523.4823,377.1744 522.8417,377.315 Q522.2011,377.4713 521.498,377.4713 Q518.998,377.4713 517.6698,375.8306 Q516.3573,374.1744 516.3573,371.0494 Q516.3573,367.9244 517.6698,366.2681 Q518.998,364.6119 521.498,364.6119 Q522.2011,364.6119 522.8417,364.7681 Q523.498,364.9244 524.0605,365.2213 L524.0605,367.94 Q523.4355,367.3619 522.8417,367.0963 Q522.248,366.815 521.623,366.815 Q520.2792,366.815 519.5917,367.8931 Q518.9042,368.9556 518.9042,371.0494 Q518.9042,373.1431 519.5917,374.2213 Q520.2792,375.2838 521.623,375.2838 Q522.248,375.2838 522.8417,375.0181 Q523.4355,374.7369 524.0605,374.1588 L524.0605,376.8775 Z " fill="#000000"/><text fill="#000000" font-family="sans-serif" font-size="14" lengthAdjust="spacing" textLength="103.8994" x="538.5365" y="376.0836">ViewRectangle</text><line style="stroke:#181818;stroke-width:0.5;" x1="491.59" x2="659.9377" y1="387.2369" y2="387.2369"/><rect fill="none" height="6" style="stroke:#C82930;stroke-width:1.0;" width="6" x="498.59" y="397.8853"/><text fill="#000000" font-family="sans-serif" font-size="14" lengthAdjust="spacing" textLength="72.7002" x="510.59" y="404.232">rect : Rect</text><line style="stroke:#181818;stroke-width:0.5;" x1="491.59" x2="659.9377" y1="411.5338" y2="411.5338"/><ellipse cx="501.59" cy="425.1822" fill="#84BE84" rx="3" ry="3" style="stroke:#038048;stroke-width:1.0;"/><text fill="#000000" font-family="sans-serif" font-size="14" lengthAdjust="spacing" textLength="114.8232" x="510.59" y="428.5289">ViewRectangle()</text><ellipse cx="501.59" cy="441.4791" fill="#84BE84" rx="3" ry="3" style="stroke:#038048;stroke-width:1.0;"/><text fill="#000000" font-family="sans-serif" font-size="14" lengthAdjust="spacing" textLength="126.5537" x="510.59" y="444.8257">~ViewRectangle()</text><ellipse cx="501.59" cy="457.7759" fill="#84BE84" rx="3" ry="3" style="stroke:#038048;stroke-width:1.0;"/><text fill="#000000" font-family="sans-serif" font-size="14" lengthAdjust="spacing" textLength="144.3477" x="510.59" y="461.1226">draw(Window) : void</text></g><!--class ViewString--><g id="elem_ViewString"><rect codeLine="22" fill="#F1F1F1" height="129.4844" id="ViewString" rx="2.5" ry="2.5" style="stroke:#181818;stroke-width:0.5;" width="170.3477" x="490.59" y="191.0869"/><ellipse cx="533.9563" cy="207.0869" fill="#ADD1B2" rx="11" ry="11" style="stroke:#181818;stroke-width:1.0;"/><path d="M536.925,212.7275 Q536.3469,213.0244 535.7063,213.165 Q535.0656,213.3212 534.3625,213.3212 Q531.8625,213.3212 530.5344,211.6806 Q529.2219,210.0244 529.2219,206.8994 Q529.2219,203.7744 530.5344,202.1181 Q531.8625,200.4619 534.3625,200.4619 Q535.0656,200.4619 535.7063,200.6181 Q536.3625,200.7744 536.925,201.0712 L536.925,203.79 Q536.3,203.2119 535.7063,202.9462 Q535.1125,202.665 534.4875,202.665 Q533.1438,202.665 532.4563,203.7431 Q531.7688,204.8056 531.7688,206.8994 Q531.7688,208.9931 532.4563,210.0712 Q533.1438,211.1337 534.4875,211.1337 Q535.1125,211.1337 535.7063,210.8681 Q536.3,210.5869 536.925,210.0087 L536.925,212.7275 Z " fill="#000000"/><text fill="#000000" font-family="sans-serif" font-size="14" lengthAdjust="spacing" textLength="75.3115" x="554.2599" y="211.9336">ViewString</text><line style="stroke:#181818;stroke-width:0.5;" x1="491.59" x2="659.9377" y1="223.0869" y2="223.0869"/><rect fill="none" height="6" style="stroke:#C82930;stroke-width:1.0;" width="6" x="498.59" y="233.7353"/><text fill="#000000" font-family="sans-serif" font-size="14" lengthAdjust="spacing" textLength="93.6387" x="510.59" y="240.082">value : String</text><rect fill="none" height="6" style="stroke:#C82930;stroke-width:1.0;" width="6" x="498.59" y="250.0322"/><text fill="#000000" font-family="sans-serif" font-size="14" lengthAdjust="spacing" textLength="104.4258" x="510.59" y="256.3789">location : Point</text><line style="stroke:#181818;stroke-width:0.5;" x1="491.59" x2="659.9377" y1="263.6806" y2="263.6806"/><ellipse cx="501.59" cy="277.3291" fill="#84BE84" rx="3" ry="3" style="stroke:#038048;stroke-width:1.0;"/><text fill="#000000" font-family="sans-serif" font-size="14" lengthAdjust="spacing" textLength="86.2354" x="510.59" y="280.6757">ViewString()</text><ellipse cx="501.59" cy="293.6259" fill="#84BE84" rx="3" ry="3" style="stroke:#038048;stroke-width:1.0;"/><text fill="#000000" font-family="sans-serif" font-size="14" lengthAdjust="spacing" textLength="97.9658" x="510.59" y="296.9726">~ViewString()</text><ellipse cx="501.59" cy="309.9228" fill="#84BE84" rx="3" ry="3" style="stroke:#038048;stroke-width:1.0;"/><text fill="#000000" font-family="sans-serif" font-size="14" lengthAdjust="spacing" textLength="144.3477" x="510.59" y="313.2695">draw(Window) : void</text></g><!--class WindowSystemFactory--><g id="elem_WindowSystemFactory"><rect codeLine="26" fill="#F1F1F1" height="186.6406" id="WindowSystemFactory" rx="2.5" ry="2.5" style="stroke:#181818;stroke-width:0.5;" width="461.5244" x="345" y="1311.5069"/><ellipse cx="491.4429" cy="1331.6397" fill="#ADD1B2" rx="11" ry="11" style="stroke:#181818;stroke-width:1.0;"/><path d="M494.4116,1337.2803 Q493.8335,1337.5772 493.1929,1337.7178 Q492.5522,1337.8741 491.8491,1337.8741 Q489.3491,1337.8741 488.021,1336.2334 Q486.7085,1334.5772 486.7085,1331.4522 Q486.7085,1328.3272 488.021,1326.6709 Q489.3491,1325.0147 491.8491,1325.0147 Q492.5522,1325.0147 493.1929,1325.1709 Q493.8491,1325.3272 494.4116,1325.6241 L494.4116,1328.3428 Q493.7866,1327.7647 493.1929,1327.4991 Q492.5991,1327.2178 491.9741,1327.2178 Q490.6304,1327.2178 489.9429,1328.2959 Q489.2554,1329.3584 489.2554,1331.4522 Q489.2554,1333.5459 489.9429,1334.6241 Q490.6304,1335.6866 491.9741,1335.6866 Q492.5991,1335.6866 493.1929,1335.4209 Q493.7866,1335.1397 494.4116,1334.5616 L494.4116,1337.2803 Z " fill="#000000"/><text fill="#000000" font-family="sans-serif" font-size="12" font-style="italic" lengthAdjust="spacing" textLength="69.9902" x="557.0171" y="1327.6455">&#171;singleton&#187;</text><text fill="#000000" font-family="sans-serif" font-size="14" lengthAdjust="spacing" textLength="160.1387" x="511.9429" y="1343.4707">WindowSystemFactory</text><line style="stroke:#181818;stroke-width:0.5;" x1="346" x2="805.5244" y1="1351.7725" y2="1351.7725"/><rect fill="none" height="6" style="stroke:#C82930;stroke-width:1.0;" width="6" x="353" y="1362.4209"/><text fill="#000000" font-family="sans-serif" font-size="14" lengthAdjust="spacing" text-decoration="underline" textLength="233.0645" x="365" y="1368.7676">instance : WindowSystemFactory</text><rect fill="none" height="6" style="stroke:#C82930;stroke-width:1.0;" width="6" x="353" y="1378.7178"/><text fill="#000000" font-family="sans-serif" font-size="14" lengthAdjust="spacing" text-decoration="underline" textLength="263.457" x="365" y="1385.0645">registry : WindowSystemFactory[1..*]</text><line style="stroke:#181818;stroke-width:0.5;" x1="346" x2="805.5244" y1="1392.3663" y2="1392.3663"/><polygon fill="#FFFF44" points="356,1401.0147,360,1405.0147,356,1409.0147,352,1405.0147" style="stroke:#B38D22;stroke-width:1.0;"/><text fill="#000000" font-family="sans-serif" font-size="14" lengthAdjust="spacing" textLength="171.0625" x="365" y="1409.3614">WindowSystemFactory()</text><polygon fill="#FFFF44" points="356,1417.3116,360,1421.3116,356,1425.3116,352,1421.3116" style="stroke:#B38D22;stroke-width:1.0;"/><text fill="#000000" font-family="sans-serif" font-size="14" lengthAdjust="spacing" textLength="182.793" x="365" y="1425.6582">~WindowSystemFactory()</text><ellipse cx="356" cy="1438.6084" fill="#84BE84" rx="3" ry="3" style="stroke:#038048;stroke-width:1.0;"/><text fill="#000000" font-family="sans-serif" font-size="14" lengthAdjust="spacing" text-decoration="underline" textLength="334.6396" x="365" y="1441.9551">instance(name: String) : WindowSystemFactory</text><ellipse cx="356" cy="1454.9053" fill="#84BE84" rx="3" ry="3" style="stroke:#038048;stroke-width:1.0;"/><text fill="#000000" font-family="sans-serif" font-size="14" lengthAdjust="spacing" text-decoration="underline" textLength="435.5244" x="365" y="1458.252">register(name : String, factory : WindowSystemFactory) : void</text><ellipse cx="356" cy="1471.2022" fill="#84BE84" rx="3" ry="3" style="stroke:#038048;stroke-width:1.0;"/><text fill="#000000" font-family="sans-serif" font-size="14" lengthAdjust="spacing" text-decoration="underline" textLength="167.9932" x="365" y="1474.5489">unregister(String) : void</text><ellipse cx="356" cy="1487.4991" fill="#84BE84" rx="3" ry="3" style="stroke:#038048;stroke-width:1.0;"/><text fill="#000000" font-family="sans-serif" font-size="14" lengthAdjust="spacing" textLength="111.1797" x="365" y="1490.8457">createWindow()</text></g><!--class XWindowSystemFactory--><g id="elem_XWindowSystemFactory"><rect codeLine="27" fill="#F1F1F1" height="129.4844" id="XWindowSystemFactory" rx="2.5" ry="2.5" style="stroke:#181818;stroke-width:0.5;" width="269.9883" x="900.14" y="1476.0869"/><ellipse cx="946.0194" cy="1492.0869" fill="#ADD1B2" rx="11" ry="11" style="stroke:#181818;stroke-width:1.0;"/><path d="M948.9881,1497.7275 Q948.41,1498.0244 947.7694,1498.165 Q947.1288,1498.3213 946.4256,1498.3213 Q943.9256,1498.3213 942.5975,1496.6806 Q941.285,1495.0244 941.285,1491.8994 Q941.285,1488.7744 942.5975,1487.1181 Q943.9256,1485.4619 946.4256,1485.4619 Q947.1288,1485.4619 947.7694,1485.6181 Q948.4256,1485.7744 948.9881,1486.0713 L948.9881,1488.79 Q948.3631,1488.2119 947.7694,1487.9463 Q947.1756,1487.665 946.5506,1487.665 Q945.2069,1487.665 944.5194,1488.7431 Q943.8319,1489.8056 943.8319,1491.8994 Q943.8319,1493.9931 944.5194,1495.0713 Q945.2069,1496.1338 946.5506,1496.1338 Q947.1756,1496.1338 947.7694,1495.8681 Q948.3631,1495.5869 948.9881,1495.0088 L948.9881,1497.7275 Z " fill="#000000"/><text fill="#000000" font-family="sans-serif" font-size="14" lengthAdjust="spacing" textLength="169.7295" x="966.5194" y="1496.9336">XWindowSystemFactory</text><line style="stroke:#181818;stroke-width:0.5;" x1="901.14" x2="1169.1283" y1="1508.0869" y2="1508.0869"/><ellipse cx="911.14" cy="1521.7353" fill="none" rx="3" ry="3" style="stroke:#038048;stroke-width:1.0;"/><text fill="#000000" font-family="sans-serif" font-size="14" lengthAdjust="spacing" text-decoration="underline" textLength="96.373" x="920.14" y="1525.082">NAME : String</text><line style="stroke:#181818;stroke-width:0.5;" x1="901.14" x2="1169.1283" y1="1532.3838" y2="1532.3838"/><polygon fill="#FFFF44" points="911.14,1541.0322,915.14,1545.0322,911.14,1549.0322,907.14,1545.0322" style="stroke:#B38D22;stroke-width:1.0;"/><text fill="#000000" font-family="sans-serif" font-size="14" lengthAdjust="spacing" textLength="180.6533" x="920.14" y="1549.3789">XWindowSystemFactory()</text><polygon fill="#FFFF44" points="911.14,1557.3291,915.14,1561.3291,911.14,1565.3291,907.14,1561.3291" style="stroke:#B38D22;stroke-width:1.0;"/><text fill="#000000" font-family="sans-serif" font-size="14" lengthAdjust="spacing" textLength="192.3838" x="920.14" y="1565.6757">~XWindowSystemFactory()</text><ellipse cx="911.14" cy="1578.6259" fill="#84BE84" rx="3" ry="3" style="stroke:#038048;stroke-width:1.0;"/><text fill="#000000" font-family="sans-serif" font-size="14" lengthAdjust="spacing" text-decoration="underline" textLength="243.9883" x="920.14" y="1581.9726">instance() : WindowSystemFactory</text><ellipse cx="911.14" cy="1594.9228" fill="#84BE84" rx="3" ry="3" style="stroke:#038048;stroke-width:1.0;"/><text fill="#000000" font-family="sans-serif" font-size="14" lengthAdjust="spacing" textLength="111.1797" x="920.14" y="1598.2695">createWindow()</text></g><!--class XcbWindowSystemFactory--><g id="elem_XcbWindowSystemFactory"><rect codeLine="28" fill="#F1F1F1" height="129.4844" id="XcbWindowSystemFactory" rx="2.5" ry="2.5" style="stroke:#181818;stroke-width:0.5;" width="269.9883" x="900.14" y="1312.0869"/><ellipse cx="938.3937" cy="1328.0869" fill="#ADD1B2" rx="11" ry="11" style="stroke:#181818;stroke-width:1.0;"/><path d="M941.3624,1333.7275 Q940.7843,1334.0244 940.1437,1334.165 Q939.503,1334.3213 938.7999,1334.3213 Q936.2999,1334.3213 934.9718,1332.6806 Q933.6593,1331.0244 933.6593,1327.8994 Q933.6593,1324.7744 934.9718,1323.1181 Q936.2999,1321.4619 938.7999,1321.4619 Q939.503,1321.4619 940.1437,1321.6181 Q940.7999,1321.7744 941.3624,1322.0713 L941.3624,1324.79 Q940.7374,1324.2119 940.1437,1323.9463 Q939.5499,1323.665 938.9249,1323.665 Q937.5812,1323.665 936.8937,1324.7431 Q936.2062,1325.8056 936.2062,1327.8994 Q936.2062,1329.9931 936.8937,1331.0713 Q937.5812,1332.1338 938.9249,1332.1338 Q939.5499,1332.1338 940.1437,1331.8681 Q940.7374,1331.5869 941.3624,1331.0088 L941.3624,1333.7275 Z " fill="#000000"/><text fill="#000000" font-family="sans-serif" font-size="14" lengthAdjust="spacing" textLength="186.3135" x="957.5611" y="1332.9336">XcbWindowSystemFactory</text><line style="stroke:#181818;stroke-width:0.5;" x1="901.14" x2="1169.1283" y1="1344.0869" y2="1344.0869"/><ellipse cx="911.14" cy="1357.7353" fill="none" rx="3" ry="3" style="stroke:#038048;stroke-width:1.0;"/><text fill="#000000" font-family="sans-serif" font-size="14" lengthAdjust="spacing" text-decoration="underline" textLength="96.373" x="920.14" y="1361.082">NAME : String</text><line style="stroke:#181818;stroke-width:0.5;" x1="901.14" x2="1169.1283" y1="1368.3838" y2="1368.3838"/><polygon fill="#FFFF44" points="911.14,1377.0322,915.14,1381.0322,911.14,1385.0322,907.14,1381.0322" style="stroke:#B38D22;stroke-width:1.0;"/><text fill="#000000" font-family="sans-serif" font-size="14" lengthAdjust="spacing" textLength="197.2373" x="920.14" y="1385.3789">XcbWindowSystemFactory()</text><polygon fill="#FFFF44" points="911.14,1393.3291,915.14,1397.3291,911.14,1401.3291,907.14,1397.3291" style="stroke:#B38D22;stroke-width:1.0;"/><text fill="#000000" font-family="sans-serif" font-size="14" lengthAdjust="spacing" textLength="208.9678" x="920.14" y="1401.6757">~XcbWindowSystemFactory()</text><ellipse cx="911.14" cy="1414.6259" fill="#84BE84" rx="3" ry="3" style="stroke:#038048;stroke-width:1.0;"/><text fill="#000000" font-family="sans-serif" font-size="14" lengthAdjust="spacing" text-decoration="underline" textLength="243.9883" x="920.14" y="1417.9726">instance() : WindowSystemFactory</text><ellipse cx="911.14" cy="1430.9228" fill="#84BE84" rx="3" ry="3" style="stroke:#038048;stroke-width:1.0;"/><text fill="#000000" font-family="sans-serif" font-size="14" lengthAdjust="spacing" textLength="111.1797" x="920.14" y="1434.2695">createWindow()</text></g><g id="elem_nGeneral"><path d="M19.33,43.2969 L19.33,174.3594 L266.662,174.3594 L266.662,53.2969 L256.662,43.2969 L19.33,43.2969 " fill="#FEFFDD" style="stroke:#181818;stroke-width:0.5;"/><path d="M256.662,43.2969 L256.662,53.2969 L266.662,53.2969 L256.662,43.2969 " fill="#FEFFDD" style="stroke:#181818;stroke-width:1.0;"/><text fill="#000000" font-family="sans-serif" font-size="13" lengthAdjust="spacing" textLength="222.1997" x="25.33" y="60.3638">X server interfaces has been used</text><text fill="#000000" font-family="sans-serif" font-size="13" lengthAdjust="spacing" textLength="191.1914" x="25.33" y="75.4966">instead of window system for</text><text fill="#000000" font-family="sans-serif" font-size="13" lengthAdjust="spacing" textLength="77.8159" x="25.33" y="90.6294">simplelicity.</text><text fill="#000000" font-family="sans-serif" font-size="13" lengthAdjust="spacing" textLength="4.1323" x="25.33" y="105.7622">&#160;</text><text fill="#000000" font-family="sans-serif" font-size="13" lengthAdjust="spacing" textLength="217.147" x="25.33" y="120.895">Application initialization registers</text><text fill="#000000" font-family="sans-serif" font-size="13" lengthAdjust="spacing" textLength="204.3184" x="25.33" y="136.0278">all avaiable Factories, and then</text><text fill="#000000" font-family="sans-serif" font-size="13" lengthAdjust="spacing" textLength="203.5566" x="25.33" y="151.1606">creates a new window, and run</text><text fill="#000000" font-family="sans-serif" font-size="13" lengthAdjust="spacing" textLength="75.4292" x="25.33" y="166.2935">event_loop.</text></g><g id="elem_nViewDraw"><path d="M74.52,1107.2569 L74.52,1132.3897 A0,0 0 0 0 74.52,1132.3897 L211.479,1132.3897 A0,0 0 0 0 211.479,1132.3897 L211.479,1117.2569 L201.479,1107.2569 L147,1107.2569 L143,835.1469 L139,1107.2569 L74.52,1107.2569 A0,0 0 0 0 74.52,1107.2569 " fill="#FEFFDD" style="stroke:#181818;stroke-width:0.5;"/><path d="M201.479,1107.2569 L201.479,1117.2569 L211.479,1117.2569 L201.479,1107.2569 " fill="#FEFFDD" style="stroke:#181818;stroke-width:0.5;"/><text fill="#000000" font-family="sans-serif" font-size="13" lengthAdjust="spacing" textLength="115.959" x="80.52" y="1124.3238">view-&gt;draw(this);</text></g><!--reverse link Window to WindowApplication--><g id="link_Window_WindowApplication"><path codeLine="130" d="M302.7,760.2969 C364.21,760.2969 416.88,760.2969 473.19,760.2969 " fill="none" id="Window-backto-WindowApplication" style="stroke:#181818;stroke-width:1.0;"/><polygon fill="none" points="284.7,760.2969,302.7,766.2969,302.7,754.2969,284.7,760.2969" style="stroke:#181818;stroke-width:1.0;"/></g><!--reverse link WindowImp to XWindowImp--><g id="link_WindowImp_XWindowImp"><path codeLine="131" d="M762.86,1037.3069 C893.84,1037.3069 1035.14,1037.3069 1035.14,1037.3069 C1035.14,1037.3069 1035.14,1049.3269 1035.14,1066.1669 " fill="none" id="WindowImp-backto-XWindowImp" style="stroke:#181818;stroke-width:1.0;"/><polygon fill="none" points="744.86,1037.3069,762.86,1043.3069,762.86,1031.3069,744.86,1037.3069" style="stroke:#181818;stroke-width:1.0;"/></g><!--reverse link WindowImp to XcbWindowImp--><g id="link_WindowImp_XcbWindowImp"><path codeLine="132" d="M762.86,931.8269 C802.51,931.8269 826.76,931.8269 866.4,931.8269 " fill="none" id="WindowImp-backto-XcbWindowImp" style="stroke:#181818;stroke-width:1.0;"/><polygon fill="none" points="744.86,931.8269,762.86,937.8269,762.86,925.8269,744.86,931.8269" style="stroke:#181818;stroke-width:1.0;"/></g><!--reverse link View to ViewComposite--><g id="link_View_ViewComposite"><path codeLine="134" d="M246.5,525.5269 C320.64,525.5269 409.63,525.5269 485.22,525.5269 " fill="none" id="View-backto-ViewComposite" style="stroke:#181818;stroke-width:1.0;"/><polygon fill="none" points="228.5,525.5269,246.5,531.5269,246.5,519.5269,228.5,525.5269" style="stroke:#181818;stroke-width:1.0;"/></g><!--reverse link View to ViewRectangle--><g id="link_View_ViewRectangle"><path codeLine="135" d="M246.5,459.3969 C322.37,459.3969 414.62,459.3969 490.44,459.3969 " fill="none" id="View-backto-ViewRectangle" style="stroke:#181818;stroke-width:1.0;"/><polygon fill="none" points="228.5,459.3969,246.5,465.3969,246.5,453.3969,228.5,459.3969" style="stroke:#181818;stroke-width:1.0;"/></g><!--reverse link View to ViewString--><g id="link_View_ViewString"><path codeLine="136" d="M143,431.9469 C143,360.9869 143,255.8269 143,255.8269 C143,255.8269 364.14,255.8269 490.26,255.8269 " fill="none" id="View-backto-ViewString" style="stroke:#181818;stroke-width:1.0;"/><polygon fill="none" points="143,449.9469,149,431.9469,137,431.9469,143,449.9469" style="stroke:#181818;stroke-width:1.0;"/></g><!--reverse link WindowSystemFactory to XWindowSystemFactory--><g id="link_WindowSystemFactory_XWindowSystemFactory"><path codeLine="138" d="M824.8,1487.1169 C856.63,1487.1169 870.44,1487.1169 899.76,1487.1169 " fill="none" id="WindowSystemFactory-backto-XWindowSystemFactory" style="stroke:#181818;stroke-width:1.0;"/><polygon fill="none" points="806.8,1487.1169,824.8,1493.1169,824.8,1481.1169,806.8,1487.1169" style="stroke:#181818;stroke-width:1.0;"/></g><!--reverse link WindowSystemFactory to XcbWindowSystemFactory--><g id="link_WindowSystemFactory_XcbWindowSystemFactory"><path codeLine="139" d="M824.8,1376.8269 C856.63,1376.8269 870.44,1376.8269 899.76,1376.8269 " fill="none" id="WindowSystemFactory-backto-XcbWindowSystemFactory" style="stroke:#181818;stroke-width:1.0;"/><polygon fill="none" points="806.8,1376.8269,824.8,1382.8269,824.8,1370.8269,806.8,1376.8269" style="stroke:#181818;stroke-width:1.0;"/></g><!--link Window to WindowImp--><g id="link_Window_WindowImp"><path codeLine="141" d="M296.7,937.8269 C335.77,937.8269 360.55,937.8269 400.99,937.8269 " fill="none" id="Window-WindowImp" style="stroke:#181818;stroke-width:1.0;stroke-dasharray:7.0,7.0;"/><polygon fill="none" points="284.7,937.8269,290.7,941.8269,296.7,937.8269,290.7,933.8269,284.7,937.8269" style="stroke:#181818;stroke-width:1.0;"/><polygon fill="#181818" points="406.99,937.8269,397.99,933.8269,401.99,937.8269,397.99,941.8269,406.99,937.8269" style="stroke:#181818;stroke-width:1.0;"/><text fill="#000000" font-family="sans-serif" font-size="13" lengthAdjust="spacing" textLength="103.0034" x="285.6045" y="950.1159">implementation</text></g><!--link Window to View--><g id="link_Window_View"><path codeLine="142" d="M143,723.3969 C143,659.2369 143,597.5469 143,553.4769 " fill="none" id="Window-to-View" style="stroke:#181818;stroke-width:1.0;stroke-dasharray:7.0,7.0;"/><polygon fill="#181818" points="143,547.4769,139,556.4769,143,552.4769,147,556.4769,143,547.4769" style="stroke:#181818;stroke-width:1.0;"/><text fill="#000000" font-family="sans-serif" font-size="13" lengthAdjust="spacing" textLength="32.1953" x="110" y="648.5038">draw</text></g><!--link Window to WindowSystemFactory--><g id="link_Window_WindowSystemFactory"><path codeLine="143" d="M284.96,1054.8269 C333.63,1054.8269 376.07,1054.8269 376.07,1054.8269 C376.07,1054.8269 376.07,1201.3569 376.07,1305.0369 " fill="none" id="Window-to-WindowSystemFactory" style="stroke:#181818;stroke-width:1.0;stroke-dasharray:7.0,7.0;"/><polygon fill="#181818" points="376.07,1311.0369,380.07,1302.0369,376.07,1306.0369,372.07,1302.0369,376.07,1311.0369" style="stroke:#181818;stroke-width:1.0;"/><text fill="#000000" font-family="sans-serif" font-size="13" lengthAdjust="spacing" textLength="29.7832" x="346.07" y="1150.4438">uses</text></g><!--SRC=[dLZVRzis47xNNq4qB_Ri61ZsbWK1cgmR1kn7iHIhWA8O6Ebi4vD8WMISUctqj-z8AX8fKPATF3ZYtSVJtNrdtj6QwGB8hMJv3iWzBIjStOaSagI0hIPQ4CbsUqro9Y7JJF14_SjuHIKjIS4uw6C5H4Yz5qcYnGxq7kJNXE0VVL1QqaoJhA1AaO-Cv-B9Qdp1swegM4QjvUVE19cmyMjPUMRIg31xwCIpPlzcu3jcbdUYh8HY6dholp09bE-AllnUIyPtaLVvZjyVbORoPtona4ToVQsOiQG5lxaP1XI0Ow65WEV4ISaLkMI6nHAujcb5IPUB3fG9hX6YyDd6tsfMxcbXf4jFd4kAQN6R5akK70JBFRseWCVaMI4Kn1GCNM3ROqoLmuHIWVuJYvBnnNl1k8uZtdqnZeuY96Lnfmhn13Bg4eR_6nQyCxaUCsnWfaWQ69d2lHV5SIUQC3xziDbyztbDnk4Vu8jUk48RjNk1nTUoRSE8S6z0Xbshj-GdWozZLmYUCAY97hWUeaUGyK9AMaUDXruCeQ8UqwomwZ-8gazTfxmLMejoN7y_MLO1RgAu6bmE1vQ1BOGx8MI-7dnExVEPFd7BBTCbhKxU10SCu9z2OCASlECX3O2fd-zGLK_e-cIaSsoafzAHdif7-bf2qbSmahwAalHaJhn-PbdnrYRtFNKzen-mCzGF-1b2HXcAGkCSzQ3di1JTEijJTDS9JFNsJN1bpaW3SITikwnxQtCAHlUseuVjqdjMv1BuGBCA18tT053F8cY5BJjtX_gB2mDG9U445ECAfBQWi8KDaDXxxanGYmRb-aymMvd0pRI9_urie5m5WYQo053F8aRJxuh0k72WnQF1DhDTg2n4sz1iIOVgLRTgNjwfwWbTrAlOy8WUV5LclikUCTtun3Dectqu6Svjbx1ZE0uVuzi_VM_6aX4Z5n5nsvO7uFeSz6eGteBJ4bxOMCQz9RFMNBGuuXbhBRbhicsn4Gkz7Zfk_P6tzZi_ftPc4gY6Pk9Ujirtz0r_lFtzNLUI8-YBD9xfCNXz7Zv2pIWTwQbnHsyr4v6FuI_Y6hy9Hk8_UyzPEHWrqiz2Cw5VVxkyZ5oFkmPa0Mb_ikyq_ktNDHmh3o-seRoxs8Ro9j_H-lNTc3zpGjT2_4laRyAhwnj2n6PpCxp3eApfe-R4RAKjj9_fHmKgIRZ05aGLuRy01qaBUwjE2NQk0zxNyH07YSS0AB97q0C0D_joOc66Pg0v4LlovDwcx3l8LaY7KDPtP8lfuyPAx8T_-M6SQKOBzfzRlfmLoY5fKH1we8m-O8jolZDGQq9vJlGUlN6_0jYQKOGIZWbmlZYCV6mWtN2oIR1r4nEt5xt9t4ycRGPxmCNbZUqxUi_KyiTkHmia6_DRqAR9xTMLVu73v8QS9Sd_]--></g></svg>