<?xml version="1.0" encoding="us-ascii" standalone="no"?><svg xmlns="http://www.w3.org/2000/svg" xmlns:xlink="http://www.w3.org/1999/xlink" contentStyleType="text/css" height="388px" preserveAspectRatio="none" style="width:861px;height:388px;background:#FFFFFF;" version="1.1" viewBox="0 0 861 388" width="861px" zoomAndPan="magnify"><defs/><g><text fill="#000000" font-family="sans-serif" font-size="14" font-weight="bold" lengthAdjust="spacing" textLength="191" x="328" y="22.9951">Abstract factory Pattern</text><g id="elem_general"><path d="M6,295.1869 L6,365.7181 L288,365.7181 L288,305.1869 L278,295.1869 L6,295.1869 " fill="#FEFFDD" style="stroke:#181818;stroke-width:0.5;"/><path d="M278,295.1869 L278,305.1869 L288,305.1869 L278,295.1869 " fill="#FEFFDD" style="stroke:#181818;stroke-width:1.0;"/><text fill="#000000" font-family="sans-serif" font-size="13" font-weight="bold" lengthAdjust="spacing" textLength="183" x="12" y="312.2538">Abstract Factory Pattern</text><text fill="#000000" font-family="sans-serif" font-size="13" lengthAdjust="spacing" textLength="257" x="12" y="327.3866">Provide an interface for creating families</text><text fill="#000000" font-family="sans-serif" font-size="13" lengthAdjust="spacing" textLength="251" x="12" y="342.5194">of related or dependent objects without</text><text fill="#000000" font-family="sans-serif" font-size="13" lengthAdjust="spacing" textLength="211" x="12" y="357.6522">specifying their concrete classes.</text></g><!--class AbstractFactory--><g id="elem_AbstractFactory"><rect codeLine="14" fill="#F1F1F1" height="80.5938" id="AbstractFactory" rx="2.5" ry="2.5" style="stroke:#181818;stroke-width:0.5;" width="139" x="348" y="202.1469"/><ellipse cx="363" cy="218.1469" fill="#ADD1B2" rx="11" ry="11" style="stroke:#181818;stroke-width:1.0;"/><path d="M365.9688,223.7875 Q365.3906,224.0844 364.75,224.225 Q364.1094,224.3813 363.4063,224.3813 Q360.9063,224.3813 359.5781,222.7406 Q358.2656,221.0844 358.2656,217.9594 Q358.2656,214.8344 359.5781,213.1781 Q360.9063,211.5219 363.4063,211.5219 Q364.1094,211.5219 364.75,211.6781 Q365.4063,211.8344 365.9688,212.1313 L365.9688,214.85 Q365.3438,214.2719 364.75,214.0063 Q364.1563,213.725 363.5313,213.725 Q362.1875,213.725 361.5,214.8031 Q360.8125,215.8656 360.8125,217.9594 Q360.8125,220.0531 361.5,221.1313 Q362.1875,222.1938 363.5313,222.1938 Q364.1563,222.1938 364.75,221.9281 Q365.3438,221.6469 365.9688,221.0688 L365.9688,223.7875 Z " fill="#000000"/><text fill="#000000" font-family="sans-serif" font-size="14" lengthAdjust="spacing" textLength="107" x="377" y="222.9936">AbstractFactory</text><line style="stroke:#181818;stroke-width:0.5;" x1="349" x2="486" y1="234.1469" y2="234.1469"/><line style="stroke:#181818;stroke-width:0.5;" x1="349" x2="486" y1="242.1469" y2="242.1469"/><text fill="#000000" font-family="sans-serif" font-size="14" lengthAdjust="spacing" textLength="119" x="354" y="259.142">CreateProductA()</text><text fill="#000000" font-family="sans-serif" font-size="14" lengthAdjust="spacing" textLength="120" x="354" y="275.4389">CreateProductB()</text></g><!--class ConcreteFactory1--><g id="elem_ConcreteFactory1"><rect codeLine="15" fill="#F1F1F1" height="80.5938" id="ConcreteFactory1" rx="2.5" ry="2.5" style="stroke:#181818;stroke-width:0.5;" width="155" x="547" y="115.1469"/><ellipse cx="562" cy="131.1469" fill="#ADD1B2" rx="11" ry="11" style="stroke:#181818;stroke-width:1.0;"/><path d="M564.9688,136.7875 Q564.3906,137.0844 563.75,137.225 Q563.1094,137.3813 562.4063,137.3813 Q559.9063,137.3813 558.5781,135.7406 Q557.2656,134.0844 557.2656,130.9594 Q557.2656,127.8344 558.5781,126.1781 Q559.9063,124.5219 562.4063,124.5219 Q563.1094,124.5219 563.75,124.6781 Q564.4063,124.8344 564.9688,125.1313 L564.9688,127.85 Q564.3438,127.2719 563.75,127.0063 Q563.1563,126.725 562.5313,126.725 Q561.1875,126.725 560.5,127.8031 Q559.8125,128.8656 559.8125,130.9594 Q559.8125,133.0531 560.5,134.1313 Q561.1875,135.1938 562.5313,135.1938 Q563.1563,135.1938 563.75,134.9281 Q564.3438,134.6469 564.9688,134.0688 L564.9688,136.7875 Z " fill="#000000"/><text fill="#000000" font-family="sans-serif" font-size="14" lengthAdjust="spacing" textLength="123" x="576" y="135.9936">ConcreteFactory1</text><line style="stroke:#181818;stroke-width:0.5;" x1="548" x2="701" y1="147.1469" y2="147.1469"/><line style="stroke:#181818;stroke-width:0.5;" x1="548" x2="701" y1="155.1469" y2="155.1469"/><text fill="#000000" font-family="sans-serif" font-size="14" lengthAdjust="spacing" textLength="119" x="553" y="172.142">CreateProductA()</text><text fill="#000000" font-family="sans-serif" font-size="14" lengthAdjust="spacing" textLength="120" x="553" y="188.4389">CreateProductB()</text></g><!--class ConcreteFactory2--><g id="elem_ConcreteFactory2"><rect codeLine="16" fill="#F1F1F1" height="80.5938" id="ConcreteFactory2" rx="2.5" ry="2.5" style="stroke:#181818;stroke-width:0.5;" width="155" x="547" y="231.1469"/><ellipse cx="562" cy="247.1469" fill="#ADD1B2" rx="11" ry="11" style="stroke:#181818;stroke-width:1.0;"/><path d="M564.9688,252.7875 Q564.3906,253.0844 563.75,253.225 Q563.1094,253.3813 562.4063,253.3813 Q559.9063,253.3813 558.5781,251.7406 Q557.2656,250.0844 557.2656,246.9594 Q557.2656,243.8344 558.5781,242.1781 Q559.9063,240.5219 562.4063,240.5219 Q563.1094,240.5219 563.75,240.6781 Q564.4063,240.8344 564.9688,241.1313 L564.9688,243.85 Q564.3438,243.2719 563.75,243.0063 Q563.1563,242.725 562.5313,242.725 Q561.1875,242.725 560.5,243.8031 Q559.8125,244.8656 559.8125,246.9594 Q559.8125,249.0531 560.5,250.1313 Q561.1875,251.1938 562.5313,251.1938 Q563.1563,251.1938 563.75,250.9281 Q564.3438,250.6469 564.9688,250.0688 L564.9688,252.7875 Z " fill="#000000"/><text fill="#000000" font-family="sans-serif" font-size="14" lengthAdjust="spacing" textLength="123" x="576" y="251.9936">ConcreteFactory2</text><line style="stroke:#181818;stroke-width:0.5;" x1="548" x2="701" y1="263.1469" y2="263.1469"/><line style="stroke:#181818;stroke-width:0.5;" x1="548" x2="701" y1="271.1469" y2="271.1469"/><text fill="#000000" font-family="sans-serif" font-size="14" lengthAdjust="spacing" textLength="119" x="553" y="288.142">CreateProductA()</text><text fill="#000000" font-family="sans-serif" font-size="14" lengthAdjust="spacing" textLength="120" x="553" y="304.4389">CreateProductB()</text></g><!--entity Client--><g id="elem_Client"><rect fill="#F1F1F1" height="36.2969" rx="2.5" ry="2.5" style="stroke:#181818;stroke-width:0.5;" width="59" x="117.5" y="224.2969"/><text fill="#000000" font-family="sans-serif" font-size="14" lengthAdjust="spacing" textLength="39" x="127.5" y="247.292">Client</text></g><!--entity AbstractProductA--><g id="elem_AbstractProductA"><rect fill="#F1F1F1" height="36.2969" rx="2.5" ry="2.5" style="stroke:#181818;stroke-width:0.5;" width="140" x="554.5" y="44.2969"/><text fill="#000000" font-family="sans-serif" font-size="14" lengthAdjust="spacing" textLength="120" x="564.5" y="67.292">AbstractProductA</text></g><!--entity ProductA1--><g id="elem_ProductA1"><rect fill="#F1F1F1" height="36.2969" rx="2.5" ry="2.5" style="stroke:#181818;stroke-width:0.5;" width="92" x="762.5" y="50.2969"/><text fill="#000000" font-family="sans-serif" font-size="14" lengthAdjust="spacing" textLength="72" x="772.5" y="73.292">ProductA1</text></g><!--entity ProductA2--><g id="elem_ProductA2"><rect fill="#F1F1F1" height="36.2969" rx="2.5" ry="2.5" style="stroke:#181818;stroke-width:0.5;" width="92" x="762.5" y="127.2969"/><text fill="#000000" font-family="sans-serif" font-size="14" lengthAdjust="spacing" textLength="72" x="772.5" y="150.292">ProductA2</text></g><!--entity AbstractProductB--><g id="elem_AbstractProductB"><rect fill="#F1F1F1" height="36.2969" rx="2.5" ry="2.5" style="stroke:#181818;stroke-width:0.5;" width="141" x="554" y="346.2969"/><text fill="#000000" font-family="sans-serif" font-size="14" lengthAdjust="spacing" textLength="121" x="564" y="369.292">AbstractProductB</text></g><!--entity ProductB1--><g id="elem_ProductB1"><rect fill="#F1F1F1" height="36.2969" rx="2.5" ry="2.5" style="stroke:#181818;stroke-width:0.5;" width="93" x="762" y="209.2969"/><text fill="#000000" font-family="sans-serif" font-size="14" lengthAdjust="spacing" textLength="73" x="772" y="232.292">ProductB1</text></g><!--entity ProductB2--><g id="elem_ProductB2"><rect fill="#F1F1F1" height="36.2969" rx="2.5" ry="2.5" style="stroke:#181818;stroke-width:0.5;" width="93" x="762" y="302.2969"/><text fill="#000000" font-family="sans-serif" font-size="14" lengthAdjust="spacing" textLength="73" x="772" y="325.292">ProductB2</text></g><!--link Client to AbstractFactory--><g id="link_Client_AbstractFactory"><path codeLine="37" d="M176.99,242.4469 C217.53,242.4469 286.41,242.4469 341.68,242.4469 " fill="none" id="Client-to-AbstractFactory" style="stroke:#181818;stroke-width:1.0;"/><polygon fill="#181818" points="347.68,242.4469,338.68,238.4469,342.68,242.4469,338.68,246.4469,347.68,242.4469" style="stroke:#181818;stroke-width:1.0;"/></g><!--link Client to AbstractProductA--><g id="link_Client_AbstractProductA"><path codeLine="38" d="M176.67,231.5969 C255.38,201.7969 469.8786,120.6011 568.7286,83.1811 " fill="none" id="Client-to-AbstractProductA" style="stroke:#181818;stroke-width:1.0;"/><polygon fill="#181818" points="574.34,81.0569,564.5068,80.5023,569.6638,82.8271,567.3391,87.9841,574.34,81.0569" style="stroke:#181818;stroke-width:1.0;"/></g><!--link Client to AbstractProductB--><g id="link_Client_AbstractProductB"><path codeLine="39" d="M176.97,248.6169 C205.49,254.9369 250.13,265.5069 288,277.4469 C315.24,286.0369 320.69,292.0869 348,300.4469 C417.02,321.5869 491.7315,338.3454 547.8515,349.8154 " fill="none" id="Client-to-AbstractProductB" style="stroke:#181818;stroke-width:1.0;"/><polygon fill="#181818" points="553.73,351.0169,545.7133,345.2957,548.8313,350.0157,544.1113,353.1337,553.73,351.0169" style="stroke:#181818;stroke-width:1.0;"/></g><!--reverse link AbstractProductA to ProductA1--><g id="link_AbstractProductA_ProductA1"><path codeLine="41" d="M712.8203,65.3286 C735.3203,66.0686 741.71,66.2769 762.01,66.9469 " fill="none" id="AbstractProductA-backto-ProductA1" style="stroke:#181818;stroke-width:1.0;"/><polygon fill="none" points="694.83,64.7369,712.623,71.3253,713.0175,59.3318,694.83,64.7369" style="stroke:#181818;stroke-width:1.0;"/></g><!--reverse link AbstractProductA to ProductA2--><g id="link_AbstractProductA_ProductA2"><path codeLine="42" d="M682.7178,88.5447 C712.6978,102.2147 736.85,113.2269 766.79,126.8869 " fill="none" id="AbstractProductA-backto-ProductA2" style="stroke:#181818;stroke-width:1.0;"/><polygon fill="none" points="666.34,81.0769,680.2285,94.0039,685.2071,83.0854,666.34,81.0769" style="stroke:#181818;stroke-width:1.0;"/></g><!--reverse link AbstractProductB to ProductB1--><g id="link_AbstractProductB_ProductB1"><path codeLine="44" d="M688.8443,338.2451 C698.9043,333.4751 692.95,335.6269 702,329.4469 C737.77,305.0369 772.56,268.0669 791.89,245.9869 " fill="none" id="AbstractProductB-backto-ProductB1" style="stroke:#181818;stroke-width:1.0;"/><polygon fill="none" points="672.58,345.9569,691.4149,343.6665,686.2737,332.8236,672.58,345.9569" style="stroke:#181818;stroke-width:1.0;"/></g><!--reverse link AbstractProductB to ProductB2--><g id="link_AbstractProductB_ProductB2"><path codeLine="45" d="M712.8458,343.3364 C735.0958,337.9564 741.64,336.3669 761.74,331.5169 " fill="none" id="AbstractProductB-backto-ProductB2" style="stroke:#181818;stroke-width:1.0;"/><polygon fill="none" points="695.35,347.5669,714.256,349.1684,711.4357,337.5045,695.35,347.5669" style="stroke:#181818;stroke-width:1.0;"/></g><!--reverse link AbstractFactory to ConcreteFactory1--><g id="link_AbstractFactory_ConcreteFactory1"><path codeLine="47" d="M503.8988,206.203 C522.9788,198.103 527.23,196.3069 546.73,188.0269 " fill="none" id="AbstractFactory-backto-ConcreteFactory1" style="stroke:#181818;stroke-width:1.0;"/><polygon fill="none" points="487.33,213.2369,506.2434,211.7259,501.5541,200.68,487.33,213.2369" style="stroke:#181818;stroke-width:1.0;"/></g><!--reverse link AbstractFactory to ConcreteFactory2--><g id="link_AbstractFactory_ConcreteFactory2"><path codeLine="48" d="M505.1524,254.7089 C524.2324,257.4089 527.23,257.8269 546.73,260.5869 " fill="none" id="AbstractFactory-backto-ConcreteFactory2" style="stroke:#181818;stroke-width:1.0;"/><polygon fill="none" points="487.33,252.1869,504.3118,260.6497,505.9931,248.7681,487.33,252.1869" style="stroke:#181818;stroke-width:1.0;"/></g><!--link ConcreteFactory2 to ProductA2--><g id="link_ConcreteFactory2_ProductA2"><path codeLine="50" d="M684.34,230.7169 C716.74,208.2769 750.4568,184.942 775.7068,167.462 " fill="none" id="ConcreteFactory2-to-ProductA2" style="stroke:#181818;stroke-width:1.0;stroke-dasharray:7.0,7.0;"/><polygon fill="#181818" points="780.64,164.0469,770.9634,165.8808,776.529,166.8928,775.5169,172.4584,780.64,164.0469" style="stroke:#181818;stroke-width:1.0;"/></g><!--link ConcreteFactory2 to ProductB2--><g id="link_ConcreteFactory2_ProductB2"><path codeLine="51" d="M702.42,292.1569 C722.6,297.5869 737.9365,301.7165 755.9065,306.5565 " fill="none" id="ConcreteFactory2-to-ProductB2" style="stroke:#181818;stroke-width:1.0;stroke-dasharray:7.0,7.0;"/><polygon fill="#181818" points="761.7,308.1169,754.05,301.9139,756.8721,306.8165,751.9694,309.6386,761.7,308.1169" style="stroke:#181818;stroke-width:1.0;"/></g><!--link ConcreteFactory1 to ProductA1--><g id="link_ConcreteFactory1_ProductA1"><path codeLine="53" d="M702.42,118.6769 C725.32,107.7369 744.0167,98.7946 763.3667,89.5446 " fill="none" id="ConcreteFactory1-to-ProductA1" style="stroke:#181818;stroke-width:1.0;stroke-dasharray:7.0,7.0;"/><polygon fill="#181818" points="768.78,86.9569,758.9349,87.2296,764.2689,89.1133,762.3852,94.4473,768.78,86.9569" style="stroke:#181818;stroke-width:1.0;"/></g><!--link ConcreteFactory1 to ProductB1--><g id="link_ConcreteFactory1_ProductB1"><path codeLine="54" d="M702.42,185.8769 C722.6,193.8569 738.1508,200.0094 756.1208,207.1194 " fill="none" id="ConcreteFactory1-to-ProductB1" style="stroke:#181818;stroke-width:1.0;stroke-dasharray:7.0,7.0;"/><polygon fill="#181818" points="761.7,209.3269,754.8029,202.2962,757.0507,207.4873,751.8596,209.7351,761.7,209.3269" style="stroke:#181818;stroke-width:1.0;"/></g><!--SRC=[ZLB1ReCm3BtdAtpS3bGYnwcgr5JQkRyGm42cDAaITrsbVVmCWewL3CeXX_UUd-rdBDO4v26OfYMeJC2IZ7T2M-kl9_DbN2C46R88-o9Iq2L1pOyFDpXg8WnE2ES9GKTeq67GLW1_ss9tBtX_AEZuO_2Vfk8o1yOnogO8jGzG1jJ4RRdDoLY34Ngzho6WrOGLiAZ2CxeA7O4lFdZa25T3hRzGhurdB4rzwqoeHSEUth4j3rbQ7IF6ZU1gwCOMeeVkomsZ3kXXg1lGF0rB8RhOj6iufGEFx6YAZDQySNKfQJ-XHYXFO7B1GytrAk6XsEDXCNY3GnSmZcrUNjSaYYNYCOcKpvecPIIVC99fepveoBBTx7W9wXx-_vpw3MjKm_OxooPNMkRbp43z4QXyXK-Sg-Tdl-4pAfd8UhFPJQPTefLCt7nQdY_IlEeF]--></g></svg>