<?xml version="1.0" encoding="us-ascii" standalone="no"?><svg xmlns="http://www.w3.org/2000/svg" xmlns:xlink="http://www.w3.org/1999/xlink" contentStyleType="text/css" height="388px" preserveAspectRatio="none" style="width:839px;height:388px;background:#FFFFFF;" version="1.1" viewBox="0 0 839 388" width="839px" zoomAndPan="magnify"><defs/><g><text fill="#000000" font-family="sans-serif" font-size="14" font-weight="bold" lengthAdjust="spacing" textLength="201" x="312" y="22.9951">Abstract Factory Example</text><g id="elem_general"><path d="M6,295.3169 L6,335.5825 L247,335.5825 L247,305.3169 L237,295.3169 L6,295.3169 " fill="#FEFFDD" style="stroke:#181818;stroke-width:0.5;"/><path d="M237,295.3169 L237,305.3169 L247,305.3169 L237,295.3169 " fill="#FEFFDD" style="stroke:#181818;stroke-width:1.0;"/><text fill="#000000" font-family="sans-serif" font-size="13" font-weight="bold" lengthAdjust="spacing" textLength="123" x="12" y="312.3838">Abstract Factory</text><text fill="#000000" font-family="sans-serif" font-size="13" lengthAdjust="spacing" textLength="220" x="12" y="327.5166">Supporting several window system</text></g><!--class WidgetFactory--><g id="elem_WidgetFactory"><rect codeLine="12" fill="#F1F1F1" height="80.5938" id="WidgetFactory" rx="2.5" ry="2.5" style="stroke:#181818;stroke-width:0.5;" width="130" x="307" y="202.1469"/><ellipse cx="322" cy="218.1469" fill="#ADD1B2" rx="11" ry="11" style="stroke:#181818;stroke-width:1.0;"/><path d="M324.9688,223.7875 Q324.3906,224.0844 323.75,224.225 Q323.1094,224.3813 322.4063,224.3813 Q319.9063,224.3813 318.5781,222.7406 Q317.2656,221.0844 317.2656,217.9594 Q317.2656,214.8344 318.5781,213.1781 Q319.9063,211.5219 322.4063,211.5219 Q323.1094,211.5219 323.75,211.6781 Q324.4063,211.8344 324.9688,212.1313 L324.9688,214.85 Q324.3438,214.2719 323.75,214.0063 Q323.1563,213.725 322.5313,213.725 Q321.1875,213.725 320.5,214.8031 Q319.8125,215.8656 319.8125,217.9594 Q319.8125,220.0531 320.5,221.1313 Q321.1875,222.1938 322.5313,222.1938 Q323.1563,222.1938 323.75,221.9281 Q324.3438,221.6469 324.9688,221.0688 L324.9688,223.7875 Z " fill="#000000"/><text fill="#000000" font-family="sans-serif" font-size="14" lengthAdjust="spacing" textLength="98" x="336" y="222.9936">WidgetFactory</text><line style="stroke:#181818;stroke-width:0.5;" x1="308" x2="436" y1="234.1469" y2="234.1469"/><line style="stroke:#181818;stroke-width:0.5;" x1="308" x2="436" y1="242.1469" y2="242.1469"/><text fill="#000000" font-family="sans-serif" font-size="14" lengthAdjust="spacing" textLength="116" x="313" y="259.142">CreateScrollBar()</text><text fill="#000000" font-family="sans-serif" font-size="14" lengthAdjust="spacing" textLength="110" x="313" y="275.4389">CreateWindow()</text></g><!--class MotifWidgetFactory--><g id="elem_MotifWidgetFactory"><rect codeLine="13" fill="#F1F1F1" height="80.5938" id="MotifWidgetFactory" rx="2.5" ry="2.5" style="stroke:#181818;stroke-width:0.5;" width="163" x="497" y="115.1469"/><ellipse cx="512" cy="131.1469" fill="#ADD1B2" rx="11" ry="11" style="stroke:#181818;stroke-width:1.0;"/><path d="M514.9688,136.7875 Q514.3906,137.0844 513.75,137.225 Q513.1094,137.3813 512.4063,137.3813 Q509.9063,137.3813 508.5781,135.7406 Q507.2656,134.0844 507.2656,130.9594 Q507.2656,127.8344 508.5781,126.1781 Q509.9063,124.5219 512.4063,124.5219 Q513.1094,124.5219 513.75,124.6781 Q514.4063,124.8344 514.9688,125.1313 L514.9688,127.85 Q514.3438,127.2719 513.75,127.0063 Q513.1563,126.725 512.5313,126.725 Q511.1875,126.725 510.5,127.8031 Q509.8125,128.8656 509.8125,130.9594 Q509.8125,133.0531 510.5,134.1313 Q511.1875,135.1938 512.5313,135.1938 Q513.1563,135.1938 513.75,134.9281 Q514.3438,134.6469 514.9688,134.0688 L514.9688,136.7875 Z " fill="#000000"/><text fill="#000000" font-family="sans-serif" font-size="14" lengthAdjust="spacing" textLength="131" x="526" y="135.9936">MotifWidgetFactory</text><line style="stroke:#181818;stroke-width:0.5;" x1="498" x2="659" y1="147.1469" y2="147.1469"/><line style="stroke:#181818;stroke-width:0.5;" x1="498" x2="659" y1="155.1469" y2="155.1469"/><text fill="#000000" font-family="sans-serif" font-size="14" lengthAdjust="spacing" textLength="116" x="503" y="172.142">CreateScrollBar()</text><text fill="#000000" font-family="sans-serif" font-size="14" lengthAdjust="spacing" textLength="110" x="503" y="188.4389">CreateWindow()</text></g><!--class PMWidgetFactory--><g id="elem_PMWidgetFactory"><rect codeLine="14" fill="#F1F1F1" height="80.5938" id="PMWidgetFactory" rx="2.5" ry="2.5" style="stroke:#181818;stroke-width:0.5;" width="151" x="503" y="231.1469"/><ellipse cx="518" cy="247.1469" fill="#ADD1B2" rx="11" ry="11" style="stroke:#181818;stroke-width:1.0;"/><path d="M520.9688,252.7875 Q520.3906,253.0844 519.75,253.225 Q519.1094,253.3813 518.4063,253.3813 Q515.9063,253.3813 514.5781,251.7406 Q513.2656,250.0844 513.2656,246.9594 Q513.2656,243.8344 514.5781,242.1781 Q515.9063,240.5219 518.4063,240.5219 Q519.1094,240.5219 519.75,240.6781 Q520.4063,240.8344 520.9688,241.1313 L520.9688,243.85 Q520.3438,243.2719 519.75,243.0063 Q519.1563,242.725 518.5313,242.725 Q517.1875,242.725 516.5,243.8031 Q515.8125,244.8656 515.8125,246.9594 Q515.8125,249.0531 516.5,250.1313 Q517.1875,251.1938 518.5313,251.1938 Q519.1563,251.1938 519.75,250.9281 Q520.3438,250.6469 520.9688,250.0688 L520.9688,252.7875 Z " fill="#000000"/><text fill="#000000" font-family="sans-serif" font-size="14" lengthAdjust="spacing" textLength="119" x="532" y="251.9936">PMWidgetFactory</text><line style="stroke:#181818;stroke-width:0.5;" x1="504" x2="653" y1="263.1469" y2="263.1469"/><line style="stroke:#181818;stroke-width:0.5;" x1="504" x2="653" y1="271.1469" y2="271.1469"/><text fill="#000000" font-family="sans-serif" font-size="14" lengthAdjust="spacing" textLength="116" x="509" y="288.142">CreateScrollBar()</text><text fill="#000000" font-family="sans-serif" font-size="14" lengthAdjust="spacing" textLength="110" x="509" y="304.4389">CreateWindow()</text></g><!--entity Client--><g id="elem_Client"><rect fill="#F1F1F1" height="36.2969" rx="2.5" ry="2.5" style="stroke:#181818;stroke-width:0.5;" width="59" x="97" y="224.2969"/><text fill="#000000" font-family="sans-serif" font-size="14" lengthAdjust="spacing" textLength="39" x="107" y="247.292">Client</text></g><!--entity Window--><g id="elem_Window"><rect fill="#F1F1F1" height="36.2969" rx="2.5" ry="2.5" style="stroke:#181818;stroke-width:0.5;" width="74" x="541.5" y="44.2969"/><text fill="#000000" font-family="sans-serif" font-size="14" lengthAdjust="spacing" textLength="54" x="551.5" y="67.292">Window</text></g><!--entity PMWindow--><g id="elem_PMWindow"><rect fill="#F1F1F1" height="36.2969" rx="2.5" ry="2.5" style="stroke:#181818;stroke-width:0.5;" width="95" x="729" y="127.2969"/><text fill="#000000" font-family="sans-serif" font-size="14" lengthAdjust="spacing" textLength="75" x="739" y="150.292">PMWindow</text></g><!--entity MotifWindow--><g id="elem_MotifWindow"><rect fill="#F1F1F1" height="36.2969" rx="2.5" ry="2.5" style="stroke:#181818;stroke-width:0.5;" width="107" x="723" y="50.2969"/><text fill="#000000" font-family="sans-serif" font-size="14" lengthAdjust="spacing" textLength="87" x="733" y="73.292">MotifWindow</text></g><!--entity ScrollBar--><g id="elem_ScrollBar"><rect fill="#F1F1F1" height="36.2969" rx="2.5" ry="2.5" style="stroke:#181818;stroke-width:0.5;" width="80" x="538.5" y="346.2969"/><text fill="#000000" font-family="sans-serif" font-size="14" lengthAdjust="spacing" textLength="60" x="548.5" y="369.292">ScrollBar</text></g><!--entity PMScrollBar--><g id="elem_PMScrollBar"><rect fill="#F1F1F1" height="36.2969" rx="2.5" ry="2.5" style="stroke:#181818;stroke-width:0.5;" width="101" x="726" y="302.2969"/><text fill="#000000" font-family="sans-serif" font-size="14" lengthAdjust="spacing" textLength="81" x="736" y="325.292">PMScrollBar</text></g><!--entity MotifScrollBar--><g id="elem_MotifScrollBar"><rect fill="#F1F1F1" height="36.2969" rx="2.5" ry="2.5" style="stroke:#181818;stroke-width:0.5;" width="113" x="720" y="209.2969"/><text fill="#000000" font-family="sans-serif" font-size="14" lengthAdjust="spacing" textLength="93" x="730" y="232.292">MotifScrollBar</text></g><!--reverse link WidgetFactory to MotifWidgetFactory--><g id="link_WidgetFactory_MotifWidgetFactory"><path codeLine="33" d="M453.9832,207.9898 C472.8332,199.9698 477.12,198.1569 496.84,189.7669 " fill="none" id="WidgetFactory-backto-MotifWidgetFactory" style="stroke:#181818;stroke-width:1.0;"/><polygon fill="none" points="437.42,215.0369,456.3322,213.5109,451.6342,202.4688,437.42,215.0369" style="stroke:#181818;stroke-width:1.0;"/></g><!--reverse link WidgetFactory to PMWidgetFactory--><g id="link_WidgetFactory_PMWidgetFactory"><path codeLine="34" d="M455.2417,254.1144 C475.9717,257.0544 481.28,257.8069 502.69,260.8369 " fill="none" id="WidgetFactory-backto-PMWidgetFactory" style="stroke:#181818;stroke-width:1.0;"/><polygon fill="none" points="437.42,251.5869,454.3992,260.055,456.0842,248.1739,437.42,251.5869" style="stroke:#181818;stroke-width:1.0;"/></g><!--reverse link Window to PMWindow--><g id="link_Window_PMWindow"><path codeLine="36" d="M632.4845,84.8872 C665.2545,98.7672 696.9,112.1669 731.75,126.9169 " fill="none" id="Window-backto-PMWindow" style="stroke:#181818;stroke-width:1.0;"/><polygon fill="none" points="615.91,77.8669,630.1445,90.412,634.8246,79.3623,615.91,77.8669" style="stroke:#181818;stroke-width:1.0;"/></g><!--reverse link Window to MotifWindow--><g id="link_Window_MotifWindow"><path codeLine="37" d="M633.9017,64.1126 C663.9017,65.0226 688.86,65.7969 722.65,66.8269 " fill="none" id="Window-backto-MotifWindow" style="stroke:#181818;stroke-width:1.0;"/><polygon fill="none" points="615.91,63.5669,633.7198,70.1099,634.0836,58.1154,615.91,63.5669" style="stroke:#181818;stroke-width:1.0;"/></g><!--reverse link ScrollBar to PMScrollBar--><g id="link_ScrollBar_PMScrollBar"><path codeLine="39" d="M636.2537,351.7076 C666.9737,344.8176 692.37,339.1069 725.56,331.6569 " fill="none" id="ScrollBar-backto-PMScrollBar" style="stroke:#181818;stroke-width:1.0;"/><polygon fill="none" points="618.69,355.6469,637.5667,357.5622,634.9406,345.8531,618.69,355.6469" style="stroke:#181818;stroke-width:1.0;"/></g><!--reverse link ScrollBar to MotifScrollBar--><g id="link_ScrollBar_MotifScrollBar"><path codeLine="40" d="M635.4468,343.3273 C648.9668,337.6973 647.27,337.5469 660,329.4469 C698.37,305.0269 736.71,268.0669 758.14,245.9769 " fill="none" id="ScrollBar-backto-MotifScrollBar" style="stroke:#181818;stroke-width:1.0;"/><polygon fill="none" points="618.83,350.2469,637.7534,348.8662,633.1403,337.7883,618.83,350.2469" style="stroke:#181818;stroke-width:1.0;"/></g><!--link Client to WidgetFactory--><g id="link_Client_WidgetFactory"><path codeLine="42" d="M156.39,242.4469 C193.17,242.4469 251.81,242.4469 300.56,242.4469 " fill="none" id="Client-to-WidgetFactory" style="stroke:#181818;stroke-width:1.0;"/><polygon fill="#181818" points="306.56,242.4469,297.56,238.4469,301.56,242.4469,297.56,246.4469,306.56,242.4469" style="stroke:#181818;stroke-width:1.0;"/></g><!--link Client to Window--><g id="link_Client_Window"><path codeLine="44" d="M156.33,230.9169 C235.19,199.3769 448.7393,113.9556 535.6993,79.1656 " fill="none" id="Client-to-Window" style="stroke:#181818;stroke-width:1.0;"/><polygon fill="#181818" points="541.27,76.9369,531.4281,76.5661,536.6277,78.7941,534.3997,83.9937,541.27,76.9369" style="stroke:#181818;stroke-width:1.0;"/></g><!--link Client to ScrollBar--><g id="link_Client_ScrollBar"><path codeLine="45" d="M156.19,250.1469 C180.53,256.8469 216.28,267.0769 247,277.4469 C274.06,286.5769 279.71,292.0269 307,300.4469 C387.93,325.4069 479.1467,345.0493 532.2067,355.6693 " fill="none" id="Client-to-ScrollBar" style="stroke:#181818;stroke-width:1.0;"/><polygon fill="#181818" points="538.09,356.8469,530.0501,351.1583,533.1872,355.8656,528.48,359.0028,538.09,356.8469" style="stroke:#181818;stroke-width:1.0;"/></g><!--link MotifWidgetFactory to MotifWindow--><g id="link_MotifWidgetFactory_MotifWindow"><path codeLine="47" d="M660.35,119.5569 C685.55,108.3769 706.836,98.9311 728.216,89.4411 " fill="none" id="MotifWidgetFactory-to-MotifWindow" style="stroke:#181818;stroke-width:1.0;stroke-dasharray:7.0,7.0;"/><polygon fill="#181818" points="733.7,87.0069,723.8511,87.0022,729.13,89.0354,727.0968,94.3142,733.7,87.0069" style="stroke:#181818;stroke-width:1.0;"/></g><!--link MotifWidgetFactory to MotifScrollBar--><g id="link_MotifWidgetFactory_MotifScrollBar"><path codeLine="48" d="M660.35,185.1469 C682.18,193.1669 699.5478,199.5485 719.2078,206.7685 " fill="none" id="MotifWidgetFactory-to-MotifScrollBar" style="stroke:#181818;stroke-width:1.0;stroke-dasharray:7.0,7.0;"/><polygon fill="#181818" points="724.84,208.8369,717.7706,201.9795,720.1465,207.1132,715.0128,209.4891,724.84,208.8369" style="stroke:#181818;stroke-width:1.0;"/></g><!--link PMWidgetFactory to PMWindow--><g id="link_PMWidgetFactory_PMWindow"><path codeLine="50" d="M642.86,230.7169 C677.76,208.2769 714.333,184.7715 741.523,167.2915 " fill="none" id="PMWidgetFactory-to-PMWindow" style="stroke:#181818;stroke-width:1.0;stroke-dasharray:7.0,7.0;"/><polygon fill="#181818" points="746.57,164.0469,736.8364,165.5492,742.3642,166.7507,741.1626,172.2785,746.57,164.0469" style="stroke:#181818;stroke-width:1.0;"/></g><!--link PMWidgetFactory to PMScrollBar--><g id="link_PMWidgetFactory_PMScrollBar"><path codeLine="51" d="M654.44,290.1869 C678.32,296.1569 698.3191,301.1517 719.9591,306.5617 " fill="none" id="PMWidgetFactory-to-PMScrollBar" style="stroke:#181818;stroke-width:1.0;stroke-dasharray:7.0,7.0;"/><polygon fill="#181818" points="725.78,308.0169,718.0189,301.9535,720.9293,306.8042,716.0786,309.7146,725.78,308.0169" style="stroke:#181818;stroke-width:1.0;"/></g><!--SRC=[VL91ReCm4BplA_RO7CW3gWYfZTfRf4WvvEp0XbeoDhAt9P7o-89fm7QTS41YPdPsy5WePVfMNgHkGD6PaGrQsNmnrj9InT9e09Qi2DzEZgse63-7bx5N_BY8jbC4e0qJ2eSDQR920GxFvbIc0nu_V7UTiJpiGqS_ennxgMlJexiwfXP8rpWQ0bHAE8T7MJV4Tui9sncMvnontyKeH9_uYbjBWkbGMQFKkx0lgmUAeyyqqF1_LzRcYMpnIk9bZHvf5fUn5w6RePAjagGv02PH08nk2VIND47d2D5m3lNp2v4SuEPM59WhA2FBjELlmapwZ24OPeSvmtrW2PLGQUJftB0eokHwnOnV4o21GwRkzRgCyZsJ14vftwDc_lSykKp_0W00]--></g></svg>