<?xml version="1.0" encoding="us-ascii" standalone="no"?><svg xmlns="http://www.w3.org/2000/svg" xmlns:xlink="http://www.w3.org/1999/xlink" contentStyleType="text/css" height="1188px" preserveAspectRatio="none" style="width:882px;height:1188px;background:#FFFFFF;" version="1.1" viewBox="0 0 882 1188" width="882px" zoomAndPan="magnify"><defs/><g><text fill="#000000" font-family="sans-serif" font-size="14" font-weight="bold" lengthAdjust="spacing" textLength="346" x="261.25" y="22.9951">Anstract Factory: Maze Generation Example</text><!--class MapSite--><g id="elem_MapSite"><rect codeLine="9" fill="#F1F1F1" height="113.1875" id="MapSite" rx="2.5" ry="2.5" style="stroke:#181818;stroke-width:0.5;" width="131" x="272.5" y="744.9169"/><ellipse cx="307.3" cy="760.9169" fill="#ADD1B2" rx="11" ry="11" style="stroke:#181818;stroke-width:1.0;"/><path d="M310.2688,766.5575 Q309.6906,766.8544 309.05,766.995 Q308.4094,767.1513 307.7063,767.1513 Q305.2063,767.1513 303.8781,765.5106 Q302.5656,763.8544 302.5656,760.7294 Q302.5656,757.6044 303.8781,755.9481 Q305.2063,754.2919 307.7063,754.2919 Q308.4094,754.2919 309.05,754.4481 Q309.7063,754.6044 310.2688,754.9013 L310.2688,757.62 Q309.6438,757.0419 309.05,756.7763 Q308.4563,756.495 307.8313,756.495 Q306.4875,756.495 305.8,757.5731 Q305.1125,758.6356 305.1125,760.7294 Q305.1125,762.8231 305.8,763.9013 Q306.4875,764.9638 307.8313,764.9638 Q308.4563,764.9638 309.05,764.6981 Q309.6438,764.4169 310.2688,763.8388 L310.2688,766.5575 Z " fill="#000000"/><text fill="#000000" font-family="sans-serif" font-size="14" lengthAdjust="spacing" textLength="55" x="325.7" y="765.7636">MapSite</text><line style="stroke:#181818;stroke-width:0.5;" x1="273.5" x2="402.5" y1="776.9169" y2="776.9169"/><line style="stroke:#181818;stroke-width:0.5;" x1="273.5" x2="402.5" y1="784.9169" y2="784.9169"/><ellipse cx="283.5" cy="798.5653" fill="#84BE84" rx="3" ry="3" style="stroke:#038048;stroke-width:1.0;"/><text fill="#000000" font-family="sans-serif" font-size="14" lengthAdjust="spacing" textLength="88" x="292.5" y="801.912">enter() : void</text><ellipse cx="283.5" cy="814.8622" fill="#84BE84" rx="3" ry="3" style="stroke:#038048;stroke-width:1.0;"/><text fill="#000000" font-family="sans-serif" font-size="14" lengthAdjust="spacing" textLength="98" x="292.5" y="818.2089">isDoor() : bool</text><ellipse cx="283.5" cy="831.1591" fill="#84BE84" rx="3" ry="3" style="stroke:#038048;stroke-width:1.0;"/><text fill="#000000" font-family="sans-serif" font-size="14" lengthAdjust="spacing" textLength="85" x="292.5" y="834.5057">mark() : void</text><ellipse cx="283.5" cy="847.4559" fill="#84BE84" rx="3" ry="3" style="stroke:#038048;stroke-width:1.0;"/><text fill="#000000" font-family="sans-serif" font-size="14" lengthAdjust="spacing" textLength="105" x="292.5" y="850.8026">marked() : bool</text></g><!--class Room--><g id="elem_Room"><rect codeLine="10" fill="#F1F1F1" height="129.4844" id="Room" rx="2.5" ry="2.5" style="stroke:#181818;stroke-width:0.5;" width="213" x="446.5" y="736.6669"/><ellipse cx="528.25" cy="752.6669" fill="#ADD1B2" rx="11" ry="11" style="stroke:#181818;stroke-width:1.0;"/><path d="M531.2188,758.3075 Q530.6406,758.6044 530,758.745 Q529.3594,758.9013 528.6563,758.9013 Q526.1563,758.9013 524.8281,757.2606 Q523.5156,755.6044 523.5156,752.4794 Q523.5156,749.3544 524.8281,747.6981 Q526.1563,746.0419 528.6563,746.0419 Q529.3594,746.0419 530,746.1981 Q530.6563,746.3544 531.2188,746.6513 L531.2188,749.37 Q530.5938,748.7919 530,748.5263 Q529.4063,748.245 528.7813,748.245 Q527.4375,748.245 526.75,749.3231 Q526.0625,750.3856 526.0625,752.4794 Q526.0625,754.5731 526.75,755.6513 Q527.4375,756.7138 528.7813,756.7138 Q529.4063,756.7138 530,756.4481 Q530.5938,756.1669 531.2188,755.5888 L531.2188,758.3075 Z " fill="#000000"/><text fill="#000000" font-family="sans-serif" font-size="14" lengthAdjust="spacing" textLength="41" x="548.75" y="757.5136">Room</text><line style="stroke:#181818;stroke-width:0.5;" x1="447.5" x2="658.5" y1="768.6669" y2="768.6669"/><rect fill="none" height="6" style="stroke:#C82930;stroke-width:1.0;" width="6" x="454.5" y="779.3153"/><text fill="#000000" font-family="sans-serif" font-size="14" lengthAdjust="spacing" textLength="121" x="466.5" y="785.662">roomNumber : int</text><rect fill="none" height="6" style="stroke:#C82930;stroke-width:1.0;" width="6" x="454.5" y="795.6122"/><text fill="#000000" font-family="sans-serif" font-size="14" lengthAdjust="spacing" textLength="105" x="466.5" y="801.9589">sides : MapSite</text><line style="stroke:#181818;stroke-width:0.5;" x1="447.5" x2="658.5" y1="809.2606" y2="809.2606"/><ellipse cx="457.5" cy="822.9091" fill="#84BE84" rx="3" ry="3" style="stroke:#038048;stroke-width:1.0;"/><text fill="#000000" font-family="sans-serif" font-size="14" lengthAdjust="spacing" textLength="47" x="466.5" y="826.2557">enter()</text><ellipse cx="457.5" cy="839.2059" fill="#84BE84" rx="3" ry="3" style="stroke:#038048;stroke-width:1.0;"/><text fill="#000000" font-family="sans-serif" font-size="14" lengthAdjust="spacing" textLength="187" x="466.5" y="842.5526">setSide(Direction, MapSite)</text><ellipse cx="457.5" cy="855.5028" fill="#84BE84" rx="3" ry="3" style="stroke:#038048;stroke-width:1.0;"/><text fill="#000000" font-family="sans-serif" font-size="14" lengthAdjust="spacing" textLength="128" x="466.5" y="858.8495">getSide(Directioin)</text></g><!--class Wall--><g id="elem_Wall"><rect codeLine="11" fill="#F1F1F1" height="48" id="Wall" rx="2.5" ry="2.5" style="stroke:#181818;stroke-width:0.5;" width="59" x="308.5" y="976.0469"/><ellipse cx="323.5" cy="992.0469" fill="#ADD1B2" rx="11" ry="11" style="stroke:#181818;stroke-width:1.0;"/><path d="M326.4688,997.6875 Q325.8906,997.9844 325.25,998.125 Q324.6094,998.2813 323.9063,998.2813 Q321.4063,998.2813 320.0781,996.6406 Q318.7656,994.9844 318.7656,991.8594 Q318.7656,988.7344 320.0781,987.0781 Q321.4063,985.4219 323.9063,985.4219 Q324.6094,985.4219 325.25,985.5781 Q325.9063,985.7344 326.4688,986.0313 L326.4688,988.75 Q325.8438,988.1719 325.25,987.9063 Q324.6563,987.625 324.0313,987.625 Q322.6875,987.625 322,988.7031 Q321.3125,989.7656 321.3125,991.8594 Q321.3125,993.9531 322,995.0313 Q322.6875,996.0938 324.0313,996.0938 Q324.6563,996.0938 325.25,995.8281 Q325.8438,995.5469 326.4688,994.9688 L326.4688,997.6875 Z " fill="#000000"/><text fill="#000000" font-family="sans-serif" font-size="14" lengthAdjust="spacing" textLength="27" x="337.5" y="996.8936">Wall</text><line style="stroke:#181818;stroke-width:0.5;" x1="309.5" x2="366.5" y1="1008.0469" y2="1008.0469"/><line style="stroke:#181818;stroke-width:0.5;" x1="309.5" x2="366.5" y1="1016.0469" y2="1016.0469"/></g><!--class Door--><g id="elem_Door"><rect codeLine="12" fill="#F1F1F1" height="145.7813" id="Door" rx="2.5" ry="2.5" style="stroke:#181818;stroke-width:0.5;" width="239" x="34.5" y="927.1569"/><ellipse cx="132.75" cy="943.1569" fill="#ADD1B2" rx="11" ry="11" style="stroke:#181818;stroke-width:1.0;"/><path d="M135.7188,948.7975 Q135.1406,949.0944 134.5,949.235 Q133.8594,949.3913 133.1563,949.3913 Q130.6563,949.3913 129.3281,947.7506 Q128.0156,946.0944 128.0156,942.9694 Q128.0156,939.8444 129.3281,938.1881 Q130.6563,936.5319 133.1563,936.5319 Q133.8594,936.5319 134.5,936.6881 Q135.1563,936.8444 135.7188,937.1413 L135.7188,939.86 Q135.0938,939.2819 134.5,939.0163 Q133.9063,938.735 133.2813,938.735 Q131.9375,938.735 131.25,939.8131 Q130.5625,940.8756 130.5625,942.9694 Q130.5625,945.0631 131.25,946.1413 Q131.9375,947.2038 133.2813,947.2038 Q133.9063,947.2038 134.5,946.9381 Q135.0938,946.6569 135.7188,946.0788 L135.7188,948.7975 Z " fill="#000000"/><text fill="#000000" font-family="sans-serif" font-size="14" lengthAdjust="spacing" textLength="34" x="153.25" y="948.0036">Door</text><line style="stroke:#181818;stroke-width:0.5;" x1="35.5" x2="272.5" y1="959.1569" y2="959.1569"/><rect fill="none" height="6" style="stroke:#C82930;stroke-width:1.0;" width="6" x="42.5" y="969.8053"/><text fill="#000000" font-family="sans-serif" font-size="14" lengthAdjust="spacing" textLength="99" x="54.5" y="976.152">room1 : Room</text><rect fill="none" height="6" style="stroke:#C82930;stroke-width:1.0;" width="6" x="42.5" y="986.1022"/><text fill="#000000" font-family="sans-serif" font-size="14" lengthAdjust="spacing" textLength="99" x="54.5" y="992.4489">room2 : Room</text><rect fill="none" height="6" style="stroke:#C82930;stroke-width:1.0;" width="6" x="42.5" y="1002.3991"/><text fill="#000000" font-family="sans-serif" font-size="14" lengthAdjust="spacing" textLength="92" x="54.5" y="1008.7457">isOpen : bool</text><line style="stroke:#181818;stroke-width:0.5;" x1="35.5" x2="272.5" y1="1016.0475" y2="1016.0475"/><ellipse cx="45.5" cy="1029.6959" fill="#84BE84" rx="3" ry="3" style="stroke:#038048;stroke-width:1.0;"/><text fill="#000000" font-family="sans-serif" font-size="14" lengthAdjust="spacing" textLength="47" x="54.5" y="1033.0426">enter()</text><ellipse cx="45.5" cy="1045.9928" fill="#84BE84" rx="3" ry="3" style="stroke:#038048;stroke-width:1.0;"/><text fill="#000000" font-family="sans-serif" font-size="14" lengthAdjust="spacing" textLength="98" x="54.5" y="1049.3395">isDoor() : bool</text><ellipse cx="45.5" cy="1062.2897" fill="#84BE84" rx="3" ry="3" style="stroke:#038048;stroke-width:1.0;"/><text fill="#000000" font-family="sans-serif" font-size="14" lengthAdjust="spacing" textLength="213" x="54.5" y="1065.6364">otherSideRoom(Room) : Room</text></g><!--class Maze--><g id="elem_Maze"><rect codeLine="13" fill="#F1F1F1" height="227.2656" id="Maze" rx="2.5" ry="2.5" style="stroke:#181818;stroke-width:0.5;" width="158" x="474" y="428.6669"/><ellipse cx="530.25" cy="444.6669" fill="#ADD1B2" rx="11" ry="11" style="stroke:#181818;stroke-width:1.0;"/><path d="M533.2188,450.3075 Q532.6406,450.6044 532,450.745 Q531.3594,450.9013 530.6563,450.9013 Q528.1563,450.9013 526.8281,449.2606 Q525.5156,447.6044 525.5156,444.4794 Q525.5156,441.3544 526.8281,439.6981 Q528.1563,438.0419 530.6563,438.0419 Q531.3594,438.0419 532,438.1981 Q532.6563,438.3544 533.2188,438.6513 L533.2188,441.37 Q532.5938,440.7919 532,440.5263 Q531.4063,440.245 530.7813,440.245 Q529.4375,440.245 528.75,441.3231 Q528.0625,442.3856 528.0625,444.4794 Q528.0625,446.5731 528.75,447.6513 Q529.4375,448.7138 530.7813,448.7138 Q531.4063,448.7138 532,448.4481 Q532.5938,448.1669 533.2188,447.5888 L533.2188,450.3075 Z " fill="#000000"/><text fill="#000000" font-family="sans-serif" font-size="14" lengthAdjust="spacing" textLength="37" x="550.75" y="449.5136">Maze</text><line style="stroke:#181818;stroke-width:0.5;" x1="475" x2="631" y1="460.6669" y2="460.6669"/><rect fill="none" height="6" style="stroke:#C82930;stroke-width:1.0;" width="6" x="482" y="471.3153"/><text fill="#000000" font-family="sans-serif" font-size="14" lengthAdjust="spacing" textLength="132" x="494" y="477.662">rooms : Room[0..*]</text><rect fill="none" height="6" style="stroke:#C82930;stroke-width:1.0;" width="6" x="482" y="487.6122"/><text fill="#000000" font-family="sans-serif" font-size="14" lengthAdjust="spacing" textLength="61" x="494" y="493.9589">start : int</text><rect fill="none" height="6" style="stroke:#C82930;stroke-width:1.0;" width="6" x="482" y="503.9091"/><text fill="#000000" font-family="sans-serif" font-size="14" lengthAdjust="spacing" textLength="71" x="494" y="510.2557">target : int</text><rect fill="none" height="6" style="stroke:#C82930;stroke-width:1.0;" width="6" x="482" y="520.2059"/><text fill="#000000" font-family="sans-serif" font-size="14" lengthAdjust="spacing" textLength="80" x="494" y="526.5526">current : int</text><line style="stroke:#181818;stroke-width:0.5;" x1="475" x2="631" y1="533.8544" y2="533.8544"/><ellipse cx="485" cy="547.5028" fill="#84BE84" rx="3" ry="3" style="stroke:#038048;stroke-width:1.0;"/><text fill="#000000" font-family="sans-serif" font-size="14" lengthAdjust="spacing" textLength="118" x="494" y="550.8495">addRoom() : void</text><ellipse cx="485" cy="563.7997" fill="#84BE84" rx="3" ry="3" style="stroke:#038048;stroke-width:1.0;"/><text fill="#000000" font-family="sans-serif" font-size="14" lengthAdjust="spacing" textLength="109" x="494" y="567.1464">addStart() : void</text><ellipse cx="485" cy="580.0966" fill="#84BE84" rx="3" ry="3" style="stroke:#038048;stroke-width:1.0;"/><text fill="#000000" font-family="sans-serif" font-size="14" lengthAdjust="spacing" textLength="122" x="494" y="583.4432">addTarget() : void</text><ellipse cx="485" cy="596.3934" fill="#84BE84" rx="3" ry="3" style="stroke:#038048;stroke-width:1.0;"/><text fill="#000000" font-family="sans-serif" font-size="14" lengthAdjust="spacing" textLength="119" x="494" y="599.7401">roomNo() : Room</text><ellipse cx="485" cy="612.6903" fill="#84BE84" rx="3" ry="3" style="stroke:#038048;stroke-width:1.0;"/><text fill="#000000" font-family="sans-serif" font-size="14" lengthAdjust="spacing" textLength="109" x="494" y="616.037">isTarget() : bool</text><ellipse cx="485" cy="628.9872" fill="#84BE84" rx="3" ry="3" style="stroke:#038048;stroke-width:1.0;"/><text fill="#000000" font-family="sans-serif" font-size="14" lengthAdjust="spacing" textLength="71" x="494" y="632.3339">start() : int</text><ellipse cx="485" cy="645.2841" fill="#84BE84" rx="3" ry="3" style="stroke:#038048;stroke-width:1.0;"/><text fill="#000000" font-family="sans-serif" font-size="14" lengthAdjust="spacing" textLength="81" x="494" y="648.6307">target() : int</text></g><!--class MazeGame--><g id="elem_MazeGame"><rect codeLine="14" fill="#F1F1F1" height="80.5938" id="MazeGame" rx="2.5" ry="2.5" style="stroke:#181818;stroke-width:0.5;" width="297" x="75.5" y="501.8769"/><ellipse cx="180.75" cy="517.8769" fill="#ADD1B2" rx="11" ry="11" style="stroke:#181818;stroke-width:1.0;"/><path d="M183.7188,523.5175 Q183.1406,523.8144 182.5,523.955 Q181.8594,524.1113 181.1563,524.1113 Q178.6563,524.1113 177.3281,522.4706 Q176.0156,520.8144 176.0156,517.6894 Q176.0156,514.5644 177.3281,512.9081 Q178.6563,511.2519 181.1563,511.2519 Q181.8594,511.2519 182.5,511.4081 Q183.1563,511.5644 183.7188,511.8613 L183.7188,514.58 Q183.0938,514.0019 182.5,513.7363 Q181.9063,513.455 181.2813,513.455 Q179.9375,513.455 179.25,514.5331 Q178.5625,515.5956 178.5625,517.6894 Q178.5625,519.7831 179.25,520.8613 Q179.9375,521.9238 181.2813,521.9238 Q181.9063,521.9238 182.5,521.6581 Q183.0938,521.3769 183.7188,520.7988 L183.7188,523.5175 Z " fill="#000000"/><text fill="#000000" font-family="sans-serif" font-size="14" lengthAdjust="spacing" textLength="78" x="201.25" y="522.7236">MazeGame</text><line style="stroke:#181818;stroke-width:0.5;" x1="76.5" x2="371.5" y1="533.8769" y2="533.8769"/><line style="stroke:#181818;stroke-width:0.5;" x1="76.5" x2="371.5" y1="541.8769" y2="541.8769"/><text fill="#000000" font-family="sans-serif" font-size="14" lengthAdjust="spacing" textLength="141" x="81.5" y="558.872">createMaze() : Maze</text><text fill="#000000" font-family="sans-serif" font-size="14" lengthAdjust="spacing" textLength="285" x="81.5" y="575.1689">createMaze(AbstractMazeFactory) : Maze</text></g><!--class Direction--><g id="elem_Direction"><rect codeLine="15" fill="#F1F1F1" height="113.1875" id="Direction" rx="2.5" ry="2.5" style="stroke:#181818;stroke-width:0.5;" width="94" x="695" y="744.8169"/><ellipse cx="710" cy="760.8169" fill="#EB937F" rx="11" ry="11" style="stroke:#181818;stroke-width:1.0;"/><path d="M714.1094,766.8169 L706.3906,766.8169 L706.3906,754.4263 L714.1094,754.4263 L714.1094,756.5825 L708.8438,756.5825 L708.8438,759.2544 L713.6094,759.2544 L713.6094,761.4106 L708.8438,761.4106 L708.8438,764.6606 L714.1094,764.6606 L714.1094,766.8169 Z " fill="#000000"/><text fill="#000000" font-family="sans-serif" font-size="14" lengthAdjust="spacing" textLength="62" x="724" y="765.6636">Direction</text><line style="stroke:#181818;stroke-width:0.5;" x1="696" x2="788" y1="776.8169" y2="776.8169"/><text fill="#000000" font-family="sans-serif" font-size="14" lengthAdjust="spacing" textLength="38" x="701" y="793.812">North</text><text fill="#000000" font-family="sans-serif" font-size="14" lengthAdjust="spacing" textLength="41" x="701" y="810.1089">South</text><text fill="#000000" font-family="sans-serif" font-size="14" lengthAdjust="spacing" textLength="30" x="701" y="826.4057">East</text><text fill="#000000" font-family="sans-serif" font-size="14" lengthAdjust="spacing" textLength="35" x="701" y="842.7026">West</text><line style="stroke:#181818;stroke-width:0.5;" x1="696" x2="788" y1="850.0044" y2="850.0044"/></g><!--class AbstractMazeFactory--><g id="elem_AbstractMazeFactory"><rect codeLine="17" fill="#F1F1F1" height="113.1875" id="AbstractMazeFactory" rx="2.5" ry="2.5" style="stroke:#181818;stroke-width:0.5;" width="176" x="411" y="44.2969"/><ellipse cx="426" cy="60.2969" fill="#ADD1B2" rx="11" ry="11" style="stroke:#181818;stroke-width:1.0;"/><path d="M428.9688,65.9375 Q428.3906,66.2344 427.75,66.375 Q427.1094,66.5313 426.4063,66.5313 Q423.9063,66.5313 422.5781,64.8906 Q421.2656,63.2344 421.2656,60.1094 Q421.2656,56.9844 422.5781,55.3281 Q423.9063,53.6719 426.4063,53.6719 Q427.1094,53.6719 427.75,53.8281 Q428.4063,53.9844 428.9688,54.2813 L428.9688,57 Q428.3438,56.4219 427.75,56.1563 Q427.1563,55.875 426.5313,55.875 Q425.1875,55.875 424.5,56.9531 Q423.8125,58.0156 423.8125,60.1094 Q423.8125,62.2031 424.5,63.2813 Q425.1875,64.3438 426.5313,64.3438 Q427.1563,64.3438 427.75,64.0781 Q428.3438,63.7969 428.9688,63.2188 L428.9688,65.9375 Z " fill="#000000"/><text fill="#000000" font-family="sans-serif" font-size="14" lengthAdjust="spacing" textLength="144" x="440" y="65.1436">AbstractMazeFactory</text><line style="stroke:#181818;stroke-width:0.5;" x1="412" x2="586" y1="76.2969" y2="76.2969"/><line style="stroke:#181818;stroke-width:0.5;" x1="412" x2="586" y1="84.2969" y2="84.2969"/><ellipse cx="422" cy="97.9453" fill="#84BE84" rx="3" ry="3" style="stroke:#038048;stroke-width:1.0;"/><text fill="#000000" font-family="sans-serif" font-size="14" lengthAdjust="spacing" textLength="135" x="431" y="101.292">makeMaze() : Maze</text><ellipse cx="422" cy="114.2422" fill="#84BE84" rx="3" ry="3" style="stroke:#038048;stroke-width:1.0;"/><text fill="#000000" font-family="sans-serif" font-size="14" lengthAdjust="spacing" textLength="143" x="431" y="117.5889">makeRoom() : Room</text><ellipse cx="422" cy="130.5391" fill="#84BE84" rx="3" ry="3" style="stroke:#038048;stroke-width:1.0;"/><text fill="#000000" font-family="sans-serif" font-size="14" lengthAdjust="spacing" textLength="115" x="431" y="133.8857">makeWall() : Wall</text><ellipse cx="422" cy="146.8359" fill="#84BE84" rx="3" ry="3" style="stroke:#038048;stroke-width:1.0;"/><text fill="#000000" font-family="sans-serif" font-size="14" lengthAdjust="spacing" textLength="129" x="431" y="150.1826">makeDoor() : Door</text></g><!--class MazeFactory--><g id="elem_MazeFactory"><rect codeLine="18" fill="#F1F1F1" height="113.1875" id="MazeFactory" rx="2.5" ry="2.5" style="stroke:#181818;stroke-width:0.5;" width="241" x="634.5" y="218.4869"/><ellipse cx="707.25" cy="234.4869" fill="#ADD1B2" rx="11" ry="11" style="stroke:#181818;stroke-width:1.0;"/><path d="M710.2188,240.1275 Q709.6406,240.4244 709,240.565 Q708.3594,240.7213 707.6563,240.7213 Q705.1563,240.7213 703.8281,239.0806 Q702.5156,237.4244 702.5156,234.2994 Q702.5156,231.1744 703.8281,229.5181 Q705.1563,227.8619 707.6563,227.8619 Q708.3594,227.8619 709,228.0181 Q709.6563,228.1744 710.2188,228.4713 L710.2188,231.19 Q709.5938,230.6119 709,230.3463 Q708.4063,230.065 707.7813,230.065 Q706.4375,230.065 705.75,231.1431 Q705.0625,232.2056 705.0625,234.2994 Q705.0625,236.3931 705.75,237.4713 Q706.4375,238.5338 707.7813,238.5338 Q708.4063,238.5338 709,238.2681 Q709.5938,237.9869 710.2188,237.4088 L710.2188,240.1275 Z " fill="#000000"/><text fill="#000000" font-family="sans-serif" font-size="14" lengthAdjust="spacing" textLength="87" x="727.75" y="239.3336">MazeFactory</text><line style="stroke:#181818;stroke-width:0.5;" x1="635.5" x2="874.5" y1="250.4869" y2="250.4869"/><line style="stroke:#181818;stroke-width:0.5;" x1="635.5" x2="874.5" y1="258.4869" y2="258.4869"/><ellipse cx="645.5" cy="272.1353" fill="#84BE84" rx="3" ry="3" style="stroke:#038048;stroke-width:1.0;"/><text fill="#000000" font-family="sans-serif" font-size="14" lengthAdjust="spacing" textLength="135" x="654.5" y="275.482">makeMaze() : Maze</text><ellipse cx="645.5" cy="288.4322" fill="#84BE84" rx="3" ry="3" style="stroke:#038048;stroke-width:1.0;"/><text fill="#000000" font-family="sans-serif" font-size="14" lengthAdjust="spacing" textLength="160" x="654.5" y="291.7789">makeRoom(int) : Room</text><ellipse cx="645.5" cy="304.7291" fill="#84BE84" rx="3" ry="3" style="stroke:#038048;stroke-width:1.0;"/><text fill="#000000" font-family="sans-serif" font-size="14" lengthAdjust="spacing" textLength="115" x="654.5" y="308.0757">makeWall() : Wall</text><ellipse cx="645.5" cy="321.0259" fill="#84BE84" rx="3" ry="3" style="stroke:#038048;stroke-width:1.0;"/><text fill="#000000" font-family="sans-serif" font-size="14" lengthAdjust="spacing" textLength="215" x="654.5" y="324.3726">makeDoor(Room,Room) : Door</text></g><!--class BombMazeFactory--><g id="elem_BombMazeFactory"><rect codeLine="19" fill="#F1F1F1" height="113.1875" id="BombMazeFactory" rx="2.5" ry="2.5" style="stroke:#181818;stroke-width:0.5;" width="241" x="124.5" y="218.4869"/><ellipse cx="176.75" cy="234.4869" fill="#ADD1B2" rx="11" ry="11" style="stroke:#181818;stroke-width:1.0;"/><path d="M179.7188,240.1275 Q179.1406,240.4244 178.5,240.565 Q177.8594,240.7213 177.1563,240.7213 Q174.6563,240.7213 173.3281,239.0806 Q172.0156,237.4244 172.0156,234.2994 Q172.0156,231.1744 173.3281,229.5181 Q174.6563,227.8619 177.1563,227.8619 Q177.8594,227.8619 178.5,228.0181 Q179.1563,228.1744 179.7188,228.4713 L179.7188,231.19 Q179.0938,230.6119 178.5,230.3463 Q177.9063,230.065 177.2813,230.065 Q175.9375,230.065 175.25,231.1431 Q174.5625,232.2056 174.5625,234.2994 Q174.5625,236.3931 175.25,237.4713 Q175.9375,238.5338 177.2813,238.5338 Q177.9063,238.5338 178.5,238.2681 Q179.0938,237.9869 179.7188,237.4088 L179.7188,240.1275 Z " fill="#000000"/><text fill="#000000" font-family="sans-serif" font-size="14" lengthAdjust="spacing" textLength="128" x="197.25" y="239.3336">BombMazeFactory</text><line style="stroke:#181818;stroke-width:0.5;" x1="125.5" x2="364.5" y1="250.4869" y2="250.4869"/><line style="stroke:#181818;stroke-width:0.5;" x1="125.5" x2="364.5" y1="258.4869" y2="258.4869"/><ellipse cx="135.5" cy="272.1353" fill="#84BE84" rx="3" ry="3" style="stroke:#038048;stroke-width:1.0;"/><text fill="#000000" font-family="sans-serif" font-size="14" lengthAdjust="spacing" textLength="135" x="144.5" y="275.482">makeMaze() : Maze</text><ellipse cx="135.5" cy="288.4322" fill="#84BE84" rx="3" ry="3" style="stroke:#038048;stroke-width:1.0;"/><text fill="#000000" font-family="sans-serif" font-size="14" lengthAdjust="spacing" textLength="201" x="144.5" y="291.7789">makeRoom(int) : RoomBomb</text><ellipse cx="135.5" cy="304.7291" fill="#84BE84" rx="3" ry="3" style="stroke:#038048;stroke-width:1.0;"/><text fill="#000000" font-family="sans-serif" font-size="14" lengthAdjust="spacing" textLength="115" x="144.5" y="308.0757">makeWall() : Wall</text><ellipse cx="135.5" cy="321.0259" fill="#84BE84" rx="3" ry="3" style="stroke:#038048;stroke-width:1.0;"/><text fill="#000000" font-family="sans-serif" font-size="14" lengthAdjust="spacing" textLength="215" x="144.5" y="324.3726">makeDoor(Room,Room) : Door</text></g><!--class RoomBomb--><g id="elem_RoomBomb"><rect codeLine="21" fill="#F1F1F1" height="80.5938" id="RoomBomb" rx="2.5" ry="2.5" style="stroke:#181818;stroke-width:0.5;" width="114" x="586" y="959.7469"/><ellipse cx="601" cy="975.7469" fill="#ADD1B2" rx="11" ry="11" style="stroke:#181818;stroke-width:1.0;"/><path d="M603.9688,981.3875 Q603.3906,981.6844 602.75,981.825 Q602.1094,981.9813 601.4063,981.9813 Q598.9063,981.9813 597.5781,980.3406 Q596.2656,978.6844 596.2656,975.5594 Q596.2656,972.4344 597.5781,970.7781 Q598.9063,969.1219 601.4063,969.1219 Q602.1094,969.1219 602.75,969.2781 Q603.4063,969.4344 603.9688,969.7313 L603.9688,972.45 Q603.3438,971.8719 602.75,971.6063 Q602.1563,971.325 601.5313,971.325 Q600.1875,971.325 599.5,972.4031 Q598.8125,973.4656 598.8125,975.5594 Q598.8125,977.6531 599.5,978.7313 Q600.1875,979.7938 601.5313,979.7938 Q602.1563,979.7938 602.75,979.5281 Q603.3438,979.2469 603.9688,978.6688 L603.9688,981.3875 Z " fill="#000000"/><text fill="#000000" font-family="sans-serif" font-size="14" lengthAdjust="spacing" textLength="82" x="615" y="980.5936">RoomBomb</text><line style="stroke:#181818;stroke-width:0.5;" x1="587" x2="699" y1="991.7469" y2="991.7469"/><text fill="#000000" font-family="sans-serif" font-size="14" lengthAdjust="spacing" textLength="96" x="592" y="1008.742">isBlown : bool</text><line style="stroke:#181818;stroke-width:0.5;" x1="587" x2="699" y1="1016.0438" y2="1016.0438"/><text fill="#000000" font-family="sans-serif" font-size="14" lengthAdjust="spacing" textLength="83" x="592" y="1033.0389">blow() : void</text></g><!--class WallBlown--><g id="elem_WallBlown"><rect codeLine="22" fill="#F1F1F1" height="48" id="WallBlown" rx="2.5" ry="2.5" style="stroke:#181818;stroke-width:0.5;" width="101" x="287.5" y="1133.9369"/><ellipse cx="302.5" cy="1149.9369" fill="#ADD1B2" rx="11" ry="11" style="stroke:#181818;stroke-width:1.0;"/><path d="M305.4688,1155.5775 Q304.8906,1155.8744 304.25,1156.015 Q303.6094,1156.1713 302.9063,1156.1713 Q300.4063,1156.1713 299.0781,1154.5306 Q297.7656,1152.8744 297.7656,1149.7494 Q297.7656,1146.6244 299.0781,1144.9681 Q300.4063,1143.3119 302.9063,1143.3119 Q303.6094,1143.3119 304.25,1143.4681 Q304.9063,1143.6244 305.4688,1143.9213 L305.4688,1146.64 Q304.8438,1146.0619 304.25,1145.7963 Q303.6563,1145.515 303.0313,1145.515 Q301.6875,1145.515 301,1146.5931 Q300.3125,1147.6556 300.3125,1149.7494 Q300.3125,1151.8431 301,1152.9213 Q301.6875,1153.9838 303.0313,1153.9838 Q303.6563,1153.9838 304.25,1153.7181 Q304.8438,1153.4369 305.4688,1152.8588 L305.4688,1155.5775 Z " fill="#000000"/><text fill="#000000" font-family="sans-serif" font-size="14" lengthAdjust="spacing" textLength="69" x="316.5" y="1154.7836">WallBlown</text><line style="stroke:#181818;stroke-width:0.5;" x1="288.5" x2="387.5" y1="1165.9369" y2="1165.9369"/><line style="stroke:#181818;stroke-width:0.5;" x1="288.5" x2="387.5" y1="1173.9369" y2="1173.9369"/></g><g id="elem_nMapSiteMark"><path d="M6,773.7169 L6,829.1153 L230,829.1153 L230,783.7169 L220,773.7169 L6,773.7169 " fill="#FEFFDD" style="stroke:#181818;stroke-width:0.5;"/><path d="M220,773.7169 L220,783.7169 L230,783.7169 L220,773.7169 " fill="#FEFFDD" style="stroke:#181818;stroke-width:1.0;"/><text fill="#000000" font-family="sans-serif" font-size="13" lengthAdjust="spacing" textLength="175" x="12" y="790.7838">mark() MapSite for deletion</text><text fill="#000000" font-family="sans-serif" font-size="13" lengthAdjust="spacing" textLength="203" x="12" y="805.9166">marked() returns true if marked</text><text fill="#000000" font-family="sans-serif" font-size="13" lengthAdjust="spacing" textLength="157" x="12" y="821.0494">(used for deleting doors)</text></g><g id="elem_nBombMazeFactory"><path d="M400.5,262.5069 L400.5,271.0769 L365.53,275.0769 L400.5,279.0769 L400.5,287.6397 A0,0 0 0 0 400.5,287.6397 L599.5,287.6397 A0,0 0 0 0 599.5,287.6397 L599.5,272.5069 L589.5,262.5069 L400.5,262.5069 A0,0 0 0 0 400.5,262.5069 " fill="#FEFFDD" style="stroke:#181818;stroke-width:0.5;"/><path d="M589.5,262.5069 L589.5,272.5069 L599.5,272.5069 L589.5,262.5069 " fill="#FEFFDD" style="stroke:#181818;stroke-width:0.5;"/><text fill="#000000" font-family="sans-serif" font-size="13" lengthAdjust="spacing" textLength="178" x="406.5" y="279.5738">More specific categorization</text></g><g id="elem_nRoomBomb"><path d="M403,979.9169 L403,1020.1825 A0,0 0 0 0 403,1020.1825 L551,1020.1825 A0,0 0 0 0 551,1020.1825 L551,1004.0469 L585.65,1000.0469 L551,996.0469 L551,989.9169 L541,979.9169 L403,979.9169 A0,0 0 0 0 403,979.9169 " fill="#FEFFDD" style="stroke:#181818;stroke-width:0.5;"/><path d="M541,979.9169 L541,989.9169 L551,989.9169 L541,979.9169 " fill="#FEFFDD" style="stroke:#181818;stroke-width:0.5;"/><text fill="#000000" font-family="sans-serif" font-size="13" lengthAdjust="spacing" textLength="89" x="409" y="996.9838">blow() replace</text><text fill="#000000" font-family="sans-serif" font-size="13" lengthAdjust="spacing" textLength="127" x="409" y="1012.1166">Walls with WallBlown</text></g><!--reverse link AbstractMazeFactory to MazeFactory--><g id="link_AbstractMazeFactory_MazeFactory"><path codeLine="86" d="M597.0568,167.8413 C625.8168,187.1813 643.1,198.8169 671.86,218.1569 " fill="none" id="AbstractMazeFactory-backto-MazeFactory" style="stroke:#181818;stroke-width:1.0;"/><polygon fill="none" points="582.12,157.7969,593.7087,172.8203,600.405,162.8624,582.12,157.7969" style="stroke:#181818;stroke-width:1.0;"/></g><!--reverse link AbstractMazeFactory to BombMazeFactory--><g id="link_AbstractMazeFactory_BombMazeFactory"><path codeLine="87" d="M401.6307,167.8969 C373.1007,187.2369 356.03,198.8169 327.49,218.1569 " fill="none" id="AbstractMazeFactory-backto-BombMazeFactory" style="stroke:#181818;stroke-width:1.0;"/><polygon fill="none" points="416.53,157.7969,398.264,162.9304,404.9973,172.8633,416.53,157.7969" style="stroke:#181818;stroke-width:1.0;"/></g><!--reverse link MapSite to Room--><g id="link_MapSite_Room"><path codeLine="89" d="M428.882,846.8857 C440.392,849.9557 434.52,846.8369 446.04,846.7869 " fill="none" id="MapSite-backto-Room" style="stroke:#181818;stroke-width:1.0;"/><polygon fill="none" points="411.49,842.2469,427.3357,852.6831,430.4283,841.0884,411.49,842.2469" style="stroke:#181818;stroke-width:1.0;"/></g><!--link Room to MapSite--><g id="link_Room_MapSite"><path codeLine="100" d="M446.04,756.0369 C434.52,755.9869 428.7973,755.9606 417.2873,759.0306 " fill="none" id="Room-to-MapSite" style="stroke:#181818;stroke-width:1.0;"/><polygon fill="#181818" points="411.49,760.5769,421.2168,762.1223,416.3211,759.2883,419.1551,754.3926,411.49,760.5769" style="stroke:#181818;stroke-width:1.0;"/><text fill="#000000" font-family="sans-serif" font-size="13" lengthAdjust="spacing" textLength="33" x="405.5167" y="749.8859">sides</text></g><!--reverse link MapSite to Wall--><g id="link_MapSite_Wall"><path codeLine="90" d="M338,879.6769 C338,918.1269 338,948.0869 338,975.9669 " fill="none" id="MapSite-backto-Wall" style="stroke:#181818;stroke-width:1.0;"/><polygon fill="none" points="338,861.6769,332,879.6769,344,879.6769,338,861.6769" style="stroke:#181818;stroke-width:1.0;"/></g><!--reverse link MapSite to Door--><g id="link_MapSite_Door"><path codeLine="91" d="M270.243,874.8216 C251.093,895.2916 241.72,905.3069 221.69,926.7069 " fill="none" id="MapSite-backto-Door" style="stroke:#181818;stroke-width:1.0;"/><polygon fill="none" points="282.54,861.6769,265.8614,870.7225,274.6245,878.9206,282.54,861.6769" style="stroke:#181818;stroke-width:1.0;"/></g><!--reverse link Room to RoomBomb--><g id="link_Room_RoomBomb"><path codeLine="93" d="M589.8332,882.8931 C603.8432,913.4931 612.66,932.7669 624.84,959.3769 " fill="none" id="Room-backto-RoomBomb" style="stroke:#181818;stroke-width:1.0;"/><polygon fill="none" points="582.34,866.5269,584.3778,885.3908,595.2886,880.3954,582.34,866.5269" style="stroke:#181818;stroke-width:1.0;"/></g><!--reverse link Wall to WallBlown--><g id="link_Wall_WallBlown"><path codeLine="94" d="M338,1042.3869 C338,1071.7769 338,1103.9769 338,1133.4369 " fill="none" id="Wall-backto-WallBlown" style="stroke:#181818;stroke-width:1.0;"/><polygon fill="none" points="338,1024.3869,332,1042.3869,344,1042.3869,338,1024.3869" style="stroke:#181818;stroke-width:1.0;"/></g><!--link Maze to Room--><g id="link_Maze_Room"><path codeLine="99" d="M553,655.6269 C553,683.2069 553,705.7969 553,730.2069 " fill="none" id="Maze-to-Room" style="stroke:#181818;stroke-width:1.0;"/><polygon fill="#181818" points="553,736.2069,557,727.2069,553,731.2069,549,727.2069,553,736.2069" style="stroke:#181818;stroke-width:1.0;"/><text fill="#000000" font-family="sans-serif" font-size="13" lengthAdjust="spacing" textLength="41" x="507.5156" y="675.858">rooms</text></g><!--link Room to Direction--><g id="link_Room_Direction"><path codeLine="102" d="M659.68,801.4169 C671.36,801.4169 677.05,801.4169 688.73,801.4169 " fill="none" id="Room-to-Direction" style="stroke:#181818;stroke-width:1.0;stroke-dasharray:7.0,7.0;"/><polygon fill="#181818" points="694.73,801.4169,685.73,797.4169,689.73,801.4169,685.73,805.4169,694.73,801.4169" style="stroke:#181818;stroke-width:1.0;"/><text fill="#000000" font-family="sans-serif" font-size="13" lengthAdjust="spacing" textLength="33" x="654.1752" y="796.1805">sides</text></g><!--link MazeGame to Maze--><g id="link_MazeGame_Maze"><path codeLine="104" d="M372.78,522.4569 C392.93,521.5769 413.34,521.6369 432.75,523.1669 C446.23,524.2369 454.5522,525.1151 468.3322,527.1151 " fill="none" id="MazeGame-to-Maze" style="stroke:#181818;stroke-width:1.0;stroke-dasharray:7.0,7.0;"/><polygon fill="#181818" points="474.27,527.9769,465.9379,522.7257,469.3218,527.2587,464.7888,530.6427,474.27,527.9769" style="stroke:#181818;stroke-width:1.0;"/><text fill="#000000" font-family="sans-serif" font-size="13" lengthAdjust="spacing" textLength="41" x="390.75" y="518.2338">create</text></g><!--link MazeFactory to Maze--><g id="link_MazeFactory_Maze"><path codeLine="106" d="M712.41,331.9769 C689.03,362.6569 662.9168,396.9247 635.4668,432.9447 " fill="none" id="MazeFactory-to-Maze" style="stroke:#181818;stroke-width:1.0;stroke-dasharray:7.0,7.0;"/><polygon fill="#181818" points="631.83,437.7169,640.4666,432.9831,634.8606,433.74,634.1037,428.1341,631.83,437.7169" style="stroke:#181818;stroke-width:1.0;"/><text fill="#000000" font-family="sans-serif" font-size="13" lengthAdjust="spacing" textLength="41" x="690" y="374.7338">create</text></g><!--link BombMazeFactory to Maze--><g id="link_BombMazeFactory_Maze"><path codeLine="107" d="M309.94,331.9769 C357.86,373.2169 418.7521,425.6332 469.6621,469.4432 " fill="none" id="BombMazeFactory-to-Maze" style="stroke:#181818;stroke-width:1.0;stroke-dasharray:7.0,7.0;"/><polygon fill="#181818" points="474.21,473.3569,469.9972,464.4545,470.4201,470.0955,464.7791,470.5183,474.21,473.3569" style="stroke:#181818;stroke-width:1.0;"/><text fill="#000000" font-family="sans-serif" font-size="13" lengthAdjust="spacing" textLength="41" x="364" y="374.7338">create</text></g><!--link nMapSiteMark to MapSite--><g id="link_nMapSiteMark_MapSite"><path codeLine="117" d="M230.19,826.1769 C244.03,827.8669 258.05,828.9169 271.5,828.9169 " fill="none" id="nMapSiteMark-MapSite" style="stroke:#181818;stroke-width:1.0;stroke-dasharray:7.0,7.0;"/></g><!--link nMapSiteMark to MapSite--><g id="link_nMapSiteMark_MapSite"><path codeLine="118" d="M187.3,829.5769 C213.21,837.9369 243.28,844.9169 271.5,844.9169 " fill="none" id="nMapSiteMark-MapSite-1" style="stroke:#181818;stroke-width:1.0;stroke-dasharray:7.0,7.0;"/></g><!--SRC=[dLR1RXiX4Btp5IYNs4syQdkqAaj9aqOzs9NYIZb4FU3TiOso2nQmJHlrupkmmBBhNLUr3pQyDp1lXc7mPGbRGusaYk_sXXPSGMwu58GORagWDq8RnN93l-2NLB_dTCdUW3w00CMi8Rt_nQf32OHSplxlGoxfvv9f3PgGt0vmwyEQ6_2pHoahFtnYPUc7TrAgQFu6oV21LK10r1MzQwDew9jD4uKryu4a2xl8hQmsAPgeiLIYwBQKh-Aik9TGRK1Xt3vYEgTN80oeoHI7FoKlKePh6xIZDbAMALKnzJAunX9Gj6k8rO-JcSBVLMtTuumB4mdD2z1q7W_1uq5Nd6imQpITn2HVXoMjpQvdmyMK41j4KF011-vyK_1Z7-Jwsm542C6ZKL2OzzCJS6dseAmCk-V4Vas30-AAsBlL7dr-dsNlVaHA6wQCpr704CBGUc1UAuMQkkWLAmhdDpcSIApjreFCT-VWc7Ad9YSnW81pdQpmnT4mElf8LPdMsi8at1kSvmgO0GiusbskONhWDiKL99O58YkfpBw3h6NTG-wPDXtW2H0W0pwQidxfIJnX6FFlKdR2q5vcP-Zwp0d3M6Yk2v5_YXiJXRdl7EL9FMCwxEhhKDQDe5xl6XOrOjGNvfhTY6rNu8ZHcCYmkQr1xNfegDs4sI3UNeDpUknNWTUV6oPo62wdJtzciqx_7pKwUX92etMiFyK4ySUM86taxHgNO6lQBZh_HNc4qZt7slUs2zVPBkXijcW4EjyNhiaZkeXjlajaY_JnZDS_Mr3VGPesq2tzx8ZkLyInnJanhgIn_nK4_b2cgV0XBF6f8nG__Z4CYT_YCr102QwlH0FtA2emjHAQ6bK3vLjFE9j9hQ58reeTBV3mz1J_MXJK-YQfOve5V_EvtUKaYIvQzVsYiiwNKW7L1yZvbkSqnqJjfE9lxcGJ_qVfFQxGw2PMcjtVtoe5XvBbq2J5rfschzpian9iVSKxcRL5-nS0]--></g></svg>