<?xml version="1.0" encoding="us-ascii" standalone="no"?><svg xmlns="http://www.w3.org/2000/svg" xmlns:xlink="http://www.w3.org/1999/xlink" contentStyleType="text/css" height="654px" preserveAspectRatio="none" style="width:877px;height:654px;background:#FFFFFF;" version="1.1" viewBox="0 0 877 654" width="877px" zoomAndPan="magnify"><defs/><g><text fill="#000000" font-family="sans-serif" font-size="14" font-weight="bold" lengthAdjust="spacing" textLength="221" x="321" y="22.9951">Command Pattern Structure</text><!--entity Client--><g id="elem_Client"><rect fill="#F1F1F1" height="36.2969" rx="2.5" ry="2.5" style="stroke:#181818;stroke-width:0.5;" width="59" x="191.5" y="409.1069"/><text fill="#000000" font-family="sans-serif" font-size="14" lengthAdjust="spacing" textLength="39" x="201.5" y="432.102">Client</text></g><!--entity Invoker--><g id="elem_Invoker"><rect fill="#F1F1F1" height="36.2969" rx="2.5" ry="2.5" style="stroke:#181818;stroke-width:0.5;" width="70" x="372" y="272.9569"/><text fill="#000000" font-family="sans-serif" font-size="14" lengthAdjust="spacing" textLength="50" x="382" y="295.952">Invoker</text></g><!--class Command--><g id="elem_Command"><rect codeLine="10" fill="#F1F1F1" height="64.2969" id="Command" rx="2.5" ry="2.5" style="stroke:#181818;stroke-width:0.5;" width="103" x="233.5" y="258.9569"/><ellipse cx="248.5" cy="274.9569" fill="#ADD1B2" rx="11" ry="11" style="stroke:#181818;stroke-width:1.0;"/><path d="M251.4688,280.5975 Q250.8906,280.8944 250.25,281.035 Q249.6094,281.1913 248.9063,281.1913 Q246.4063,281.1913 245.0781,279.5506 Q243.7656,277.8944 243.7656,274.7694 Q243.7656,271.6444 245.0781,269.9881 Q246.4063,268.3319 248.9063,268.3319 Q249.6094,268.3319 250.25,268.4881 Q250.9063,268.6444 251.4688,268.9413 L251.4688,271.66 Q250.8438,271.0819 250.25,270.8163 Q249.6563,270.535 249.0313,270.535 Q247.6875,270.535 247,271.6131 Q246.3125,272.6756 246.3125,274.7694 Q246.3125,276.8631 247,277.9413 Q247.6875,279.0038 249.0313,279.0038 Q249.6563,279.0038 250.25,278.7381 Q250.8438,278.4569 251.4688,277.8788 L251.4688,280.5975 Z " fill="#000000"/><text fill="#000000" font-family="sans-serif" font-size="14" lengthAdjust="spacing" textLength="71" x="262.5" y="279.8036">Command</text><line style="stroke:#181818;stroke-width:0.5;" x1="234.5" x2="335.5" y1="290.9569" y2="290.9569"/><line style="stroke:#181818;stroke-width:0.5;" x1="234.5" x2="335.5" y1="298.9569" y2="298.9569"/><text fill="#000000" font-family="sans-serif" font-size="14" lengthAdjust="spacing" textLength="66" x="239.5" y="315.952">Execute()</text></g><!--class ConcreteCommand--><g id="elem_ConcreteCommand"><rect codeLine="11" fill="#F1F1F1" height="80.5938" id="ConcreteCommand" rx="2.5" ry="2.5" style="stroke:#181818;stroke-width:0.5;" width="167" x="293.5" y="387.2569"/><ellipse cx="308.5" cy="403.2569" fill="#ADD1B2" rx="11" ry="11" style="stroke:#181818;stroke-width:1.0;"/><path d="M311.4688,408.8975 Q310.8906,409.1944 310.25,409.335 Q309.6094,409.4913 308.9063,409.4913 Q306.4063,409.4913 305.0781,407.8506 Q303.7656,406.1944 303.7656,403.0694 Q303.7656,399.9444 305.0781,398.2881 Q306.4063,396.6319 308.9063,396.6319 Q309.6094,396.6319 310.25,396.7881 Q310.9063,396.9444 311.4688,397.2413 L311.4688,399.96 Q310.8438,399.3819 310.25,399.1163 Q309.6563,398.835 309.0313,398.835 Q307.6875,398.835 307,399.9131 Q306.3125,400.9756 306.3125,403.0694 Q306.3125,405.1631 307,406.2413 Q307.6875,407.3038 309.0313,407.3038 Q309.6563,407.3038 310.25,407.0381 Q310.8438,406.7569 311.4688,406.1788 L311.4688,408.8975 Z " fill="#000000"/><text fill="#000000" font-family="sans-serif" font-size="14" lengthAdjust="spacing" textLength="135" x="322.5" y="408.1036">ConcreteCommand</text><line style="stroke:#181818;stroke-width:0.5;" x1="294.5" x2="459.5" y1="419.2569" y2="419.2569"/><text fill="#000000" font-family="sans-serif" font-size="14" lengthAdjust="spacing" textLength="35" x="299.5" y="436.252">state</text><line style="stroke:#181818;stroke-width:0.5;" x1="294.5" x2="459.5" y1="443.5538" y2="443.5538"/><text fill="#000000" font-family="sans-serif" font-size="14" lengthAdjust="spacing" textLength="66" x="299.5" y="460.5489">Execute()</text></g><!--class Receiver--><g id="elem_Receiver"><rect codeLine="12" fill="#F1F1F1" height="64.2969" id="Receiver" rx="2.5" ry="2.5" style="stroke:#181818;stroke-width:0.5;" width="92" x="504" y="395.1069"/><ellipse cx="519" cy="411.1069" fill="#ADD1B2" rx="11" ry="11" style="stroke:#181818;stroke-width:1.0;"/><path d="M521.9688,416.7475 Q521.3906,417.0444 520.75,417.185 Q520.1094,417.3413 519.4063,417.3413 Q516.9063,417.3413 515.5781,415.7006 Q514.2656,414.0444 514.2656,410.9194 Q514.2656,407.7944 515.5781,406.1381 Q516.9063,404.4819 519.4063,404.4819 Q520.1094,404.4819 520.75,404.6381 Q521.4063,404.7944 521.9688,405.0913 L521.9688,407.81 Q521.3438,407.2319 520.75,406.9663 Q520.1563,406.685 519.5313,406.685 Q518.1875,406.685 517.5,407.7631 Q516.8125,408.8256 516.8125,410.9194 Q516.8125,413.0131 517.5,414.0913 Q518.1875,415.1538 519.5313,415.1538 Q520.1563,415.1538 520.75,414.8881 Q521.3438,414.6069 521.9688,414.0288 L521.9688,416.7475 Z " fill="#000000"/><text fill="#000000" font-family="sans-serif" font-size="14" lengthAdjust="spacing" textLength="60" x="533" y="415.9536">Receiver</text><line style="stroke:#181818;stroke-width:0.5;" x1="505" x2="595" y1="427.1069" y2="427.1069"/><line style="stroke:#181818;stroke-width:0.5;" x1="505" x2="595" y1="435.1069" y2="435.1069"/><text fill="#000000" font-family="sans-serif" font-size="14" lengthAdjust="spacing" textLength="53" x="510" y="452.102">Action()</text></g><g id="elem_nConcreteCommandExecute"><path d="M476.5,278.5469 L476.5,303.6797 L635.5,303.6797 L635.5,288.5469 L625.5,278.5469 L476.5,278.5469 " fill="#FEFFDD" style="stroke:#181818;stroke-width:0.5;"/><path d="M625.5,278.5469 L625.5,288.5469 L635.5,288.5469 L625.5,278.5469 " fill="#FEFFDD" style="stroke:#181818;stroke-width:1.0;"/><text fill="#000000" font-family="sans-serif" font-size="13" font-weight="bold" lengthAdjust="spacing" textLength="138" x="482.5" y="295.6138">receiver-&gt;Action();</text></g><g id="elem_nCommand"><path d="M122.5,43.2969 L122.5,83.5625 A0,0 0 0 0 122.5,83.5625 L281,83.5625 L285,258.7969 L289,83.5625 L375.5,83.5625 A0,0 0 0 0 375.5,83.5625 L375.5,53.2969 L365.5,43.2969 L122.5,43.2969 A0,0 0 0 0 122.5,43.2969 " fill="#FEFFDD" style="stroke:#181818;stroke-width:0.5;"/><path d="M365.5,43.2969 L365.5,53.2969 L375.5,53.2969 L365.5,43.2969 " fill="#FEFFDD" style="stroke:#181818;stroke-width:0.5;"/><text fill="#000000" font-family="sans-serif" font-size="13" font-weight="bold" lengthAdjust="spacing" textLength="75" x="128.5" y="60.3638">Command</text><text fill="#000000" font-family="sans-serif" font-size="13" lengthAdjust="spacing" textLength="232" x="128.5" y="75.4966">interface for executing an operation.</text></g><g id="elem_nConcreteCommand"><path d="M233.5,592.2569 L233.5,647.6553 A0,0 0 0 0 233.5,647.6553 L520.5,647.6553 A0,0 0 0 0 520.5,647.6553 L520.5,602.2569 L510.5,592.2569 L381,592.2569 L377,470.9869 L373,592.2569 L233.5,592.2569 A0,0 0 0 0 233.5,592.2569 " fill="#FEFFDD" style="stroke:#181818;stroke-width:0.5;"/><path d="M510.5,592.2569 L510.5,602.2569 L520.5,602.2569 L510.5,592.2569 " fill="#FEFFDD" style="stroke:#181818;stroke-width:0.5;"/><text fill="#000000" font-family="sans-serif" font-size="13" font-weight="bold" lengthAdjust="spacing" textLength="141" x="239.5" y="609.3238">ConcreteCommand</text><text fill="#000000" font-family="sans-serif" font-size="13" lengthAdjust="spacing" textLength="239" x="239.5" y="624.4566">- binding between reveicer and action</text><text fill="#000000" font-family="sans-serif" font-size="13" lengthAdjust="spacing" textLength="266" x="239.5" y="639.5894">- execute invokes operations on Receiver.</text></g><g id="elem_nClient"><path d="M6,143.5669 L6,198.9653 A0,0 0 0 0 6,198.9653 L195.75,198.9653 L199.75,408.7369 L203.75,198.9653 L208,198.9653 A0,0 0 0 0 208,198.9653 L208,153.5669 L198,143.5669 L6,143.5669 A0,0 0 0 0 6,143.5669 " fill="#FEFFDD" style="stroke:#181818;stroke-width:0.5;"/><path d="M198,143.5669 L198,153.5669 L208,153.5669 L198,143.5669 " fill="#FEFFDD" style="stroke:#181818;stroke-width:0.5;"/><text fill="#000000" font-family="sans-serif" font-size="13" font-weight="bold" lengthAdjust="spacing" textLength="42" x="17" y="160.6338">Client</text><text fill="#000000" font-family="sans-serif" font-size="13" lengthAdjust="spacing" textLength="48" x="12" y="175.7666">creates</text><text fill="#000000" font-family="sans-serif" font-size="13" font-style="italic" lengthAdjust="spacing" textLength="125" x="64" y="175.7666">ConcreteCommand</text><text fill="#000000" font-family="sans-serif" font-size="13" lengthAdjust="spacing" textLength="4" x="189" y="175.7666">&#160;</text><text fill="#000000" font-family="sans-serif" font-size="13" lengthAdjust="spacing" textLength="176" x="12" y="190.8994">object and sets its receiver.</text></g><g id="elem_nInvoker"><path d="M411,43.2969 L411,83.5625 A0,0 0 0 0 411,83.5625 L422.5,83.5625 L426.5,272.6369 L430.5,83.5625 L711,83.5625 A0,0 0 0 0 711,83.5625 L711,53.2969 L701,43.2969 L411,43.2969 A0,0 0 0 0 411,43.2969 " fill="#FEFFDD" style="stroke:#181818;stroke-width:0.5;"/><path d="M701,43.2969 L701,53.2969 L711,53.2969 L701,43.2969 " fill="#FEFFDD" style="stroke:#181818;stroke-width:0.5;"/><text fill="#000000" font-family="sans-serif" font-size="13" font-weight="bold" lengthAdjust="spacing" textLength="54" x="417" y="60.3638">Invoker</text><text fill="#000000" font-family="sans-serif" font-size="13" lengthAdjust="spacing" textLength="279" x="417" y="75.4966">asks the command to carryout the request.</text></g><g id="elem_nReceiver"><path d="M602,143.5669 L602,198.9653 L870,198.9653 L870,153.5669 L860,143.5669 L602,143.5669 " fill="#FEFFDD" style="stroke:#181818;stroke-width:0.5;"/><path d="M860,143.5669 L860,153.5669 L870,153.5669 L860,143.5669 " fill="#FEFFDD" style="stroke:#181818;stroke-width:1.0;"/><text fill="#000000" font-family="sans-serif" font-size="13" font-weight="bold" lengthAdjust="spacing" textLength="63" x="613" y="160.6338">Receiver</text><text fill="#000000" font-family="sans-serif" font-size="13" lengthAdjust="spacing" textLength="236" x="608" y="175.7666">knows hoe to perform the operations</text><text fill="#000000" font-family="sans-serif" font-size="13" lengthAdjust="spacing" textLength="247" x="608" y="190.8994">associated with carrying out a request.</text></g><!--reverse link Command to ConcreteCommand--><g id="link_Command_ConcreteCommand"><path codeLine="21" d="M311,341.7169 C311,359.5769 311,363.9569 311,383.3269 " fill="none" id="Command-backto-ConcreteCommand" style="stroke:#181818;stroke-width:1.0;"/><polygon fill="none" points="311,323.7169,305,341.7169,317,341.7169,311,323.7169" style="stroke:#181818;stroke-width:1.0;"/></g><!--link Client to Receiver--><g id="link_Client_Receiver"><path codeLine="23" d="M242,408.9669 C242,387.0569 242,353.2569 242,353.2569 C242,353.2569 550,353.2569 550,353.2569 C550,353.2569 550,369.0769 550,389.0169 " fill="none" id="Client-to-Receiver" style="stroke:#181818;stroke-width:1.0;"/><polygon fill="#181818" points="550,395.0169,554,386.0169,550,390.0169,546,386.0169,550,395.0169" style="stroke:#181818;stroke-width:1.0;"/></g><!--link Client to ConcreteCommand--><g id="link_Client_ConcreteCommand"><path codeLine="24" d="M250.71,427.2569 C260.96,427.2569 267.05,427.2569 279.62,427.2569 " fill="none" id="Client-to-ConcreteCommand" style="stroke:#181818;stroke-width:1.0;stroke-dasharray:7.0,7.0;"/><polygon fill="#181818" points="285.62,427.2569,276.62,423.2569,280.62,427.2569,276.62,431.2569,285.62,427.2569" style="stroke:#181818;stroke-width:1.0;"/></g><!--link Invoker to Command--><g id="link_Invoker_Command"><path codeLine="25" d="M359.71,291.1069 C348.73,291.1069 354.4,291.1069 342.55,291.1069 " fill="none" id="Invoker-Command" style="stroke:#181818;stroke-width:1.0;"/><polygon fill="none" points="371.71,291.1069,365.71,287.1069,359.71,291.1069,365.71,295.1069,371.71,291.1069" style="stroke:#181818;stroke-width:1.0;"/><polygon fill="#181818" points="336.55,291.1069,345.55,295.1069,341.55,291.1069,345.55,287.1069,336.55,291.1069" style="stroke:#181818;stroke-width:1.0;"/></g><!--link ConcreteCommand to Receiver--><g id="link_ConcreteCommand_Receiver"><path codeLine="26" d="M468.31,427.2569 C480.5,427.2569 486.55,427.2569 497.51,427.2569 " fill="none" id="ConcreteCommand-to-Receiver" style="stroke:#181818;stroke-width:1.0;"/><polygon fill="#181818" points="503.51,427.2569,494.51,423.2569,498.51,427.2569,494.51,431.2569,503.51,427.2569" style="stroke:#181818;stroke-width:1.0;"/><text fill="#000000" font-family="sans-serif" font-size="13" lengthAdjust="spacing" textLength="51" x="445.3894" y="421.241">receiver</text></g><!--link nConcreteCommandExecute to ConcreteCommand--><g id="link_nConcreteCommandExecute_ConcreteCommand"><path codeLine="31" d="M490.25,303.9269 C490.25,330.5169 490.25,389.1869 490.25,389.1869 C490.25,389.1869 380.51,389.1869 377.08,389.1869 " fill="none" id="nConcreteCommandExecute-ConcreteCommand" style="stroke:#181818;stroke-width:1.0;stroke-dasharray:7.0,7.0;"/></g><!--link nReceiver to Receiver--><g id="link_nReceiver_Receiver"><path codeLine="64" d="M752.75,199.1469 C752.75,265.4969 752.75,427.2569 752.75,427.2569 C752.75,427.2569 656.1,427.2569 596.26,427.2569 " fill="none" id="nReceiver-Receiver" style="stroke:#181818;stroke-width:1.0;stroke-dasharray:7.0,7.0;"/></g><!--SRC=[TPFFRjim3CRlUWgYf_LWzvuP1eQYXzs6xGbaXOsvs5GcqKaBxE4hsPBZFwq10nOjyljz5AMxpjvwUYC-ANyclcYdU-Y8KTul2DP9QvKIaWxXsVQzvYFyqYBe6Fw86umC3fLoQ4JpAMxg25aMWPzyjMTqIfbEUv-Bp2is3WNNqTzeaAun9t_10NuO8SlV7fNA70TuUKCp24x1LQNmquiM_2I-Ifg2rV-YsB6eoGeKzHqeXSfwjplP15iuEhLIrBFJBS63IzKULgKLMq7G7dYJa7WLXATgwfnTrBaZtwkdfbOOIiSIwejyACijzE6GQo_59-gajbmIXsD_rGRXrJh0CJNC3MW6Uq6d8qsvufWCbwDoQkfNBk-2-t013V4nIZKeDqG6XrSa4zeTw-kn3sad9hSqdeU_auLFdhkzmDmUJwJTmIsmf_bEjB1OXeGmS1ugsfgedgY6SOzj_eQBCL9x50yKNhTduZndiNEJmfqWNwY4i5ngV_OWBO99PiI2qSwzsq76kCD_0tfPIkN1ZLhpNPt5vl7CXbU1CzkRXzPY50gD3dFHZpgBhYSmRms5zXpXHj9EKF508vZ-36k- -P5h5lq0]--></g></svg>