<?xml version="1.0" encoding="us-ascii" standalone="no"?><svg xmlns="http://www.w3.org/2000/svg" xmlns:xlink="http://www.w3.org/1999/xlink" contentStyleType="text/css" height="943px" preserveAspectRatio="none" style="width:871px;height:943px;background:#FFFFFF;" version="1.1" viewBox="0 0 871 943" width="871px" zoomAndPan="magnify"><defs/><g><text fill="#000000" font-family="sans-serif" font-size="14" font-weight="bold" lengthAdjust="spacing" textLength="249" x="304" y="22.9951">Command Pattern Sample Code</text><!--class Application--><g id="elem_Application"><rect codeLine="7" fill="#F1F1F1" height="96.8906" id="Application" rx="2.5" ry="2.5" style="stroke:#181818;stroke-width:0.5;" width="275" x="337" y="351.8669"/><ellipse cx="432.75" cy="367.8669" fill="#ADD1B2" rx="11" ry="11" style="stroke:#181818;stroke-width:1.0;"/><path d="M435.7188,373.5075 Q435.1406,373.8044 434.5,373.945 Q433.8594,374.1013 433.1563,374.1013 Q430.6563,374.1013 429.3281,372.4606 Q428.0156,370.8044 428.0156,367.6794 Q428.0156,364.5544 429.3281,362.8981 Q430.6563,361.2419 433.1563,361.2419 Q433.8594,361.2419 434.5,361.3981 Q435.1563,361.5544 435.7188,361.8513 L435.7188,364.57 Q435.0938,363.9919 434.5,363.7263 Q433.9063,363.445 433.2813,363.445 Q431.9375,363.445 431.25,364.5231 Q430.5625,365.5856 430.5625,367.6794 Q430.5625,369.7731 431.25,370.8513 Q431.9375,371.9138 433.2813,371.9138 Q433.9063,371.9138 434.5,371.6481 Q435.0938,371.3669 435.7188,370.7888 L435.7188,373.5075 Z " fill="#000000"/><text fill="#000000" font-family="sans-serif" font-size="14" lengthAdjust="spacing" textLength="75" x="453.25" y="372.7136">Application</text><line style="stroke:#181818;stroke-width:0.5;" x1="338" x2="611" y1="383.8669" y2="383.8669"/><line style="stroke:#181818;stroke-width:0.5;" x1="338" x2="611" y1="391.8669" y2="391.8669"/><ellipse cx="348" cy="405.5153" fill="#84BE84" rx="3" ry="3" style="stroke:#038048;stroke-width:1.0;"/><text fill="#000000" font-family="sans-serif" font-size="14" lengthAdjust="spacing" textLength="223" x="357" y="408.862">addDocument(Document) : void</text><ellipse cx="348" cy="421.8122" fill="#84BE84" rx="3" ry="3" style="stroke:#038048;stroke-width:1.0;"/><text fill="#000000" font-family="sans-serif" font-size="14" lengthAdjust="spacing" textLength="249" x="357" y="425.1589">removeDocument(Document) : void</text><ellipse cx="348" cy="438.1091" fill="#84BE84" rx="3" ry="3" style="stroke:#038048;stroke-width:1.0;"/><text fill="#000000" font-family="sans-serif" font-size="14" lengthAdjust="spacing" textLength="209" x="357" y="441.4557">getDocument(int) : Document</text></g><!--class Document--><g id="elem_Document"><rect codeLine="8" fill="#F1F1F1" height="129.4844" id="Document" rx="2.5" ry="2.5" style="stroke:#181818;stroke-width:0.5;" width="105" x="727.5" y="335.1269"/><ellipse cx="742.5" cy="351.1269" fill="#ADD1B2" rx="11" ry="11" style="stroke:#181818;stroke-width:1.0;"/><path d="M745.4688,356.7675 Q744.8906,357.0644 744.25,357.205 Q743.6094,357.3613 742.9063,357.3613 Q740.4063,357.3613 739.0781,355.7206 Q737.7656,354.0644 737.7656,350.9394 Q737.7656,347.8144 739.0781,346.1581 Q740.4063,344.5019 742.9063,344.5019 Q743.6094,344.5019 744.25,344.6581 Q744.9063,344.8144 745.4688,345.1113 L745.4688,347.83 Q744.8438,347.2519 744.25,346.9863 Q743.6563,346.705 743.0313,346.705 Q741.6875,346.705 741,347.7831 Q740.3125,348.8456 740.3125,350.9394 Q740.3125,353.0331 741,354.1113 Q741.6875,355.1738 743.0313,355.1738 Q743.6563,355.1738 744.25,354.9081 Q744.8438,354.6269 745.4688,354.0488 L745.4688,356.7675 Z " fill="#000000"/><text fill="#000000" font-family="sans-serif" font-size="14" lengthAdjust="spacing" textLength="73" x="756.5" y="355.9736">Document</text><line style="stroke:#181818;stroke-width:0.5;" x1="728.5" x2="831.5" y1="367.1269" y2="367.1269"/><line style="stroke:#181818;stroke-width:0.5;" x1="728.5" x2="831.5" y1="375.1269" y2="375.1269"/><ellipse cx="738.5" cy="388.7753" fill="#84BE84" rx="3" ry="3" style="stroke:#038048;stroke-width:1.0;"/><text fill="#000000" font-family="sans-serif" font-size="14" lengthAdjust="spacing" textLength="46" x="747.5" y="392.122">open()</text><ellipse cx="738.5" cy="405.0722" fill="#84BE84" rx="3" ry="3" style="stroke:#038048;stroke-width:1.0;"/><text fill="#000000" font-family="sans-serif" font-size="14" lengthAdjust="spacing" textLength="47" x="747.5" y="408.4189">close()</text><ellipse cx="738.5" cy="421.3691" fill="#84BE84" rx="3" ry="3" style="stroke:#038048;stroke-width:1.0;"/><text fill="#000000" font-family="sans-serif" font-size="14" lengthAdjust="spacing" textLength="32" x="747.5" y="424.7157">cut()</text><ellipse cx="738.5" cy="437.6659" fill="#84BE84" rx="3" ry="3" style="stroke:#038048;stroke-width:1.0;"/><text fill="#000000" font-family="sans-serif" font-size="14" lengthAdjust="spacing" textLength="43" x="747.5" y="441.0126">copy()</text><ellipse cx="738.5" cy="453.9628" fill="#84BE84" rx="3" ry="3" style="stroke:#038048;stroke-width:1.0;"/><text fill="#000000" font-family="sans-serif" font-size="14" lengthAdjust="spacing" textLength="49" x="747.5" y="457.3095">paste()</text></g><!--class BaseMenu--><g id="elem_BaseMenu"><rect codeLine="10" fill="#F1F1F1" height="145.7813" id="BaseMenu" rx="2.5" ry="2.5" style="stroke:#181818;stroke-width:0.5;" width="168" x="390.5" y="502.9769"/><ellipse cx="433.85" cy="518.9769" fill="#A9DCDF" rx="11" ry="11" style="stroke:#181818;stroke-width:1.0;"/><path d="M433.9594,514.3206 L432.8031,519.3988 L435.1313,519.3988 L433.9594,514.3206 Z M432.475,512.0863 L435.4594,512.0863 L438.8188,524.4769 L436.3656,524.4769 L435.6,521.4144 L432.3188,521.4144 L431.5688,524.4769 L429.1313,524.4769 L432.475,512.0863 Z " fill="#000000"/><text fill="#000000" font-family="sans-serif" font-size="14" font-style="italic" lengthAdjust="spacing" textLength="73" x="454.15" y="523.8236">BaseMenu</text><line style="stroke:#181818;stroke-width:0.5;" x1="391.5" x2="557.5" y1="534.9769" y2="534.9769"/><line style="stroke:#181818;stroke-width:0.5;" x1="391.5" x2="557.5" y1="542.9769" y2="542.9769"/><ellipse cx="401.5" cy="556.6253" fill="#84BE84" rx="3" ry="3" style="stroke:#038048;stroke-width:1.0;"/><text fill="#000000" font-family="sans-serif" font-size="14" lengthAdjust="spacing" textLength="110" x="410.5" y="559.972">add(BaseMenu)</text><ellipse cx="401.5" cy="572.9222" fill="#84BE84" rx="3" ry="3" style="stroke:#038048;stroke-width:1.0;"/><text fill="#000000" font-family="sans-serif" font-size="14" lengthAdjust="spacing" textLength="129" x="410.5" y="576.2689">insert(Menu) : void</text><ellipse cx="401.5" cy="589.2191" fill="#84BE84" rx="3" ry="3" style="stroke:#038048;stroke-width:1.0;"/><text fill="#000000" font-family="sans-serif" font-size="14" lengthAdjust="spacing" textLength="142" x="410.5" y="592.5657">remove(Menu) : void</text><ellipse cx="401.5" cy="605.5159" fill="#84BE84" rx="3" ry="3" style="stroke:#038048;stroke-width:1.0;"/><text fill="#000000" font-family="sans-serif" font-size="14" lengthAdjust="spacing" textLength="102" x="410.5" y="608.8626">get(int) : Menu</text><ellipse cx="401.5" cy="621.8128" fill="#84BE84" rx="3" ry="3" style="stroke:#038048;stroke-width:1.0;"/><text fill="#000000" font-family="sans-serif" font-size="14" lengthAdjust="spacing" textLength="98" x="410.5" y="625.1595">display() : void</text><ellipse cx="401.5" cy="638.1097" fill="#84BE84" rx="3" ry="3" style="stroke:#038048;stroke-width:1.0;"/><text fill="#000000" font-family="sans-serif" font-size="14" lengthAdjust="spacing" textLength="99" x="410.5" y="641.4564">clicked() : void</text></g><!--class Menu--><g id="elem_Menu"><rect codeLine="11" fill="#F1F1F1" height="145.7813" id="Menu" rx="2.5" ry="2.5" style="stroke:#181818;stroke-width:0.5;" width="168" x="696" y="502.9769"/><ellipse cx="756.25" cy="518.9769" fill="#ADD1B2" rx="11" ry="11" style="stroke:#181818;stroke-width:1.0;"/><path d="M759.2188,524.6175 Q758.6406,524.9144 758,525.055 Q757.3594,525.2113 756.6563,525.2113 Q754.1563,525.2113 752.8281,523.5706 Q751.5156,521.9144 751.5156,518.7894 Q751.5156,515.6644 752.8281,514.0081 Q754.1563,512.3519 756.6563,512.3519 Q757.3594,512.3519 758,512.5081 Q758.6563,512.6644 759.2188,512.9613 L759.2188,515.68 Q758.5938,515.1019 758,514.8363 Q757.4063,514.555 756.7813,514.555 Q755.4375,514.555 754.75,515.6331 Q754.0625,516.6956 754.0625,518.7894 Q754.0625,520.8831 754.75,521.9613 Q755.4375,523.0238 756.7813,523.0238 Q757.4063,523.0238 758,522.7581 Q758.5938,522.4769 759.2188,521.8988 L759.2188,524.6175 Z " fill="#000000"/><text fill="#000000" font-family="sans-serif" font-size="14" lengthAdjust="spacing" textLength="39" x="776.75" y="523.8236">Menu</text><line style="stroke:#181818;stroke-width:0.5;" x1="697" x2="863" y1="534.9769" y2="534.9769"/><line style="stroke:#181818;stroke-width:0.5;" x1="697" x2="863" y1="542.9769" y2="542.9769"/><ellipse cx="707" cy="556.6253" fill="#84BE84" rx="3" ry="3" style="stroke:#038048;stroke-width:1.0;"/><text fill="#000000" font-family="sans-serif" font-size="14" lengthAdjust="spacing" textLength="116" x="716" y="559.972">add(Menu) : void</text><ellipse cx="707" cy="572.9222" fill="#84BE84" rx="3" ry="3" style="stroke:#038048;stroke-width:1.0;"/><text fill="#000000" font-family="sans-serif" font-size="14" lengthAdjust="spacing" textLength="129" x="716" y="576.2689">insert(Menu) : void</text><ellipse cx="707" cy="589.2191" fill="#84BE84" rx="3" ry="3" style="stroke:#038048;stroke-width:1.0;"/><text fill="#000000" font-family="sans-serif" font-size="14" lengthAdjust="spacing" textLength="142" x="716" y="592.5657">remove(Menu) : void</text><ellipse cx="707" cy="605.5159" fill="#84BE84" rx="3" ry="3" style="stroke:#038048;stroke-width:1.0;"/><text fill="#000000" font-family="sans-serif" font-size="14" lengthAdjust="spacing" textLength="102" x="716" y="608.8626">get(int) : Menu</text><ellipse cx="707" cy="621.8128" fill="#84BE84" rx="3" ry="3" style="stroke:#038048;stroke-width:1.0;"/><text fill="#000000" font-family="sans-serif" font-size="14" lengthAdjust="spacing" textLength="98" x="716" y="625.1595">display() : void</text><ellipse cx="707" cy="638.1097" fill="#84BE84" rx="3" ry="3" style="stroke:#038048;stroke-width:1.0;"/><text fill="#000000" font-family="sans-serif" font-size="14" lengthAdjust="spacing" textLength="99" x="716" y="641.4564">clicked() : void</text></g><!--class MenuItem--><g id="elem_MenuItem"><rect codeLine="12" fill="#F1F1F1" height="80.5938" id="MenuItem" rx="2.5" ry="2.5" style="stroke:#181818;stroke-width:0.5;" width="124" x="412.5" y="687.8669"/><ellipse cx="437.85" cy="703.8669" fill="#ADD1B2" rx="11" ry="11" style="stroke:#181818;stroke-width:1.0;"/><path d="M440.8188,709.5075 Q440.2406,709.8044 439.6,709.945 Q438.9594,710.1013 438.2563,710.1013 Q435.7563,710.1013 434.4281,708.4606 Q433.1156,706.8044 433.1156,703.6794 Q433.1156,700.5544 434.4281,698.8981 Q435.7563,697.2419 438.2563,697.2419 Q438.9594,697.2419 439.6,697.3981 Q440.2563,697.5544 440.8188,697.8513 L440.8188,700.57 Q440.1938,699.9919 439.6,699.7263 Q439.0063,699.445 438.3813,699.445 Q437.0375,699.445 436.35,700.5231 Q435.6625,701.5856 435.6625,703.6794 Q435.6625,705.7731 436.35,706.8513 Q437.0375,707.9138 438.3813,707.9138 Q439.0063,707.9138 439.6,707.6481 Q440.1938,707.3669 440.8188,706.7888 L440.8188,709.5075 Z " fill="#000000"/><text fill="#000000" font-family="sans-serif" font-size="14" lengthAdjust="spacing" textLength="69" x="454.15" y="708.7136">MenuItem</text><line style="stroke:#181818;stroke-width:0.5;" x1="413.5" x2="535.5" y1="719.8669" y2="719.8669"/><line style="stroke:#181818;stroke-width:0.5;" x1="413.5" x2="535.5" y1="727.8669" y2="727.8669"/><ellipse cx="423.5" cy="741.5153" fill="#84BE84" rx="3" ry="3" style="stroke:#038048;stroke-width:1.0;"/><text fill="#000000" font-family="sans-serif" font-size="14" lengthAdjust="spacing" textLength="58" x="432.5" y="744.862">clicked()</text><ellipse cx="423.5" cy="757.8122" fill="#84BE84" rx="3" ry="3" style="stroke:#038048;stroke-width:1.0;"/><text fill="#000000" font-family="sans-serif" font-size="14" lengthAdjust="spacing" textLength="98" x="432.5" y="761.1589">display() : void</text></g><!--class Command--><g id="elem_Command"><rect codeLine="13" fill="#F1F1F1" height="64.2969" id="Command" rx="2.5" ry="2.5" style="stroke:#181818;stroke-width:0.5;" width="103" x="78.5" y="695.7169"/><ellipse cx="93.5" cy="711.7169" fill="#B4A7E5" rx="11" ry="11" style="stroke:#181818;stroke-width:1.0;"/><path d="M89.4219,707.4825 L89.4219,705.3263 L96.8125,705.3263 L96.8125,707.4825 L94.3438,707.4825 L94.3438,715.5606 L96.8125,715.5606 L96.8125,717.7169 L89.4219,717.7169 L89.4219,715.5606 L91.8906,715.5606 L91.8906,707.4825 L89.4219,707.4825 Z " fill="#000000"/><text fill="#000000" font-family="sans-serif" font-size="14" font-style="italic" lengthAdjust="spacing" textLength="71" x="107.5" y="716.5636">Command</text><line style="stroke:#181818;stroke-width:0.5;" x1="79.5" x2="180.5" y1="727.7169" y2="727.7169"/><line style="stroke:#181818;stroke-width:0.5;" x1="79.5" x2="180.5" y1="735.7169" y2="735.7169"/><ellipse cx="89.5" cy="749.3653" fill="#84BE84" rx="3" ry="3" style="stroke:#038048;stroke-width:1.0;"/><text fill="#000000" font-family="sans-serif" font-size="14" lengthAdjust="spacing" textLength="66" x="98.5" y="752.712">execute()</text></g><!--class MacroCommand--><g id="elem_MacroCommand"><rect codeLine="14" fill="#F1F1F1" height="96.8906" id="MacroCommand" rx="2.5" ry="2.5" style="stroke:#181818;stroke-width:0.5;" width="159" x="50.5" y="560.8669"/><ellipse cx="71.8" cy="576.8669" fill="#ADD1B2" rx="11" ry="11" style="stroke:#181818;stroke-width:1.0;"/><path d="M74.7688,582.5075 Q74.1906,582.8044 73.55,582.945 Q72.9094,583.1013 72.2063,583.1013 Q69.7063,583.1013 68.3781,581.4606 Q67.0656,579.8044 67.0656,576.6794 Q67.0656,573.5544 68.3781,571.8981 Q69.7063,570.2419 72.2063,570.2419 Q72.9094,570.2419 73.55,570.3981 Q74.2063,570.5544 74.7688,570.8513 L74.7688,573.57 Q74.1438,572.9919 73.55,572.7263 Q72.9563,572.445 72.3313,572.445 Q70.9875,572.445 70.3,573.5231 Q69.6125,574.5856 69.6125,576.6794 Q69.6125,578.7731 70.3,579.8513 Q70.9875,580.9138 72.3313,580.9138 Q72.9563,580.9138 73.55,580.6481 Q74.1438,580.3669 74.7688,579.7888 L74.7688,582.5075 Z " fill="#000000"/><text fill="#000000" font-family="sans-serif" font-size="14" lengthAdjust="spacing" textLength="113" x="87.2" y="581.7136">MacroCommand</text><line style="stroke:#181818;stroke-width:0.5;" x1="51.5" x2="208.5" y1="592.8669" y2="592.8669"/><line style="stroke:#181818;stroke-width:0.5;" x1="51.5" x2="208.5" y1="600.8669" y2="600.8669"/><ellipse cx="61.5" cy="614.5153" fill="#84BE84" rx="3" ry="3" style="stroke:#038048;stroke-width:1.0;"/><text fill="#000000" font-family="sans-serif" font-size="14" lengthAdjust="spacing" textLength="66" x="70.5" y="617.862">execute()</text><ellipse cx="61.5" cy="630.8122" fill="#84BE84" rx="3" ry="3" style="stroke:#038048;stroke-width:1.0;"/><text fill="#000000" font-family="sans-serif" font-size="14" lengthAdjust="spacing" textLength="107" x="70.5" y="634.1589">add(Command)</text><ellipse cx="61.5" cy="647.1091" fill="#84BE84" rx="3" ry="3" style="stroke:#038048;stroke-width:1.0;"/><text fill="#000000" font-family="sans-serif" font-size="14" lengthAdjust="spacing" textLength="133" x="70.5" y="650.4557">remove(Command)</text></g><!--class PasteCommand--><g id="elem_PasteCommand"><rect codeLine="15" fill="#F1F1F1" height="64.2969" id="PasteCommand" rx="2.5" ry="2.5" style="stroke:#181818;stroke-width:0.5;" width="142" x="403.5" y="871.8669"/><ellipse cx="418.5" cy="887.8669" fill="#ADD1B2" rx="11" ry="11" style="stroke:#181818;stroke-width:1.0;"/><path d="M421.4688,893.5075 Q420.8906,893.8044 420.25,893.945 Q419.6094,894.1013 418.9063,894.1013 Q416.4063,894.1013 415.0781,892.4606 Q413.7656,890.8044 413.7656,887.6794 Q413.7656,884.5544 415.0781,882.8981 Q416.4063,881.2419 418.9063,881.2419 Q419.6094,881.2419 420.25,881.3981 Q420.9063,881.5544 421.4688,881.8513 L421.4688,884.57 Q420.8438,883.9919 420.25,883.7263 Q419.6563,883.445 419.0313,883.445 Q417.6875,883.445 417,884.5231 Q416.3125,885.5856 416.3125,887.6794 Q416.3125,889.7731 417,890.8513 Q417.6875,891.9138 419.0313,891.9138 Q419.6563,891.9138 420.25,891.6481 Q420.8438,891.3669 421.4688,890.7888 L421.4688,893.5075 Z " fill="#000000"/><text fill="#000000" font-family="sans-serif" font-size="14" lengthAdjust="spacing" textLength="110" x="432.5" y="892.7136">PasteCommand</text><line style="stroke:#181818;stroke-width:0.5;" x1="404.5" x2="544.5" y1="903.8669" y2="903.8669"/><line style="stroke:#181818;stroke-width:0.5;" x1="404.5" x2="544.5" y1="911.8669" y2="911.8669"/><ellipse cx="414.5" cy="925.5153" fill="#84BE84" rx="3" ry="3" style="stroke:#038048;stroke-width:1.0;"/><text fill="#000000" font-family="sans-serif" font-size="14" lengthAdjust="spacing" textLength="66" x="423.5" y="928.862">execute()</text></g><!--class OpenCommand--><g id="elem_OpenCommand"><rect codeLine="16" fill="#F1F1F1" height="80.5938" id="OpenCommand" rx="2.5" ry="2.5" style="stroke:#181818;stroke-width:0.5;" width="141" x="404" y="212.8669"/><ellipse cx="419" cy="228.8669" fill="#ADD1B2" rx="11" ry="11" style="stroke:#181818;stroke-width:1.0;"/><path d="M421.9688,234.5075 Q421.3906,234.8044 420.75,234.945 Q420.1094,235.1013 419.4063,235.1013 Q416.9063,235.1013 415.5781,233.4606 Q414.2656,231.8044 414.2656,228.6794 Q414.2656,225.5544 415.5781,223.8981 Q416.9063,222.2419 419.4063,222.2419 Q420.1094,222.2419 420.75,222.3981 Q421.4063,222.5544 421.9688,222.8513 L421.9688,225.57 Q421.3438,224.9919 420.75,224.7263 Q420.1563,224.445 419.5313,224.445 Q418.1875,224.445 417.5,225.5231 Q416.8125,226.5856 416.8125,228.6794 Q416.8125,230.7731 417.5,231.8513 Q418.1875,232.9138 419.5313,232.9138 Q420.1563,232.9138 420.75,232.6481 Q421.3438,232.3669 421.9688,231.7888 L421.9688,234.5075 Z " fill="#000000"/><text fill="#000000" font-family="sans-serif" font-size="14" lengthAdjust="spacing" textLength="109" x="433" y="233.7136">OpenCommand</text><line style="stroke:#181818;stroke-width:0.5;" x1="405" x2="544" y1="244.8669" y2="244.8669"/><line style="stroke:#181818;stroke-width:0.5;" x1="405" x2="544" y1="252.8669" y2="252.8669"/><ellipse cx="415" cy="266.5153" fill="#84BE84" rx="3" ry="3" style="stroke:#038048;stroke-width:1.0;"/><text fill="#000000" font-family="sans-serif" font-size="14" lengthAdjust="spacing" textLength="66" x="424" y="269.862">execute()</text><ellipse cx="415" cy="282.8122" fill="#84BE84" rx="3" ry="3" style="stroke:#038048;stroke-width:1.0;"/><text fill="#000000" font-family="sans-serif" font-size="14" lengthAdjust="spacing" textLength="66" x="424" y="286.1589">askUser()</text></g><!--class SimpleCommand--><g id="elem_SimpleCommand"><rect codeLine="17" fill="#F1F1F1" height="96.8906" id="SimpleCommand" rx="2.5" ry="2.5" style="stroke:#181818;stroke-width:0.5;" width="246" x="7" y="795.4169"/><ellipse cx="40" cy="811.4169" fill="#ADD1B2" rx="11" ry="11" style="stroke:#181818;stroke-width:1.0;"/><path d="M42.9688,817.0575 Q42.3906,817.3544 41.75,817.495 Q41.1094,817.6513 40.4063,817.6513 Q37.9063,817.6513 36.5781,816.0106 Q35.2656,814.3544 35.2656,811.2294 Q35.2656,808.1044 36.5781,806.4481 Q37.9063,804.7919 40.4063,804.7919 Q41.1094,804.7919 41.75,804.9481 Q42.4063,805.1044 42.9688,805.4013 L42.9688,808.12 Q42.3438,807.5419 41.75,807.2763 Q41.1563,806.995 40.5313,806.995 Q39.1875,806.995 38.5,808.0731 Q37.8125,809.1356 37.8125,811.2294 Q37.8125,813.3231 38.5,814.4013 Q39.1875,815.4638 40.5313,815.4638 Q41.1563,815.4638 41.75,815.1981 Q42.3438,814.9169 42.9688,814.3388 L42.9688,817.0575 Z " fill="#000000"/><text fill="#000000" font-family="sans-serif" font-size="14" lengthAdjust="spacing" textLength="117" x="58" y="816.2636">SimpleCommand</text><rect fill="#FFFFFF" height="15.9688" style="stroke:#181818;stroke-width:1.0;stroke-dasharray:2.0,2.0;" width="55" x="201" y="792.4169"/><text fill="#000000" font-family="sans-serif" font-size="12" font-style="italic" lengthAdjust="spacing" textLength="53" x="202" y="804.5555">Receiver</text><line style="stroke:#181818;stroke-width:0.5;" x1="8" x2="252" y1="827.4169" y2="827.4169"/><rect fill="none" height="6" style="stroke:#C82930;stroke-width:1.0;" width="6" x="15" y="838.0653"/><text fill="#000000" font-family="sans-serif" font-size="14" lengthAdjust="spacing" textLength="128" x="27" y="844.412">receiver : Receiver</text><rect fill="none" height="6" style="stroke:#C82930;stroke-width:1.0;" width="6" x="15" y="854.3622"/><text fill="#000000" font-family="sans-serif" font-size="14" lengthAdjust="spacing" textLength="220" x="27" y="860.7089">action: void &lt;Receiver&gt;::Action</text><line style="stroke:#181818;stroke-width:0.5;" x1="8" x2="252" y1="868.0106" y2="868.0106"/><ellipse cx="18" cy="881.6591" fill="#84BE84" rx="3" ry="3" style="stroke:#038048;stroke-width:1.0;"/><text fill="#000000" font-family="sans-serif" font-size="14" lengthAdjust="spacing" textLength="66" x="27" y="885.0057">execute()</text></g><g id="elem_nMenuItemClicked"><path d="M382,43.2969 L382,68.4297 L567,68.4297 L567,53.2969 L557,43.2969 L382,43.2969 " fill="#FEFFDD" style="stroke:#181818;stroke-width:0.5;"/><path d="M557,43.2969 L557,53.2969 L567,53.2969 L557,43.2969 " fill="#FEFFDD" style="stroke:#181818;stroke-width:1.0;"/><text fill="#000000" font-family="sans-serif" font-size="13" font-weight="bold" lengthAdjust="spacing" textLength="164" x="388" y="60.3638">command-&gt;execute();</text></g><g id="elem_nPasteCommandExecute"><path d="M389.5,807.2969 L389.5,832.4297 A0,0 0 0 0 389.5,832.4297 L470.5,832.4297 L474.5,916.0569 L478.5,832.4297 L559.5,832.4297 A0,0 0 0 0 559.5,832.4297 L559.5,817.2969 L549.5,807.2969 L389.5,807.2969 A0,0 0 0 0 389.5,807.2969 " fill="#FEFFDD" style="stroke:#181818;stroke-width:0.5;"/><path d="M549.5,807.2969 L549.5,817.2969 L559.5,817.2969 L549.5,807.2969 " fill="#FEFFDD" style="stroke:#181818;stroke-width:0.5;"/><text fill="#000000" font-family="sans-serif" font-size="13" font-weight="bold" lengthAdjust="spacing" textLength="149" x="395.5" y="824.3638">document-&gt;paste();</text></g><g id="elem_nOpenCommandExecute"><path d="M346.5,103.5969 L346.5,174.1281 A0,0 0 0 0 346.5,174.1281 L470.5,174.1281 L474.5,256.9769 L478.5,174.1281 L602.5,174.1281 A0,0 0 0 0 602.5,174.1281 L602.5,113.5969 L592.5,103.5969 L346.5,103.5969 A0,0 0 0 0 346.5,103.5969 " fill="#FEFFDD" style="stroke:#181818;stroke-width:0.5;"/><path d="M592.5,103.5969 L592.5,113.5969 L602.5,113.5969 L592.5,103.5969 " fill="#FEFFDD" style="stroke:#181818;stroke-width:0.5;"/><text fill="#000000" font-family="sans-serif" font-size="13" font-weight="bold" lengthAdjust="spacing" textLength="138" x="352.5" y="120.6638">name = askUser();</text><text fill="#000000" font-family="sans-serif" font-size="13" font-weight="bold" lengthAdjust="spacing" textLength="216" x="352.5" y="135.7966">doc = new Document(name);</text><text fill="#000000" font-family="sans-serif" font-size="13" font-weight="bold" lengthAdjust="spacing" textLength="235" x="352.5" y="150.9294">application.addDocument(doc);</text><text fill="#000000" font-family="sans-serif" font-size="13" font-weight="bold" lengthAdjust="spacing" textLength="97" x="352.5" y="166.0622">doc-&gt;open();</text></g><g id="elem_nMacroCommandExecute"><path d="M39.5,481.7369 L39.5,522.0025 A0,0 0 0 0 39.5,522.0025 L126,522.0025 L130,604.8769 L134,522.0025 L220.5,522.0025 A0,0 0 0 0 220.5,522.0025 L220.5,491.7369 L210.5,481.7369 L39.5,481.7369 A0,0 0 0 0 39.5,481.7369 " fill="#FEFFDD" style="stroke:#181818;stroke-width:0.5;"/><path d="M210.5,481.7369 L210.5,491.7369 L220.5,491.7369 L210.5,481.7369 " fill="#FEFFDD" style="stroke:#181818;stroke-width:0.5;"/><text fill="#000000" font-family="sans-serif" font-size="13" font-weight="bold" lengthAdjust="spacing" textLength="160" x="45.5" y="498.8038">for all c in commands</text><text fill="#000000" font-family="sans-serif" font-size="13" font-weight="bold" lengthAdjust="spacing" textLength="99" x="65.5" y="513.9366">c-&gt;execute();</text></g><!--reverse link Command to MacroCommand--><g id="link_Command_MacroCommand"><path codeLine="62" d="M112.83,677.3469 C112.83,666.6169 112.83,672.3969 112.83,660.5869 " fill="none" id="Command-backto-MacroCommand" style="stroke:#181818;stroke-width:1.0;"/><polygon fill="none" points="112.83,695.3469,118.83,677.3469,106.83,677.3469,112.83,695.3469" style="stroke:#181818;stroke-width:1.0;"/></g><!--link MacroCommand to Command--><g id="link_MacroCommand_Command"><path codeLine="70" d="M147.17,672.7169 C147.17,684.4869 147.17,678.6769 147.17,689.3769 " fill="none" id="MacroCommand-Command" style="stroke:#181818;stroke-width:1.0;"/><polygon fill="none" points="147.17,660.7169,143.17,666.7169,147.17,672.7169,151.17,666.7169,147.17,660.7169" style="stroke:#181818;stroke-width:1.0;"/><polygon fill="#181818" points="147.17,695.3769,151.17,686.3769,147.17,690.3769,143.17,686.3769,147.17,695.3769" style="stroke:#181818;stroke-width:1.0;"/><text fill="#000000" font-family="sans-serif" font-size="13" lengthAdjust="spacing" textLength="72" x="73.5518" y="677.8516">commands</text></g><!--reverse link Command to PasteCommand--><g id="link_Command_PasteCommand"><path codeLine="63" d="M199.57,743.9369 C247.33,743.9369 293,743.9369 293,743.9369 C293,743.9369 293,880.0869 293,880.0869 C293,880.0869 346.7,880.0869 395.68,880.0869 " fill="none" id="Command-backto-PasteCommand" style="stroke:#181818;stroke-width:1.0;"/><polygon fill="none" points="181.57,743.9369,199.57,749.9369,199.57,737.9369,181.57,743.9369" style="stroke:#181818;stroke-width:1.0;"/></g><!--reverse link Command to OpenCommand--><g id="link_Command_OpenCommand"><path codeLine="64" d="M199.81,711.7969 C227.01,711.7969 236.75,711.7969 236.75,711.7969 C236.75,711.7969 236.75,252.8669 236.75,252.8669 C236.75,252.8669 327.03,252.8669 396.32,252.8669 " fill="none" id="Command-backto-OpenCommand" style="stroke:#181818;stroke-width:1.0;"/><polygon fill="none" points="181.81,711.7969,199.81,717.7969,199.81,705.7969,181.81,711.7969" style="stroke:#181818;stroke-width:1.0;"/></g><!--reverse link Command to SimpleCommand--><g id="link_Command_SimpleCommand"><path codeLine="65" d="M130,778.4869 C130,789.2069 130,783.3769 130,795.0269 " fill="none" id="Command-backto-SimpleCommand" style="stroke:#181818;stroke-width:1.0;"/><polygon fill="none" points="130,760.4869,124,778.4869,136,778.4869,130,760.4869" style="stroke:#181818;stroke-width:1.0;"/></g><!--reverse link BaseMenu to MenuItem--><g id="link_BaseMenu_MenuItem"><path codeLine="67" d="M451.17,667.1969 C451.17,679.1869 451.17,673.2769 451.17,684.2469 " fill="none" id="BaseMenu-backto-MenuItem" style="stroke:#181818;stroke-width:1.0;"/><polygon fill="none" points="451.17,649.1969,445.17,667.1969,457.17,667.1969,451.17,649.1969" style="stroke:#181818;stroke-width:1.0;"/></g><!--link BaseMenu to MenuItem--><g id="link_BaseMenu_MenuItem"><path codeLine="75" d="M497.83,661.1969 C497.83,673.1869 497.83,667.2769 497.83,678.2469 " fill="none" id="BaseMenu-MenuItem" style="stroke:#181818;stroke-width:1.0;"/><polygon fill="none" points="497.83,649.1969,493.83,655.1969,497.83,661.1969,501.83,655.1969,497.83,649.1969" style="stroke:#181818;stroke-width:1.0;"/><polygon fill="#181818" points="497.83,684.2469,501.83,675.2469,497.83,679.2469,493.83,675.2469,497.83,684.2469" style="stroke:#181818;stroke-width:1.0;"/><text fill="#000000" font-family="sans-serif" font-size="13" lengthAdjust="spacing" textLength="50" x="447.676" y="668.7213">children</text></g><!--reverse link BaseMenu to Menu--><g id="link_BaseMenu_Menu"><path codeLine="68" d="M576.79,575.8669 C619.44,575.8669 653.07,575.8669 695.72,575.8669 " fill="none" id="BaseMenu-backto-Menu" style="stroke:#181818;stroke-width:1.0;"/><polygon fill="none" points="558.79,575.8669,576.79,581.8669,576.79,569.8669,558.79,575.8669" style="stroke:#181818;stroke-width:1.0;"/></g><!--link Application to Document--><g id="link_Application_Document"><path codeLine="72" d="M623.61,399.8669 C664.54,399.8669 688.97,399.8669 721.01,399.8669 " fill="none" id="Application-Document" style="stroke:#181818;stroke-width:1.0;"/><polygon fill="none" points="611.61,399.8669,617.61,403.8669,623.61,399.8669,617.61,395.8669,611.61,399.8669" style="stroke:#181818;stroke-width:1.0;"/><polygon fill="#181818" points="727.01,399.8669,718.01,395.8669,722.01,399.8669,718.01,403.8669,727.01,399.8669" style="stroke:#181818;stroke-width:1.0;"/><text fill="#000000" font-family="sans-serif" font-size="13" lengthAdjust="spacing" textLength="72" x="619.995" y="412.2787">documents</text></g><!--link Application to BaseMenu--><g id="link_Application_BaseMenu"><path codeLine="73" d="M474.5,459.4969 C474.5,476.4969 474.5,478.0669 474.5,496.7169 " fill="none" id="Application-BaseMenu" style="stroke:#181818;stroke-width:1.0;"/><polygon fill="none" points="474.5,447.4969,470.5,453.4969,474.5,459.4969,478.5,453.4969,474.5,447.4969" style="stroke:#181818;stroke-width:1.0;"/><polygon fill="#181818" points="474.5,502.7169,478.5,493.7169,474.5,497.7169,470.5,493.7169,474.5,502.7169" style="stroke:#181818;stroke-width:1.0;"/><text fill="#000000" font-family="sans-serif" font-size="13" lengthAdjust="spacing" textLength="37" x="434.3203" y="468.9741">menu</text></g><!--link MenuItem to Command--><g id="link_MenuItem_Command"><path codeLine="76" d="M392.79,727.8669 C326.82,727.8669 247.32,727.8669 187.93,727.8669 " fill="none" id="MenuItem-Command" style="stroke:#181818;stroke-width:1.0;"/><polygon fill="none" points="404.79,727.8669,398.79,723.8669,392.79,727.8669,398.79,731.8669,404.79,727.8669" style="stroke:#181818;stroke-width:1.0;"/><polygon fill="#181818" points="181.93,727.8669,190.93,731.8669,186.93,727.8669,190.93,723.8669,181.93,727.8669" style="stroke:#181818;stroke-width:1.0;"/><text fill="#000000" font-family="sans-serif" font-size="13" lengthAdjust="spacing" textLength="65" x="339.6303" y="739.9451">command</text></g><!--link OpenCommand to Application--><g id="link_OpenCommand_Application"><path codeLine="77" d="M474.5,296.5769 C474.5,314.0069 474.5,328.1369 474.5,345.9669 " fill="none" id="OpenCommand-to-Application" style="stroke:#181818;stroke-width:1.0;"/><polygon fill="#181818" points="474.5,351.9669,478.5,342.9669,474.5,346.9669,470.5,342.9669,474.5,351.9669" style="stroke:#181818;stroke-width:1.0;"/><text fill="#000000" font-family="sans-serif" font-size="13" lengthAdjust="spacing" textLength="69" x="402.2117" y="313.5028">application</text></g><!--link nMenuItemClicked to MenuItem--><g id="link_nMenuItemClicked_MenuItem"><path codeLine="82" d="M381.71,55.8669 C328.83,55.8669 273,55.8669 273,55.8669 C273,55.8669 273,689.7969 273,689.7969 C273,689.7969 468.25,689.7969 474.35,689.7969 " fill="none" id="nMenuItemClicked-MenuItem" style="stroke:#181818;stroke-width:1.0;stroke-dasharray:7.0,7.0;"/></g><!--SRC=[ZLNDRjim3BxhAGYV4Wpk0xYPWQxROOTXnOezW2gpZH1RCYGbMu4z_6JBaYdb1yqbolUHuaTIPEn1gf4RFa0l5Rht4K4RjzUinrS7JeEHRti7dJGedDIACITTZ_2eXu6h3fwuSsWKFFDXdE4E6HCzjnOUnh6NWizU0VcgnN50vHZZBzOPBXm4uWkt-0FLSR4hZjyT3amg7-ULYnGw6d1XT0uzSUimXtwEg7BaMKw25spt2mNA4vgMCI8R6lZ4koxAtiJ3rXCdBRlIrk2WJ_XXypTqoLO6ixL2yJGPQgz-iyqWqMkB9NPq9QB7zm8Qf-9uZCMQBqbkukzjnaXbqRZDJCGqA1zIlixx76DkSrSfrqaxzjmBlEGeVAKEsAqaesApUBUqtj9vJUDLVRUrJSyqOpFqx38MHyYJ-1Tzy-QsqFUSKoKprM7vUKuk-IQUqQ4eGfBXo9c2uFRmsrTuSiccntErMGR8d-CidHb1pUST4We0wz0rpKDOBgK7LPdgjVjNvrDFY3eVVkf2Lm35ivXaBEOmSVjGDC15foeH3hO2NTTjMbBPp5VTCeZHAerxPkMHusJGhdjn5L29lUmxWofO98NfhKKb5UHAQ3ChliQhe6xfgWR_OKex16v1nMiVmwEUsTrBkyIeszIWUuR-uicFbKvmbsGspJ8TR0r1E_OjN1V3n7hLxRAsQ9GBVZuIHPjcaKUYaJ8KmHGV43v3UkNtH8N75Vv9_TfCjgi1gUOT_R_mZjajTHisEStYN8zFWe2NSg0lhqZYLHlWVGy2f8Bu9YCvVObhFJk_S-eRGLSb_m40]--></g></svg>