<?xml version="1.0" encoding="us-ascii" standalone="no"?><svg xmlns="http://www.w3.org/2000/svg" xmlns:xlink="http://www.w3.org/1999/xlink" contentStyleType="text/css" height="393px" preserveAspectRatio="none" style="width:553px;height:393px;background:#FFFFFF;" version="1.1" viewBox="0 0 553 393" width="553px" zoomAndPan="magnify"><defs/><g><text fill="#000000" font-family="sans-serif" font-size="14" font-weight="bold" lengthAdjust="spacing" textLength="296" x="125.25" y="27.9951">Command Pattern Objects Interaction</text><rect fill="#FFFFFF" height="30" style="stroke:#181818;stroke-width:1.0;" width="10" x="41" y="310.3906"/><rect fill="#FFFFFF" height="110.2656" style="stroke:#181818;stroke-width:1.0;" width="10" x="122.5" y="83.5938"/><rect fill="#FFFFFF" height="30" style="stroke:#181818;stroke-width:1.0;" width="10" x="319.5" y="104.7266"/><rect fill="#FFFFFF" height="59.1328" style="stroke:#181818;stroke-width:1.0;" width="10" x="319.5" y="281.2578"/><rect fill="#FFFFFF" height="30" style="stroke:#181818;stroke-width:1.0;" width="10" x="416.5" y="163.8594"/><rect fill="#FFFFFF" height="78.2656" style="stroke:#181818;stroke-width:1.0;" width="10" x="416.5" y="262.125"/><line style="stroke:#181818;stroke-width:0.5;stroke-dasharray:5.0,5.0;" x1="46" x2="46" y1="73.5938" y2="358.3906"/><line style="stroke:#181818;stroke-width:0.5;stroke-dasharray:5.0,5.0;" x1="127" x2="127" y1="73.5938" y2="358.3906"/><line style="stroke:#181818;stroke-width:0.5;stroke-dasharray:5.0,5.0;" x1="324" x2="324" y1="73.5938" y2="358.3906"/><line style="stroke:#181818;stroke-width:0.5;stroke-dasharray:5.0,5.0;" x1="421" x2="421" y1="73.5938" y2="358.3906"/><rect fill="#E2E2F0" height="30.2969" rx="2.5" ry="2.5" style="stroke:#181818;stroke-width:0.5;" width="82" x="5" y="42.2969"/><text fill="#000000" font-family="sans-serif" font-size="14" lengthAdjust="spacing" textLength="68" x="12" y="62.292">aReceiver</text><rect fill="#E2E2F0" height="30.2969" rx="2.5" ry="2.5" style="stroke:#181818;stroke-width:0.5;" width="82" x="5" y="357.3906"/><text fill="#000000" font-family="sans-serif" font-size="14" lengthAdjust="spacing" textLength="68" x="12" y="377.3857">aReceiver</text><rect fill="#E2E2F0" height="30.2969" rx="2.5" ry="2.5" style="stroke:#181818;stroke-width:0.5;" width="61" x="97" y="42.2969"/><text fill="#000000" font-family="sans-serif" font-size="14" lengthAdjust="spacing" textLength="47" x="104" y="62.292">aClient</text><rect fill="#E2E2F0" height="30.2969" rx="2.5" ry="2.5" style="stroke:#181818;stroke-width:0.5;" width="61" x="97" y="357.3906"/><text fill="#000000" font-family="sans-serif" font-size="14" lengthAdjust="spacing" textLength="47" x="104" y="377.3857">aClient</text><rect fill="#E2E2F0" height="30.2969" rx="2.5" ry="2.5" style="stroke:#181818;stroke-width:0.5;" width="93" x="278" y="42.2969"/><text fill="#000000" font-family="sans-serif" font-size="14" lengthAdjust="spacing" textLength="79" x="285" y="62.292">aCommand</text><rect fill="#E2E2F0" height="30.2969" rx="2.5" ry="2.5" style="stroke:#181818;stroke-width:0.5;" width="93" x="278" y="357.3906"/><text fill="#000000" font-family="sans-serif" font-size="14" lengthAdjust="spacing" textLength="79" x="285" y="377.3857">aCommand</text><rect fill="#E2E2F0" height="30.2969" rx="2.5" ry="2.5" style="stroke:#181818;stroke-width:0.5;" width="81" x="381" y="42.2969"/><text fill="#000000" font-family="sans-serif" font-size="14" lengthAdjust="spacing" textLength="67" x="388" y="62.292">anInvoker</text><rect fill="#E2E2F0" height="30.2969" rx="2.5" ry="2.5" style="stroke:#181818;stroke-width:0.5;" width="81" x="381" y="357.3906"/><text fill="#000000" font-family="sans-serif" font-size="14" lengthAdjust="spacing" textLength="67" x="388" y="377.3857">anInvoker</text><rect fill="#FFFFFF" height="30" style="stroke:#181818;stroke-width:1.0;" width="10" x="41" y="310.3906"/><rect fill="#FFFFFF" height="110.2656" style="stroke:#181818;stroke-width:1.0;" width="10" x="122.5" y="83.5938"/><rect fill="#FFFFFF" height="30" style="stroke:#181818;stroke-width:1.0;" width="10" x="319.5" y="104.7266"/><rect fill="#FFFFFF" height="59.1328" style="stroke:#181818;stroke-width:1.0;" width="10" x="319.5" y="281.2578"/><rect fill="#FFFFFF" height="30" style="stroke:#181818;stroke-width:1.0;" width="10" x="416.5" y="163.8594"/><rect fill="#FFFFFF" height="78.2656" style="stroke:#181818;stroke-width:1.0;" width="10" x="416.5" y="262.125"/><polygon fill="#181818" points="307.5,100.7266,317.5,104.7266,307.5,108.7266,311.5,104.7266" style="stroke:#181818;stroke-width:1.0;"/><line style="stroke:#181818;stroke-width:1.0;" x1="132.5" x2="313.5" y1="104.7266" y2="104.7266"/><text fill="#000000" font-family="sans-serif" font-size="13" lengthAdjust="spacing" textLength="168" x="139.5" y="99.6606">new Command(aReceiver)</text><polygon fill="#181818" points="404.5,159.8594,414.5,163.8594,404.5,167.8594,408.5,163.8594" style="stroke:#181818;stroke-width:1.0;"/><line style="stroke:#181818;stroke-width:1.0;stroke-dasharray:2.0,2.0;" x1="132.5" x2="410.5" y1="163.8594" y2="163.8594"/><text fill="#000000" font-family="sans-serif" font-size="13" lengthAdjust="spacing" textLength="187" x="139.5" y="158.7935">StoreCommand(aCommand)</text><line style="stroke:#181818;stroke-width:2.0;" x1="529.5" x2="539.5" y1="217.9922" y2="227.9922"/><line style="stroke:#181818;stroke-width:2.0;" x1="529.5" x2="539.5" y1="227.9922" y2="217.9922"/><line style="stroke:#181818;stroke-width:1.0;" x1="421.5" x2="534.5" y1="222.9922" y2="222.9922"/><text fill="#000000" font-family="sans-serif" font-size="13" lengthAdjust="spacing" textLength="90" x="428.5" y="217.9263">System Crash</text><line style="stroke:#A80036;stroke-width:2.0;" x1="412.5" x2="430.5" y1="213.9922" y2="231.9922"/><line style="stroke:#A80036;stroke-width:2.0;" x1="412.5" x2="430.5" y1="231.9922" y2="213.9922"/><line style="stroke:#A80036;stroke-width:2.0;" x1="412.5" x2="430.5" y1="213.9922" y2="231.9922"/><line style="stroke:#A80036;stroke-width:2.0;" x1="412.5" x2="430.5" y1="231.9922" y2="213.9922"/><line style="stroke:#A80036;stroke-width:2.0;" x1="315.5" x2="333.5" y1="213.9922" y2="231.9922"/><line style="stroke:#A80036;stroke-width:2.0;" x1="315.5" x2="333.5" y1="231.9922" y2="213.9922"/><line style="stroke:#A80036;stroke-width:2.0;" x1="118.5" x2="136.5" y1="213.9922" y2="231.9922"/><line style="stroke:#A80036;stroke-width:2.0;" x1="118.5" x2="136.5" y1="231.9922" y2="213.9922"/><line style="stroke:#A80036;stroke-width:2.0;" x1="37" x2="55" y1="213.9922" y2="231.9922"/><line style="stroke:#A80036;stroke-width:2.0;" x1="37" x2="55" y1="231.9922" y2="213.9922"/><polygon fill="#181818" points="432.5,248.125,422.5,252.125,432.5,256.125,428.5,252.125" style="stroke:#181818;stroke-width:1.0;"/><line style="stroke:#181818;stroke-width:1.0;" x1="426.5" x2="546.5" y1="252.125" y2="252.125"/><text fill="#000000" font-family="sans-serif" font-size="13" lengthAdjust="spacing" textLength="102" x="438.5" y="247.0591">System Restore</text><polygon fill="#181818" points="340.5,277.2578,330.5,281.2578,340.5,285.2578,336.5,281.2578" style="stroke:#181818;stroke-width:1.0;"/><line style="stroke:#181818;stroke-width:1.0;" x1="334.5" x2="415.5" y1="281.2578" y2="281.2578"/><text fill="#000000" font-family="sans-serif" font-size="13" lengthAdjust="spacing" textLength="61" x="346.5" y="276.1919">Execute()</text><polygon fill="#181818" points="62,306.3906,52,310.3906,62,314.3906,58,310.3906" style="stroke:#181818;stroke-width:1.0;"/><line style="stroke:#181818;stroke-width:1.0;" x1="56" x2="318.5" y1="310.3906" y2="310.3906"/><text fill="#000000" font-family="sans-serif" font-size="13" lengthAdjust="spacing" textLength="50" x="68" y="305.3247">Action()</text><!--SRC=[XPBDRi8m48JlVehbL7wK5q0LKXNrm8cAdZbipKer9MlaB2cyFNRZdoIgn2dnP7Q-yIelU1MBMao7Gc1PAJ5o9gXjqo0VuGD5o37ilawafOKj-sFm1-i5dHXjBiW2k2TDfYCtLkkp8PQ9rcUFHTvoPt_ykCfjqd1yGhN9ix1QmHgOVbFHUUOlr9464P5LGa9AWlKnds8TvPpuCedfcmobNFXVKHL6jRaTO3OBe7ihr43jiFtsOwquUny5HIMLBaB2ntFUTQ6yLWTOBWjaxxt-MiDrPj2mssIbxpVILw7v8cmiVWYcHEnTRty_G30ztKYvIz5o_GS0]--></g></svg>