<?xml version="1.0" encoding="us-ascii" standalone="no"?><svg xmlns="http://www.w3.org/2000/svg" xmlns:xlink="http://www.w3.org/1999/xlink" contentStyleType="text/css" height="589px" preserveAspectRatio="none" style="width:793px;height:589px;background:#FFFFFF;" version="1.1" viewBox="0 0 793 589" width="793px" zoomAndPan="magnify"><defs/><g><text fill="#000000" font-family="sans-serif" font-size="14" font-weight="bold" lengthAdjust="spacing" textLength="211" x="284" y="22.9951">Command Pattern Example</text><!--class Application--><g id="elem_Application"><rect codeLine="7" fill="#F1F1F1" height="64.2969" id="Application" rx="2.5" ry="2.5" style="stroke:#181818;stroke-width:0.5;" width="194" x="7" y="118.5669"/><ellipse cx="62.25" cy="134.5669" fill="#ADD1B2" rx="11" ry="11" style="stroke:#181818;stroke-width:1.0;"/><path d="M65.2188,140.2075 Q64.6406,140.5044 64,140.645 Q63.3594,140.8012 62.6563,140.8012 Q60.1563,140.8012 58.8281,139.1606 Q57.5156,137.5044 57.5156,134.3794 Q57.5156,131.2544 58.8281,129.5981 Q60.1563,127.9419 62.6563,127.9419 Q63.3594,127.9419 64,128.0981 Q64.6563,128.2544 65.2188,128.5512 L65.2188,131.27 Q64.5938,130.6919 64,130.4262 Q63.4063,130.145 62.7813,130.145 Q61.4375,130.145 60.75,131.2231 Q60.0625,132.2856 60.0625,134.3794 Q60.0625,136.4731 60.75,137.5512 Q61.4375,138.6137 62.7813,138.6137 Q63.4063,138.6137 64,138.3481 Q64.5938,138.0669 65.2188,137.4887 L65.2188,140.2075 Z " fill="#000000"/><text fill="#000000" font-family="sans-serif" font-size="14" lengthAdjust="spacing" textLength="75" x="82.75" y="139.4136">Application</text><line style="stroke:#181818;stroke-width:0.5;" x1="8" x2="200" y1="150.5669" y2="150.5669"/><line style="stroke:#181818;stroke-width:0.5;" x1="8" x2="200" y1="158.5669" y2="158.5669"/><text fill="#000000" font-family="sans-serif" font-size="14" lengthAdjust="spacing" textLength="182" x="13" y="175.562">addDocument(Document)</text></g><!--class Document--><g id="elem_Document"><rect codeLine="8" fill="#F1F1F1" height="129.4844" id="Document" rx="2.5" ry="2.5" style="stroke:#181818;stroke-width:0.5;" width="105" x="51.5" y="237.8269"/><ellipse cx="66.5" cy="253.8269" fill="#ADD1B2" rx="11" ry="11" style="stroke:#181818;stroke-width:1.0;"/><path d="M69.4688,259.4675 Q68.8906,259.7644 68.25,259.905 Q67.6094,260.0613 66.9063,260.0613 Q64.4063,260.0613 63.0781,258.4206 Q61.7656,256.7644 61.7656,253.6394 Q61.7656,250.5144 63.0781,248.8581 Q64.4063,247.2019 66.9063,247.2019 Q67.6094,247.2019 68.25,247.3581 Q68.9063,247.5144 69.4688,247.8112 L69.4688,250.53 Q68.8438,249.9519 68.25,249.6862 Q67.6563,249.405 67.0313,249.405 Q65.6875,249.405 65,250.4831 Q64.3125,251.5456 64.3125,253.6394 Q64.3125,255.7331 65,256.8113 Q65.6875,257.8738 67.0313,257.8738 Q67.6563,257.8738 68.25,257.6081 Q68.8438,257.3269 69.4688,256.7488 L69.4688,259.4675 Z " fill="#000000"/><text fill="#000000" font-family="sans-serif" font-size="14" lengthAdjust="spacing" textLength="73" x="80.5" y="258.6736">Document</text><line style="stroke:#181818;stroke-width:0.5;" x1="52.5" x2="155.5" y1="269.8269" y2="269.8269"/><line style="stroke:#181818;stroke-width:0.5;" x1="52.5" x2="155.5" y1="277.8269" y2="277.8269"/><text fill="#000000" font-family="sans-serif" font-size="14" lengthAdjust="spacing" textLength="46" x="57.5" y="294.822">open()</text><text fill="#000000" font-family="sans-serif" font-size="14" lengthAdjust="spacing" textLength="47" x="57.5" y="311.1189">close()</text><text fill="#000000" font-family="sans-serif" font-size="14" lengthAdjust="spacing" textLength="32" x="57.5" y="327.4157">cut()</text><text fill="#000000" font-family="sans-serif" font-size="14" lengthAdjust="spacing" textLength="43" x="57.5" y="343.7126">copy()</text><text fill="#000000" font-family="sans-serif" font-size="14" lengthAdjust="spacing" textLength="49" x="57.5" y="360.0095">paste()</text></g><!--class Menu--><g id="elem_Menu"><rect codeLine="10" fill="#F1F1F1" height="64.2969" id="Menu" rx="2.5" ry="2.5" style="stroke:#181818;stroke-width:0.5;" width="117" x="319" y="75.4169"/><ellipse cx="354.7" cy="91.4169" fill="#ADD1B2" rx="11" ry="11" style="stroke:#181818;stroke-width:1.0;"/><path d="M357.6688,97.0575 Q357.0906,97.3544 356.45,97.495 Q355.8094,97.6513 355.1063,97.6513 Q352.6063,97.6513 351.2781,96.0106 Q349.9656,94.3544 349.9656,91.2294 Q349.9656,88.1044 351.2781,86.4481 Q352.6063,84.7919 355.1063,84.7919 Q355.8094,84.7919 356.45,84.9481 Q357.1063,85.1044 357.6688,85.4013 L357.6688,88.12 Q357.0438,87.5419 356.45,87.2763 Q355.8563,86.995 355.2313,86.995 Q353.8875,86.995 353.2,88.0731 Q352.5125,89.1356 352.5125,91.2294 Q352.5125,93.3231 353.2,94.4013 Q353.8875,95.4638 355.2313,95.4638 Q355.8563,95.4638 356.45,95.1981 Q357.0438,94.9169 357.6688,94.3388 L357.6688,97.0575 Z " fill="#000000"/><text fill="#000000" font-family="sans-serif" font-size="14" lengthAdjust="spacing" textLength="39" x="373.3" y="96.2636">Menu</text><line style="stroke:#181818;stroke-width:0.5;" x1="320" x2="435" y1="107.4169" y2="107.4169"/><line style="stroke:#181818;stroke-width:0.5;" x1="320" x2="435" y1="115.4169" y2="115.4169"/><text fill="#000000" font-family="sans-serif" font-size="14" lengthAdjust="spacing" textLength="105" x="325" y="132.412">add(MenuItem)</text></g><!--class MenuItem--><g id="elem_MenuItem"><rect codeLine="11" fill="#F1F1F1" height="64.2969" id="MenuItem" rx="2.5" ry="2.5" style="stroke:#181818;stroke-width:0.5;" width="101" x="327" y="310.5669"/><ellipse cx="342" cy="326.5669" fill="#ADD1B2" rx="11" ry="11" style="stroke:#181818;stroke-width:1.0;"/><path d="M344.9688,332.2075 Q344.3906,332.5044 343.75,332.645 Q343.1094,332.8013 342.4063,332.8013 Q339.9063,332.8013 338.5781,331.1606 Q337.2656,329.5044 337.2656,326.3794 Q337.2656,323.2544 338.5781,321.5981 Q339.9063,319.9419 342.4063,319.9419 Q343.1094,319.9419 343.75,320.0981 Q344.4063,320.2544 344.9688,320.5513 L344.9688,323.27 Q344.3438,322.6919 343.75,322.4263 Q343.1563,322.145 342.5313,322.145 Q341.1875,322.145 340.5,323.2231 Q339.8125,324.2856 339.8125,326.3794 Q339.8125,328.4731 340.5,329.5513 Q341.1875,330.6138 342.5313,330.6138 Q343.1563,330.6138 343.75,330.3481 Q344.3438,330.0669 344.9688,329.4888 L344.9688,332.2075 Z " fill="#000000"/><text fill="#000000" font-family="sans-serif" font-size="14" lengthAdjust="spacing" textLength="69" x="356" y="331.4136">MenuItem</text><line style="stroke:#181818;stroke-width:0.5;" x1="328" x2="427" y1="342.5669" y2="342.5669"/><line style="stroke:#181818;stroke-width:0.5;" x1="328" x2="427" y1="350.5669" y2="350.5669"/><text fill="#000000" font-family="sans-serif" font-size="14" lengthAdjust="spacing" textLength="58" x="333" y="367.562">clicked()</text></g><!--class Command--><g id="elem_Command"><rect codeLine="12" fill="#F1F1F1" height="64.2969" id="Command" rx="2.5" ry="2.5" style="stroke:#181818;stroke-width:0.5;" width="103" x="326" y="413.4169"/><ellipse cx="341" cy="429.4169" fill="#B4A7E5" rx="11" ry="11" style="stroke:#181818;stroke-width:1.0;"/><path d="M336.9219,425.1825 L336.9219,423.0263 L344.3125,423.0263 L344.3125,425.1825 L341.8438,425.1825 L341.8438,433.2606 L344.3125,433.2606 L344.3125,435.4169 L336.9219,435.4169 L336.9219,433.2606 L339.3906,433.2606 L339.3906,425.1825 L336.9219,425.1825 Z " fill="#000000"/><text fill="#000000" font-family="sans-serif" font-size="14" font-style="italic" lengthAdjust="spacing" textLength="71" x="355" y="434.2636">Command</text><line style="stroke:#181818;stroke-width:0.5;" x1="327" x2="428" y1="445.4169" y2="445.4169"/><line style="stroke:#181818;stroke-width:0.5;" x1="327" x2="428" y1="453.4169" y2="453.4169"/><text fill="#000000" font-family="sans-serif" font-size="14" lengthAdjust="spacing" textLength="66" x="332" y="470.412">execute()</text></g><!--class MacroCommand--><g id="elem_MacroCommand"><rect codeLine="13" fill="#F1F1F1" height="64.2969" id="MacroCommand" rx="2.5" ry="2.5" style="stroke:#181818;stroke-width:0.5;" width="145" x="585.5" y="518.5669"/><ellipse cx="600.5" cy="534.5669" fill="#ADD1B2" rx="11" ry="11" style="stroke:#181818;stroke-width:1.0;"/><path d="M603.4688,540.2075 Q602.8906,540.5044 602.25,540.645 Q601.6094,540.8013 600.9063,540.8013 Q598.4063,540.8013 597.0781,539.1606 Q595.7656,537.5044 595.7656,534.3794 Q595.7656,531.2544 597.0781,529.5981 Q598.4063,527.9419 600.9063,527.9419 Q601.6094,527.9419 602.25,528.0981 Q602.9063,528.2544 603.4688,528.5513 L603.4688,531.27 Q602.8438,530.6919 602.25,530.4263 Q601.6563,530.145 601.0313,530.145 Q599.6875,530.145 599,531.2231 Q598.3125,532.2856 598.3125,534.3794 Q598.3125,536.4731 599,537.5513 Q599.6875,538.6138 601.0313,538.6138 Q601.6563,538.6138 602.25,538.3481 Q602.8438,538.0669 603.4688,537.4888 L603.4688,540.2075 Z " fill="#000000"/><text fill="#000000" font-family="sans-serif" font-size="14" lengthAdjust="spacing" textLength="113" x="614.5" y="539.4136">MacroCommand</text><line style="stroke:#181818;stroke-width:0.5;" x1="586.5" x2="729.5" y1="550.5669" y2="550.5669"/><line style="stroke:#181818;stroke-width:0.5;" x1="586.5" x2="729.5" y1="558.5669" y2="558.5669"/><text fill="#000000" font-family="sans-serif" font-size="14" lengthAdjust="spacing" textLength="66" x="591.5" y="575.562">execute()</text></g><!--class PasteCommand--><g id="elem_PasteCommand"><rect codeLine="14" fill="#F1F1F1" height="64.2969" id="PasteCommand" rx="2.5" ry="2.5" style="stroke:#181818;stroke-width:0.5;" width="142" x="587" y="336.5669"/><ellipse cx="602" cy="352.5669" fill="#ADD1B2" rx="11" ry="11" style="stroke:#181818;stroke-width:1.0;"/><path d="M604.9688,358.2075 Q604.3906,358.5044 603.75,358.645 Q603.1094,358.8013 602.4063,358.8013 Q599.9063,358.8013 598.5781,357.1606 Q597.2656,355.5044 597.2656,352.3794 Q597.2656,349.2544 598.5781,347.5981 Q599.9063,345.9419 602.4063,345.9419 Q603.1094,345.9419 603.75,346.0981 Q604.4063,346.2544 604.9688,346.5513 L604.9688,349.27 Q604.3438,348.6919 603.75,348.4263 Q603.1563,348.145 602.5313,348.145 Q601.1875,348.145 600.5,349.2231 Q599.8125,350.2856 599.8125,352.3794 Q599.8125,354.4731 600.5,355.5513 Q601.1875,356.6138 602.5313,356.6138 Q603.1563,356.6138 603.75,356.3481 Q604.3438,356.0669 604.9688,355.4888 L604.9688,358.2075 Z " fill="#000000"/><text fill="#000000" font-family="sans-serif" font-size="14" lengthAdjust="spacing" textLength="110" x="616" y="357.4136">PasteCommand</text><line style="stroke:#181818;stroke-width:0.5;" x1="588" x2="728" y1="368.5669" y2="368.5669"/><line style="stroke:#181818;stroke-width:0.5;" x1="588" x2="728" y1="376.5669" y2="376.5669"/><text fill="#000000" font-family="sans-serif" font-size="14" lengthAdjust="spacing" textLength="66" x="593" y="393.562">execute()</text></g><!--class OpenCommand--><g id="elem_OpenCommand"><rect codeLine="15" fill="#F1F1F1" height="80.5938" id="OpenCommand" rx="2.5" ry="2.5" style="stroke:#181818;stroke-width:0.5;" width="141" x="587.5" y="152.5669"/><ellipse cx="602.5" cy="168.5669" fill="#ADD1B2" rx="11" ry="11" style="stroke:#181818;stroke-width:1.0;"/><path d="M605.4688,174.2075 Q604.8906,174.5044 604.25,174.645 Q603.6094,174.8012 602.9063,174.8012 Q600.4063,174.8012 599.0781,173.1606 Q597.7656,171.5044 597.7656,168.3794 Q597.7656,165.2544 599.0781,163.5981 Q600.4063,161.9419 602.9063,161.9419 Q603.6094,161.9419 604.25,162.0981 Q604.9063,162.2544 605.4688,162.5512 L605.4688,165.27 Q604.8438,164.6919 604.25,164.4262 Q603.6563,164.145 603.0313,164.145 Q601.6875,164.145 601,165.2231 Q600.3125,166.2856 600.3125,168.3794 Q600.3125,170.4731 601,171.5512 Q601.6875,172.6137 603.0313,172.6137 Q603.6563,172.6137 604.25,172.3481 Q604.8438,172.0669 605.4688,171.4887 L605.4688,174.2075 Z " fill="#000000"/><text fill="#000000" font-family="sans-serif" font-size="14" lengthAdjust="spacing" textLength="109" x="616.5" y="173.4136">OpenCommand</text><line style="stroke:#181818;stroke-width:0.5;" x1="588.5" x2="727.5" y1="184.5669" y2="184.5669"/><line style="stroke:#181818;stroke-width:0.5;" x1="588.5" x2="727.5" y1="192.5669" y2="192.5669"/><text fill="#000000" font-family="sans-serif" font-size="14" lengthAdjust="spacing" textLength="66" x="593.5" y="209.562">execute()</text><text fill="#000000" font-family="sans-serif" font-size="14" lengthAdjust="spacing" textLength="66" x="593.5" y="225.8589">askUser()</text></g><g id="elem_nMenuItemClicked"><path d="M285,245.9969 L285,271.1297 A0,0 0 0 0 285,271.1297 L373.5,271.1297 L377.5,354.7569 L381.5,271.1297 L470,271.1297 A0,0 0 0 0 470,271.1297 L470,255.9969 L460,245.9969 L285,245.9969 A0,0 0 0 0 285,245.9969 " fill="#FEFFDD" style="stroke:#181818;stroke-width:0.5;"/><path d="M460,245.9969 L460,255.9969 L470,255.9969 L460,245.9969 " fill="#FEFFDD" style="stroke:#181818;stroke-width:0.5;"/><text fill="#000000" font-family="sans-serif" font-size="13" font-weight="bold" lengthAdjust="spacing" textLength="164" x="291" y="263.0638">command-&gt;execute();</text></g><g id="elem_nPasteCommandExecute"><path d="M573,271.9969 L573,297.1297 A0,0 0 0 0 573,297.1297 L654,297.1297 L658,380.7569 L662,297.1297 L743,297.1297 A0,0 0 0 0 743,297.1297 L743,281.9969 L733,271.9969 L573,271.9969 A0,0 0 0 0 573,271.9969 " fill="#FEFFDD" style="stroke:#181818;stroke-width:0.5;"/><path d="M733,271.9969 L733,281.9969 L743,281.9969 L733,271.9969 " fill="#FEFFDD" style="stroke:#181818;stroke-width:0.5;"/><text fill="#000000" font-family="sans-serif" font-size="13" font-weight="bold" lengthAdjust="spacing" textLength="149" x="579" y="289.0638">document-&gt;paste();</text></g><g id="elem_nOpenCommandExecute"><path d="M530,43.2969 L530,113.8281 A0,0 0 0 0 530,113.8281 L654,113.8281 L658,196.6769 L662,113.8281 L786,113.8281 A0,0 0 0 0 786,113.8281 L786,53.2969 L776,43.2969 L530,43.2969 A0,0 0 0 0 530,43.2969 " fill="#FEFFDD" style="stroke:#181818;stroke-width:0.5;"/><path d="M776,43.2969 L776,53.2969 L786,53.2969 L776,43.2969 " fill="#FEFFDD" style="stroke:#181818;stroke-width:0.5;"/><text fill="#000000" font-family="sans-serif" font-size="13" font-weight="bold" lengthAdjust="spacing" textLength="138" x="536" y="60.3638">name = askUser();</text><text fill="#000000" font-family="sans-serif" font-size="13" font-weight="bold" lengthAdjust="spacing" textLength="216" x="536" y="75.4966">doc = new Document(name);</text><text fill="#000000" font-family="sans-serif" font-size="13" font-weight="bold" lengthAdjust="spacing" textLength="235" x="536" y="90.6294">application.addDocument(doc);</text><text fill="#000000" font-family="sans-serif" font-size="13" font-weight="bold" lengthAdjust="spacing" textLength="97" x="536" y="105.7622">doc-&gt;open();</text></g><g id="elem_nMacroCommandExecute"><path d="M567.5,439.4369 L567.5,479.7025 A0,0 0 0 0 567.5,479.7025 L654,479.7025 L658,562.5769 L662,479.7025 L748.5,479.7025 A0,0 0 0 0 748.5,479.7025 L748.5,449.4369 L738.5,439.4369 L567.5,439.4369 A0,0 0 0 0 567.5,439.4369 " fill="#FEFFDD" style="stroke:#181818;stroke-width:0.5;"/><path d="M738.5,439.4369 L738.5,449.4369 L748.5,449.4369 L738.5,439.4369 " fill="#FEFFDD" style="stroke:#181818;stroke-width:0.5;"/><text fill="#000000" font-family="sans-serif" font-size="13" font-weight="bold" lengthAdjust="spacing" textLength="160" x="573.5" y="456.5038">for all c in commands</text><text fill="#000000" font-family="sans-serif" font-size="13" font-weight="bold" lengthAdjust="spacing" textLength="99" x="593.5" y="471.6366">c-&gt;execute();</text></g><!--reverse link Command to MacroCommand--><g id="link_Command_MacroCommand"><path codeLine="35" d="M360.33,496.1569 C360.33,530.7769 360.33,562.5669 360.33,562.5669 C360.33,562.5669 489.67,562.5669 577.84,562.5669 " fill="none" id="Command-backto-MacroCommand" style="stroke:#181818;stroke-width:1.0;"/><polygon fill="none" points="360.33,478.1569,354.33,496.1569,366.33,496.1569,360.33,478.1569" style="stroke:#181818;stroke-width:1.0;"/></g><!--link MacroCommand to Command--><g id="link_MacroCommand_Command"><path codeLine="39" d="M565.56,538.5669 C488.12,538.5669 394.67,538.5669 394.67,538.5669 C394.67,538.5669 394.67,510.9169 394.67,484.0969 " fill="none" id="MacroCommand-Command" style="stroke:#181818;stroke-width:1.0;"/><polygon fill="none" points="577.56,538.5669,571.56,534.5669,565.56,538.5669,571.56,542.5669,577.56,538.5669" style="stroke:#181818;stroke-width:1.0;"/><polygon fill="#181818" points="394.67,478.0969,390.67,487.0969,394.67,483.0969,398.67,487.0969,394.67,478.0969" style="stroke:#181818;stroke-width:1.0;"/><text fill="#000000" font-family="sans-serif" font-size="13" lengthAdjust="spacing" textLength="72" x="505.3781" y="550.6266">commands</text></g><!--reverse link Command to PasteCommand--><g id="link_Command_PasteCommand"><path codeLine="36" d="M394.67,395.2169 C394.67,383.7169 394.67,391.5669 394.67,391.5669 C394.67,391.5669 501.75,391.5669 579.35,391.5669 " fill="none" id="Command-backto-PasteCommand" style="stroke:#181818;stroke-width:1.0;"/><polygon fill="none" points="394.67,413.2169,400.67,395.2169,388.67,395.2169,394.67,413.2169" style="stroke:#181818;stroke-width:1.0;"/></g><!--reverse link Command to OpenCommand--><g id="link_Command_OpenCommand"><path codeLine="37" d="M447.35,426.4269 C497.75,426.4269 548.75,426.4269 548.75,426.4269 C548.75,426.4269 548.75,219.5669 548.75,219.5669 C548.75,219.5669 562.25,219.5669 579.76,219.5669 " fill="none" id="Command-backto-OpenCommand" style="stroke:#181818;stroke-width:1.0;"/><polygon fill="none" points="429.35,426.4269,447.35,432.4269,447.35,420.4269,429.35,426.4269" style="stroke:#181818;stroke-width:1.0;"/></g><!--link Application to Document--><g id="link_Application_Document"><path codeLine="41" d="M104,194.4269 C104,210.4469 104,212.4669 104,231.5469 " fill="none" id="Application-Document" style="stroke:#181818;stroke-width:1.0;"/><polygon fill="none" points="104,182.4269,100,188.4269,104,194.4269,108,188.4269,104,182.4269" style="stroke:#181818;stroke-width:1.0;"/><polygon fill="#181818" points="104,237.5469,108,228.5469,104,232.5469,100,228.5469,104,237.5469" style="stroke:#181818;stroke-width:1.0;"/><text fill="#000000" font-family="sans-serif" font-size="13" lengthAdjust="spacing" textLength="65" x="31.8906" y="203.0858">document</text></g><!--link Application to Menu--><g id="link_Application_Menu"><path codeLine="42" d="M212.81,119.1369 C252.15,119.1369 278.32,119.1369 312.66,119.1369 " fill="none" id="Application-Menu" style="stroke:#181818;stroke-width:1.0;"/><polygon fill="none" points="200.81,119.1369,206.81,123.1369,212.81,119.1369,206.81,115.1369,200.81,119.1369" style="stroke:#181818;stroke-width:1.0;"/><polygon fill="#181818" points="318.66,119.1369,309.66,115.1369,313.66,119.1369,309.66,123.1369,318.66,119.1369" style="stroke:#181818;stroke-width:1.0;"/><text fill="#000000" font-family="sans-serif" font-size="13" lengthAdjust="spacing" textLength="37" x="208.9177" y="129.5154">menu</text></g><!--link Menu to MenuItem--><g id="link_Menu_MenuItem"><path codeLine="44" d="M448.24,126.7769 C479.68,126.7769 500,126.7769 500,126.7769 C500,126.7769 500,319.5669 500,319.5669 C500,319.5669 473.43,319.5669 441.88,319.5669 " fill="none" id="Menu-MenuItem" style="stroke:#181818;stroke-width:1.0;"/><polygon fill="none" points="436.24,126.7769,442.24,130.7769,448.24,126.7769,442.24,122.7769,436.24,126.7769" style="stroke:#181818;stroke-width:1.0;"/><polygon fill="#181818" points="435.88,319.5669,444.88,323.5669,440.88,319.5669,444.88,315.5669,435.88,319.5669" style="stroke:#181818;stroke-width:1.0;"/><text fill="#000000" font-family="sans-serif" font-size="13" lengthAdjust="spacing" textLength="73" x="444.1271" y="141.0613">menuItems</text></g><!--link MenuItem to Command--><g id="link_MenuItem_Command"><path codeLine="45" d="M360.33,390.3069 C360.33,401.5769 360.33,395.9569 360.33,406.9969 " fill="none" id="MenuItem-Command" style="stroke:#181818;stroke-width:1.0;"/><polygon fill="none" points="360.33,378.3069,356.33,384.3069,360.33,390.3069,364.33,384.3069,360.33,378.3069" style="stroke:#181818;stroke-width:1.0;"/><polygon fill="#181818" points="360.33,412.9969,364.33,403.9969,360.33,407.9969,356.33,403.9969,360.33,412.9969" style="stroke:#181818;stroke-width:1.0;"/><text fill="#000000" font-family="sans-serif" font-size="13" lengthAdjust="spacing" textLength="65" x="290.2078" y="394.8244">command</text></g><!--link OpenCommand to Application--><g id="link_OpenCommand_Application"><path codeLine="46" d="M579.51,175.5669 C479.96,175.5669 314.35,175.5669 206.79,175.5669 " fill="none" id="OpenCommand-to-Application" style="stroke:#181818;stroke-width:1.0;"/><polygon fill="#181818" points="200.79,175.5669,209.79,179.5669,205.79,175.5669,209.79,171.5669,200.79,175.5669" style="stroke:#181818;stroke-width:1.0;"/><text fill="#000000" font-family="sans-serif" font-size="13" lengthAdjust="spacing" textLength="69" x="510.3335" y="187.6186">application</text></g><!--SRC=[VLF1Ri8m3BtdAwoUog5yG66L9iPXXsbSzW5PQaP4cbHDq43QnozfczOfR5o8dkttx6VNdgLkUSSRK5AZkxK8fdCdmnGU7JW3dVmwEQXbXy99enbpqYc4dMaQhciuSEUmqx2_ygPLo9XGt5fuRbib1Uyh1kJ5Y4k3siMCDzGNydnrs32fFTUHYua-9d3HcHGwSEimXTvRr15Xf04eWTTrrC_ZOyLOVFeCuulp5KM4CXONqCKj0DFUKgGDVNc8XQ46vJpEDwBXsVDBSSOwv4OpIy0hUf50G6TE0dJo943c_mVdzlnXiQEosv-YI3rE8edLIIHnF6au4yF3Pc2AeeA7UydgqRUGLCqNakHuv3AIz2Sp6Dl3mKWxr4udD1aSEyYWJuWDK3CoFWjbK5JqQC7_c3OElM6W8-jks5aVtNvMeqHHJMPl67hYKCUMHR2UkYpBSVbibg0kxmUwA1DjAghnkgZAWpglHD6o7DiZQiI6XPZc3SBJV2ORqeN7DNvFYyf3xfn0t5pJ3yuN9Yn5DNniT8hxVlmG17mq0psunH17qm5N2WH83V4KOp3yYRzsTiyPzaRGkPDV]--></g></svg>