<?xml version="1.0" encoding="us-ascii" standalone="no"?><svg xmlns="http://www.w3.org/2000/svg" xmlns:xlink="http://www.w3.org/1999/xlink" contentStyleType="text/css" height="793px" preserveAspectRatio="none" style="width:927px;height:793px;background:#FFFFFF;" version="1.1" viewBox="0 0 927 793" width="927px" zoomAndPan="magnify"><defs/><g><text fill="#000000" font-family="sans-serif" font-size="14" font-weight="bold" lengthAdjust="spacing" textLength="211" x="351" y="22.9951">Command Pattern Example</text><!--class Application--><g id="elem_Application"><rect codeLine="7" fill="#F1F1F1" height="96.8906" id="Application" rx="2.5" ry="2.5" style="stroke:#181818;stroke-width:0.5;" width="275" x="456" y="673.4269"/><ellipse cx="551.75" cy="689.4269" fill="#ADD1B2" rx="11" ry="11" style="stroke:#181818;stroke-width:1.0;"/><path d="M554.7188,695.0675 Q554.1406,695.3644 553.5,695.505 Q552.8594,695.6613 552.1563,695.6613 Q549.6563,695.6613 548.3281,694.0206 Q547.0156,692.3644 547.0156,689.2394 Q547.0156,686.1144 548.3281,684.4581 Q549.6563,682.8019 552.1563,682.8019 Q552.8594,682.8019 553.5,682.9581 Q554.1563,683.1144 554.7188,683.4113 L554.7188,686.13 Q554.0938,685.5519 553.5,685.2863 Q552.9063,685.005 552.2813,685.005 Q550.9375,685.005 550.25,686.0831 Q549.5625,687.1456 549.5625,689.2394 Q549.5625,691.3331 550.25,692.4113 Q550.9375,693.4738 552.2813,693.4738 Q552.9063,693.4738 553.5,693.2081 Q554.0938,692.9269 554.7188,692.3488 L554.7188,695.0675 Z " fill="#000000"/><text fill="#000000" font-family="sans-serif" font-size="14" lengthAdjust="spacing" textLength="75" x="572.25" y="694.2736">Application</text><line style="stroke:#181818;stroke-width:0.5;" x1="457" x2="730" y1="705.4269" y2="705.4269"/><line style="stroke:#181818;stroke-width:0.5;" x1="457" x2="730" y1="713.4269" y2="713.4269"/><ellipse cx="467" cy="727.0753" fill="#84BE84" rx="3" ry="3" style="stroke:#038048;stroke-width:1.0;"/><text fill="#000000" font-family="sans-serif" font-size="14" lengthAdjust="spacing" textLength="223" x="476" y="730.422">addDocument(Document) : void</text><ellipse cx="467" cy="743.3722" fill="#84BE84" rx="3" ry="3" style="stroke:#038048;stroke-width:1.0;"/><text fill="#000000" font-family="sans-serif" font-size="14" lengthAdjust="spacing" textLength="249" x="476" y="746.7189">removeDocument(Document) : void</text><ellipse cx="467" cy="759.6691" fill="#84BE84" rx="3" ry="3" style="stroke:#038048;stroke-width:1.0;"/><text fill="#000000" font-family="sans-serif" font-size="14" lengthAdjust="spacing" textLength="209" x="476" y="763.0157">getDocument(int) : Document</text></g><!--class Document--><g id="elem_Document"><rect codeLine="8" fill="#F1F1F1" height="129.4844" id="Document" rx="2.5" ry="2.5" style="stroke:#181818;stroke-width:0.5;" width="105" x="815" y="656.6869"/><ellipse cx="830" cy="672.6869" fill="#ADD1B2" rx="11" ry="11" style="stroke:#181818;stroke-width:1.0;"/><path d="M832.9688,678.3275 Q832.3906,678.6244 831.75,678.765 Q831.1094,678.9213 830.4063,678.9213 Q827.9063,678.9213 826.5781,677.2806 Q825.2656,675.6244 825.2656,672.4994 Q825.2656,669.3744 826.5781,667.7181 Q827.9063,666.0619 830.4063,666.0619 Q831.1094,666.0619 831.75,666.2181 Q832.4063,666.3744 832.9688,666.6713 L832.9688,669.39 Q832.3438,668.8119 831.75,668.5463 Q831.1563,668.265 830.5313,668.265 Q829.1875,668.265 828.5,669.3431 Q827.8125,670.4056 827.8125,672.4994 Q827.8125,674.5931 828.5,675.6713 Q829.1875,676.7338 830.5313,676.7338 Q831.1563,676.7338 831.75,676.4681 Q832.3438,676.1869 832.9688,675.6088 L832.9688,678.3275 Z " fill="#000000"/><text fill="#000000" font-family="sans-serif" font-size="14" lengthAdjust="spacing" textLength="73" x="844" y="677.5336">Document</text><line style="stroke:#181818;stroke-width:0.5;" x1="816" x2="919" y1="688.6869" y2="688.6869"/><line style="stroke:#181818;stroke-width:0.5;" x1="816" x2="919" y1="696.6869" y2="696.6869"/><ellipse cx="826" cy="710.3353" fill="#84BE84" rx="3" ry="3" style="stroke:#038048;stroke-width:1.0;"/><text fill="#000000" font-family="sans-serif" font-size="14" lengthAdjust="spacing" textLength="46" x="835" y="713.682">open()</text><ellipse cx="826" cy="726.6322" fill="#84BE84" rx="3" ry="3" style="stroke:#038048;stroke-width:1.0;"/><text fill="#000000" font-family="sans-serif" font-size="14" lengthAdjust="spacing" textLength="47" x="835" y="729.9789">close()</text><ellipse cx="826" cy="742.9291" fill="#84BE84" rx="3" ry="3" style="stroke:#038048;stroke-width:1.0;"/><text fill="#000000" font-family="sans-serif" font-size="14" lengthAdjust="spacing" textLength="32" x="835" y="746.2757">cut()</text><ellipse cx="826" cy="759.2259" fill="#84BE84" rx="3" ry="3" style="stroke:#038048;stroke-width:1.0;"/><text fill="#000000" font-family="sans-serif" font-size="14" lengthAdjust="spacing" textLength="43" x="835" y="762.5726">copy()</text><ellipse cx="826" cy="775.5228" fill="#84BE84" rx="3" ry="3" style="stroke:#038048;stroke-width:1.0;"/><text fill="#000000" font-family="sans-serif" font-size="14" lengthAdjust="spacing" textLength="49" x="835" y="778.8695">paste()</text></g><!--class Menu--><g id="elem_Menu"><rect codeLine="10" fill="#F1F1F1" height="145.7813" id="Menu" rx="2.5" ry="2.5" style="stroke:#181818;stroke-width:0.5;" width="185" x="24" y="322.5369"/><ellipse cx="92.75" cy="338.5369" fill="#ADD1B2" rx="11" ry="11" style="stroke:#181818;stroke-width:1.0;"/><path d="M95.7188,344.1775 Q95.1406,344.4744 94.5,344.615 Q93.8594,344.7713 93.1563,344.7713 Q90.6563,344.7713 89.3281,343.1306 Q88.0156,341.4744 88.0156,338.3494 Q88.0156,335.2244 89.3281,333.5681 Q90.6563,331.9119 93.1563,331.9119 Q93.8594,331.9119 94.5,332.0681 Q95.1563,332.2244 95.7188,332.5213 L95.7188,335.24 Q95.0938,334.6619 94.5,334.3963 Q93.9063,334.115 93.2813,334.115 Q91.9375,334.115 91.25,335.1931 Q90.5625,336.2556 90.5625,338.3494 Q90.5625,340.4431 91.25,341.5213 Q91.9375,342.5838 93.2813,342.5838 Q93.9063,342.5838 94.5,342.3181 Q95.0938,342.0369 95.7188,341.4588 L95.7188,344.1775 Z " fill="#000000"/><text fill="#000000" font-family="sans-serif" font-size="14" lengthAdjust="spacing" textLength="39" x="113.25" y="343.3836">Menu</text><line style="stroke:#181818;stroke-width:0.5;" x1="25" x2="208" y1="354.5369" y2="354.5369"/><line style="stroke:#181818;stroke-width:0.5;" x1="25" x2="208" y1="362.5369" y2="362.5369"/><ellipse cx="35" cy="376.1853" fill="#84BE84" rx="3" ry="3" style="stroke:#038048;stroke-width:1.0;"/><text fill="#000000" font-family="sans-serif" font-size="14" lengthAdjust="spacing" textLength="146" x="44" y="379.532">add(MenuItem) : void</text><ellipse cx="35" cy="392.4822" fill="#84BE84" rx="3" ry="3" style="stroke:#038048;stroke-width:1.0;"/><text fill="#000000" font-family="sans-serif" font-size="14" lengthAdjust="spacing" textLength="159" x="44" y="395.8289">insert(MenuItem) : void</text><ellipse cx="35" cy="408.7791" fill="#84BE84" rx="3" ry="3" style="stroke:#038048;stroke-width:1.0;"/><text fill="#000000" font-family="sans-serif" font-size="14" lengthAdjust="spacing" textLength="142" x="44" y="412.1257">remove(Menu) : void</text><ellipse cx="35" cy="425.0759" fill="#84BE84" rx="3" ry="3" style="stroke:#038048;stroke-width:1.0;"/><text fill="#000000" font-family="sans-serif" font-size="14" lengthAdjust="spacing" textLength="102" x="44" y="428.4226">get(int) : Menu</text><ellipse cx="35" cy="441.3728" fill="#84BE84" rx="3" ry="3" style="stroke:#038048;stroke-width:1.0;"/><text fill="#000000" font-family="sans-serif" font-size="14" lengthAdjust="spacing" textLength="98" x="44" y="444.7195">display() : void</text><ellipse cx="35" cy="457.6697" fill="#84BE84" rx="3" ry="3" style="stroke:#038048;stroke-width:1.0;"/><text fill="#000000" font-family="sans-serif" font-size="14" lengthAdjust="spacing" textLength="99" x="44" y="461.0164">clicked() : void</text></g><!--class MenuItem--><g id="elem_MenuItem"><rect codeLine="11" fill="#F1F1F1" height="64.2969" id="MenuItem" rx="2.5" ry="2.5" style="stroke:#181818;stroke-width:0.5;" width="101" x="66" y="507.4269"/><ellipse cx="81" cy="523.4269" fill="#ADD1B2" rx="11" ry="11" style="stroke:#181818;stroke-width:1.0;"/><path d="M83.9688,529.0675 Q83.3906,529.3644 82.75,529.505 Q82.1094,529.6613 81.4063,529.6613 Q78.9063,529.6613 77.5781,528.0206 Q76.2656,526.3644 76.2656,523.2394 Q76.2656,520.1144 77.5781,518.4581 Q78.9063,516.8019 81.4063,516.8019 Q82.1094,516.8019 82.75,516.9581 Q83.4063,517.1144 83.9688,517.4113 L83.9688,520.13 Q83.3438,519.5519 82.75,519.2863 Q82.1563,519.005 81.5313,519.005 Q80.1875,519.005 79.5,520.0831 Q78.8125,521.1456 78.8125,523.2394 Q78.8125,525.3331 79.5,526.4113 Q80.1875,527.4738 81.5313,527.4738 Q82.1563,527.4738 82.75,527.2081 Q83.3438,526.9269 83.9688,526.3488 L83.9688,529.0675 Z " fill="#000000"/><text fill="#000000" font-family="sans-serif" font-size="14" lengthAdjust="spacing" textLength="69" x="95" y="528.2736">MenuItem</text><line style="stroke:#181818;stroke-width:0.5;" x1="67" x2="166" y1="539.4269" y2="539.4269"/><line style="stroke:#181818;stroke-width:0.5;" x1="67" x2="166" y1="547.4269" y2="547.4269"/><ellipse cx="77" cy="561.0753" fill="#84BE84" rx="3" ry="3" style="stroke:#038048;stroke-width:1.0;"/><text fill="#000000" font-family="sans-serif" font-size="14" lengthAdjust="spacing" textLength="58" x="86" y="564.422">clicked()</text></g><!--class Command--><g id="elem_Command"><rect codeLine="12" fill="#F1F1F1" height="64.2969" id="Command" rx="2.5" ry="2.5" style="stroke:#181818;stroke-width:0.5;" width="103" x="269" y="322.2769"/><ellipse cx="284" cy="338.2769" fill="#B4A7E5" rx="11" ry="11" style="stroke:#181818;stroke-width:1.0;"/><path d="M279.9219,334.0425 L279.9219,331.8863 L287.3125,331.8863 L287.3125,334.0425 L284.8438,334.0425 L284.8438,342.1206 L287.3125,342.1206 L287.3125,344.2769 L279.9219,344.2769 L279.9219,342.1206 L282.3906,342.1206 L282.3906,334.0425 L279.9219,334.0425 Z " fill="#000000"/><text fill="#000000" font-family="sans-serif" font-size="14" font-style="italic" lengthAdjust="spacing" textLength="71" x="298" y="343.1236">Command</text><line style="stroke:#181818;stroke-width:0.5;" x1="270" x2="371" y1="354.2769" y2="354.2769"/><line style="stroke:#181818;stroke-width:0.5;" x1="270" x2="371" y1="362.2769" y2="362.2769"/><ellipse cx="280" cy="375.9253" fill="#84BE84" rx="3" ry="3" style="stroke:#038048;stroke-width:1.0;"/><text fill="#000000" font-family="sans-serif" font-size="14" lengthAdjust="spacing" textLength="66" x="289" y="379.272">execute()</text></g><!--class MacroCommand--><g id="elem_MacroCommand"><rect codeLine="13" fill="#F1F1F1" height="96.8906" id="MacroCommand" rx="2.5" ry="2.5" style="stroke:#181818;stroke-width:0.5;" width="159" x="514" y="122.4269"/><ellipse cx="535.3" cy="138.4269" fill="#ADD1B2" rx="11" ry="11" style="stroke:#181818;stroke-width:1.0;"/><path d="M538.2688,144.0675 Q537.6906,144.3644 537.05,144.505 Q536.4094,144.6613 535.7063,144.6613 Q533.2063,144.6613 531.8781,143.0206 Q530.5656,141.3644 530.5656,138.2394 Q530.5656,135.1144 531.8781,133.4581 Q533.2063,131.8019 535.7063,131.8019 Q536.4094,131.8019 537.05,131.9581 Q537.7063,132.1144 538.2688,132.4113 L538.2688,135.13 Q537.6438,134.5519 537.05,134.2863 Q536.4563,134.005 535.8313,134.005 Q534.4875,134.005 533.8,135.0831 Q533.1125,136.1456 533.1125,138.2394 Q533.1125,140.3331 533.8,141.4113 Q534.4875,142.4738 535.8313,142.4738 Q536.4563,142.4738 537.05,142.2081 Q537.6438,141.9269 538.2688,141.3488 L538.2688,144.0675 Z " fill="#000000"/><text fill="#000000" font-family="sans-serif" font-size="14" lengthAdjust="spacing" textLength="113" x="550.7" y="143.2736">MacroCommand</text><line style="stroke:#181818;stroke-width:0.5;" x1="515" x2="672" y1="154.4269" y2="154.4269"/><line style="stroke:#181818;stroke-width:0.5;" x1="515" x2="672" y1="162.4269" y2="162.4269"/><ellipse cx="525" cy="176.0753" fill="#84BE84" rx="3" ry="3" style="stroke:#038048;stroke-width:1.0;"/><text fill="#000000" font-family="sans-serif" font-size="14" lengthAdjust="spacing" textLength="66" x="534" y="179.422">execute()</text><ellipse cx="525" cy="192.3722" fill="#84BE84" rx="3" ry="3" style="stroke:#038048;stroke-width:1.0;"/><text fill="#000000" font-family="sans-serif" font-size="14" lengthAdjust="spacing" textLength="107" x="534" y="195.7189">add(Command)</text><ellipse cx="525" cy="208.6691" fill="#84BE84" rx="3" ry="3" style="stroke:#038048;stroke-width:1.0;"/><text fill="#000000" font-family="sans-serif" font-size="14" lengthAdjust="spacing" textLength="133" x="534" y="212.0157">remove(Command)</text></g><!--class PasteCommand--><g id="elem_PasteCommand"><rect codeLine="14" fill="#F1F1F1" height="64.2969" id="PasteCommand" rx="2.5" ry="2.5" style="stroke:#181818;stroke-width:0.5;" width="142" x="522.5" y="322.4269"/><ellipse cx="537.5" cy="338.4269" fill="#ADD1B2" rx="11" ry="11" style="stroke:#181818;stroke-width:1.0;"/><path d="M540.4688,344.0675 Q539.8906,344.3644 539.25,344.505 Q538.6094,344.6613 537.9063,344.6613 Q535.4063,344.6613 534.0781,343.0206 Q532.7656,341.3644 532.7656,338.2394 Q532.7656,335.1144 534.0781,333.4581 Q535.4063,331.8019 537.9063,331.8019 Q538.6094,331.8019 539.25,331.9581 Q539.9063,332.1144 540.4688,332.4113 L540.4688,335.13 Q539.8438,334.5519 539.25,334.2863 Q538.6563,334.005 538.0313,334.005 Q536.6875,334.005 536,335.0831 Q535.3125,336.1456 535.3125,338.2394 Q535.3125,340.3331 536,341.4113 Q536.6875,342.4738 538.0313,342.4738 Q538.6563,342.4738 539.25,342.2081 Q539.8438,341.9269 540.4688,341.3488 L540.4688,344.0675 Z " fill="#000000"/><text fill="#000000" font-family="sans-serif" font-size="14" lengthAdjust="spacing" textLength="110" x="551.5" y="343.2736">PasteCommand</text><line style="stroke:#181818;stroke-width:0.5;" x1="523.5" x2="663.5" y1="354.4269" y2="354.4269"/><line style="stroke:#181818;stroke-width:0.5;" x1="523.5" x2="663.5" y1="362.4269" y2="362.4269"/><ellipse cx="533.5" cy="376.0753" fill="#84BE84" rx="3" ry="3" style="stroke:#038048;stroke-width:1.0;"/><text fill="#000000" font-family="sans-serif" font-size="14" lengthAdjust="spacing" textLength="66" x="542.5" y="379.422">execute()</text></g><!--class OpenCommand--><g id="elem_OpenCommand"><rect codeLine="15" fill="#F1F1F1" height="80.5938" id="OpenCommand" rx="2.5" ry="2.5" style="stroke:#181818;stroke-width:0.5;" width="141" x="523" y="534.4269"/><ellipse cx="538" cy="550.4269" fill="#ADD1B2" rx="11" ry="11" style="stroke:#181818;stroke-width:1.0;"/><path d="M540.9688,556.0675 Q540.3906,556.3644 539.75,556.505 Q539.1094,556.6613 538.4063,556.6613 Q535.9063,556.6613 534.5781,555.0206 Q533.2656,553.3644 533.2656,550.2394 Q533.2656,547.1144 534.5781,545.4581 Q535.9063,543.8019 538.4063,543.8019 Q539.1094,543.8019 539.75,543.9581 Q540.4063,544.1144 540.9688,544.4113 L540.9688,547.13 Q540.3438,546.5519 539.75,546.2863 Q539.1563,546.005 538.5313,546.005 Q537.1875,546.005 536.5,547.0831 Q535.8125,548.1456 535.8125,550.2394 Q535.8125,552.3331 536.5,553.4113 Q537.1875,554.4738 538.5313,554.4738 Q539.1563,554.4738 539.75,554.2081 Q540.3438,553.9269 540.9688,553.3488 L540.9688,556.0675 Z " fill="#000000"/><text fill="#000000" font-family="sans-serif" font-size="14" lengthAdjust="spacing" textLength="109" x="552" y="555.2736">OpenCommand</text><line style="stroke:#181818;stroke-width:0.5;" x1="524" x2="663" y1="566.4269" y2="566.4269"/><line style="stroke:#181818;stroke-width:0.5;" x1="524" x2="663" y1="574.4269" y2="574.4269"/><ellipse cx="534" cy="588.0753" fill="#84BE84" rx="3" ry="3" style="stroke:#038048;stroke-width:1.0;"/><text fill="#000000" font-family="sans-serif" font-size="14" lengthAdjust="spacing" textLength="66" x="543" y="591.422">execute()</text><ellipse cx="534" cy="604.3722" fill="#84BE84" rx="3" ry="3" style="stroke:#038048;stroke-width:1.0;"/><text fill="#000000" font-family="sans-serif" font-size="14" lengthAdjust="spacing" textLength="66" x="543" y="607.7189">askUser()</text></g><g id="elem_nMenuItemClicked"><path d="M24,262.8569 L24,287.9897 L209,287.9897 L209,272.8569 L199,262.8569 L24,262.8569 " fill="#FEFFDD" style="stroke:#181818;stroke-width:0.5;"/><path d="M199,262.8569 L199,272.8569 L209,272.8569 L199,262.8569 " fill="#FEFFDD" style="stroke:#181818;stroke-width:1.0;"/><text fill="#000000" font-family="sans-serif" font-size="13" font-weight="bold" lengthAdjust="spacing" textLength="164" x="30" y="279.9238">command-&gt;execute();</text></g><g id="elem_nPasteCommandExecute"><path d="M508.5,257.8569 L508.5,282.9897 A0,0 0 0 0 508.5,282.9897 L589.5,282.9897 L593.5,366.6169 L597.5,282.9897 L678.5,282.9897 A0,0 0 0 0 678.5,282.9897 L678.5,267.8569 L668.5,257.8569 L508.5,257.8569 A0,0 0 0 0 508.5,257.8569 " fill="#FEFFDD" style="stroke:#181818;stroke-width:0.5;"/><path d="M668.5,257.8569 L668.5,267.8569 L678.5,267.8569 L668.5,257.8569 " fill="#FEFFDD" style="stroke:#181818;stroke-width:0.5;"/><text fill="#000000" font-family="sans-serif" font-size="13" font-weight="bold" lengthAdjust="spacing" textLength="149" x="514.5" y="274.9238">document-&gt;paste();</text></g><g id="elem_nOpenCommandExecute"><path d="M465.5,425.1569 L465.5,495.6881 A0,0 0 0 0 465.5,495.6881 L589.5,495.6881 L593.5,578.5369 L597.5,495.6881 L721.5,495.6881 A0,0 0 0 0 721.5,495.6881 L721.5,435.1569 L711.5,425.1569 L465.5,425.1569 A0,0 0 0 0 465.5,425.1569 " fill="#FEFFDD" style="stroke:#181818;stroke-width:0.5;"/><path d="M711.5,425.1569 L711.5,435.1569 L721.5,435.1569 L711.5,425.1569 " fill="#FEFFDD" style="stroke:#181818;stroke-width:0.5;"/><text fill="#000000" font-family="sans-serif" font-size="13" font-weight="bold" lengthAdjust="spacing" textLength="138" x="471.5" y="442.2238">name = askUser();</text><text fill="#000000" font-family="sans-serif" font-size="13" font-weight="bold" lengthAdjust="spacing" textLength="216" x="471.5" y="457.3566">doc = new Document(name);</text><text fill="#000000" font-family="sans-serif" font-size="13" font-weight="bold" lengthAdjust="spacing" textLength="235" x="471.5" y="472.4894">application.addDocument(doc);</text><text fill="#000000" font-family="sans-serif" font-size="13" font-weight="bold" lengthAdjust="spacing" textLength="97" x="471.5" y="487.6222">doc-&gt;open();</text></g><g id="elem_nMacroCommandExecute"><path d="M503,43.2969 L503,83.5625 A0,0 0 0 0 503,83.5625 L589.5,83.5625 L593.5,166.4369 L597.5,83.5625 L684,83.5625 A0,0 0 0 0 684,83.5625 L684,53.2969 L674,43.2969 L503,43.2969 A0,0 0 0 0 503,43.2969 " fill="#FEFFDD" style="stroke:#181818;stroke-width:0.5;"/><path d="M674,43.2969 L674,53.2969 L684,53.2969 L674,43.2969 " fill="#FEFFDD" style="stroke:#181818;stroke-width:0.5;"/><text fill="#000000" font-family="sans-serif" font-size="13" font-weight="bold" lengthAdjust="spacing" textLength="160" x="509" y="60.3638">for all c in commands</text><text fill="#000000" font-family="sans-serif" font-size="13" font-weight="bold" lengthAdjust="spacing" textLength="99" x="529" y="75.4966">c-&gt;execute();</text></g><!--reverse link Command to MacroCommand--><g id="link_Command_MacroCommand"><path codeLine="44" d="M337.67,303.8969 C337.67,255.3969 337.67,187.7569 337.67,187.7569 C337.67,187.7569 432.06,187.7569 506.17,187.7569 " fill="none" id="Command-backto-MacroCommand" style="stroke:#181818;stroke-width:1.0;"/><polygon fill="none" points="337.67,321.8969,343.67,303.8969,331.67,303.8969,337.67,321.8969" style="stroke:#181818;stroke-width:1.0;"/></g><!--link MacroCommand to Command--><g id="link_MacroCommand_Command"><path codeLine="50" d="M494.05,153.0969 C408.61,153.0969 303.33,153.0969 303.33,153.0969 C303.33,153.0969 303.33,259.1669 303.33,316.0769 " fill="none" id="MacroCommand-Command" style="stroke:#181818;stroke-width:1.0;"/><polygon fill="none" points="506.05,153.0969,500.05,149.0969,494.05,153.0969,500.05,157.0969,506.05,153.0969" style="stroke:#181818;stroke-width:1.0;"/><polygon fill="#181818" points="303.33,322.0769,307.33,313.0769,303.33,317.0769,299.33,313.0769,303.33,322.0769" style="stroke:#181818;stroke-width:1.0;"/><text fill="#000000" font-family="sans-serif" font-size="13" lengthAdjust="spacing" textLength="72" x="433.8571" y="165.1478">commands</text></g><!--reverse link Command to PasteCommand--><g id="link_Command_PasteCommand"><path codeLine="45" d="M390.49,354.4269 C430.64,354.4269 468.86,354.4269 514.55,354.4269 " fill="none" id="Command-backto-PasteCommand" style="stroke:#181818;stroke-width:1.0;"/><polygon fill="none" points="372.49,354.4269,390.49,360.4269,390.49,348.4269,372.49,354.4269" style="stroke:#181818;stroke-width:1.0;"/></g><!--reverse link Command to OpenCommand--><g id="link_Command_OpenCommand"><path codeLine="46" d="M337.67,404.7569 C337.67,461.0069 337.67,552.9269 337.67,552.9269 C337.67,552.9269 439.8,552.9269 515,552.9269 " fill="none" id="Command-backto-OpenCommand" style="stroke:#181818;stroke-width:1.0;"/><polygon fill="none" points="337.67,386.7569,331.67,404.7569,343.67,404.7569,337.67,386.7569" style="stroke:#181818;stroke-width:1.0;"/></g><!--reverse link Menu to MenuItem--><g id="link_Menu_MenuItem"><path codeLine="48" d="M97,486.6969 C97,498.7769 97,492.8269 97,503.4569 " fill="none" id="Menu-backto-MenuItem" style="stroke:#181818;stroke-width:1.0;"/><polygon fill="none" points="97,468.6969,91,486.6969,103,486.6969,97,468.6969" style="stroke:#181818;stroke-width:1.0;"/></g><!--link Menu to MenuItem--><g id="link_Menu_MenuItem"><path codeLine="55" d="M136,480.6969 C136,492.7769 136,486.8269 136,497.4569 " fill="none" id="Menu-MenuItem" style="stroke:#181818;stroke-width:1.0;"/><polygon fill="none" points="136,468.6969,132,474.6969,136,480.6969,140,474.6969,136,468.6969" style="stroke:#181818;stroke-width:1.0;"/><polygon fill="#181818" points="136,503.4569,140,494.4569,136,498.4569,132,494.4569,136,503.4569" style="stroke:#181818;stroke-width:1.0;"/><text fill="#000000" font-family="sans-serif" font-size="13" lengthAdjust="spacing" textLength="73" x="61.3797" y="488.4684">menuItems</text></g><!--link Application to Document--><g id="link_Application_Document"><path codeLine="52" d="M742.9,721.4269 C772.68,721.4269 784.43,721.4269 808.53,721.4269 " fill="none" id="Application-Document" style="stroke:#181818;stroke-width:1.0;"/><polygon fill="none" points="730.9,721.4269,736.9,725.4269,742.9,721.4269,736.9,717.4269,730.9,721.4269" style="stroke:#181818;stroke-width:1.0;"/><polygon fill="#181818" points="814.53,721.4269,805.53,717.4269,809.53,721.4269,805.53,725.4269,814.53,721.4269" style="stroke:#181818;stroke-width:1.0;"/><text fill="#000000" font-family="sans-serif" font-size="13" lengthAdjust="spacing" textLength="72" x="735.1344" y="734.1245">documents</text></g><!--link Application to Menu--><g id="link_Application_Menu"><path codeLine="53" d="M448.75,709.3769 C448.75,705.1469 448.75,446.7369 448.75,446.7369 C448.75,446.7369 313.78,446.7369 215.49,446.7369 " fill="none" id="Application-Menu" style="stroke:#181818;stroke-width:1.0;"/><polygon fill="none" points="448.75,721.3769,452.75,715.3769,448.75,709.3769,444.75,715.3769,448.75,721.3769" style="stroke:#181818;stroke-width:1.0;"/><polygon fill="#181818" points="209.49,446.7369,218.49,450.7369,214.49,446.7369,218.49,442.7369,209.49,446.7369" style="stroke:#181818;stroke-width:1.0;"/><text fill="#000000" font-family="sans-serif" font-size="13" lengthAdjust="spacing" textLength="37" x="410.9848" y="733.4769">menu</text></g><!--link MenuItem to Command--><g id="link_MenuItem_Command"><path codeLine="56" d="M186.85,516.9269 C241.67,516.9269 303.33,516.9269 303.33,516.9269 C303.33,516.9269 303.33,440.3469 303.33,392.9169 " fill="none" id="MenuItem-Command" style="stroke:#181818;stroke-width:1.0;"/><polygon fill="none" points="174.85,516.9269,180.85,520.9269,186.85,516.9269,180.85,512.9269,174.85,516.9269" style="stroke:#181818;stroke-width:1.0;"/><polygon fill="#181818" points="303.33,386.9169,299.33,395.9169,303.33,391.9169,307.33,395.9169,303.33,386.9169" style="stroke:#181818;stroke-width:1.0;"/><text fill="#000000" font-family="sans-serif" font-size="13" lengthAdjust="spacing" textLength="65" x="174.992" y="513.9468">command</text></g><!--link OpenCommand to Application--><g id="link_OpenCommand_Application"><path codeLine="57" d="M593.5,618.1369 C593.5,635.5669 593.5,649.6969 593.5,667.5269 " fill="none" id="OpenCommand-to-Application" style="stroke:#181818;stroke-width:1.0;"/><polygon fill="#181818" points="593.5,673.5269,597.5,664.5269,593.5,668.5269,589.5,664.5269,593.5,673.5269" style="stroke:#181818;stroke-width:1.0;"/><text fill="#000000" font-family="sans-serif" font-size="13" lengthAdjust="spacing" textLength="69" x="521.2117" y="635.0628">application</text></g><!--link nMenuItemClicked to MenuItem--><g id="link_nMenuItemClicked_MenuItem"><path codeLine="62" d="M23.75,275.4269 C13.12,275.4269 6,275.4269 6,275.4269 C6,275.4269 6,539.4269 6,539.4269 C6,539.4269 113.07,539.4269 116.42,539.4269 " fill="none" id="nMenuItemClicked-MenuItem" style="stroke:#181818;stroke-width:1.0;stroke-dasharray:7.0,7.0;"/></g><!--SRC=[ZLHDJ-Gm3BtdLrWz3KBb1nIej08EUrZ1XH-GJJqGJPfKJOOFYH-_ILkdJcT0EvT9ttDiF_kr_g3j84VPWz4Mm-U0uCRmweJ1VO3WODGlhm4wFQ8AsbaXWWu6uSxrlRGTFCaGSBJmy27xmQ0GoaZluTSm6AtaT6D6xfqwzcW3HVn1UsJ7tm5xeMtCjPSgfwS0gKPNGa_I1ooXnm4j8O8r00rSogwZ1dPqk8Z4czFTDdR4thtXVuU_OCYnUWvRjT8f1RhOt-wYW9Hn7hVOCMmHDtnke279ZvX8iri4xcYEkLCYjVKuXk_vMV74dt1H7icQLaPuf_rWPEnhUq75uHomMmb1TGjM2B9GHF43e-maYA_wPoOfNXvFoKLHvhbTohJCDJyIqX-UunHvupTVTLrwis0AYnPCuTHfRX5UNuDIJQNcWw_0rNKBPorUTOivA2fRi8YAo749c9Ov5v_WL7cwtAwDvCLH3nMKFV0PLNAjL47Tyay0n9-mBY183vRItirUcDYRl-rIesxp3gu5niJfdjXUWglSPjCifX9h2JxxXpaTbQ59rUto4l4gP-x5IXnjcgKzLesDOLFCoXxX5h9vhbaN4RVudZUrIx5h09lc5VzwnOj5bhgTlojSnMa_KGG3psdWdjk8sBiHf36WG5iWDnAP_jHtEplDcVR6qBMJVm00]--></g></svg>